<?xml version='1.0' encoding='UTF-8'?>
<svg viewBox="-2 -6.6675 32 32" xmlns="http://www.w3.org/2000/svg" xmlns:xlink="http://www.w3.org/1999/xlink">
  <g transform="translate(0, -0.0008)">
    <g transform="matrix(1.1667, 0, 0, 1.1667, 0, 0)">
      <g id="Layer_1" transform="translate(-4, -8)" style="enable-background:new 0 0 32 32">
        <g id="EnvelopeClose">
          <path d="M16, 16L28, 9.1L28, 9C28, 8.5 27.5, 8 27, 8L5, 8C4.5, 8 4, 8.5 4, 9L4, 9.1L16, 16z" fill="#FFB115" class="Yellow" />
        </g>
      </g>
    </g>
  </g>
  <g transform="translate(0, -0.0008)">
    <g transform="matrix(1.1667, 0, 0, 1.1667, 0, 0)">
      <g id="Layer_1" transform="translate(-4, -8)" style="enable-background:new 0 0 32 32">
        <g id="EnvelopeClose">
          <path d="M16, 18.3L4, 11.4L4, 23C4, 23.5 4.5, 24 5, 24L27, 24C27.5, 24 28, 23.5 28, 23L28, 11.4L16, 18.3z" fill="#FFB115" class="Yellow" />
        </g>
      </g>
    </g>
  </g>
  <g id="Layer_1" transform="translate(14, 9.3325)" style="enable-background:new 0 0 16 16">
    <g id="Send_2_">
      <polygon points="0,10 16,0 12,14 9,13 6,16 6,12 12,5 3.7,11.1  " fill="#1177D7" class="Blue" />
    </g>
  </g>
</svg>