<?xml version='1.0' encoding='UTF-8'?>
<svg viewBox="-2.05 -2 32 32" xmlns="http://www.w3.org/2000/svg" xmlns:xlink="http://www.w3.org/1999/xlink">
  <g id="Layer_1" transform="translate(-0.9849, -0.9324)">
    <g transform="matrix(0.9333, 0, 0, 0.9333, 0, 0)">
      <g id="icon">
        <path d="M30.831, 20.515C30.242, 17.497 29.194, 17.447 23.462, 15.393C22.625, 15.074 22.389, 14.615 22.452, 13.96C24.069, 11.999 25.043, 8.827 25.043, 6.609C25.043, 3.175 23.888, 0.999 19.157, 0.999C14.803, 0.999 13.56, 2.842 13.389, 5.813C19.247, 6.065 19.943, 9.843 19.943, 12.709C19.943, 14.835 19.112, 17.992 17.519, 20.275C18.094, 20.481 18.621, 20.666 19.105, 20.837C22.781, 22.131 24.437, 22.716 25.279, 24.835C27.91, 24.717 30.279, 24.4 30.567, 23.579C31.037, 22.236 31.008, 21.728 30.831, 20.515z" fill="#1177D7" fill-opacity="1" class="Blue" fill-rule="evenodd" />
      </g>
    </g>
  </g>
  <g id="Layer_1" transform="translate(-0.9849, -0.9324)">
    <g transform="matrix(0.9333, 0, 0, 0.9333, 0, 0)">
      <g id="icon">
        <path d="M24.431, 26.615C23.842, 23.597 22.794, 23.547 17.062, 21.493C16.225, 21.174 15.989, 20.715 16.052, 20.06C17.669, 18.099 18.643, 14.927 18.643, 12.709C18.643, 9.275 17.488, 7.099 12.757, 7.099C12.738, 7.099 12.763, 7.099 12.757, 7.099C8.026, 7.099 6.966, 9.274 6.966, 12.709C6.966, 14.927 7.936, 18.093 9.553, 20.054C9.616, 20.709 9.377, 21.171 8.541, 21.49C2.809, 23.544 1.76, 23.596 1.171, 26.613C0.994, 27.826 0.964, 28.334 1.436, 29.679C1.967, 31.192 9.472, 30.994 12.757, 30.994C12.77, 30.994 12.735, 30.994 12.757, 30.994C16.042, 30.994 23.635, 31.193 24.166, 29.68C24.637, 28.336 24.608, 27.828 24.431, 26.615z" fill="#1177D7" fill-opacity="1" class="Blue" fill-rule="evenodd" />
      </g>
    </g>
  </g>
  <g id="Layer_1" transform="translate(13.95, 14)" style="enable-background:new 0 0 16 16">
    <g id="Forbid_1_">
      <circle cx="8" cy="8" r="8" fill="#D11C1C" class="Red" />
    </g>
  </g>
  <g id="Layer_1" transform="translate(13.95, 14)" style="enable-background:new 0 0 16 16">
    <g id="Forbid_1_">
      <path d="M11.5, 3.1C10.5, 2.4 9.3, 2 8, 2C4.7, 2 2, 4.7 2, 8C2, 9.3 2.4, 10.5 3.1, 11.5L11.5, 3.1z" fill="#FFFFFF" class="White" />
    </g>
  </g>
  <g id="Layer_1" transform="translate(13.95, 14)" style="enable-background:new 0 0 16 16">
    <g id="Forbid_1_">
      <path d="M12.9, 4.5L4.5, 12.9C5.5, 13.6 6.7, 14 8, 14C11.3, 14 14, 11.3 14, 8C14, 6.7 13.6, 5.5 12.9, 4.5z" fill="#FFFFFF" class="White" />
    </g>
  </g>
</svg>