<?xml version='1.0' encoding='UTF-8'?>
<svg viewBox="-2.39 -2 32 32" xmlns="http://www.w3.org/2000/svg" xmlns:xlink="http://www.w3.org/1999/xlink">
  <g id="Layer_1" transform="translate(-1.3713, -0.9626)">
    <g transform="matrix(0.9349, 0, 0, 0.9349, 0, 0)">
      <g id="icon">
        <path d="M29.3831, 27.2847L29.3803, 27.2645C29.3052, 26.7041 29.2403, 26.1883 29.1803, 25.7125C28.8426, 23.0308 28.677, 21.9135 27.9619, 21.1851C27.1592, 20.3673 25.4144, 19.7167 22.1915, 18.5968C21.8814, 18.4892 21.512, 18.3542 21.1031, 18.2088C21.2791, 17.84 21.454, 17.4564 21.6269, 17.0552C21.2608, 16.9047 20.6892, 16.7712 19.9432, 16.5416C19.6221, 16.9013 19.2816, 17.2238 18.9242, 17.5017C17.943, 17.2272 16.9277, 17.0201 16.04, 17.0201C14.9571, 17.0201 14.0498, 17.1705 13.1302, 17.4306C12.7856, 17.1495 12.4577, 16.8264 12.1493, 16.4675C11.5031, 16.7471 11.1019, 16.7866 10.67, 16.9877C10.844, 17.3729 11.0163, 17.742 11.1872, 18.098C10.8208, 18.2383 10.4376, 18.3888 10.0267, 18.5488C6.6729, 19.7121 4.8746, 20.3684 4.0653, 21.1832C3.3753, 21.8778 3.2242, 22.8496 2.8888, 25.5573C2.8259, 26.0651 2.7546, 26.6407 2.671, 27.2645L2.6681, 27.2847C2.6619, 27.3258 2.6541, 27.377 2.7609, 27.5013C3.0243, 27.8081 4.315, 28.8544 9.8629, 29.4371C12.969, 29.7634 15.8523, 29.775 15.9392, 29.7753C16.0274, 29.775 18.9524, 29.7634 22.101, 29.4357C27.7279, 28.8502 29.0287, 27.799 29.2933, 27.4908C29.3962, 27.3708 29.389, 27.323 29.3831, 27.2847z" fill="#FFFFFF" fill-opacity="1" class="White" fill-rule="evenodd" />
      </g>
    </g>
  </g>
  <g id="Layer_1" transform="translate(-1.3713, -0.9626)">
    <g transform="matrix(0.9349, 0, 0, 0.9349, 0, 0)">
      <g id="icon">
        <path d="M30.5697, 27.105C29.6237, 20.0469 30.3015, 20.1375 22.1692, 17.3188C21.9476, 17.2142 21.7701, 17.1309 21.6216, 17.0673C21.4505, 17.464 21.2773, 17.8437 21.1031, 18.2087C21.512, 18.3541 21.8814, 18.4891 22.1915, 18.5967C25.4144, 19.7166 27.1592, 20.3673 27.9619, 21.185C28.6769, 21.9135 28.8426, 23.0308 29.1803, 25.7124C29.2403, 26.1882 29.3052, 26.7039 29.3803, 27.2644L29.3831, 27.2846C29.389, 27.323 29.3962, 27.3707 29.2932, 27.4908C29.0286, 27.799 27.7278, 28.8502 22.1009, 29.4357C18.9524, 29.7633 16.0274, 29.775 15.9391, 29.7753C15.8522, 29.775 12.9689, 29.7634 9.8628, 29.4371C4.3149, 28.8544 3.0243, 27.8081 2.7608, 27.5013C2.6541, 27.377 2.6618, 27.3258 2.668, 27.2847L2.6709, 27.2645C2.7545, 26.6407 2.8258, 26.0651 2.8887, 25.5573C3.2241, 22.8496 3.3752, 21.8779 4.0652, 21.1832C4.8746, 20.3684 6.6729, 19.7121 10.0266, 18.5488C10.4235, 18.3942 10.7943, 18.2487 11.1494, 18.1125C10.9741, 17.7516 10.7979, 17.3771 10.6214, 16.9862C10.5751, 17.0054 10.2586, 17.1406 9.7969, 17.3584C1.6646, 20.1771 2.4275, 20.047 1.4815, 27.1051C0.8988, 30.9542 15.939, 30.9754 15.939, 30.9754C15.939, 30.9754 31.1524, 30.9541 30.5697, 27.105z" fill="#727272" fill-opacity="1" class="Black" fill-rule="evenodd" />
      </g>
    </g>
  </g>
  <g id="Layer_1" transform="translate(-1.3713, -0.9626)">
    <g transform="matrix(0.9349, 0, 0, 0.9349, 0, 0)">
      <g id="icon">
        <path d="M16.0947, 1.0273C10.2753, 1.0273 8.9551, 3.601 8.9551, 7.6872C8.9551, 11.7734 11.8179, 18.55 16.0628, 18.55C20.3077, 18.55 23.2829, 11.7735 23.2829, 7.6873C23.2829, 3.6011 21.8497, 1.0273 16.0947, 1.0273zM16.0391, 17.0641C12.5565, 17.0641 10.411, 11.4935 10.411, 8.0184C10.411, 7.9146 10.4133, 7.8121 10.4174, 7.7106C13.2226, 7.5789 18.5568, 6.953 20.3024, 5.7667C20.434, 6.3149 21.0705, 7.2891 21.6601, 7.7055C21.6643, 7.8086 21.6666, 7.9129 21.6666, 8.0184C21.6667, 11.4935 19.5217, 17.0641 16.0391, 17.0641z" fill="#727272" fill-opacity="1" class="Black" fill-rule="evenodd" />
      </g>
    </g>
  </g>
  <g id="Layer_1" transform="translate(-1.3713, -0.9626)">
    <g transform="matrix(0.9349, 0, 0, 0.9349, 0, 0)">
      <g id="icon">
        <path d="M20.3024, 5.7667C18.5568, 6.953 13.2226, 7.5789 10.4174, 7.7106C10.4133, 7.8121 10.411, 7.9146 10.411, 8.0184C10.411, 11.4935 12.5566, 17.0641 16.0391, 17.0641C19.5216, 17.0641 21.6666, 11.4935 21.6666, 8.0184C21.6666, 7.9129 21.6643, 7.8086 21.6601, 7.7055C21.0705, 7.2891 20.434, 6.3148 20.3024, 5.7667z" fill="#FFFFFF" fill-opacity="1" class="White" fill-rule="evenodd" />
      </g>
    </g>
  </g>
  <g id="Layer_1" transform="translate(-1.3713, -0.9626)">
    <g transform="matrix(0.9349, 0, 0, 0.9349, 0, 0)">
      <g id="icon">
        <path d="M14.2688, 20.1955C14.3154, 18.9879 14.7751, 19.2218 16.0684, 19.2218C17.3617, 19.2218 17.8419, 18.988 17.7953, 20.1932C17.8073, 20.7397 17.4266, 20.97 16.9563, 21.5069C16.9338, 23.3877 17.7455, 30.0226 17.7455, 30.0226L16.0437, 30.4L14.4739, 29.9788C14.4739, 29.9788 15.1205, 23.4106 15.1712, 21.5048C14.8164, 20.9383 14.2688, 20.754 14.2688, 20.1955z" fill="#727272" fill-opacity="1" class="Black" fill-rule="evenodd" />
      </g>
    </g>
  </g>
</svg>