<?xml version='1.0' encoding='UTF-8'?>
<svg viewBox="-3.8667 -2 31.9992 32" xmlns="http://www.w3.org/2000/svg" xmlns:xlink="http://www.w3.org/1999/xlink">
  <g id="Layer_1" transform="translate(-2.80000123100281, -0.9333)">
    <g transform="matrix(0.933333694934845, 0, 0, 0.933333694934845, 0, 0)">
      <g id="icon">
        <path d="M27.7, 1L6.3, 1C5.582, 1 5, 1.582 5, 2.3L5, 29.7C5, 30.418 5.582, 31 6.3, 31L27.7, 31C28.418, 31 29, 30.418 29, 29.7L29, 2.3C29, 1.582 28.418, 1 27.7, 1zM27, 29L8, 29L7, 29L6, 29L6, 27L7, 27L7, 25L6, 25L6, 23L7, 23L7, 21L6, 21L6, 19L7, 19L7, 17L6, 17L6, 15L7, 15L7, 13L6, 13L6, 11L7, 11L7, 9L6, 9L6, 7L7, 7L7, 5L6, 5L6, 3L7, 3L8, 3L27, 3L27, 29z" fill="#FFB115" class="Yellow" />
      </g>
    </g>
  </g>
  <g id="Layer_1" transform="translate(-2.80000095367432, -0.933299946784973)">
    <g transform="matrix(0.933333694934845, 0, 0, 0.933333694934845, 0, 0)">
      <g id="icon">
        <path d="M5, 19L5, 21L3, 21L3, 19L5, 19zM3, 15L3, 17L5, 17L5, 15L3, 15zM3, 11L3, 13L5, 13L5, 11L3, 11zM3, 23L3, 25L5, 25L5, 23L3, 23zM3, 27L3, 29L5, 29L5, 27L3, 27zM5, 7L5, 9L3, 9L3, 7L5, 7zM5, 3L5, 5L3, 5L3, 3L5, 3z" fill="#727272" class="Black" />
      </g>
    </g>
  </g>
  <g id="Layer_1" transform="translate(-2.80000150756836, -0.933300343322754)">
    <g transform="matrix(0.933333694934845, 0, 0, 0.933333694934845, 0, 0)">
      <g id="icon">
        <path d="M10.5, 5.5L18.5, 5.5M10.5, 8.5L18.5, 8.5M10.5, 11.5L18.5, 11.5M10.5, 14.5L18.5, 14.5M10.5, 17.5L18.5, 17.5M10.5, 20.5L18.5, 20.5M10.5, 23.5L18.5, 23.5M10.5, 26.5L18.5, 26.5" fill="none" stroke="#000000" stroke-width="1px" stroke-linecap="round" stroke-miterlimit="10" />
      </g>
    </g>
  </g>
  <g id="Layer_1" transform="translate(-2.80000349121094, -0.933300343322754)">
    <g transform="matrix(0.933333694934845, 0, 0, 0.933333694934845, 0, 0)">
      <g id="icon">
        <path d="M21.5, 5.5L24.5, 5.5M21.5, 11.5L24.5, 11.5M21.5, 20.5L24.5, 20.5M21.5, 26.5L24.5, 26.5" fill="none" stroke="#D04D2F" stroke-width="1px" stroke-linecap="round" stroke-miterlimit="10" />
      </g>
    </g>
  </g>
  <g id="Layer_1" transform="translate(-2.80000349121094, -0.933301106262207)">
    <g transform="matrix(0.933333694934845, 0, 0, 0.933333694934845, 0, 0)">
      <g id="icon">
        <path d="M21.5, 8.5L24.5, 8.5M21.5, 14.5L24.5, 14.5M21.5, 17.5L24.5, 17.5M21.5, 23.5L24.5, 23.5" fill="none" stroke="#4DAE89" stroke-width="1px" stroke-linecap="round" stroke-miterlimit="10" />
      </g>
    </g>
  </g>
</svg>