<?xml version='1.0' encoding='UTF-8'?>
<svg viewBox="0 -1.4 32 32" xmlns="http://www.w3.org/2000/svg" xmlns:xlink="http://www.w3.org/1999/xlink">
  <linearGradient x1="4.725px" y1="14.725px" x2="23.055px" y2="33.055px" gradientUnits="userSpaceOnUse" spreadMethod="pad" id="flEJnwg7q~uKUdkX0KCyBa" tag="staticElement_id395381449">
    <stop offset="0%" stop-color="#18884f" />
    <stop offset="100%" stop-color="#0b6731" />
  </linearGradient>
  <g transform="translate(-2.80000076293945, -4.19999980926514)">
    <g transform="matrix(0.699999809265137, 0, 0, 0.699999809265137, 0, 0)">
      <rect x="28" y="15" width="16" height="9" fill="#21a366" />
    </g>
  </g>
  <g transform="translate(-2.80000057220459, -4.20000057220459)">
    <g transform="matrix(0.699999809265137, 0, 0, 0.699999809265137, 0, 0)">
      <path d="M44, 24L12, 24L12, 40C12, 41.105 12.895, 42 14, 42L42, 42C43.105, 42 44, 41.105 44, 40L44, 24z" fill="#185c37" />
    </g>
  </g>
  <g transform="translate(-2.80000076293945, -4.20000057220459)">
    <g transform="matrix(0.699999809265137, 0, 0, 0.699999809265137, 0, 0)">
      <rect x="28" y="24" width="16" height="9" fill="#107c42" />
    </g>
  </g>
  <g transform="translate(-2.80000057220459, -4.19999980926514)">
    <g transform="matrix(0.699999809265137, 0, 0, 0.699999809265137, 0, 0)">
      <rect x="12" y="15" width="16" height="9" fill="#3fa071" />
    </g>
  </g>
  <g transform="translate(-2.80000076293945, -4.2)">
    <g transform="matrix(0.699999809265137, 0, 0, 0.699999809265137, 0, 0)">
      <path d="M42, 6L28, 6L28, 15L44, 15L44, 8C44, 6.895 43.105, 6 42, 6z" fill="#33c481" />
    </g>
  </g>
  <g transform="translate(-2.80000057220459, -4.2)">
    <g transform="matrix(0.699999809265137, 0, 0, 0.699999809265137, 0, 0)">
      <path d="M14, 6L28, 6L28, 15L12, 15L12, 8C12, 6.895 12.895, 6 14, 6z" fill="#21a366" />
    </g>
  </g>
  <g transform="translate(-2.80000057220459, -4.20000038146973)">
    <g transform="matrix(0.699999809265137, 0, 0, 0.699999809265137, 0, 0)">
      <path d="M22.319, 13L12, 13L12, 37L22.319, 37C24.352, 37 26, 35.352 26, 33.319L26, 16.681C26, 14.648 24.352, 13 22.319, 13z" opacity="0.05" />
    </g>
  </g>
  <g transform="translate(-2.80000057220459, -4.20000072479248)">
    <g transform="matrix(0.699999809265137, 0, 0, 0.699999809265137, 0, 0)">
      <path d="M22.213, 36L12, 36L12, 13.333L22.213, 13.333C23.937, 13.333 25.334, 14.73 25.334, 16.454L25.334, 32.879C25.333, 34.603 23.936, 36 22.213, 36z" opacity="0.07" />
    </g>
  </g>
  <g transform="translate(-2.80000057220459, -4.20000064849854)">
    <g transform="matrix(0.699999809265137, 0, 0, 0.699999809265137, 0, 0)">
      <path d="M22.106, 35L12, 35L12, 13.667L22.106, 13.667C23.52, 13.667 24.666, 14.813 24.666, 16.227L24.666, 32.44C24.667, 33.854 23.52, 35 22.106, 35z" opacity="0.09" />
    </g>
  </g>
  <g transform="translate(-2.8, -4.20000057220459)">
    <g transform="matrix(0.699999809265137, 0, 0, 0.699999809265137, 0, 0)">
      <path d="M22, 34L6, 34C4.895, 34 4, 33.105 4, 32L4, 16C4, 14.895 4.895, 14 6, 14L22, 14C23.105, 14 24, 14.895 24, 16L24, 32C24, 33.105 23.105, 34 22, 34z" fill="url(#flEJnwg7q~uKUdkX0KCyBa)" />
    </g>
  </g>
  <g transform="translate(-2.80000017471313, -4.19999961853027)">
    <g transform="matrix(0.699999809265137, 0, 0, 0.699999809265137, 0, 0)">
      <path d="M9.807, 19L12.193, 19L14.129, 22.754L16.175, 19L18.404, 19L15.333, 24L18.474, 29L16.123, 29L14.013, 25.07L11.912, 29L9.526, 29L12.719, 23.982L9.807, 19z" fill="#fff" style="fill:#FCF7F7" />
    </g>
  </g>
  <g id="Layer_1" transform="translate(16, 14.6000003814697)" style="enable-background:new 0 0 16 16">
    <g id="Refresh_4_">
      <path d="M16, 0L13.7, 2.3C12.2, 0.9 10.2, 0 8, 0C3.6, 0 0, 3.6 0, 8C0, 8.7 0.1, 9.4 0.3, 10L0, 10L0, 16L2.3, 13.7C3.8, 15.1 5.8, 16 8, 16C12.4, 16 16, 12.4 16, 8C16, 7.3 15.9, 6.6 15.7, 6L16, 6L16, 0z" fill="#1177D7" class="Blue" />
    </g>
  </g>
  <g id="Layer_1" transform="translate(16, 14.6000003814697)" style="enable-background:new 0 0 16 16">
    <g id="Refresh_4_">
      <path d="M13.7, 6L10, 6L12.2, 3.8C11.2, 2.7 9.7, 2 8, 2C4.7, 2 2, 4.7 2, 8L0, 8C0, 8.7 0.1, 9.4 0.3, 10L2.4, 10L6, 10L3.8, 12.2C4.8, 13.3 6.3, 14 8, 14C11.3, 14 14, 11.3 14, 8L16, 8C16, 7.3 15.9, 6.6 15.7, 6L13.7, 6z" fill="#FFFFFF" class="White" />
    </g>
  </g>
</svg>