<?xml version='1.0' encoding='UTF-8'?>
<svg viewBox="-2.0094 -1.9999 32 32" xmlns="http://www.w3.org/2000/svg" xmlns:xlink="http://www.w3.org/1999/xlink">
  <g transform="translate(0, 0)">
    <g id="Layer_1" transform="translate(-0.9719, -0.9529)">
      <g transform="matrix(0.9297, 0, 0, 0.9297, 0, 0)">
        <g id="icon">
          <path d="M16, 11.3C18.596, 11.3 20.7, 13.404 20.7, 16C20.7, 18.596 18.596, 20.7 16, 20.7C13.404, 20.7 11.3, 18.596 11.3, 16C11.3, 13.404 13.404, 11.3 16, 11.3zM24.46, 4.72C24.46, 6.277 25.723, 7.54 27.28, 7.54C28.837, 7.54 30.1, 6.277 30.1, 4.72C30.1, 3.163 28.837, 1.9 27.28, 1.9C25.723, 1.9 24.46, 3.163 24.46, 4.72zM7.54, 27.28C7.54, 28.837 8.803, 30.1 10.36, 30.1C11.917, 30.1 13.18, 28.837 13.18, 27.28C13.18, 25.723 11.917, 24.46 10.36, 24.46C8.803, 24.46 7.54, 25.723 7.54, 27.28zM19.29, 12.71L25.306, 6.694M9.42, 5.66C9.42, 6.698 10.262, 7.54 11.3, 7.54C12.338, 7.54 13.18, 6.698 13.18, 5.66C13.18, 4.622 12.338, 3.78 11.3, 3.78C10.262, 3.78 9.42, 4.622 9.42, 5.66zM1.9, 18.82C1.9, 19.858 2.742, 20.7 3.78, 20.7C4.818, 20.7 5.66, 19.858 5.66, 18.82C5.66, 17.782 4.818, 16.94 3.78, 16.94C2.742, 16.94 1.9, 17.782 1.9, 18.82zM24.46, 22.58C24.46, 23.618 25.302, 24.46 26.34, 24.46C27.378, 24.46 28.22, 23.618 28.22, 22.58C28.22, 21.542 27.378, 20.7 26.34, 20.7C25.302, 20.7 24.46, 21.542 24.46, 22.58zM12.095, 7.409L14.028, 11.661M24.622, 21.537L20.022, 18.583M5.744, 18.367L11.327, 17.079M13.849, 20.266L11.603, 24.721" fill="#FFFFFF" fill-opacity="1" class="White" stroke="#377AB5" stroke-width="1.8px" stroke-miterlimit="10" stroke-opacity="1" />
        </g>
      </g>
    </g>
  </g>
</svg>