<?xml version='1.0' encoding='UTF-8'?>
<svg viewBox="-2 -2.9325 32 32" xmlns="http://www.w3.org/2000/svg" xmlns:xlink="http://www.w3.org/1999/xlink">
  <g id="Layer_1" transform="translate(-0.9351, -2.8002)">
    <g transform="matrix(0.9333, 0, 0, 0.9333, 0, 0)">
      <g id="icon">
        <path d="M28.133, 3L3.867, 3C2.283, 3 1, 4.283 1, 5.867L1, 22.134C1, 23.717 2.283, 25 3.867, 25L7, 25L7, 30.38C7, 30.853 7.51, 31.151 7.922, 30.919L16.768, 24.999L28.133, 24.999C29.716, 24.999 31, 23.716 31, 22.132L31, 5.867C31, 4.283 29.717, 3 28.133, 3zM9.287, 8.07C9.287, 8.304 9.097, 8.494 8.863, 8.494L8.807, 8.494C8.013, 8.507 7.687, 8.861 7.687, 9.713C7.687, 10.001 7.727, 10.299 7.769, 10.615C7.78, 10.697 7.791, 10.878 7.801, 10.96L7.807, 10.995C7.873, 11.405 7.935, 11.792 7.935, 12.239C7.949, 13.11 7.647, 13.714 7.037, 14.039C7.634, 14.364 7.935, 14.972 7.935, 15.853C7.935, 16.315 7.867, 16.742 7.801, 17.155C7.792, 17.228 7.781, 17.307 7.771, 17.387C7.728, 17.706 7.688, 18.008 7.688, 18.311C7.688, 19.163 8.024, 19.532 8.811, 19.546L8.864, 19.546C9.098, 19.546 9.288, 19.736 9.288, 19.97L9.288, 20.429C9.288, 20.663 9.098, 20.853 8.864, 20.853L8.742, 20.853C7.07, 20.853 6.15, 19.979 6.15, 18.393C6.15, 18.001 6.196, 17.575 6.3, 17.011C6.311, 16.91 6.323, 16.81 6.334, 16.71C6.375, 16.358 6.413, 16.025 6.413, 15.704C6.413, 15.04 6.117, 14.722 5.455, 14.673C5.243, 14.657 5.077, 14.48 5.077, 14.269L5.077, 13.823C5.077, 13.612 5.244, 13.434 5.457, 13.419C6.228, 13.365 6.397, 12.972 6.414, 12.398C6.414, 11.94 6.342, 11.454 6.284, 11.064L6.277, 11.013C6.212, 10.54 6.15, 9.993 6.15, 9.549C6.15, 8.048 7.101, 7.188 8.759, 7.188L8.865, 7.188C9.099, 7.188 9.289, 7.378 9.289, 7.612L9.289, 8.07zM11, 15.5C10.172, 15.5 9.5, 14.828 9.5, 14C9.5, 13.172 10.172, 12.5 11, 12.5C11.828, 12.5 12.5, 13.172 12.5, 14C12.5, 14.828 12.028, 15.5 11, 15.5zM16, 15.5C15.172, 15.5 14.5, 14.828 14.5, 14C14.5, 13.172 15.172, 12.5 16, 12.5C16.828, 12.5 17.5, 13.172 17.5, 14C17.5, 14.828 17.028, 15.5 16, 15.5zM21, 15.5C20.172, 15.5 19.5, 14.828 19.5, 14C19.5, 13.172 20.172, 12.5 21, 12.5C21.828, 12.5 22.5, 13.172 22.5, 14C22.5, 14.828 22.028, 15.5 21, 15.5zM26.987, 14.269C26.987, 14.48 26.821, 14.657 26.609, 14.673C25.946, 14.722 25.651, 15.04 25.651, 15.704C25.651, 16.026 25.69, 16.358 25.73, 16.71C25.742, 16.81 25.753, 16.91 25.764, 17.011C25.868, 17.574 25.914, 18.001 25.914, 18.393C25.914, 19.98 24.993, 20.853 23.322, 20.853L23.2, 20.853C22.966, 20.853 22.776, 20.663 22.776, 20.429L22.776, 19.97C22.776, 19.736 22.966, 19.546 23.2, 19.546L23.253, 19.546C24.041, 19.532 24.376, 19.162 24.376, 18.311C24.376, 18.007 24.336, 17.706 24.293, 17.387C24.282, 17.307 24.272, 17.228 24.263, 17.155C24.197, 16.742 24.129, 16.315 24.129, 15.853C24.129, 14.972 24.431, 14.364 25.027, 14.039C24.417, 13.714 24.115, 13.111 24.129, 12.239C24.129, 11.793 24.191, 11.405 24.257, 10.995L24.263, 10.96C24.273, 10.878 24.284, 10.697 24.295, 10.615C24.337, 10.3 24.377, 10.002 24.377, 9.713C24.377, 8.861 24.052, 8.508 23.257, 8.494L23.2, 8.494C22.966, 8.494 22.776, 8.304 22.776, 8.07L22.776, 7.611C22.776, 7.377 22.966, 7.187 23.2, 7.187L23.306, 7.187C24.964, 7.187 25.915, 8.048 25.915, 9.548C25.915, 9.992 25.853, 10.539 25.788, 11.012L25.781, 11.063C25.723, 11.454 25.651, 11.94 25.651, 12.397C25.667, 12.97 25.836, 13.363 26.608, 13.418C26.821, 13.433 26.988, 13.61 26.988, 13.822L26.988, 14.269z" fill="#039C23" fill-opacity="1" class="Green" />
      </g>
    </g>
  </g>
  <g id="Layer_1" transform="translate(-0.9351, -2.8002)">
    <g transform="matrix(0.9333, 0, 0, 0.9333, 0, 0)">
      <g id="icon">
        <path d="M12.5, 14C12.5, 14.828 12.028, 15.5 11, 15.5C10.172, 15.5 9.5, 14.828 9.5, 14C9.5, 13.172 10.172, 12.5 11, 12.5C11.828, 12.5 12.5, 13.172 12.5, 14zM16, 12.5C15.172, 12.5 14.5, 13.172 14.5, 14C14.5, 14.828 15.172, 15.5 16, 15.5C17.028, 15.5 17.5, 14.828 17.5, 14C17.5, 13.172 16.828, 12.5 16, 12.5zM21, 12.5C20.172, 12.5 19.5, 13.172 19.5, 14C19.5, 14.828 20.172, 15.5 21, 15.5C22.028, 15.5 22.5, 14.828 22.5, 14C22.5, 13.172 21.828, 12.5 21, 12.5zM8.863, 20.853C9.097, 20.853 9.287, 20.663 9.287, 20.429L9.287, 19.97C9.287, 19.736 9.097, 19.546 8.863, 19.546L8.81, 19.546C8.022, 19.532 7.687, 19.162 7.687, 18.311C7.687, 18.007 7.727, 17.706 7.77, 17.387C7.781, 17.307 7.791, 17.228 7.8, 17.155C7.866, 16.742 7.934, 16.315 7.934, 15.853C7.934, 14.972 7.632, 14.364 7.036, 14.039C7.646, 13.714 7.948, 13.111 7.934, 12.239C7.934, 11.793 7.872, 11.405 7.806, 10.995L7.8, 10.96C7.79, 10.878 7.779, 10.697 7.768, 10.615C7.726, 10.3 7.686, 10.002 7.686, 9.713C7.686, 8.861 8.011, 8.508 8.806, 8.494L8.862, 8.494C9.096, 8.494 9.286, 8.304 9.286, 8.07L9.286, 7.611C9.286, 7.377 9.096, 7.187 8.862, 7.187L8.756, 7.187C7.098, 7.187 6.147, 8.048 6.147, 9.548C6.147, 9.992 6.209, 10.539 6.274, 11.012L6.281, 11.063C6.339, 11.454 6.411, 11.94 6.411, 12.397C6.395, 12.97 6.226, 13.363 5.454, 13.418C5.241, 13.433 5.074, 13.61 5.074, 13.822L5.074, 14.268C5.074, 14.479 5.24, 14.656 5.452, 14.672C6.115, 14.721 6.41, 15.039 6.41, 15.703C6.41, 16.025 6.371, 16.357 6.331, 16.709C6.319, 16.809 6.308, 16.909 6.297, 17.01C6.193, 17.573 6.147, 18 6.147, 18.392C6.147, 19.979 7.068, 20.852 8.739, 20.852L8.863, 20.852zM23.323, 20.853C24.995, 20.853 25.915, 19.979 25.915, 18.393C25.915, 18.001 25.869, 17.575 25.765, 17.011C25.754, 16.91 25.742, 16.81 25.731, 16.71C25.69, 16.358 25.652, 16.025 25.652, 15.704C25.652, 15.04 25.948, 14.722 26.61, 14.673C26.822, 14.657 26.988, 14.48 26.988, 14.269L26.988, 13.823C26.988, 13.612 26.821, 13.434 26.608, 13.419C25.837, 13.365 25.668, 12.972 25.651, 12.398C25.651, 11.94 25.723, 11.454 25.781, 11.064L25.788, 11.013C25.853, 10.54 25.915, 9.993 25.915, 9.549C25.915, 8.048 24.964, 7.188 23.306, 7.188L23.2, 7.188C22.966, 7.188 22.776, 7.378 22.776, 7.612L22.776, 8.071C22.776, 8.305 22.966, 8.495 23.2, 8.495L23.256, 8.495C24.05, 8.508 24.376, 8.862 24.376, 9.714C24.376, 10.002 24.336, 10.3 24.294, 10.616C24.283, 10.698 24.272, 10.879 24.262, 10.961L24.256, 10.996C24.19, 11.406 24.128, 11.793 24.128, 12.24C24.114, 13.111 24.416, 13.715 25.026, 14.04C24.429, 14.365 24.128, 14.973 24.128, 15.854C24.128, 16.316 24.196, 16.743 24.262, 17.156C24.271, 17.229 24.282, 17.308 24.292, 17.388C24.335, 17.707 24.375, 18.009 24.375, 18.312C24.375, 19.164 24.039, 19.533 23.252, 19.547L23.199, 19.547C22.965, 19.547 22.775, 19.737 22.775, 19.971L22.775, 20.43C22.775, 20.664 22.965, 20.854 23.199, 20.854L23.323, 20.854z" fill="#FFFFFF" fill-opacity="1" class="White" fill-rule="evenodd" />
      </g>
    </g>
  </g>
</svg>