<?xml version='1.0' encoding='UTF-8'?>
<svg viewBox="-0.0006 0 32.0006 32" xmlns="http://www.w3.org/2000/svg" xmlns:xlink="http://www.w3.org/1999/xlink">
  <g transform="translate(0, 0)">
    <g transform="matrix(1.1428, 0, 0, 1.1428, 0, 0)">
      <g id="Layer_1" transform="translate(-0.0009, 0)">
        <g transform="matrix(0.875, 0, 0, 0.875, 0, 0)">
          <g id="main">
            <g id="icon">
              <path d="M4, 15.86L4.955, 16.53L5.175, 16.44L5.371, 15.32L5.445, 15.04L5.563, 14.79L5.912, 14.37L6.382, 14.1L6.65, 14.03L6.933, 14L8.12, 14L8.404, 14.03L8.672, 14.1L9.141, 14.37L9.491, 14.79L9.609, 15.04L9.682, 15.32L9.89, 16.51L10.18, 16.63L11.11, 15.98L11.54, 15.76L12.02, 15.69L12.33, 15.72L12.63, 15.81L12.9, 15.95L13.14, 16.15L13.98, 16.99L14.17, 17.21L14.3, 17.45L14.44, 17.98L14.4, 18.52L14.3, 18.78L14.16, 19.03L13.46, 20.02L13.55, 20.22L14.69, 20.42L14.96, 20.49L15.21, 20.61L15.63, 20.96L15.9, 21.43L15.97, 21.7L16, 21.98L16, 23.17L15.97, 23.45L15.9, 23.72L15.63, 24.19L15.21, 24.54L14.96, 24.66L14.68, 24.73L13.54, 24.93L13.4, 25.27L13.91, 26L16.97, 26L16.9, 25L16.94, 24.17L17.06, 23.37L17.26, 22.59L17.54, 21.85L17.88, 21.14L18.28, 20.47L18.75, 19.85L19.27, 19.27L19.85, 18.75L20.47, 18.28L21.14, 17.88L21.85, 17.54L22.59, 17.26L23.37, 17.06L24.17, 16.94L25, 16.9L26.1, 16.97L27.16, 17.19L28.16, 17.54L29, 17.96L29, 0.5L4, 0.5zz" fill="#FFFFFF" fill-rule="evenodd" />
            </g>
          </g>
        </g>
      </g>
    </g>
  </g>
  <g transform="translate(0, 0)">
    <g transform="matrix(1.1428, 0, 0, 1.1428, 0, 0)">
      <g id="Layer_1" transform="translate(-0.0009, 0)">
        <g transform="matrix(0.875, 0, 0, 0.875, 0, 0)">
          <g id="main">
            <g id="icon">
              <path d="M3.488, 0.0629L3.234, 0.2342L3.063, 0.4885L3, 0.8L3, 15.56L3.063, 15.55L3.541, 15.63L3.975, 15.84L3.999, 15.86L3.999, 1L29, 1L29, 17.96L29.1, 18.01L29.96, 18.59L30, 18.63L30, 0.8L29.94, 0.4885L29.77, 0.2342L29.51, 0.0629L29.2, 0L3.8, 0zM14.02, 26.16L14.23, 26.56L14.31, 27L17.16, 27L16.97, 26.1L16.97, 26L13.91, 26zz" fill="#727272" class="Black" fill-rule="evenodd" />
            </g>
          </g>
        </g>
      </g>
    </g>
  </g>
  <g transform="translate(0, 0)">
    <g transform="matrix(1.1428, 0, 0, 1.1428, 0, 0)">
      <g id="Layer_1" transform="translate(-0.0009, 0)">
        <g transform="matrix(0.875, 0, 0, 0.875, 0, 0)">
          <g id="main">
            <g id="icon">
              <path d="M12.51, 3.048L12.35, 3.154L9.476, 6.027L8.281, 4.833L8.121, 4.727L7.938, 4.691L7.756, 4.727L7.595, 4.833L7.171, 5.257L7.065, 5.417L7.029, 5.6L7.065, 5.782L7.171, 5.943L9.133, 7.904L9.293, 8.01L9.476, 8.046L9.658, 8.01L9.819, 7.904L13.46, 4.264L13.57, 4.104L13.6, 3.921L13.57, 3.739L13.46, 3.578L13.03, 3.154L12.87, 3.048L12.69, 3.012zM12.51, 10.01L12.35, 10.12L9.476, 12.99L8.281, 11.8L8.12, 11.69L7.938, 11.66L7.755, 11.69L7.595, 11.8L7.171, 12.22L7.065, 12.38L7.029, 12.56L7.065, 12.75L7.171, 12.91L8.273, 14.01L8.699, 14.11L9.073, 14.32L9.377, 14.62L9.591, 15L9.819, 14.87L13.46, 11.23L13.57, 11.07L13.6, 10.89L13.57, 10.7L13.46, 10.54L13.03, 10.12L12.87, 10.01L12.69, 9.977zz" fill="#1177D7" class="Blue" />
            </g>
          </g>
        </g>
      </g>
    </g>
  </g>
  <g transform="translate(0, 0)">
    <g transform="matrix(1.1428, 0, 0, 1.1428, 0, 0)">
      <g id="Layer_1" transform="translate(-0.0009, 0)">
        <g transform="matrix(0.875, 0, 0, 0.875, 0, 0)">
          <g id="main">
            <g id="icon">
              <path d="M15.31, 6.039L15.15, 6.146L15.04, 6.305L15, 6.5L15.04, 6.695L15.15, 6.854L15.31, 6.961L15.5, 7L18.5, 7L18.69, 6.961L18.85, 6.854L18.96, 6.695L19, 6.5L18.96, 6.305L18.85, 6.146L18.69, 6.039L18.5, 6L15.5, 6zM20.31, 6.039L20.15, 6.146L20.04, 6.305L20, 6.5L20.04, 6.695L20.15, 6.854L20.31, 6.961L20.5, 7L22.5, 7L22.69, 6.961L22.85, 6.854L22.96, 6.695L23, 6.5L22.96, 6.305L22.85, 6.146L22.69, 6.039L22.5, 6L20.5, 6zM24.31, 6.039L24.15, 6.146L24.04, 6.305L24, 6.5L24.04, 6.695L24.15, 6.854L24.31, 6.961L24.5, 7L26.5, 7L26.69, 6.961L26.85, 6.854L26.96, 6.695L27, 6.5L26.96, 6.305L26.85, 6.146L26.69, 6.039L26.5, 6L24.5, 6zM15.31, 13.04L15.15, 13.15L15.04, 13.31L15, 13.5L15.04, 13.69L15.15, 13.85L15.31, 13.96L15.5, 14L18.5, 14L18.69, 13.96L18.85, 13.85L18.96, 13.69L19, 13.5L18.96, 13.31L18.85, 13.15L18.69, 13.04L18.5, 13L15.5, 13zM20.31, 13.04L20.15, 13.15L20.04, 13.31L20, 13.5L20.04, 13.69L20.15, 13.85L20.31, 13.96L20.5, 14L22.5, 14L22.69, 13.96L22.85, 13.85L22.96, 13.69L23, 13.5L22.96, 13.31L22.85, 13.15L22.69, 13.04L22.5, 13L20.5, 13zM24.31, 13.04L24.15, 13.15L24.04, 13.31L24, 13.5L24.04, 13.69L24.15, 13.85L24.31, 13.96L24.5, 14L26.5, 14L26.69, 13.96L26.85, 13.85L26.96, 13.69L27, 13.5L26.96, 13.31L26.85, 13.15L26.69, 13.04L26.5, 13L24.5, 13zM15.31, 20.04L15.15, 20.15L15.04, 20.31L15, 20.5L15, 20.51L15.36, 20.71L15.66, 21L17.96, 21L18.28, 20.47L18.62, 20.02L18.5, 20L15.5, 20zz" fill="#727272" class="Black" />
            </g>
          </g>
        </g>
      </g>
    </g>
  </g>
  <g transform="translate(0, 0)">
    <g transform="matrix(1.1428, 0, 0, 1.1428, 0, 0)">
      <g id="Layer_1" transform="translate(-0.0009, 0)">
        <g transform="matrix(0.875, 0, 0, 0.875, 0, 0)">
          <g id="main">
            <g id="icon">
              <path d="M6.729, 15.04L6.556, 15.14L6.427, 15.29L6.356, 15.49L6.056, 17.21L5.447, 17.41L4.855, 17.68L3.4, 16.66L3.213, 16.57L3.013, 16.55L2.818, 16.61L2.649, 16.72L1.81, 17.56L1.692, 17.73L1.641, 17.93L1.658, 18.13L1.745, 18.31L2.719, 19.7L2.401, 20.33L2.169, 21.01L0.485, 21.3L0.2912, 21.37L0.1381, 21.5L0.0373, 21.68L0.001, 21.88L0.001, 23.07L0.0373, 23.27L0.1381, 23.44L0.2912, 23.57L0.485, 23.64L2.115, 23.93L2.317, 24.58L2.604, 25.2L1.617, 26.6L1.529, 26.79L1.511, 26.99L1.563, 27.18L1.681, 27.35L2.517, 28.19L2.687, 28.31L2.881, 28.36L3.081, 28.34L3.269, 28.25L4.609, 27.31L5.269, 27.63L5.965, 27.87L6.254, 29.52L6.325, 29.71L6.454, 29.86L6.628, 29.96L6.831, 30L8.019, 30L8.222, 29.96L8.396, 29.86L8.525, 29.71L8.596, 29.52L8.883, 27.88L9.521, 27.68L10.14, 27.39L11.55, 28.38L11.74, 28.47L11.94, 28.49L12.13, 28.44L12.3, 28.32L13.14, 27.48L13.26, 27.31L13.31, 27.12L13.29, 26.92L13.21, 26.73L12.23, 25.35L12.55, 24.71L12.78, 24.05L14.51, 23.75L14.71, 23.68L14.86, 23.55L14.96, 23.37L15, 23.17L15, 21.98L14.96, 21.78L14.86, 21.61L14.71, 21.48L14.51, 21.41L12.79, 21.1L12.58, 20.5L12.31, 19.92L13.34, 18.45L13.43, 18.26L13.45, 18.06L13.39, 17.87L13.28, 17.7L12.44, 16.86L12.27, 16.74L12.07, 16.69L11.87, 16.71L11.69, 16.79L10.26, 17.8L9.647, 17.49L9.005, 17.26L8.697, 15.49L8.626, 15.29L8.497, 15.14L8.323, 15.04L8.12, 15L6.933, 15zM8.11, 20.11L8.567, 20.28L8.987, 20.53L9.355, 20.87L9.656, 21.29L9.868, 21.76L9.978, 22.25L9.991, 22.74L9.91, 23.22L9.739, 23.68L9.482, 24.1L9.143, 24.47L8.724, 24.77L8.254, 24.98L7.765, 25.09L7.273, 25.11L6.791, 25.03L6.334, 24.85L5.914, 24.6L5.546, 24.26L5.245, 23.84L5.033, 23.37L4.923, 22.88L4.91, 22.39L4.991, 21.91L5.162, 21.45L5.419, 21.03L5.758, 20.66L6.177, 20.36L6.647, 20.15L7.136, 20.04L7.628, 20.02zz" fill="#727272" class="Black" fill-rule="evenodd" />
            </g>
          </g>
        </g>
      </g>
    </g>
  </g>
  <g transform="translate(0, 0)">
    <g transform="matrix(1.1428, 0, 0, 1.1428, 0, 0)">
      <g id="Layer_1" transform="translate(-0.0009, 0)">
        <g transform="matrix(0.875, 0, 0, 0.875, 0, 0)">
          <g id="main">
            <g id="overlay">
              <path d="M25, 18C21.134, 18 18, 21.134 18, 25C18, 28.866 21.134, 32 25, 32C28.866, 32 32, 28.866 32, 25C32, 21.134 28.866, 18 25, 18zM28.5, 24.5L25.5, 27.5L28.5, 27.5L28.5, 29L21.5, 29L21.5, 27.5L24.5135, 27.5C23.5523, 26.5115 21.5, 24.4 21.5, 24.4L21.5, 22.2L24, 24.7L24, 20L26, 20L26, 24.7L28.5, 22.2L28.5, 24.5z" fill="#039C23" class="Green" fill-rule="evenodd" />
            </g>
          </g>
        </g>
      </g>
    </g>
  </g>
  <g transform="translate(0, 0)">
    <g transform="matrix(1.1428, 0, 0, 1.1428, 0, 0)">
      <g id="Layer_1" transform="translate(-0.0009, 0)">
        <g transform="matrix(0.875, 0, 0, 0.875, 0, 0)">
          <g id="main">
            <g id="overlay">
              <path d="M28.5, 22.2L26, 24.7L26, 20L24, 20L24, 24.7L21.5, 22.2L21.5, 24.4C21.5, 24.4 23.5523, 26.5115 24.5135, 27.5L21.5, 27.5L21.5, 29L28.5, 29L28.5, 27.5L25.5, 27.5L28.5, 24.5L28.5, 22.2z" fill="#FFFFFF" fill-rule="evenodd" />
            </g>
          </g>
        </g>
      </g>
    </g>
  </g>
</svg>