<?xml version='1.0' encoding='UTF-8'?>
<svg viewBox="-2 -4 32.0005 32" xmlns="http://www.w3.org/2000/svg" xmlns:xlink="http://www.w3.org/1999/xlink">
  <g id="Layer_1" transform="translate(-2, -4)" style="enable-background:new 0 0 32 32">
    <g id="Window">
      <path d="M30, 10L30, 5C30, 4.5 29.5, 4 29, 4L3, 4C2.5, 4 2, 4.5 2, 5L2, 10L30, 10z" fill="#1177D7" class="Blue" />
    </g>
  </g>
  <g id="Layer_1" transform="translate(-2, -4.00000095367432)" style="enable-background:new 0 0 32 32">
    <g id="Window">
      <path d="M28, 10L28, 26L4, 26L4, 10L2, 10L2, 27C2, 27.5 2.5, 28 3, 28L29, 28C29.5, 28 30, 27.5 30, 27L30, 10L28, 10z" fill="#727272" class="Black" />
    </g>
  </g>
  <g id="Layer_1" transform="translate(4, 2)" style="enable-background:new 0 0 16 16">
    <g id="Remove_1_">
      <path d="M15, 10L1, 10C0.4, 10 0, 9.6 0, 9L0, 7C0, 6.4 0.4, 6 1, 6L15, 6C15.6, 6 16, 6.4 16, 7L16, 9C16, 9.6 15.6, 10 15, 10z" fill="#1177D7" class="Blue" />
    </g>
  </g>
  <g id="Layer_1" transform="translate(4, 10)" style="enable-background:new 0 0 16 16">
    <g id="Remove_1_">
      <path d="M15, 10L1, 10C0.4, 10 0, 9.6 0, 9L0, 7C0, 6.4 0.4, 6 1, 6L15, 6C15.6, 6 16, 6.4 16, 7L16, 9C16, 9.6 15.6, 10 15, 10z" fill="#1177D7" class="Blue" />
    </g>
  </g>
  <g transform="translate(14.4995002746582, 12.5)">
    <g transform="matrix(0.5, 0, 0, 0.5, 0, 0)">
      <g transform="translate(0, 0)">
        <g transform="matrix(1.0357, 0, 0, 1.0357, 0, 0)">
          <g transform="translate(0, 0)">
            <g transform="matrix(0.9655, 0, 0, 0.9655, 0, 0)">
              <g transform="translate(0, 0)">
                <g transform="matrix(0.9062, 0, 0, 0.9062, 0, 0)">
                  <g transform="translate(0, 0)">
                    <g transform="matrix(1.1429, 0, 0, 1.1429, 0, 0)">
                      <g id="Layer_1" transform="translate(-0.9655, -0.9655)">
                        <g transform="matrix(0.9655, 0, 0, 0.9655, 0, 0)">
                          <g id="icon">
                            <path d="M30, 15.5C30, 7.4919 23.5081, 1 15.5, 1C7.4919, 1 1, 7.4919 1, 15.5C1, 23.5081 7.4919, 30 15.5, 30C23.5081, 30 30, 23.5081 30, 15.5zM23, 23.7C23, 23.8657 22.8657, 24 22.7, 24L8.3, 24C8.1343, 24 8, 23.8657 8, 23.7L8, 21.3C8, 21.1343 8.1343, 21 8.3, 21L15.381, 21C15.3356, 20.9862 15.2924, 20.9627 15.2564, 20.9269L9.0589, 14.7566C9.0212, 14.7191 9, 14.6681 9, 14.6149L9, 11.0124C9, 10.8342 9.2154, 10.745 9.3414, 10.871L14, 15.5296L14, 6.3C14, 6.1343 14.1343, 6 14.3, 6L16.7, 6C16.8657, 6 17, 6.1343 17, 6.3L17, 15.4593L21.6586, 10.8007C21.7846, 10.6747 22, 10.7639 22, 10.9421L22, 14.5473C22, 14.6005 21.9788, 14.6515 21.9412, 14.689L15.6799, 20.9268C15.6439, 20.9627 15.6007, 20.9862 15.5553, 21L22.7, 21C22.8657, 21 23, 21.1343 23, 21.3L23, 23.7z" fill="#039C23" class="Green" fill-rule="evenOdd" />
                          </g>
                        </g>
                      </g>
                    </g>
                  </g>
                </g>
              </g>
            </g>
          </g>
        </g>
      </g>
    </g>
  </g>
  <g transform="translate(14.4995002746582, 12.5)">
    <g transform="matrix(0.5, 0, 0, 0.5, 0, 0)">
      <g transform="translate(0, 0)">
        <g transform="matrix(1.0357, 0, 0, 1.0357, 0, 0)">
          <g transform="translate(0, 0)">
            <g transform="matrix(0.9655, 0, 0, 0.9655, 0, 0)">
              <g transform="translate(0, 0)">
                <g transform="matrix(0.9062, 0, 0, 0.9062, 0, 0)">
                  <g transform="translate(0, 0)">
                    <g transform="matrix(1.1429, 0, 0, 1.1429, 0, 0)">
                      <g id="Layer_1" transform="translate(-0.9655, -0.9655)">
                        <g transform="matrix(0.9655, 0, 0, 0.9655, 0, 0)">
                          <g id="icon">
                            <path d="M22.7, 24L8.3, 24C8.1343, 24 8, 23.8657 8, 23.7L8, 21.3C8, 21.1343 8.1343, 21 8.3, 21L15.381, 21C15.3356, 20.9862 15.2924, 20.9627 15.2564, 20.9269L9.0589, 14.7566C9.0212, 14.7191 9, 14.6681 9, 14.6149L9, 11.0124C9, 10.8342 9.2154, 10.745 9.3414, 10.871L14, 15.5296L14, 6.3C14, 6.1343 14.1343, 6 14.3, 6L16.7, 6C16.8657, 6 17, 6.1343 17, 6.3L17, 15.4593L21.6586, 10.8007C21.7846, 10.6747 22, 10.7639 22, 10.9421L22, 14.5473C22, 14.6005 21.9788, 14.6515 21.9412, 14.689L15.6799, 20.9268C15.6439, 20.9627 15.6007, 20.9862 15.5553, 21L22.7, 21C22.8657, 21 23, 21.1343 23, 21.3L23, 23.7C23, 23.8657 22.8657, 24 22.7, 24z" fill="#FFFFFF" class="White" fill-rule="evenOdd" />
                          </g>
                        </g>
                      </g>
                    </g>
                  </g>
                </g>
              </g>
            </g>
          </g>
        </g>
      </g>
    </g>
  </g>
</svg>