<?xml version='1.0' encoding='UTF-8'?>
<svg viewBox="-2.935 -2 32 32" xmlns="http://www.w3.org/2000/svg" xmlns:xlink="http://www.w3.org/1999/xlink">
  <g id="Layer_1" transform="translate(-1.8687, -0.935)">
    <g transform="matrix(0.9333, 0, 0, 0.9333, 0, 0)">
      <g id="icon">
        <path d="M25.5, 22L20.338, 22L17.027, 25.296C16.888, 25.429 16.563, 25.741 16.062, 25.741C15.587, 25.741 15.266, 25.457 15.129, 25.336L15.107, 25.317L11.77, 22L6.5, 22C4.015, 22 2, 24.015 2, 26.5L2, 26.5C2, 28.985 4.015, 31 6.5, 31L25.5, 31C27.985, 31 30, 28.985 30, 26.5L30, 26.5C30, 24.015 27.985, 22 25.5, 22z" fill="#727272" fill-opacity="1" class="Black" />
      </g>
    </g>
  </g>
  <g id="Layer_1" transform="translate(-1.8687, -0.935)">
    <g transform="matrix(0.9333, 0, 0, 0.9333, 0, 0)">
      <g id="icon">
        <path d="M18, 17.44L18, 1.393C17.993, 1.171 17.833, 1 17.618, 1L14.399, 1C14.18, 1 14, 1.179 14, 1.399L14, 17.424L8.268, 11.631C8.169, 11.532 8, 11.602 8, 11.741L8, 16.582C8, 16.748 8.066, 16.908 8.184, 17.025L15.791, 24.587C16.026, 24.795 16.105, 24.795 16.334, 24.575L23.816, 17.126C23.934, 17.009 24, 16.849 24, 16.683L24, 11.85C24, 11.711 23.832, 11.641 23.733, 11.74L18, 17.44z" fill="#039C23" fill-opacity="1" class="Green" />
      </g>
    </g>
  </g>
</svg>