<?xml version='1.0' encoding='UTF-8'?>
<svg viewBox="-2 -5.2275 32.0005 32" xmlns="http://www.w3.org/2000/svg" xmlns:xlink="http://www.w3.org/1999/xlink">
  <g id="Layer_1" transform="translate(-0.9925, -4.68620022888184)">
    <g transform="matrix(0.9368, 0, 0, 0.9368, 0, 0)">
      <g id="icon">
        <path d="M1.54, 28C1.338, 28 1.161, 27.875 1.09, 27.682C1.019, 27.488 1.07, 27.275 1.222, 27.138L5.583, 23.157C5.671, 23.078 5.784, 23.034 5.901, 23.034L22.899, 23.067L27.278, 19.119C27.365, 19.042 27.476, 19 27.591, 19L30.341, 19C30.539, 19 30.714, 19.122 30.787, 19.31C30.86, 19.498 30.814, 19.709 30.67, 19.848L22.251, 27.866C22.161, 27.952 22.045, 28 21.922, 28L1.54, 28z" fill="#D11C1C" fill-opacity="1" class="Red" fill-rule="evenOdd" />
      </g>
    </g>
  </g>
  <g id="Layer_1" transform="translate(-0.992499966621399, -4.68620059127808)">
    <g transform="matrix(0.9368, 0, 0, 0.9368, 0, 0)">
      <g id="icon">
        <path d="M1.564, 21C1.363, 21 1.188, 20.876 1.118, 20.684C1.048, 20.492 1.1, 20.28 1.251, 20.146L5.429, 16.221C5.515, 16.144 5.626, 16.101 5.741, 16.101L22.899, 16.068L27.277, 12.121C27.364, 12.044 27.475, 12.002 27.59, 12.002L30.315, 12.002C30.512, 12.002 30.686, 12.123 30.758, 12.311C30.83, 12.499 30.784, 12.709 30.641, 12.846L22.274, 20.87C22.185, 20.955 22.069, 21.002 21.948, 21.002L1.564, 21.002z" fill="#FFB115" fill-opacity="1" class="Yellow" fill-rule="evenOdd" />
      </g>
    </g>
  </g>
  <g id="Layer_1" transform="translate(-0.992499966621399, -4.6862)">
    <g transform="matrix(0.9368, 0, 0, 0.9368, 0, 0)">
      <g id="icon">
        <path d="M1.565, 14C1.363, 14 1.187, 13.875 1.117, 13.68C1.047, 13.486 1.101, 13.274 1.255, 13.139L9.864, 5.117C9.95, 5.041 10.061, 5 10.174, 5L30.47, 5C30.673, 5 30.849, 5.126 30.919, 5.321C30.989, 5.516 30.934, 5.728 30.779, 5.862L22.087, 13.884C22.001, 13.959 21.891, 14 21.778, 14L1.565, 14z" fill="#039C23" fill-opacity="1" class="Green" fill-rule="evenOdd" />
      </g>
    </g>
  </g>
  <g transform="translate(14.4995002746582, 11.2725009918213)">
    <g transform="matrix(0.5, 0, 0, 0.5, 0, 0)">
      <g transform="translate(0, 0)">
        <g transform="matrix(1.0357, 0, 0, 1.0357, 0, 0)">
          <g transform="translate(0, 0)">
            <g transform="matrix(0.9655, 0, 0, 0.9655, 0, 0)">
              <g transform="translate(0, 0)">
                <g transform="matrix(0.9062, 0, 0, 0.9062, 0, 0)">
                  <g transform="translate(0, 0)">
                    <g transform="matrix(1.1429, 0, 0, 1.1429, 0, 0)">
                      <g id="Layer_1" transform="translate(-0.9655, -0.9655)">
                        <g transform="matrix(0.9655, 0, 0, 0.9655, 0, 0)">
                          <g id="icon">
                            <path d="M30, 15.5C30, 7.4919 23.5081, 1 15.5, 1C7.4919, 1 1, 7.4919 1, 15.5C1, 23.5081 7.4919, 30 15.5, 30C23.5081, 30 30, 23.5081 30, 15.5zM23, 23.7C23, 23.8657 22.8657, 24 22.7, 24L8.3, 24C8.1343, 24 8, 23.8657 8, 23.7L8, 21.3C8, 21.1343 8.1343, 21 8.3, 21L15.381, 21C15.3356, 20.9862 15.2924, 20.9627 15.2564, 20.9269L9.0589, 14.7566C9.0212, 14.7191 9, 14.6681 9, 14.6149L9, 11.0124C9, 10.8342 9.2154, 10.745 9.3414, 10.871L14, 15.5296L14, 6.3C14, 6.1343 14.1343, 6 14.3, 6L16.7, 6C16.8657, 6 17, 6.1343 17, 6.3L17, 15.4593L21.6586, 10.8007C21.7846, 10.6747 22, 10.7639 22, 10.9421L22, 14.5473C22, 14.6005 21.9788, 14.6515 21.9412, 14.689L15.6799, 20.9268C15.6439, 20.9627 15.6007, 20.9862 15.5553, 21L22.7, 21C22.8657, 21 23, 21.1343 23, 21.3L23, 23.7z" fill="#039C23" class="Green" fill-rule="evenOdd" />
                          </g>
                        </g>
                      </g>
                    </g>
                  </g>
                </g>
              </g>
            </g>
          </g>
        </g>
      </g>
    </g>
  </g>
  <g transform="translate(14.4995002746582, 11.2725009918213)">
    <g transform="matrix(0.5, 0, 0, 0.5, 0, 0)">
      <g transform="translate(0, 0)">
        <g transform="matrix(1.0357, 0, 0, 1.0357, 0, 0)">
          <g transform="translate(0, 0)">
            <g transform="matrix(0.9655, 0, 0, 0.9655, 0, 0)">
              <g transform="translate(0, 0)">
                <g transform="matrix(0.9062, 0, 0, 0.9062, 0, 0)">
                  <g transform="translate(0, 0)">
                    <g transform="matrix(1.1429, 0, 0, 1.1429, 0, 0)">
                      <g id="Layer_1" transform="translate(-0.9655, -0.9655)">
                        <g transform="matrix(0.9655, 0, 0, 0.9655, 0, 0)">
                          <g id="icon">
                            <path d="M22.7, 24L8.3, 24C8.1343, 24 8, 23.8657 8, 23.7L8, 21.3C8, 21.1343 8.1343, 21 8.3, 21L15.381, 21C15.3356, 20.9862 15.2924, 20.9627 15.2564, 20.9269L9.0589, 14.7566C9.0212, 14.7191 9, 14.6681 9, 14.6149L9, 11.0124C9, 10.8342 9.2154, 10.745 9.3414, 10.871L14, 15.5296L14, 6.3C14, 6.1343 14.1343, 6 14.3, 6L16.7, 6C16.8657, 6 17, 6.1343 17, 6.3L17, 15.4593L21.6586, 10.8007C21.7846, 10.6747 22, 10.7639 22, 10.9421L22, 14.5473C22, 14.6005 21.9788, 14.6515 21.9412, 14.689L15.6799, 20.9268C15.6439, 20.9627 15.6007, 20.9862 15.5553, 21L22.7, 21C22.8657, 21 23, 21.1343 23, 21.3L23, 23.7C23, 23.8657 22.8657, 24 22.7, 24z" fill="#FFFFFF" class="White" fill-rule="evenOdd" />
                          </g>
                        </g>
                      </g>
                    </g>
                  </g>
                </g>
              </g>
            </g>
          </g>
        </g>
      </g>
    </g>
  </g>
</svg>