<?xml version='1.0' encoding='UTF-8'?>
<svg viewBox="-2 -2 32 32" xmlns="http://www.w3.org/2000/svg" xmlns:xlink="http://www.w3.org/1999/xlink">
  <g id="Layer_1" transform="translate(-0.9677, -0.9677)">
    <g transform="matrix(0.9654, 0, 0, 0.9654, 0, 0)">
      <g id="icon">
        <path d="M5.247, 5.247C-0.4156, 10.9096 -0.4156, 20.0905 5.247, 25.7531C10.9096, 31.4157 20.0905, 31.4157 25.7531, 25.7531C31.4157, 20.0905 31.4157, 10.9096 25.7531, 5.247C20.0904, -0.4157 10.9096, -0.4157 5.247, 5.247zM22.9953, 9.5603C23.1515, 9.7165 23.1515, 9.9698 22.9953, 10.126L17.6213, 15.5L22.9953, 20.874C23.1515, 21.0302 23.1515, 21.2835 22.9953, 21.4397L21.4397, 22.9953C21.2835, 23.1515 21.0302, 23.1515 20.874, 22.9953L15.5, 17.6213L10.126, 22.9953C9.9698, 23.1515 9.7165, 23.1515 9.5603, 22.9953L8.0047, 21.4397C7.8485, 21.2835 7.8485, 21.0302 8.0047, 20.874L13.3787, 15.5L8.0047, 10.126C7.8485, 9.9698 7.8485, 9.7165 8.0047, 9.5603L9.5603, 8.0047C9.7165, 7.8485 9.9698, 7.8485 10.126, 8.0047L15.5, 13.3787L20.874, 8.0047C21.0302, 7.8485 21.2835, 7.8485 21.4397, 8.0047L22.9953, 9.5603z" fill="#D11C1C" fill-opacity="1" class="Red" fill-rule="evenodd" />
      </g>
    </g>
  </g>
  <g id="Layer_1" transform="translate(-0.9677, -0.9677)">
    <g transform="matrix(0.9654, 0, 0, 0.9654, 0, 0)">
      <g id="icon">
        <path d="M20.874, 8.0047L15.5, 13.3787L10.126, 8.0047C9.9698, 7.8485 9.7165, 7.8485 9.5603, 8.0047L8.0047, 9.5603C7.8485, 9.7165 7.8485, 9.9698 8.0047, 10.126L13.3787, 15.5L8.0047, 20.874C7.8485, 21.0302 7.8485, 21.2835 8.0047, 21.4397L9.5603, 22.9953C9.7165, 23.1515 9.9698, 23.1515 10.126, 22.9953L15.5, 17.6213L20.874, 22.9953C21.0302, 23.1515 21.2835, 23.1515 21.4397, 22.9953L22.9953, 21.4397C23.1515, 21.2835 23.1515, 21.0302 22.9953, 20.874L17.6213, 15.5L22.9953, 10.126C23.1515, 9.9698 23.1515, 9.7165 22.9953, 9.5603L21.4397, 8.0047C21.2835, 7.8485 21.0302, 7.8485 20.874, 8.0047z" fill="#FFFFFF" fill-opacity="1" class="White" fill-rule="evenodd" />
      </g>
    </g>
  </g>
  <g id="Layer_1" transform="translate(14, 14)" style="enable-background:new 0 0 16 16">
    <g id="Forbid_1_">
      <circle cx="8" cy="8" r="8" fill="#727272" class="Black" />
    </g>
  </g>
  <g id="Layer_1" transform="translate(14, 14)" style="enable-background:new 0 0 16 16">
    <g id="Forbid_1_">
      <path d="M11.5, 3.1C10.5, 2.4 9.3, 2 8, 2C4.7, 2 2, 4.7 2, 8C2, 9.3 2.4, 10.5 3.1, 11.5L11.5, 3.1z" fill="#FFFFFF" class="White" />
    </g>
  </g>
  <g id="Layer_1" transform="translate(14, 14)" style="enable-background:new 0 0 16 16">
    <g id="Forbid_1_">
      <path d="M12.9, 4.5L4.5, 12.9C5.5, 13.6 6.7, 14 8, 14C11.3, 14 14, 11.3 14, 8C14, 6.7 13.6, 5.5 12.9, 4.5z" fill="#FFFFFF" class="White" />
    </g>
  </g>
</svg>