<?xml version='1.0' encoding='UTF-8'?>
<svg viewBox="-2.2925 -2 32 32" xmlns="http://www.w3.org/2000/svg" xmlns:xlink="http://www.w3.org/1999/xlink">
  <g id="Layer_1" transform="translate(-1.33000053405762, -0.930000190734863)">
    <g transform="matrix(0.9273, 0, 0, 0.9273, 0, 0)">
      <g id="icon">
        <path d="M21.635, 10.508C21.522, 10.964 21.762, 12.316 22.158, 12.649C21.689, 12.781 18.426, 13.787 17.743, 14.002C17.06, 14.217 16.479, 12.181 17.148, 11.906C17.817, 11.632 20.415, 10.888 21.635, 10.508zM11.183, 15.95C11.697, 15.097 13.526, 16.083 13.075, 17.037C12.797, 17.625 10.822, 20.729 10.399, 21.462C9.762, 20.945 9.56, 20.628 8.507, 20.375C8.848, 19.811 10.888, 16.439 11.183, 15.95zM8.696, 7.945C8.184, 7.278 9.781, 5.925 10.4, 6.582C10.815, 7.022 11.621, 8.274 12.179, 8.976C11.366, 9.248 10.86, 9.603 10.345, 10.339C10.02, 9.912 9.151, 8.54 8.696, 7.945z" fill="#727272" fill-opacity="1" class="Black" fill-rule="evenOdd" />
      </g>
    </g>
  </g>
  <g id="Layer_1" transform="translate(-1.33, -0.93)">
    <g transform="matrix(0.9273, 0, 0, 0.9273, 0, 0)">
      <g id="icon">
        <path d="M11.504, 27.838C10.485, 30.526 7.479, 31.879 4.791, 30.86C2.103, 29.841 0.75, 26.835 1.769, 24.147C2.788, 21.459 5.794, 20.106 8.482, 21.125C11.17, 22.144 12.523, 25.15 11.504, 27.838zM6.425, 8.918C7.224, 9.221 8.059, 9.257 8.831, 9.07C8.068, 8.634 7.714, 7.695 8.036, 6.844C8.393, 5.902 9.443, 5.426 10.381, 5.782C10.947, 5.997 11.342, 6.466 11.488, 7.011C11.568, 6.861 11.64, 6.705 11.701, 6.542C12.502, 4.429 11.439, 2.067 9.326, 1.265C7.214, 0.465 4.851, 1.528 4.05, 3.641C3.249, 5.754 4.312, 8.117 6.425, 8.918zM17.214, 14.512C16.338, 14.18 15.908, 13.169 16.255, 12.254C16.533, 11.522 17.223, 11.075 17.937, 11.095C17.42, 10.407 16.71, 9.852 15.846, 9.525C13.416, 8.604 10.699, 9.827 9.778, 12.257C9.249, 13.653 9.428, 15.144 10.137, 16.334C10.152, 16.281 10.169, 16.228 10.189, 16.175C10.56, 15.198 11.624, 14.695 12.566, 15.052C13.508, 15.409 13.971, 16.491 13.601, 17.468C13.443, 17.884 13.16, 18.212 12.814, 18.427C15.163, 19.141 17.696, 17.922 18.579, 15.593C18.75, 15.142 18.847, 14.682 18.876, 14.225C18.415, 14.599 17.79, 14.73 17.214, 14.512zM28.181, 6.422C25.927, 5.567 23.407, 6.702 22.552, 8.956C21.697, 11.21 22.832, 13.73 25.086, 14.585C27.34, 15.44 29.86, 14.305 30.715, 12.051C31.57, 9.797 30.435, 7.277 28.181, 6.422z" fill="#1177D7" fill-opacity="1" class="Blue" />
      </g>
    </g>
  </g>
</svg>