<?xml version='1.0' encoding='UTF-8'?>
<svg viewBox="-1.2575 -2 32 31.9975" xmlns="http://www.w3.org/2000/svg" xmlns:xlink="http://www.w3.org/1999/xlink">
  <g id="Layer_1" transform="translate(-4.8862, -1.0401)">
    <g transform="matrix(0.9768, 0, 0, 0.9768, 0, 0)">
      <g id="icon">
        <path d="M26.6, 10.3L17.764, 10.3L17.764, 1.464C17.764, 1.243 17.582, 1.064 17.357, 1.064L14.643, 1.064C14.418, 1.064 14.236, 1.243 14.236, 1.464L14.236, 10.3L5.4, 10.3C5.179, 10.3 5, 10.482 5, 10.707L5, 13.421C5, 13.646 5.179, 13.828 5.4, 13.828L14.236, 13.828L14.236, 22.664C14.236, 22.885 14.418, 23.064 14.643, 23.064L17.357, 23.064C17.582, 23.064 17.764, 22.885 17.764, 22.664L17.764, 13.828L26.6, 13.828C26.821, 13.828 27, 13.646 27, 13.421L27, 10.707C27, 10.482 26.821, 10.3 26.6, 10.3z" fill="#039C23" fill-opacity="1" class="Green" />
      </g>
    </g>
  </g>
  <g id="Layer_1" transform="translate(-4.8862, -1.0401)">
    <g transform="matrix(0.9768, 0, 0, 0.9768, 0, 0)">
      <g id="icon">
        <g>
          <path d="M5, 26.607L5, 29.321C5, 29.546 5.179, 29.728 5.4, 29.728L26.6, 29.728C26.821, 29.728 27, 29.546 27, 29.321L27, 26.607C27, 26.382 26.821, 26.2 26.6, 26.2L5.4, 26.2C5.179, 26.2 5, 26.382 5, 26.607z" fill="#D11C1C" fill-opacity="1" class="Red" />
        </g>
      </g>
    </g>
  </g>
  <g id="Layer_1" transform="translate(14.7425, 12)" style="enable-background:new 0 0 16 16">
    <g id="Arrow5RightDown_2_">
      <path d="M10, 3C10, 2.4 9.6, 2 9, 2L0, 2L0, 4L8, 4L8, 10L3, 10L9, 16L15, 10L10, 10L10, 3z" fill="#1177D7" class="Blue" />
    </g>
  </g>
</svg>