<?xml version='1.0' encoding='UTF-8'?>
<svg viewBox="-2.015 -2 32 32" xmlns="http://www.w3.org/2000/svg" xmlns:xlink="http://www.w3.org/1999/xlink">
  <g id="Layer_1" transform="translate(-0.9649, -0.9349)">
    <g transform="matrix(0.9333, 0, 0, 0.9333, 0, 0)">
      <g id="icon">
        <path d="M30.1, 8.8C28.616, 7.316 23.499, 2.199 23.2, 1.9C22.85, 1.55 22.538, 1.5 22.3, 1.5C22.062, 1.5 8.4, 1.5 8.4, 1.5C7.765, 1.5 7.5, 1.759 7.5, 2.4L7.5, 14.887C8.259, 14.72 9.053, 14.632 9.87, 14.632C15.291, 14.632 19.7, 18.525 19.7, 23.311C19.7, 25.255 18.972, 27.053 17.744, 28.501L29.6, 28.501C30.235, 28.501 30.5, 28.242 30.5, 27.601C30.5, 27.601 30.5, 10.113 30.5, 9.801C30.5, 9.35 30.353, 9.053 30.1, 8.8z" fill="#727272" fill-opacity="1" class="Black" fill-rule="evenodd" />
      </g>
    </g>
  </g>
  <g id="Layer_1" transform="translate(-0.9649, -0.9349)">
    <g transform="matrix(0.9333, 0, 0, 0.9333, 0, 0)">
      <g id="icon">
        <path d="M30.454, 8.446L23.554, 1.546C23.186, 1.179 22.776, 1 22.3, 1L8.4, 1C7.484, 1 7, 1.484 7, 2.4L7, 15.009C7.326, 14.921 7.66, 14.848 8, 14.79L8, 2.4C8, 2.037 8.037, 2 8.4, 2L22, 2L22, 8.7C22, 9.417 22.583, 10 23.3, 10L30, 10L30, 27.6C30, 27.963 29.963, 28 29.6, 28L18.137, 28C17.88, 28.352 17.596, 28.686 17.286, 29L29.6, 29C30.516, 29 31, 28.516 31, 27.6L31, 9.8C31, 9.249 30.826, 8.819 30.454, 8.446zM23.3, 9C23.135, 9 23, 8.865 23, 8.7L23, 2.407L29.593, 9L23.3, 9z" fill="#FFFFFF" fill-opacity="1" class="White" />
      </g>
    </g>
  </g>
  <g id="Layer_1" transform="translate(-0.9649, -0.9349)">
    <g transform="matrix(0.9333, 0, 0, 0.9333, 0, 0)">
      <g id="icon">
        <path d="M9.87, 16.138C14.475, 16.138 18.208, 19.349 18.208, 23.31C18.208, 27.271 14.475, 30.482 9.87, 30.482C8.305, 30.482 6.84, 30.111 5.589, 29.466C5.451, 29.461 2.689, 30.21 1.726, 30.487C1.589, 30.526 1.473, 30.382 1.544, 30.26C1.9, 29.656 2.815, 28.202 3.084, 27.479C2.107, 26.304 1.532, 24.865 1.532, 23.311C1.531, 19.349 5.264, 16.138 9.87, 16.138z" fill="#727272" fill-opacity="1" class="Black" fill-rule="evenodd" />
      </g>
    </g>
  </g>
  <g id="Layer_1" transform="translate(-0.9649, -0.9349)">
    <g transform="matrix(0.9333, 0, 0, 0.9333, 0, 0)">
      <g id="icon">
        <path d="M1.784, 31C1.55, 31 1.332, 30.893 1.188, 30.707C0.999, 30.463 0.978, 30.133 1.134, 29.867C1.2, 29.755 1.285, 29.613 1.382, 29.453C1.692, 28.938 2.204, 28.09 2.478, 27.517C1.536, 26.268 1.038, 24.815 1.038, 23.31C1.038, 19.076 4.999, 15.631 9.868, 15.631C14.737, 15.631 18.7, 19.076 18.7, 23.31C18.7, 27.544 14.739, 30.989 9.87, 30.989C8.359, 30.989 6.869, 30.652 5.558, 30.014C4.948, 30.157 2.917, 30.706 1.996, 30.971C1.927, 30.99 1.856, 31 1.784, 31L1.784, 31zM5.799, 28.793L5.918, 28.854C7.106, 29.467 8.473, 29.79 9.869, 29.79C14.078, 29.79 17.502, 26.883 17.502, 23.309C17.502, 19.736 14.078, 16.828 9.869, 16.828C5.66, 16.828 2.237, 19.735 2.237, 23.309C2.237, 24.654 2.719, 25.945 3.631, 27.041L3.853, 27.307L3.732, 27.632C3.554, 28.113 3.144, 28.836 2.74, 29.517C5.381, 28.787 5.585, 28.787 5.654, 28.787L5.799, 28.793z" fill="#727272" fill-opacity="1" class="Black" />
      </g>
    </g>
  </g>
</svg>