<?xml version='1.0' encoding='UTF-8'?>
<svg viewBox="-2.0375 -2 32 32" xmlns="http://www.w3.org/2000/svg" xmlns:xlink="http://www.w3.org/1999/xlink">
  <g id="Layer_1" transform="translate(-0.9487, -0.995)">
    <g transform="matrix(0.9343, 0, 0, 0.9343, 0, 0)">
      <g id="icon">
        <path d="M29.264, 13.068L24.239, 18.108C24.357, 16.968 24.188, 15.254 23.408, 14.309L26.955, 10.751C27.357, 10.347 27.603, 9.782 27.628, 9.201C27.654, 8.592 27.446, 8.032 27.04, 7.625L24.365, 4.94C23.979, 4.553 23.447, 4.339 22.867, 4.339C22.251, 4.339 21.655, 4.582 21.232, 5.006L13.713, 12.551C13.309, 12.957 13.095, 13.495 13.111, 14.067C13.127, 14.627 13.361, 15.161 13.77, 15.572L16.48, 18.292L14.172, 20.609L11.462, 17.889C10.433, 16.857 9.86, 15.495 9.848, 14.054C9.836, 12.611 10.389, 11.255 11.405, 10.235L18.925, 2.69C19.954, 1.657 21.391, 1.065 22.867, 1.065C24.32, 1.065 25.672, 1.619 26.673, 2.624L29.348, 5.309C31.456, 7.425 31.418, 10.906 29.264, 13.068zM2.557, 26.789L5.232, 29.474C6.234, 30.479 7.585, 31.033 9.038, 31.033C10.514, 31.033 11.951, 30.441 12.98, 29.408L20.499, 21.863C22.585, 19.769 22.56, 16.335 20.442, 14.209L17.732, 11.489L15.424, 13.806L18.134, 16.526C18.994, 17.389 19.019, 18.716 18.191, 19.547L10.672, 27.063C10.25, 27.487 9.654, 27.701 9.037, 27.701C9.037, 27.701 9.037, 27.701 9.037, 27.701C8.457, 27.701 7.925, 27.517 7.539, 27.129L4.864, 24.459C4.459, 24.052 4.25, 23.5 4.276, 22.89C4.301, 22.309 4.546, 21.748 4.949, 21.344L8.496, 17.788C7.716, 16.844 7.548, 15.13 7.665, 13.99L2.642, 19.03C1.615, 20.061 1.037, 21.439 1.014, 22.909C0.991, 24.388 1.539, 25.767 2.557, 26.789z" fill="#727272" fill-opacity="1" class="Black" />
      </g>
    </g>
  </g>
  <g id="Layer_1" transform="translate(13.9625, 16)" style="enable-background:new 0 0 16 16">
    <g id="Check_2_">
      <path d="M0, 8L2, 6L6, 10L14, 2L16, 4L6, 14C6, 14 0, 7.9 0, 8z" fill="#039C23" class="Green" />
    </g>
  </g>
</svg>