<?xml version='1.0' encoding='UTF-8'?>
<svg viewBox="-1.0346 -1.0346 32 32" version="1.1" xmlns="http://www.w3.org/2000/svg" xmlns:xlink="http://www.w3.org/1999/xlink" enable-background="new 0 0 32 32" xml:space="preserve" id="Layer_1">
  <g transform="matrix(0.9654, 0, 0, 0.9654, 0, 0)">
    <g id="icon">
      <path d="M5.247, 5.247C-0.4156, 10.9096 -0.4156, 20.0905 5.247, 25.7531C10.9096, 31.4157 20.0905, 31.4157 25.7531, 25.7531C31.4157, 20.0905 31.4157, 10.9096 25.7531, 5.247C20.0904, -0.4157 10.9096, -0.4157 5.247, 5.247zM22.9953, 9.5603C23.1515, 9.7165 23.1515, 9.9698 22.9953, 10.126L17.6213, 15.5L22.9953, 20.874C23.1515, 21.0302 23.1515, 21.2835 22.9953, 21.4397L21.4397, 22.9953C21.2835, 23.1515 21.0302, 23.1515 20.874, 22.9953L15.5, 17.6213L10.126, 22.9953C9.9698, 23.1515 9.7165, 23.1515 9.5603, 22.9953L8.0047, 21.4397C7.8485, 21.2835 7.8485, 21.0302 8.0047, 20.874L13.3787, 15.5L8.0047, 10.126C7.8485, 9.9698 7.8485, 9.7165 8.0047, 9.5603L9.5603, 8.0047C9.7165, 7.8485 9.9698, 7.8485 10.126, 8.0047L15.5, 13.3787L20.874, 8.0047C21.0302, 7.8485 21.2835, 7.8485 21.4397, 8.0047L22.9953, 9.5603z" fill="#D11C1C" fill-opacity="1" class="Red" fill-rule="evenodd" />
      <path d="M20.874, 8.0047L15.5, 13.3787L10.126, 8.0047C9.9698, 7.8485 9.7165, 7.8485 9.5603, 8.0047L8.0047, 9.5603C7.8485, 9.7165 7.8485, 9.9698 8.0047, 10.126L13.3787, 15.5L8.0047, 20.874C7.8485, 21.0302 7.8485, 21.2835 8.0047, 21.4397L9.5603, 22.9953C9.7165, 23.1515 9.9698, 23.1515 10.126, 22.9953L15.5, 17.6213L20.874, 22.9953C21.0302, 23.1515 21.2835, 23.1515 21.4397, 22.9953L22.9953, 21.4397C23.1515, 21.2835 23.1515, 21.0302 22.9953, 20.874L17.6213, 15.5L22.9953, 10.126C23.1515, 9.9698 23.1515, 9.7165 22.9953, 9.5603L21.4397, 8.0047C21.2835, 7.8485 21.0302, 7.8485 20.874, 8.0047z" fill="#FFFFFF" fill-opacity="1" class="White" fill-rule="evenodd" />
    </g>
  </g>
</svg>