<?xml version='1.0' encoding='UTF-8'?>
<svg viewBox="-1.0345 -1.0345 32 32" version="1.1" xmlns="http://www.w3.org/2000/svg" xmlns:xlink="http://www.w3.org/1999/xlink" enable-background="new 0 0 32 32" xml:space="preserve" id="Layer_1">
  <g transform="matrix(0.9655, 0, 0, 0.9655, 0, 0)">
    <g id="icon">
      <path d="M15.5, 1C7.4919, 1 1, 7.4919 1, 15.5C1, 23.5081 7.4919, 30 15.5, 30C23.5081, 30 30, 23.5081 30, 15.5C30, 7.4919 23.5081, 1 15.5, 1zM24.3259, 12.2325L14.2784, 22.2131C14.188, 22.303 14.0784, 22.3392 13.9602, 22.3392C13.8415, 22.3392 13.7402, 22.2765 13.6497, 22.186L11.6822, 20.2185C11.6521, 20.1884 11.6113, 20.1742 11.5908, 20.1377L7.4762, 16.0092C7.2969, 15.8278 7.3022, 15.5401 7.4826, 15.3597L8.9552, 13.8871C9.0425, 13.7998 9.1542, 13.7484 9.278, 13.7489C9.4015, 13.7493 9.5132, 13.7965 9.6, 13.8843L13.8839, 18.2239L22.1081, 10.0522C22.2893, 9.872 22.5658, 9.8889 22.7465, 10.0696L24.2897, 11.6128C24.3768, 11.6999 24.4443, 11.7996 24.4441, 11.9229C24.444, 12.0461 24.4133, 12.1456 24.3259, 12.2325z" fill="#039C23" fill-opacity="1" class="Green" />
      <path d="M24.2897, 11.6127L22.7465, 10.0695C22.5658, 9.8888 22.2893, 9.8719 22.1081, 10.0521L13.8839, 18.2238L9.6, 13.8842C9.5132, 13.7963 9.4015, 13.7491 9.278, 13.7488C9.1541, 13.7483 9.0425, 13.7997 8.9552, 13.887L7.4826, 15.3596C7.3022, 15.54 7.2969, 15.8276 7.4762, 16.009L11.5908, 20.1375C11.6113, 20.174 11.6521, 20.1882 11.6822, 20.2183L13.6497, 22.1858C13.7402, 22.2763 13.8415, 22.3391 13.9602, 22.3391C14.0784, 22.3391 14.1879, 22.3029 14.2784, 22.213L24.3259, 12.2324C24.4133, 12.1455 24.444, 12.046 24.4442, 11.9228C24.4443, 11.7996 24.3768, 11.6999 24.2897, 11.6127z" fill="#FFFFFF" fill-opacity="1" class="White" />
    </g>
  </g>
</svg>