<?xml version='1.0' encoding='UTF-8'?>
<svg viewBox="-2 -2.08 32 32" xmlns="http://www.w3.org/2000/svg" xmlns:xlink="http://www.w3.org/1999/xlink">
  <g id="Layer_1" transform="translate(-0.9325, -0.9312)">
    <g transform="matrix(0.9312, 0, 0, 0.9312, 0, 0)">
      <g id="icon">
        <path d="M27.7182, 19.0025L30.736, 20.1003C30.9652, 20.1837 31.1024, 20.4209 31.0618, 20.6635L30.8687, 21.8178C30.8295, 22.0523 30.6346, 22.228 30.3995, 22.2409L27.214, 22.4154L26.4299, 23.9493L28.2158, 26.4783C28.3611, 26.6841 28.3348, 26.9664 28.1539, 27.1411L27.2194, 28.044C27.0503, 28.2074 26.792, 28.2315 26.5961, 28.1023L23.935, 26.3464L22.4319, 27.1474L22.3368, 30.2219C22.3291, 30.4698 22.1455, 30.676 21.9022, 30.7098L20.5686, 30.8951C20.3379, 30.9271 20.1156, 30.7952 20.031, 30.5761L18.9324, 27.7313L17.3602, 27.4434L15.4468, 29.8906C15.2964, 30.083 15.0315, 30.1396 14.8169, 30.0252L13.6595, 29.4087C13.4502, 29.2972 13.346, 29.0535 13.4092, 28.8231L14.2172, 25.877L13.1321, 24.7375L10.1012, 25.623C9.8702, 25.6905 9.6243, 25.5836 9.514, 25.3678L8.9326, 24.2303C8.8225, 24.015 8.8782, 23.7511 9.0656, 23.5998L11.5552, 21.5893L11.2744, 20.2056L8.3282, 19.1006C8.1032, 19.0162 7.9685, 18.7832 8.0063, 18.5438L8.1986, 17.325C8.2357, 17.0898 8.4294, 16.9121 8.6647, 16.8974L11.8449, 16.699L12.5803, 15.2007L10.8073, 12.7552C10.66, 12.5521 10.6821, 12.2707 10.8591, 12.0935L11.8408, 11.1107C12.0108, 10.9405 12.2759, 10.9148 12.4748, 11.049L15.0751, 12.8036L16.5339, 12.065L16.665, 8.9127C16.675, 8.6721 16.8507, 8.4715 17.086, 8.4323L18.416, 8.2104C18.6518, 8.1711 18.8824, 8.3045 18.9681, 8.5299L20.0866, 11.4723L21.6588, 11.7602L23.5842, 9.2986C23.7275, 9.1154 23.9759, 9.0543 24.1865, 9.1504L25.3558, 9.6839C25.5839, 9.788 25.7016, 10.0454 25.6323, 10.2883L24.771, 13.3041L25.8517, 14.4168L28.9085, 13.5264C29.1378, 13.4596 29.3819, 13.5646 29.4933, 13.7777L30.0632, 14.8688C30.174, 15.0809 30.123, 15.3423 29.9409, 15.4962L27.5083, 17.5517L27.7182, 19.0025zM18.9021, 15.6546C16.7888, 16.0072 15.3586, 18.0236 15.7077, 20.1584C16.0568, 22.2932 18.053, 23.7378 20.1663, 23.3852C22.2796, 23.0326 23.7098, 21.0161 23.3607, 18.8814C23.0116, 16.7467 21.0154, 15.302 18.9021, 15.6546z" fill="#727272" fill-opacity="1" class="Black" fill-rule="evenodd" />
      </g>
    </g>
  </g>
  <g id="Layer_1" transform="translate(-0.9325, -0.9312)">
    <g transform="matrix(0.9312, 0, 0, 0.9312, 0, 0)">
      <g id="icon">
        <path d="M13.1305, 10.443L13.5278, 9.4812C13.6232, 9.2502 13.5403, 8.9834 13.3314, 8.8489L12.0456, 8.0209C12.092, 7.6555 12.0964, 7.2792 12.057, 6.8977L13.3797, 6.0556C13.5893, 5.9222 13.6735, 5.6558 13.5793, 5.4243L13.1869, 4.4603C13.0927, 4.2288 12.8473, 4.0994 12.6054, 4.1535L11.1225, 4.4851C10.8831, 4.1631 10.6059, 3.8737 10.2982, 3.6223L10.6442, 2.0813C10.699, 1.8372 10.5721, 1.5887 10.3434, 1.4923L9.3911, 1.0909C9.1625, 0.9945 8.8983, 1.0782 8.7651, 1.2893L7.9459, 2.5873C7.5813, 2.5354 7.2056, 2.5256 6.8243, 2.5619L5.9998, 1.2405C5.8677, 1.0288 5.604, 0.9437 5.3749, 1.0389L4.4206, 1.4353C4.1915, 1.5305 4.0633, 1.7783 4.1168, 2.0227L4.4349, 3.4743C4.0979, 3.7234 3.8159, 4.0237 3.5551, 4.3489L2.104, 4.0194C1.8626, 3.9646 1.6172, 4.0928 1.5219, 4.3234L1.1239, 5.2869C1.0286, 5.5175 1.1111, 5.7839 1.3194, 5.9187L2.5317, 6.7028C2.4752, 7.0929 2.4556, 7.4916 2.4974, 7.9006L1.2388, 8.6978C1.0287, 8.8309 0.9439, 9.0974 1.038, 9.3292L1.4283, 10.2907C1.5224, 10.5225 1.768, 10.6522 2.0102, 10.598L3.4021, 10.2861C3.6586, 10.6365 3.9672, 10.9291 4.3035, 11.1968L3.984, 12.6303C3.9297, 12.8742 4.0566, 13.1222 4.2849, 13.2185L5.2386, 13.6205C5.4669, 13.7167 5.7306, 13.6334 5.864, 13.423L6.6407, 12.1976C7.0241, 12.2493 7.4156, 12.2642 7.8168, 12.2183L8.6152, 13.5044C8.747, 13.7166 9.0108, 13.8022 9.2403, 13.7072L10.1922, 13.3129C10.4217, 13.2179 10.5501, 12.9697 10.4964, 12.7251L10.1775, 11.2728C10.506, 11.021 10.8002, 10.7293 11.0534, 10.4042L12.547, 10.7469C12.7889, 10.8022 13.035, 10.674 13.1305, 10.443zM7.5561, 9.6189C6.3427, 9.777 5.2322, 8.9116 5.0757, 7.686C4.9191, 6.4603 5.7759, 5.3386 6.9892, 5.1804C8.2026, 5.0223 9.3131, 5.8877 9.4696, 7.1133C9.6261, 8.339 8.7694, 9.4608 7.5561, 9.6189z" fill="#1177D7" fill-opacity="1" class="Blue" fill-rule="evenodd" />
      </g>
    </g>
  </g>
</svg>