<?xml version='1.0' encoding='UTF-8'?>
<svg viewBox="-2 -2 32 32" xmlns="http://www.w3.org/2000/svg" xmlns:xlink="http://www.w3.org/1999/xlink">
  <g id="Layer_1" transform="translate(-2, -2)" style="enable-background:new 0 0 32 32">
    <g id="FullScreen">
      <polygon points="2,12 6,12 6,6 12,6 12,2 2,2  " fill="#FFB115" class="Yellow" />
    </g>
  </g>
  <g id="Layer_1" transform="translate(-2, -2)" style="enable-background:new 0 0 32 32">
    <g id="FullScreen">
      <polygon points="6,20 2,20 2,30 12,30 12,26 6,26  " fill="#FFB115" class="Yellow" />
    </g>
  </g>
  <g id="Layer_1" transform="translate(-2, -2)" style="enable-background:new 0 0 32 32">
    <g id="FullScreen">
      <polygon points="20,2 20,6 26,6 26,12 30,12 30,2  " fill="#FFB115" class="Yellow" />
    </g>
  </g>
  <g id="Layer_1" transform="translate(-2, -2)" style="enable-background:new 0 0 32 32">
    <g id="FullScreen">
      <polygon points="26,26 20,26 20,30 30,30 30,20 26,20  " fill="#FFB115" class="Yellow" />
    </g>
  </g>
  <g id="Layer_1" transform="translate(6, 6)" style="enable-background:new 0 0 16 16">
    <g id="Delete_1_">
      <path d="M10.8, 8L15.7, 3.1C16.1, 2.7 16.1, 2.1 15.7, 1.7L14.3, 0.3C13.9, -0.1 13.3, -0.1 12.9, 0.3L8, 5.2L3.1, 0.3C2.7, -0.1 2.1, -0.1 1.7, 0.3L0.3, 1.7C-0.1, 2.1 -0.1, 2.7 0.3, 3.1L5.2, 8L0.3, 12.9C-0.1, 13.3 -0.1, 13.9 0.3, 14.3L1.7, 15.7C2.1, 16.1 2.7, 16.1 3.1, 15.7L8, 10.8L12.9, 15.7C13.3, 16.1 13.9, 16.1 14.3, 15.7L15.7, 14.3C16.1, 13.9 16.1, 13.3 15.7, 12.9L10.8, 8z" fill="#D11C1C" class="Red" />
    </g>
  </g>
</svg>