<?xml version='1.0' encoding='UTF-8'?>
<svg viewBox="0 0 32 32" xmlns="http://www.w3.org/2000/svg" xmlns:xlink="http://www.w3.org/1999/xlink">
  <g transform="translate(0, 0)">
    <g transform="matrix(1.1428, 0, 0, 1.1428, 0, 0)">
      <g transform="translate(0, 0)">
        <g transform="matrix(1.2727, 0, 0, 1.2727, 0, 0)">
          <g transform="translate(0, 0)">
            <g transform="matrix(0.6876, 0, 0, 0.6876, 0, 0)">
              <g transform="translate(0, 0)">
                <g transform="matrix(1.4545, 0, 0, 1.4545, 0, 0)">
                  <g transform="translate(0, 0)">
                    <g transform="matrix(0.7857, 0, 0, 0.7857, 0, 0)">
                      <g id="Layer_1" transform="translate(-6.3637, -6.3637)">
                        <g transform="matrix(1.2727, 0, 0, 1.2727, 0, 0)">
                          <g id="icon">
                            <path d="M27, 5.5L27, 26.5C27, 26.776 26.776, 27 26.5, 27L5.5, 27C5.224, 27 5, 26.776 5, 26.5L5, 5.5C5, 5.224 5.224, 5 5.5, 5L26.5, 5C26.776, 5 27, 5.224 27, 5.5z" fill="#FFB115" class="Yellow" />
                          </g>
                        </g>
                      </g>
                    </g>
                  </g>
                </g>
              </g>
            </g>
          </g>
        </g>
      </g>
    </g>
  </g>
  <g id="Layer_1" transform="translate(14, 8)">
    <g id="icon">
      <path d="M11.061, 16C10.928, 16 10.811, 15.904 10.777, 15.766L7.961, 4.316L5.185, 15.765C5.151, 15.904 5.034, 16 4.901, 16L3.88, 16C3.745, 16 3.628, 15.902 3.595, 15.762L0.009, 0.391C-0.014, 0.293 0.009, 0.188 0.07, 0.111C0.126, 0.04 0.207, 0 0.294, 0L1.557, 0C1.692, 0 1.81, 0.098 1.842, 0.239L4.406, 11.308L7.161, 0.283C7.195, 0.146 7.312, 0.05 7.445, 0.05L8.462, 0.05C8.594, 0.05 8.711, 0.145 8.746, 0.282L11.553, 11.353L14.157, 0.238C14.19, 0.098 14.307, 0 14.442, 0L15.706, 0C15.793, 0 15.874, 0.04 15.93, 0.111C15.991, 0.188 16.014, 0.293 15.991, 0.391L12.363, 15.762C12.33, 15.902 12.213, 15.999 12.078, 15.999L11.061, 15.999z" fill="#FFFFFF" class="White" />
    </g>
  </g>
  <g id="Layer_1" transform="translate(0, 8)">
    <g id="icon">
      <path d="M4.888, 14.182L4.888, 13.527L4.888, 8.873L10.986, 8.873C11.106, 8.873 11.204, 8.775 11.204, 8.655L11.204, 7.273C11.204, 7.153 11.106, 7.055 10.986, 7.055L4.888, 7.055L4.888, 1.818L12.366, 1.818C12.486, 1.818 12.584, 1.72 12.584, 1.6L12.584, 0.218C12.584, 0.098 12.486, 0 12.366, 0L3.218, 0C3.098, 0 3, 0.098 3, 0.218L3, 15.782C3, 15.902 3.098, 16 3.218, 16L4.67, 16C4.79, 16 4.888, 15.902 4.888, 15.782L4.888, 14.182z" fill="#FFFFFF" class="White" />
    </g>
  </g>
</svg>