<?xml version='1.0' encoding='UTF-8'?>
<svg viewBox="0 0 32 32" xmlns="http://www.w3.org/2000/svg" xmlns:xlink="http://www.w3.org/1999/xlink">
  <g transform="translate(0, 0)">
    <g transform="matrix(1.1429, 0, 0, 1.1429, 0, 0)">
      <g transform="translate(0, 0)">
        <g transform="matrix(0.875, 0, 0, 0.875, 0, 0)">
          <g transform="translate(0, 0)">
            <g transform="matrix(1.1429, 0, 0, 1.1429, 0, 0)">
              <g transform="translate(0, 0)">
                <g transform="matrix(0.875, 0, 0, 0.875, 0, 0)">
                  <g transform="translate(0, 0)">
                    <g transform="matrix(1.1429, 0, 0, 1.1429, 0, 0)">
                      <g transform="translate(0, 0)">
                        <g transform="matrix(0.8749, 0, 0, 0.8749, 0, 0)">
                          <g transform="translate(0, 0)">
                            <g transform="matrix(1.1429, 0, 0, 1.1429, 0, 0)">
                              <g transform="translate(0, 0)">
                                <g transform="matrix(0.875, 0, 0, 0.875, 0, 0)">
                                  <g transform="translate(0, 0)">
                                    <g transform="matrix(1.1429, 0, 0, 1.1429, 0, 0)">
                                      <g transform="translate(0, 0)">
                                        <g transform="matrix(0.875, 0, 0, 0.875, 0, 0)">
                                          <g transform="translate(0, 0)">
                                            <g transform="matrix(1.1429, 0, 0, 1.1429, 0, 0)">
                                              <g transform="translate(0, 0)">
                                                <g transform="translate(0, 0)">
                                                  <g transform="matrix(0.8749, 0, 0, 0.8749, 0, 0)">
                                                    <g transform="translate(0, 0)">
                                                      <g transform="matrix(1.1429, 0, 0, 1.1429, 0, 0)">
                                                        <g transform="translate(0, 0)">
                                                          <g transform="matrix(0.875, 0, 0, 0.875, 0, 0)">
                                                            <g transform="translate(0, 0)">
                                                              <g transform="matrix(1.1429, 0, 0, 1.1429, 0, 0)">
                                                                <g transform="translate(0, 0)">
                                                                  <g transform="translate(0, 0)">
                                                                    <g transform="matrix(1.2727, 0, 0, 1.2727, 0, 0)">
                                                                      <g transform="translate(0, 0)">
                                                                        <g transform="matrix(0.7857, 0, 0, 0.7857, 0, 0)">
                                                                          <g transform="translate(0, 0)">
                                                                            <g transform="matrix(0.875, 0, 0, 0.875, 0, 0)">
                                                                              <g transform="translate(0, 0)">
                                                                                <g transform="matrix(1.1428, 0, 0, 1.1428, 0, 0)">
                                                                                  <g transform="translate(0, 0)">
                                                                                    <g transform="matrix(1.2727, 0, 0, 1.2727, 0, 0)">
                                                                                      <g transform="translate(0, 0)">
                                                                                        <g transform="matrix(0.6876, 0, 0, 0.6876, 0, 0)">
                                                                                          <g transform="translate(0, 0)">
                                                                                            <g transform="matrix(1.4545, 0, 0, 1.4545, 0, 0)">
                                                                                              <g transform="translate(0, 0)">
                                                                                                <g transform="matrix(0.7857, 0, 0, 0.7857, 0, 0)">
                                                                                                  <g id="Layer_1" transform="translate(-6.3637, -6.3637)">
                                                                                                    <g transform="matrix(1.2727, 0, 0, 1.2727, 0, 0)">
                                                                                                      <g id="icon">
                                                                                                        <path d="M27, 5.5L27, 26.5C27, 26.776 26.776, 27 26.5, 27L5.5, 27C5.224, 27 5, 26.776 5, 26.5L5, 5.5C5, 5.224 5.224, 5 5.5, 5L26.5, 5C26.776, 5 27, 5.224 27, 5.5z" fill="#1177D7" style="fill:#B576CC" />
                                                                                                      </g>
                                                                                                    </g>
                                                                                                  </g>
                                                                                                </g>
                                                                                              </g>
                                                                                            </g>
                                                                                          </g>
                                                                                        </g>
                                                                                      </g>
                                                                                    </g>
                                                                                  </g>
                                                                                </g>
                                                                              </g>
                                                                            </g>
                                                                          </g>
                                                                        </g>
                                                                      </g>
                                                                    </g>
                                                                  </g>
                                                                </g>
                                                              </g>
                                                            </g>
                                                          </g>
                                                        </g>
                                                      </g>
                                                    </g>
                                                  </g>
                                                </g>
                                              </g>
                                            </g>
                                          </g>
                                        </g>
                                      </g>
                                    </g>
                                  </g>
                                </g>
                              </g>
                            </g>
                          </g>
                        </g>
                      </g>
                    </g>
                  </g>
                </g>
              </g>
            </g>
          </g>
        </g>
      </g>
    </g>
  </g>
  <g id="Layer_1" transform="translate(10, 8)">
    <g id="icon">
      <path d="M4.888, 14.182L4.888, 13.527L4.888, 8.873L10.986, 8.873C11.106, 8.873 11.204, 8.775 11.204, 8.655L11.204, 7.273C11.204, 7.153 11.106, 7.055 10.986, 7.055L4.888, 7.055L4.888, 1.818L12.366, 1.818C12.486, 1.818 12.584, 1.72 12.584, 1.6L12.584, 0.218C12.584, 0.098 12.486, 0 12.366, 0L3.218, 0C3.098, 0 3, 0.098 3, 0.218L3, 15.782C3, 15.902 3.098, 16 3.218, 16L4.67, 16C4.79, 16 4.888, 15.902 4.888, 15.782L4.888, 14.182z" fill="#FFFFFF" class="White" />
    </g>
  </g>
</svg>