<?xml version='1.0' encoding='UTF-8'?>
<svg viewBox="0 0 32 32" xmlns="http://www.w3.org/2000/svg" xmlns:xlink="http://www.w3.org/1999/xlink">
  <g transform="translate(0, 0)">
    <g transform="matrix(1.1429, 0, 0, 1.1429, 0, 0)">
      <g transform="translate(0, 0)">
        <g transform="translate(0, 0)">
          <g transform="matrix(0.8749, 0, 0, 0.8749, 0, 0)">
            <g transform="translate(0, 0)">
              <g transform="matrix(1.1429, 0, 0, 1.1429, 0, 0)">
                <g transform="translate(0, 0)">
                  <g transform="matrix(0.875, 0, 0, 0.875, 0, 0)">
                    <g transform="translate(0, 0)">
                      <g transform="matrix(1.1429, 0, 0, 1.1429, 0, 0)">
                        <g transform="translate(0, 0)">
                          <g transform="translate(0, 0)">
                            <g transform="matrix(1.2727, 0, 0, 1.2727, 0, 0)">
                              <g transform="translate(0, 0)">
                                <g transform="matrix(0.7857, 0, 0, 0.7857, 0, 0)">
                                  <g transform="translate(0, 0)">
                                    <g transform="matrix(0.875, 0, 0, 0.875, 0, 0)">
                                      <g transform="translate(0, 0)">
                                        <g transform="matrix(1.1428, 0, 0, 1.1428, 0, 0)">
                                          <g transform="translate(0, 0)">
                                            <g transform="matrix(1.2727, 0, 0, 1.2727, 0, 0)">
                                              <g transform="translate(0, 0)">
                                                <g transform="matrix(0.6876, 0, 0, 0.6876, 0, 0)">
                                                  <g transform="translate(0, 0)">
                                                    <g transform="matrix(1.4545, 0, 0, 1.4545, 0, 0)">
                                                      <g transform="translate(0, 0)">
                                                        <g transform="matrix(0.7857, 0, 0, 0.7857, 0, 0)">
                                                          <g id="Layer_1" transform="translate(-6.3637, -6.3637)">
                                                            <g transform="matrix(1.2727, 0, 0, 1.2727, 0, 0)">
                                                              <g id="icon">
                                                                <path d="M27, 5.5L27, 26.5C27, 26.776 26.776, 27 26.5, 27L5.5, 27C5.224, 27 5, 26.776 5, 26.5L5, 5.5C5, 5.224 5.224, 5 5.5, 5L26.5, 5C26.776, 5 27, 5.224 27, 5.5z" fill="#FFB115" class="Yellow" />
                                                              </g>
                                                            </g>
                                                          </g>
                                                        </g>
                                                      </g>
                                                    </g>
                                                  </g>
                                                </g>
                                              </g>
                                            </g>
                                          </g>
                                        </g>
                                      </g>
                                    </g>
                                  </g>
                                </g>
                              </g>
                            </g>
                          </g>
                        </g>
                      </g>
                    </g>
                  </g>
                </g>
              </g>
            </g>
          </g>
        </g>
      </g>
    </g>
  </g>
  <g id="Layer_1" transform="translate(2, 8)">
    <g id="icon">
      <path d="M4.888, 14.182L4.888, 13.527L4.888, 8.873L10.986, 8.873C11.106, 8.873 11.204, 8.775 11.204, 8.655L11.204, 7.273C11.204, 7.153 11.106, 7.055 10.986, 7.055L4.888, 7.055L4.888, 1.818L12.366, 1.818C12.486, 1.818 12.584, 1.72 12.584, 1.6L12.584, 0.218C12.584, 0.098 12.486, 0 12.366, 0L3.218, 0C3.098, 0 3, 0.098 3, 0.218L3, 15.782C3, 15.902 3.098, 16 3.218, 16L4.67, 16C4.79, 16 4.888, 15.902 4.888, 15.782L4.888, 14.182z" fill="#FFFFFF" class="White" />
    </g>
  </g>
  <g id="Layer_1" transform="translate(14, 8)">
    <g id="icon">
      <path d="M12.518, 0C12.397, 0 12.3, 0.098 12.3, 0.218L12.3, 9.433C12.3, 10.1 12.196, 10.733 11.99, 11.316C11.789, 11.883 11.499, 12.383 11.126, 12.799C10.758, 13.211 10.304, 13.542 9.777, 13.784C9.257, 14.023 8.653, 14.144 7.984, 14.144C7.315, 14.144 6.711, 14.023 6.191, 13.784C5.665, 13.542 5.211, 13.211 4.842, 12.799C4.469, 12.382 4.178, 11.883 3.978, 11.316C3.772, 10.734 3.668, 10.1 3.668, 9.433L3.668, 0.218C3.668, 0.097 3.57, 0 3.45, 0L2.018, 0C1.898, 0 1.8, 0.098 1.8, 0.218L1.8, 9.433C1.8, 10.311 1.94, 11.152 2.216, 11.933C2.497, 12.729 2.912, 13.437 3.447, 14.036C3.987, 14.64 4.647, 15.123 5.408, 15.473C6.175, 15.825 7.042, 16.004 7.983, 16.004C8.924, 16.004 9.791, 15.825 10.558, 15.473C11.319, 15.124 11.979, 14.64 12.519, 14.036C13.054, 13.438 13.469, 12.73 13.75, 11.933C14.026, 11.152 14.166, 10.311 14.166, 9.433L14.166, 0.218C14.166, 0.097 14.068, 0 13.948, 0L12.518, 0z" fill="#FFFFFF" class="White" />
    </g>
  </g>
</svg>