<?xml version='1.0' encoding='UTF-8'?>
<svg viewBox="0 0 32 32" xmlns="http://www.w3.org/2000/svg" xmlns:xlink="http://www.w3.org/1999/xlink">
  <g transform="translate(0, 0)">
    <g transform="matrix(1.1429, 0, 0, 1.1429, 0, 0)">
      <g transform="translate(0, 0)">
        <g transform="translate(0, 0)">
          <g transform="matrix(1.2727, 0, 0, 1.2727, 0, 0)">
            <g transform="translate(0, 0)">
              <g transform="matrix(0.7857, 0, 0, 0.7857, 0, 0)">
                <g transform="translate(0, 0)">
                  <g transform="matrix(0.875, 0, 0, 0.875, 0, 0)">
                    <g transform="translate(0, 0)">
                      <g transform="matrix(1.1428, 0, 0, 1.1428, 0, 0)">
                        <g transform="translate(0, 0)">
                          <g transform="matrix(1.2727, 0, 0, 1.2727, 0, 0)">
                            <g transform="translate(0, 0)">
                              <g transform="matrix(0.6876, 0, 0, 0.6876, 0, 0)">
                                <g transform="translate(0, 0)">
                                  <g transform="matrix(1.4545, 0, 0, 1.4545, 0, 0)">
                                    <g transform="translate(0, 0)">
                                      <g transform="matrix(0.7857, 0, 0, 0.7857, 0, 0)">
                                        <g id="Layer_1" transform="translate(-6.3637, -6.3637)">
                                          <g transform="matrix(1.2727, 0, 0, 1.2727, 0, 0)">
                                            <g id="icon">
                                              <path d="M27, 5.5L27, 26.5C27, 26.776 26.776, 27 26.5, 27L5.5, 27C5.224, 27 5, 26.776 5, 26.5L5, 5.5C5, 5.224 5.224, 5 5.5, 5L26.5, 5C26.776, 5 27, 5.224 27, 5.5z" fill="#039C23" class="Green" />
                                            </g>
                                          </g>
                                        </g>
                                      </g>
                                    </g>
                                  </g>
                                </g>
                              </g>
                            </g>
                          </g>
                        </g>
                      </g>
                    </g>
                  </g>
                </g>
              </g>
            </g>
          </g>
        </g>
      </g>
    </g>
  </g>
  <g id="Layer_1" transform="translate(8, 8)">
    <g id="icon">
      <path d="M3, 15.782L3, 0.218C3, 0.098 3.098, 0 3.218, 0L12.382, 0C12.502, 0 12.6, 0.098 12.6, 0.218L12.6, 1.6C12.6, 1.72 12.502, 1.818 12.382, 1.818L4.891, 1.818L4.891, 7.054L11, 7.054C11.12, 7.054 11.218, 7.152 11.218, 7.272L11.218, 8.654C11.218, 8.774 11.12, 8.872 11, 8.872L4.891, 8.872L4.891, 14.181L12.382, 14.181C12.502, 14.181 12.6, 14.279 12.6, 14.399L12.6, 15.781C12.6, 15.901 12.502, 15.999 12.382, 15.999L3.218, 15.999C3.098, 16 3, 15.902 3, 15.782z" fill="#FFFFFF" class="White" />
    </g>
  </g>
</svg>