<?xml version='1.0' encoding='UTF-8'?>
<svg viewBox="0 0 32 32" xmlns="http://www.w3.org/2000/svg" xmlns:xlink="http://www.w3.org/1999/xlink">
  <g transform="translate(0, 0)">
    <g transform="matrix(1.1428, 0, 0, 1.1428, 0, 0)">
      <g transform="translate(0, 0)">
        <g transform="matrix(1.2727, 0, 0, 1.2727, 0, 0)">
          <g transform="translate(0, 0)">
            <g transform="matrix(0.6876, 0, 0, 0.6876, 0, 0)">
              <g transform="translate(0, 0)">
                <g transform="matrix(1.4545, 0, 0, 1.4545, 0, 0)">
                  <g transform="translate(0, 0)">
                    <g transform="matrix(0.7857, 0, 0, 0.7857, 0, 0)">
                      <g id="Layer_1" transform="translate(-6.3637, -6.3637)">
                        <g transform="matrix(1.2727, 0, 0, 1.2727, 0, 0)">
                          <g id="icon">
                            <path d="M27, 5.5L27, 26.5C27, 26.776 26.776, 27 26.5, 27L5.5, 27C5.224, 27 5, 26.776 5, 26.5L5, 5.5C5, 5.224 5.224, 5 5.5, 5L26.5, 5C26.776, 5 27, 5.224 27, 5.5z" fill="#D11C1C" class="Red" />
                          </g>
                        </g>
                      </g>
                    </g>
                  </g>
                </g>
              </g>
            </g>
          </g>
        </g>
      </g>
    </g>
  </g>
  <g id="Layer_1" transform="translate(8, 8)">
    <g id="icon">
      <path d="M3, 15.709L3, 0.294C3, 0.133 3.13, 0.003 3.291, 0.003L7.524, 0.003C9.242, 0.003 10.569, 0.38 11.466, 1.125C12.402, 1.901 12.896, 3.048 12.896, 4.442C12.896, 4.946 12.798, 5.463 12.604, 5.978C12.452, 6.381 12.161, 6.97 11.637, 7.488C11.532, 7.591 11.418, 7.692 11.295, 7.788C11.536, 7.916 11.76, 8.061 11.962, 8.219C12.46, 8.608 12.852, 9.087 13.128, 9.642C13.414, 10.217 13.547, 10.793 13.547, 11.455C13.547, 12.175 13.424, 12.786 13.161, 13.379C12.896, 13.977 12.503, 14.482 11.994, 14.881C11.508, 15.261 10.918, 15.548 10.239, 15.734C9.599, 15.91 8.874, 15.999 8.083, 15.999L3.291, 15.999C3.13, 16 3, 15.87 3, 15.709zM8.084, 14.158C8.71, 14.158 9.272, 14.091 9.753, 13.959C10.196, 13.838 10.569, 13.66 10.861, 13.431C11.134, 13.218 11.336, 12.957 11.48, 12.633C11.637, 12.279 11.707, 11.916 11.707, 11.456C11.707, 11.084 11.637, 10.778 11.481, 10.463C11.327, 10.152 11.114, 9.893 10.83, 9.671C10.534, 9.439 10.159, 9.257 9.715, 9.129C9.24, 8.992 8.699, 8.923 8.105, 8.923L4.841, 8.923L4.841, 14.158L8.084, 14.158zM7.63, 7.08C8.301, 7.08 8.865, 6.991 9.305, 6.817C9.738, 6.645 10.088, 6.43 10.344, 6.177C10.568, 5.956 10.759, 5.654 10.882, 5.328C10.997, 5.022 11.056, 4.723 11.056, 4.442C11.056, 3.603 10.799, 2.964 10.292, 2.544C9.734, 2.081 8.802, 1.846 7.524, 1.846L4.841, 1.846L4.841, 7.08L7.63, 7.08z" fill="#FFFFFF" class="White" />
    </g>
  </g>
</svg>