<?xml version='1.0' encoding='UTF-8'?>
<svg viewBox="0 0 32 32" xmlns="http://www.w3.org/2000/svg" xmlns:xlink="http://www.w3.org/1999/xlink">
  <g transform="translate(0, 0)">
    <g transform="matrix(1.1429, 0, 0, 1.1429, 0, 0)">
      <g transform="translate(0, 0)">
        <g transform="matrix(0.875, 0, 0, 0.875, 0, 0)">
          <g transform="translate(0, 0)">
            <g transform="matrix(1.1429, 0, 0, 1.1429, 0, 0)">
              <g transform="translate(0, 0)">
                <g transform="matrix(0.8749, 0, 0, 0.8749, 0, 0)">
                  <g transform="translate(0, 0)">
                    <g transform="matrix(1.1429, 0, 0, 1.1429, 0, 0)">
                      <g transform="translate(0, 0)">
                        <g transform="matrix(0.875, 0, 0, 0.875, 0, 0)">
                          <g transform="translate(0, 0)">
                            <g transform="matrix(1.1429, 0, 0, 1.1429, 0, 0)">
                              <g transform="translate(0, 0)">
                                <g transform="matrix(0.875, 0, 0, 0.875, 0, 0)">
                                  <g transform="translate(0, 0)">
                                    <g transform="matrix(1.1429, 0, 0, 1.1429, 0, 0)">
                                      <g transform="translate(0, 0)">
                                        <g transform="translate(0, 0)">
                                          <g transform="matrix(0.8749, 0, 0, 0.8749, 0, 0)">
                                            <g transform="translate(0, 0)">
                                              <g transform="matrix(1.1429, 0, 0, 1.1429, 0, 0)">
                                                <g transform="translate(0, 0)">
                                                  <g transform="matrix(0.875, 0, 0, 0.875, 0, 0)">
                                                    <g transform="translate(0, 0)">
                                                      <g transform="matrix(1.1429, 0, 0, 1.1429, 0, 0)">
                                                        <g transform="translate(0, 0)">
                                                          <g transform="translate(0, 0)">
                                                            <g transform="matrix(1.2727, 0, 0, 1.2727, 0, 0)">
                                                              <g transform="translate(0, 0)">
                                                                <g transform="matrix(0.7857, 0, 0, 0.7857, 0, 0)">
                                                                  <g transform="translate(0, 0)">
                                                                    <g transform="matrix(0.875, 0, 0, 0.875, 0, 0)">
                                                                      <g transform="translate(0, 0)">
                                                                        <g transform="matrix(1.1428, 0, 0, 1.1428, 0, 0)">
                                                                          <g transform="translate(0, 0)">
                                                                            <g transform="matrix(1.2727, 0, 0, 1.2727, 0, 0)">
                                                                              <g transform="translate(0, 0)">
                                                                                <g transform="matrix(0.6876, 0, 0, 0.6876, 0, 0)">
                                                                                  <g transform="translate(0, 0)">
                                                                                    <g transform="matrix(1.4545, 0, 0, 1.4545, 0, 0)">
                                                                                      <g transform="translate(0, 0)">
                                                                                        <g transform="matrix(0.7857, 0, 0, 0.7857, 0, 0)">
                                                                                          <g id="Layer_1" transform="translate(-6.3637, -6.3637)">
                                                                                            <g transform="matrix(1.2727, 0, 0, 1.2727, 0, 0)">
                                                                                              <g id="icon">
                                                                                                <path d="M27, 5.5L27, 26.5C27, 26.776 26.776, 27 26.5, 27L5.5, 27C5.224, 27 5, 26.776 5, 26.5L5, 5.5C5, 5.224 5.224, 5 5.5, 5L26.5, 5C26.776, 5 27, 5.224 27, 5.5z" fill="#039C23" class="Green" />
                                                                                              </g>
                                                                                            </g>
                                                                                          </g>
                                                                                        </g>
                                                                                      </g>
                                                                                    </g>
                                                                                  </g>
                                                                                </g>
                                                                              </g>
                                                                            </g>
                                                                          </g>
                                                                        </g>
                                                                      </g>
                                                                    </g>
                                                                  </g>
                                                                </g>
                                                              </g>
                                                            </g>
                                                          </g>
                                                        </g>
                                                      </g>
                                                    </g>
                                                  </g>
                                                </g>
                                              </g>
                                            </g>
                                          </g>
                                        </g>
                                      </g>
                                    </g>
                                  </g>
                                </g>
                              </g>
                            </g>
                          </g>
                        </g>
                      </g>
                    </g>
                  </g>
                </g>
              </g>
            </g>
          </g>
        </g>
      </g>
    </g>
  </g>
  <g id="Layer_1" transform="translate(2, 8)">
    <g id="icon">
      <path d="M12.818, 9.091C12.537, 8.603 12.165, 8.187 11.711, 7.855C11.292, 7.548 10.809, 7.293 10.275, 7.097C9.808, 6.926 9.33, 6.761 8.853, 6.608C8.396, 6.461 7.94, 6.306 7.498, 6.147C7.122, 6.012 6.788, 5.842 6.505, 5.643C6.257, 5.469 6.063, 5.261 5.911, 5.009C5.782, 4.795 5.717, 4.499 5.717, 4.13C5.717, 3.829 5.773, 3.549 5.889, 3.272C6.002, 3.002 6.163, 2.77 6.381, 2.562C6.602, 2.352 6.889, 2.178 7.233, 2.045C7.584, 1.91 8.003, 1.841 8.48, 1.841C8.799, 1.841 9.079, 1.866 9.311, 1.916C9.549, 1.967 9.758, 2.03 9.93, 2.104C10.098, 2.176 10.238, 2.251 10.347, 2.327C10.481, 2.421 10.592, 2.507 10.677, 2.581C10.733, 2.63 10.934, 2.824 11.031, 2.917C11.116, 2.999 11.187, 3.067 11.214, 3.092L11.37, 3.235L12.469, 2.036C12.548, 1.95 12.542, 1.815 12.456, 1.736L12.456, 1.736C12.435, 1.717 12.385, 1.668 12.323, 1.609L12.303, 1.59C12.111, 1.405 11.969, 1.269 11.888, 1.198C11.752, 1.079 11.593, 0.955 11.401, 0.821C11.188, 0.671 10.935, 0.534 10.649, 0.412C10.369, 0.293 10.048, 0.194 9.696, 0.118C9.338, 0.041 8.929, 0.002 8.48, 0.002C7.777, 0.002 7.135, 0.112 6.573, 0.329C6.005, 0.549 5.516, 0.85 5.119, 1.226C4.717, 1.608 4.406, 2.057 4.195, 2.562C3.986, 3.061 3.881, 3.589 3.881, 4.13C3.881, 4.839 4.035, 5.454 4.339, 5.958C4.622, 6.428 4.996, 6.828 5.451, 7.148C5.868, 7.441 6.348, 7.687 6.878, 7.878C7.339, 8.044 7.815, 8.206 8.294, 8.36C8.746, 8.505 9.2, 8.661 9.644, 8.824C10.016, 8.961 10.347, 9.134 10.628, 9.34C10.877, 9.523 11.073, 9.741 11.227, 10.009C11.362, 10.244 11.43, 10.567 11.43, 10.969C11.43, 11.423 11.351, 11.849 11.196, 12.235C11.043, 12.617 10.827, 12.94 10.538, 13.224C10.25, 13.506 9.885, 13.734 9.452, 13.901C9.009, 14.073 8.487, 14.16 7.902, 14.16C7.48, 14.16 7.103, 14.125 6.782, 14.055C6.471, 13.988 6.185, 13.891 5.932, 13.767C5.679, 13.643 5.443, 13.491 5.232, 13.314C5.004, 13.124 4.596, 12.719 4.376, 12.464L4.237, 12.303L2.848, 13.507L2.987, 13.668C3.269, 13.994 3.759, 14.48 4.058, 14.729C4.382, 14.999 4.741, 15.231 5.126, 15.42C5.512, 15.609 5.939, 15.755 6.396, 15.854C6.844, 15.951 7.351, 16 7.903, 16C8.717, 16 9.461, 15.871 10.116, 15.617C10.781, 15.359 11.355, 14.997 11.822, 14.54C12.291, 14.081 12.654, 13.537 12.901, 12.922C13.144, 12.317 13.267, 11.66 13.267, 10.969C13.267, 10.241 13.116, 9.609 12.818, 9.091z" fill="#FFFFFF" class="White" />
    </g>
  </g>
  <g id="Layer_1" transform="translate(14, 8)">
    <g id="icon">
      <path d="M1.8, 0.218L1.8, 1.64C1.8, 1.761 1.898, 1.858 2.018, 1.858L7.07, 1.858L7.07, 15.78C7.07, 15.901 7.168, 15.998 7.288, 15.998L8.712, 15.998C8.833, 15.998 8.93, 15.9 8.93, 15.78L8.93, 1.859L13.981, 1.859C14.102, 1.859 14.199, 1.761 14.199, 1.641L14.199, 0.218C14.199, 0.097 14.101, 0 13.981, 0L2.018, 0C1.898, 0 1.8, 0.098 1.8, 0.218z" fill="#FFFFFF" class="White" />
    </g>
  </g>
</svg>