<?xml version='1.0' encoding='UTF-8'?>
<svg viewBox="-2 -2 32 32" xmlns="http://www.w3.org/2000/svg" xmlns:xlink="http://www.w3.org/1999/xlink">
  <g transform="translate(0, 0)">
    <g transform="matrix(0.875, 0, 0, 0.875, 0, 0)">
      <g transform="translate(0, 0)">
        <g transform="matrix(1.1429, 0, 0, 1.1429, 0, 0)">
          <g transform="translate(0, 0)">
            <g transform="matrix(0.875, 0, 0, 0.875, 0, 0)">
              <g transform="translate(0, 0)">
                <g transform="matrix(1.1429, 0, 0, 1.1429, 0, 0)">
                  <g transform="translate(0, 0)">
                    <g transform="translate(0, 0)">
                      <g transform="matrix(0.8749, 0, 0, 0.8749, 0, 0)">
                        <g transform="translate(0, 0)">
                          <g transform="matrix(1.1429, 0, 0, 1.1429, 0, 0)">
                            <g transform="translate(0, 0)">
                              <g transform="matrix(0.875, 0, 0, 0.875, 0, 0)">
                                <g transform="translate(0, 0)">
                                  <g transform="matrix(1.1429, 0, 0, 1.1429, 0, 0)">
                                    <g transform="translate(0, 0)">
                                      <g transform="translate(0, 0)">
                                        <g transform="matrix(1.2727, 0, 0, 1.2727, 0, 0)">
                                          <g transform="translate(0, 0)">
                                            <g transform="matrix(0.7857, 0, 0, 0.7857, 0, 0)">
                                              <g transform="translate(0, 0)">
                                                <g transform="matrix(0.875, 0, 0, 0.875, 0, 0)">
                                                  <g transform="translate(0, 0)">
                                                    <g transform="matrix(1.1428, 0, 0, 1.1428, 0, 0)">
                                                      <g transform="translate(0, 0)">
                                                        <g transform="matrix(1.2727, 0, 0, 1.2727, 0, 0)">
                                                          <g transform="translate(0, 0)">
                                                            <g transform="matrix(0.6876, 0, 0, 0.6876, 0, 0)">
                                                              <g transform="translate(0, 0)">
                                                                <g transform="matrix(1.4545, 0, 0, 1.4545, 0, 0)">
                                                                  <g transform="translate(0, 0)">
                                                                    <g transform="matrix(0.7857, 0, 0, 0.7857, 0, 0)">
                                                                      <g id="Layer_1" transform="translate(-6.3637, -6.3637)">
                                                                        <g transform="matrix(1.2727, 0, 0, 1.2727, 0, 0)">
                                                                          <g id="icon">
                                                                            <path d="M27, 5.5L27, 26.5C27, 26.776 26.776, 27 26.5, 27L5.5, 27C5.224, 27 5, 26.776 5, 26.5L5, 5.5C5, 5.224 5.224, 5 5.5, 5L26.5, 5C26.776, 5 27, 5.224 27, 5.5z" fill="#FFB115" class="Yellow" />
                                                                          </g>
                                                                        </g>
                                                                      </g>
                                                                    </g>
                                                                  </g>
                                                                </g>
                                                              </g>
                                                            </g>
                                                          </g>
                                                        </g>
                                                      </g>
                                                    </g>
                                                  </g>
                                                </g>
                                              </g>
                                            </g>
                                          </g>
                                        </g>
                                      </g>
                                    </g>
                                  </g>
                                </g>
                              </g>
                            </g>
                          </g>
                        </g>
                      </g>
                    </g>
                  </g>
                </g>
              </g>
            </g>
          </g>
        </g>
      </g>
    </g>
  </g>
  <g id="Layer_1" transform="translate(0, 6)">
    <g id="icon">
      <path d="M14.63, 4.751C14.29, 3.767 13.801, 2.912 13.179, 2.211C12.547, 1.498 11.78, 0.945 10.901, 0.566C10.03, 0.19 9.061, 0 8.022, 0C6.987, 0 6.022, 0.193 5.153, 0.572C4.278, 0.955 3.515, 1.509 2.884, 2.22C2.262, 2.921 1.774, 3.776 1.433, 4.76C1.099, 5.726 0.929, 6.817 0.929, 8.002C0.929, 9.194 1.099, 10.287 1.433, 11.25C1.774, 12.231 2.262, 13.083 2.885, 13.781C3.516, 14.489 4.28, 15.04 5.155, 15.419C6.023, 15.795 6.987, 15.985 8.021, 15.985C9.06, 15.985 10.029, 15.795 10.9, 15.419C11.779, 15.04 12.545, 14.489 13.176, 13.781C13.799, 13.083 14.287, 12.232 14.628, 11.25C14.962, 10.287 15.132, 9.194 15.132, 8.002C15.133, 6.811 14.964, 5.717 14.63, 4.751zM8.022, 14.144C7.244, 14.144 6.529, 14.005 5.896, 13.731C5.27, 13.46 4.723, 13.066 4.272, 12.56C3.812, 12.044 3.446, 11.401 3.185, 10.65C2.918, 9.881 2.782, 8.99 2.782, 8.003C2.782, 7.022 2.918, 6.133 3.185, 5.36C3.446, 4.605 3.812, 3.959 4.273, 3.439C4.725, 2.93 5.272, 2.533 5.898, 2.258C6.53, 1.982 7.245, 1.841 8.021, 1.841C8.805, 1.841 9.526, 1.98 10.163, 2.255C10.791, 2.526 11.338, 2.92 11.789, 3.429C12.25, 3.949 12.616, 4.595 12.877, 5.35C13.144, 6.123 13.28, 7.016 13.28, 8.003C13.28, 8.99 13.145, 9.88 12.877, 10.65C12.616, 11.402 12.25, 12.044 11.79, 12.56C11.339, 13.066 10.791, 13.46 10.163, 13.73C9.527, 14.004 8.806, 14.144 8.022, 14.144z" fill="#FFFFFF" class="White" />
    </g>
  </g>
  <g id="Layer_1" transform="translate(12, 6)">
    <g id="icon">
      <path d="M12.238, 1.205C11.25, 0.405 9.861, 0 8.11, 0L4.215, 0C4.096, 0 4, 0.096 4, 0.215L4, 15.784C4, 15.903 4.096, 15.999 4.215, 15.999L5.62, 15.999C5.739, 15.999 5.835, 15.903 5.835, 15.784L5.835, 9.877L8.11, 9.877C8.916, 9.877 9.669, 9.758 10.349, 9.524C11.039, 9.286 11.647, 8.948 12.156, 8.519C12.681, 8.077 13.093, 7.542 13.381, 6.928C13.67, 6.312 13.816, 5.635 13.816, 4.915C13.817, 3.278 13.3, 2.064 12.238, 1.205zM10.975, 7.114C10.639, 7.397 10.228, 7.623 9.751, 7.788C9.264, 7.956 8.712, 8.041 8.11, 8.041L5.835, 8.041L5.835, 1.836L8.11, 1.836C9.43, 1.836 10.431, 2.104 11.085, 2.633C11.697, 3.128 11.982, 3.853 11.982, 4.915C11.982, 5.369 11.896, 5.772 11.72, 6.148C11.543, 6.525 11.3, 6.841 10.975, 7.114z" fill="#FFFFFF" class="White" />
    </g>
  </g>
</svg>