<?xml version='1.0' encoding='UTF-8'?>
<svg viewBox="-2 -2 32 32" xmlns="http://www.w3.org/2000/svg" xmlns:xlink="http://www.w3.org/1999/xlink">
  <g transform="translate(0, 0)">
    <g transform="matrix(0.875, 0, 0, 0.875, 0, 0)">
      <g transform="translate(0, 0)">
        <g transform="matrix(1.1429, 0, 0, 1.1429, 0, 0)">
          <g transform="translate(0, 0)">
            <g transform="translate(0, 0)">
              <g transform="matrix(1.2727, 0, 0, 1.2727, 0, 0)">
                <g transform="translate(0, 0)">
                  <g transform="matrix(0.7857, 0, 0, 0.7857, 0, 0)">
                    <g transform="translate(0, 0)">
                      <g transform="matrix(0.875, 0, 0, 0.875, 0, 0)">
                        <g transform="translate(0, 0)">
                          <g transform="matrix(1.1428, 0, 0, 1.1428, 0, 0)">
                            <g transform="translate(0, 0)">
                              <g transform="matrix(1.2727, 0, 0, 1.2727, 0, 0)">
                                <g transform="translate(0, 0)">
                                  <g transform="matrix(0.6876, 0, 0, 0.6876, 0, 0)">
                                    <g transform="translate(0, 0)">
                                      <g transform="matrix(1.4545, 0, 0, 1.4545, 0, 0)">
                                        <g transform="translate(0, 0)">
                                          <g transform="matrix(0.7857, 0, 0, 0.7857, 0, 0)">
                                            <g id="Layer_1" transform="translate(-6.3637, -6.3637)">
                                              <g transform="matrix(1.2727, 0, 0, 1.2727, 0, 0)">
                                                <g id="icon">
                                                  <path d="M27, 5.5L27, 26.5C27, 26.776 26.776, 27 26.5, 27L5.5, 27C5.224, 27 5, 26.776 5, 26.5L5, 5.5C5, 5.224 5.224, 5 5.5, 5L26.5, 5C26.776, 5 27, 5.224 27, 5.5z" fill="#FFB115" class="Yellow" />
                                                </g>
                                              </g>
                                            </g>
                                          </g>
                                        </g>
                                      </g>
                                    </g>
                                  </g>
                                </g>
                              </g>
                            </g>
                          </g>
                        </g>
                      </g>
                    </g>
                  </g>
                </g>
              </g>
            </g>
          </g>
        </g>
      </g>
    </g>
  </g>
  <g id="Layer_1" transform="translate(6, 6)">
    <g id="icon">
      <path d="M8.814, 16C7.768, 16 6.786, 15.812 5.894, 15.44C4.993, 15.065 4.202, 14.516 3.542, 13.81C2.887, 13.109 2.372, 12.253 2.012, 11.268C1.657, 10.297 1.477, 9.198 1.477, 8C1.477, 6.841 1.657, 5.763 2.012, 4.795C2.372, 3.813 2.892, 2.955 3.556, 2.244C4.225, 1.528 5.036, 0.969 5.966, 0.58C6.889, 0.195 7.913, 0 9.011, 0C9.515, 0 9.999, 0.039 10.45, 0.117C10.909, 0.196 11.351, 0.317 11.765, 0.477C12.173, 0.634 12.57, 0.83 12.945, 1.059C13.311, 1.283 13.674, 1.544 14.022, 1.835L14.022, 1.835C14.112, 1.91 14.124, 2.044 14.049, 2.134L13.144, 3.221C13.069, 3.311 12.936, 3.323 12.847, 3.248L12.846, 3.247C12.566, 3.013 12.277, 2.805 11.988, 2.628C11.707, 2.456 11.41, 2.31 11.104, 2.192C10.803, 2.076 10.478, 1.987 10.138, 1.929C9.79, 1.869 9.41, 1.838 9.01, 1.838C8.156, 1.838 7.369, 1.986 6.673, 2.276C5.984, 2.564 5.387, 2.975 4.897, 3.5C4.401, 4.03 4.011, 4.679 3.736, 5.428C3.456, 6.192 3.313, 7.057 3.313, 7.999C3.313, 8.98 3.455, 9.867 3.736, 10.635C4.011, 11.388 4.397, 12.033 4.882, 12.553C5.362, 13.067 5.94, 13.467 6.598, 13.741C7.265, 14.019 8.01, 14.16 8.813, 14.16C9.322, 14.16 9.789, 14.118 10.202, 14.035C10.613, 13.952 10.991, 13.838 11.327, 13.695C11.661, 13.553 11.971, 13.381 12.249, 13.186C12.539, 12.982 12.815, 12.752 13.068, 12.504L13.069, 12.503C13.152, 12.421 13.286, 12.423 13.367, 12.507L14.355, 13.52C14.437, 13.604 14.435, 13.738 14.352, 13.82L14.352, 13.82C14.028, 14.136 13.676, 14.429 13.305, 14.691C12.921, 14.961 12.497, 15.196 12.045, 15.388C11.595, 15.58 11.096, 15.731 10.564, 15.839C10.033, 15.946 9.444, 16 8.814, 16z" fill="#FFFFFF" class="White" />
    </g>
  </g>
</svg>