<?xml version='1.0' encoding='UTF-8'?>
<svg viewBox="-2 -3.1375 32 32" xmlns="http://www.w3.org/2000/svg" xmlns:xlink="http://www.w3.org/1999/xlink">
  <g id="Layer_1" transform="translate(-0.9349, -6.535)">
    <g transform="matrix(0.9333, 0, 0, 0.9333, 0, 0)">
      <g id="icon">
        <path d="M29.6364, 20.5649L29.6364, 12.3769C27.5464, 12.0794 25.8938, 10.4355 25.5948, 8.3564L6.4545, 8.3564C6.4545, 10.6039 4.6229, 12.4259 2.3636, 12.4259L2.3636, 20.6139C4.4536, 20.9114 6.1062, 22.5553 6.4052, 24.6344L25.5454, 24.6344C25.5455, 22.3869 27.377, 20.5649 29.6364, 20.5649z" fill="#FFFFFF" fill-opacity="1" class="White" />
      </g>
    </g>
  </g>
  <g id="Layer_1" transform="translate(-0.9349, -6.535)">
    <g transform="matrix(0.9333, 0, 0, 0.9333, 0, 0)">
      <g id="icon">
        <path d="M14.6044, 14.0093C14.8262, 13.8212 15.0455, 13.7051 15.4546, 13.6608L15.4546, 15.7034C15.0455, 15.6168 14.7493, 15.4878 14.5582, 15.3163C14.3671, 15.1448 14.2581, 14.9318 14.2581, 14.6772C14.258, 14.4201 14.3824, 14.1974 14.6044, 14.0093zM16.6818, 16.969L16.6818, 19.1849C16.9545, 19.1493 17.257, 19.0245 17.5054, 18.8106C17.7538, 18.5967 17.8627, 18.3321 17.8627, 18.0168C17.8627, 17.7481 17.7995, 17.5321 17.6272, 17.3689C17.4548, 17.2056 17.0909, 17.0724 16.6818, 16.969zM20.7727, 16.4955C20.7727, 19.7169 18.6511, 22.3284 16.0341, 22.3284C13.417, 22.3284 11.2955, 19.7169 11.2955, 16.4955C11.2955, 13.2741 13.4171, 10.6626 16.0341, 10.6626C18.6512, 10.6625 20.7727, 13.274 20.7727, 16.4955zM19.0928, 17.9517C19.0928, 17.6877 19.0273, 17.4425 18.91, 17.2158C18.7927, 16.9891 18.6305, 16.7935 18.4123, 16.6289C18.1941, 16.4643 17.9174, 16.2406 17.5951, 16.1335C17.4261, 16.0785 17.0909, 15.9998 16.6818, 15.8975L16.6818, 13.6474C16.9545, 13.7 17.1633, 13.8088 17.3564, 13.9738C17.5495, 14.1388 17.6521, 14.3761 17.7132, 14.6857L18.9111, 14.4476C18.8126, 13.9151 18.5444, 13.4962 18.0601, 13.1911C17.6823, 12.9514 17.2273, 12.8081 16.6818, 12.7613L16.6818, 12.1549L15.5028, 12.1549L15.4736, 12.8135C14.715, 12.8709 14.2323, 12.9914 13.8468, 13.2466C13.2704, 13.6263 12.9823, 14.1199 12.9823, 14.7326C12.9823, 15.0772 13.0812, 15.3838 13.2792, 15.655C13.4771, 15.9262 13.7593, 16.1378 14.1254, 16.2909C14.6192, 16.4984 14.9659, 16.6468 15.4308, 16.7368L15.4603, 19.1924C15.0229, 19.1583 14.7807, 18.9921 14.4672, 18.694C14.2485, 18.483 14.0971, 18.1523 14.0104, 17.702L12.7953, 18.0355C12.8363, 18.4701 12.9883, 18.8379 13.2417, 19.1389C13.4949, 19.44 13.7908, 19.658 14.1388, 19.7931C14.4867, 19.9282 14.9091, 20.0471 15.4545, 20.1L15.4545, 20.8363L16.6818, 20.8363L16.6818, 20.0922C17.3636, 20.0643 17.8864, 19.7932 18.3762, 19.405C18.8661, 19.0167 19.0928, 18.5323 19.0928, 17.9517zM31, 8.1191L31, 24.8718C31, 25.4899 30.4963, 25.9909 29.875, 25.9909L2.125, 25.9909C1.5037, 25.9909 1, 25.4899 1, 24.8718L1, 8.1191C1, 7.501 1.5037, 7 2.125, 7L29.875, 7C30.4963, 7 31, 7.501 31, 8.1191zM29.6364, 12.377C27.5464, 12.0795 25.8938, 10.4356 25.5948, 8.3565L6.4545, 8.3565C6.4545, 10.604 4.6229, 12.426 2.3636, 12.426L2.3636, 20.614C4.4536, 20.9115 6.1062, 22.5554 6.4052, 24.6345L25.5454, 24.6345C25.5454, 22.387 27.377, 20.565 29.6363, 20.565L29.6363, 12.377z" fill="#039C23" fill-opacity="1" class="Green" />
      </g>
    </g>
  </g>
  <g id="Layer_1" transform="translate(-0.9349, -6.535)">
    <g transform="matrix(0.9333, 0, 0, 0.9333, 0, 0)">
      <g id="icon">
        <path d="M16.6818, 20.8362L16.6818, 20.0921C17.3636, 20.0642 17.8864, 19.7931 18.3762, 19.4049C18.8661, 19.0168 19.0928, 18.5323 19.0928, 17.9517C19.0928, 17.6877 19.0273, 17.4425 18.91, 17.2158C18.7927, 16.9891 18.6305, 16.7935 18.4123, 16.6289C18.1941, 16.4643 17.9174, 16.2406 17.5951, 16.1335C17.4261, 16.0786 17.0909, 15.9998 16.6818, 15.8975L16.6818, 13.6474C16.9545, 13.7 17.1633, 13.8088 17.3564, 13.9738C17.5495, 14.1388 17.6521, 14.3761 17.7132, 14.6857L18.9111, 14.4476C18.8126, 13.9151 18.5444, 13.4962 18.0601, 13.1911C17.6823, 12.9514 17.2273, 12.8081 16.6818, 12.7613L16.6818, 12.1549L15.5028, 12.1549L15.4736, 12.8136C14.715, 12.871 14.2323, 12.9915 13.8468, 13.2467C13.2704, 13.6265 12.9823, 14.1201 12.9823, 14.7327C12.9823, 15.0773 13.0812, 15.3839 13.2792, 15.6551C13.4771, 15.9263 13.7593, 16.1379 14.1254, 16.291C14.6192, 16.4985 14.9659, 16.6469 15.4308, 16.7369L15.4603, 19.1925C15.0229, 19.1584 14.7807, 18.9922 14.4672, 18.6941C14.2485, 18.4831 14.0971, 18.1524 14.0104, 17.7021L12.7953, 18.0356C12.8363, 18.4702 12.9883, 18.838 13.2417, 19.139C13.4949, 19.4401 13.7908, 19.6581 14.1388, 19.7932C14.4867, 19.9283 14.9091, 20.0472 15.4545, 20.1001L15.4545, 20.8364L16.6818, 20.8364zM16.6818, 16.969C17.0909, 17.0724 17.4547, 17.2057 17.6272, 17.3688C17.7995, 17.5321 17.8627, 17.748 17.8627, 18.0167C17.8627, 18.332 17.7538, 18.5966 17.5054, 18.8105C17.257, 19.0244 16.9545, 19.1492 16.6818, 19.1848L16.6818, 16.969zM15.4545, 15.7034C15.0454, 15.6168 14.7492, 15.4878 14.5581, 15.3163C14.367, 15.1448 14.258, 14.9318 14.258, 14.6772C14.258, 14.42 14.3824, 14.1973 14.6044, 14.0092C14.8262, 13.8211 15.0455, 13.705 15.4546, 13.6607L15.4546, 15.7034z" fill="#FFFFFF" fill-opacity="1" class="White" fill-rule="evenodd" />
      </g>
    </g>
  </g>
  <g id="Layer_1" transform="translate(14, 12.8625)">
    <g id="icon">
      <path d="M8, 0C3.5817, 0 0, 3.5817 0, 8C0, 12.4183 3.5817, 16 8, 16C12.4183, 16 16, 12.4183 16, 8C16, 3.5817 12.4183, 0 8, 0zM13, 6.6904C13, 6.8452 12.8745, 7 12.7197, 7L9.3906, 7C9.3171, 7 9.2465, 6.9711 9.194, 6.9195L8.2838, 5.9947C8.1048, 5.8186 8.2299, 5.514 8.4811, 5.5147L10.1528, 5.5191L9.6858, 5.197C9.159, 4.8852 8.5548, 4.7204 7.9384, 4.7204C7.0001, 4.7204 6.1216, 5.0996 5.4647, 5.7881C4.1975, 7.1164 4.1975, 9.1975 5.4647, 10.5258C6.1397, 11.2333 7.0186, 11.623 7.9394, 11.623C8.829, 11.623 9.6876, 11.2543 10.3571, 10.5849C10.8175, 10.1245 11.1394, 9.5216 11.28, 8.8646C11.3105, 8.7221 11.4465, 8.6279 11.5909, 8.6475C11.8979, 8.6891 12.4005, 8.7569 12.7158, 8.8006C12.8765, 8.8229 12.9833, 8.9762 12.9518, 9.1354C12.7554, 10.1263 12.2767, 11.0226 11.5551, 11.7442C10.59, 12.7093 9.3075, 13.2408 7.9438, 13.2408C6.5545, 13.2408 5.2545, 12.6909 4.2834, 11.6923C2.3757, 9.7308 2.3794, 6.5353 4.2917, 4.5691C5.2629, 3.5705 6.5701, 3.0206 7.9726, 3.0206C9.1448, 3.0206 10.3579, 3.5384 11.329, 4.3059L11.5, 4.4494L11.5, 2.4808C11.5, 2.2311 11.8127, 2.1061 11.9892, 2.2826L12.9125, 3.1794C12.9651, 3.232 13, 3.3032 13, 3.3776L13, 6.6904z" fill="#039C23" fill-opacity="1" class="Green" fill-rule="evenodd" />
    </g>
  </g>
  <g id="Layer_1" transform="translate(14, 12.8625)">
    <g id="icon">
      <path d="M7.9439, 13.2408C6.5546, 13.2408 5.2546, 12.6909 4.2835, 11.6923C2.3758, 9.7308 2.3795, 6.5353 4.2918, 4.5691C5.263, 3.5705 6.5702, 3.0206 7.9727, 3.0206C9.1449, 3.0206 10.3688, 3.5384 11.3399, 4.3059L11.5215, 4.4494L11.5215, 2.4808C11.5215, 2.2311 11.8234, 2.1061 11.9999, 2.2826L12.9178, 3.1794C12.9704, 3.232 12.9999, 3.3032 12.9999, 3.3776L12.9999, 6.6904C12.9999, 6.8452 12.8744, 7 12.7196, 7L9.3906, 7C9.3171, 7 9.2465, 6.9711 9.194, 6.9195L8.2838, 5.9947C8.1048, 5.8186 8.23, 5.514 8.4811, 5.5147L10.1528, 5.5191L9.6858, 5.197C9.159, 4.8852 8.5548, 4.7204 7.9384, 4.7204C7.0001, 4.7204 6.1216, 5.0996 5.4647, 5.7881C4.1975, 7.1164 4.1975, 9.1975 5.4647, 10.5258C6.1397, 11.2333 7.0186, 11.623 7.9394, 11.623C8.829, 11.623 9.6876, 11.2543 10.3571, 10.5849C10.8175, 10.1245 11.1394, 9.5216 11.2801, 8.8646C11.3106, 8.7221 11.4466, 8.6279 11.591, 8.6475C11.898, 8.6891 12.4006, 8.7569 12.7159, 8.8006C12.8766, 8.8229 12.9834, 8.9762 12.9519, 9.1354C12.7555, 10.1263 12.2768, 11.0227 11.5552, 11.7442C10.5901, 12.7093 9.3076, 13.2408 7.9439, 13.2408z" fill="#FFFFFF" fill-opacity="1" class="White" />
    </g>
  </g>
</svg>