<?xml version='1.0' encoding='UTF-8'?>
<svg viewBox="-2 -5.2275 32 32" xmlns="http://www.w3.org/2000/svg" xmlns:xlink="http://www.w3.org/1999/xlink">
  <g id="Layer_1" transform="translate(-0.9925, -4.6862)">
    <g transform="matrix(0.9368, 0, 0, 0.9368, 0, 0)">
      <g id="icon">
        <path d="M1.54, 28C1.338, 28 1.161, 27.875 1.09, 27.682C1.019, 27.488 1.07, 27.275 1.222, 27.138L5.583, 23.157C5.671, 23.078 5.784, 23.034 5.901, 23.034L22.899, 23.067L27.278, 19.119C27.365, 19.042 27.476, 19 27.591, 19L30.341, 19C30.539, 19 30.714, 19.122 30.787, 19.31C30.86, 19.498 30.814, 19.709 30.67, 19.848L22.251, 27.866C22.161, 27.952 22.045, 28 21.922, 28L1.54, 28z" fill="#1177D7" fill-opacity="1" class="Blue" fill-rule="evenodd" />
      </g>
    </g>
  </g>
  <g id="Layer_1" transform="translate(-0.9925, -4.6862)">
    <g transform="matrix(0.9368, 0, 0, 0.9368, 0, 0)">
      <g id="icon">
        <path d="M1.564, 21C1.363, 21 1.188, 20.876 1.118, 20.684C1.048, 20.492 1.1, 20.28 1.251, 20.146L5.429, 16.221C5.515, 16.144 5.626, 16.101 5.741, 16.101L22.899, 16.068L27.277, 12.121C27.364, 12.044 27.475, 12.002 27.59, 12.002L30.315, 12.002C30.512, 12.002 30.686, 12.123 30.758, 12.311C30.83, 12.499 30.784, 12.709 30.641, 12.846L22.274, 20.87C22.185, 20.955 22.069, 21.002 21.948, 21.002L1.564, 21.002z" fill="#1177D7" fill-opacity="1" class="Blue" fill-rule="evenodd" />
      </g>
    </g>
  </g>
  <g id="Layer_1" transform="translate(-0.9925, -4.6862)">
    <g transform="matrix(0.9368, 0, 0, 0.9368, 0, 0)">
      <g id="icon">
        <path d="M1.565, 14C1.363, 14 1.187, 13.875 1.117, 13.68C1.047, 13.486 1.101, 13.274 1.255, 13.139L9.864, 5.117C9.95, 5.041 10.061, 5 10.174, 5L30.47, 5C30.673, 5 30.849, 5.126 30.919, 5.321C30.989, 5.516 30.934, 5.728 30.779, 5.862L22.087, 13.884C22.001, 13.959 21.891, 14 21.778, 14L1.565, 14z" fill="#FFB115" fill-opacity="1" class="Yellow" fill-rule="evenodd" />
      </g>
    </g>
  </g>
  <g id="Layer_1" transform="translate(14, 10.7725)">
    <g id="icon">
      <path d="M8, 0C3.5817, 0 0, 3.5817 0, 8C0, 12.4183 3.5817, 16 8, 16C12.4183, 16 16, 12.4183 16, 8C16, 3.5817 12.4183, 0 8, 0zM13, 6.6904C13, 6.8452 12.8745, 7 12.7197, 7L9.3906, 7C9.3171, 7 9.2465, 6.9711 9.194, 6.9195L8.2838, 5.9947C8.1048, 5.8186 8.2299, 5.514 8.4811, 5.5147L10.1528, 5.5191L9.6858, 5.197C9.159, 4.8852 8.5548, 4.7204 7.9384, 4.7204C7.0001, 4.7204 6.1216, 5.0996 5.4647, 5.7881C4.1975, 7.1164 4.1975, 9.1975 5.4647, 10.5258C6.1397, 11.2333 7.0186, 11.623 7.9394, 11.623C8.829, 11.623 9.6876, 11.2543 10.3571, 10.5849C10.8175, 10.1245 11.1394, 9.5216 11.28, 8.8646C11.3105, 8.7221 11.4465, 8.6279 11.5909, 8.6475C11.8979, 8.6891 12.4005, 8.7569 12.7158, 8.8006C12.8765, 8.8229 12.9833, 8.9762 12.9518, 9.1354C12.7554, 10.1263 12.2767, 11.0226 11.5551, 11.7442C10.59, 12.7093 9.3075, 13.2408 7.9438, 13.2408C6.5545, 13.2408 5.2545, 12.6909 4.2834, 11.6923C2.3757, 9.7308 2.3794, 6.5353 4.2917, 4.5691C5.2629, 3.5705 6.5701, 3.0206 7.9726, 3.0206C9.1448, 3.0206 10.3579, 3.5384 11.329, 4.3059L11.5, 4.4494L11.5, 2.4808C11.5, 2.2311 11.8127, 2.1061 11.9892, 2.2826L12.9125, 3.1794C12.9651, 3.232 13, 3.3032 13, 3.3776L13, 6.6904z" fill="#039C23" fill-opacity="1" class="Green" fill-rule="evenodd" />
    </g>
  </g>
  <g id="Layer_1" transform="translate(14, 10.7725)">
    <g id="icon">
      <path d="M7.9439, 13.2408C6.5546, 13.2408 5.2546, 12.6909 4.2835, 11.6923C2.3758, 9.7308 2.3795, 6.5353 4.2918, 4.5691C5.263, 3.5705 6.5702, 3.0206 7.9727, 3.0206C9.1449, 3.0206 10.3688, 3.5384 11.3399, 4.3059L11.5215, 4.4494L11.5215, 2.4808C11.5215, 2.2311 11.8234, 2.1061 11.9999, 2.2826L12.9178, 3.1794C12.9704, 3.232 12.9999, 3.3032 12.9999, 3.3776L12.9999, 6.6904C12.9999, 6.8452 12.8744, 7 12.7196, 7L9.3906, 7C9.3171, 7 9.2465, 6.9711 9.194, 6.9195L8.2838, 5.9947C8.1048, 5.8186 8.23, 5.514 8.4811, 5.5147L10.1528, 5.5191L9.6858, 5.197C9.159, 4.8852 8.5548, 4.7204 7.9384, 4.7204C7.0001, 4.7204 6.1216, 5.0996 5.4647, 5.7881C4.1975, 7.1164 4.1975, 9.1975 5.4647, 10.5258C6.1397, 11.2333 7.0186, 11.623 7.9394, 11.623C8.829, 11.623 9.6876, 11.2543 10.3571, 10.5849C10.8175, 10.1245 11.1394, 9.5216 11.2801, 8.8646C11.3106, 8.7221 11.4466, 8.6279 11.591, 8.6475C11.898, 8.6891 12.4006, 8.7569 12.7159, 8.8006C12.8766, 8.8229 12.9834, 8.9762 12.9519, 9.1354C12.7555, 10.1263 12.2768, 11.0227 11.5552, 11.7442C10.5901, 12.7093 9.3076, 13.2408 7.9439, 13.2408z" fill="#FFFFFF" fill-opacity="1" class="White" />
    </g>
  </g>
</svg>