<?xml version='1.0' encoding='UTF-8'?>
<svg viewBox="-2.0075 -4.03 32 32" xmlns="http://www.w3.org/2000/svg" xmlns:xlink="http://www.w3.org/1999/xlink">
  <g id="Layer_1" transform="translate(-1.0001, -3.7746)">
    <g transform="matrix(0.9342, 0, 0, 0.9342, 0, 0)">
      <g id="icon">
        <g>
          <path d="M16.075, 7.867C16.067, 7.927 16.034, 7.927 16.026, 7.867C11.319, 0.766 1.166, 4.417 1.068, 11.687C1.068, 17.714 5.734, 20.524 16.022, 29.653C16.024, 29.669 16.079, 29.669 16.081, 29.653C26.368, 20.524 31.035, 17.714 31.035, 11.687C30.935, 4.417 20.782, 0.767 16.075, 7.867zM28.286, 15.918C27.938, 15.932 27.117, 15.947 26.323, 15.961C25.687, 15.972 25.086, 15.983 24.807, 15.992L24.291, 16.011C23.838, 16.027 23.386, 16.042 22.933, 16.055L19.701, 16.14L18.608, 18.685C18.478, 18.99 18.34, 19.3 18.207, 19.6L17.301, 21.638C17.166, 21.942 16.833, 22.138 16.454, 22.138L16.453, 22.138C16.372, 22.138 16.289, 22.129 16.207, 22.11C15.887, 22.031 15.651, 21.816 15.573, 21.534C15.482, 21.2 15.395, 20.869 15.309, 20.541L15.215, 20.183L14.111, 15.806L13.762, 14.374C13.675, 14.019 13.592, 13.663 13.509, 13.308L13.231, 14.253C13.172, 14.459 13.11, 14.667 13.047, 14.875L12.976, 15.111C12.921, 15.287 12.868, 15.463 12.817, 15.636C12.732, 15.901 12.493, 16.071 12.208, 16.072L8.815, 16.01C8.272, 15.997 7.363, 15.985 6.4, 15.972C5.392, 15.959 4.349, 15.945 3.763, 15.93C3.525, 15.919 3.341, 15.723 3.341, 15.483C3.341, 15.243 3.526, 15.047 3.762, 15.038C4.401, 15.02 5.554, 15.004 6.668, 14.988C7.52, 14.976 8.324, 14.964 8.816, 14.953L11.675, 14.896C11.742, 14.549 11.8, 14.254 11.865, 13.956L12.156, 12.561C12.225, 12.219 12.301, 11.871 12.375, 11.535L12.765, 9.761C12.84, 9.412 13.187, 9.158 13.591, 9.158C13.631, 9.158 13.672, 9.16 13.712, 9.165C14.058, 9.207 14.335, 9.426 14.419, 9.723C14.586, 10.315 14.744, 10.904 14.896, 11.474L15.195, 12.589C15.333, 13.098 15.457, 13.558 15.573, 14.018L16.75, 18.686C16.842, 18.498 16.94, 18.297 17.04, 18.099L18.498, 15.192C18.629, 14.943 18.88, 14.795 19.171, 14.795L22.933, 14.888C23.329, 14.899 23.724, 14.913 24.12, 14.927L24.807, 14.951C25.069, 14.959 25.622, 14.969 26.207, 14.979C27.01, 14.993 27.921, 15.009 28.285, 15.025C28.518, 15.036 28.7, 15.231 28.701, 15.469C28.7, 15.709 28.518, 15.905 28.286, 15.918z" fill="#1177D7" class="Blue" fill-rule="evenodd" />
        </g>
      </g>
    </g>
  </g>
  <g id="Layer_1" transform="translate(-1.0001, -3.7746)">
    <g transform="matrix(0.9342, 0, 0, 0.9342, 0, 0)">
      <g id="icon">
        <g>
          <path d="M16.454, 22.138C16.373, 22.138 16.29, 22.129 16.208, 22.11C15.888, 22.031 15.652, 21.816 15.574, 21.534C15.483, 21.2 15.396, 20.869 15.31, 20.541L15.216, 20.183L14.112, 15.806L13.763, 14.374C13.676, 14.019 13.593, 13.663 13.51, 13.308L13.232, 14.253C13.173, 14.459 13.111, 14.667 13.048, 14.875L12.977, 15.111C12.922, 15.287 12.869, 15.463 12.818, 15.636C12.733, 15.901 12.494, 16.071 12.209, 16.072L8.816, 16.01C8.273, 15.997 7.364, 15.985 6.401, 15.972C5.393, 15.959 4.35, 15.945 3.764, 15.93C3.526, 15.919 3.342, 15.723 3.342, 15.483C3.342, 15.243 3.527, 15.047 3.763, 15.038C4.402, 15.02 5.555, 15.004 6.669, 14.988C7.521, 14.976 8.325, 14.964 8.817, 14.953L11.676, 14.896C11.743, 14.549 11.801, 14.254 11.866, 13.956L12.157, 12.561C12.226, 12.219 12.302, 11.871 12.376, 11.535L12.766, 9.761C12.841, 9.412 13.188, 9.158 13.592, 9.158C13.632, 9.158 13.673, 9.16 13.713, 9.165C14.059, 9.207 14.336, 9.426 14.42, 9.723C14.587, 10.315 14.745, 10.904 14.897, 11.474L15.196, 12.589C15.334, 13.098 15.458, 13.558 15.574, 14.018L16.751, 18.686C16.843, 18.498 16.941, 18.297 17.041, 18.099L18.499, 15.192C18.63, 14.943 18.881, 14.795 19.172, 14.795L22.934, 14.888C23.33, 14.899 23.725, 14.913 24.121, 14.927L24.808, 14.951C25.07, 14.959 25.623, 14.969 26.208, 14.979C27.011, 14.993 27.922, 15.009 28.286, 15.025C28.519, 15.036 28.701, 15.231 28.702, 15.469C28.702, 15.707 28.52, 15.903 28.288, 15.916C27.94, 15.93 27.119, 15.945 26.325, 15.959C25.689, 15.97 25.088, 15.981 24.809, 15.99L24.293, 16.009C23.84, 16.025 23.388, 16.04 22.935, 16.053L19.703, 16.138L18.61, 18.683C18.48, 18.988 18.342, 19.298 18.209, 19.598L17.303, 21.636C17.166, 21.941 16.834, 22.138 16.454, 22.138L16.454, 22.138z" fill="#FFFFFF" />
        </g>
      </g>
    </g>
  </g>
  <g id="Layer_1" transform="translate(13.9925, 11.97)">
    <g id="icon">
      <path d="M8, 0C3.5817, 0 0, 3.5817 0, 8C0, 12.4183 3.5817, 16 8, 16C12.4183, 16 16, 12.4183 16, 8C16, 3.5817 12.4183, 0 8, 0zM13, 6.6904C13, 6.8452 12.8745, 7 12.7197, 7L9.3906, 7C9.3171, 7 9.2465, 6.9711 9.194, 6.9195L8.2838, 5.9947C8.1048, 5.8186 8.2299, 5.514 8.4811, 5.5147L10.1528, 5.5191L9.6858, 5.197C9.159, 4.8852 8.5548, 4.7204 7.9384, 4.7204C7.0001, 4.7204 6.1216, 5.0996 5.4647, 5.7881C4.1975, 7.1164 4.1975, 9.1975 5.4647, 10.5258C6.1397, 11.2333 7.0186, 11.623 7.9394, 11.623C8.829, 11.623 9.6876, 11.2543 10.3571, 10.5849C10.8175, 10.1245 11.1394, 9.5216 11.28, 8.8646C11.3105, 8.7221 11.4465, 8.6279 11.5909, 8.6475C11.8979, 8.6891 12.4005, 8.7569 12.7158, 8.8006C12.8765, 8.8229 12.9833, 8.9762 12.9518, 9.1354C12.7554, 10.1263 12.2767, 11.0226 11.5551, 11.7442C10.59, 12.7093 9.3075, 13.2408 7.9438, 13.2408C6.5545, 13.2408 5.2545, 12.6909 4.2834, 11.6923C2.3757, 9.7308 2.3794, 6.5353 4.2917, 4.5691C5.2629, 3.5705 6.5701, 3.0206 7.9726, 3.0206C9.1448, 3.0206 10.3579, 3.5384 11.329, 4.3059L11.5, 4.4494L11.5, 2.4808C11.5, 2.2311 11.8127, 2.1061 11.9892, 2.2826L12.9125, 3.1794C12.9651, 3.232 13, 3.3032 13, 3.3776L13, 6.6904z" fill="#039C23" fill-opacity="1" class="Green" fill-rule="evenodd" />
    </g>
  </g>
  <g id="Layer_1" transform="translate(13.9925, 11.97)">
    <g id="icon">
      <path d="M7.9439, 13.2408C6.5546, 13.2408 5.2546, 12.6909 4.2835, 11.6923C2.3758, 9.7308 2.3795, 6.5353 4.2918, 4.5691C5.263, 3.5705 6.5702, 3.0206 7.9727, 3.0206C9.1449, 3.0206 10.3688, 3.5384 11.3399, 4.3059L11.5215, 4.4494L11.5215, 2.4808C11.5215, 2.2311 11.8234, 2.1061 11.9999, 2.2826L12.9178, 3.1794C12.9704, 3.232 12.9999, 3.3032 12.9999, 3.3776L12.9999, 6.6904C12.9999, 6.8452 12.8744, 7 12.7196, 7L9.3906, 7C9.3171, 7 9.2465, 6.9711 9.194, 6.9195L8.2838, 5.9947C8.1048, 5.8186 8.23, 5.514 8.4811, 5.5147L10.1528, 5.5191L9.6858, 5.197C9.159, 4.8852 8.5548, 4.7204 7.9384, 4.7204C7.0001, 4.7204 6.1216, 5.0996 5.4647, 5.7881C4.1975, 7.1164 4.1975, 9.1975 5.4647, 10.5258C6.1397, 11.2333 7.0186, 11.623 7.9394, 11.623C8.829, 11.623 9.6876, 11.2543 10.3571, 10.5849C10.8175, 10.1245 11.1394, 9.5216 11.2801, 8.8646C11.3106, 8.7221 11.4466, 8.6279 11.591, 8.6475C11.898, 8.6891 12.4006, 8.7569 12.7159, 8.8006C12.8766, 8.8229 12.9834, 8.9762 12.9519, 9.1354C12.7555, 10.1263 12.2768, 11.0227 11.5552, 11.7442C10.5901, 12.7093 9.3076, 13.2408 7.9439, 13.2408z" fill="#FFFFFF" fill-opacity="1" class="White" />
    </g>
  </g>
</svg>