<?xml version='1.0' encoding='UTF-8'?>
<svg viewBox="-2 -2 32 32" xmlns="http://www.w3.org/2000/svg" xmlns:xlink="http://www.w3.org/1999/xlink">
  <g id="Layer_1" transform="translate(0.9325, -0.935)">
    <g transform="matrix(-1, 0, 0, 1, 28, 0)">
      <g transform="matrix(0.9334, 0, 0, 0.9334, 0, 0)">
        <g id="icon">
          <path d="M30.3, 14.31L17.69, 1.7C16.758, 0.768 15.242, 0.768 14.311, 1.7L1.7, 14.31C0.768, 15.242 0.768, 16.758 1.7, 17.689L14.31, 30.3C14.776, 30.766 15.388, 30.999 16, 30.999C16.612, 30.999 17.224, 30.766 17.69, 30.3L30.3, 17.69C31.232, 16.758 31.232, 15.242 30.3, 14.31zM15.442, 28.869L3.131, 16.558C2.823, 16.25 2.823, 15.749 3.131, 15.442L15.442, 3.132C15.596, 2.978 15.798, 2.901 16, 2.901L16, 29.1C15.798, 29.1 15.596, 29.023 15.442, 28.869z" fill="#D11C1C" fill-opacity="1" class="Red" />
        </g>
      </g>
    </g>
  </g>
</svg>