<?xml version='1.0' encoding='UTF-8'?>
<svg viewBox="-2 -3.0825 32 32" xmlns="http://www.w3.org/2000/svg" xmlns:xlink="http://www.w3.org/1999/xlink">
  <g transform="translate(0, 0.0013)">
    <g transform="matrix(0.9928, 0, 0, 0.9928, 0, 0)">
      <g transform="translate(0, 0.0011)">
        <g transform="matrix(1.0073, 0, 0, 1.0073, 0, 0)">
          <g transform="translate(0, -0.0021)">
            <g transform="matrix(1.1429, 0, 0, 1.1429, 0, 0)">
              <g id="Layer_1" transform="translate(0, -2.6063)">
                <g transform="matrix(0.8687, 0, 0, 0.8687, 0, 0)">
                  <g id="icon">
                    <path d="M13.4626, 22.8376L8.7049, 18.0589C8.6674, 18.0212 8.6164, 18 8.5632, 18L6.3473, 18C6.1691, 18 6.0799, 18.2154 6.2059, 18.3414L9.8644, 22L7.0167, 22C4.246, 22 2, 19.754 2, 16.9833L2, 16.4C2, 16.1791 1.8209, 16 1.6, 16L0.4, 16C0.1791, 16 0, 16.1791 0, 16.4L0, 16.9833C0, 20.7771 3.0114, 23.8656 6.7739, 23.9938C6.789, 23.9975 6.8046, 23.9999 6.8209, 23.9999L7.0167, 23.9999L9.8176, 23.9999L6.159, 27.6586C6.033, 27.7846 6.1222, 28 6.3004, 28L8.5178, 28C8.571, 28 8.622, 27.9788 8.6595, 27.9412L13.4626, 23.1199C13.5403, 23.0419 13.5403, 22.9157 13.4626, 22.8376z" fill="#1177D7" class="Blue" />
                  </g>
                </g>
              </g>
            </g>
          </g>
        </g>
      </g>
    </g>
  </g>
  <g transform="translate(0, 0.0013)">
    <g transform="matrix(0.9928, 0, 0, 0.9928, 0, 0)">
      <g transform="translate(0, 0.0011)">
        <g transform="matrix(1.0073, 0, 0, 1.0073, 0, 0)">
          <g transform="translate(0, -0.0021)">
            <g transform="matrix(1.1429, 0, 0, 1.1429, 0, 0)">
              <g id="Layer_1" transform="translate(0, -2.6063)">
                <g transform="matrix(0.8687, 0, 0, 0.8687, 0, 0)">
                  <g id="icon">
                    <g>
                      <path d="M8.6798, 14C8.5298, 14 8.4056, 13.9581 8.3106, 13.8754C8.2219, 13.7983 8.1552, 13.7353 8.1125, 13.6217L7.1817, 11.1L2.74, 11.1L1.8027, 13.621C1.7646, 13.7249 1.698, 13.8024 1.6048, 13.8846C1.505, 13.9724 1.383, 14 1.2421, 14L0.0259, 14L4.188, 3L5.734, 3L9.889, 14L8.6798, 14zM6.7271, 9.8L5.1663, 5.5145C5.0941, 5.3316 5.0229, 5.1089 4.9541, 4.8598C4.936, 4.928 4.9182, 4.991 4.9007, 5.0533C4.8514, 5.23 4.7999, 5.3947 4.7477, 5.5257L3.1947, 9.8L6.7271, 9.8z" fill="#727272" class="Black" />
                    </g>
                  </g>
                </g>
              </g>
            </g>
          </g>
        </g>
      </g>
    </g>
  </g>
  <g transform="translate(0, 0.0013)">
    <g transform="matrix(0.9928, 0, 0, 0.9928, 0, 0)">
      <g transform="translate(0, 0.0011)">
        <g transform="matrix(1.0073, 0, 0, 1.0073, 0, 0)">
          <g transform="translate(0, -0.0021)">
            <g transform="matrix(1.1429, 0, 0, 1.1429, 0, 0)">
              <g id="Layer_1" transform="translate(0, -2.6063)">
                <g transform="matrix(0.8687, 0, 0, 0.8687, 0, 0)">
                  <g id="icon">
                    <g>
                      <path d="M10.9, 14L10.9, 3L14.2962, 3C14.9301, 3 15.486, 3.054 15.9484, 3.1861C16.415, 3.3194 16.8048, 3.5064 17.107, 3.7547C17.4113, 4.0048 17.6392, 4.3122 17.7842, 4.6746C17.9276, 5.0332 18.0003, 5.4426 18.0003, 5.8945C18.0003, 6.1687 17.9588, 6.4359 17.8771, 6.6903C17.7952, 6.9452 17.6706, 7.1852 17.5067, 7.4043C17.3429, 7.6234 17.1333, 7.8217 16.8838, 7.9942C16.7147, 8.1111 16.5252, 8.2136 16.3178, 8.3005C16.9314, 8.4731 17.4115, 8.7466 17.7477, 9.1158C18.1417, 9.5486 18.3415, 10.123 18.3415, 10.8233C18.3415, 11.2906 18.2592, 11.7244 18.097, 12.1126C17.934, 12.5025 17.6909, 12.8428 17.3745, 13.1239C17.0588, 13.4043 16.667, 13.6229 16.2099, 13.7738C15.7556, 13.9238 15.2312, 13.9998 14.6514, 13.9998L10.9, 13.9998zM14.6167, 12.6C14.9991, 12.6 15.3307, 12.5792 15.6023, 12.4869C15.871, 12.3956 16.0945, 12.2802 16.2668, 12.118C16.4381, 11.9567 16.5657, 11.7667 16.6461, 11.5405C16.728, 11.3098 16.7696, 11.0571 16.7696, 10.7831C16.7696, 10.2443 16.5969, 9.8529 16.2418, 9.5435C15.8881, 9.2354 15.339, 9.1 14.6098, 9.1L12.5, 9.1L12.5, 12.6L14.6167, 12.6zM14.2395, 7.8C14.6192, 7.8 14.9516, 7.7605 15.2274, 7.6734C15.5002, 7.5872 15.7288, 7.4697 15.9068, 7.3197C16.0823, 7.1718 16.2141, 6.9894 16.2986, 6.7754C16.3848, 6.5573 16.4284, 6.3175 16.4284, 6.0615C16.4284, 5.4629 16.2569, 5.0087 15.9185, 4.733C15.5747, 4.4529 15.0263, 4.3 14.2886, 4.3L12.5, 4.3L12.5, 7.8L14.2395, 7.8z" fill="#727272" class="Black" />
                    </g>
                  </g>
                </g>
              </g>
            </g>
          </g>
        </g>
      </g>
    </g>
  </g>
  <g transform="translate(0, 0.0013)">
    <g transform="matrix(0.9928, 0, 0, 0.9928, 0, 0)">
      <g transform="translate(0, 0.0011)">
        <g transform="matrix(1.0073, 0, 0, 1.0073, 0, 0)">
          <g transform="translate(0, -0.0021)">
            <g transform="matrix(1.1429, 0, 0, 1.1429, 0, 0)">
              <g id="Layer_1" transform="translate(0, -2.6063)">
                <g transform="matrix(0.8687, 0, 0, 0.8687, 0, 0)">
                  <g id="icon">
                    <g>
                      <path d="M21.9778, 28.9C21.8265, 28.9 21.7013, 28.8601 21.6055, 28.7784C21.5158, 28.702 21.4483, 28.6265 21.4051, 28.5137L20.4637, 26L15.9691, 26L15.0211, 28.5139C14.9826, 28.6169 14.9152, 28.6991 14.8209, 28.7806C14.7202, 28.8674 14.5972, 28.9001 14.4552, 28.9001L13.2262, 28.9001L17.4358, 18.0001L18.9972, 18.0001L23.1996, 28.9001L21.9778, 28.9001zM20.0039, 24.7L18.4254, 20.4703C18.3519, 20.2879 18.2796, 20.0752 18.2095, 19.8265C18.1908, 19.8952 18.1725, 19.9639 18.1544, 20.0274C18.1045, 20.2027 18.0524, 20.3491 17.9995, 20.479L16.4291, 24.7L20.0039, 24.7z" fill="Transparent" class="Transparent" />
                    </g>
                  </g>
                </g>
              </g>
            </g>
          </g>
        </g>
      </g>
    </g>
  </g>
  <g transform="translate(0, 0.0013)">
    <g transform="matrix(0.9928, 0, 0, 0.9928, 0, 0)">
      <g transform="translate(0, 0.0011)">
        <g transform="matrix(1.0073, 0, 0, 1.0073, 0, 0)">
          <g transform="translate(0, -0.0021)">
            <g transform="matrix(1.1429, 0, 0, 1.1429, 0, 0)">
              <g id="Layer_1" transform="translate(0, -2.6063)">
                <g transform="matrix(0.8687, 0, 0, 0.8687, 0, 0)">
                  <g id="icon">
                    <g>
                      <path d="M28.3806, 29.0202C27.623, 29.0202 26.9266, 28.883 26.3109, 28.6124C25.6945, 28.3416 25.1615, 27.955 24.7266, 27.4629C24.2929, 26.9725 23.9513, 26.3776 23.7111, 25.695C23.4715, 25.0141 23.35, 24.2543 23.35, 23.4367C23.35, 22.6197 23.48, 21.859 23.7365, 21.1759C23.9934, 20.4916 24.358, 19.8962 24.8203, 19.4061C25.2831, 18.9155 25.8467, 18.5286 26.4954, 18.2561C27.1437, 17.9839 27.8656, 17.8458 28.6411, 17.8458C29.4125, 17.8458 30.0889, 17.9731 30.6515, 18.2243C31.2115, 18.4744 31.7155, 18.8172 32.1494, 19.2433L32.207, 19.3L31.7037, 20.0324C31.6652, 20.0895 31.6197, 20.1382 31.5688, 20.1762C31.5083, 20.2218 31.4261, 20.244 31.3177, 20.244C31.2364, 20.244 31.1511, 20.215 31.0644, 20.1577C30.9921, 20.1101 30.9066, 20.05 30.8102, 19.9791C30.7156, 19.9097 30.6039, 19.8348 30.4784, 19.7565C30.3554, 19.6798 30.2059, 19.6076 30.0344, 19.5419C29.8618, 19.4759 29.6586, 19.4183 29.4303, 19.3709C29.2031, 19.3237 28.9352, 19.2998 28.6341, 19.2998C28.0968, 19.2998 27.5997, 19.3967 27.1568, 19.5877C26.7143, 19.7785 26.3278, 20.0544 26.0079, 20.4078C25.6871, 20.7622 25.4329, 21.2002 25.2527, 21.7097C25.0717, 22.221 24.9799, 22.8021 24.9799, 23.4369C24.9799, 24.0911 25.0716, 24.682 25.2527, 25.1934C25.4332, 25.7035 25.6817, 26.1407 25.9913, 26.4928C26.2993, 26.8431 26.6688, 27.1125 27.0898, 27.2934C27.5114, 27.4747 27.9741, 27.5666 28.4651, 27.5666C28.7685, 27.5666 29.043, 27.5486 29.2811, 27.5132C29.5169, 27.478 29.7384, 27.4212 29.9394, 27.3444C30.1405, 27.2674 30.3304, 27.1694 30.5039, 27.0531C30.6796, 26.9353 30.8591, 26.7918 31.0377, 26.6266C31.1368, 26.5362 31.238, 26.4906 31.339, 26.4906C31.4408, 26.4906 31.5354, 26.5317 31.6203, 26.6126L32.2302, 27.2961L32.1777, 27.3595C31.7477, 27.878 31.2185, 28.2888 30.6047, 28.5804C29.9902, 28.8722 29.242, 29.0202 28.3806, 29.0202z" fill="Transparent" class="Transparent" />
                    </g>
                  </g>
                </g>
              </g>
            </g>
          </g>
        </g>
      </g>
    </g>
  </g>
  <g id="Layer_1" transform="translate(14, 12.9175)">
    <g id="icon">
      <path d="M0.259, 15C0.151, 15 0.057, 14.93 0.018, 14.82C-0.02, 14.711 0.007, 14.591 0.088, 14.513L2.417, 12.069C2.464, 12.024 2.524, 12 2.587, 12L11.765, 12.019L13.83, 10.068C13.877, 10.024 13.937, 10 13.999, 10L15.665, 10C15.771, 10 15.865, 10.069 15.904, 10.175C15.943, 10.282 15.919, 10.401 15.841, 10.48L11.322, 14.924C11.274, 14.973 11.211, 15 11.145, 15L0.259, 15z" fill="#1177D7" fill-opacity="1" class="Blue" fill-rule="evenodd" />
    </g>
  </g>
  <g id="Layer_1" transform="translate(14, 12.9175)">
    <g id="icon">
      <path d="M0.259, 11C0.15, 11 0.056, 10.929 0.018, 10.819C-0.02, 10.709 0.008, 10.588 0.09, 10.511L2.352, 8.068C2.398, 8.024 2.458, 8 2.52, 8L11.8, 8L13.814, 6.067C13.86, 6.024 13.919, 6 13.98, 6L15.653, 6C15.759, 6 15.852, 6.069 15.891, 6.175C15.93, 6.281 15.905, 6.4 15.828, 6.478L11.336, 10.925C11.288, 10.973 11.226, 11 11.161, 11L0.259, 11z" fill="#1177D7" fill-opacity="1" class="Blue" fill-rule="evenodd" />
    </g>
  </g>
  <g id="Layer_1" transform="translate(14, 12.9175)">
    <g id="icon">
      <path d="M0.242, 7C0.133, 7 0.039, 6.929 0.001, 6.819C-0.037, 6.709 -0.008, 6.589 0.075, 6.513L4.696, 2.067C4.742, 2.024 4.802, 2.001 4.863, 2.001L15.757, 2.001C15.866, 2.001 15.96, 2.072 15.998, 2.183C16.035, 2.293 16.006, 2.414 15.923, 2.49L11.257, 6.936C11.211, 6.978 11.152, 7.002 11.091, 7.002L0.242, 7.002z" fill="#1177D7" fill-opacity="1" class="Blue" fill-rule="evenodd" />
    </g>
  </g>
</svg>