<?xml version='1.0' encoding='UTF-8'?>
<svg viewBox="0 -1.2275 32 32" xmlns="http://www.w3.org/2000/svg" xmlns:xlink="http://www.w3.org/1999/xlink">
  <g id="Layer_1" transform="translate(-0.9925, -4.6862)">
    <g transform="matrix(0.9368, 0, 0, 0.9368, 0, 0)">
      <g id="icon">
        <path d="M1.54, 28C1.338, 28 1.161, 27.875 1.09, 27.682C1.019, 27.488 1.07, 27.275 1.222, 27.138L5.583, 23.157C5.671, 23.078 5.784, 23.034 5.901, 23.034L22.899, 23.067L27.278, 19.119C27.365, 19.042 27.476, 19 27.591, 19L30.341, 19C30.539, 19 30.714, 19.122 30.787, 19.31C30.86, 19.498 30.814, 19.709 30.67, 19.848L22.251, 27.866C22.161, 27.952 22.045, 28 21.922, 28L1.54, 28z" fill="#D11C1C" fill-opacity="1" class="Red" fill-rule="evenodd" />
      </g>
    </g>
  </g>
  <g id="Layer_1" transform="translate(-0.9925, -4.6862)">
    <g transform="matrix(0.9368, 0, 0, 0.9368, 0, 0)">
      <g id="icon">
        <path d="M1.564, 21C1.363, 21 1.188, 20.876 1.118, 20.684C1.048, 20.492 1.1, 20.28 1.251, 20.146L5.429, 16.221C5.515, 16.144 5.626, 16.101 5.741, 16.101L22.899, 16.068L27.277, 12.121C27.364, 12.044 27.475, 12.002 27.59, 12.002L30.315, 12.002C30.512, 12.002 30.686, 12.123 30.758, 12.311C30.83, 12.499 30.784, 12.709 30.641, 12.846L22.274, 20.87C22.185, 20.955 22.069, 21.002 21.948, 21.002L1.564, 21.002z" fill="#FFB115" fill-opacity="1" class="Yellow" fill-rule="evenodd" />
      </g>
    </g>
  </g>
  <g id="Layer_1" transform="translate(-0.9925, -4.6862)">
    <g transform="matrix(0.9368, 0, 0, 0.9368, 0, 0)">
      <g id="icon">
        <path d="M1.565, 14C1.363, 14 1.187, 13.875 1.117, 13.68C1.047, 13.486 1.101, 13.274 1.255, 13.139L9.864, 5.117C9.95, 5.041 10.061, 5 10.174, 5L30.47, 5C30.673, 5 30.849, 5.126 30.919, 5.321C30.989, 5.516 30.934, 5.728 30.779, 5.862L22.087, 13.884C22.001, 13.959 21.891, 14 21.778, 14L1.565, 14z" fill="#039C23" fill-opacity="1" class="Green" fill-rule="evenodd" />
      </g>
    </g>
  </g>
  <g id="Layer_1" transform="translate(16, 14.7725)" style="enable-background:new 0 0 16 16">
    <g id="Settings">
      <path d="M16, 9L16, 7L13.5, 6.4C13.4, 6 13.2, 5.6 13, 5.2L14.5, 3.1L12.9, 1.5L10.8, 3C10.4, 2.8 10, 2.6 9.6, 2.5L9, 0L7, 0L6.4, 2.5C6, 2.6 5.6, 2.8 5.2, 3L3.2, 1.5L1.5, 3.2L3, 5.2C2.8, 5.6 2.6, 6 2.5, 6.4L0, 7L0, 9L2.5, 9.6C2.6, 10 2.8, 10.4 3, 10.8L1.5, 12.9L3.1, 14.5L5.2, 13C5.6, 13.2 6, 13.4 6.4, 13.5L7, 16L9, 16L9.6, 13.5C10, 13.4 10.4, 13.2 10.8, 13L12.9, 14.5L14.5, 12.9L13, 10.8C13.2, 10.4 13.4, 10 13.5, 9.6L16, 9z" fill="#1177D7" class="Blue" />
    </g>
  </g>
  <g id="Layer_1" transform="translate(16, 14.7725)" style="enable-background:new 0 0 16 16">
    <g id="Settings">
      <circle cx="8" cy="8" r="2" fill="#FFFFFF" class="White" />
    </g>
  </g>
</svg>