<?xml version='1.0' encoding='UTF-8'?>
<svg viewBox="-3.1175 -2 32 32" xmlns="http://www.w3.org/2000/svg" xmlns:xlink="http://www.w3.org/1999/xlink">
  <g id="Layer_1" transform="translate(-2.0262, -0.9549)">
    <g transform="matrix(0.9347, 0, 0, 0.9347, 0, 0)">
      <g id="icon">
        <path d="M12.3761, 10.6273C12.0755, 10.1392 11.6393, 9.705 11.0198, 9.3366C10.4668, 9.008 9.7133, 8.6831 8.6724, 8.3461L8.6724, 4.4161C9.5832, 4.5191 10.5085, 4.7481 11.4155, 5.0987L11.4155, 5.0987C11.6064, 5.1757 11.8249, 5.085 11.9005, 4.8973L12.4795, 3.4607C12.5523, 3.28 12.4656, 3.0754 12.2832, 2.9979L12.2767, 2.9951C11.1129, 2.5367 9.8434, 2.2682 8.6724, 2.1952L8.6724, 1.5294C8.6724, 1.2488 8.4394, 1.0214 8.152, 1.0214L6.981, 1.0214C6.6936, 1.0214 6.4606, 1.2489 6.4606, 1.5294L6.4606, 2.2462C5.2896, 2.4123 4.3743, 2.7912 3.6522, 3.3745C2.8232, 4.0442 2.3933, 4.9138 2.3933, 5.9592C2.3933, 7.0226 2.747, 7.9072 3.4166, 8.5885C4.0305, 9.2133 5.0294, 9.745 6.4606, 10.2104L6.4606, 14.2311C5.9401, 14.2046 5.3615, 14.127 4.7586, 13.9994C3.9995, 13.8391 3.3076, 13.6305 2.7304, 13.3794L2.7176, 13.374C2.4575, 13.2637 2.1669, 13.4498 2.1669, 13.7265L2.1669, 15.3853C2.1669, 15.5362 2.2573, 15.6731 2.398, 15.7354L2.398, 15.7354C2.9152, 15.9691 3.6017, 16.1531 4.3966, 16.2824C5.0555, 16.3896 5.6799, 16.4522 6.4605, 16.4692L6.4605, 17.2788C6.4605, 17.5594 6.6935, 17.7868 6.9809, 17.7868L8.1519, 17.7868C8.4393, 17.7868 8.6723, 17.5593 8.6723, 17.2788L8.6723, 16.3272C9.8433, 16.1302 10.8861, 15.7171 11.6183, 15.0968C12.4464, 14.3954 12.8511, 13.4937 12.8511, 12.4167C12.8511, 11.7243 12.6811, 11.1222 12.3761, 10.6273zM8.7172, 10.9174C9.3995, 11.1975 9.7224, 11.4285 9.881, 11.5832C10.1311, 11.8273 10.279, 12.1452 10.279, 12.5551C10.279, 13.0676 10.082, 13.7579 8.7173, 14.0617L8.7173, 10.9174zM5.0091, 5.9378C5.0091, 5.5562 5.205, 5.2458 5.4941, 4.9886C5.7279, 4.7804 5.9877, 4.6203 6.5336, 4.5105L6.5336, 7.6003C5.9877, 7.3947 5.6575, 7.184 5.4444, 6.9713C5.1889, 6.7165 5.0091, 6.3783 5.0091, 5.9378z" fill="#727272" fill-opacity="1" class="Black" />
      </g>
    </g>
  </g>
  <g id="Layer_1" transform="translate(-2.0262, -0.9549)">
    <g transform="matrix(0.9347, 0, 0, 0.9347, 0, 0)">
      <g id="icon">
        <path d="M29.2697, 28.206C29.2059, 28.0014 28.9578, 27.9049 28.7595, 28.0075L28.7266, 28.0245C28.1041, 28.3466 27.0133, 28.6909 25.8192, 28.6909C24.473, 28.6909 23.3299, 28.3175 22.5122, 27.5658C21.9298, 27.0353 21.5273, 26.7171 21.3126, 25.8711L28.2042, 25.8711C28.3303, 25.8711 28.4325, 25.6737 28.4325, 25.5547L28.4325, 24.2224C28.4325, 24.1035 28.3303, 23.9673 28.2042, 23.9673L20.957, 23.9673L20.957, 23.9275C20.957, 23.7385 20.9463, 22.9399 20.957, 22.6982L28.2043, 22.6982C28.3304, 22.6982 28.4326, 22.6018 28.4326, 22.4829L28.4326, 21.0097C28.4326, 20.8908 28.3304, 20.7944 28.2043, 20.7944L21.4412, 20.7944C21.6551, 20.1598 22.1401, 19.5456 22.7095, 19.0449C23.5185, 18.3369 24.5648, 17.986 25.8193, 17.986C26.7677, 17.986 27.7627, 18.2003 28.4809, 18.5525L28.5234, 18.5736C28.7102, 18.6662 28.9405, 18.5791 29.0078, 18.3905L29.5412, 16.8947C29.5963, 16.7401 29.5207, 16.571 29.3649, 16.5003L29.3325, 16.4856C28.6057, 16.1545 27.3974, 15.7601 25.7687, 15.7601C23.6698, 15.7601 21.9003, 16.3797 20.5176, 17.6261C19.465, 18.521 18.8947, 19.5253 18.5456, 20.7945L16.9542, 20.7945C16.7817, 20.7945 16.6418, 20.9264 16.6418, 21.0891L16.6418, 22.4036C16.6418, 22.5663 16.7817, 22.6982 16.9542, 22.6982L18.1055, 22.6982C18.0935, 22.9399 18.085, 23.7256 18.084, 23.9674L16.9543, 23.9674C16.7818, 23.9674 16.6419, 24.1391 16.6419, 24.3019L16.6419, 25.4755C16.6419, 25.6382 16.7818, 25.8712 16.9543, 25.8712L18.4188, 25.8712C18.6906, 27.3216 19.3707, 28.0605 20.1442, 28.9629C21.4466, 30.2708 23.3719, 30.9794 25.5659, 30.9794C27.038, 30.9794 28.5249, 30.6235 29.5433, 30.037L29.5666, 30.0233C29.7016, 29.944 29.764, 29.7894 29.7191, 29.6455L29.2697, 28.206z" fill="#727272" fill-opacity="1" class="Black" />
      </g>
    </g>
  </g>
  <g id="Layer_1" transform="translate(-2.0262, -0.9549)">
    <g transform="matrix(0.9347, 0, 0, 0.9347, 0, 0)">
      <g id="icon">
        <path d="M20.5824, 2.4667C20.4186, 2.4667 20.2614, 2.5313 20.1449, 2.6465L17.2799, 5.4803C17.0584, 5.7027 17.0636, 6.0547 17.2907, 6.2828L20.1446, 9.1471C20.2612, 9.2641 20.4196, 9.3299 20.5848, 9.3299L22.3057, 9.3299C22.5151, 9.3299 22.6202, 9.0768 22.4723, 8.9285L20.4772, 6.9278L22.7696, 6.9278C24.0898, 6.9278 25.1241, 7.9686 25.1241, 9.2972L25.1241, 11.5326C25.1241, 11.9145 25.2451, 12.0334 25.6291, 12.0334L26.6564, 12.0334C27.0159, 12.0334 27.183, 11.9417 27.183, 11.5326L27.183, 9.2971C27.183, 6.8967 25.3112, 4.9492 22.9194, 4.8584L22.9132, 4.8577L22.8908, 4.8574C22.8596, 4.8574 22.829, 4.8612 22.7994, 4.8687L20.4818, 4.8687L22.4611, 2.8798C22.6132, 2.727 22.5049, 2.4666 22.2893, 2.4666L20.5824, 2.4666z" fill="#D11C1C" fill-opacity="1" class="Red" />
      </g>
    </g>
  </g>
  <g id="Layer_1" transform="translate(-2.0262, -0.9549)">
    <g transform="matrix(0.9347, 0, 0, 0.9347, 0, 0)">
      <g id="icon">
        <path d="M9.5176, 29.4333C9.6814, 29.4333 9.8386, 29.3687 9.9551, 29.2535L12.8201, 26.4197C13.0416, 26.1973 13.0364, 25.8453 12.8093, 25.6172L9.9554, 22.753C9.8388, 22.636 9.6804, 22.5702 9.5152, 22.5702L7.7944, 22.5702C7.585, 22.5702 7.4799, 22.8233 7.6278, 22.9716L9.6229, 24.9723L7.3304, 24.9723C6.0102, 24.9723 4.9759, 23.9315 4.9759, 22.6029L4.9759, 20.3675C4.9759, 19.9856 4.8549, 19.8667 4.4709, 19.8667L3.4436, 19.8667C3.0841, 19.8667 2.917, 19.9584 2.917, 20.3675L2.917, 22.6029C2.917, 25.0033 4.7888, 26.9508 7.1806, 27.0416L7.1868, 27.0423L7.2092, 27.0426C7.2404, 27.0426 7.271, 27.0388 7.3006, 27.0313L9.6182, 27.0313L7.6389, 29.0202C7.4868, 29.173 7.5951, 29.4334 7.8107, 29.4334L9.5176, 29.4334z" fill="#039C23" fill-opacity="1" class="Green" />
      </g>
    </g>
  </g>
</svg>