<?xml version='1.0' encoding='UTF-8'?>
<svg viewBox="-2.0025 -2 32 32" xmlns="http://www.w3.org/2000/svg" xmlns:xlink="http://www.w3.org/1999/xlink">
  <g id="Layer_1" transform="translate(-0.0026, -0.0001)">
    <g transform="matrix(1.7497, 0, 0, 1.7497, 0, 0)">
      <g id="icon">
        <path d="M14.6276, 0L9.8856, 0C9.6661, 0 9.4592, 0.0582 9.2738, 0.1471C9.1658, 0.1679 9.0627, 0.2234 8.9791, 0.3068L0.1672, 9.0968C-0.0556, 9.3189 -0.0556, 9.6799 0.1672, 9.902L6.1172, 15.834C6.34, 16.0561 6.7012, 16.0563 6.924, 15.8342L15.7359, 7.0461C15.8012, 6.981 15.8252, 6.904 15.8522, 6.8222C15.9602, 6.6229 16.0001, 6.3949 16.0001, 6.1525L16.0001, 1.4251C16, 0.6457 15.4093, 0 14.6276, 0zM13.0459, 4.2726C12.3578, 4.2726 11.8, 3.7191 11.8, 3.0363C11.8, 2.3535 12.3578, 1.8 13.0459, 1.8C13.734, 1.8 14.2918, 2.3535 14.2918, 3.0363C14.2918, 3.7191 13.734, 4.2726 13.0459, 4.2726z" fill="#039C23" class="Green" fill-rule="evenodd" />
      </g>
    </g>
  </g>
</svg>