<?xml version='1.0' encoding='UTF-8'?>
<svg viewBox="-2 -5.2275 32 32" xmlns="http://www.w3.org/2000/svg" xmlns:xlink="http://www.w3.org/1999/xlink">
  <g id="Layer_1" transform="translate(-0.9925, -4.6862)">
    <g transform="matrix(0.9368, 0, 0, 0.9368, 0, 0)">
      <g id="icon">
        <path d="M1.54, 28C1.338, 28 1.161, 27.875 1.09, 27.682C1.019, 27.488 1.07, 27.275 1.222, 27.138L5.583, 23.157C5.671, 23.078 5.784, 23.034 5.901, 23.034L22.899, 23.067L27.278, 19.119C27.365, 19.042 27.476, 19 27.591, 19L30.341, 19C30.539, 19 30.714, 19.122 30.787, 19.31C30.86, 19.498 30.814, 19.709 30.67, 19.848L22.251, 27.866C22.161, 27.952 22.045, 28 21.922, 28L1.54, 28z" fill="#1177D7" fill-opacity="1" class="Blue" fill-rule="evenodd" />
      </g>
    </g>
  </g>
  <g id="Layer_1" transform="translate(-0.9925, -4.6862)">
    <g transform="matrix(0.9368, 0, 0, 0.9368, 0, 0)">
      <g id="icon">
        <path d="M1.564, 21C1.363, 21 1.188, 20.876 1.118, 20.684C1.048, 20.492 1.1, 20.28 1.251, 20.146L5.429, 16.221C5.515, 16.144 5.626, 16.101 5.741, 16.101L22.899, 16.068L27.277, 12.121C27.364, 12.044 27.475, 12.002 27.59, 12.002L30.315, 12.002C30.512, 12.002 30.686, 12.123 30.758, 12.311C30.83, 12.499 30.784, 12.709 30.641, 12.846L22.274, 20.87C22.185, 20.955 22.069, 21.002 21.948, 21.002L1.564, 21.002z" fill="#1177D7" fill-opacity="1" class="Blue" fill-rule="evenodd" />
      </g>
    </g>
  </g>
  <g id="Layer_1" transform="translate(-0.9925, -4.6862)">
    <g transform="matrix(0.9368, 0, 0, 0.9368, 0, 0)">
      <g id="icon">
        <path d="M1.565, 14C1.363, 14 1.187, 13.875 1.117, 13.68C1.047, 13.486 1.101, 13.274 1.255, 13.139L9.864, 5.117C9.95, 5.041 10.061, 5 10.174, 5L30.47, 5C30.673, 5 30.849, 5.126 30.919, 5.321C30.989, 5.516 30.934, 5.728 30.779, 5.862L22.087, 13.884C22.001, 13.959 21.891, 14 21.778, 14L1.565, 14z" fill="#1177D7" fill-opacity="1" class="Blue" fill-rule="evenodd" />
      </g>
    </g>
  </g>
  <g id="Layer_1" transform="translate(14, 10.7725)">
    <g id="icon">
      <polygon points="13.1,6.9 9.1,6.9 9.1,2.9 6.9,2.9 6.9,6.9 2.9,6.9 2.9,9.1 6.9,9.1 6.9,13.1 9.1,13.1 9.1,9.1 13.1,9.1" fill="#FFFFFF" fill-rule="evenodd" />
    </g>
  </g>
  <g id="Layer_1" transform="translate(14, 10.7725)">
    <g id="icon">
      <path d="M8, 0C3.5817, 0 0, 3.5817 0, 8C0, 12.4183 3.5817, 16 8, 16C12.4183, 16 16, 12.4183 16, 8C16, 3.5817 12.4183, 0 8, 0zM13, 8.5917C13, 8.8172 12.8172, 9 12.5917, 9L9, 9L9, 12.5917C9, 12.8172 8.8172, 13 8.5917, 13L7.4083, 13C7.1828, 13 7, 12.8172 7, 12.5917L7, 9L3.4083, 9C3.1828, 9 3, 8.8172 3, 8.5917L3, 7.4083C3, 7.1828 3.1828, 7 3.4083, 7L7, 7L7, 3.4083C7, 3.1828 7.1828, 3 7.4083, 3L8.5916, 3C8.8172, 3 9, 3.1828 9, 3.4083L9, 7L12.5917, 7C12.8172, 7 13, 7.1828 13, 7.4083L13, 8.5917z" fill="#039C23" class="Green" fill-rule="evenodd" />
    </g>
  </g>
</svg>