<?xml version='1.0' encoding='UTF-8'?>
<svg viewBox="-2 -2 32 32" xmlns="http://www.w3.org/2000/svg" xmlns:xlink="http://www.w3.org/1999/xlink">
  <g transform="translate(0, 0)">
    <g transform="matrix(0.875, 0, 0, 0.875, 0, 0)">
      <g transform="translate(0, 0)">
        <g transform="matrix(1.1429, 0, 0, 1.1429, 0, 0)">
          <g transform="translate(0, 0)">
            <g transform="translate(0, 0)">
              <g id="Layer_1" transform="translate(-1.9325, -1.9325)">
                <g transform="matrix(0.9655, 0, 0, 0.9655, 0, 0)">
                  <g id="icon">
                    <polyline points="2.5,2.5 2.5,30.5 29.5,30.5" fill="none" stroke="#000000" stroke-width="1px" stroke-linecap="round" stroke-linejoin="round" stroke-miterlimit="1" stroke-opacity="1" />
                  </g>
                </g>
              </g>
            </g>
          </g>
        </g>
      </g>
    </g>
  </g>
  <g transform="translate(0, 0)">
    <g transform="matrix(0.875, 0, 0, 0.875, 0, 0)">
      <g transform="translate(0, 0)">
        <g transform="matrix(1.1429, 0, 0, 1.1429, 0, 0)">
          <g transform="translate(0, 0)">
            <g transform="translate(0, 0)">
              <g id="Layer_1" transform="translate(-1.9325, -1.9325)">
                <g transform="matrix(0.9655, 0, 0, 0.9655, 0, 0)">
                  <g id="icon">
                    <polyline points="5.55,25.45 20.55,11.55 29.45,21.45" fill="none" stroke="#D04D2F" stroke-width="1.1px" stroke-linecap="round" stroke-linejoin="round" stroke-miterlimit="1" stroke-opacity="1" />
                  </g>
                </g>
              </g>
            </g>
          </g>
        </g>
      </g>
    </g>
  </g>
  <g transform="translate(0, 0)">
    <g transform="matrix(0.875, 0, 0, 0.875, 0, 0)">
      <g transform="translate(0, 0)">
        <g transform="matrix(1.1429, 0, 0, 1.1429, 0, 0)">
          <g transform="translate(0, 0)">
            <g transform="translate(0, 0)">
              <g id="Layer_1" transform="translate(-1.9325, -1.9325)">
                <g transform="matrix(0.9655, 0, 0, 0.9655, 0, 0)">
                  <g id="icon">
                    <polyline points="5.55,18.45 11.55,10.55 20.45,23.45 29.45,7.55" fill="none" stroke="#4DAE89" stroke-width="1.1px" stroke-linecap="round" stroke-linejoin="round" stroke-miterlimit="1" stroke-opacity="1" />
                  </g>
                </g>
              </g>
            </g>
          </g>
        </g>
      </g>
    </g>
  </g>
  <g transform="translate(0, 0)">
    <g transform="matrix(0.875, 0, 0, 0.875, 0, 0)">
      <g transform="translate(0, 0)">
        <g transform="matrix(1.1429, 0, 0, 1.1429, 0, 0)">
          <g transform="translate(0, 0)">
            <g transform="translate(0, 0)">
              <g id="Layer_1" transform="translate(-1.9325, -1.9325)">
                <g transform="matrix(0.9655, 0, 0, 0.9655, 0, 0)">
                  <g id="icon">
                    <path d="M13, 10.5C13, 11.328 12.328, 12 11.5, 12C10.672, 12 10, 11.328 10, 10.5C10, 9.672 10.672, 9 11.5, 9C12.328, 9 13, 9.672 13, 10.5zM20.5, 22C19.672, 22 19, 22.672 19, 23.5C19, 24.328 19.672, 25 20.5, 25C21.328, 25 22, 24.328 22, 23.5C22, 22.672 21.328, 22 20.5, 22zM29.5, 6C28.672, 6 28, 6.672 28, 7.5C28, 8.328 28.672, 9 29.5, 9C30.328, 9 31, 8.328 31, 7.5C31, 6.672 30.328, 6 29.5, 6zM5.5, 17C4.672, 17 4, 17.672 4, 18.5C4, 19.328 4.672, 20 5.5, 20C6.328, 20 7, 19.328 7, 18.5C7, 17.672 6.328, 17 5.5, 17z" fill="#039C23" fill-opacity="1" class="Green" />
                  </g>
                </g>
              </g>
            </g>
          </g>
        </g>
      </g>
    </g>
  </g>
  <g transform="translate(0, 0)">
    <g transform="matrix(0.875, 0, 0, 0.875, 0, 0)">
      <g transform="translate(0, 0)">
        <g transform="matrix(1.1429, 0, 0, 1.1429, 0, 0)">
          <g transform="translate(0, 0)">
            <g transform="translate(0, 0)">
              <g id="Layer_1" transform="translate(-1.9325, -1.9325)">
                <g transform="matrix(0.9655, 0, 0, 0.9655, 0, 0)">
                  <g id="icon">
                    <path d="M7, 25.5C7, 26.328 6.328, 27 5.5, 27C4.672, 27 4, 26.328 4, 25.5C4, 24.672 4.672, 24 5.5, 24C6.328, 24 7, 24.672 7, 25.5zM11.5, 18.4C10.672, 18.4 10, 19.072 10, 19.9C10, 20.728 10.672, 21.4 11.5, 21.4C12.328, 21.4 13, 20.728 13, 19.9C13, 19.072 12.328, 18.4 11.5, 18.4zM20.5, 10C19.672, 10 19, 10.672 19, 11.5C19, 12.328 19.672, 13 20.5, 13C21.328, 13 22, 12.328 22, 11.5C22, 10.672 21.328, 10 20.5, 10zM29.5, 20C28.672, 20 28, 20.672 28, 21.5C28, 22.328 28.672, 23 29.5, 23C30.328, 23 31, 22.328 31, 21.5C31, 20.672 30.328, 20 29.5, 20z" fill="#D11C1C" fill-opacity="1" class="Red" />
                  </g>
                </g>
              </g>
            </g>
          </g>
        </g>
      </g>
    </g>
  </g>
</svg>