<?xml version='1.0' encoding='UTF-8'?>
<svg viewBox="-2.0125 -2.0025 32 32" xmlns="http://www.w3.org/2000/svg" xmlns:xlink="http://www.w3.org/1999/xlink">
  <g id="Layer_1" transform="translate(-0.0016, -0.0024)">
    <g transform="matrix(1.7451, 0, 0, 1.7451, 0, 0)">
      <g id="icon">
        <path d="M6.7103, 11.4466L4.3389, 9.097C4.3201, 9.0782 4.2947, 9.1 4.2682, 9.1L3.1637, 9.1C3.0749, 9.1 3.0304, 9.1605 3.0932, 9.2233L4.9168, 11L3.4974, 11C2.1164, 11 1, 9.9096 1, 8.5286L1, 8.2378C1, 8.1277 0.9076, 8 0.7975, 8L0.1994, 8C0.0893, 8 0, 8.1277 0, 8.2378L0, 8.5286C0, 10.4196 1.501, 11.946 3.3764, 12.0099C3.3839, 12.0117 3.3917, 12 3.3998, 12L3.4974, 12L4.8935, 12L3.0699, 13.8267C3.0071, 13.8895 3.0516, 14 3.1404, 14L4.2456, 14C4.2721, 14 4.2975, 13.9993 4.3162, 13.9805L6.7103, 11.5823C6.749, 11.5435 6.749, 11.4855 6.7103, 11.4466z" fill="#1177D7" class="Blue" />
      </g>
    </g>
  </g>
  <g id="Layer_1" transform="translate(-0.0016, -0.0024)">
    <g transform="matrix(1.7451, 0, 0, 1.7451, 0, 0)">
      <g id="icon">
        <path d="M5.3117, 7C5.2098, 7 5.125, 6.9804 5.0596, 6.9214C5.0013, 6.8688 4.9575, 6.8332 4.9297, 6.7563L4.3728, 5.2L1.7318, 5.2L1.1711, 6.7607C1.1461, 6.8316 1.1024, 6.873 1.0413, 6.9288C0.9729, 6.9912 0.8895, 7 0.7931, 7L0, 7L2.5543, 0L3.5504, 0L6.1004, 7L5.3117, 7zM4.0717, 4.3L3.1396, 1.6458C3.1091, 1.5657 3.0789, 1.4725 3.0493, 1.3718C3.0204, 1.4775 2.9904, 1.5749 2.9598, 1.6542L2.0329, 4.3L4.0717, 4.3z" fill="#727272" class="Black" />
      </g>
    </g>
  </g>
  <g id="Layer_1" transform="translate(-0.0016, -0.0024)">
    <g transform="matrix(1.7451, 0, 0, 1.7451, 0, 0)">
      <g id="icon">
        <path d="M6, 7L6, 0L8.1343, 0C8.5237, 0 8.8655, 0.0428 9.1503, 0.1272C9.4394, 0.2129 9.6812, 0.3375 9.869, 0.4976C10.0586, 0.6593 10.2004, 0.8598 10.2906, 1.0936C10.3791, 1.3234 10.424, 1.5863 10.424, 1.8751C10.424, 2.051 10.3983, 2.2232 10.3477, 2.3867C10.2969, 2.5509 10.2195, 2.7056 10.1178, 2.8467C10.0159, 2.988 9.8858, 3.116 9.7309, 3.2271C9.6488, 3.286 9.5591, 3.3392 9.4624, 3.3863C9.801, 3.498 10.0692, 3.6651 10.2621, 3.8848C10.5071, 4.164 10.6313, 4.5334 10.6313, 4.9829C10.6313, 5.2815 10.5805, 5.559 10.4804, 5.8076C10.3795, 6.0581 10.2288, 6.2769 10.0326, 6.4578C9.8367, 6.6383 9.5939, 6.7686 9.311, 6.8656C9.0304, 6.9616 8.7071, 7 8.3502, 7L6, 7zM8.329, 6.1C8.5564, 6.1 8.7531, 6.0715 8.9136, 6.0149C9.0712, 5.9594 9.202, 5.8814 9.3026, 5.7832C9.4026, 5.6856 9.4773, 5.5663 9.5244, 5.4288C9.573, 5.2868 9.5976, 5.129 9.5976, 4.9597C9.5976, 4.6298 9.4965, 4.3742 9.2884, 4.1863C9.0813, 3.9988 8.757, 3.9 8.3248, 3.9L7, 3.9L7, 6.1L8.329, 6.1zM8.0999, 3C8.326, 3 8.5235, 2.9968 8.6867, 2.9433C8.8471, 2.8907 8.9814, 2.8298 9.0855, 2.7387C9.1876, 2.6494 9.2644, 2.5444 9.3137, 2.4147C9.3646, 2.281 9.3905, 2.1363 9.3905, 1.9787C9.3905, 1.6114 9.2905, 1.332 9.0931, 1.1651C8.8917, 0.995 8.5675, 0.9 8.1296, 0.9L7, 0.9L7, 3L8.0999, 3z" fill="#1177D7" class="Blue" />
      </g>
    </g>
  </g>
  <g id="Layer_1" transform="translate(-0.0016, -0.0024)">
    <g transform="matrix(1.7451, 0, 0, 1.7451, 0, 0)">
      <g id="icon">
        <path d="M11.2283, 16C11.1303, 16 11.0486, 15.9551 10.9855, 15.8973C10.9282, 15.8449 10.8851, 15.7677 10.8575, 15.6905L10.3107, 14.1L7.7103, 14.1L7.1598, 15.682C7.1351, 15.753 7.0921, 15.8348 7.032, 15.8905C6.966, 15.9517 6.8855, 16.0001 6.7929, 16.0001L6.0172, 16.0001L8.5258, 9.0001L9.4955, 9.0001L11.9998, 16.0001L11.2283, 16.0001zM10.0138, 13.2L9.1004, 10.5919C9.069, 10.5083 9.0379, 10.4249 9.0074, 10.3189C8.9779, 10.4298 8.9471, 10.5102 8.9155, 10.5932L8.0071, 13.2L10.0138, 13.2z" fill="#727272" class="Black" />
      </g>
    </g>
  </g>
  <g id="Layer_1" transform="translate(-0.0016, -0.0024)">
    <g transform="matrix(1.7451, 0, 0, 1.7451, 0, 0)">
      <g id="icon">
        <path d="M14.0135, 16.0428C13.6202, 16.0428 13.2584, 15.9549 12.9382, 15.7816C12.6175, 15.608 12.3403, 15.3601 12.1142, 15.0448C11.889, 14.7309 11.7116, 14.3506 11.5871, 13.9143C11.4629, 13.4797 11.4, 12.995 11.4, 12.4737C11.4, 11.9524 11.4674, 11.467 11.6003, 11.0309C11.7336, 10.5934 11.9229, 10.2126 12.163, 9.899C12.4036, 9.5848 12.6965, 9.337 13.0335, 9.1626C13.3701, 8.9884 13.7449, 8.9001 14.1473, 8.9001C14.5478, 8.9001 14.8994, 8.9818 15.1923, 9.1429C15.4832, 9.303 15.745, 9.5224 15.9704, 9.7951L16.0178, 9.8524L15.7454, 10.3409C15.7239, 10.3802 15.6982, 10.414 15.6693, 10.4406C15.6327, 10.4745 15.5843, 10.4911 15.5216, 10.4911C15.4736, 10.4911 15.424, 10.4706 15.3742, 10.4302C15.3371, 10.4001 15.2931, 10.3621 15.2424, 10.3161C15.1947, 10.273 15.138, 10.2261 15.074, 10.1769C15.0125, 10.1297 14.9376, 10.0851 14.8514, 10.0444C14.7644, 10.0034 14.6616, 9.9675 14.5461, 9.938C14.4315, 9.9087 14.2961, 9.8938 14.1438, 9.8938C13.8723, 9.8938 13.6213, 9.954 13.3978, 10.0728C13.1747, 10.1914 12.9799, 10.3627 12.8186, 10.5821C12.6566, 10.8026 12.5282, 11.0756 12.4369, 11.3933C12.3451, 11.7129 12.2986, 12.0764 12.2986, 12.4738C12.2986, 12.8834 12.3451, 13.2532 12.4369, 13.5729C12.5284, 13.8912 12.654, 14.1637 12.8104, 14.3829C12.9654, 14.6002 13.1515, 14.7673 13.3634, 14.8796C13.5759, 14.9922 13.8093, 15.0492 14.057, 15.0492C14.2111, 15.0492 14.3505, 15.038 14.4713, 15.0158C14.5901, 14.9939 14.7016, 14.9587 14.8026, 14.9112C14.9036, 14.8635 14.999, 14.8029 15.0862, 14.7308C15.1748, 14.6576 15.2657, 14.5681 15.3564, 14.4647C15.4133, 14.4008 15.4724, 14.3685 15.5324, 14.3685C15.593, 14.3685 15.6489, 14.398 15.6984, 14.4563L16.0302, 14.9142L15.9869, 14.9785C15.7633, 15.3108 15.4881, 15.574 15.1689, 15.7609C14.8491, 15.9479 14.4605, 16.0428 14.0135, 16.0428z" fill="#1177D7" class="Blue" />
      </g>
    </g>
  </g>
</svg>