<?xml version='1.0' encoding='UTF-8'?>
<svg viewBox="-2 -2 32 32" xmlns="http://www.w3.org/2000/svg" xmlns:xlink="http://www.w3.org/1999/xlink">
  <g id="Layer_1" transform="translate(-2, -2)">
    <g id="icon">
      <path d="M29.5643, 4.9879L26.7, 2.3446C26.4606, 2.123 26.1464, 2 26.2402, 2L4.1, 2C2.7522, 2 2, 2.7522 2, 3.68L2, 28.2901C2, 29.218 2.7522, 30 3.7, 30L28.34, 30C29.244, 30 30, 29.2141 30, 28.2901L30, 5.853C30, 5.5246 29.8054, 5.211 29.5643, 4.9879zM7, 3L25, 3L25, 11C25, 11.5523 24.5523, 12 24, 12L7.9365, 12C7.4193, 12 7, 11.5807 7, 11.0635L7, 3zM26, 28.2267C26, 28.6538 25.6538, 29 25.2267, 29L6.7933, 29C6.3662, 29 6, 28.6538 6, 28.2267L6, 17.7733C6, 17.3462 6.3662, 17 6.7933, 17L25.166, 17C25.6266, 17 26, 17.3734 26, 17.834L26, 28.2267z" fill="#727272" class="Black" />
    </g>
  </g>
  <g id="Layer_1" transform="translate(-2, -2)">
    <g id="icon">
      <path d="M24, 12L7.9365, 12C7.4193, 12 7, 11.5807 7, 11.0635L7, 3L25, 3L25, 11C25, 11.5523 24.5523, 12 24, 12z" fill="#FFFFFF" />
    </g>
  </g>
  <g id="Layer_1" transform="translate(-2, -2)">
    <g id="icon">
      <path d="M25.2267, 29L6.7933, 29C6.3662, 29 6.02, 28.6538 6.02, 28.2267L6.02, 17.7733C6.02, 17.3462 6.3662, 17 6.7933, 17L25.166, 17C25.6266, 17 26, 17.3734 26, 17.834L26, 28.2266C26, 28.6538 25.6538, 29 25.2267, 29z" fill="#FFFFFF" />
    </g>
  </g>
  <g id="Layer_1" transform="translate(-2, -2)">
    <g id="icon">
      <path d="M20.6932, 11L17.3067, 11C17.1373, 11 16.9999, 10.8627 16.9999, 10.6932L16.9999, 4.3068C16.9999, 4.1374 17.1372, 4 17.3067, 4L20.6932, 4C20.8626, 4 21, 4.1373 21, 4.3068L21, 10.6933C21, 10.8627 20.8627, 11 20.6932, 11z" fill="#727272" class="Black" />
    </g>
  </g>
  <g id="Layer_1" transform="translate(-2, -2)">
    <g id="icon">
      <path d="M9.5, 20.5L22.5, 20.5M9.5, 23.5L22.5, 23.5M9.5, 26.5L22.5, 26.5" fill="none" stroke="#FFFFFF" stroke-width="1px" stroke-linecap="round" stroke-miterlimit="1" />
    </g>
  </g>
  <g id="Layer_1" transform="translate(14, 14)">
    <g id="icon">
      <path d="M0.259, 15C0.151, 15 0.057, 14.93 0.018, 14.82C-0.02, 14.711 0.007, 14.591 0.088, 14.513L2.417, 12.069C2.464, 12.024 2.524, 12 2.587, 12L11.765, 12.019L13.83, 10.068C13.877, 10.024 13.937, 10 13.999, 10L15.665, 10C15.771, 10 15.865, 10.069 15.904, 10.175C15.943, 10.282 15.919, 10.401 15.841, 10.48L11.322, 14.924C11.274, 14.973 11.211, 15 11.145, 15L0.259, 15z" fill="#FFB115" fill-opacity="1" class="Yellow" fill-rule="evenodd" />
    </g>
  </g>
  <g id="Layer_1" transform="translate(14, 14)">
    <g id="icon">
      <path d="M0.259, 11C0.15, 11 0.056, 10.929 0.018, 10.819C-0.02, 10.709 0.008, 10.588 0.09, 10.511L2.352, 8.068C2.398, 8.024 2.458, 8 2.52, 8L11.8, 8L13.814, 6.067C13.86, 6.024 13.919, 6 13.98, 6L15.653, 6C15.759, 6 15.852, 6.069 15.891, 6.175C15.93, 6.281 15.905, 6.4 15.828, 6.478L11.336, 10.925C11.288, 10.973 11.226, 11 11.161, 11L0.259, 11z" fill="#FFB115" fill-opacity="1" class="Yellow" fill-rule="evenodd" />
    </g>
  </g>
  <g id="Layer_1" transform="translate(14, 14)">
    <g id="icon">
      <path d="M0.242, 7C0.133, 7 0.039, 6.929 0.001, 6.819C-0.037, 6.709 -0.008, 6.589 0.075, 6.513L4.696, 2.067C4.742, 2.024 4.802, 2.001 4.863, 2.001L15.757, 2.001C15.866, 2.001 15.96, 2.072 15.998, 2.183C16.035, 2.293 16.006, 2.414 15.923, 2.49L11.257, 6.936C11.211, 6.978 11.152, 7.002 11.091, 7.002L0.242, 7.002z" fill="#FFB115" fill-opacity="1" class="Yellow" fill-rule="evenodd" />
    </g>
  </g>
</svg>