<?xml version='1.0' encoding='UTF-8'?>
<svg viewBox="-2 -2 32 32" xmlns="http://www.w3.org/2000/svg" xmlns:xlink="http://www.w3.org/1999/xlink">
  <g id="Layer_1" transform="translate(-2, -2)">
    <g id="icon">
      <path d="M29.5643, 4.9879L26.7, 2.3446C26.4606, 2.123 26.1464, 2 26.2402, 2L4.1, 2C2.7522, 2 2, 2.7522 2, 3.68L2, 28.2901C2, 29.218 2.7522, 30 3.7, 30L28.34, 30C29.244, 30 30, 29.2141 30, 28.2901L30, 5.853C30, 5.5246 29.8054, 5.211 29.5643, 4.9879zM7, 3L25, 3L25, 11C25, 11.5523 24.5523, 12 24, 12L7.9365, 12C7.4193, 12 7, 11.5807 7, 11.0635L7, 3zM26, 28.2267C26, 28.6538 25.6538, 29 25.2267, 29L6.7933, 29C6.3662, 29 6, 28.6538 6, 28.2267L6, 17.7733C6, 17.3462 6.3662, 17 6.7933, 17L25.166, 17C25.6266, 17 26, 17.3734 26, 17.834L26, 28.2267z" fill="#727272" class="Black" />
    </g>
  </g>
  <g id="Layer_1" transform="translate(-2, -2)">
    <g id="icon">
      <path d="M24, 12L7.9365, 12C7.4193, 12 7, 11.5807 7, 11.0635L7, 3L25, 3L25, 11C25, 11.5523 24.5523, 12 24, 12z" fill="#FFFFFF" />
    </g>
  </g>
  <g id="Layer_1" transform="translate(-2, -2)">
    <g id="icon">
      <path d="M25.2267, 29L6.7933, 29C6.3662, 29 6.02, 28.6538 6.02, 28.2267L6.02, 17.7733C6.02, 17.3462 6.3662, 17 6.7933, 17L25.166, 17C25.6266, 17 26, 17.3734 26, 17.834L26, 28.2266C26, 28.6538 25.6538, 29 25.2267, 29z" fill="#FFFFFF" />
    </g>
  </g>
  <g id="Layer_1" transform="translate(-2, -2)">
    <g id="icon">
      <path d="M20.6932, 11L17.3067, 11C17.1373, 11 16.9999, 10.8627 16.9999, 10.6932L16.9999, 4.3068C16.9999, 4.1374 17.1372, 4 17.3067, 4L20.6932, 4C20.8626, 4 21, 4.1373 21, 4.3068L21, 10.6933C21, 10.8627 20.8627, 11 20.6932, 11z" fill="#727272" class="Black" />
    </g>
  </g>
  <g id="Layer_1" transform="translate(-2, -2)">
    <g id="icon">
      <path d="M9.5, 20.5L22.5, 20.5M9.5, 23.5L22.5, 23.5M9.5, 26.5L22.5, 26.5" fill="none" stroke="#FFFFFF" stroke-width="1px" stroke-linecap="round" stroke-miterlimit="1" />
    </g>
  </g>
  <g id="Layer_1" transform="translate(14, 14)">
    <g id="icon">
      <path d="M12.9917, 1L3.0083, 1C1.8992, 1 1, 1.8992 1, 3.0083L1, 12.9916C1, 14.1008 1.8992, 15 3.0083, 15L12.9916, 15C14.1008, 15 14.9999, 14.1008 14.9999, 12.9917L14.9999, 3.0083C15, 1.8992 14.1008, 1 12.9917, 1zM11.8323, 10.4724C11.969, 10.6091 11.969, 10.8307 11.8323, 10.9674L10.9673, 11.8324C10.8306, 11.9691 10.609, 11.9691 10.4723, 11.8324L8, 9.3599L5.5276, 11.8323C5.3909, 11.969 5.1693, 11.969 5.0326, 11.8323L4.1676, 10.9673C4.0309, 10.8306 4.0309, 10.609 4.1676, 10.4723L6.6401, 8L4.1677, 5.5276C4.031, 5.3909 4.031, 5.1693 4.1677, 5.0326L5.0327, 4.1676C5.1694, 4.0309 5.391, 4.0309 5.5277, 4.1676L8, 6.6401L10.4724, 4.1677C10.6091, 4.031 10.8307, 4.031 10.9674, 4.1677L11.8324, 5.0327C11.9691, 5.1694 11.9691, 5.391 11.8324, 5.5277L9.3599, 8L11.8323, 10.4724z" fill="#D11C1C" class="Red" fill-rule="evenodd" />
    </g>
  </g>
  <g id="Layer_1" transform="translate(14, 14)">
    <g id="icon">
      <path d="M10.4724, 4.1677L8, 6.6401L5.5276, 4.1677C5.3909, 4.031 5.1693, 4.031 5.0326, 4.1677L4.1676, 5.0327C4.0309, 5.1694 4.0309, 5.391 4.1676, 5.5277L6.6401, 8L4.1677, 10.4724C4.031, 10.6091 4.031, 10.8307 4.1677, 10.9674L5.0327, 11.8324C5.1694, 11.9691 5.391, 11.9691 5.5277, 11.8324L8, 9.3599L10.4724, 11.8323C10.6091, 11.969 10.8307, 11.969 10.9674, 11.8323L11.8324, 10.9673C11.9691, 10.8306 11.9691, 10.609 11.8324, 10.4723L9.3599, 8L11.8323, 5.5276C11.969, 5.3909 11.969, 5.1693 11.8323, 5.0326L10.9673, 4.1676C10.8307, 4.031 10.6091, 4.031 10.4724, 4.1677z" fill="#FFFFFF" fill-rule="evenodd" />
    </g>
  </g>
</svg>