<?xml version='1.0' encoding='UTF-8'?>
<svg viewBox="-2 -2 32 32" xmlns="http://www.w3.org/2000/svg" xmlns:xlink="http://www.w3.org/1999/xlink">
  <g id="Layer_1" transform="translate(-2, -2)">
    <g id="icon">
      <path d="M29.5643, 4.9879L26.7, 2.3446C26.4606, 2.123 26.1464, 2 26.2402, 2L4.1, 2C2.7522, 2 2, 2.7522 2, 3.68L2, 28.2901C2, 29.218 2.7522, 30 3.7, 30L28.34, 30C29.244, 30 30, 29.2141 30, 28.2901L30, 5.853C30, 5.5246 29.8054, 5.211 29.5643, 4.9879zM7, 3L25, 3L25, 11C25, 11.5523 24.5523, 12 24, 12L7.9365, 12C7.4193, 12 7, 11.5807 7, 11.0635L7, 3zM26, 28.2267C26, 28.6538 25.6538, 29 25.2267, 29L6.7933, 29C6.3662, 29 6, 28.6538 6, 28.2267L6, 17.7733C6, 17.3462 6.3662, 17 6.7933, 17L25.166, 17C25.6266, 17 26, 17.3734 26, 17.834L26, 28.2267z" fill="#727272" class="Black" />
    </g>
  </g>
  <g id="Layer_1" transform="translate(-2, -2)">
    <g id="icon">
      <path d="M24, 12L7.9365, 12C7.4193, 12 7, 11.5807 7, 11.0635L7, 3L25, 3L25, 11C25, 11.5523 24.5523, 12 24, 12z" fill="#FFFFFF" />
    </g>
  </g>
  <g id="Layer_1" transform="translate(-2, -2)">
    <g id="icon">
      <path d="M25.2267, 29L6.7933, 29C6.3662, 29 6.02, 28.6538 6.02, 28.2267L6.02, 17.7733C6.02, 17.3462 6.3662, 17 6.7933, 17L25.166, 17C25.6266, 17 26, 17.3734 26, 17.834L26, 28.2266C26, 28.6538 25.6538, 29 25.2267, 29z" fill="#FFFFFF" />
    </g>
  </g>
  <g id="Layer_1" transform="translate(-2, -2)">
    <g id="icon">
      <path d="M20.6932, 11L17.3067, 11C17.1373, 11 16.9999, 10.8627 16.9999, 10.6932L16.9999, 4.3068C16.9999, 4.1374 17.1372, 4 17.3067, 4L20.6932, 4C20.8626, 4 21, 4.1373 21, 4.3068L21, 10.6933C21, 10.8627 20.8627, 11 20.6932, 11z" fill="#727272" class="Black" />
    </g>
  </g>
  <g id="Layer_1" transform="translate(-2, -2)">
    <g id="icon">
      <path d="M9.5, 20.5L22.5, 20.5M9.5, 23.5L22.5, 23.5M9.5, 26.5L22.5, 26.5" fill="none" stroke="#FFFFFF" stroke-width="1px" stroke-linecap="round" stroke-miterlimit="1" />
    </g>
  </g>
</svg>