<?xml version='1.0' encoding='UTF-8'?>
<svg viewBox="-4.6275 -2.0025 32 32" xmlns="http://www.w3.org/2000/svg" xmlns:xlink="http://www.w3.org/1999/xlink">
  <g id="Layer_1" transform="translate(-3.5024, -0.0024)">
    <g transform="matrix(1.75, 0, 0, 1.75, 0, 0)">
      <g id="icon">
        <path d="M13.9, 15.5L3.1, 15.5C2.7686, 15.5 2.5, 15.2314 2.5, 14.9L2.5, 1.1C2.5, 0.7686 2.7686, 0.5 3.1, 0.5C3.1, 0.5 9.65, 0.5 10.1167, 0.5C10.5834, 0.5 10.8495, 0.6495 11.0415, 0.8414C11.2335, 1.0333 13.7585, 3.5584 14.0751, 3.875C14.3917, 4.1916 14.5001, 4.45 14.5001, 4.9166C14.5001, 5.3832 14.5, 14.9 14.5, 14.9C14.5, 15.2314 14.2314, 15.5 13.9, 15.5z" fill="#FFFFFF" fill-rule="evenodd" />
      </g>
    </g>
  </g>
  <g id="Layer_1" transform="translate(-3.5024, -0.0024)">
    <g transform="matrix(1.75, 0, 0, 1.75, 0, 0)">
      <g id="icon">
        <path d="M14.4286, 3.5215L11.395, 0.4878C11.0667, 0.1596 10.6485, 0 10.1167, 0L3.1, 0C2.4935, 0 2, 0.4935 2, 1.1L2, 14.9C2, 15.5065 2.4935, 16 3.1, 16L13.9, 16C14.5065, 16 15, 15.5065 15, 14.9L15, 4.9167C15, 4.3239 14.8398, 3.9327 14.4286, 3.5215zM11, 1.5071L13.4929, 4L11.0454, 4C11.0297, 3.9909 11.0117, 3.9768 11, 3.9646L11, 1.5071zM13.9, 15L3.1, 15C3.0449, 15 3, 14.9551 3, 14.9L3, 1.1C3, 1.0449 3.0449, 1 3.1, 1L10, 1L10, 4C10, 4.473 10.399, 4.8674 10.7976, 4.9725C10.8489, 4.9903 10.9041, 5 10.9615, 5L14, 5L14, 14.9C14, 14.9551 13.9551, 15 13.9, 15z" fill="#727272" class="Black" />
      </g>
    </g>
  </g>
  <g id="Layer_1" transform="translate(-3.5024, -0.0024)">
    <g transform="matrix(1.75, 0, 0, 1.75, 0, 0)">
      <g id="icon">
        <path d="M8.5, 4L4.5, 4C4.2239, 4 4, 3.7761 4, 3.5C4, 3.2239 4.2239, 3 4.5, 3L8.5, 3C8.7761, 3 9, 3.2239 9, 3.5C9, 3.7761 8.7761, 4 8.5, 4zM9, 5.5C9, 5.2239 8.7761, 5 8.5, 5L4.5, 5C4.2239, 5 4, 5.2239 4, 5.5C4, 5.7761 4.2239, 6 4.5, 6L8.5, 6C8.7761, 6 9, 5.7761 9, 5.5zM13, 7.5C13, 7.2239 12.7761, 7 12.5, 7L4.5, 7C4.2239, 7 4, 7.2239 4, 7.5C4, 7.7761 4.2239, 8 4.5, 8L12.5, 8C12.7761, 8 13, 7.7761 13, 7.5zM13, 9.5C13, 9.2239 12.7761, 9 12.5, 9L4.5, 9C4.2239, 9 4, 9.2239 4, 9.5C4, 9.7761 4.2239, 10 4.5, 10L12.5, 10C12.7761, 10 13, 9.7761 13, 9.5z" fill="#FFFFFF" class="White" />
      </g>
    </g>
  </g>
  <g id="Layer_1" transform="translate(-3.5024, -0.0024)">
    <g transform="matrix(1.75, 0, 0, 1.75, 0, 0)">
      <g id="icon">
        <rect x="4" y="11" width="9" height="3" rx="0" ry="0" fill="#1177D7" class="Blue" />
      </g>
    </g>
  </g>
</svg>