<?xml version='1.0' encoding='UTF-8'?>
<svg viewBox="-2.04 -2.0025 32 32" xmlns="http://www.w3.org/2000/svg" xmlns:xlink="http://www.w3.org/1999/xlink">
  <g id="Layer_1" transform="translate(-0.0312, -0.0331)">
    <g transform="matrix(1.7538, 0, 0, 1.7538, 0, 0)">
      <g id="icon">
        <path d="M15.932, 10.004C15.887, 8.939 15.591, 7.827 15.025, 6.912C13.897, 5.088 11.904, 3.79 9.741, 3.484C8.786, 3.349 7.848, 3.363 6.908, 3.582C6.415, 3.697 5.922, 3.811 5.433, 3.94C4.957, 4.065 4.627, 3.848 4.235, 3.614C3.76, 3.33 3.237, 3.105 2.697, 2.968C2.148, 2.828 2.268, 3.589 2.482, 3.883C2.679, 4.154 3.098, 4.546 3.165, 4.875C3.245, 5.266 2.729, 5.548 2.502, 5.796C2.228, 6.096 2.055, 6.425 1.868, 6.778C1.669, 7.154 1.413, 7.447 0.96, 7.497C0.493, 7.549 0.226, 7.652 0.1, 8.147C-0.036, 8.678 0.034, 9.364 0.04, 9.907C0.044, 10.288 0.023, 10.716 0.178, 11.075C0.445, 11.693 1.436, 11.489 1.955, 11.857C2.384, 12.161 2.741, 12.554 3.116, 12.917C3.374, 13.167 3.769, 13.363 3.984, 13.644C4.362, 14.138 3.764, 15.66 4.376, 15.892C4.816, 16.059 5.561, 15.921 6.031, 15.919C6.423, 15.917 6.686, 15.88 6.838, 15.49C6.951, 15.199 6.964, 14.808 7.358, 14.758C7.766, 14.706 8.238, 14.81 8.652, 14.813C9.137, 14.816 9.638, 14.736 10.114, 14.652C10.571, 14.571 10.505, 15.115 10.487, 15.379C10.426, 16.258 11.912, 15.921 12.515, 15.919C13.155, 15.917 13.429, 15.77 13.821, 15.272C14.095, 14.924 14.367, 14.574 14.604, 14.201C15.071, 13.467 15.474, 12.719 15.715, 11.884C15.882, 11.266 15.954, 10.534 15.932, 10.004zM4.446, 8.221C4.099, 8.221 3.817, 7.945 3.817, 7.606C3.817, 7.267 4.099, 6.991 4.446, 6.991C4.793, 6.991 5.075, 7.267 5.075, 7.606C5.075, 7.945 4.793, 8.221 4.446, 8.221zM11.675, 5.753C11.551, 6 11.251, 6.099 11.004, 5.976C9.956, 5.45 7.75, 5.341 6.366, 5.983C6.298, 6.015 6.226, 6.029 6.156, 6.029C5.967, 6.029 5.787, 5.922 5.702, 5.739C5.586, 5.488 5.695, 5.191 5.945, 5.075C7.493, 4.358 10.015, 4.361 11.452, 5.082C11.7, 5.206 11.799, 5.506 11.675, 5.753z" fill="#E8A0C7" style="fill:#EB83BA" />
      </g>
    </g>
  </g>
  <g id="Layer_1" transform="translate(-0.0312, -0.0331)">
    <g transform="matrix(1.7538, 0, 0, 1.7538, 0, 0)">
      <g id="icon">
        <path d="M5.075, 7.606C5.075, 7.946 4.793, 8.221 4.446, 8.221C4.099, 8.221 3.817, 7.945 3.817, 7.606C3.817, 7.266 4.099, 6.991 4.446, 6.991C4.793, 6.99 5.075, 7.266 5.075, 7.606zM6.366, 5.982C7.75, 5.341 9.956, 5.45 11.004, 5.975C11.251, 6.099 11.551, 5.999 11.675, 5.752C11.799, 5.505 11.699, 5.205 11.452, 5.081C10.015, 4.36 7.493, 4.357 5.945, 5.074C5.694, 5.19 5.585, 5.487 5.702, 5.738C5.787, 5.92 5.967, 6.028 6.156, 6.028C6.227, 6.029 6.298, 6.014 6.366, 5.982z" fill="#727272" class="Black" />
      </g>
    </g>
  </g>
  <g id="Layer_1" transform="translate(-0.0312, -0.0331)">
    <g transform="matrix(1.7538, 0, 0, 1.7538, 0, 0)">
      <g id="icon">
        <g>
          <path d="M6.887, 5.257C7.458, 5.106 8.084, 5.022 8.741, 5.022C9.314, 5.022 9.864, 5.086 10.375, 5.203C10.469, 5.13 10.559, 5.051 10.646, 4.965C11.778, 3.833 11.778, 1.998 10.646, 0.866C9.514, -0.266 7.679, -0.266 6.547, 0.866C5.415, 1.998 5.415, 3.833 6.547, 4.965C6.654, 5.072 6.768, 5.17 6.887, 5.257z" fill="#FFB115" class="Yellow" />
        </g>
      </g>
    </g>
  </g>
  <g id="Layer_1" transform="translate(-0.0312, -0.0331)">
    <g transform="matrix(1.7538, 0, 0, 1.7538, 0, 0)">
      <g id="icon">
        <g>
          <path d="M7.394, 5.144C7.518, 5.121 7.643, 5.101 7.77, 5.084C6.896, 4.751 6.275, 3.906 6.275, 2.915C6.275, 1.633 7.314, 0.594 8.596, 0.594C9.878, 0.594 10.917, 1.633 10.917, 2.915C10.917, 3.881 10.327, 4.709 9.487, 5.058C9.614, 5.071 9.74, 5.087 9.864, 5.106C10.619, 4.668 11.128, 3.851 11.128, 2.915C11.128, 1.517 9.994, 0.383 8.596, 0.383C7.198, 0.383 6.063, 1.517 6.063, 2.915C6.063, 3.879 6.602, 4.716 7.394, 5.144z" fill="#727272" opacity="0.2" class="Black" />
        </g>
      </g>
    </g>
  </g>
</svg>