<?xml version='1.0' encoding='UTF-8'?>
<svg viewBox="-0.995 -1.06 32 32" xmlns="http://www.w3.org/2000/svg" xmlns:xlink="http://www.w3.org/1999/xlink">
  <g transform="translate(0, 0.0018)">
    <g transform="matrix(1.0717, 0, 0, 1.0717, 0, 0)">
      <g transform="translate(0, -0.0018)">
        <g transform="matrix(0.9331, 0, 0, 0.9331, 0, 0)">
          <g transform="translate(0, -0.0006)">
            <g transform="matrix(0.9377, 0, 0, 0.9377, 0, 0)">
              <g transform="translate(0, 0.0026)">
                <g transform="matrix(1.1429, 0, 0, 1.1429, 0, 0)">
                  <g id="Layer_1" transform="translate(-0.9284, -0.9921)">
                    <g transform="matrix(0.9331, 0, 0, 0.9331, 0, 0)">
                      <g id="icon">
                        <path d="M9.693, 25.135L4.474, 30.354C4.251, 30.577 3.919, 30.557 3.705, 30.343L1.665, 28.303C1.451, 28.089 1.423, 27.748 1.646, 27.526L6.865, 22.307L9.693, 25.135zM23.425, 5.746L18.207, 10.964L21.035, 13.792L26.253, 8.574C26.476, 8.351 26.456, 8.018 26.243, 7.805L24.203, 5.765C23.989, 5.551 23.648, 5.524 23.425, 5.746z" fill="#FFFFFF" />
                      </g>
                    </g>
                  </g>
                </g>
              </g>
            </g>
          </g>
        </g>
      </g>
    </g>
  </g>
  <g transform="translate(0, 0.0018)">
    <g transform="matrix(1.0717, 0, 0, 1.0717, 0, 0)">
      <g transform="translate(0, -0.0018)">
        <g transform="matrix(0.9331, 0, 0, 0.9331, 0, 0)">
          <g transform="translate(0, -0.0006)">
            <g transform="matrix(0.9377, 0, 0, 0.9377, 0, 0)">
              <g transform="translate(0, 0.0026)">
                <g transform="matrix(1.1429, 0, 0, 1.1429, 0, 0)">
                  <g id="Layer_1" transform="translate(-0.9284, -0.9921)">
                    <g transform="matrix(0.9331, 0, 0, 0.9331, 0, 0)">
                      <g id="icon">
                        <path d="M26.597, 7.452L24.557, 5.412C24.362, 5.217 24.107, 5.104 23.839, 5.093C23.55, 5.081 23.278, 5.188 23.073, 5.393L18.208, 10.258L17.501, 10.965L6.865, 21.6L6.158, 22.307L1.293, 27.172C1.087, 27.378 0.981, 27.65 0.993, 27.939C1.004, 28.207 1.118, 28.462 1.312, 28.657L3.352, 30.697C3.548, 30.893 3.804, 31.005 4.073, 31.012C4.083, 31.012 4.092, 31.012 4.102, 31.012C4.374, 31.012 4.631, 30.904 4.828, 30.707L10.4, 25.135L10.4, 25.135L21.035, 14.5L21.035, 14.5L26.607, 8.928C26.811, 8.724 26.919, 8.456 26.912, 8.173C26.904, 7.904 26.792, 7.648 26.597, 7.452zM4.121, 30C4.113, 30.008 4.095, 30.025 4.059, 29.989L2.019, 27.949C2, 27.93 1.992, 27.909 1.992, 27.896C1.992, 27.89 1.992, 27.887 2, 27.879L6.865, 23.014L8.986, 25.135L4.121, 30zM25.9, 8.221L21.035, 13.086L18.914, 10.965L23.779, 6.1C23.804, 6.075 23.849, 6.118 23.849, 6.119L25.89, 8.159C25.926, 8.196 25.908, 8.213 25.9, 8.221z" fill="#727272" class="Black" />
                      </g>
                    </g>
                  </g>
                </g>
              </g>
            </g>
          </g>
        </g>
      </g>
    </g>
  </g>
  <g transform="translate(0, 0.0018)">
    <g transform="matrix(1.0717, 0, 0, 1.0717, 0, 0)">
      <g transform="translate(0, -0.0018)">
        <g transform="matrix(0.9331, 0, 0, 0.9331, 0, 0)">
          <g transform="translate(0, -0.0006)">
            <g transform="matrix(0.9377, 0, 0, 0.9377, 0, 0)">
              <g transform="translate(0, 0.0026)">
                <g transform="matrix(1.1429, 0, 0, 1.1429, 0, 0)">
                  <g id="Layer_1" transform="translate(-0.9284, -0.9921)">
                    <g transform="matrix(0.9331, 0, 0, 0.9331, 0, 0)">
                      <g id="icon">
                        <path d="M14.587, 2.583L16.623, 1.513C16.738, 1.453 16.872, 1.55 16.85, 1.678L16.461, 3.945C16.452, 3.996 16.469, 4.047 16.506, 4.083L18.153, 5.688C18.246, 5.778 18.195, 5.936 18.066, 5.954L15.79, 6.285C15.739, 6.292 15.695, 6.324 15.672, 6.37L14.654, 8.433C14.597, 8.549 14.431, 8.549 14.374, 8.433L13.356, 6.37C13.333, 6.324 13.289, 6.292 13.238, 6.285L10.962, 5.954C10.834, 5.935 10.783, 5.778 10.875, 5.688L12.522, 4.083C12.559, 4.047 12.576, 3.995 12.567, 3.945L12.178, 1.678C12.156, 1.55 12.29, 1.453 12.405, 1.513L14.441, 2.583C14.487, 2.607 14.541, 2.607 14.587, 2.583zM28.868, 13.094L27.755, 11.563C27.692, 11.477 27.558, 11.494 27.528, 11.592L26.989, 13.33C26.977, 13.369 26.946, 13.399 26.905, 13.41L25.104, 13.904C25.003, 13.932 24.983, 14.062 25.071, 14.124L26.631, 15.229C26.666, 15.254 26.687, 15.293 26.687, 15.334L26.687, 17.17C26.687, 17.273 26.809, 17.337 26.894, 17.277L28.397, 16.222C28.431, 16.198 28.475, 16.193 28.515, 16.207L30.316, 16.848C30.417, 16.884 30.513, 16.793 30.477, 16.694L29.846, 14.937C29.832, 14.898 29.838, 14.855 29.863, 14.823L30.976, 13.383C31.039, 13.302 30.975, 13.182 30.869, 13.181L28.976, 13.15C28.933, 13.149 28.892, 13.128 28.868, 13.094zM28.376, 2.304L27.549, 1.102C27.502, 1.034 27.399, 1.051 27.373, 1.129L26.922, 2.531C26.912, 2.562 26.887, 2.587 26.856, 2.596L25.457, 3.028C25.378, 3.052 25.36, 3.157 25.427, 3.205L26.607, 4.057C26.633, 4.076 26.649, 4.107 26.648, 4.14L26.611, 5.609C26.609, 5.692 26.702, 5.74 26.768, 5.691L27.948, 4.816C27.974, 4.796 28.009, 4.791 28.039, 4.802L29.414, 5.278C29.491, 5.305 29.567, 5.23 29.541, 5.152L29.09, 3.759C29.08, 3.728 29.086, 3.694 29.106, 3.667L29.994, 2.492C30.044, 2.426 29.998, 2.331 29.915, 2.332L28.456, 2.346C28.425, 2.347 28.394, 2.331 28.376, 2.304z" fill="#FFB115" class="Yellow" />
                      </g>
                    </g>
                  </g>
                </g>
              </g>
            </g>
          </g>
        </g>
      </g>
    </g>
  </g>
</svg>