<?xml version='1.0' encoding='UTF-8'?>
<svg viewBox="-2 -2.4725 32 32" xmlns="http://www.w3.org/2000/svg" xmlns:xlink="http://www.w3.org/1999/xlink">
  <g id="Layer_1" transform="translate(-0.935, -0.935)">
    <g transform="matrix(0.9333, 0, 0, 0.9333, 0, 0)">
      <g id="icon">
        <path d="M16, 1C7.7157, 1 1, 6.8203 1, 14C1, 17.8436 2.9246, 21.2976 5.9843, 23.6776C6.9852, 24.4562 4.6396, 29.4604 5.1238, 29.9446C5.6079, 30.4287 13, 26.8 13.961, 26.8809C14.6278, 26.9594 15.3084, 27 16, 27C24.2843, 27 31, 21.1797 31, 14C31, 6.8203 24.2843, 1 16, 1zM9, 16C7.8954, 16 7, 15.1046 7, 14C7, 12.8954 7.8954, 12 9, 12C10.1046, 12 11, 12.8954 11, 14C11, 15.1046 10.1046, 16 9, 16zM16, 16C14.8954, 16 14, 15.1046 14, 14C14, 12.8954 14.8954, 12 16, 12C17.1046, 12 18, 12.8954 18, 14C18, 15.1046 17.1046, 16 16, 16zM23, 16C21.8954, 16 21, 15.1046 21, 14C21, 12.8954 21.8954, 12 23, 12C24.1046, 12 25, 12.8954 25, 14C25, 15.1046 24.1046, 16 23, 16z" fill="#039C23" fill-opacity="1" class="Green" />
      </g>
    </g>
  </g>
</svg>