<?xml version='1.0' encoding='UTF-8'?>
<svg viewBox="0 -2.015 32 32" xmlns="http://www.w3.org/2000/svg" xmlns:xlink="http://www.w3.org/1999/xlink">
  <g id="Layer_1" transform="translate(4, -0.0193)">
    <g transform="matrix(1.7503, 0, 0, 1.7503, 0, 0)">
      <g id="icon">
        <path d="M7, 0.2755L7, 5L0.2654, 5C0.1188, 5 0, 5.12 0, 5.2681L0, 10.7319C0, 10.88 0.1188, 11 0.2654, 11L7, 11L7, 15.7245C7, 15.9553 7.2715, 16.0776 7.4429, 15.924L15.9073, 8.1995C16.0259, 8.0932 16.0259, 7.9068 15.9073, 7.8005L7.4429, 0.076C7.2715, -0.0776 7, 0.0447 7, 0.2755z" fill="#039C23" class="Green" />
      </g>
    </g>
  </g>
  <g id="Layer_1" transform="translate(0, 13.985)" style="enable-background:new 0 0 16 16">
    <g id="User">
      <path d="M4, 4.9C3.9, 5.3 4.1, 5.5 4.3, 5.8C4.5, 6.1 4.2, 6.8 4.9, 6.8C4.9, 6.8 4.9, 6.9 4.9, 6.9C5.3, 8.4 6.2, 10 8, 10C9.8, 10 10.8, 8.4 11.2, 6.9C11.2, 6.9 11.2, 6.8 11.2, 6.8C11.9, 6.8 11.6, 6.1 11.8, 5.8C12, 5.5 12.1, 5.3 12, 4.9C11.9, 4.6 11.7, 4.7 11.6, 4.7C12.8, 1.6 10.9, 1.8 10.9, 1.8C10.9, 1.8 10.7, 0 7.2, 0C4, 0 3.6, 2.5 4.3, 4.7C4.3, 4.8 4.1, 4.8 4, 4.9z" fill="#727272" class="Black" />
    </g>
  </g>
  <g id="Layer_1" transform="translate(0, 13.985)" style="enable-background:new 0 0 16 16">
    <g id="User">
      <path d="M10.7, 10C10.2, 10.9 9.3, 12 8, 12C6.7, 12 5.9, 10.9 5.3, 10C3.8, 12.1 0, 10.6 0, 15.1L0, 16L16, 16L16, 15.1C16, 10.6 12.2, 12.1 10.7, 10z" fill="#727272" class="Black" />
    </g>
  </g>
</svg>