<?xml version='1.0' encoding='UTF-8'?>
<svg viewBox="-2.935 -2 32 32" xmlns="http://www.w3.org/2000/svg" xmlns:xlink="http://www.w3.org/1999/xlink">
  <g id="Layer_1" transform="translate(-1.8683, -0.9333)">
    <g transform="matrix(0.9333, 0, 0, 0.9333, 0, 0)">
      <g id="icon">
        <path d="M9, 24.4L9, 4.5L7.1848, 4.5C6.7015, 4.5 6.5, 4.6973 6.5, 5.1848L6.5, 26.8152C6.5, 27.3027 6.7015, 27.5 7.1848, 27.5L24.8152, 27.5C25.2985, 27.5 25.5, 27.3027 25.5, 26.8152C25.5, 26.8152 25.5, 26.5159 25.5, 26L10.6, 26C9.7163, 26 9, 25.2837 9, 24.4z" fill="#039C23" class="Green" fill-rule="evenodd" />
      </g>
    </g>
  </g>
  <g id="Layer_1" transform="translate(-1.8683, -0.9333)">
    <g transform="matrix(0.9333, 0, 0, 0.9333, 0, 0)">
      <g id="icon">
        <path d="M25.5, 26.2C25.5, 26.7162 25.5, 26.8152 25.5, 26.8152C25.5, 27.3027 25.2985, 27.5 24.8152, 27.5L7.1848, 27.5C6.7016, 27.5 6.5, 27.3027 6.5, 26.8152L6.5, 5.1848C6.5, 4.6973 6.7015, 4.5 7.1848, 4.5C7.1848, 4.5 7.7078, 4.5 8.8, 4.5" fill="none" stroke="#000000" stroke-width="1px" stroke-linecap="round" stroke-miterlimit="1" fill-rule="evenodd" />
      </g>
    </g>
  </g>
  <g id="Layer_1" transform="translate(-1.8683, -0.9333)">
    <g transform="matrix(0.9333, 0, 0, 0.9333, 0, 0)">
      <g id="icon">
        <path d="M5, 27.4L5, 7.5L3.1848, 7.5C2.7015, 7.5 2.5, 7.6973 2.5, 8.1848L2.5, 29.8152C2.5, 30.3027 2.7015, 30.5 3.1848, 30.5L20.8152, 30.5C21.2985, 30.5 21.5, 30.3027 21.5, 29.8152C21.5, 29.8152 21.5, 29.5159 21.5, 29L6.6, 29C5.7163, 29 5, 28.2837 5, 27.4z" fill="#D11C1C" class="Red" fill-rule="evenodd" />
      </g>
    </g>
  </g>
  <g id="Layer_1" transform="translate(-1.8683, -0.9333)">
    <g transform="matrix(0.9333, 0, 0, 0.9333, 0, 0)">
      <g id="icon">
        <path d="M21.5, 29.2C21.5, 29.7162 21.5, 29.8152 21.5, 29.8152C21.5, 30.3027 21.2985, 30.5 20.8152, 30.5L3.1848, 30.5C2.7016, 30.5 2.5, 30.3027 2.5, 29.8152L2.5, 8.1848C2.5, 7.6973 2.7015, 7.5 3.1848, 7.5C3.1848, 7.5 3.7078, 7.5 4.8, 7.5" fill="none" stroke="#000000" stroke-width="1px" stroke-linecap="round" stroke-miterlimit="1" fill-rule="evenodd" />
      </g>
    </g>
  </g>
  <g id="Layer_1" transform="translate(-1.8683, -0.9333)">
    <g transform="matrix(0.9333, 0, 0, 0.9333, 0, 0)">
      <g id="icon">
        <path d="M28.8152, 24.5L11.1848, 24.5C10.7016, 24.5 10.5, 24.3027 10.5, 23.8152L10.5, 2.1848C10.5, 1.6973 10.7015, 1.5 11.1848, 1.5C11.1848, 1.5 23.0802, 1.5 23.2609, 1.5C23.4416, 1.5 23.679, 1.5377 23.9455, 1.8042C24.1732, 2.0319 28.0669, 5.9256 29.1956, 7.0543C29.3879, 7.2466 29.5, 7.4728 29.5, 7.8152C29.5, 8.0529 29.5, 23.8152 29.5, 23.8152C29.5, 24.3027 29.2985, 24.5 28.8152, 24.5z" fill="#1177D7" class="Blue" stroke="#000000" stroke-width="1px" stroke-miterlimit="1" fill-rule="evenodd" />
      </g>
    </g>
  </g>
  <g id="Layer_1" transform="translate(-1.8683, -0.9333)">
    <g transform="matrix(0.9333, 0, 0, 0.9333, 0, 0)">
      <g id="icon">
        <path d="M23.5, 1.8L23.5, 6.7C23.5, 7.1418 23.8582, 7.5 24.3, 7.5L29.4, 7.5" fill="none" stroke="#000000" stroke-width="1px" stroke-miterlimit="1" fill-rule="evenodd" />
      </g>
    </g>
  </g>
  <g id="Layer_1" transform="translate(13.065, 14)">
    <g id="icon">
      <path d="M15.8261, 13.9626L9.0903, 1.6653C8.6058, 0.7815 7.4105, 0.7767 6.926, 1.6604L0.1902, 13.9651C-0.2996, 14.8586 0.3033, 16 1.2723, 16L14.7439, 16C15.7129, 16 16.3159, 14.8562 15.8261, 13.9626zM9, 13.6C9, 13.82 8.82, 14 8.6, 14L7.4, 14C7.18, 14 7, 13.82 7, 13.6L7, 12.4C7, 12.18 7.18, 12 7.4, 12L8.6, 12C8.82, 12 9, 12.18 9, 12.4L9, 13.6zM9, 10.6C9, 10.82 8.82, 11 8.6, 11L7.4, 11C7.18, 11 7, 10.82 7, 10.6L7, 5.4C7, 5.18 7.18, 5 7.4, 5L8.6, 5C8.82, 5 9, 5.18 9, 5.4L9, 10.6z" fill="#FFB115" class="Yellow" />
    </g>
  </g>
  <g id="Layer_1" transform="translate(13.065, 14)">
    <g id="icon">
      <path d="M8.6, 11L7.4, 11C7.18, 11 7, 10.82 7, 10.6L7, 5.4C7, 5.18 7.18, 5 7.4, 5L8.6, 5C8.82, 5 9, 5.18 9, 5.4L9, 10.6C9, 10.82 8.82, 11 8.6, 11zM9, 13.6L9, 12.4C9, 12.18 8.82, 12 8.6, 12L7.4, 12C7.18, 12 7, 12.18 7, 12.4L7, 13.6C7, 13.82 7.18, 14 7.4, 14L8.6, 14C8.82, 14 9, 13.82 9, 13.6z" fill="#FFFFFF" class="White" />
    </g>
  </g>
</svg>