<?xml version='1.0' encoding='UTF-8'?>
<svg viewBox="-2.12 -2 32 32" xmlns="http://www.w3.org/2000/svg" xmlns:xlink="http://www.w3.org/1999/xlink">
  <g id="Layer_1" transform="translate(-0.9959, -0.8793)">
    <g transform="matrix(0.9305, 0, 0, 0.9305, 0, 0)">
      <g id="icon">
        <g>
          <g>
            <path d="M30.6578, 23.0556C28.5083, 20.8113 24.8799, 15.9475 24.8799, 12.1968C24.8799, 8.653 22.4426, 5.6313 19.0209, 4.4625C19.0501, 4.2943 19.0663, 4.1217 19.0663, 3.9452C19.0663, 2.288 17.7229, 0.9446 16.0657, 0.9446C14.4085, 0.9446 13.065, 2.2879 13.065, 3.9451C13.065, 4.0819 13.075, 4.2164 13.0928, 4.3484C9.4847, 5.4237 6.8763, 8.5307 6.8763, 12.1968C6.8763, 17.4479 3.2961, 20.6487 1.2872, 23.1497C-0.74, 25.1892 11.889, 26.0926 15.9718, 26.0926C20.0546, 26.0926 32.8073, 25.2999 30.6578, 23.0556z" fill="#039C23" class="Green" fill-rule="evenodd" />
          </g>
        </g>
      </g>
    </g>
  </g>
  <g id="Layer_1" transform="translate(-0.9959, -0.8793)">
    <g transform="matrix(0.9305, 0, 0, 0.9305, 0, 0)">
      <g id="icon">
        <path d="M20.7362, 26.9267C20.7362, 29.4125 18.5895, 31.0327 16.1037, 31.0327C13.6179, 31.0327 11.537, 29.4124 11.537, 26.9267C15.1445, 27.2575 16.9214, 27.2575 20.7362, 26.9267z" fill="#727272" class="Black" fill-rule="evenodd" />
      </g>
    </g>
  </g>
</svg>