<?xml version='1.0' encoding='UTF-8'?>
<svg viewBox="-2 -8.605 32 32" xmlns="http://www.w3.org/2000/svg" xmlns:xlink="http://www.w3.org/1999/xlink">
  <g id="Layer_1" transform="translate(-3.0462, -10.1687)">
    <g transform="matrix(1.0146, 0, 0, 1.0146, 0, 0)">
      <g id="icon">
        <path d="M7.3682, 15.1201C6.7105, 14.8851 6.2201, 14.6704 5.9106, 14.4817C5.6346, 14.3136 5.4405, 14.1344 5.3335, 13.9489C5.2281, 13.7665 5.1746, 13.5164 5.1746, 13.2057C5.1746, 12.8073 5.3081, 12.52 5.5947, 12.3013C5.905, 12.0644 6.3598, 11.9443 6.9466, 11.9443C7.7472, 11.9443 8.5865, 12.1262 9.4413, 12.4851C9.5381, 12.5256 9.6474, 12.5247 9.7437, 12.4825C9.8398, 12.4401 9.9144, 12.3601 9.9498, 12.2612L10.3477, 11.15C10.4156, 10.9605 10.3251, 10.7507 10.1407, 10.6701C9.1802, 10.2503 8.1156, 10.0374 6.9766, 10.0374C5.8474, 10.0374 4.919, 10.3177 4.2171, 10.8702C3.4875, 11.4448 3.1176, 12.2255 3.1176, 13.1907C3.1176, 14.0884 3.3705, 14.8326 3.8693, 15.4023C4.3555, 15.9579 5.1234, 16.4183 6.2175, 16.8098C6.9234, 17.0613 7.452, 17.2866 7.7884, 17.4793C8.0897, 17.6523 8.3025, 17.8353 8.4207, 18.023C8.5337, 18.2029 8.591, 18.4489 8.591, 18.7541C8.591, 19.2062 8.4299, 19.5469 8.0985, 19.7955C7.7376, 20.0662 7.1682, 20.2034 6.4061, 20.2034C5.9139, 20.2034 5.4096, 20.1504 4.9072, 20.0461C4.4035, 19.9417 3.9324, 19.7975 3.5068, 19.6178C3.3888, 19.5678 3.2659, 19.5804 3.1589, 19.6514C3.052, 19.7223 3.0003, 19.8421 3.0003, 19.9704L3.0003, 21.2017C3.0003, 21.3491 3.0723, 21.4833 3.2052, 21.547C3.9651, 21.9107 4.9952, 22.0876 6.3675, 22.0876C7.6497, 22.0876 8.6851, 21.788 9.4512, 21.197C10.2475, 20.5827 10.6498, 19.7204 10.6498, 18.634C10.6498, 17.7878 10.3965, 17.0842 9.8984, 16.5428C9.4177, 16.021 8.5896, 15.5556 7.3682, 15.1201zM19.4684, 21.6047L21.683, 23.9146C21.7893, 24.0253 21.8193, 24.2011 21.7591, 24.3424C21.699, 24.4836 21.5603, 24.6 21.4069, 24.6L19.5524, 24.6C19.4411, 24.6 19.3355, 24.5268 19.2627, 24.4426L17.243, 22.079L17.0136, 22.0873C17.009, 22.0874 17.0044, 22.0875 16.9998, 22.0875C15.2764, 22.0875 13.9209, 21.5453 12.9709, 20.476C12.0325, 19.4202 11.5566, 17.9263 11.5566, 16.0361C11.5566, 14.1603 12.034, 12.6762 12.9757, 11.625C13.9282, 10.5615 15.2871, 10.0223 17.0148, 10.0223C18.6985, 10.0223 20.0378, 10.571 20.9954, 11.6531C21.9411, 12.7218 22.4205, 14.2014 22.4205, 16.0511C22.4205, 17.522 22.1163, 18.7686 21.5166, 19.7562C21.01, 20.5898 20.3228, 21.2137 19.4684, 21.6047zM13.6737, 16.0512C13.6737, 17.4397 13.9639, 18.4958 14.536, 19.1902C15.0978, 19.8719 15.9037, 20.2034 16.9998, 20.2034C18.1046, 20.2034 18.9086, 19.8741 19.458, 19.1964C20.019, 18.5039 20.3035, 17.4457 20.3035, 16.0512C20.3035, 14.6716 20.0203, 13.6223 19.4615, 12.9323C18.9147, 12.2573 18.1143, 11.9292 17.0148, 11.9292C15.9087, 11.9292 15.0979, 12.2607 14.536, 12.9424C13.9638, 13.6367 13.6737, 14.6826 13.6737, 16.0512zM30.2043, 20L26, 20L26, 10.5779C26, 10.3665 25.773, 10.2 25.5616, 10.2L24.3853, 10.2C24.1738, 10.2 24, 10.3665 24, 10.5779L24, 21.6546C24, 21.8661 24.1738, 22 24.3853, 22L30.2043, 22C30.4158, 22 30.6, 21.8661 30.6, 21.6546L30.6, 20.3983C30.6, 20.1869 30.4158, 20 30.2043, 20z" fill="#039C23" class="Green" />
      </g>
    </g>
  </g>
</svg>