<?xml version='1.0' encoding='UTF-8'?>
<svg viewBox="-2 -2 32 32" xmlns="http://www.w3.org/2000/svg" xmlns:xlink="http://www.w3.org/1999/xlink">
  <g id="Layer_1" transform="translate(-2, -2)">
    <g transform="matrix(1, 0, 0, 1, 0, 0)">
      <g id="icon">
        <path d="M28.042, 30C27.51, 30 27.012, 29.79 26.64, 29.409L23.761, 26.456C21.503, 28.135 18.828, 29.021 16.007, 29.021C13.202, 29.021 10.539, 28.144 8.288, 26.481L5.343, 29.426C4.973, 29.796 4.481, 30 3.958, 30C3.435, 30 2.943, 29.796 2.573, 29.426C1.81, 28.663 1.81, 27.42 2.573, 26.657L5.518, 23.712C3.855, 21.461 2.978, 18.798 2.978, 15.993C2.978, 13.172 3.864, 10.497 5.543, 8.239L2.591, 5.36C2.217, 4.995 2.007, 4.506 2, 3.983C1.993, 3.46 2.191, 2.966 2.556, 2.591C2.928, 2.21 3.426, 2 3.958, 2C4.472, 2 4.957, 2.197 5.325, 2.556L8.323, 5.479C10.567, 3.833 13.218, 2.965 16.007, 2.965C18.812, 2.965 21.475, 3.842 23.726, 5.505L26.657, 2.574C27.027, 2.204 27.519, 2.001 28.041, 2.001C28.563, 2.001 29.056, 2.205 29.425, 2.575C29.795, 2.945 29.999, 3.437 29.999, 3.96C29.999, 4.483 29.795, 4.975 29.425, 5.345L26.494, 8.276C28.157, 10.527 29.034, 13.19 29.034, 15.995C29.034, 18.784 28.166, 21.435 26.52, 23.679L29.443, 26.677C30.197, 27.45 30.181, 28.692 29.408, 29.446C29.041, 29.803 28.556, 30 28.042, 30zM16.007, 6.881C10.983, 6.881 6.895, 10.969 6.895, 15.993C6.895, 21.017 10.983, 25.105 16.007, 25.105C21.031, 25.105 25.119, 21.017 25.119, 15.993C25.119, 10.969 21.031, 6.881 16.007, 6.881z" fill="#1177D7" fill-opacity="1" class="Blue" />
      </g>
    </g>
  </g>
</svg>