<?xml version='1.0' encoding='UTF-8'?>
<svg viewBox="-2 -2 32 32" xmlns="http://www.w3.org/2000/svg" xmlns:xlink="http://www.w3.org/1999/xlink">
  <g id="Layer_1" transform="translate(-0.9976, -0.9851)">
    <g transform="matrix(0.9368, 0, 0, 0.9368, 0, 0)">
      <g transform="matrix(1, 0, 0, 1, 0, 0)">
        <g id="icon">
          <path d="M2.7, 11L29.7, 11L29.7, 13L2.6, 13L2.7, 11z" fill="#727272" fill-opacity="1" class="Black" fill-rule="evenodd" />
        </g>
      </g>
    </g>
  </g>
  <g id="Layer_1" transform="translate(-0.9976, -0.9851)">
    <g transform="matrix(0.9368, 0, 0, 0.9368, 0, 0)">
      <g transform="matrix(1, 0, 0, 1, 0, 0)">
        <g id="icon">
          <path d="M2.6, 19L29.7, 19L29.7, 21L3, 21L2.6, 19z" fill="#727272" fill-opacity="1" class="Black" fill-rule="evenodd" />
        </g>
      </g>
    </g>
  </g>
  <g id="Layer_1" transform="translate(-0.9976, -0.9851)">
    <g transform="matrix(0.9368, 0, 0, 0.9368, 0, 0)">
      <g transform="matrix(1, 0, 0, 1, 0, 0)">
        <g id="icon">
          <path d="M19.4033, 2.4964L17.1091, 2.4964C17.1091, 2.4964 19.8, 9.5494 19.8, 15.8643C19.8, 21.9923 17.1091, 29.3505 17.1091, 29.3505L19.4033, 29.3505C19.4033, 29.3505 22.0942, 22.0658 22.0942, 15.9764C22.0942, 9.6256 19.4033, 2.4964 19.4033, 2.4964z" fill="#727272" fill-opacity="1" class="Black" fill-rule="evenodd" />
        </g>
      </g>
    </g>
  </g>
  <g id="Layer_1" transform="translate(-0.9976, -0.9851)">
    <g transform="matrix(0.9368, 0, 0, 0.9368, 0, 0)">
      <g transform="matrix(1, 0, 0, 1, 0, 0)">
        <g id="icon">
          <path d="M12.765, 2.4964L14.9292, 2.4964C14.9292, 2.4964 12.2383, 9.5494 12.2383, 15.8643C12.2383, 21.9923 14.9292, 29.3505 14.9292, 29.3505L12.765, 29.3505C12.765, 29.3505 10, 22.0658 10, 15.9764C10, 9.6256 12.765, 2.4964 12.765, 2.4964z" fill="#727272" fill-opacity="1" class="Black" fill-rule="evenodd" />
        </g>
      </g>
    </g>
  </g>
  <g id="Layer_1" transform="translate(-0.9976, -0.9851)">
    <g transform="matrix(0.9368, 0, 0, 0.9368, 0, 0)">
      <g transform="matrix(1, 0, 0, 1, 0, 0)">
        <g id="icon">
          <path d="M16.007, 30.9366C7.7674, 30.9366 1.064, 24.2331 1.064, 15.9933C1.064, 7.7535 7.7674, 1.05 16.007, 1.05C24.2466, 1.05 30.95, 7.7535 30.95, 15.9933C30.95, 24.2331 24.2466, 30.9366 16.007, 30.9366zM16.007, 3.5966C9.1716, 3.5966 3.6106, 9.1577 3.6106, 15.9933C3.6106, 22.8289 9.1716, 28.39 16.007, 28.39C22.8424, 28.39 28.4034, 22.8289 28.4034, 15.9933C28.4034, 9.1577 22.8424, 3.5966 16.007, 3.5966z" fill="#727272" fill-opacity="1" class="Black" />
        </g>
      </g>
    </g>
  </g>
</svg>