<?xml version='1.0' encoding='UTF-8'?>
<svg viewBox="-2.7999 -2 31.9999 32" xmlns="http://www.w3.org/2000/svg" xmlns:xlink="http://www.w3.org/1999/xlink">
  <g id="Layer_1" transform="translate(-3.7332, -0.9333)">
    <g transform="matrix(0.9333, 0, 0, 0.9333, 0, 0)">
      <g id="icon">
        <path d="M27, 30.5L5, 30.5C4.7239, 30.5 4.5, 30.2761 4.5, 30L4.5, 4.5L27.5, 4.5L27.5, 30C27.5, 30.2761 27.2761, 30.5 27, 30.5z" fill="#FFFFFF" stroke="#000000" stroke-width="1px" stroke-miterlimit="1" />
      </g>
    </g>
  </g>
  <g id="Layer_1" transform="translate(-3.7332, -0.9333)">
    <g transform="matrix(0.9333, 0, 0, 0.9333, 0, 0)">
      <g id="icon">
        <path d="M28, 5L4, 5L4, 2.4C4, 1.6268 4.6268, 1 5.4, 1L26.6, 1C27.3732, 1 28, 1.6268 28, 2.4L28, 5z" fill="#1177D7" class="Blue" />
      </g>
    </g>
  </g>
  <g id="Layer_1" transform="translate(-3.7332, -0.9333)">
    <g transform="matrix(0.9333, 0, 0, 0.9333, 0, 0)">
      <g id="icon">
        <path d="M8, 11.5L11, 11.5M8, 8.5L11, 8.5M8, 14.5L11, 14.5M8, 17.5L11, 17.5M8, 20.5L11, 20.5M8, 23.5L11, 23.5M8, 26.5L11, 26.5" fill="none" stroke="#000000" stroke-width="1px" stroke-linecap="round" stroke-miterlimit="1" />
      </g>
    </g>
  </g>
  <g id="Layer_1" transform="translate(-3.7332, -0.9333)">
    <g transform="matrix(0.9333, 0, 0, 0.9333, 0, 0)">
      <g id="icon">
        <path d="M13.5, 11.5L24, 11.5M13.5, 8.5L24, 8.5M13.5, 14.5L24, 14.5M13.5, 17.5L24, 17.5M13.5, 20.5L24, 20.5M13.5, 23.5L24, 23.5M13.5, 26.5L24, 26.5" fill="none" stroke="#000000" stroke-width="1px" stroke-linecap="round" stroke-miterlimit="1" />
      </g>
    </g>
  </g>
  <g id="Layer_1" transform="translate(13.7251, 14.5337)">
    <g transform="matrix(0.5, 0, 0, 0.5, 0, 0)">
      <g transform="matrix(0.9325, 0, 0, 0.9325, 0, 0)">
        <g transform="matrix(1, 0, 0, 1, 0, 0)">
          <g id="icon">
            <path d="M28.3621, 1L19.511, 1C19.1014, 1 18.715, 1.0962 18.369, 1.2632C18.1675, 1.3022 17.975, 1.4 17.819, 1.5566L1.3713, 18.0632C0.9555, 18.4803 0.9555, 19.1567 1.3713, 19.5739L12.4771, 30.715C12.8929, 31.1322 13.5671, 31.1322 13.983, 30.715L30.4307, 14.2084C30.5525, 14.0862 30.6355, 13.9415 30.6859, 13.7878C30.8875, 13.4135 31.0001, 12.9851 31.0001, 12.5298L31.0001, 3.6505C31, 2.1867 29.8213, 1 28.3621, 1zM25.8647, 8.5004C24.5804, 8.5004 23.5392, 7.4608 23.5392, 6.1783C23.5392, 4.8958 24.5803, 3.8562 25.8647, 3.8562C27.1491, 3.8562 28.1902, 4.8958 28.1902, 6.1783C28.1902, 7.4608 27.149, 8.5004 25.8647, 8.5004z" fill="#727272" fill-opacity="1" class="Black" fill-rule="evenodd" />
          </g>
        </g>
      </g>
    </g>
  </g>
</svg>