<?xml version='1.0' encoding='UTF-8'?>
<svg viewBox="-2 -3.845 32 32" xmlns="http://www.w3.org/2000/svg" xmlns:xlink="http://www.w3.org/1999/xlink">
  <g id="Layer_1" transform="translate(-0.975, -2.8062)">
    <g transform="matrix(0.9346, 0, 0, 0.9346, 0, 0)">
      <g transform="matrix(1, 0, 0, 1, 0, 0)">
        <g id="icon">
          <path d="M16.028, 3C7.76, 3 1.057, 8.818 1.057, 15.996C1.057, 18.813 2.09, 21.421 3.844, 23.55C3.362, 24.861 1.718, 27.495 1.08, 28.59C0.951, 28.81 1.16, 29.073 1.406, 29.001C3.134, 28.499 8.094, 27.141 8.342, 27.151C10.589, 28.32 13.218, 28.992 16.029, 28.992C24.298, 28.992 31.001, 23.174 31.001, 15.996C31, 8.818 24.297, 3 16.028, 3zM11.149, 13.242L7.38, 13.242L7.38, 15.113L10.083, 15.113L10.083, 16.319L7.38, 16.319L7.38, 18.714L11.088, 18.714L11.088, 19.974L5.928, 19.974L5.928, 11.981L11.15, 11.981L11.15, 13.242zM18.393, 20.084L17.801, 20.084L13.83, 15.027L13.83, 19.981L12.434, 19.981L12.434, 11.983L13.132, 11.983L16.997, 16.806L16.997, 11.983L18.393, 11.983L18.393, 20.084zM26.463, 19.233C26.117, 19.509 25.671, 19.725 25.125, 19.88C24.58, 20.035 24.037, 20.112 23.497, 20.112C22.324, 20.112 21.394, 19.737 20.707, 18.985C20.02, 18.234 19.677, 17.242 19.677, 16.009C19.677, 14.776 20.051, 13.774 20.8, 13.003C21.548, 12.232 22.555, 11.846 23.821, 11.846C24.718, 11.846 25.482, 12.108 26.111, 12.632L25.502, 13.772C25.331, 13.623 25.066, 13.475 24.709, 13.327C24.352, 13.179 24.044, 13.106 23.787, 13.106C22.983, 13.106 22.348, 13.372 21.883, 13.905C21.418, 14.438 21.185, 15.152 21.185, 16.046C21.185, 16.897 21.413, 17.577 21.869, 18.086C22.325, 18.595 22.946, 18.85 23.732, 18.85C24.249, 18.85 24.676, 18.712 25.011, 18.435L25.011, 16.864L23.877, 16.864L23.877, 15.653L26.463, 15.653L26.463, 19.233z" fill="#D11C1C" fill-opacity="1" class="Red" fill-rule="evenodd" />
        </g>
      </g>
    </g>
  </g>
</svg>