<?xml version='1.0' encoding='UTF-8'?>
<svg viewBox="-3.8675 -2 32 32" xmlns="http://www.w3.org/2000/svg" xmlns:xlink="http://www.w3.org/1999/xlink">
  <g id="Layer_1" transform="translate(-3.7341, -0.9333)">
    <g transform="matrix(0.9333, 0, 0, 0.9333, 0, 0)">
      <g id="icon">
        <path d="M16, 18.933C16, 17.865 16.866, 17 17.933, 17L27.5, 17C27.5, 12.754 27.5, 8.937 27.5, 8.8C27.5, 8.35 27.353, 8.053 27.1, 7.8C25.616, 6.316 21.499, 2.199 21.2, 1.9C20.85, 1.55 20.538, 1.5 20.3, 1.5C20.062, 1.5 5.4, 1.5 5.4, 1.5C4.765, 1.5 4.5, 1.759 4.5, 2.4L4.5, 28.6C4.5, 29.241 4.765, 29.5 5.4, 29.5L16, 29.5L16, 18.933z" fill="#FFFFFF" fill-rule="evenodd" />
      </g>
    </g>
  </g>
  <g id="Layer_1" transform="translate(-3.7341, -0.9333)">
    <g transform="matrix(0.9333, 0, 0, 0.9333, 0, 0)">
      <g id="icon">
        <path d="M16, 29L5.4, 29C5.037, 29 5, 28.963 5, 28.6L5, 2.4C5, 2.037 5.037, 2 5.4, 2L20.3, 2C20.442, 2 20.612, 2.02 20.846, 2.253L26.746, 8.153C26.898, 8.305 27, 8.473 27, 8.799L27, 16.999L28, 16.999L28, 8.8C28, 8.249 27.826, 7.819 27.454, 7.446L21.554, 1.546C21.186, 1.179 20.776, 1 20.3, 1L5.4, 1C4.484, 1 4, 1.484 4, 2.4L4, 28.6C4, 29.516 4.484, 30 5.4, 30L16, 30L16, 29z" fill="#727272" class="Black" />
      </g>
    </g>
  </g>
  <g id="Layer_1" transform="translate(-3.7341, -0.9333)">
    <g transform="matrix(0.9333, 0, 0, 0.9333, 0, 0)">
      <g id="icon">
        <path d="M20.5, 2L20.5, 7.7C20.5, 8.142 20.858, 8.5 21.3, 8.5L27.3, 8.5" fill="none" stroke="#000000" stroke-width="1px" stroke-miterlimit="1" fill-rule="evenodd" />
      </g>
    </g>
  </g>
  <g id="Layer_1" transform="translate(-3.7341, -0.9333)">
    <g transform="matrix(0.9333, 0, 0, 0.9333, 0, 0)">
      <g id="icon">
        <path d="M13.967, 16L11.034, 16C10.463, 16 10.001, 15.537 10.001, 14.967L10.001, 12.034C10.001, 11.463 10.464, 11.001 11.034, 11.001L13.967, 11.001C14.538, 11.001 15, 11.464 15, 12.034L15, 14.967C15, 15.537 14.537, 16 13.967, 16zM22, 14.967L22, 12.034C22, 11.463 21.537, 11.001 20.967, 11.001L18.034, 11.001C17.463, 11.001 17.001, 11.464 17.001, 12.034L17.001, 14.967C17.001, 15.538 17.464, 16 18.034, 16L20.967, 16C21.537, 16 22, 15.537 22, 14.967zM15, 21.967L15, 19.034C15, 18.463 14.537, 18.001 13.967, 18.001L11.034, 18.001C10.463, 18.001 10.001, 18.464 10.001, 19.034L10.001, 21.967C10.001, 22.538 10.464, 23 11.034, 23L13.967, 23C14.537, 23 15, 22.537 15, 21.967z" fill="#727272" class="Black" fill-rule="evenodd" />
      </g>
    </g>
  </g>
  <g id="Layer_1" transform="translate(-3.7341, -0.9333)">
    <g transform="matrix(0.9333, 0, 0, 0.9333, 0, 0)">
      <g id="icon">
        <path d="M21.967, 24L18.034, 24C17.463, 24 17.001, 23.537 17.001, 22.967L17.001, 19.034C17.001, 18.463 17.464, 18.001 18.034, 18.001L21.967, 18.001C22.538, 18.001 23, 18.464 23, 19.034L23, 22.967C23, 23.537 22.537, 24 21.967, 24zM30, 22.967L30, 19.034C30, 18.463 29.537, 18.001 28.967, 18.001L25.034, 18.001C24.463, 18.001 24.001, 18.464 24.001, 19.034L24.001, 22.967C24.001, 23.538 24.464, 24 25.034, 24L28.967, 24C29.537, 24 30, 23.537 30, 22.967zM23, 29.967L23, 26.034C23, 25.463 22.537, 25.001 21.967, 25.001L18.034, 25.001C17.463, 25.001 17.001, 25.464 17.001, 26.034L17.001, 29.967C17.001, 30.538 17.464, 31 18.034, 31L21.967, 31C22.537, 31 23, 30.537 23, 29.967z" fill="#1177D7" class="Blue" fill-rule="evenodd" />
      </g>
    </g>
  </g>
</svg>