<?xml version='1.0' encoding='UTF-8'?>
<svg viewBox="-5.7825 -2 32 32" xmlns="http://www.w3.org/2000/svg" xmlns:xlink="http://www.w3.org/1999/xlink">
  <g id="Layer_1" transform="translate(-4.7812, -1.0324)">
    <g transform="matrix(0.9374, 0, 0, 0.9374, 0, 0)">
      <g transform="matrix(1, 0, 0, 1, 0, 0)">
        <g id="icon">
          <circle cx="16" cy="12" r="4" fill="#FFFFFF" fill-opacity="1" class="White" />
        </g>
      </g>
    </g>
  </g>
  <g id="Layer_1" transform="translate(-4.7812, -1.0324)">
    <g transform="matrix(0.9374, 0, 0, 0.9374, 0, 0)">
      <g transform="matrix(1, 0, 0, 1, 0, 0)">
        <g id="icon">
          <path d="M16.1552, 1.1011C10.0642, 1.0163 5.1, 5.9284 5.1, 12C5.1, 13.8022 5.5374, 15.5023 6.3118, 16.9998C7.8507, 19.9758 13.7618, 28.2809 15.5102, 30.7189C15.7509, 31.0546 16.2492, 31.0545 16.4899, 30.7189C18.2383, 28.2809 24.1492, 19.9759 25.6882, 17C26.4685, 15.4912 26.9066, 13.7767 26.9, 11.9594C26.8784, 6.044 22.0701, 1.1834 16.1552, 1.1011zM16, 16C13.7909, 16 12, 14.2091 12, 12C12, 9.7909 13.7909, 8 16, 8C18.2091, 8 20, 9.7909 20, 12C20, 14.2091 18.2091, 16 16, 16z" fill="#1177D7" fill-opacity="1" class="Blue" />
        </g>
      </g>
    </g>
  </g>
</svg>