<?xml version='1.0' encoding='UTF-8'?>
<svg viewBox="-2 -2 32 32" xmlns="http://www.w3.org/2000/svg" xmlns:xlink="http://www.w3.org/1999/xlink">
  <g id="Layer_1" transform="translate(-0.9333, -0.9333)">
    <g transform="matrix(0.9333, 0, 0, 0.9333, 0, 0)">
      <g id="icon">
        <path d="M5, 25.5L15, 25.5L15, 29.983C15, 30.544 14.545, 31 13.983, 31L6.017, 31C5.455, 31 5, 30.545 5, 29.983L5, 25.5z" fill="#1177D7" class="Blue" />
      </g>
    </g>
  </g>
  <g id="Layer_1" transform="translate(-0.9333, -0.9333)">
    <g transform="matrix(0.9333, 0, 0, 0.9333, 0, 0)">
      <g id="icon">
        <path d="M30.5, 5.5L30.5, 25.5L5.5, 25.5L5.5, 16L14.183, 16C15.186, 16 16, 15.187 16, 14.183L16, 5.5L16.13, 5.5C16.308, 6.112 16.818, 6.475 17.549, 6.475L19.706, 6.475C20.457, 6.475 21.023, 7.035 21.023, 7.777L21.023, 8.608L20.173, 7.759C19.94, 7.527 19.633, 7.4 19.306, 7.4C18.627, 7.4 18.074, 7.952 18.074, 8.63L18.074, 10.513C18.074, 10.937 18.246, 11.352 18.547, 11.652L21.948, 15.043C22.247, 15.34 22.64, 15.504 23.055, 15.504C23.465, 15.504 23.852, 15.344 24.148, 15.049L27.52, 11.647C27.82, 11.344 27.985, 10.942 27.985, 10.516L27.985, 8.647C27.985, 7.965 27.429, 7.41 26.746, 7.41C26.418, 7.41 26.109, 7.538 25.875, 7.771L25.036, 8.607L25.036, 7.833C25.043, 7.775 25.047, 7.717 25.047, 7.659L25.045, 7.569L25.043, 7.554C25.01, 6.819 24.83, 6.126 24.533, 5.5L30.5, 5.5z" fill="#FFFFFF" />
      </g>
    </g>
  </g>
  <g id="Layer_1" transform="translate(-0.9333, -0.9333)">
    <g transform="matrix(0.9333, 0, 0, 0.9333, 0, 0)">
      <g id="icon">
        <path d="M30.5, 5L24.262, 5C24.454, 5.313 24.616, 5.647 24.741, 6L30, 6L30, 25L6, 25L6, 16L5, 16L5, 25.5C5, 25.776 5.224, 26 5.5, 26L30.5, 26C30.776, 26 31, 25.776 31, 25.5L31, 5.5C31, 5.224 30.776, 5 30.5, 5z" fill="#727272" class="Black" />
      </g>
    </g>
  </g>
  <g id="Layer_1" transform="translate(-0.9333, -0.9333)">
    <g transform="matrix(0.9333, 0, 0, 0.9333, 0, 0)">
      <g id="icon">
        <path d="M30, 26L30, 28.683C30, 29.41 29.411, 30 28.683, 30L15, 30L15, 26L30, 26z" fill="#E6E7E8" />
      </g>
    </g>
  </g>
  <g id="Layer_1" transform="translate(-0.9333, -0.9333)">
    <g transform="matrix(0.9333, 0, 0, 0.9333, 0, 0)">
      <g id="icon">
        <path d="M30, 27L30, 29L30, 30L29, 30L16.1, 30L16.1, 29L22, 29L22, 27L23, 27L23, 29L29, 29L29, 27L30, 27z" fill="#727272" class="Black" />
      </g>
    </g>
  </g>
  <g id="Layer_1" transform="translate(-0.9333, -0.9333)">
    <g transform="matrix(0.9333, 0, 0, 0.9333, 0, 0)">
      <g id="icon">
        <path d="M15, 29L16.1, 29L16.1, 30L15, 30L15, 29zM29, 26L29, 27L30, 27L30, 26L29, 26zM22, 27L23, 27L23, 26L22, 26L22, 27z" fill="#727272" opacity="0.5" class="Black" />
      </g>
    </g>
  </g>
  <g id="Layer_1" transform="translate(-0.9333, -0.9333)">
    <g transform="matrix(0.9333, 0, 0, 0.9333, 0, 0)">
      <g id="icon">
        <path d="M29, 10L29, 11L27.91, 11C27.959, 10.845 27.985, 10.683 27.985, 10.516L27.985, 10L29, 10zM24.197, 15L29, 15L29, 16L24, 16L24, 20L29, 20L29, 21L24, 21L24, 24L23, 24L23, 21L18, 21L18, 24L17, 24L17, 21L12, 21L12, 24L11, 24L11, 21L7, 21L7, 20L11, 20L11, 16L12, 16L12, 20L17, 20L17, 16L14.183, 16C14.892, 16 15.505, 15.593 15.804, 15L17, 15L17, 11L16, 11L16, 10L17, 10L17, 7L18, 7L18, 10L18.073, 10L18.073, 10.514C18.073, 10.68 18.1, 10.844 18.15, 11L18, 11L18, 15L21.904, 15L21.948, 15.044C22.247, 15.341 22.64, 15.505 23.055, 15.505C23.465, 15.505 23.852, 15.345 24.148, 15.05L24.197, 15zM23, 16L18, 16L18, 20L23, 20L23, 16z" fill="#727272" class="Black" />
      </g>
    </g>
  </g>
  <g id="Layer_1" transform="translate(-0.9333, -0.9333)">
    <g transform="matrix(0.9333, 0, 0, 0.9333, 0, 0)">
      <g id="icon">
        <path d="M17, 24L18, 24L18, 25L17, 25L17, 24zM11, 25L12, 25L12, 24L11, 24L11, 25zM6, 21L7, 21L7, 20L6, 20L6, 21zM17.548, 6.475C17.348, 6.475 17.165, 6.446 17, 6.394L17, 7L18, 7L18, 6.475L17.548, 6.475zM23, 25L24, 25L24, 24L23, 24L23, 25zM29, 10L29, 11L30, 11L30, 10L29, 10zM29, 16L30, 16L30, 15L29, 15L29, 16zM29, 21L30, 21L30, 20L29, 20L29, 21z" fill="#727272" opacity="0.5" class="Black" />
      </g>
    </g>
  </g>
  <g id="Layer_1" transform="translate(-0.9333, -0.9333)">
    <g transform="matrix(0.9333, 0, 0, 0.9333, 0, 0)">
      <g id="icon">
        <path d="M26.985, 10.516C26.985, 10.676 26.922, 10.83 26.809, 10.944L23.438, 14.346C23.221, 14.563 22.876, 14.557 22.653, 14.335L19.252, 10.944C19.138, 10.83 19.073, 10.675 19.073, 10.514L19.073, 8.631C19.073, 8.426 19.32, 8.323 19.465, 8.468L22.021, 11.019L22.021, 7.777C22.021, 6.486 21.003, 5.475 19.704, 5.475L17.547, 5.475C17.174, 5.475 17.057, 5.357 17.057, 4.981L17.057, 3.976C17.057, 3.624 17.147, 3.461 17.547, 3.461L19.704, 3.461C22.051, 3.461 23.956, 5.291 24.044, 7.63L24.045, 7.636L24.045, 7.658C24.045, 7.689 24.041, 7.718 24.034, 7.747L24.034, 11.013L26.579, 8.478C26.728, 8.329 26.983, 8.435 26.983, 8.646L26.983, 10.516z" fill="#1177D7" class="Blue" />
      </g>
    </g>
  </g>
  <g id="Layer_1" transform="translate(-0.9333, -0.9333)">
    <g transform="matrix(0.9333, 0, 0, 0.9333, 0, 0)">
      <g id="icon">
        <path d="M13.917, 1L2.083, 1C1.485, 1 1, 1.485 1, 2.083L1, 13.916C1, 14.514 1.485, 14.999 2.083, 14.999L13.916, 14.999C14.514, 14.999 14.999, 14.514 14.999, 13.916L14.999, 2.083C15, 1.485 14.515, 1 13.917, 1zM13.459, 3.162L9.671, 8.157L13.433, 12.835C13.47, 12.879 13.455, 12.924 13.447, 12.942C13.439, 12.959 13.414, 13 13.356, 13L10.54, 13C10.51, 13 10.482, 12.987 10.463, 12.964L8.179, 10.045L6.033, 12.962C6.014, 12.986 5.985, 13 5.955, 13L3.119, 13C3.062, 13 3.037, 12.961 3.029, 12.944C3.021, 12.927 3.005, 12.883 3.041, 12.839L6.587, 8.15L2.567, 3.165C2.53, 3.121 2.545, 3.076 2.553, 3.058C2.561, 3.04 2.586, 3 2.644, 3L5.46, 3C5.49, 3 5.518, 3.013 5.537, 3.036L8.079, 6.262L10.468, 3.039C10.487, 3.015 10.516, 3.001 10.546, 3.001L13.381, 3.001C13.438, 3.001 13.463, 3.04 13.471, 3.057C13.479, 3.073 13.494, 3.118 13.459, 3.162z" fill="#039C23" class="Green" />
      </g>
    </g>
  </g>
  <g id="Layer_1" transform="translate(-0.9333, -0.9333)">
    <g transform="matrix(0.9333, 0, 0, 0.9333, 0, 0)">
      <g id="icon">
        <path d="M10.54, 13C10.51, 13 10.482, 12.987 10.463, 12.964L8.179, 10.045L6.033, 12.962C6.014, 12.986 5.985, 13 5.955, 13L3.119, 13C3.062, 13 3.037, 12.961 3.029, 12.944C3.021, 12.927 3.005, 12.883 3.041, 12.839L6.587, 8.15L2.567, 3.165C2.53, 3.121 2.545, 3.076 2.553, 3.058C2.561, 3.04 2.586, 3 2.644, 3L5.46, 3C5.49, 3 5.518, 3.013 5.537, 3.036L8.079, 6.262L10.468, 3.039C10.487, 3.015 10.516, 3.001 10.546, 3.001L13.381, 3.001C13.438, 3.001 13.463, 3.04 13.471, 3.057C13.479, 3.074 13.495, 3.118 13.459, 3.163L9.671, 8.157L13.433, 12.835C13.47, 12.879 13.455, 12.924 13.447, 12.942C13.439, 12.959 13.414, 13 13.356, 13L10.54, 13z" fill="#FFFFFF" />
      </g>
    </g>
  </g>
</svg>