<?xml version='1.0' encoding='UTF-8'?>
<svg viewBox="0 -2 32 32" xmlns="http://www.w3.org/2000/svg" xmlns:xlink="http://www.w3.org/1999/xlink">
  <g id="Layer_1" transform="translate(8.0066, -0.0001)">
    <g transform="matrix(1.7497, 0, 0, 1.7497, 0, 0)">
      <g id="icon">
        <path d="M12.598, 9.18C12.347, 8.719 11.882, 8.309 11.364, 7.961C10.901, 7.651 9.871, 7.344 9.001, 7.025L9.001, 3.313C9.763, 3.41 10.837, 3.627 11.595, 3.958L11.595, 3.958C11.755, 4.031 11.937, 3.945 12.001, 3.768L12.485, 2.411C12.546, 2.24 12.473, 2.047 12.321, 1.974L12.316, 1.971C11.343, 1.538 9.981, 1.284 9.001, 1.215L9.001, 0.48C9, 0.215 8.805, 0 8.565, 0L7.455, 0C7.204, 0 7, 0.215 7, 0.481L7, 1.265C5.977, 1.422 4.829, 1.781 4.198, 2.333C3.474, 2.967 2.998, 3.79 2.998, 4.779C2.998, 5.785 3.407, 6.622 3.992, 7.267C4.529, 7.857 5.749, 8.36 7, 8.801L7, 12.662C6.545, 12.637 5.892, 12.564 5.365, 12.443C4.702, 12.291 3.997, 12.094 3.493, 11.856L3.482, 11.851C3.255, 11.747 3.001, 11.923 3.001, 12.185L3.001, 13.755C3.001, 13.898 3.08, 14.027 3.203, 14.086L3.203, 14.086C3.655, 14.307 4.355, 14.481 5.05, 14.604C5.626, 14.705 6.319, 14.765 7.001, 14.781L7.001, 15.522C7.001, 15.787 7.196, 16.002 7.436, 16.002L8.565, 16.002C8.805, 16.002 9, 15.787 9, 15.522L9, 14.623C9.979, 14.437 11.252, 14.047 11.864, 13.461C12.557, 12.798 12.995, 11.947 12.995, 10.929C12.995, 10.273 12.853, 9.648 12.598, 9.18zM9, 9.426C9.583, 9.691 10.2, 9.91 10.335, 10.056C10.548, 10.287 10.675, 10.645 10.675, 11.032C10.675, 11.517 10.102, 12.17 9, 12.458L9, 9.426zM5.372, 4.714C5.372, 4.353 5.63, 4.059 5.876, 3.816C6.075, 3.619 6.546, 3.467 7, 3.364L7, 6.288C6.546, 6.093 6.015, 5.894 5.834, 5.693C5.616, 5.451 5.372, 5.131 5.372, 4.714z" fill="#1177D7" class="Blue" />
      </g>
    </g>
  </g>
  <g id="Layer_1" transform="translate(0, 8)" style="enable-background:new 0 0 16 16">
    <g id="Remove_1_">
      <path d="M15, 10L1, 10C0.4, 10 0, 9.6 0, 9L0, 7C0, 6.4 0.4, 6 1, 6L15, 6C15.6, 6 16, 6.4 16, 7L16, 9C16, 9.6 15.6, 10 15, 10z" fill="#1177D7" class="Blue" />
    </g>
  </g>
</svg>