<?xml version='1.0' encoding='UTF-8'?>
<svg viewBox="0 -0.9325 32 32" xmlns="http://www.w3.org/2000/svg" xmlns:xlink="http://www.w3.org/1999/xlink">
  <g id="Layer_1" transform="translate(-0.935, -0.9337)">
    <g transform="matrix(0.9333, 0, 0, 0.9333, 0, 0)">
      <g id="icon">
        <path d="M17.0295, 20L14.9795, 20C14.4435, 20 14.009, 19.5655 14.009, 19.0295L14.009, 14.9704C14.009, 14.4344 14.4435, 13.9999 14.9795, 13.9999L17.0295, 13.9999C17.5655, 13.9999 18, 14.4344 18, 14.9704L18, 19.0295C18, 19.5655 17.5655, 20 17.0295, 20z" fill="#D11C1C" fill-opacity="1" class="Red" />
      </g>
    </g>
  </g>
  <g id="Layer_1" transform="translate(-0.935, -0.9337)">
    <g transform="matrix(0.9333, 0, 0, 0.9333, 0, 0)">
      <g id="icon">
        <path d="M29.8, 6L2.2, 6C1.54, 6 1, 6.54 1, 7.2L1, 15.35C1, 16.2575 1.7425, 17 2.65, 17L13, 17L13, 14.9875C13, 13.8898 13.8898, 13 14.9875, 13L17.0125, 13C18.1102, 13 19, 13.8898 19, 14.9875L19, 17L29.35, 17C30.2575, 17 31, 16.2575 31, 15.35L31, 7.2C31, 6.54 30.46, 6 29.8, 6z" fill="#D11C1C" fill-opacity="1" class="Red" />
      </g>
    </g>
  </g>
  <g id="Layer_1" transform="translate(-0.935, -0.9337)">
    <g transform="matrix(0.9333, 0, 0, 0.9333, 0, 0)">
      <g id="icon">
        <path d="M11, 3.45C11, 3.2025 11.2025, 3 11.45, 3L20.5375, 3C20.7919, 3 21, 3.2081 21, 3.4625L21, 5L23, 5L23, 3.3011C23, 2.0355 21.9645, 1 20.6989, 1L11.283, 1C10.0221, 1 9, 2.0221 9, 3.283L9, 5L11, 5L11, 3.45z" fill="#D11C1C" fill-opacity="1" class="Red" />
      </g>
    </g>
  </g>
  <g id="Layer_1" transform="translate(-0.935, -0.9337)">
    <g transform="matrix(0.9333, 0, 0, 0.9333, 0, 0)">
      <g id="icon">
        <path d="M19, 18L19, 19.0125C19, 20.1102 18.1102, 21 17.0125, 21L14.9875, 21C13.8898, 21 13, 20.1102 13, 19.0125L13, 18L1, 18L1, 27.7727C1, 28.4327 1.54, 29 2.2, 29L29.8, 29C30.46, 29 31, 28.4327 31, 27.7727L31, 18L19, 18z" fill="#D11C1C" fill-opacity="1" class="Red" />
      </g>
    </g>
  </g>
  <g id="Layer_1" transform="translate(-0.935, -0.9337)">
    <g transform="matrix(0.9333, 0, 0, 0.9333, 0, 0)">
      <g id="icon">
        <rect x="9" y="5" width="2" height="1" rx="0" ry="0" fill="#D11C1C" fill-opacity="1" class="Red" />
      </g>
    </g>
  </g>
  <g id="Layer_1" transform="translate(-0.935, -0.9337)">
    <g transform="matrix(0.9333, 0, 0, 0.9333, 0, 0)">
      <g id="icon">
        <rect x="21" y="5" width="2" height="1" rx="0" ry="0" fill="#D11C1C" fill-opacity="1" class="Red" />
      </g>
    </g>
  </g>
  <g id="Layer_1" transform="translate(16, 17.0902)">
    <g id="icon">
      <path d="M15.3509, 3L14.5055, 3C14.5075, 3 14.498, 2.7569 14.4726, 2.6553C14.2817, 1.8916 13.6343, 1.5 13.2125, 1.5L7.8859, 1.5C7.4641, 1.5 6.9886, 1.9316 6.7976, 2.6553C6.7712, 2.7553 6.7587, 3 6.7561, 3L5, 3L5, 2L2, 2L2, 3L0.7263, 3C0.3045, 3 0, 3.3643 0, 3.7861L0, 13.2161C0, 13.6379 0.3045, 14 0.7263, 14L15.2363, 14C15.6581, 14 16, 13.6379 16, 13.2161L16, 3.7861C16, 3.3643 15.7726, 3 15.3509, 3zM5.5, 5L2.5, 5C2.2239, 5 2, 4.7761 2, 4.5C2, 4.2239 2.2239, 4 2.5, 4L5.5, 4C5.7761, 4 6, 4.2239 6, 4.5C6, 4.7761 5.7761, 5 5.5, 5zM10.6524, 12.9261C8.2895, 12.9261 6.374, 11.0171 6.374, 8.6623C6.374, 6.3075 8.2895, 4.3985 10.6524, 4.3985C13.0153, 4.3985 14.9308, 6.3075 14.9308, 8.6623C14.9308, 11.0171 13.0153, 12.9261 10.6524, 12.9261zM13.2196, 8.6575C13.2196, 10.0731 12.0681, 11.2206 10.6477, 11.2206C9.2273, 11.2206 8.0758, 10.0731 8.0758, 8.6575C8.0758, 7.2419 9.2273, 6.0944 10.6477, 6.0944C12.0681, 6.0943 13.2196, 7.2419 13.2196, 8.6575z" fill="#1177D7" fill-opacity="1" class="Blue" />
    </g>
  </g>
  <g id="Layer_1" transform="translate(16, 17.0902)">
    <g id="icon">
      <path d="M10.6524, 4.3985C8.2895, 4.3985 6.374, 6.3075 6.374, 8.6623C6.374, 11.0171 8.2895, 12.9261 10.6524, 12.9261C13.0153, 12.9261 14.9308, 11.0171 14.9308, 8.6623C14.9308, 6.3075 13.0153, 4.3985 10.6524, 4.3985zM10.6476, 11.2206C9.2272, 11.2206 8.0757, 10.0731 8.0757, 8.6575C8.0757, 7.2419 9.2272, 6.0944 10.6476, 6.0944C12.068, 6.0944 13.2195, 7.2419 13.2195, 8.6575C13.2195, 10.0731 12.0681, 11.2206 10.6476, 11.2206zM5.5, 5L2.5, 5C2.2239, 5 2, 4.7761 2, 4.5L2, 4.5C2, 4.2239 2.2239, 4 2.5, 4L5.5, 4C5.7761, 4 6, 4.2239 6, 4.5L6, 4.5C6, 4.7761 5.7761, 5 5.5, 5z" fill="#FFFFFF" fill-opacity="1" class="White" fill-rule="evenodd" />
    </g>
  </g>
</svg>