<?xml version='1.0' encoding='UTF-8'?>
<svg viewBox="-2.0025 -2.015 32 32" xmlns="http://www.w3.org/2000/svg" xmlns:xlink="http://www.w3.org/1999/xlink">
  <g id="Layer_1" transform="translate(-0.0024, -0.0303)">
    <g transform="matrix(1.75, 0, 0, 1.75, 0, 0)">
      <g id="icon">
        <polyline points="0.5,0.517 0.5,15.5 15.5,15.5" fill="none" stroke="#000000" stroke-width="1px" stroke-linecap="round" stroke-linejoin="round" stroke-miterlimit="1" />
      </g>
    </g>
  </g>
  <g id="Layer_1" transform="translate(-0.0024, -0.0303)">
    <g transform="matrix(1.75, 0, 0, 1.75, 0, 0)">
      <g id="icon">
        <path d="M2.631, 12.333L9.907, 4.822L14.467, 10.528" fill="none" stroke="#D04D2F" stroke-width="1.1px" stroke-linecap="round" stroke-linejoin="round" stroke-miterlimit="1" />
      </g>
    </g>
  </g>
  <g id="Layer_1" transform="translate(-0.0024, -0.0303)">
    <g transform="matrix(1.75, 0, 0, 1.75, 0, 0)">
      <g id="icon">
        <path d="M14.467, 2.517L9.856, 11.681L5.296, 4.246L2.539, 8.191" fill="none" stroke="#4DAE89" stroke-width="1.1px" stroke-linecap="round" stroke-linejoin="round" stroke-miterlimit="1" />
      </g>
    </g>
  </g>
  <g id="Layer_1" transform="translate(-0.0024, -0.0303)">
    <g transform="matrix(1.75, 0, 0, 1.75, 0, 0)">
      <g id="icon">
        <circle cx="14.45" cy="2.483" r="1.367" fill="#039C23" class="Green" />
      </g>
    </g>
  </g>
  <g id="Layer_1" transform="translate(-0.0024, -0.0303)">
    <g transform="matrix(1.75, 0, 0, 1.75, 0, 0)">
      <g id="icon">
        <circle cx="9.85" cy="11.783" r="1.367" fill="#3E79B4" />
      </g>
    </g>
  </g>
  <g id="Layer_1" transform="translate(-0.0024, -0.0303)">
    <g transform="matrix(1.75, 0, 0, 1.75, 0, 0)">
      <g id="icon">
        <circle cx="5.25" cy="4.383" r="1.367" fill="#039C23" class="Green" />
      </g>
    </g>
  </g>
  <g id="Layer_1" transform="translate(-0.0024, -0.0303)">
    <g transform="matrix(1.75, 0, 0, 1.75, 0, 0)">
      <g id="icon">
        <circle cx="2.65" cy="8.083" r="1.367" fill="#039C23" class="Green" />
      </g>
    </g>
  </g>
  <g id="Layer_1" transform="translate(-0.0024, -0.0303)">
    <g transform="matrix(1.75, 0, 0, 1.75, 0, 0)">
      <g id="icon">
        <circle cx="2.65" cy="12.083" r="1.367" fill="#D11C1C" class="Red" />
      </g>
    </g>
  </g>
  <g id="Layer_1" transform="translate(-0.0024, -0.0303)">
    <g transform="matrix(1.75, 0, 0, 1.75, 0, 0)">
      <g id="icon">
        <circle cx="5.65" cy="9.083" r="1.367" fill="#D11C1C" class="Red" />
      </g>
    </g>
  </g>
  <g id="Layer_1" transform="translate(-0.0024, -0.0303)">
    <g transform="matrix(1.75, 0, 0, 1.75, 0, 0)">
      <g id="icon">
        <circle cx="9.85" cy="4.983" r="1.367" fill="#D11C1C" class="Red" />
      </g>
    </g>
  </g>
  <g id="Layer_1" transform="translate(-0.0024, -0.0303)">
    <g transform="matrix(1.75, 0, 0, 1.75, 0, 0)">
      <g id="icon">
        <circle cx="14.45" cy="10.583" r="1.367" fill="#D11C1C" class="Red" />
      </g>
    </g>
  </g>
  <g id="Layer_1" transform="translate(13.9975, 16.0077)">
    <g id="icon">
      <path d="M15.3509, 3L14.5055, 3C14.5075, 3 14.498, 2.7569 14.4726, 2.6553C14.2817, 1.8916 13.6343, 1.5 13.2125, 1.5L7.8859, 1.5C7.4641, 1.5 6.9886, 1.9316 6.7976, 2.6553C6.7712, 2.7553 6.7587, 3 6.7561, 3L5, 3L5, 2L2, 2L2, 3L0.7263, 3C0.3045, 3 0, 3.3643 0, 3.7861L0, 13.2161C0, 13.6379 0.3045, 14 0.7263, 14L15.2363, 14C15.6581, 14 16, 13.6379 16, 13.2161L16, 3.7861C16, 3.3643 15.7726, 3 15.3509, 3zM5.5, 5L2.5, 5C2.2239, 5 2, 4.7761 2, 4.5C2, 4.2239 2.2239, 4 2.5, 4L5.5, 4C5.7761, 4 6, 4.2239 6, 4.5C6, 4.7761 5.7761, 5 5.5, 5zM10.6524, 12.9261C8.2895, 12.9261 6.374, 11.0171 6.374, 8.6623C6.374, 6.3075 8.2895, 4.3985 10.6524, 4.3985C13.0153, 4.3985 14.9308, 6.3075 14.9308, 8.6623C14.9308, 11.0171 13.0153, 12.9261 10.6524, 12.9261zM13.2196, 8.6575C13.2196, 10.0731 12.0681, 11.2206 10.6477, 11.2206C9.2273, 11.2206 8.0758, 10.0731 8.0758, 8.6575C8.0758, 7.2419 9.2273, 6.0944 10.6477, 6.0944C12.0681, 6.0943 13.2196, 7.2419 13.2196, 8.6575z" fill="#1177D7" fill-opacity="1" class="Blue" />
    </g>
  </g>
  <g id="Layer_1" transform="translate(13.9975, 16.0077)">
    <g id="icon">
      <path d="M10.6524, 4.3985C8.2895, 4.3985 6.374, 6.3075 6.374, 8.6623C6.374, 11.0171 8.2895, 12.9261 10.6524, 12.9261C13.0153, 12.9261 14.9308, 11.0171 14.9308, 8.6623C14.9308, 6.3075 13.0153, 4.3985 10.6524, 4.3985zM10.6476, 11.2206C9.2272, 11.2206 8.0757, 10.0731 8.0757, 8.6575C8.0757, 7.2419 9.2272, 6.0944 10.6476, 6.0944C12.068, 6.0944 13.2195, 7.2419 13.2195, 8.6575C13.2195, 10.0731 12.0681, 11.2206 10.6476, 11.2206zM5.5, 5L2.5, 5C2.2239, 5 2, 4.7761 2, 4.5L2, 4.5C2, 4.2239 2.2239, 4 2.5, 4L5.5, 4C5.7761, 4 6, 4.2239 6, 4.5L6, 4.5C6, 4.7761 5.7761, 5 5.5, 5z" fill="#FFFFFF" fill-opacity="1" class="White" fill-rule="evenodd" />
    </g>
  </g>
</svg>