<?xml version='1.0' encoding='UTF-8'?>
<svg viewBox="-2.875 -2 32 32" xmlns="http://www.w3.org/2000/svg" xmlns:xlink="http://www.w3.org/1999/xlink">
  <g id="Layer_1" transform="translate(-0.875, 0)">
    <g transform="matrix(0.875, 0, 0, 0.875, 0, 0)">
      <g id="icon">
        <path d="M30, 32L30, 0L31, 0L31, 32L30, 32z" fill="#727272" class="Black" />
      </g>
    </g>
  </g>
  <g id="Layer_1" transform="translate(-0.875, 0)">
    <g transform="matrix(0.875, 0, 0, 0.875, 0, 0)">
      <g id="icon">
        <path d="M29, 8L29, 2C29, 1.448 28.552, 1 28, 1L13, 1C12.448, 1 12, 1.448 12, 2L12, 8C12, 8.552 12.448, 9 13, 9L28, 9C28.552, 9 29, 8.552 29, 8z" fill="#727272" class="Black" />
      </g>
    </g>
  </g>
  <g id="Layer_1" transform="translate(-0.875, 0)">
    <g transform="matrix(0.875, 0, 0, 0.875, 0, 0)">
      <g id="icon">
        <path d="M29, 19L29, 12C29, 11.448 28.552, 11 28, 11L2, 11C1.448, 11 1, 11.448 1, 12L1, 19C1, 19.552 1.448, 20 2, 20L28, 20C28.552, 20 29, 19.552 29, 19z" fill="#FFB115" class="Yellow" />
      </g>
    </g>
  </g>
  <g id="Layer_1" transform="translate(-0.875, 0)">
    <g transform="matrix(0.875, 0, 0, 0.875, 0, 0)">
      <g id="icon">
        <path d="M25.214, 28L7.201, 28C7.087, 27.997 7, 27.915 7, 27.804L7, 26.204C7, 26.092 7.092, 26 7.204, 26L25.206, 26L22.324, 23.137C22.274, 23.087 22.309, 23 22.381, 23L24.882, 23C24.967, 23 25.048, 23.034 25.109, 23.094L28.889, 26.868C28.995, 26.988 28.995, 27.029 28.883, 27.146L25.105, 30.907C25.045, 30.967 24.963, 31.001 24.878, 31.001L22.38, 31.001C22.309, 31.001 22.273, 30.915 22.323, 30.864L25.214, 28z" fill="#1177D7" class="Blue" />
      </g>
    </g>
  </g>
</svg>