<?xml version='1.0' encoding='UTF-8'?>
<svg viewBox="-2 -2.875 32 32" xmlns="http://www.w3.org/2000/svg" xmlns:xlink="http://www.w3.org/1999/xlink">
  <g id="Layer_1" transform="translate(0, -0.875)">
    <g transform="matrix(0.875, 0, 0, 0.875, 0, 0)">
      <g id="icon">
        <rect x="0" y="30" width="32" height="1" rx="0" ry="0" fill="#727272" class="Black" />
      </g>
    </g>
  </g>
  <g id="Layer_1" transform="translate(0, -0.875)">
    <g transform="matrix(0.875, 0, 0, 0.875, 0, 0)">
      <g id="icon">
        <path d="M8, 29L2, 29C1.4477, 29 1, 28.5523 1, 28L1, 13C1, 12.4477 1.4477, 12 2, 12L8, 12C8.5523, 12 9, 12.4477 9, 13L9, 28C9, 28.5523 8.5523, 29 8, 29z" fill="#727272" class="Black" />
      </g>
    </g>
  </g>
  <g id="Layer_1" transform="translate(0, -0.875)">
    <g transform="matrix(0.875, 0, 0, 0.875, 0, 0)">
      <g id="icon">
        <path d="M19, 29L12, 29C11.4477, 29 11, 28.5523 11, 28L11, 2C11, 1.4477 11.4477, 1 12, 1L19, 1C19.5523, 1 20, 1.4477 20, 2L20, 28C20, 28.5523 19.5523, 29 19, 29z" fill="#FFB115" class="Yellow" />
      </g>
    </g>
  </g>
  <g id="Layer_1" transform="translate(0, -0.875)">
    <g transform="matrix(0.875, 0, 0, 0.875, 0, 0)">
      <g id="icon">
        <path d="M28, 25.2141L28, 7.2015C27.9967, 7.0877 27.9146, 7 27.8042, 7L26.2042, 7C26.0919, 7 26, 7.0919 26, 7.2042L26, 25.206L23.1366, 22.3236C23.0862, 22.2731 23, 22.3088 23, 22.3801L23, 24.8811C23, 24.9661 23.0338, 25.0476 23.094, 25.1076L26.8676, 28.8877C26.9876, 28.9939 27.0282, 28.9939 27.1454, 28.8814L30.9061, 25.1032C30.9663, 25.0432 31.0001, 24.9617 31.0001, 24.8767L31.0001, 22.3801C31.0001, 22.3088 30.9139, 22.2731 30.8635, 22.3235L28, 25.2141z" fill="#1177D7" class="Blue" />
      </g>
    </g>
  </g>
</svg>