<?xml version='1.0' encoding='UTF-8'?>
<svg viewBox="-2.875 -2 32 32" xmlns="http://www.w3.org/2000/svg" xmlns:xlink="http://www.w3.org/1999/xlink">
  <g id="Layer_1" transform="translate(-0.875, 0)">
    <g transform="matrix(0.875, 0, 0, 0.875, 0, 0)">
      <g id="icon">
        <path d="M1, 32L1, 0L2, 0L2, 32L1, 32z" fill="#727272" class="Black" />
      </g>
    </g>
  </g>
  <g id="Layer_1" transform="translate(-0.875, 0)">
    <g transform="matrix(0.875, 0, 0, 0.875, 0, 0)">
      <g id="icon">
        <path d="M3, 8L3, 2C3, 1.448 3.448, 1 4, 1L19, 1C19.552, 1 20, 1.448 20, 2L20, 8C20, 8.552 19.552, 9 19, 9L4, 9C3.448, 9 3, 8.552 3, 8z" fill="#727272" class="Black" />
      </g>
    </g>
  </g>
  <g id="Layer_1" transform="translate(-0.875, 0)">
    <g transform="matrix(0.875, 0, 0, 0.875, 0, 0)">
      <g id="icon">
        <path d="M3, 19L3, 12C3, 11.448 3.448, 11 4, 11L30, 11C30.552, 11 31, 11.448 31, 12L31, 19C31, 19.552 30.552, 20 30, 20L4, 20C3.448, 20 3, 19.552 3, 19z" fill="#FFB115" class="Yellow" />
      </g>
    </g>
  </g>
  <g id="Layer_1" transform="translate(-0.875, 0)">
    <g transform="matrix(0.875, 0, 0, 0.875, 0, 0)">
      <g id="icon">
        <path d="M6.786, 28L24.799, 28C24.913, 27.997 25, 27.915 25, 27.804L25, 26.204C25, 26.092 24.908, 26 24.796, 26L6.794, 26L9.676, 23.137C9.726, 23.087 9.691, 23 9.619, 23L7.119, 23C7.034, 23 6.953, 23.034 6.892, 23.094L3.112, 26.868C3.006, 26.988 3.006, 27.029 3.118, 27.146L6.896, 30.907C6.956, 30.967 7.038, 31.001 7.123, 31.001L9.62, 31.001C9.691, 31.001 9.727, 30.915 9.677, 30.864L6.786, 28z" fill="#1177D7" class="Blue" />
      </g>
    </g>
  </g>
</svg>