<?xml version='1.0' encoding='UTF-8'?>
<svg viewBox="-2 -2.875 32 32" xmlns="http://www.w3.org/2000/svg" xmlns:xlink="http://www.w3.org/1999/xlink">
  <g id="Layer_1" transform="translate(0, -0.875)">
    <g transform="matrix(0.875, 0, 0, 0.875, 0, 0)">
      <g id="icon">
        <rect x="0" y="1" width="32" height="1" rx="0" ry="0" fill="#727272" class="Black" />
      </g>
    </g>
  </g>
  <g id="Layer_1" transform="translate(0, -0.875)">
    <g transform="matrix(0.875, 0, 0, 0.875, 0, 0)">
      <g id="icon">
        <path d="M8, 3L2, 3C1.4477, 3 1, 3.4477 1, 4L1, 19C1, 19.5523 1.4477, 20 2, 20L8, 20C8.5523, 20 9, 19.5523 9, 19L9, 4C9, 3.4477 8.5523, 3 8, 3z" fill="#727272" class="Black" />
      </g>
    </g>
  </g>
  <g id="Layer_1" transform="translate(0, -0.875)">
    <g transform="matrix(0.875, 0, 0, 0.875, 0, 0)">
      <g id="icon">
        <path d="M19, 3L12, 3C11.4477, 3 11, 3.4477 11, 4L11, 30C11, 30.5523 11.4477, 31 12, 31L19, 31C19.5523, 31 20, 30.5523 20, 30L20, 4C20, 3.4477 19.5523, 3 19, 3z" fill="#FFB115" class="Yellow" />
      </g>
    </g>
  </g>
  <g id="Layer_1" transform="translate(0, -0.875)">
    <g transform="matrix(0.875, 0, 0, 0.875, 0, 0)">
      <g id="icon">
        <path d="M28, 6.7859L28, 24.7986C27.9967, 24.9124 27.9146, 25 27.8042, 25L26.2042, 25C26.0919, 25 26, 24.9081 26, 24.7958L26, 6.794L23.1366, 9.6764C23.0862, 9.7269 23, 9.6912 23, 9.6199L23, 7.1189C23, 7.0339 23.0338, 6.9524 23.094, 6.8924L26.8676, 3.1123C26.9876, 3.0061 27.0282, 3.0061 27.1454, 3.1186L30.9061, 6.8968C30.9663, 6.9568 31.0001, 7.0383 31.0001, 7.1233L31.0001, 9.6199C31.0001, 9.6912 30.9139, 9.7269 30.8635, 9.6765L28, 6.7859z" fill="#1177D7" class="Blue" />
      </g>
    </g>
  </g>
</svg>