<?xml version='1.0' encoding='UTF-8'?>
<svg viewBox="-2 -3.3125 32 32" xmlns="http://www.w3.org/2000/svg" xmlns:xlink="http://www.w3.org/1999/xlink">
  <g id="Layer_1" transform="translate(0, -1.75)">
    <g transform="matrix(0.875, 0, 0, 0.875, 0, 0)">
      <g id="icon">
        <rect x="0" y="16" width="32" height="1" rx="0" ry="0" fill="#727272" class="Black" />
      </g>
    </g>
  </g>
  <g id="Layer_1" transform="translate(0, -1.75)">
    <g transform="matrix(0.875, 0, 0, 0.875, 0, 0)">
      <g id="icon">
        <path d="M12, 25L6, 25C5.4477, 25 5, 24.5523 5, 24L5, 9C5, 8.4477 5.4477, 8 6, 8L12, 8C12.5523, 8 13, 8.4477 13, 9L13, 24C13, 24.5523 12.5523, 25 12, 25z" fill="#727272" class="Black" />
      </g>
    </g>
  </g>
  <g id="Layer_1" transform="translate(0, -1.75)">
    <g transform="matrix(0.875, 0, 0, 0.875, 0, 0)">
      <g id="icon">
        <path d="M24.9272, 31L17.0727, 31C16.4802, 31 15.9999, 30.5197 15.9999, 29.9272L15.9999, 3.0728C16, 2.4803 16.4803, 2 17.0728, 2L24.9273, 2C25.5197, 2 26, 2.4803 26, 3.0728L26, 29.9273C26, 30.5197 25.5197, 31 24.9272, 31z" fill="#FFB115" class="Yellow" />
      </g>
    </g>
  </g>
</svg>