<?xml version='1.0' encoding='UTF-8'?>
<svg viewBox="-2 -2 32 32" xmlns="http://www.w3.org/2000/svg" xmlns:xlink="http://www.w3.org/1999/xlink">
  <g id="Layer_1" transform="translate(-0.9333, -0.9333)">
    <g transform="matrix(0.9333, 0, 0, 0.9333, 0, 0)">
      <g id="icon">
        <path d="M30.05, 12L1.95, 12C1.425, 12 1, 11.575 1, 11.05L1, 1.95C1, 1.425 1.425, 1 1.95, 1L30.05, 1C30.575, 1 31, 1.425 31, 1.95L31, 11.05C31, 11.575 30.575, 12 30.05, 12z" fill="#FFB115" class="Yellow" />
      </g>
    </g>
  </g>
  <g id="Layer_1" transform="translate(-0.9333, -0.9333)">
    <g transform="matrix(0.9333, 0, 0, 0.9333, 0, 0)">
      <g id="icon">
        <path d="M1, 26L2, 26L2, 28L1, 28L1, 26zM1, 31L2, 31L2, 29L1, 29L1, 31zM1, 25L2, 25L2, 23L1, 23L1, 25zM1, 22L2, 22L2, 20L1, 20L1, 22zM1, 19L2, 19L2, 17L1, 17L1, 19zM1, 16L2, 16L2, 14L1, 14L1, 16z" fill="#727272" class="Black" />
      </g>
    </g>
  </g>
  <g id="Layer_1" transform="translate(-0.9333, -0.9333)">
    <g transform="matrix(0.9333, 0, 0, 0.9333, 0, 0)">
      <g id="icon">
        <path d="M30, 26L31, 26L31, 28L30, 28L30, 26zM30, 31L31, 31L31, 29L30, 29L30, 31zM30, 25L31, 25L31, 23L30, 23L30, 25zM30, 22L31, 22L31, 20L30, 20L30, 22zM30, 19L31, 19L31, 17L30, 17L30, 19zM30, 16L31, 16L31, 14L30, 14L30, 16z" fill="#727272" class="Black" />
      </g>
    </g>
  </g>
  <g id="Layer_1" transform="translate(-0.9333, -0.9333)">
    <g transform="matrix(0.9333, 0, 0, 0.9333, 0, 0)">
      <g id="icon">
        <path d="M2.982, 23.5L5.482, 21L7.095, 21L5.144, 23L10, 23L10, 24L5.144, 24L7.095, 26L5.482, 26L2.982, 23.5z" fill="#1177D7" class="Blue" />
      </g>
    </g>
  </g>
  <g id="Layer_1" transform="translate(-0.9333, -0.9333)">
    <g transform="matrix(0.9333, 0, 0, 0.9333, 0, 0)">
      <g id="icon">
        <path d="M29, 23.5L26.506, 26L24.897, 26L26.843, 24L22, 24L22, 23L26.843, 23L24.897, 21L26.506, 21L29, 23.5z" fill="#1177D7" class="Blue" />
      </g>
    </g>
  </g>
  <g id="Layer_1" transform="translate(-0.9333, -0.9333)">
    <g transform="matrix(0.9333, 0, 0, 0.9333, 0, 0)">
      <g id="icon">
        <g>
          <path d="M20.5, 19.467L20.5, 27.534C20.5, 28.068 20.067, 28.501 19.533, 28.501L12.466, 28.501C11.932, 28.501 11.499, 28.068 11.499, 27.534L11.499, 19.467C11.499, 18.933 11.932, 18.5 12.466, 18.5L19.533, 18.5C20.067, 18.5 20.5, 18.933 20.5, 19.467z" fill="#FFFFFF" />
        </g>
      </g>
    </g>
  </g>
  <g id="Layer_1" transform="translate(-0.9333, -0.9333)">
    <g transform="matrix(0.9333, 0, 0, 0.9333, 0, 0)">
      <g id="icon">
        <g>
          <path d="M19.533, 29L12.466, 29C11.657, 29 10.999, 28.342 10.999, 27.533L10.999, 19.466C10.999, 18.657 11.657, 17.999 12.466, 17.999L19.533, 17.999C20.342, 17.999 21, 18.657 21, 19.466L21, 27.533C21, 28.342 20.342, 29 19.533, 29zM12.467, 19C12.21, 19 12, 19.209 12, 19.467L12, 27.534C12, 27.791 12.209, 28.001 12.467, 28.001L19.534, 28.001C19.791, 28.001 20.001, 27.792 20.001, 27.534L20.001, 19.467C20.001, 19.21 19.792, 19 19.534, 19L12.467, 19z" fill="#727272" class="Black" />
        </g>
      </g>
    </g>
  </g>
  <g id="Layer_1" transform="translate(-0.9333, -0.9333)">
    <g transform="matrix(0.9333, 0, 0, 0.9333, 0, 0)">
      <g id="icon">
        <path d="M19, 20L19, 27L13, 27L13, 20L19, 20z" fill="#727272" class="Black" />
      </g>
    </g>
  </g>
</svg>