<?xml version='1.0' encoding='UTF-8'?>
<svg viewBox="-2 -2 32 32" xmlns="http://www.w3.org/2000/svg" xmlns:xlink="http://www.w3.org/1999/xlink">
  <g id="Layer_1" transform="translate(-0.9333, -0.9333)">
    <g transform="matrix(0.9333, 0, 0, 0.9333, 0, 0)">
      <g id="icon">
        <path d="M20, 30.05L20, 1.95C20, 1.425 20.425, 1 20.95, 1L30.05, 1C30.575, 1 31, 1.425 31, 1.95L31, 30.05C31, 30.575 30.575, 31 30.05, 31L20.95, 31C20.425, 31 20, 30.575 20, 30.05z" fill="#FFB115" class="Yellow" />
      </g>
    </g>
  </g>
  <g id="Layer_1" transform="translate(-0.9333, -0.9333)">
    <g transform="matrix(0.9333, 0, 0, 0.9333, 0, 0)">
      <g id="icon">
        <path d="M6, 1L6, 2L4, 2L4, 1L6, 1zM1, 1L1, 2L3, 2L3, 1L1, 1zM7, 1L7, 2L9, 2L9, 1L7, 1zM10, 1L10, 2L12, 2L12, 1L10, 1zM13, 1L13, 2L15, 2L15, 1L13, 1zM16, 1L16, 2L18, 2L18, 1L16, 1z" fill="#727272" class="Black" />
      </g>
    </g>
  </g>
  <g id="Layer_1" transform="translate(-0.9333, -0.9333)">
    <g transform="matrix(0.9333, 0, 0, 0.9333, 0, 0)">
      <g id="icon">
        <path d="M6, 30L6, 31L4, 31L4, 30L6, 30zM1, 30L1, 31L3, 31L3, 30L1, 30zM7, 30L7, 31L9, 31L9, 30L7, 30zM10, 30L10, 31L12, 31L12, 30L10, 30zM13, 30L13, 31L15, 31L15, 30L13, 30zM16, 30L16, 31L18, 31L18, 30L16, 30z" fill="#727272" class="Black" />
      </g>
    </g>
  </g>
  <g id="Layer_1" transform="translate(-0.9333, -0.9333)">
    <g transform="matrix(0.9333, 0, 0, 0.9333, 0, 0)">
      <g id="icon">
        <polygon points="6,5.482 6,7.095 8,5.144 8,10 9,10 9,5.144 11,7.095 11,5.482 8.5,2.982" fill="#1177D7" class="Blue" />
      </g>
    </g>
  </g>
  <g id="Layer_1" transform="translate(-0.9333, -0.9333)">
    <g transform="matrix(0.9333, 0, 0, 0.9333, 0, 0)">
      <g id="icon">
        <polygon points="11,26.506 11,24.898 9,26.843 9,22 8,22 8,26.843 6,24.898 6,26.506 8.5,29" fill="#1177D7" class="Blue" />
      </g>
    </g>
  </g>
  <g id="Layer_1" transform="translate(-0.9333, -0.9333)">
    <g transform="matrix(0.9333, 0, 0, 0.9333, 0, 0)">
      <g id="icon">
        <g>
          <path d="M12.533, 20.5L4.467, 20.5C3.933, 20.5 3.5, 20.067 3.5, 19.533L3.5, 12.466C3.5, 11.932 3.933, 11.499 4.467, 11.499L12.534, 11.499C13.068, 11.499 13.501, 11.932 13.501, 12.466L13.501, 19.533C13.5, 20.067 13.067, 20.5 12.533, 20.5z" fill="#FFFFFF" />
        </g>
      </g>
    </g>
  </g>
  <g id="Layer_1" transform="translate(-0.9333, -0.9333)">
    <g transform="matrix(0.9333, 0, 0, 0.9333, 0, 0)">
      <g id="icon">
        <g>
          <path d="M12.533, 21L4.467, 21C3.658, 21 3, 20.342 3, 19.533L3, 12.466C3, 11.657 3.658, 10.999 4.467, 10.999L12.534, 10.999C13.343, 10.999 14.001, 11.657 14.001, 12.466L14.001, 19.533C14, 20.342 13.342, 21 12.533, 21zM4.467, 12C4.21, 12 4, 12.209 4, 12.467L4, 19.534C4, 19.791 4.209, 20.001 4.467, 20.001L12.534, 20.001C12.791, 20.001 13.001, 19.792 13.001, 19.534L13.001, 12.467C13.001, 12.21 12.792, 12 12.534, 12L4.467, 12z" fill="#727272" class="Black" />
        </g>
      </g>
    </g>
  </g>
  <g id="Layer_1" transform="translate(-0.9333, -0.9333)">
    <g transform="matrix(0.9333, 0, 0, 0.9333, 0, 0)">
      <g id="icon">
        <path d="M12, 19L5, 19L5, 13L12, 13L12, 19z" fill="#727272" class="Black" />
      </g>
    </g>
  </g>
</svg>