<?xml version='1.0' encoding='UTF-8'?>
<svg viewBox="-4.09 -0.9975 32 32" xmlns="http://www.w3.org/2000/svg" xmlns:xlink="http://www.w3.org/1999/xlink">
  <g transform="translate(0.002, 0.0026)">
    <g transform="matrix(1.0715, 0, 0, 1.0715, 0, 0)">
      <g id="Layer_1" transform="translate(-3.8215, -0.9358)">
        <g transform="matrix(0.9333, 0, 0, 0.9333, 0, 0)">
          <g id="icon">
            <path d="M13.956, 16.777C14.267, 16.495 14.574, 16.321 15.147, 16.255L15.147, 19.314C14.574, 19.184 14.159, 18.991 13.891, 18.734C13.623, 18.477 13.47, 18.158 13.47, 17.777C13.471, 17.392 13.645, 17.059 13.956, 16.777zM10.275, 6.68C10.376, 6.804 10.479, 6.925 10.584, 7.045C10.718, 7.016 10.858, 7.001 11, 7.001L21, 7.001C21.177, 7.001 21.348, 7.026 21.512, 7.07C22.202, 6.398 22.865, 5.791 23.439, 5.065C23.881, 4.506 24.185, 3.779 24.36, 3.079C24.593, 2.145 23.863, 1.37 22.902, 1.416C22.522, 1.434 22.119, 1.503 21.776, 1.657C20.737, 2.124 19.723, 2.644 18.701, 3.142C18.303, 2.699 17.891, 2.185 17.422, 1.729C16.43, 0.765 15.715, 0.757 14.716, 1.707C14.231, 2.168 13.812, 2.699 13.362, 3.199C12.769, 2.863 12.196, 2.464 11.566, 2.199C10.799, 1.876 10, 1.574 9.185, 1.431C8.38, 1.29 7.72, 1.926 7.75, 2.75C7.768, 3.252 7.879, 3.723 8.15, 4.128C8.793, 5.089 9.543, 5.78 10.275, 6.68zM16.868, 21.209L16.868, 24.527C17.25, 24.474 17.674, 24.287 18.022, 23.966C18.37, 23.646 18.523, 23.249 18.523, 22.777C18.523, 22.375 18.434, 22.051 18.193, 21.807C17.951, 21.563 17.441, 21.364 16.868, 21.209zM26.123, 26.692C23.748, 29.483 20.531, 30.781 16.923, 30.975C13.826, 31.141 10.824, 30.489 8.228, 28.738C6.025, 27.252 4.54, 25.271 4.145, 22.569C3.985, 21.475 4.191, 20.468 4.669, 19.485C5.71, 17.345 7.135, 15.467 8.631, 13.641C9.304, 12.82 10.053, 11.875 10.781, 10.987C10.853, 10.995 10.926, 11 11, 11L21, 11C21.096, 11 21.191, 10.991 21.283, 10.978C23.153, 13.103 24.995, 15.412 26.479, 17.786C27.158, 18.872 27.849, 19.982 27.97, 21.289C28.16, 23.348 27.432, 25.154 26.123, 26.692zM20.246, 22.681C20.246, 22.286 20.154, 21.919 19.99, 21.579C19.826, 21.24 19.598, 20.947 19.292, 20.7C18.986, 20.454 18.598, 20.119 18.147, 19.958C17.91, 19.876 17.44, 19.758 16.867, 19.605L16.867, 16.236C17.249, 16.315 17.542, 16.478 17.812, 16.725C18.083, 16.972 18.226, 17.327 18.312, 17.791L19.991, 17.434C19.853, 16.637 19.477, 16.009 18.798, 15.552C18.269, 15.193 17.631, 14.979 16.867, 14.908L16.867, 14L15.215, 14L15.174, 14.986C14.111, 15.072 13.434, 15.252 12.894, 15.635C12.086, 16.204 11.682, 16.943 11.682, 17.86C11.682, 18.376 11.821, 18.835 12.098, 19.241C12.375, 19.647 12.771, 19.964 13.284, 20.193C13.976, 20.504 14.462, 20.726 15.113, 20.861L15.154, 24.538C14.541, 24.487 14.202, 24.238 13.762, 23.792C13.455, 23.476 13.243, 22.981 13.122, 22.307L11.419, 22.806C11.477, 23.457 11.689, 24.008 12.045, 24.458C12.4, 24.909 12.815, 25.235 13.302, 25.438C13.789, 25.64 14.381, 25.818 15.146, 25.897L15.146, 27L16.866, 27L16.866, 25.886C17.821, 25.844 18.554, 25.438 19.241, 24.857C19.929, 24.275 20.246, 23.55 20.246, 22.681z" fill="#727272" class="Black" />
          </g>
        </g>
      </g>
    </g>
  </g>
  <g transform="translate(0.002, 0.0026)">
    <g transform="matrix(1.0715, 0, 0, 1.0715, 0, 0)">
      <g id="Layer_1" transform="translate(-3.8215, -0.9358)">
        <g transform="matrix(0.9333, 0, 0, 0.9333, 0, 0)">
          <g id="icon">
            <path d="M21, 10L11, 10C10.448, 10 10, 9.552 10, 9L10, 9C10, 8.448 10.448, 8 11, 8L21, 8C21.552, 8 22, 8.448 22, 9L22, 9C22, 9.552 21.552, 10 21, 10z" fill="#1177D7" class="Blue" />
          </g>
        </g>
      </g>
    </g>
  </g>
  <g transform="translate(0.002, 0.0026)">
    <g transform="matrix(1.0715, 0, 0, 1.0715, 0, 0)">
      <g id="Layer_1" transform="translate(-3.8215, -0.9358)">
        <g transform="matrix(0.9333, 0, 0, 0.9333, 0, 0)">
          <g id="icon">
            <path d="M16.868, 27L16.868, 25.886C17.823, 25.844 18.556, 25.438 19.243, 24.857C19.929, 24.276 20.247, 23.55 20.247, 22.681C20.247, 22.286 20.155, 21.919 19.991, 21.579C19.827, 21.24 19.599, 20.947 19.293, 20.7C18.987, 20.454 18.599, 20.119 18.148, 19.958C17.911, 19.876 17.441, 19.758 16.868, 19.605L16.868, 16.236C17.25, 16.315 17.543, 16.478 17.813, 16.725C18.084, 16.972 18.227, 17.327 18.313, 17.791L19.992, 17.434C19.854, 16.637 19.478, 16.009 18.799, 15.552C18.27, 15.193 17.632, 14.979 16.868, 14.908L16.868, 14L15.216, 14L15.175, 14.986C14.112, 15.072 13.435, 15.252 12.895, 15.635C12.087, 16.204 11.683, 16.943 11.683, 17.86C11.683, 18.376 11.822, 18.835 12.099, 19.241C12.376, 19.647 12.772, 19.964 13.285, 20.193C13.977, 20.504 14.463, 20.726 15.114, 20.861L15.155, 24.538C14.542, 24.487 14.203, 24.238 13.763, 23.792C13.456, 23.476 13.244, 22.981 13.123, 22.307L11.42, 22.806C11.478, 23.457 11.69, 24.008 12.046, 24.458C12.401, 24.909 12.816, 25.235 13.303, 25.438C13.79, 25.64 14.382, 25.818 15.147, 25.897L15.147, 27L16.868, 27zM16.868, 21.209C17.441, 21.364 17.951, 21.563 18.193, 21.808C18.434, 22.052 18.523, 22.376 18.523, 22.778C18.523, 23.25 18.37, 23.646 18.022, 23.967C17.674, 24.287 17.25, 24.474 16.868, 24.528L16.868, 21.209zM15.148, 19.314C14.575, 19.184 14.16, 18.991 13.892, 18.734C13.624, 18.477 13.471, 18.158 13.471, 17.777C13.471, 17.392 13.645, 17.058 13.956, 16.777C14.267, 16.495 14.574, 16.321 15.147, 16.255L15.147, 19.314z" fill="#FFFFFF" fill-rule="evenodd" />
          </g>
        </g>
      </g>
    </g>
  </g>
</svg>