<?xml version='1.0' encoding='UTF-8'?>
<svg viewBox="0 -2 32 32" xmlns="http://www.w3.org/2000/svg" xmlns:xlink="http://www.w3.org/1999/xlink">
  <g id="Layer_1" transform="translate(-0.9357, -0.9357)">
    <g transform="matrix(0.9334, 0, 0, 0.9334, 0, 0)">
      <g id="icon">
        <path d="M16.001, 2.572C23.418, 2.572 29.43, 8.585 29.43, 16.001C29.43, 23.418 23.417, 29.43 16.001, 29.43C8.584, 29.43 2.572, 23.417 2.572, 16.001C2.572, 8.584 8.584, 2.572 16.001, 2.572z" fill="#FFFFFF" fill-rule="evenodd" />
      </g>
    </g>
  </g>
  <g id="Layer_1" transform="translate(-0.9357, -0.9357)">
    <g transform="matrix(0.9334, 0, 0, 0.9334, 0, 0)">
      <g id="icon">
        <path d="M15.5, 17.104L24.834, 26.355C27.828, 23.847 29.732, 20.082 29.732, 15.871C29.732, 8.321 23.611, 2.2 16.06, 2.2C15.872, 2.2 15.686, 2.205 15.5, 2.212L15.5, 17.104z" fill="#FACCD0" style="fill:#D11C1C;fill-opacity:0.333" fill-rule="evenodd" />
      </g>
    </g>
  </g>
  <g id="Layer_1" transform="translate(-0.9357, -0.9357)">
    <g transform="matrix(0.9334, 0, 0, 0.9334, 0, 0)">
      <g id="icon">
        <path d="M16.001, 31C7.731, 31 1.002, 24.272 1.002, 16.001C1.002, 7.73 7.731, 1.002 16.001, 1.002C24.271, 1.002 31, 7.731 31, 16.001C31, 24.271 24.272, 31 16.001, 31zM16.001, 2.948C8.803, 2.948 2.948, 8.804 2.948, 16.001C2.948, 23.198 8.804, 29.054 16.001, 29.054C23.198, 29.054 29.054, 23.198 29.054, 16.001C29.054, 8.804 23.199, 2.948 16.001, 2.948z" fill="#727272" class="Black" fill-rule="evenodd" />
      </g>
    </g>
  </g>
  <g id="Layer_1" transform="translate(-0.9357, -0.9357)">
    <g transform="matrix(0.9334, 0, 0, 0.9334, 0, 0)">
      <g id="icon">
        <path d="M14.169, 15.628C14.164, 16.977 14.294, 17.594 15.457, 17.6C16.62, 17.605 16.638, 16.849 16.643, 15.499C16.648, 14.15 16.254, 3.804 15.5, 3.8C14.746, 3.796 14.174, 14.279 14.169, 15.628z" fill="#1177D7" class="Blue" fill-rule="evenodd" />
      </g>
    </g>
  </g>
  <g id="Layer_1" transform="translate(-0.9357, -0.9357)">
    <g transform="matrix(0.9334, 0, 0, 0.9334, 0, 0)">
      <g id="icon">
        <path d="M17.35, 16.955C16.146, 15.743 15.549, 15.339 14.722, 16.158C13.896, 16.977 14.17, 17.33 15.374, 18.543C16.578, 19.755 23.113, 25.683 23.648, 25.152C24.184, 24.621 18.554, 18.167 17.35, 16.955z" fill="#1177D7" class="Blue" fill-rule="evenodd" />
      </g>
    </g>
  </g>
  <g id="Layer_1" transform="translate(18, 16)" style="enable-background:new 0 0 16 16">
    <g id="Sum">
      <polygon points="14,4 14,2 2,2 8,8 8,8 4,12 4,12 4,12 2,14 14,14 14,12 6.8,12 10.8,8 10.8,8 6.8,4  " fill="#1177D7" class="Blue" />
    </g>
  </g>
</svg>