<?xml version='1.0' encoding='UTF-8'?>
<svg viewBox="-4 -4 32 32" xmlns="http://www.w3.org/2000/svg" xmlns:xlink="http://www.w3.org/1999/xlink">
  <g id="Layer_1" transform="translate(-4, -4)" style="enable-background:new 0 0 32 32">
    <g id="Cut">
      <path d="M9, 18C6.2, 18 4, 20.2 4, 23C4, 25.8 6.2, 28 9, 28C11.8, 28 14, 25.8 14, 23C14, 20.2 11.8, 18 9, 18zM9, 26C7.3, 26 6, 24.7 6, 23C6, 21.3 7.3, 20 9, 20C10.7, 20 12, 21.3 12, 23C12, 24.7 10.7, 26 9, 26z" fill="#727272" class="Black" />
    </g>
  </g>
  <g id="Layer_1" transform="translate(-4, -4)" style="enable-background:new 0 0 32 32">
    <g id="Cut">
      <polygon points="20.7,14.8 26,4 17.4,11.6  " fill="#727272" class="Black" />
    </g>
  </g>
  <g id="Layer_1" transform="translate(-4, -4)" style="enable-background:new 0 0 32 32">
    <g id="Cut">
      <path d="M23, 18C22.4, 18 21.8, 18.1 21.3, 18.3L6, 4L13, 18L16, 18L18.6, 20.6C18.2, 21.3 18, 22.1 18, 23C18, 25.8 20.2, 28 23, 28C25.8, 28 28, 25.8 28, 23C28, 20.2 25.8, 18 23, 18zM23, 26C21.3, 26 20, 24.7 20, 23C20, 21.3 21.3, 20 23, 20C24.7, 20 26, 21.3 26, 23C26, 24.7 24.7, 26 23, 26z" fill="#727272" class="Black" />
    </g>
  </g>
</svg>