<?xml version='1.0' encoding='UTF-8'?>
<svg viewBox="-2 -2.475 32 32" xmlns="http://www.w3.org/2000/svg" xmlns:xlink="http://www.w3.org/1999/xlink">
  <g id="Layer_1" transform="translate(-0.9444, -1.8659)">
    <g transform="matrix(0.9327, 0, 0, 0.9327, 0, 0)">
      <g id="icon">
        <path d="M26.214, 28L2.201, 28C2.087, 27.997 2, 27.915 2, 27.804L2, 26.204C2, 26.092 2.092, 26 2.204, 26L26.206, 26L23.324, 23.137C23.274, 23.087 23.309, 23 23.381, 23L25.882, 23C25.967, 23 26.048, 23.034 26.109, 23.094L29.889, 26.868C29.995, 26.988 29.995, 27.029 29.883, 27.146L26.105, 30.907C26.045, 30.967 25.963, 31.001 25.878, 31.001L23.38, 31.001C23.309, 31.001 23.273, 30.915 23.323, 30.864L26.214, 28z" fill="#1177D7" class="Blue" />
      </g>
    </g>
  </g>
  <g id="Layer_1" transform="translate(-0.9444, -1.8659)">
    <g transform="matrix(0.9327, 0, 0, 0.9327, 0, 0)">
      <g id="icon">
        <path d="M5.316, 15.095L3.433, 21.104L1.012, 21.104L7.199, 2L9.997, 2L16.184, 21.104L13.682, 21.104L11.745, 15.095L5.316, 15.095zM11.288, 13.168L9.485, 7.669C9.081, 6.422 8.813, 5.288 8.543, 4.183L8.49, 4.183C8.221, 5.288 7.952, 6.479 7.575, 7.641L5.8, 13.168L11.288, 13.168zM18.686, 2.006L21.026, 2.006L21.026, 10.183L21.08, 10.183C21.914, 8.731 23.42, 7.816 25.518, 7.816C28.773, 7.816 31.032, 10.506 31.032, 14.433C31.032, 19.087 28.073, 21.4 25.168, 21.4C23.285, 21.4 21.779, 20.674 20.783, 18.979L20.729, 18.979L20.595, 21.104L18.577, 21.104C18.631, 20.216 18.685, 18.898 18.685, 17.742L18.685, 2.006zM21.026, 15.886C21.026, 16.182 21.053, 16.478 21.134, 16.747C21.564, 18.388 22.963, 19.518 24.685, 19.518C27.187, 19.518 28.639, 17.501 28.639, 14.515C28.639, 11.906 27.294, 9.673 24.739, 9.673C23.152, 9.673 21.646, 10.803 21.161, 12.578C21.08, 12.874 21.027, 13.197 21.027, 13.573L21.027, 15.886z" fill="#727272" class="Black" />
      </g>
    </g>
  </g>
</svg>