<?xml version='1.0' encoding='UTF-8'?>
<svg viewBox="-2 -2.4825 32 32" xmlns="http://www.w3.org/2000/svg" xmlns:xlink="http://www.w3.org/1999/xlink">
  <g id="Layer_1" transform="translate(-0.9323, -0.9335)">
    <g transform="matrix(0.9323, 0, 0, 0.9323, 0, 0)">
      <g id="icon">
        <path d="M30.8836, 29.2578L18.2315, 17.467L13.8798, 21.8042L16.1, 24L10.7588, 24L6.8074, 26.0713C6.6437, 26.1571 6.4594, 26.2026 6.2745, 26.2026C5.9685, 26.2026 5.6808, 26.0838 5.4641, 25.8678L5.2373, 25.6417C4.8782, 25.2837 4.796, 24.742 5.0328, 24.2938L7, 20.566L7, 15L9.2921, 17.2669L13.508, 13.0651L1.7186, 2.1011C1.445, 1.8685 1, 2.063 1, 2.4221L1, 29.5788C1, 29.8114 1.2377, 30 1.4703, 30L30.6107, 30C31.0027, 30 31.1822, 29.5116 30.8836, 29.2578z" fill="#FFB115" class="Yellow" fill-rule="evenodd" />
      </g>
    </g>
  </g>
  <g id="Layer_1" transform="translate(-0.9323, -0.9335)">
    <g transform="matrix(0.9323, 0, 0, 0.9323, 0, 0)">
      <g id="icon">
        <path d="M4, 29L3, 29L3, 26L4, 26L4, 29zM6, 27.0333L5, 27.0333L5, 29L6, 29L6, 27.0333zM8, 27.0333L7, 27.0333L7, 29L8, 29L8, 27.0333zM10, 27.0333L9, 27.0333L9, 29L10, 29L10, 27.0333zM12, 27.0333L11, 27.0333L11, 29L12, 29L12, 27.0333zM14, 26L13, 26L13, 29L14, 29L14, 26zM24, 26L23, 26L23, 29L24, 29L24, 26zM16, 27.0333L15, 27.0333L15, 29L16, 29L16, 27.0333zM18, 27.0333L17, 27.0333L17, 29L18, 29L18, 27.0333zM20, 27.0333L19, 27.0333L19, 29L20, 29L20, 27.0333zM22, 27.0333L21, 27.0333L21, 29L22, 29L22, 27.0333z" fill="#727272" class="Black" fill-rule="evenodd" />
      </g>
    </g>
  </g>
  <g id="Layer_1" transform="translate(-0.9323, -0.9335)">
    <g transform="matrix(0.9323, 0, 0, 0.9323, 0, 0)">
      <g id="icon">
        <path d="M9.7794, 18.1931L24.4887, 3.533C24.5463, 3.4756 24.6398, 3.4756 24.6974, 3.533L27.6422, 6.4679C27.6998, 6.5253 27.6998, 6.6185 27.6422, 6.6759L12.9329, 21.3361C12.8753, 21.3935 12.7818, 21.3935 12.7242, 21.3361L9.7795, 18.4012C9.7218, 18.3437 9.7218, 18.2506 9.7794, 18.1931zM26.6375, 1.3913C27.161, 0.8695 27.6938, 0.8695 28.2173, 1.3913L29.6866, 2.8556C30.1805, 3.3479 30.1805, 4.146 29.6866, 4.6382L28.5964, 5.7248C28.5389, 5.7821 28.4458, 5.7823 28.3881, 5.7253L25.422, 2.7949C25.3636, 2.7372 25.3638, 2.6432 25.4223, 2.5857L26.6375, 1.3913zM5.917, 24.7609L8.8498, 19.2035C8.8961, 19.1158 9.0145, 19.0979 9.0848, 19.168L11.9549, 22.0285C12.0252, 22.0986 12.0073, 22.2166 11.9192, 22.2627L6.3432, 25.1857C6.286, 25.2157 6.2158, 25.2051 6.1701, 25.1595L5.9433, 24.9334C5.8975, 24.8878 5.8869, 24.8179 5.917, 24.7609z" fill="#1177D7" class="Blue" fill-rule="evenodd" />
      </g>
    </g>
  </g>
</svg>