<?xml version='1.0' encoding='UTF-8'?>
<svg viewBox="-1 -1 32 32" xmlns="http://www.w3.org/2000/svg" xmlns:xlink="http://www.w3.org/1999/xlink">
  <g transform="translate(0, 0)">
    <g transform="matrix(1.0357, 0, 0, 1.0357, 0, 0)">
      <g transform="translate(0, 0)">
        <g transform="matrix(0.9655, 0, 0, 0.9655, 0, 0)">
          <g transform="translate(0, 0)">
            <g transform="matrix(0.9062, 0, 0, 0.9062, 0, 0)">
              <g transform="translate(0, 0)">
                <g transform="matrix(1.1429, 0, 0, 1.1429, 0, 0)">
                  <g id="Layer_1" transform="translate(-0.9655, -0.9655)">
                    <g transform="matrix(0.9655, 0, 0, 0.9655, 0, 0)">
                      <g id="icon">
                        <path d="M30, 15.5C30, 7.4919 23.5081, 1 15.5, 1C7.4919, 1 1, 7.4919 1, 15.5C1, 23.5081 7.4919, 30 15.5, 30C23.5081, 30 30, 23.5081 30, 15.5zM23, 23.7C23, 23.8657 22.8657, 24 22.7, 24L8.3, 24C8.1343, 24 8, 23.8657 8, 23.7L8, 21.3C8, 21.1343 8.1343, 21 8.3, 21L15.381, 21C15.3356, 20.9862 15.2924, 20.9627 15.2564, 20.9269L9.0589, 14.7566C9.0212, 14.7191 9, 14.6681 9, 14.6149L9, 11.0124C9, 10.8342 9.2154, 10.745 9.3414, 10.871L14, 15.5296L14, 6.3C14, 6.1343 14.1343, 6 14.3, 6L16.7, 6C16.8657, 6 17, 6.1343 17, 6.3L17, 15.4593L21.6586, 10.8007C21.7846, 10.6747 22, 10.7639 22, 10.9421L22, 14.5473C22, 14.6005 21.9788, 14.6515 21.9412, 14.689L15.6799, 20.9268C15.6439, 20.9627 15.6007, 20.9862 15.5553, 21L22.7, 21C22.8657, 21 23, 21.1343 23, 21.3L23, 23.7z" fill="#039C23" class="Green" fill-rule="evenodd" />
                      </g>
                    </g>
                  </g>
                </g>
              </g>
            </g>
          </g>
        </g>
      </g>
    </g>
  </g>
  <g transform="translate(0, 0)">
    <g transform="matrix(1.0357, 0, 0, 1.0357, 0, 0)">
      <g transform="translate(0, 0)">
        <g transform="matrix(0.9655, 0, 0, 0.9655, 0, 0)">
          <g transform="translate(0, 0)">
            <g transform="matrix(0.9062, 0, 0, 0.9062, 0, 0)">
              <g transform="translate(0, 0)">
                <g transform="matrix(1.1429, 0, 0, 1.1429, 0, 0)">
                  <g id="Layer_1" transform="translate(-0.9655, -0.9655)">
                    <g transform="matrix(0.9655, 0, 0, 0.9655, 0, 0)">
                      <g id="icon">
                        <path d="M22.7, 24L8.3, 24C8.1343, 24 8, 23.8657 8, 23.7L8, 21.3C8, 21.1343 8.1343, 21 8.3, 21L15.381, 21C15.3356, 20.9862 15.2924, 20.9627 15.2564, 20.9269L9.0589, 14.7566C9.0212, 14.7191 9, 14.6681 9, 14.6149L9, 11.0124C9, 10.8342 9.2154, 10.745 9.3414, 10.871L14, 15.5296L14, 6.3C14, 6.1343 14.1343, 6 14.3, 6L16.7, 6C16.8657, 6 17, 6.1343 17, 6.3L17, 15.4593L21.6586, 10.8007C21.7846, 10.6747 22, 10.7639 22, 10.9421L22, 14.5473C22, 14.6005 21.9788, 14.6515 21.9412, 14.689L15.6799, 20.9268C15.6439, 20.9627 15.6007, 20.9862 15.5553, 21L22.7, 21C22.8657, 21 23, 21.1343 23, 21.3L23, 23.7C23, 23.8657 22.8657, 24 22.7, 24z" fill="#FFFFFF" class="White" fill-rule="evenodd" />
                      </g>
                    </g>
                  </g>
                </g>
              </g>
            </g>
          </g>
        </g>
      </g>
    </g>
  </g>
</svg>