<?xml version='1.0' encoding='UTF-8'?>
<svg viewBox="0 -2 32 32" xmlns="http://www.w3.org/2000/svg" xmlns:xlink="http://www.w3.org/1999/xlink">
  <g transform="translate(0, 0)">
    <g transform="translate(0, 0)">
      <g id="Layer_1" transform="translate(-2, -2)" style="enable-background:new 0 0 32 32">
        <g id="WarningCircled1">
          <path d="M16, 2C8.3, 2 2, 8.3 2, 16C2, 23.7 8.3, 30 16, 30C23.7, 30 30, 23.7 30, 16C30, 8.3 23.7, 2 16, 2zM16, 24C14.9, 24 14, 23.1 14, 22C14, 20.9 14.9, 20 16, 20C17.1, 20 18, 20.9 18, 22C18, 23.1 17.1, 24 16, 24zM18, 18L14, 18L14, 8L18, 8L18, 18z" fill="#D11C1C" class="Red" />
        </g>
      </g>
    </g>
  </g>
  <g id="Layer_1" transform="translate(16, 14.1)">
    <g id="icon">
      <path d="M15, 15.5L1, 15.5C0.7239, 15.5 0.5, 15.2761 0.5, 15L0.5, 3.5L15.5, 3.5L15.5, 15C15.5, 15.2761 15.2761, 15.5 15, 15.5z" fill="#FFFFFF" fill-opacity="1" class="White" stroke="#000000" stroke-width="1px" stroke-miterlimit="1" stroke-opacity="1" />
    </g>
  </g>
  <g id="Layer_1" transform="translate(16, 14.1)">
    <g id="icon">
      <path d="M16, 5L0, 5L0, 2C0, 1.4477 0.4477, 1 1, 1L15, 1C15.5523, 1 16, 1.4477 16, 2L16, 5z" fill="#1177D7" fill-opacity="1" class="Blue" />
    </g>
  </g>
</svg>