<?xml version='1.0' encoding='UTF-8'?>
<svg viewBox="-2 -4.335 32 32" xmlns="http://www.w3.org/2000/svg" xmlns:xlink="http://www.w3.org/1999/xlink">
  <g id="Layer_1" transform="translate(-0.9333, -2.8016)">
    <g transform="matrix(0.9333, 0, 0, 0.9333, 0, 0)">
      <g id="icon">
        <path d="M20.5739, 23.31C20.4004, 22.8909 20.4958, 22.413 20.8167, 22.0924L21.5, 21.4383L21.5, 20L15.3, 20C14.5837, 20 14, 19.4172 14, 18.701L14, 16.3C14, 15.5995 14.5565, 15.0279 15.2662, 15.0071L15.296, 15L21.5, 15L21.5, 13.5482L20.8227, 12.9004C20.5021, 12.5797 20.407, 12.1052 20.5806, 11.6863C20.7396, 11.3024 21.0932, 11.0465 21.5001, 11.0062L21.5001, 7.5L1.5, 7.5L1.5, 27C1.5, 27.2761 1.7239, 27.5 2, 27.5L21, 27.5C21.2761, 27.5 21.5, 27.2761 21.5, 27L21.5, 23.9944C21.0902, 23.9558 20.7336, 23.6961 20.5739, 23.31z" fill="#FFFFFF" />
      </g>
    </g>
  </g>
  <g id="Layer_1" transform="translate(-0.9333, -2.8016)">
    <g transform="matrix(0.9333, 0, 0, 0.9333, 0, 0)">
      <g id="icon">
        <g>
          <polygon points="22,20 21,20 21,21.9165 22,20.9596" fill="#6D6E71" />
        </g>
      </g>
    </g>
  </g>
  <g id="Layer_1" transform="translate(-0.9333, -2.8016)">
    <g transform="matrix(0.9333, 0, 0, 0.9333, 0, 0)">
      <g id="icon">
        <g>
          <polygon points="22,14.0264 21,13.0702 21,15 22,15" fill="#6D6E71" />
        </g>
      </g>
    </g>
  </g>
  <g id="Layer_1" transform="translate(-0.9333, -2.8016)">
    <g transform="matrix(0.9333, 0, 0, 0.9333, 0, 0)">
      <g id="icon">
        <g>
          <path d="M21.6061, 24C21.3857, 24 21.1771, 23.9356 21.0006, 23.8218L21.0007, 27L2, 27L2, 8L21, 8L21.0001, 11.1808C21.178, 11.065 21.3894, 11 21.6126, 11L22, 11L22, 7L1, 7L1, 27C1, 27.5514 1.4486, 28 2, 28L21, 28C21.5514, 28 22, 27.5514 22, 27L22, 24L21.6061, 24z" fill="#727272" class="Black" />
        </g>
      </g>
    </g>
  </g>
  <g id="Layer_1" transform="translate(-0.9333, -2.8016)">
    <g transform="matrix(0.9333, 0, 0, 0.9333, 0, 0)">
      <g id="icon">
        <path d="M22, 4.4C22, 3.6268 21.3732, 3 20.6, 3L2.4, 3C1.6268, 3 1, 3.6268 1, 4.4L1, 8L22, 8L22, 4.4z" fill="#1177D7" class="Blue" />
      </g>
    </g>
  </g>
  <g id="Layer_1" transform="translate(-0.9333, -2.8016)">
    <g transform="matrix(0.9333, 0, 0, 0.9333, 0, 0)">
      <g id="icon">
        <path d="M20.8167, 22.0924L20.9132, 22L16, 22L16, 20L15.3, 20C15.1966, 20 15.0965, 19.9866 15, 19.9636L15, 22L9, 22L9, 18L14, 18L14, 17L9, 17L9, 13L15, 13L15, 15.0421C15.0856, 15.022 15.1746, 15.0097 15.2662, 15.0071L15.296, 15L16, 15L16, 13L20.9267, 13L20.8226, 12.9005C20.5803, 12.6581 20.467, 12.3278 20.501, 12L16, 12L16, 8L15, 8L15, 12L9, 12L9, 8L8, 8L8, 12L2, 12L2, 13L8, 13L8, 17L2, 17L2, 18L8, 18L8, 22L2, 22L2, 23L8, 23L8, 27L9, 27L9, 23L15, 23L15, 27L16, 27L16, 23L20.4951, 23C20.4598, 22.6698 20.573, 22.3358 20.8167, 22.0924z" fill="#727272" class="Black" />
      </g>
    </g>
  </g>
  <g id="Layer_1" transform="translate(-0.9333, -2.8016)">
    <g transform="matrix(0.9333, 0, 0, 0.9333, 0, 0)">
      <g id="icon">
        <path d="M25.5052, 16.0132L15.296, 16.0132C15.1294, 16.0181 15.001, 16.1382 15.001, 16.2999L15.001, 18.7009C15.001, 18.8653 15.1355, 18.9999 15.3, 18.9999L25.4933, 18.9999L21.5233, 22.7999C21.4494, 22.8737 21.5017, 22.9999 21.6061, 22.9999L25.2683, 22.9999C25.3927, 22.9999 25.5121, 22.9504 25.6, 22.8623L30.8845, 17.7438C31.04, 17.5681 31.04, 17.5087 30.8753, 17.3371L25.6, 12.1376C25.5121, 12.0495 25.3927, 12 25.2683, 12L21.6126, 12C21.5082, 12 21.456, 12.1262 21.5298, 12.2L25.5052, 16.0132z" fill="#D11C1C" class="Red" />
      </g>
    </g>
  </g>
</svg>