<?xml version='1.0' encoding='UTF-8'?>
<svg viewBox="-2 -2 32 32" xmlns="http://www.w3.org/2000/svg" xmlns:xlink="http://www.w3.org/1999/xlink">
  <g transform="translate(0, 0)">
    <g transform="matrix(0.8749, 0, 0, 0.8749, 0, 0)">
      <g transform="translate(0, 0)">
        <g transform="matrix(1.1429, 0, 0, 1.1429, 0, 0)">
          <g id="Layer_1" transform="translate(-6.3637, -6.3637)">
            <g transform="matrix(1.2727, 0, 0, 1.2727, 0, 0)">
              <g id="icon">
                <path d="M27, 5.5L27, 26.5C27, 26.776 26.776, 27 26.5, 27L5.5, 27C5.224, 27 5, 26.776 5, 26.5L5, 5.5C5, 5.224 5.224, 5 5.5, 5L26.5, 5C26.776, 5 27, 5.224 27, 5.5z" fill="#039C23" class="Green" />
              </g>
            </g>
          </g>
        </g>
      </g>
    </g>
  </g>
  <g id="Layer_1" transform="translate(6, 6)" style="enable-background:new 0 0 16 16">
    <g id="Delete_1_">
      <path d="M10.8, 8L15.7, 3.1C16.1, 2.7 16.1, 2.1 15.7, 1.7L14.3, 0.3C13.9, -0.1 13.3, -0.1 12.9, 0.3L8, 5.2L3.1, 0.3C2.7, -0.1 2.1, -0.1 1.7, 0.3L0.3, 1.7C-0.1, 2.1 -0.1, 2.7 0.3, 3.1L5.2, 8L0.3, 12.9C-0.1, 13.3 -0.1, 13.9 0.3, 14.3L1.7, 15.7C2.1, 16.1 2.7, 16.1 3.1, 15.7L8, 10.8L12.9, 15.7C13.3, 16.1 13.9, 16.1 14.3, 15.7L15.7, 14.3C16.1, 13.9 16.1, 13.3 15.7, 12.9L10.8, 8z" fill="#FFFFFF" class="White" />
    </g>
  </g>
</svg>