<?xml version='1.0' encoding='UTF-8'?>
<svg viewBox="-2 -2 32 32" xmlns="http://www.w3.org/2000/svg" xmlns:xlink="http://www.w3.org/1999/xlink">
  <g transform="translate(0, 0)">
    <g transform="matrix(0.8749, 0, 0, 0.8749, 0, 0)">
      <g transform="translate(0, 0)">
        <g transform="matrix(1.1429, 0, 0, 1.1429, 0, 0)">
          <g id="Layer_1" transform="translate(-6.3637, -6.3637)">
            <g transform="matrix(1.2727, 0, 0, 1.2727, 0, 0)">
              <g id="icon">
                <path d="M27, 5.5L27, 26.5C27, 26.776 26.776, 27 26.5, 27L5.5, 27C5.224, 27 5, 26.776 5, 26.5L5, 5.5C5, 5.224 5.224, 5 5.5, 5L26.5, 5C26.776, 5 27, 5.224 27, 5.5z" fill="#D11C1C" class="Red" />
              </g>
            </g>
          </g>
        </g>
      </g>
    </g>
  </g>
  <g id="Layer_1" transform="translate(6, 6)" style="enable-background:new 0 0 16 16">
    <g id="New_3_">
      <path d="M9, 0L3, 0C2.5, 0 2, 0.4 2, 1L2, 15C2, 15.6 2.5, 16 3, 16L13, 16C13.5, 16 14, 15.6 14, 15L14, 5L9, 0z" fill="#FFFFFF" class="White" />
    </g>
  </g>
  <g id="Layer_1" transform="translate(6, 6)" style="enable-background:new 0 0 16 16">
    <g id="New_3_">
      <path d="M8, 5L8, 2L4, 2L4, 14L12, 14L12, 6L9, 6C8.5, 6 8, 5.6 8, 5z" fill="#FFFFFF" class="White" />
    </g>
  </g>
</svg>