<?xml version='1.0' encoding='UTF-8'?>
<svg viewBox="-2 -2 32 32" xmlns="http://www.w3.org/2000/svg" xmlns:xlink="http://www.w3.org/1999/xlink">
  <g id="Layer_1" transform="translate(-0.9349, -0.9349)">
    <g transform="matrix(0.9333, 0, 0, 0.9333, 0, 0)">
      <g id="icon">
        <g>
          <path d="M4, 22.6668L4, 20.5096C4, 19.7894 4.398, 19.0199 5.5149, 19.0199L6.5195, 19.0199C7.4409, 19.0199 8.0133, 19.5907 8.0133, 20.5096L8.0133, 22.6668C8.0133, 23.4175 8.5732, 23.9837 9.3156, 23.9837L10.1468, 23.9837L9.2986, 23.1336C8.9461, 22.78 8.8421, 22.254 9.0333, 21.7932C9.2246, 21.3325 9.6705, 21.0348 10.1693, 21.0348L12.0522, 21.0348C12.4764, 21.0348 12.8914, 21.2072 13.1909, 21.5077L16, 24.325L16, 18.0833C16, 16.9345 16.9346, 16 18.0833, 16L20.5, 16C20.5, 11.9454 20.5, 7.9523 20.5, 7.8C20.5, 7.35 20.3527, 7.0527 20.1, 6.8C18.6165, 5.3165 15.499, 2.199 15.1998, 1.8998C14.8496, 1.5496 14.5375, 1.5 14.3, 1.5C14.0625, 1.5 2.4, 1.5 2.4, 1.5C1.7649, 1.5 1.5, 1.7594 1.5, 2.4L1.5, 24.6C1.5, 25.2406 1.7649, 25.5 2.4, 25.5L4.8058, 25.5C4.295, 24.6789 4, 23.7084 4, 22.6668z" fill="#FFFFFF" fill-opacity="1" class="White" fill-rule="evenodd" />
        </g>
      </g>
    </g>
  </g>
  <g id="Layer_1" transform="translate(-0.9349, -0.9349)">
    <g transform="matrix(0.9333, 0, 0, 0.9333, 0, 0)">
      <g id="icon">
        <g>
          <path d="M4.5307, 25L2.4, 25C2.0374, 25 2, 24.9626 2, 24.6L2, 2.4C2, 2.0374 2.0374, 2 2.4, 2L14, 2L14, 6.7C14, 7.4168 14.5832, 8 15.3, 8L20, 8L20, 16L21, 16L21, 7.8C21, 7.2494 20.8264, 6.8192 20.4535, 6.4464L15.5534, 1.5462C15.1858, 1.1787 14.7758, 1 14.3, 1L2.4, 1C1.4841, 1 1, 1.4841 1, 2.4L1, 24.6C1, 25.5159 1.4841, 26 2.4, 26L5.1569, 26C4.9128, 25.6927 4.7029, 25.3573 4.5307, 25zM15, 2.4071L19.5929, 7L15.3, 7C15.1346, 7 15, 6.8654 15, 6.7L15, 2.4071z" fill="#727272" fill-opacity="1" class="Black" />
        </g>
      </g>
    </g>
  </g>
  <g id="Layer_1" transform="translate(-0.9349, -0.9349)">
    <g transform="matrix(0.9333, 0, 0, 0.9333, 0, 0)">
      <g id="icon">
        <g>
          <path d="M4.5, 10L11.5, 10C11.7761, 10 12, 9.7761 12, 9.5C12, 9.2239 11.7761, 9 11.5, 9L4.5, 9C4.2239, 9 4, 9.2239 4, 9.5C4, 9.7761 4.2239, 10 4.5, 10z" fill="#727272" fill-opacity="1" class="Black" />
        </g>
      </g>
    </g>
  </g>
  <g id="Layer_1" transform="translate(-0.9349, -0.9349)">
    <g transform="matrix(0.9333, 0, 0, 0.9333, 0, 0)">
      <g id="icon">
        <g>
          <path d="M4.5, 6L11.5, 6C11.7761, 6 12, 5.7761 12, 5.5C12, 5.2239 11.7761, 5 11.5, 5L4.5, 5C4.2239, 5 4, 5.2239 4, 5.5C4, 5.7761 4.2239, 6 4.5, 6z" fill="#727272" fill-opacity="1" class="Black" />
        </g>
      </g>
    </g>
  </g>
  <g id="Layer_1" transform="translate(-0.9349, -0.9349)">
    <g transform="matrix(0.9333, 0, 0, 0.9333, 0, 0)">
      <g id="icon">
        <g>
          <path d="M4.5, 12L17.5, 12C17.7761, 12 18, 11.7761 18, 11.5C18, 11.2239 17.7761, 11 17.5, 11L4.5, 11C4.2239, 11 4, 11.2239 4, 11.5C4, 11.7761 4.2239, 12 4.5, 12z" fill="#727272" fill-opacity="1" class="Black" />
        </g>
      </g>
    </g>
  </g>
  <g id="Layer_1" transform="translate(-0.9349, -0.9349)">
    <g transform="matrix(0.9333, 0, 0, 0.9333, 0, 0)">
      <g id="icon">
        <g>
          <path d="M4.5, 8L11.5, 8C11.7761, 8 12, 7.7761 12, 7.5C12, 7.2239 11.7761, 7 11.5, 7L4.5, 7C4.2239, 7 4, 7.2239 4, 7.5C4, 7.7761 4.2239, 8 4.5, 8z" fill="#727272" fill-opacity="1" class="Black" />
        </g>
      </g>
    </g>
  </g>
  <g id="Layer_1" transform="translate(-0.9349, -0.9349)">
    <g transform="matrix(0.9333, 0, 0, 0.9333, 0, 0)">
      <g id="icon">
        <g>
          <path d="M4.5, 18L14.5, 18C14.7761, 18 15, 17.7761 15, 17.5C15, 17.2239 14.7761, 17 14.5, 17L4.5, 17C4.2239, 17 4, 17.2239 4, 17.5C4, 17.7761 4.2239, 18 4.5, 18z" fill="#727272" fill-opacity="1" class="Black" />
        </g>
      </g>
    </g>
  </g>
  <g id="Layer_1" transform="translate(-0.9349, -0.9349)">
    <g transform="matrix(0.9333, 0, 0, 0.9333, 0, 0)">
      <g id="icon">
        <g>
          <path d="M4.5, 14L17.5, 14C17.7761, 14 18, 13.7761 18, 13.5C18, 13.2239 17.7761, 13 17.5, 13L4.5, 13C4.2239, 13 4, 13.2239 4, 13.5C4, 13.7761 4.2239, 14 4.5, 14z" fill="#727272" fill-opacity="1" class="Black" />
        </g>
      </g>
    </g>
  </g>
  <g id="Layer_1" transform="translate(-0.9349, -0.9349)">
    <g transform="matrix(0.9333, 0, 0, 0.9333, 0, 0)">
      <g id="icon">
        <g>
          <path d="M4.5, 16L17.5, 16C17.7761, 16 18, 15.7761 18, 15.5C18, 15.2239 17.7761, 15 17.5, 15L4.5, 15C4.2239, 15 4, 15.2239 4, 15.5C4, 15.7761 4.2239, 16 4.5, 16z" fill="#727272" fill-opacity="1" class="Black" />
        </g>
      </g>
    </g>
  </g>
  <g id="Layer_1" transform="translate(-0.9349, -0.9349)">
    <g transform="matrix(0.9333, 0, 0, 0.9333, 0, 0)">
      <g id="icon">
        <path d="M12.0545, 29.946C12.2147, 29.946 12.3684, 29.8828 12.4823, 29.7702L15.8839, 26.3992C16.1005, 26.1817 16.0954, 25.8375 15.8734, 25.6145L12.4827, 22.2136C12.3687, 22.0992 12.2138, 22.0349 12.0523, 22.0349L10.1695, 22.0349C9.9647, 22.0349 9.862, 22.2824 10.0066, 22.4274L12.5575, 24.9839L9.3157, 24.9839C8.0247, 24.9839 7.0134, 23.9662 7.0134, 22.667L7.0134, 20.5098C7.0134, 20.1364 6.8951, 20.0201 6.5196, 20.0201L5.5149, 20.0201C5.1634, 20.0201 5, 20.1098 5, 20.5098L5, 22.667C5, 25.0143 6.8304, 26.9187 9.1692, 27.0075L9.1753, 27.0082L9.1972, 27.0085C9.2277, 27.0085 9.2576, 27.0048 9.2866, 26.9974L12.5529, 26.9974L10.0174, 29.5422C9.8687, 29.6916 9.9745, 29.9463 10.1854, 29.9463L12.0545, 29.9463z" fill="#1177D7" fill-opacity="1" class="Blue" />
      </g>
    </g>
  </g>
  <g id="Layer_1" transform="translate(-0.9349, -0.9349)">
    <g transform="matrix(0.9333, 0, 0, 0.9333, 0, 0)">
      <g id="icon">
        <path d="M21.9911, 25.04L19.9989, 25.04C19.9092, 24.6971 19.8637, 24.3454 19.8637, 23.9933C19.8637, 23.6445 19.9083, 23.296 19.9963, 22.9564L21.9846, 22.9564C21.9409, 23.3216 21.9187, 23.6681 21.9187, 23.9878C21.9187, 24.3096 21.9431, 24.663 21.9911, 25.04zM22.6554, 20.0775C21.6857, 20.4134 20.8669, 21.1058 20.3716, 22.0093L22.1377, 22.0093C22.2981, 21.2094 22.5114, 20.508 22.6554, 20.0775zM27.6421, 22.0093C27.1414, 21.0956 26.3114, 20.3995 25.3282, 20.0675C25.469, 20.499 25.6783, 21.2042 25.8353, 22.0093L27.6421, 22.0093zM24.2333, 19.8573C24.1496, 19.8524 24.0765, 19.8501 24.0068, 19.8501C23.9068, 19.8501 23.8044, 19.8542 23.6953, 19.8626C23.5852, 20.1754 23.305, 21.0178 23.1087, 22.0093L24.8218, 22.0093C24.6247, 21.0136 24.344, 20.1712 24.2333, 19.8573zM23.7131, 28.1251C23.8177, 28.1328 23.9143, 28.1365 24.0069, 28.1365C24.0718, 28.1365 24.1393, 28.1346 24.2156, 28.1304C24.3098, 27.8573 24.5935, 26.9978 24.7998, 25.9871L23.1307, 25.9871C23.3361, 26.9932 23.6195, 27.8533 23.7131, 28.1251zM20.3771, 25.9871C20.8763, 26.8922 21.7002, 27.5834 22.6746, 27.9155C22.5308, 27.4857 22.3166, 26.7853 22.1513, 25.9871L20.3771, 25.9871zM26.0485, 23.9879C26.0485, 24.3098 26.0248, 24.6632 25.9781, 25.04L28.0147, 25.04C28.1044, 24.6973 28.1499, 24.3455 28.1499, 23.9933C28.1499, 23.6445 28.1053, 23.2961 28.0173, 22.9564L25.9844, 22.9564C26.027, 23.3219 26.0485, 23.6684 26.0485, 23.9879zM31, 18.0833L31, 29.9166C31, 30.5149 30.515, 30.9999 29.9167, 30.9999L18.0833, 30.9999C17.485, 31 17, 30.515 17, 29.9167L17, 18.0833C17, 17.485 17.485, 17 18.0833, 17L29.9166, 17C30.515, 17 31, 17.485 31, 18.0833zM29.4, 23.9933C29.4, 21.0194 26.9807, 18.6 24.0068, 18.6C21.033, 18.6 18.6136, 21.0194 18.6136, 23.9933C18.6136, 26.9672 21.033, 29.3866 24.0068, 29.3866C26.9807, 29.3866 29.4, 26.9672 29.4, 23.9933zM22.9583, 22.9565C22.917, 23.3098 22.8961, 23.6443 22.8961, 23.9521C22.8961, 24.2822 22.9215, 24.6479 22.9718, 25.0401L24.9587, 25.0401C25.0089, 24.6479 25.0344, 24.2823 25.0344, 23.9521C25.0344, 23.6443 25.0135, 23.3098 24.9722, 22.9565L22.9583, 22.9565zM25.3094, 27.9254C26.2972, 27.5971 27.1319, 26.9022 27.6365, 25.9871L25.822, 25.9871C25.657, 26.8054 25.4379, 27.5309 25.3094, 27.9254z" fill="#039C23" fill-opacity="1" class="Green" />
      </g>
    </g>
  </g>
  <g id="Layer_1" transform="translate(-0.9349, -0.9349)">
    <g transform="matrix(0.9333, 0, 0, 0.9333, 0, 0)">
      <g id="icon">
        <path d="M24.0068, 29.3866C21.033, 29.3866 18.6136, 26.9672 18.6136, 23.9933C18.6136, 21.0194 21.033, 18.6 24.0068, 18.6C26.9806, 18.6 29.4, 21.0194 29.4, 23.9933C29.4, 26.9672 26.9807, 29.3866 24.0068, 29.3866zM23.7131, 28.1251C23.8177, 28.1328 23.9143, 28.1365 24.0069, 28.1365C24.0718, 28.1365 24.1393, 28.1346 24.2156, 28.1304C24.3098, 27.8573 24.5935, 26.9978 24.7998, 25.9871L23.1307, 25.9871C23.3361, 26.9932 23.6195, 27.8533 23.7131, 28.1251zM25.8221, 25.9871C25.6571, 26.8054 25.4379, 27.5308 25.3095, 27.9254C26.2973, 27.5971 27.132, 26.9022 27.6366, 25.9871L25.8221, 25.9871zM20.3771, 25.9871C20.8763, 26.8922 21.7002, 27.5834 22.6746, 27.9155C22.5308, 27.4857 22.3166, 26.7853 22.1513, 25.9871L20.3771, 25.9871zM28.0148, 25.04C28.1045, 24.6973 28.15, 24.3455 28.15, 23.9933C28.15, 23.6445 28.1054, 23.2961 28.0174, 22.9564L25.9845, 22.9564C26.0271, 23.3218 26.0486, 23.6683 26.0486, 23.9878C26.0486, 24.3097 26.0249, 24.6631 25.9782, 25.0399L28.0148, 25.0399zM24.9587, 25.04C25.0089, 24.6478 25.0344, 24.2822 25.0344, 23.952C25.0344, 23.6442 25.0135, 23.3097 24.9722, 22.9564L22.9583, 22.9564C22.917, 23.3097 22.8961, 23.6442 22.8961, 23.952C22.8961, 24.2821 22.9215, 24.6478 22.9718, 25.04L24.9587, 25.04zM21.9911, 25.04C21.943, 24.663 21.9187, 24.3095 21.9187, 23.9879C21.9187, 23.6681 21.9409, 23.3217 21.9846, 22.9565L19.9963, 22.9565C19.9083, 23.2961 19.8637, 23.6445 19.8637, 23.9934C19.8637, 24.3455 19.9092, 24.6972 19.9989, 25.0401L21.9911, 25.0401zM27.6421, 22.0093C27.1414, 21.0956 26.3114, 20.3995 25.3282, 20.0675C25.469, 20.499 25.6783, 21.2042 25.8353, 22.0093L27.6421, 22.0093zM24.8218, 22.0093C24.6247, 21.0136 24.3441, 20.1712 24.2333, 19.8573C24.1496, 19.8524 24.0765, 19.8501 24.0068, 19.8501C23.9068, 19.8501 23.8044, 19.8542 23.6953, 19.8626C23.5852, 20.1754 23.305, 21.0178 23.1087, 22.0093L24.8218, 22.0093zM22.1377, 22.0093C22.2981, 21.2095 22.5113, 20.508 22.6553, 20.0775C21.6856, 20.4135 20.8668, 21.1058 20.3715, 22.0093L22.1377, 22.0093z" fill="#FFFFFF" fill-opacity="1" class="White" />
      </g>
    </g>
  </g>
</svg>