<?xml version='1.0' encoding='UTF-8'?>
<svg viewBox="-2 -2.435 32 32" xmlns="http://www.w3.org/2000/svg" xmlns:xlink="http://www.w3.org/1999/xlink">
  <g id="Layer_1" transform="translate(-0.9791, -1.0259)">
    <g transform="matrix(0.9325, 0, 0, 0.9325, 0, 0)">
      <g id="icon">
        <path d="M16.065, 1.1C18.638, 1.0938 19.1864, 9.7976 20.4729, 10.9157C21.7594, 12.0338 30.6299, 9.9715 31.0587, 12.1456C31.4875, 14.3197 24.1558, 17.8724 23.4206, 19.6117C22.6854, 21.351 26.8633, 28.7131 25.3317, 30.0175C23.8001, 31.322 17.9641, 24.9606 16.065, 24.9606C14.1659, 24.9606 8.4522, 30.9493 6.9207, 29.8312C5.3891, 28.7131 9.1994, 21.1184 8.7093, 19.5034C8.2192, 17.8884 0.6046, 14.2576 1.0713, 12.1456C1.538, 10.0336 10.0641, 12.096 11.4732, 11.04C12.8822, 9.9839 13.9208, 1.1621 16.065, 1.1" fill="#FFB115" class="Yellow" fill-rule="evenodd" />
      </g>
    </g>
  </g>
</svg>