<?xml version='1.0' encoding='UTF-8'?>
<svg viewBox="-2 -2.435 32 32" xmlns="http://www.w3.org/2000/svg" xmlns:xlink="http://www.w3.org/1999/xlink">
  <g id="Layer_1" transform="translate(-0.9791, -1.0259)">
    <g transform="matrix(0.9325, 0, 0, 0.9325, 0, 0)">
      <g id="icon">
        <path d="M31.0587, 12.1455C30.6299, 9.9714 21.7594, 12.0337 20.4729, 10.9156C19.1864, 9.7976 18.638, 1.0938 16.065, 1.1C13.9208, 1.1621 12.8822, 9.9839 11.4731, 11.0399C10.064, 12.0959 1.538, 10.0336 1.0712, 12.1455C0.6045, 14.2575 8.2191, 17.8882 8.7092, 19.5033C9.1993, 21.1183 5.389, 28.713 6.9206, 29.8311C8.4522, 30.9492 14.1658, 24.9605 16.0649, 24.9605C17.964, 24.9605 23.8001, 31.3219 25.3316, 30.0174C26.8632, 28.713 22.6853, 21.3508 23.4205, 19.6116C24.1558, 17.8724 31.4875, 14.3196 31.0587, 12.1455zM28.7585, 13.6556C27.9794, 14.3488 26.9587, 15.0846 25.9716, 15.7962C23.9732, 17.2369 22.7274, 18.1694 22.3153, 19.1444C21.8291, 20.2947 22.3785, 22.0109 23.3151, 24.7158C23.6693, 25.7388 24.0357, 26.7968 24.2593, 27.6845C24.4112, 28.2873 24.4608, 28.67 24.4713, 28.905C24.2474, 28.8175 23.8926, 28.6441 23.3566, 28.3007C22.5767, 27.8012 21.681, 27.1159 20.8148, 26.4532C18.6326, 24.7837 17.2358, 23.7605 16.0651, 23.7605C14.8921, 23.7605 13.4897, 24.751 11.2986, 26.367C10.447, 26.9951 9.5665, 27.6445 8.8042, 28.1163C8.3107, 28.4217 7.9753, 28.5846 7.7561, 28.6714C7.7662, 28.4132 7.8164, 27.9941 7.9705, 27.3341C8.1936, 26.3787 8.5527, 25.2569 8.8999, 24.172C9.713, 21.6316 10.1584, 20.146 9.8576, 19.1548C9.5481, 18.1347 8.3124, 17.221 6.1552, 15.6938C5.1826, 15.0053 4.1769, 14.2933 3.3995, 13.6221C2.7672, 13.0762 2.481, 12.7207 2.3523, 12.5191C2.616, 12.4417 3.1583, 12.346 4.2273, 12.346C5.0732, 12.346 6.0323, 12.4212 6.9598, 12.4757C7.8819, 12.53 8.7531, 12.6 9.5262, 12.6C9.5264, 12.6 9.5264, 12.6 9.5267, 12.6C10.8873, 12.6 11.66, 12.4183 12.1929, 12.019C13.0608, 11.3685 13.5385, 9.8322 14.3081, 7.1895C14.6478, 6.023 14.999, 4.8122 15.3805, 3.8394C15.7361, 2.9327 16.0024, 2.5354 16.1422, 2.3718C16.2879, 2.5067 16.5826, 2.8741 16.9518, 3.8414C17.3535, 4.8937 17.6786, 6.2034 17.9931, 7.4705C18.5919, 9.8835 18.9392, 11.1726 19.6859, 11.8216C20.2261, 12.2911 21.0349, 12.4739 22.5705, 12.4739C23.3165, 12.4739 24.1485, 12.4316 25.0293, 12.3869C25.9197, 12.3417 26.8403, 12.2949 27.6671, 12.2949C28.937, 12.2949 29.5339, 12.4143 29.8007, 12.5017C29.6892, 12.6998 29.4176, 13.0692 28.7585, 13.6556z" fill="#727272" class="Black" />
      </g>
    </g>
  </g>
  <g id="Layer_1" transform="translate(-0.9791, -1.0259)">
    <g transform="matrix(0.9325, 0, 0, 0.9325, 0, 0)">
      <g id="icon">
        <path d="M16.065, 1.1C18.638, 1.0938 19.1864, 9.7976 20.4729, 10.9157C21.7594, 12.0338 30.6299, 9.9715 31.0587, 12.1456C31.4875, 14.3197 24.1558, 17.8724 23.4206, 19.6117C22.6854, 21.351 26.8633, 28.7131 25.3317, 30.0175C23.8001, 31.322 17.9641, 24.9606 16.065, 24.9606C14.1659, 24.9606 8.4522, 30.9493 6.9207, 29.8312C5.3891, 28.7131 9.1994, 21.1184 8.7093, 19.5034C8.2192, 17.8884 0.6046, 14.2576 1.0713, 12.1456C1.538, 10.0336 10.0641, 12.096 11.4732, 11.04C12.8822, 9.9839 13.9208, 1.1621 16.065, 1.1" fill="#727272" class="Black" fill-rule="evenodd" />
      </g>
    </g>
  </g>
</svg>