<?xml version='1.0' encoding='UTF-8'?>
<svg viewBox="-4.3333 -2 32.0008 32" xmlns="http://www.w3.org/2000/svg" xmlns:xlink="http://www.w3.org/1999/xlink">
  <g transform="translate(0, 0)">
    <g transform="matrix(1.1667, 0, 0, 1.1667, 0, 0)">
      <g id="Layer_1" transform="translate(-6, -4)" style="enable-background:new 0 0 32 32">
        <g id="Filter">
          <polygon points="6,4 26,4 26,8 18,16 18,24 14,28 14,16 6,8  " fill="#727272" class="Black" />
        </g>
      </g>
    </g>
  </g>
  <g id="Layer_1" transform="translate(11.6667, 14)">
    <g transform="matrix(0.5, 0, 0, 0.5, 0, 0)">
      <g id="icon">
        <path d="M24.03, 4.87L16.018, 12.782L8.005, 4.77C7.693, 4.458 7.186, 4.458 6.874, 4.77L4.87, 6.874C4.558, 7.186 4.558, 7.693 4.87, 8.005L12.882, 16.017L4.87, 24.03C4.558, 24.342 4.558, 24.849 4.87, 25.161L6.874, 27.165C7.186, 27.477 7.693, 27.477 8.005, 27.165L16.017, 19.153L24.029, 27.165C24.341, 27.477 24.848, 27.477 25.16, 27.165L27.164, 25.061C27.476, 24.749 27.476, 24.242 27.164, 23.93L19.152, 15.918L27.164, 8.006C27.476, 7.694 27.476, 7.187 27.164, 6.875L25.162, 4.87C24.849, 4.557 24.343, 4.557 24.03, 4.87z" fill="#D11C1C" class="Red" />
      </g>
    </g>
  </g>
</svg>