<?xml version='1.0' encoding='UTF-8'?>
<svg viewBox="-1.2475 -2 32 32" xmlns="http://www.w3.org/2000/svg" xmlns:xlink="http://www.w3.org/1999/xlink">
  <g transform="translate(3.0858, 0)">
    <g transform="matrix(1.1667, 0, 0, 1.1667, 0, 0)">
      <g id="Layer_1" transform="translate(-6, -4)" style="enable-background:new 0 0 32 32">
        <g id="Filter">
          <polygon points="6,4 26,4 26,8 18,16 18,24 14,28 14,16 6,8  " fill="#727272" class="Black" />
        </g>
      </g>
    </g>
  </g>
  <g id="Layer_1" transform="translate(-2.2525, 12.4139)">
    <g transform="matrix(0.5, 0, 0, 0.5, 0, 0)">
      <g transform="matrix(2.2513, 0, 0, 2.2513, 0, 0)">
        <g id="icon">
          <path d="M14, 6.584L14, 5.212C14, 5.104 13.91, 5.016 13.8, 5.016L10.601, 5.016L11.47, 3.144C11.515, 3.046 11.472, 2.931 11.373, 2.886L10.124, 2.314C10.023, 2.268 9.903, 2.311 9.857, 2.41L8.647, 5.016L2.2, 5.016C2.09, 5.016 2, 5.104 2, 5.212L2, 6.584C2, 6.692 2.09, 6.78 2.2, 6.78L7.828, 6.78L6.217, 10.25L2.2, 10.25C2.09, 10.25 2, 10.338 2, 10.446L2, 11.818C2, 11.926 2.09, 12.014 2.2, 12.014L5.399, 12.014L4.53, 13.886C4.485, 13.984 4.528, 14.099 4.627, 14.144L5.876, 14.716C5.977, 14.762 6.097, 14.719 6.143, 14.62L7.353, 12.014L13.8, 12.014C13.91, 12.014 14, 11.926 14, 11.818L14, 10.446C14, 10.338 13.91, 10.25 13.8, 10.25L8.172, 10.25L9.783, 6.78L13.8, 6.78C13.91, 6.779 14, 6.692 14, 6.584z" fill="#727272" fill-opacity="1" class="Black" />
        </g>
      </g>
    </g>
  </g>
  <g id="Layer_1" transform="translate(14.7525, 14)">
    <g transform="matrix(0.5, 0, 0, 0.5, 0, 0)">
      <g id="icon">
        <path d="M30.512, 14.812L17.188, 1.488C16.532, 0.832 15.469, 0.832 14.813, 1.488L1.488, 14.812C0.832, 15.468 0.832, 16.531 1.488, 17.187L14.813, 30.512C15.469, 31.168 16.532, 31.168 17.188, 30.512L30.513, 17.187C31.168, 16.532 31.168, 15.468 30.512, 14.812z" fill="#727272" class="Black" />
      </g>
    </g>
  </g>
</svg>