<?xml version='1.0' encoding='UTF-8'?>
<svg viewBox="-4.3332 -1.9999 32.0007 32.0024" xmlns="http://www.w3.org/2000/svg" xmlns:xlink="http://www.w3.org/1999/xlink">
  <g transform="translate(0.0001, 0.0001)">
    <g transform="matrix(1.1667, 0, 0, 1.1667, 0, 0)">
      <g transform="translate(-0.0001, -0.0001)">
        <g transform="matrix(0.8571, 0, 0, 0.8571, 0, 0)">
          <g transform="translate(0, 0)">
            <g transform="matrix(1.1667, 0, 0, 1.1667, 0, 0)">
              <g id="Layer_1" transform="translate(-6, -4)" style="enable-background:new 0 0 32 32">
                <g id="Filter">
                  <polygon points="6,4 26,4 26,8 18,16 18,24 14,28 14,16 6,8  " fill="#1177D7" class="Blue" />
                </g>
              </g>
            </g>
          </g>
        </g>
      </g>
    </g>
  </g>
  <g id="Layer_1" transform="translate(11.6668, 14.0001)" style="enable-background:new 0 0 16 16">
    <g id="CheckCircled_2_">
      <circle cx="8" cy="8" r="8" fill="#039C23" class="Green" />
    </g>
  </g>
  <g id="Layer_1" transform="translate(11.6668, 14.0001)" style="enable-background:new 0 0 16 16">
    <g id="CheckCircled_2_">
      <polygon points="11.5,4 6.5,9 4.5,7 3,8.5 6.5,12 13,5.5  " fill="#FFFFFF" class="White" />
    </g>
  </g>
</svg>