<?xml version='1.0' encoding='UTF-8'?>
<svg viewBox="-2 -3.335 32 32" xmlns="http://www.w3.org/2000/svg" xmlns:xlink="http://www.w3.org/1999/xlink">
  <g id="Layer_1" transform="translate(-0.935, -2.05)">
    <g transform="matrix(0.9344, 0, 0, 0.9344, 0, 0)">
      <g transform="matrix(1, 0, 0, 1, 0, 0)">
        <g id="icon">
          <path d="M17.775, 29.3C17.739, 29.3 17.702, 29.296 17.667, 29.288L17.36, 29.22L17.034, 29.249L17.003, 29.25C16.743, 29.25 16.531, 29.056 16.508, 28.799L14.594, 7.477L10.866, 20.898C10.807, 21.112 10.611, 21.261 10.389, 21.261C10.344, 21.261 10.299, 21.255 10.256, 21.243L9.969, 21.163L9.674, 21.202C9.652, 21.205 9.63, 21.206 9.608, 21.206C9.361, 21.206 9.15, 21.021 9.117, 20.776L8.158, 13.58L6.609, 16.602C6.551, 16.714 6.455, 16.799 6.336, 16.842C6.253, 16.899 6.158, 16.929 6.059, 16.93L1.495, 16.953C1.221, 16.953 0.999, 16.731 0.999, 16.458L0.999, 15.515C0.999, 15.242 1.221, 15.02 1.494, 15.02L5.43, 15.02L7.815, 10.449C7.9, 10.28 8.069, 10.175 8.258, 10.175C8.334, 10.175 8.411, 10.193 8.479, 10.227L8.712, 10.343L8.97, 10.309C8.992, 10.306 9.014, 10.305 9.035, 10.305C9.282, 10.305 9.493, 10.49 9.526, 10.735L10.291, 16.476L14.158, 2.555C14.217, 2.341 14.413, 2.192 14.635, 2.192C14.68, 2.192 14.725, 2.198 14.768, 2.21L15.063, 2.292L15.379, 2.264L15.41, 2.263C15.67, 2.263 15.882, 2.457 15.905, 2.714L17.745, 23.215L20.535, 10.66C20.586, 10.432 20.785, 10.272 21.018, 10.272C21.054, 10.272 21.09, 10.276 21.125, 10.284L21.413, 10.348L21.702, 10.29C21.733, 10.284 21.766, 10.28 21.799, 10.28C22.034, 10.28 22.238, 10.447 22.285, 10.678L23.725, 17.878L24.67, 15.462C24.723, 15.338 24.823, 15.242 24.947, 15.194C25.043, 15.082 25.178, 15.019 25.325, 15.019L30.47, 15.019C30.743, 15.019 30.965, 15.241 30.965, 15.514L30.965, 16.458C30.965, 16.731 30.743, 16.953 30.47, 16.953L26.01, 16.953L24.272, 21.013C24.194, 21.196 24.015, 21.313 23.817, 21.313C23.75, 21.313 23.684, 21.3 23.622, 21.273L23.384, 21.171L23.13, 21.222C23.098, 21.228 23.065, 21.232 23.033, 21.232C22.798, 21.232 22.594, 21.065 22.547, 20.834L21.364, 14.917L18.254, 28.912C18.208, 29.137 18.005, 29.3 17.775, 29.3z" fill="#039C23" fill-opacity="1" class="Green" fill-rule="evenodd" />
        </g>
      </g>
    </g>
  </g>
</svg>