<?xml version='1.0' encoding='UTF-8'?>
<svg viewBox="-2 -2 32 32" xmlns="http://www.w3.org/2000/svg" xmlns:xlink="http://www.w3.org/1999/xlink">
  <g id="Layer_1" transform="translate(-0.9349, -0.9349)">
    <g transform="matrix(0.9333, 0, 0, 0.9333, 0, 0)">
      <g id="icon">
        <g>
          <path d="M30.1, 11.8C28.6165, 10.3165 25.499, 7.199 25.1998, 6.8998C24.8496, 6.5496 24.5375, 6.5 24.3, 6.5C24.1501, 6.5 19.4477, 6.5 16, 6.5L16, 14.2833C16, 15.2314 15.2314, 16 14.2833, 16L11.5, 16L11.5, 18.8176L14.5815, 21.9083C15.1877, 22.5172 15.1924, 23.5022 14.5925, 24.1047L11.5, 27.1695L11.5, 29.6C11.5, 30.2406 11.7649, 30.5 12.4, 30.5L29.6, 30.5C30.2351, 30.5 30.5, 30.2406 30.5, 29.6C30.5, 29.6 30.5, 13.1125 30.5, 12.8C30.5, 12.35 30.3527, 12.0527 30.1, 11.8z" fill="#FFFFFF" fill-opacity="1" class="White" fill-rule="evenodd" />
        </g>
      </g>
    </g>
  </g>
  <g id="Layer_1" transform="translate(-0.9349, -0.9349)">
    <g transform="matrix(0.9333, 0, 0, 0.9333, 0, 0)">
      <g id="icon">
        <g>
          <path d="M11, 18.3467L11, 16L12, 16L12, 19.3191L11.1909, 18.5076C11.1319, 18.4484 11.0672, 18.3956 11, 18.3467zM31, 12.8L31, 29.6C31, 30.5159 30.5159, 31 29.6, 31L12.4, 31C11.4841, 31 11, 30.5159 11, 29.6L11, 27.6367C11.065, 27.5892 11.1279, 27.5382 11.1862, 27.4805L12, 26.674L12, 29.6C12, 29.9626 12.0374, 30 12.4, 30L29.6, 30C29.9626, 30 30, 29.9626 30, 29.6L30, 13L25.3, 13C24.5832, 13 24, 12.4168 24, 11.7L24, 7L16, 7L16, 6L24.3, 6C24.7758, 6 25.1857, 6.1787 25.5533, 6.5462L30.4534, 11.4464C30.8264, 11.8192 31, 12.2494 31, 12.8zM29.5929, 12L25, 7.4071L25, 11.7C25, 11.8654 25.1346, 12 25.3, 12L29.5929, 12z" fill="#727272" fill-opacity="1" class="Black" />
        </g>
      </g>
    </g>
  </g>
  <g id="Layer_1" transform="translate(-0.9349, -0.9349)">
    <g transform="matrix(0.9333, 0, 0, 0.9333, 0, 0)">
      <g id="icon">
        <g>
          <path d="M22, 14.5C22, 14.2239 21.7761, 14 21.5, 14L16, 14L16, 14.2833C16, 14.5395 15.9423, 14.7816 15.8417, 15L21.5, 15C21.7761, 15 22, 14.7761 22, 14.5z" fill="#727272" fill-opacity="1" class="Black" />
        </g>
      </g>
    </g>
  </g>
  <g id="Layer_1" transform="translate(-0.9349, -0.9349)">
    <g transform="matrix(0.9333, 0, 0, 0.9333, 0, 0)">
      <g id="icon">
        <g>
          <path d="M22, 12.5C22, 12.2239 21.7761, 12 21.5, 12L16, 12L16, 13L21.5, 13C21.7761, 13 22, 12.7761 22, 12.5z" fill="#727272" fill-opacity="1" class="Black" />
        </g>
      </g>
    </g>
  </g>
  <g id="Layer_1" transform="translate(-0.9349, -0.9349)">
    <g transform="matrix(0.9333, 0, 0, 0.9333, 0, 0)">
      <g id="icon">
        <g>
          <path d="M22, 10.5C22, 10.2239 21.7761, 10 21.5, 10L16, 10L16, 11L21.5, 11C21.7761, 11 22, 10.7761 22, 10.5z" fill="#727272" fill-opacity="1" class="Black" />
        </g>
      </g>
    </g>
  </g>
  <g id="Layer_1" transform="translate(-0.9349, -0.9349)">
    <g transform="matrix(0.9333, 0, 0, 0.9333, 0, 0)">
      <g id="icon">
        <g>
          <path d="M14.5, 17L27.5, 17C27.7761, 17 28, 16.7761 28, 16.5C28, 16.2239 27.7761, 16 27.5, 16L14.5, 16C14.2239, 16 14, 16.2239 14, 16.5C14, 16.7761 14.2239, 17 14.5, 17z" fill="#727272" fill-opacity="1" class="Black" />
        </g>
      </g>
    </g>
  </g>
  <g id="Layer_1" transform="translate(-0.9349, -0.9349)">
    <g transform="matrix(0.9333, 0, 0, 0.9333, 0, 0)">
      <g id="icon">
        <g>
          <path d="M27.5, 20L14.5, 20C14.2239, 20 14, 20.2239 14, 20.5C14, 20.7761 14.2239, 21 14.5, 21L27.5, 21C27.7761, 21 28, 20.7761 28, 20.5C28, 20.2239 27.7761, 20 27.5, 20z" fill="#727272" fill-opacity="1" class="Black" />
        </g>
      </g>
    </g>
  </g>
  <g id="Layer_1" transform="translate(-0.9349, -0.9349)">
    <g transform="matrix(0.9333, 0, 0, 0.9333, 0, 0)">
      <g id="icon">
        <g>
          <path d="M27.5, 26L14.5, 26C14.2239, 26 14, 26.2239 14, 26.5C14, 26.7761 14.2239, 27 14.5, 27L27.5, 27C27.7761, 27 28, 26.7761 28, 26.5C28, 26.2239 27.7761, 26 27.5, 26z" fill="#727272" fill-opacity="1" class="Black" />
        </g>
      </g>
    </g>
  </g>
  <g id="Layer_1" transform="translate(-0.9349, -0.9349)">
    <g transform="matrix(0.9333, 0, 0, 0.9333, 0, 0)">
      <g id="icon">
        <g>
          <path d="M27.5, 18L14.5, 18C14.2239, 18 14, 18.2239 14, 18.5C14, 18.7761 14.2239, 19 14.5, 19L27.5, 19C27.7761, 19 28, 18.7761 28, 18.5C28, 18.2239 27.7761, 18 27.5, 18z" fill="#727272" fill-opacity="1" class="Black" />
        </g>
      </g>
    </g>
  </g>
  <g id="Layer_1" transform="translate(-0.9349, -0.9349)">
    <g transform="matrix(0.9333, 0, 0, 0.9333, 0, 0)">
      <g id="icon">
        <g>
          <path d="M27.5, 22L14.6641, 22C14.9095, 22.2882 15.0351, 22.6438 15.0389, 23L27.5, 23C27.7761, 23 28, 22.7761 28, 22.5C28, 22.2239 27.7761, 22 27.5, 22z" fill="#727272" fill-opacity="1" class="Black" />
        </g>
      </g>
    </g>
  </g>
  <g id="Layer_1" transform="translate(-0.9349, -0.9349)">
    <g transform="matrix(0.9333, 0, 0, 0.9333, 0, 0)">
      <g id="icon">
        <g>
          <path d="M27.5, 24L14.6867, 24C14.657, 24.0359 14.626, 24.0711 14.5925, 24.1048L14.0294, 24.6628C14.0972, 24.8585 14.2812, 25 14.5, 25L27.5, 25C27.7761, 25 28, 24.7761 28, 24.5C28, 24.2239 27.7761, 24 27.5, 24z" fill="#727272" fill-opacity="1" class="Black" />
        </g>
      </g>
    </g>
  </g>
  <g id="Layer_1" transform="translate(-0.9349, -0.9349)">
    <g transform="matrix(0.9333, 0, 0, 0.9333, 0, 0)">
      <g id="icon">
        <path d="M10.0545, 26.946C10.2147, 26.946 10.3684, 26.8828 10.4823, 26.7702L13.8839, 23.3992C14.1005, 23.1817 14.0954, 22.8375 13.8734, 22.6145L10.4827, 19.2136C10.3687, 19.0992 10.2138, 19.0349 10.0523, 19.0349L8.1694, 19.0349C7.9646, 19.0349 7.8619, 19.2824 8.0065, 19.4274L10.5574, 21.9839L7.3157, 21.9839C6.0247, 21.9839 5.0134, 20.9662 5.0134, 19.667L5.0134, 17.5098C5.0134, 17.1364 4.8951, 17.0201 4.5196, 17.0201L3.5149, 17.0201C3.1634, 17.0201 3, 17.1098 3, 17.5098L3, 19.667C3, 22.0143 4.8304, 23.9187 7.1692, 24.0075L7.1753, 24.0082L7.1972, 24.0085C7.2277, 24.0085 7.2576, 24.0048 7.2866, 23.9974L10.5529, 23.9974L8.0174, 26.5422C7.8687, 26.6916 7.9745, 26.9463 8.1854, 26.9463L10.0545, 26.9463z" fill="#1177D7" fill-opacity="1" class="Blue" />
      </g>
    </g>
  </g>
  <g id="Layer_1" transform="translate(-0.9349, -0.9349)">
    <g transform="matrix(0.9333, 0, 0, 0.9333, 0, 0)">
      <g id="icon">
        <path d="M5.9911, 9.04L3.9989, 9.04C3.9092, 8.6971 3.8637, 8.3454 3.8637, 7.9933C3.8637, 7.6445 3.9083, 7.296 3.9963, 6.9564L5.9846, 6.9564C5.9409, 7.3216 5.9187, 7.6681 5.9187, 7.9878C5.9187, 8.3096 5.9431, 8.663 5.9911, 9.04zM6.6554, 4.0775C5.6857, 4.4134 4.8669, 5.1058 4.3716, 6.0093L6.1377, 6.0093C6.2981, 5.2094 6.5114, 4.508 6.6554, 4.0775zM11.6421, 6.0093C11.1414, 5.0956 10.3114, 4.3995 9.3282, 4.0675C9.469, 4.499 9.6783, 5.2042 9.8353, 6.0093L11.6421, 6.0093zM8.2333, 3.8573C8.1496, 3.8524 8.0765, 3.8501 8.0068, 3.8501C7.9068, 3.8501 7.8044, 3.8542 7.6953, 3.8626C7.5852, 4.1754 7.305, 5.0178 7.1087, 6.0093L8.8218, 6.0093C8.6247, 5.0136 8.344, 4.1712 8.2333, 3.8573zM7.7131, 12.1251C7.8177, 12.1328 7.9143, 12.1365 8.0069, 12.1365C8.0718, 12.1365 8.1393, 12.1346 8.2156, 12.1304C8.3098, 11.8573 8.5935, 10.9978 8.7998, 9.9871L7.1307, 9.9871C7.3361, 10.9932 7.6195, 11.8533 7.7131, 12.1251zM4.3771, 9.9871C4.8763, 10.8922 5.7002, 11.5834 6.6746, 11.9155C6.5308, 11.4857 6.3166, 10.7853 6.1513, 9.9871L4.3771, 9.9871zM10.0485, 7.9879C10.0485, 8.3098 10.0248, 8.6632 9.9781, 9.04L12.0147, 9.04C12.1044, 8.6973 12.1499, 8.3455 12.1499, 7.9933C12.1499, 7.6445 12.1053, 7.2961 12.0173, 6.9564L9.9844, 6.9564C10.027, 7.3219 10.0485, 7.6684 10.0485, 7.9879zM15, 2.0833L15, 13.9166C15, 14.5149 14.515, 14.9999 13.9167, 14.9999L2.0833, 14.9999C1.485, 15 1, 14.515 1, 13.9167L1, 2.0833C1, 1.485 1.485, 1 2.0833, 1L13.9166, 1C14.515, 1 15, 1.485 15, 2.0833zM13.4, 7.9933C13.4, 5.0194 10.9807, 2.6 8.0068, 2.6C5.033, 2.6 2.6136, 5.0194 2.6136, 7.9933C2.6136, 10.9672 5.033, 13.3866 8.0068, 13.3866C10.9807, 13.3866 13.4, 10.9672 13.4, 7.9933zM6.9583, 6.9565C6.917, 7.3098 6.8961, 7.6443 6.8961, 7.9521C6.8961, 8.2822 6.9215, 8.6479 6.9718, 9.0401L8.9587, 9.0401C9.0089, 8.6479 9.0344, 8.2823 9.0344, 7.9521C9.0344, 7.6443 9.0135, 7.3098 8.9722, 6.9565L6.9583, 6.9565zM9.3094, 11.9254C10.2972, 11.5971 11.1319, 10.9022 11.6365, 9.9871L9.8221, 9.9871C9.657, 10.8054 9.4379, 11.5309 9.3094, 11.9254z" fill="#039C23" fill-opacity="1" class="Green" />
      </g>
    </g>
  </g>
  <g id="Layer_1" transform="translate(-0.9349, -0.9349)">
    <g transform="matrix(0.9333, 0, 0, 0.9333, 0, 0)">
      <g id="icon">
        <path d="M8.0068, 13.3866C5.033, 13.3866 2.6136, 10.9672 2.6136, 7.9933C2.6136, 5.0194 5.033, 2.6 8.0068, 2.6C10.9806, 2.6 13.4, 5.0194 13.4, 7.9933C13.4, 10.9672 10.9807, 13.3866 8.0068, 13.3866zM7.7131, 12.1251C7.8177, 12.1328 7.9143, 12.1365 8.0069, 12.1365C8.0718, 12.1365 8.1393, 12.1346 8.2156, 12.1304C8.3098, 11.8573 8.5935, 10.9978 8.7998, 9.9871L7.1307, 9.9871C7.3361, 10.9932 7.6195, 11.8533 7.7131, 12.1251zM9.8221, 9.9871C9.6571, 10.8054 9.4379, 11.5308 9.3095, 11.9254C10.2973, 11.5971 11.132, 10.9022 11.6366, 9.9871L9.8221, 9.9871zM4.3771, 9.9871C4.8763, 10.8922 5.7002, 11.5834 6.6746, 11.9155C6.5308, 11.4857 6.3166, 10.7853 6.1513, 9.9871L4.3771, 9.9871zM12.0148, 9.04C12.1045, 8.6973 12.15, 8.3455 12.15, 7.9933C12.15, 7.6445 12.1054, 7.2961 12.0174, 6.9564L9.9844, 6.9564C10.027, 7.3218 10.0485, 7.6683 10.0485, 7.9878C10.0485, 8.3097 10.0248, 8.6631 9.9781, 9.0399L12.0148, 9.0399zM8.9587, 9.04C9.0089, 8.6478 9.0344, 8.2822 9.0344, 7.952C9.0344, 7.6442 9.0135, 7.3097 8.9722, 6.9564L6.9583, 6.9564C6.917, 7.3097 6.8961, 7.6442 6.8961, 7.952C6.8961, 8.2821 6.9215, 8.6478 6.9718, 9.04L8.9587, 9.04zM5.9911, 9.04C5.943, 8.663 5.9187, 8.3095 5.9187, 7.9879C5.9187, 7.6681 5.9409, 7.3217 5.9846, 6.9565L3.9963, 6.9565C3.9083, 7.2961 3.8637, 7.6445 3.8637, 7.9934C3.8637, 8.3455 3.9092, 8.6972 3.9989, 9.0401L5.9911, 9.0401zM11.6421, 6.0093C11.1414, 5.0956 10.3114, 4.3995 9.3282, 4.0675C9.469, 4.499 9.6783, 5.2042 9.8353, 6.0093L11.6421, 6.0093zM8.8218, 6.0093C8.6247, 5.0136 8.3441, 4.1712 8.2333, 3.8573C8.1496, 3.8524 8.0765, 3.8501 8.0068, 3.8501C7.9068, 3.8501 7.8044, 3.8542 7.6953, 3.8626C7.5852, 4.1754 7.305, 5.0178 7.1087, 6.0093L8.8218, 6.0093zM6.1377, 6.0093C6.2981, 5.2095 6.5113, 4.508 6.6553, 4.0775C5.6856, 4.4135 4.8668, 5.1058 4.3715, 6.0093L6.1377, 6.0093z" fill="#FFFFFF" fill-opacity="1" class="White" />
      </g>
    </g>
  </g>
</svg>