<?xml version='1.0' encoding='UTF-8'?>
<svg viewBox="-2 -4.3325 32 32" xmlns="http://www.w3.org/2000/svg" xmlns:xlink="http://www.w3.org/1999/xlink">
  <g id="Layer_1" transform="translate(-0.9357, -2.8004)">
    <g transform="matrix(0.9334, 0, 0, 0.9334, 0, 0)">
      <g id="icon">
        <path d="M10.5, 7.5L10.5, 11L11.2683, 11C11.6555, 11 12.0344, 11.1572 12.3079, 11.4313L17.587, 16.6346L17.5965, 16.6445C18.1246, 17.1943 18.138, 17.8366 17.6334, 18.4067L17.6079, 18.4355L12.3002, 23.5763C12.0236, 23.8496 11.6576, 24 11.2683, 24L10.5, 24L10.5, 27C10.5, 27.2761 10.7239, 27.5 11, 27.5L30, 27.5C30.2761, 27.5 30.5, 27.2761 30.5, 27L30.5, 7.5L10.5, 7.5z" fill="#FFFFFF" />
      </g>
    </g>
  </g>
  <g id="Layer_1" transform="translate(-0.9357, -2.8004)">
    <g transform="matrix(0.9334, 0, 0, 0.9334, 0, 0)">
      <g id="icon">
        <path d="M10, 7L10, 11L10.9999, 11L11, 8L30, 8L30, 27L10.9993, 27L10.9994, 24L10, 24L10, 27C10, 27.5514 10.4486, 28 11, 28L30, 28C30.5514, 28 31, 27.5514 31, 27L31, 7L10, 7z" fill="#727272" class="Black" />
      </g>
    </g>
  </g>
  <g id="Layer_1" transform="translate(-0.9357, -2.8004)">
    <g transform="matrix(0.9334, 0, 0, 0.9334, 0, 0)">
      <g id="icon">
        <path d="M29.6, 3L11.4, 3C10.6268, 3 10, 3.6268 10, 4.4L10, 8L31, 8L31, 4.4C31, 3.6268 30.3732, 3 29.6, 3z" fill="#1177D7" class="Blue" />
      </g>
    </g>
  </g>
  <g id="Layer_1" transform="translate(-0.9357, -2.8004)">
    <g transform="matrix(0.9334, 0, 0, 0.9334, 0, 0)">
      <g id="icon">
        <path d="M30, 13L30, 12L24, 12L24, 8L23, 8L23, 12L17, 12L17, 8L16, 8L16, 12L12.8849, 12L13.8995, 13L16, 13L16, 15.0704L17, 16.056L17, 13L23, 13L23, 17L17.8588, 17C18.0336, 17.3249 18.0476, 17.6676 17.8999, 18L23, 18L23, 22L17, 22L17, 19.0243L16, 19.9929L16, 22L13.9277, 22L12.8952, 23L16, 23L16, 27L17, 27L17, 23L23, 23L23, 27L24, 27L24, 23L30, 23L30, 22L24, 22L24, 18L30, 18L30, 17L24, 17L24, 13L30, 13z" fill="#727272" class="Black" />
      </g>
    </g>
  </g>
  <g id="Layer_1" transform="translate(-0.9357, -2.8004)">
    <g transform="matrix(0.9334, 0, 0, 0.9334, 0, 0)">
      <g id="icon">
        <path d="M11.5052, 16.0132L1.296, 16.0132C1.1294, 16.0181 1.001, 16.1382 1.001, 16.2999L1.001, 18.7009C1.001, 18.8653 1.1355, 18.9999 1.3, 18.9999L11.4933, 18.9999L7.5233, 22.7999C7.4494, 22.8737 7.5017, 22.9999 7.6061, 22.9999L11.2683, 22.9999C11.3927, 22.9999 11.5121, 22.9504 11.6, 22.8623L16.8845, 17.7438C17.04, 17.5681 17.04, 17.5087 16.8753, 17.3371L11.6, 12.1376C11.5121, 12.0495 11.3927, 12 11.2683, 12L7.6126, 12C7.5082, 12 7.456, 12.1262 7.5298, 12.2L11.5052, 16.0132z" fill="#039C23" class="Green" />
      </g>
    </g>
  </g>
</svg>