<?xml version='1.0' encoding='UTF-8'?>
<svg viewBox="-2.0075 -4.03 32 32" xmlns="http://www.w3.org/2000/svg" xmlns:xlink="http://www.w3.org/1999/xlink">
  <g id="Layer_1" transform="translate(-1.0001, -3.7746)">
    <g transform="matrix(0.9342, 0, 0, 0.9342, 0, 0)">
      <g id="icon">
        <g>
          <path d="M16.075, 7.867C16.067, 7.927 16.034, 7.927 16.026, 7.867C11.319, 0.766 1.166, 4.417 1.068, 11.687C1.068, 17.714 5.734, 20.524 16.022, 29.653C16.024, 29.669 16.079, 29.669 16.081, 29.653C26.368, 20.524 31.035, 17.714 31.035, 11.687C30.935, 4.417 20.782, 0.767 16.075, 7.867zM28.286, 15.918C27.938, 15.932 27.117, 15.947 26.323, 15.961C25.687, 15.972 25.086, 15.983 24.807, 15.992L24.291, 16.011C23.838, 16.027 23.386, 16.042 22.933, 16.055L19.701, 16.14L18.608, 18.685C18.478, 18.99 18.34, 19.3 18.207, 19.6L17.301, 21.638C17.166, 21.942 16.833, 22.138 16.454, 22.138L16.453, 22.138C16.372, 22.138 16.289, 22.129 16.207, 22.11C15.887, 22.031 15.651, 21.816 15.573, 21.534C15.482, 21.2 15.395, 20.869 15.309, 20.541L15.215, 20.183L14.111, 15.806L13.762, 14.374C13.675, 14.019 13.592, 13.663 13.509, 13.308L13.231, 14.253C13.172, 14.459 13.11, 14.667 13.047, 14.875L12.976, 15.111C12.921, 15.287 12.868, 15.463 12.817, 15.636C12.732, 15.901 12.493, 16.071 12.208, 16.072L8.815, 16.01C8.272, 15.997 7.363, 15.985 6.4, 15.972C5.392, 15.959 4.349, 15.945 3.763, 15.93C3.525, 15.919 3.341, 15.723 3.341, 15.483C3.341, 15.243 3.526, 15.047 3.762, 15.038C4.401, 15.02 5.554, 15.004 6.668, 14.988C7.52, 14.976 8.324, 14.964 8.816, 14.953L11.675, 14.896C11.742, 14.549 11.8, 14.254 11.865, 13.956L12.156, 12.561C12.225, 12.219 12.301, 11.871 12.375, 11.535L12.765, 9.761C12.84, 9.412 13.187, 9.158 13.591, 9.158C13.631, 9.158 13.672, 9.16 13.712, 9.165C14.058, 9.207 14.335, 9.426 14.419, 9.723C14.586, 10.315 14.744, 10.904 14.896, 11.474L15.195, 12.589C15.333, 13.098 15.457, 13.558 15.573, 14.018L16.75, 18.686C16.842, 18.498 16.94, 18.297 17.04, 18.099L18.498, 15.192C18.629, 14.943 18.88, 14.795 19.171, 14.795L22.933, 14.888C23.329, 14.899 23.724, 14.913 24.12, 14.927L24.807, 14.951C25.069, 14.959 25.622, 14.969 26.207, 14.979C27.01, 14.993 27.921, 15.009 28.285, 15.025C28.518, 15.036 28.7, 15.231 28.701, 15.469C28.7, 15.709 28.518, 15.905 28.286, 15.918z" fill="#1177D7" class="Blue" fill-rule="evenodd" />
        </g>
      </g>
    </g>
  </g>
</svg>