<?xml version='1.0' encoding='UTF-8'?>
<svg viewBox="-2 -4.155 32 32" xmlns="http://www.w3.org/2000/svg" xmlns:xlink="http://www.w3.org/1999/xlink">
  <g id="Layer_1" transform="translate(-3.2325, -5.3862)">
    <g transform="matrix(1.0769, 0, 0, 1.0769, 0, 0)">
      <g transform="matrix(1, 0, 0, 1, 0, 0)">
        <g id="icon">
          <g>
            <path d="M21, 12.5083C21.0101, 12.6393 21.2298, 13 21.4333, 13L28.9854, 13C28.9537, 12.7974 28.8594, 12.5593 28.6003, 12.3002C28.301, 12.001 23.1836, 6.8836 21.7, 5.4C21.5082, 5.2082 21.2904, 5.0776 21, 5.0255L21, 12.5083z" fill="#FFB115" fill-opacity="1" class="Yellow" fill-rule="evenodd" />
          </g>
        </g>
      </g>
    </g>
  </g>
  <g id="Layer_1" transform="translate(-3.2325, -5.3862)">
    <g transform="matrix(1.0769, 0, 0, 1.0769, 0, 0)">
      <g transform="matrix(1, 0, 0, 1, 0, 0)">
        <g id="icon">
          <g>
            <path d="M21.4333, 14C20.7388, 14 20.2045, 13.3782 20.0473, 12.8234C20.017, 12.7589 20, 12.6869 20, 12.6109L20, 5C16.8139, 5 3.9, 5 3.9, 5C3.2594, 5 3, 5.2649 3, 5.9L3, 26.1C3, 26.7351 3.2594, 27 3.9, 27L28.1, 27C28.7406, 27 29, 26.7351 29, 26.1C29, 26.1 29, 16.8192 29, 14L21.4333, 14z" fill="#FFB115" fill-opacity="1" class="Yellow" fill-rule="evenodd" />
          </g>
        </g>
      </g>
    </g>
  </g>
</svg>