<?xml version='1.0' encoding='UTF-8'?>
<svg viewBox="-2 -2.4525 32 32" xmlns="http://www.w3.org/2000/svg" xmlns:xlink="http://www.w3.org/1999/xlink">
  <g id="Layer_1" transform="translate(-0.9032, -0.9053)">
    <g transform="matrix(0.9032, 0, 0, 0.9032, 0, 0)">
      <g id="icon">
        <path d="M24.023, 1.002C24.727, 1.002 25.662, 1.272 26.278, 1.884C26.363, 1.968 30, 5.5 30, 5.5L30, 1.4L32, 3.4L32, 9C32, 9 31.955, 9.017 31.87, 9L26.37, 8.995L24.4, 7L28.5, 7L25.123, 3.661C24.827, 3.4 24.626, 3 24.023, 3C23.402, 3 20.499, 3 19.697, 3C19.588, 3 19.5, 2.912 19.5, 2.803L19.5, 1.199C19.5, 1.09 19.588, 1.002 19.696, 1.002C20.528, 1.002 23.636, 1.003 24.023, 1.002z" fill="#039C23" class="Green" fill-rule="evenodd" />
      </g>
    </g>
  </g>
  <g id="Layer_1" transform="translate(-0.9032, -0.9053)">
    <g transform="matrix(0.9032, 0, 0, 0.9032, 0, 0)">
      <g id="icon">
        <path d="M27.8, 31L3.2, 31C2.537, 31 2, 30.463 2, 29.8L1, 16.2C1, 15.537 1.537, 15 2.2, 15L28.8, 15C29.463, 15 30, 15.537 30, 16.2L29, 29.8C29, 30.463 28.463, 31 27.8, 31z" fill="#FFB115" class="Yellow" fill-rule="evenodd" />
      </g>
    </g>
  </g>
  <g id="Layer_1" transform="translate(-0.9032, -0.9053)">
    <g transform="matrix(0.9032, 0, 0, 0.9032, 0, 0)">
      <g id="icon">
        <path d="M28, 14L3, 14L3, 8.2C3, 7.537 3.537, 7 4.2, 7L12.172, 7C12.702, 7 13.211, 7.211 13.586, 7.586L15.414, 9.414C15.789, 9.789 16.298, 10 16.828, 10L26.8, 10C27.463, 10 28, 10.537 28, 11.2L28, 14z" fill="#FFB115" class="Yellow" fill-rule="evenodd" />
      </g>
    </g>
  </g>
</svg>