<?xml version='1.0' encoding='UTF-8'?>
<svg viewBox="-5.445 0 32 32" xmlns="http://www.w3.org/2000/svg" xmlns:xlink="http://www.w3.org/1999/xlink">
  <g transform="translate(-5.4479, 5.4452)">
    <g transform="matrix(1.1428, 0, 0, 1.1428, 0, 0)">
      <g id="Layer_1" transform="translate(-0.9924, -5.5299) rotate(90, 14.9936, 14.7661)">
        <g transform="matrix(0.923, 0, 0, 0.923, 0, 0)">
          <g id="icon">
            <path d="M6.622, 26C6.965, 26 7.243, 25.721 7.243, 25.379L7.243, 24.707C7.243, 24.364 6.964, 24.086 6.622, 24.086L6.545, 24.086C5.392, 24.065 4.9, 23.524 4.9, 22.277C4.9, 21.832 4.959, 21.391 5.021, 20.923C5.037, 20.807 5.052, 20.69 5.065, 20.583C5.162, 19.978 5.262, 19.352 5.262, 18.676C5.262, 17.386 4.82, 16.496 3.947, 16.02C4.841, 15.545 5.282, 14.66 5.262, 13.385C5.262, 12.732 5.171, 12.164 5.075, 11.564L5.067, 11.513C5.052, 11.393 5.036, 11.127 5.02, 11.008C4.958, 10.546 4.9, 10.11 4.9, 9.688C4.9, 8.44 5.377, 7.923 6.54, 7.903L6.622, 7.903C6.965, 7.903 7.243, 7.624 7.243, 7.282L7.243, 6.61C7.243, 6.267 6.964, 5.989 6.622, 5.989L6.467, 5.989C4.039, 5.989 2.646, 7.249 2.646, 9.447C2.646, 10.097 2.736, 10.898 2.832, 11.591L2.842, 11.666C2.927, 12.238 3.032, 12.95 3.032, 13.62C3.008, 14.46 2.761, 15.035 1.631, 15.115C1.319, 15.137 1.075, 15.397 1.075, 15.706L1.075, 16.36C1.075, 16.668 1.318, 16.928 1.629, 16.951C2.6, 17.023 3.033, 17.489 3.033, 18.461C3.033, 18.932 2.976, 19.419 2.917, 19.935C2.9, 20.081 2.883, 20.228 2.867, 20.376C2.715, 21.201 2.647, 21.826 2.647, 22.4C2.647, 24.723 3.995, 26.003 6.443, 26.003L6.622, 26.003zM26.048, 26C28.495, 26 29.842, 24.721 29.842, 22.399C29.842, 21.825 29.774, 21.201 29.622, 20.377C29.606, 20.229 29.589, 20.082 29.572, 19.936C29.512, 19.421 29.456, 18.934 29.456, 18.463C29.456, 17.492 29.889, 17.026 30.859, 16.954C31.169, 16.931 31.412, 16.671 31.412, 16.363L31.412, 15.71C31.412, 15.401 31.168, 15.141 30.856, 15.119C29.727, 15.04 29.48, 14.464 29.456, 13.625C29.456, 12.955 29.561, 12.244 29.646, 11.672L29.656, 11.597C29.752, 10.905 29.842, 10.104 29.842, 9.455C29.842, 7.259 28.45, 5.999 26.024, 5.999L25.869, 5.999C25.527, 5.999 25.248, 6.277 25.248, 6.62L25.248, 7.292C25.248, 7.634 25.526, 7.913 25.869, 7.913L25.951, 7.913C27.114, 7.933 27.59, 8.45 27.59, 9.697C27.59, 10.119 27.532, 10.555 27.47, 11.016C27.454, 11.135 27.438, 11.401 27.423, 11.521L27.415, 11.572C27.319, 12.172 27.228, 12.739 27.228, 13.392C27.208, 14.667 27.65, 15.551 28.543, 16.026C27.67, 16.501 27.228, 17.391 27.228, 18.68C27.228, 19.356 27.328, 19.981 27.425, 20.585C27.438, 20.692 27.454, 20.808 27.469, 20.924C27.531, 21.391 27.59, 21.832 27.59, 22.277C27.59, 23.524 27.098, 24.064 25.946, 24.085L25.869, 24.085C25.527, 24.085 25.248, 24.363 25.248, 24.706L25.248, 25.378C25.248, 25.72 25.526, 25.999 25.869, 25.999L26.048, 25.999z" fill="Transparent" fill-opacity="1" class="Transparent" fill-rule="evenodd" />
          </g>
        </g>
      </g>
    </g>
  </g>
  <g transform="translate(-5.4479, 5.4452)">
    <g transform="matrix(1.1428, 0, 0, 1.1428, 0, 0)">
      <g id="Layer_1" transform="translate(5.0826, -11.5949) rotate(90, 8.9237, 14.7611)">
        <g transform="matrix(0.923, 0, 0, 0.923, 0, 0)">
          <g id="icon">
            <path d="M11.715, 15.991C11.715, 17.122 11.071, 18.04 9.666, 18.04C8.535, 18.04 7.617, 17.123 7.617, 15.991C7.617, 14.859 8.534, 13.942 9.666, 13.942C10.798, 13.942 11.715, 14.86 11.715, 15.991z" fill="#1177D7" fill-opacity="1" class="Blue" fill-rule="evenodd" />
          </g>
        </g>
      </g>
    </g>
  </g>
  <g transform="translate(-5.4479, 5.4452)">
    <g transform="matrix(1.1428, 0, 0, 1.1428, 0, 0)">
      <g id="Layer_1" transform="translate(-0.7574, -5.7549) rotate(90, 14.7636, 14.7611)">
        <g transform="matrix(0.923, 0, 0, 0.923, 0, 0)">
          <g id="icon">
            <path d="M15.995, 13.943C14.864, 13.943 13.946, 14.86 13.946, 15.992C13.946, 17.124 14.863, 18.041 15.995, 18.041C17.4, 18.041 18.044, 17.124 18.044, 15.992C18.044, 14.86 17.126, 13.943 15.995, 13.943z" fill="#1177D7" fill-opacity="1" class="Blue" fill-rule="evenodd" />
          </g>
        </g>
      </g>
    </g>
  </g>
  <g transform="translate(-5.4479, 5.4452)">
    <g transform="matrix(1.1428, 0, 0, 1.1428, 0, 0)">
      <g id="Layer_1" transform="translate(-6.5999, 0.0876) rotate(90, 20.6062, 14.7611)">
        <g transform="matrix(0.923, 0, 0, 0.923, 0, 0)">
          <g id="icon">
            <path d="M22.323, 13.943C21.192, 13.943 20.274, 14.86 20.274, 15.992C20.274, 17.124 21.191, 18.041 22.323, 18.041C23.728, 18.041 24.372, 17.124 24.372, 15.992C24.372, 14.86 23.454, 13.943 22.323, 13.943z" fill="#1177D7" fill-opacity="1" class="Blue" fill-rule="evenodd" />
          </g>
        </g>
      </g>
    </g>
  </g>
</svg>