<?xml version='1.0' encoding='UTF-8'?>
<svg viewBox="-2.4675 -1.9975 32 32" xmlns="http://www.w3.org/2000/svg" xmlns:xlink="http://www.w3.org/1999/xlink">
  <g id="Layer_1" transform="translate(-0.9354, -0.9332)">
    <g transform="matrix(0.9334, 0, 0, 0.9334, 0, 0)">
      <g id="icon">
        <path d="M7, 6.6288L7, 30.6978C7.005, 30.8685 7.128, 31 7.2937, 31L9.6937, 31C9.8621, 31 10, 30.8622 10, 30.6937L10, 6.641L15.7951, 12.4646C15.8707, 12.5403 16, 12.4868 16, 12.3798L16, 8.6282C16, 8.5007 15.9493, 8.3785 15.8591, 8.2884L8.6987, 1.1183C8.5188, 0.959 8.4578, 0.959 8.2821, 1.1277L1.141, 8.2951C1.0507, 8.3852 1, 8.5074 1, 8.6349L1, 12.3797C1, 12.4866 1.1293, 12.5401 1.2049, 12.4646L7, 6.6288z" fill="#039C23" class="Green" />
      </g>
    </g>
  </g>
  <g id="Layer_1" transform="translate(-0.9354, -0.9332)">
    <g transform="matrix(0.9334, 0, 0, 0.9334, 0, 0)">
      <g id="icon">
        <path d="M25, 22.3712L25, 4.3022C24.995, 4.1315 24.872, 4 24.7063, 4L22.3063, 4C22.1379, 4 22, 4.1378 22, 4.3063L22, 22.359L17.2049, 17.6354C17.1293, 17.5597 17, 17.6132 17, 17.7202L17, 21.4717C17, 21.5992 17.0507, 21.7214 17.1409, 21.8115L23.3013, 27.8817C23.4812, 28.0409 23.5422, 28.0409 23.7179, 27.8723L29.859, 21.8049C29.9493, 21.7148 30, 21.5926 30, 21.4651L30, 17.7203C30, 17.6134 29.8707, 17.5599 29.7951, 17.6354L25, 22.3712z" fill="#B4B4B5" opacity="0.49" />
      </g>
    </g>
  </g>
</svg>