<?xml version='1.0' encoding='UTF-8'?>
<svg viewBox="-2.47 -2 32 32" xmlns="http://www.w3.org/2000/svg" xmlns:xlink="http://www.w3.org/1999/xlink">
  <g id="Layer_1" transform="translate(-1.8687, -0.9333)">
    <g transform="matrix(0.9333, 0, 0, 0.9333, 0, 0)">
      <g id="icon">
        <path d="M25, 25.3712L25, 1.3022C24.995, 1.1315 24.872, 1 24.7063, 1L22.3063, 1C22.1379, 1 22, 1.1378 22, 1.3063L22, 25.359L16.2049, 19.5354C16.1293, 19.4597 16, 19.5132 16, 19.6202L16, 23.3717C16, 23.4992 16.0507, 23.6214 16.1409, 23.7115L23.3013, 30.8817C23.4812, 31.0409 23.5422, 31.0409 23.7179, 30.8723L30.859, 23.7049C30.9493, 23.6148 31, 23.4926 31, 23.3651L31, 19.6203C31, 19.5134 30.8707, 19.4599 30.7951, 19.5354L25, 25.3712z" fill="#1177D7" class="Blue" />
      </g>
    </g>
  </g>
  <g id="Layer_1" transform="translate(-1.8687, -0.9333)">
    <g transform="matrix(0.9333, 0, 0, 0.9333, 0, 0)">
      <g id="icon">
        <path d="M7, 9.6288L7, 27.6978C7.005, 27.8685 7.128, 28 7.2937, 28L9.6937, 28C9.8621, 28 10, 27.8622 10, 27.6937L10, 9.641L14.7951, 14.3646C14.8707, 14.4403 15, 14.3868 15, 14.2798L15, 10.5283C15, 10.4008 14.9493, 10.2786 14.8591, 10.1885L8.6987, 4.1183C8.5188, 3.959 8.4578, 3.959 8.2821, 4.1277L2.141, 10.1951C2.0507, 10.2852 2, 10.4074 2, 10.5349L2, 14.2797C2, 14.3866 2.1293, 14.4401 2.2049, 14.3646L7, 9.6288z" fill="#B4B4B5" opacity="0.49" />
      </g>
    </g>
  </g>
</svg>