<?xml version='1.0' encoding='UTF-8'?>
<svg viewBox="-4 -4 32 32" xmlns="http://www.w3.org/2000/svg" xmlns:xlink="http://www.w3.org/1999/xlink">
  <g id="Layer_1" transform="translate(-4, -4)" style="enable-background:new 0 0 32 32">
    <g id="Percent">
      <path d="M13.1, 13.6C14.1, 12.6 14.6, 11.2 14.6, 9.4C14.6, 7.7 14.2, 6.4 13.3, 5.4C12.3, 4.5 11.1, 4 9.5, 4C7.8, 4 6.5, 4.5 5.5, 5.6C4.5, 6.6 4, 8 4, 9.8C4, 11.4 4.5, 12.7 5.4, 13.7C6.3, 14.7 7.6, 15.1 9.1, 15.1C10.8, 15.1 12.1, 14.6 13.1, 13.6zM7.2, 9.7C7.2, 7.7 7.9, 6.7 9.4, 6.7C10.8, 6.7 11.4, 7.7 11.4, 9.6C11.4, 11.6 10.7, 12.6 9.3, 12.6C7.9, 12.5 7.2, 11.6 7.2, 9.7z" fill="#727272" class="Black" />
    </g>
  </g>
  <g id="Layer_1" transform="translate(-4, -4)" style="enable-background:new 0 0 32 32">
    <g id="Percent">
      <polygon points="22,4 6,28 10,28 26,4  " fill="#727272" class="Black" />
    </g>
  </g>
  <g id="Layer_1" transform="translate(-4, -4)" style="enable-background:new 0 0 32 32">
    <g id="Percent">
      <path d="M26.7, 18.3C25.8, 17.4 24.6, 16.9 23, 16.9C21.3, 16.9 20, 17.4 19, 18.5C18, 19.5 17.5, 21 17.5, 22.7C17.5, 24.3 18, 25.6 18.9, 26.6C19.8, 27.6 21.1, 28 22.6, 28C24.3, 28 25.6, 27.5 26.6, 26.4C27.6, 25.4 28.1, 24 28.1, 22.2C28, 20.5 27.6, 19.2 26.7, 18.3zM22.7, 25.4C21.3, 25.4 20.6, 24.4 20.6, 22.5C20.6, 20.5 21.3, 19.5 22.8, 19.5C23.4, 19.5 23.9, 19.8 24.3, 20.3C24.7, 20.8 24.9, 21.5 24.9, 22.4C24.9, 24.4 24.1, 25.4 22.7, 25.4z" fill="#727272" class="Black" />
    </g>
  </g>
</svg>