<?xml version='1.0' encoding='UTF-8'?>
<svg viewBox="-2.465 -2 32 32" xmlns="http://www.w3.org/2000/svg" xmlns:xlink="http://www.w3.org/1999/xlink">
  <g id="Layer_1" transform="translate(-1.8676, -0.9351)">
    <g transform="matrix(0.9333, 0, 0, 0.9333, 0, 0)">
      <g id="icon">
        <g>
          <path d="M16.4455, 15.4432C14.7119, 17.1768 14.7119, 19.9975 16.4455, 21.7311C17.2853, 22.5709 18.4018, 23.0334 19.5895, 23.0334C20.7771, 23.0334 21.8937, 22.5709 22.7334, 21.7311C23.5732, 20.8913 24.0357, 19.7747 24.0357, 18.5871C24.0357, 17.3995 23.5732, 16.2829 22.7334, 15.4431C21.8936, 14.6033 20.7771, 14.1408 19.5895, 14.1408C18.4019, 14.1409 17.2853, 14.6034 16.4455, 15.4432z" fill="#FFFFFF" fill-opacity="1" class="White" fill-rule="evenodd" />
        </g>
      </g>
    </g>
  </g>
  <g id="Layer_1" transform="translate(-1.8676, -0.9351)">
    <g transform="matrix(0.9333, 0, 0, 0.9333, 0, 0)">
      <g id="icon">
        <g>
          <path d="M23.3437, 26.1883C22.1881, 26.7554 20.9127, 27.0523 19.6117, 27.0523C17.3457, 27.0523 15.2146, 26.1692 13.611, 24.5656C12.0089, 22.9634 11.1253, 20.8343 11.1231, 18.5704C11.1209, 16.3058 12.0008, 14.1775 13.6007, 12.5776C15.1983, 10.9799 17.3237, 10.1 19.5851, 10.1C21.8112, 10.1 23.906, 10.9537 25.5, 12.5036C25.5, 10.3648 25.5, 8.8823 25.5, 8.8C25.5, 8.35 25.3527, 8.0527 25.1, 7.8C23.6165, 6.3165 19.499, 2.199 19.1998, 1.8998C18.8495, 1.5496 18.5375, 1.5 18.3, 1.5C18.0625, 1.5 3.4, 1.5 3.4, 1.5C2.7649, 1.5 2.5, 1.7594 2.5, 2.4L2.5, 29.6C2.5, 30.2406 2.7649, 30.5 3.4, 30.5L24.6, 30.5C25.2351, 30.5 25.5, 30.2406 25.5, 29.6C25.5, 29.6 25.5, 29.1349 25.5, 28.3446L23.3437, 26.1883z" fill="#FFFFFF" fill-opacity="1" class="White" fill-rule="evenodd" />
        </g>
      </g>
    </g>
  </g>
  <g id="Layer_1" transform="translate(-1.8676, -0.9351)">
    <g transform="matrix(0.9333, 0, 0, 0.9333, 0, 0)">
      <g id="icon">
        <path d="M18.5, 1.8L18.5, 7.7C18.5, 8.1418 18.8582, 8.5 19.3, 8.5L25.2, 8.5" fill="none" stroke="#000000" stroke-width="1px" stroke-miterlimit="1" stroke-opacity="1" fill-rule="evenodd" />
      </g>
    </g>
  </g>
  <g id="Layer_1" transform="translate(-1.8676, -0.9351)">
    <g transform="matrix(0.9333, 0, 0, 0.9333, 0, 0)">
      <g id="icon">
        <path d="M25, 27.8446L25, 29.6C25, 29.9626 24.9626, 30 24.6, 30L3.4, 30C3.0374, 30 3, 29.9626 3, 29.6L3, 2.4C3, 2.0374 3.0374, 2 3.4, 2L18.3, 2C18.4417, 2 18.6124, 2.0196 18.8462, 2.2534L24.7464, 8.1536C24.8986, 8.3058 25, 8.4739 25, 8.8L25, 12.0524C25.2029, 12.221 25.3997, 12.399 25.5886, 12.5879C25.7317, 12.731 25.8681, 12.88 26, 13.0325L26, 8.8C26, 8.2494 25.8264, 7.8192 25.4536, 7.4464L19.5534, 1.5462C19.1857, 1.1787 18.7758, 1 18.3, 1L3.4, 1C2.4841, 1 2, 1.4841 2, 2.4L2, 29.6C2, 30.5159 2.4841, 31 3.4, 31L24.6, 31C25.5159, 31 26, 30.5159 26, 29.6L26, 28.8446L25, 27.8446z" fill="#727272" fill-opacity="1" class="Black" />
      </g>
    </g>
  </g>
  <g id="Layer_1" transform="translate(-1.8676, -0.9351)">
    <g transform="matrix(0.9333, 0, 0, 0.9333, 0, 0)">
      <g id="icon">
        <path d="M30.7479, 27.3098L25.9587, 22.5206C27.7461, 19.6384 27.3876, 15.8013 24.8814, 13.295C21.9587, 10.3723 17.2247, 10.3677 14.3077, 13.2847C11.3907, 16.2017 11.3953, 20.9357 14.318, 23.8584C16.8174, 26.3578 20.6405, 26.7212 23.52, 24.9504L28.3136, 29.744C28.6497, 30.0801 29.1946, 30.0801 29.5307, 29.744L30.7478, 28.5269C31.084, 28.1908 31.084, 27.6459 30.7479, 27.3098zM23.4406, 22.4383C21.3137, 24.5652 17.8653, 24.5652 15.7384, 22.4383C13.6115, 20.3114 13.6115, 16.863 15.7384, 14.7361C17.8653, 12.6092 21.3137, 12.6092 23.4406, 14.7361C25.5675, 16.8629 25.5675, 20.3113 23.4406, 22.4383z" fill="#1177D7" fill-opacity="1" class="Blue" fill-rule="evenodd" />
      </g>
    </g>
  </g>
</svg>