<?xml version='1.0' encoding='UTF-8'?>
<svg viewBox="-2 -2 32 32" xmlns="http://www.w3.org/2000/svg" xmlns:xlink="http://www.w3.org/1999/xlink">
  <g id="Layer_1" transform="translate(-2, -2)" style="enable-background:new 0 0 32 32">
    <g id="Printer">
      <g>
        <polygon points="10,4 22,4 22,12 24,12 24,2 8,2 8,12 10,12   " fill="#727272" class="Black" />
      </g>
    </g>
  </g>
  <g id="Layer_1" transform="translate(-2, -2)" style="enable-background:new 0 0 32 32">
    <g id="Printer">
      <g>
        <path d="M28, 10L26, 10L26, 13C26, 13.6 25.6, 14 25, 14L7, 14C6.4, 14 6, 13.6 6, 13L6, 10L4, 10C2.9, 10 2, 10.9 2, 12L2, 24C2, 25.1 2.9, 26 4, 26L8, 26L8, 30L24, 30L24, 26L28, 26C29.1, 26 30, 25.1 30, 24L30, 12C30, 10.9 29.1, 10 28, 10zM22, 24L22, 26L22, 28L10, 28L10, 26L10, 24L10, 20L22, 20L22, 24z" fill="#727272" class="Black" />
      </g>
    </g>
  </g>
</svg>