<?xml version='1.0' encoding='UTF-8'?>
<svg viewBox="-1.9975 -5.5325 32 32" xmlns="http://www.w3.org/2000/svg" xmlns:xlink="http://www.w3.org/1999/xlink">
  <g id="Layer_1" transform="translate(-0.0237, -3.5149)">
    <g transform="matrix(1.75, 0, 0, 1.75, 0, 0)">
      <g id="icon">
        <path d="M15.8904, 4.0771L13.9489, 2.1356C13.7688, 1.9555 13.4605, 1.9717 13.2799, 2.1512L6.3234, 9.0554L2.6739, 5.367C2.5874, 5.2795 2.4712, 5.2358 2.3482, 5.2354C2.2248, 5.2349 2.1086, 5.2895 2.0217, 5.3765L0.1506, 7.2476C-0.0291, 7.4273 -0.0336, 7.7147 0.145, 7.8954L3.628, 11.372C3.6484, 11.4084 3.6995, 11.4128 3.7296, 11.4428L6.0938, 13.807C6.184, 13.8972 6.2748, 13.9698 6.3931, 13.9698C6.5109, 13.9698 6.6149, 13.9388 6.7051, 13.8492L15.8631, 4.7578C15.9502, 4.6713 16.0124, 4.5404 16.0126, 4.4176C16.0128, 4.2949 15.9772, 4.1639 15.8904, 4.0771z" fill="#039C23" class="Green" />
      </g>
    </g>
  </g>
</svg>