<?xml version='1.0' encoding='UTF-8'?>
<svg viewBox="-2 -5.0575 32 32" xmlns="http://www.w3.org/2000/svg" xmlns:xlink="http://www.w3.org/1999/xlink">
  <clipPath id="clip_mask" tag="staticElement_id5908907">
    <path d="M19.086, 32L0, 32L0, 0L32, 0L32, 19.086L30.396, 17.482C30.113, 17.199 29.736, 17.043 29.335, 17.043C28.934, 17.043 28.558, 17.199 28.274, 17.482L25, 20.757L21.725, 17.482C21.442, 17.199 21.065, 17.043 20.664, 17.043C20.263, 17.043 19.887, 17.199 19.603, 17.482L17.482, 19.603C16.897, 20.188 16.897, 21.14 17.482, 21.724L20.757, 25L17.482, 28.275C16.897, 28.86 16.897, 29.812 17.482, 30.396L19.086, 32zM32, 27.757L32, 22.242L29.243, 25L32, 27.757zM22.243, 32L27.758, 32L25, 29.243L22.243, 32zM31.114, 32L32, 32L32, 31.114L31.114, 32z" fill="#727272" fill-opacity="1" class="Black" fill-rule="evenodd" />
  </clipPath>
  <g id="Layer_1" transform="translate(0, -6.115)">
    <g transform="matrix(0.8734, 0, 0, 0.8734, 0, 0)">
      <g transform="matrix(1, 0, 0, 1, 0, 0)">
        <g id="main">
          <g id="icon" clip-path="url(#clip_mask)">
            <g id="transformed_icon" transform="translate(-1, -1)">
              <rect x="2" y="9" width="28" height="14" rx="0" ry="0" fill="#FFFFFF" fill-opacity="1" class="White" fill-rule="evenodd" />
            </g>
          </g>
        </g>
      </g>
    </g>
  </g>
  <g id="Layer_1" transform="translate(0, -6.115)">
    <g transform="matrix(0.8734, 0, 0, 0.8734, 0, 0)">
      <g transform="matrix(1, 0, 0, 1, 0, 0)">
        <g id="main">
          <g id="icon" clip-path="url(#clip_mask)">
            <g id="transformed_icon" transform="translate(-1, -1)">
              <path d="M1, 8.8L1, 23.2C1, 23.642 1.358, 24 1.8, 24L30.2, 24C30.642, 24 31, 23.642 31, 23.2L31, 8.8C31, 8.358 30.642, 8 30.2, 8L1.8, 8C1.358, 8 1, 8.358 1, 8.8zM2, 23L2, 9L30, 9L30, 23L2, 23z" fill="#727272" fill-opacity="1" class="Black" fill-rule="evenodd" />
            </g>
          </g>
        </g>
      </g>
    </g>
  </g>
  <g id="Layer_1" transform="translate(0, -6.115)">
    <g transform="matrix(0.8734, 0, 0, 0.8734, 0, 0)">
      <g transform="matrix(1, 0, 0, 1, 0, 0)">
        <g id="main">
          <g id="icon" clip-path="url(#clip_mask)">
            <g id="transformed_icon" transform="translate(-1, -1)">
              <path d="M22.733, 11L23.733, 11C23.88, 11 24, 10.881 24, 10.733L24, 10.266C24, 10.119 23.881, 9.999 23.733, 9.999L22.733, 9.999C22.25, 9.999 21.814, 10.197 21.5, 10.515C21.186, 10.197 20.749, 9.999 20.267, 9.999L19.267, 9.999C19.12, 9.999 19, 10.118 19, 10.266L19, 10.733C19, 10.88 19.119, 11 19.267, 11L20.267, 11C20.672, 11 21, 11.328 21, 11.733L21, 20.266C21, 20.671 20.672, 20.999 20.267, 20.999L19.267, 20.999C19.12, 20.999 19, 21.118 19, 21.266L19, 21.733C19, 21.88 19.119, 22 19.267, 22L20.267, 22C20.75, 22 21.186, 21.802 21.5, 21.484C21.814, 21.802 22.251, 22 22.733, 22L23.733, 22C23.88, 22 24, 21.881 24, 21.733L24, 21.266C24, 21.119 23.881, 20.999 23.733, 20.999L22.733, 20.999C22.328, 20.999 22, 20.671 22, 20.266L22, 11.733C22, 11.328 22.328, 11 22.733, 11z" fill="#727272" fill-opacity="1" class="Black" />
            </g>
          </g>
        </g>
      </g>
    </g>
  </g>
  <g id="Layer_1" transform="translate(0, -6.115)">
    <g transform="matrix(0.8734, 0, 0, 0.8734, 0, 0)">
      <g transform="matrix(1, 0, 0, 1, 0, 0)">
        <g id="main">
          <g id="icon" clip-path="url(#clip_mask)">
            <g id="transformed_icon" transform="translate(-1, -1)">
              <circle cx="7" cy="16" r="3" fill="#1177D7" fill-opacity="1" class="Blue" fill-rule="evenodd" />
            </g>
          </g>
        </g>
      </g>
    </g>
  </g>
  <g id="Layer_1" transform="translate(0, -6.115)">
    <g transform="matrix(0.8734, 0, 0, 0.8734, 0, 0)">
      <g transform="matrix(1, 0, 0, 1, 0, 0)">
        <g id="main">
          <g id="icon" clip-path="url(#clip_mask)">
            <g id="transformed_icon" transform="translate(-1, -1)">
              <circle cx="15" cy="16" r="3" fill="#1177D7" fill-opacity="1" class="Blue" fill-rule="evenodd" />
            </g>
          </g>
        </g>
      </g>
    </g>
  </g>
  <g id="Layer_1" transform="translate(0, -6.115)">
    <g transform="matrix(0.8734, 0, 0, 0.8734, 0, 0)">
      <g transform="matrix(1, 0, 0, 1, 0, 0)">
        <g id="main">
          <g id="overlay">
            <path d="M31.91, 29.789L29.789, 31.91C29.594, 32.105 29.277, 32.105 29.082, 31.91L25, 27.828L21.018, 31.81C20.823, 32.005 20.506, 32.005 20.311, 31.81L18.19, 29.689C17.995, 29.494 17.995, 29.177 18.19, 28.982L22.172, 25L18.19, 21.018C17.995, 20.823 17.995, 20.506 18.19, 20.311L20.311, 18.19C20.506, 17.995 20.823, 17.995 21.018, 18.19L25, 22.172L28.982, 18.19C29.177, 17.995 29.494, 17.995 29.689, 18.19L31.81, 20.311C32.005, 20.506 32.005, 20.823 31.81, 21.018L27.828, 25L31.91, 29.082C32.106, 29.277 32.106, 29.594 31.91, 29.789z" fill="#D11C1C" fill-opacity="1" class="Red" fill-rule="evenodd" />
          </g>
        </g>
      </g>
    </g>
  </g>
</svg>