<?xml version='1.0' encoding='UTF-8'?>
<svg viewBox="-2 -4.7975 32 32" xmlns="http://www.w3.org/2000/svg" xmlns:xlink="http://www.w3.org/1999/xlink">
  <g id="Layer_1" transform="translate(-0.9351, -3.7363)">
    <g transform="matrix(0.9337, 0, 0, 0.9337, 0, 0)">
      <g id="icon">
        <path d="M23.092, 20C20.886, 20 19.092, 18.206 19.092, 16C19.092, 13.794 20.886, 12 23.092, 12L30, 12L30, 5.95C30, 4.877 29.122, 4 28.05, 4L2.95, 4C1.878, 4 1, 4.877 1, 5.95L1, 26.05C1, 27.122 1.878, 28 2.95, 28L28.05, 28C29.122, 28 30, 27.122 30, 26.05L30, 20L23.092, 20z" fill="#1177D7" fill-opacity="1" class="Blue" />
      </g>
    </g>
  </g>
  <g id="Layer_1" transform="translate(-0.9351, -3.7363)">
    <g transform="matrix(0.9337, 0, 0, 0.9337, 0, 0)">
      <g id="icon">
        <path d="M30.023, 13L23.092, 13C21.435, 13 20.092, 14.343 20.092, 16L20.092, 16C20.092, 17.657 21.435, 19 23.092, 19L30.023, 19C30.555, 19 30.986, 18.569 30.986, 18.037L30.986, 13.962C30.986, 13.431 30.555, 13 30.023, 13zM23.503, 17.537C22.676, 17.537 22.006, 16.856 22.006, 16.015C22.006, 15.174 22.676, 14.493 23.503, 14.493C24.33, 14.493 25, 15.174 25, 16.015C25, 16.856 24.33, 17.537 23.503, 17.537z" fill="#1177D7" fill-opacity="1" class="Blue" />
      </g>
    </g>
  </g>
  <g id="Layer_1" transform="translate(-0.9351, -3.7363)">
    <g transform="matrix(0.9337, 0, 0, 0.9337, 0, 0)">
      <g id="icon">
        <ellipse cx="23.503" cy="16.015" rx="1.497" ry="1.522" fill="#FFFFFF" fill-opacity="1" class="White" />
      </g>
    </g>
  </g>
</svg>