<?xml version='1.0' encoding='UTF-8'?>
<svg viewBox="-2 -6.965 32 32" xmlns="http://www.w3.org/2000/svg" xmlns:xlink="http://www.w3.org/1999/xlink">
  <g id="Layer_1" transform="translate(-0.9365, -6.276)">
    <g transform="matrix(0.9365, 0, 0, 0.9365, 0, 0)">
      <g id="icon">
        <path d="M1.2343, 13.7657L4.6586, 10.3414C4.7846, 10.2154 5, 10.3046 5, 10.4828L5, 19.138C8.4, 15.7086 12.7189, 11.2371 13.5669, 10.44C14.8789, 9.1286 18.2271, 6.7 21.6621, 6.7C27.0909, 6.7 30.9, 10.2508 30.9, 15.3349L30.9, 15.3571C30.9, 17.676 29.0113, 24.2563 28.5849, 25.7124C28.535, 25.8829 28.3787, 26 28.201, 26L24.6454, 26C24.3755, 26 24.1829, 25.739 24.2634, 25.4814C25.1282, 22.7144 26.7475, 17.1928 26.7723, 15.324C26.7664, 11.9779 24.1168, 10.7851 21.6371, 10.7851C19.6382, 10.7851 17.2263, 12.5422 16.433, 13.3438L16.371, 13.3964C15.7125, 14.0077 11.4448, 18.3 7.9066, 22L16.5172, 22C16.6954, 22 16.7846, 22.2154 16.6586, 22.3414L13.2343, 25.7657C13.0843, 25.9157 12.8808, 26 12.6686, 26L1.4, 26C1.1791, 26 1, 25.8209 1, 25.6L1, 14.3314C1, 14.1192 1.0843, 13.9157 1.2343, 13.7657z" fill="#1177D7" class="Blue" />
      </g>
    </g>
  </g>
</svg>