<?xml version='1.0' encoding='UTF-8'?>
<svg viewBox="-2 -2.255 31.9975 32" xmlns="http://www.w3.org/2000/svg" xmlns:xlink="http://www.w3.org/1999/xlink">
  <g id="Layer_1" transform="translate(-0.9853, -1.2193)">
    <g transform="matrix(0.9362, 0, 0, 0.9362, 0, 0)">
      <g id="icon">
        <path d="M20.343, 11.353C23.233, 10.798 26.029, 10.078 28.405, 12.006C30.782, 13.933 30.965, 17.332 30.958, 17.69C30.951, 18.048 30.73, 27.083 30.627, 27.707C30.525, 28.331 30.263, 30.565 29.011, 30.54C27.759, 30.514 27.543, 27.915 27.481, 26.572C27.419, 25.229 27.66, 17.807 26.791, 16.537C25.922, 15.265 20.343, 11.353 20.343, 11.353z" fill="#1177D7" class="Blue" />
      </g>
    </g>
  </g>
  <g id="Layer_1" transform="translate(-0.9853, -1.2193)">
    <g transform="matrix(0.9362, 0, 0, 0.9362, 0, 0)">
      <g id="icon">
        <path d="M26.818, 16.219L16.041, 4.994C15.776, 4.718 15.42, 4.566 15.037, 4.566C15.032, 4.566 15.028, 4.567 15.024, 4.567L17.094, 12.331C17.614, 12.496 18.087, 12.788 18.469, 13.186C19.725, 14.494 19.683, 16.581 18.374, 17.837C17.758, 18.428 16.95, 18.753 16.096, 18.753C16.096, 18.753 16.096, 18.753 16.096, 18.753C15.192, 18.753 14.349, 18.394 13.723, 17.742C13.115, 17.108 12.789, 16.275 12.807, 15.397C12.823, 14.589 13.128, 13.832 13.67, 13.242L11.993, 6.951L1.48, 17.045C1.212, 17.302 1.06, 17.649 1.052, 18.02C1.044, 18.392 1.182, 18.744 1.439, 19.012L12.216, 30.237C12.481, 30.513 12.838, 30.665 13.22, 30.665C13.581, 30.665 13.923, 30.527 14.184, 30.277L26.778, 18.186C27.046, 17.929 27.198, 17.582 27.206, 17.211C27.213, 16.84 27.076, 16.488 26.818, 16.219z" fill="#727272" class="Black" />
      </g>
    </g>
  </g>
  <g id="Layer_1" transform="translate(-0.9853, -1.2193)">
    <g transform="matrix(0.9362, 0, 0, 0.9362, 0, 0)">
      <g id="icon">
        <path d="M17.739, 13.887C17.337, 13.468 16.814, 13.239 16.277, 13.197L13.256, 1.864C13.148, 1.459 12.732, 1.218 12.327, 1.326C11.922, 1.434 11.681, 1.85 11.789, 2.255L14.811, 13.588C14.71, 13.658 14.611, 13.734 14.52, 13.822C13.613, 14.693 13.583, 16.135 14.454, 17.042C15.325, 17.949 16.767, 17.979 17.674, 17.108C18.581, 16.236 18.61, 14.794 17.739, 13.887z" fill="#727272" class="Black" />
      </g>
    </g>
  </g>
</svg>