<?xml version='1.0' encoding='UTF-8'?>
<svg viewBox="-1 -1 32 32" xmlns="http://www.w3.org/2000/svg" xmlns:xlink="http://www.w3.org/1999/xlink">
  <g transform="translate(0, 0)">
    <g transform="matrix(1.0714, 0, 0, 1.0714, 0, 0)">
      <g transform="translate(0, 0)">
        <g transform="matrix(0.875, 0, 0, 0.875, 0, 0)">
          <g transform="translate(0, 0)">
            <g transform="matrix(1.1429, 0, 0, 1.1429, 0, 0)">
              <g id="Layer_1" transform="translate(-0.9333, -0.9333)">
                <g transform="matrix(0.9333, 0, 0, 0.9333, 0, 0)">
                  <g id="icon">
                    <path d="M29.7, 30.5L2.3, 30.5C1.8582, 30.5 1.5, 30.1418 1.5, 29.7L1.5, 2.3C1.5, 1.8582 1.8582, 1.5 2.3, 1.5L29.7, 1.5C30.1418, 1.5 30.5, 1.8582 30.5, 2.3L30.5, 29.7C30.5, 30.1418 30.1418, 30.5 29.7, 30.5z" fill="#FFFFFF" class="White" />
                  </g>
                </g>
              </g>
            </g>
          </g>
        </g>
      </g>
    </g>
  </g>
  <g transform="translate(0, 0)">
    <g transform="matrix(1.0714, 0, 0, 1.0714, 0, 0)">
      <g transform="translate(0, 0)">
        <g transform="matrix(0.875, 0, 0, 0.875, 0, 0)">
          <g transform="translate(0, 0)">
            <g transform="matrix(1.1429, 0, 0, 1.1429, 0, 0)">
              <g id="Layer_1" transform="translate(-0.9333, -0.9333)">
                <g transform="matrix(0.9333, 0, 0, 0.9333, 0, 0)">
                  <g id="icon">
                    <path d="M29.7, 31L2.3, 31C1.5832, 31 1, 30.4168 1, 29.7L1, 2.3C1, 1.5832 1.5832, 1 2.3, 1L29.7, 1C30.4168, 1 31, 1.5832 31, 2.3L31, 29.7C31, 30.4168 30.4168, 31 29.7, 31zM2.3, 2C2.1346, 2 2, 2.1346 2, 2.3L2, 29.7C2, 29.8654 2.1346, 30 2.3, 30L29.7, 30C29.8654, 30 30, 29.8654 30, 29.7L30, 2.3C30, 2.1346 29.8654, 2 29.7, 2L2.3, 2z" fill="#1177D7" class="Blue" />
                  </g>
                </g>
              </g>
            </g>
          </g>
        </g>
      </g>
    </g>
  </g>
  <g transform="translate(0, 0)">
    <g transform="matrix(1.0714, 0, 0, 1.0714, 0, 0)">
      <g transform="translate(0, 0)">
        <g transform="matrix(0.875, 0, 0, 0.875, 0, 0)">
          <g transform="translate(0, 0)">
            <g transform="matrix(1.1429, 0, 0, 1.1429, 0, 0)">
              <g id="Layer_1" transform="translate(-0.9333, -0.9333)">
                <g transform="matrix(0.9333, 0, 0, 0.9333, 0, 0)">
                  <g id="icon">
                    <path d="M22.7, 23.5L9.3, 23.5C8.8582, 23.5 8.5, 23.1418 8.5, 22.7L8.5, 9.3C8.5, 8.8582 8.8582, 8.5 9.3, 8.5L22.7, 8.5C23.1418, 8.5 23.5, 8.8582 23.5, 9.3L23.5, 22.7C23.5, 23.1418 23.1418, 23.5 22.7, 23.5z" fill="#FFFFFF" />
                  </g>
                </g>
              </g>
            </g>
          </g>
        </g>
      </g>
    </g>
  </g>
  <g transform="translate(0, 0)">
    <g transform="matrix(1.0714, 0, 0, 1.0714, 0, 0)">
      <g transform="translate(0, 0)">
        <g transform="matrix(0.875, 0, 0, 0.875, 0, 0)">
          <g transform="translate(0, 0)">
            <g transform="matrix(1.1429, 0, 0, 1.1429, 0, 0)">
              <g id="Layer_1" transform="translate(-0.9333, -0.9333)">
                <g transform="matrix(0.9333, 0, 0, 0.9333, 0, 0)">
                  <g id="icon">
                    <path d="M22.7, 24L9.3, 24C8.5832, 24 8, 23.4168 8, 22.7L8, 9.3C8, 8.5832 8.5832, 8 9.3, 8L22.7, 8C23.4168, 8 24, 8.5832 24, 9.3L24, 22.7C24, 23.4168 23.4168, 24 22.7, 24zM9.3, 9C9.1346, 9 9, 9.1346 9, 9.3L9, 22.7C9, 22.8654 9.1346, 23 9.3, 23L22.7, 23C22.8654, 23 23, 22.8654 23, 22.7L23, 9.3C23, 9.1346 22.8654, 9 22.7, 9L9.3, 9z" fill="#727272" class="Black" />
                  </g>
                </g>
              </g>
            </g>
          </g>
        </g>
      </g>
    </g>
  </g>
  <g transform="translate(0, 0)">
    <g transform="matrix(1.0714, 0, 0, 1.0714, 0, 0)">
      <g transform="translate(0, 0)">
        <g transform="matrix(0.875, 0, 0, 0.875, 0, 0)">
          <g transform="translate(0, 0)">
            <g transform="matrix(1.1429, 0, 0, 1.1429, 0, 0)">
              <g id="Layer_1" transform="translate(-0.9333, -0.9333)">
                <g transform="matrix(0.9333, 0, 0, 0.9333, 0, 0)">
                  <g id="icon">
                    <path d="M20.5, 12L11.5, 12C11.2239, 12 11, 11.7761 11, 11.5C11, 11.2239 11.2239, 11 11.5, 11L20.5, 11C20.7761, 11 21, 11.2239 21, 11.5C21, 11.7761 20.7761, 12 20.5, 12zM20.5, 14L11.5, 14C11.2239, 14 11, 13.7761 11, 13.5C11, 13.2239 11.2239, 13 11.5, 13L20.5, 13C20.7761, 13 21, 13.2239 21, 13.5C21, 13.7761 20.7761, 14 20.5, 14zM20.5, 16L11.5, 16C11.2239, 16 11, 15.7761 11, 15.5C11, 15.2239 11.2239, 15 11.5, 15L20.5, 15C20.7761, 15 21, 15.2239 21, 15.5C21, 15.7761 20.7761, 16 20.5, 16zM20.5, 18L11.5, 18C11.2239, 18 11, 17.7761 11, 17.5C11, 17.2239 11.2239, 17 11.5, 17L20.5, 17C20.7761, 17 21, 17.2239 21, 17.5C21, 17.7761 20.7761, 18 20.5, 18zM20.5, 20L11.5, 20C11.2239, 20 11, 19.7761 11, 19.5C11, 19.2239 11.2239, 19 11.5, 19L20.5, 19C20.7761, 19 21, 19.2239 21, 19.5C21, 19.7761 20.7761, 20 20.5, 20z" fill="Transparent" class="Transparent" />
                  </g>
                </g>
              </g>
            </g>
          </g>
        </g>
      </g>
    </g>
  </g>
  <g transform="translate(0, 0)">
    <g transform="matrix(1.0714, 0, 0, 1.0714, 0, 0)">
      <g transform="translate(0, 0)">
        <g transform="matrix(0.875, 0, 0, 0.875, 0, 0)">
          <g transform="translate(0, 0)">
            <g transform="matrix(1.1429, 0, 0, 1.1429, 0, 0)">
              <g id="Layer_1" transform="translate(-0.9333, -0.9333)">
                <g transform="matrix(0.9333, 0, 0, 0.9333, 0, 0)">
                  <g id="icon">
                    <path d="M3.0631, 15.8027L6.6053, 13.096C6.7679, 12.974 7, 13.0901 7, 13.2933L7, 18.7066C7, 18.9099 6.7679, 19.0259 6.6053, 18.9039L3.0631, 16.1972C2.9316, 16.0987 2.9316, 15.9013 3.0631, 15.8027zM15.8147, 3.0631L13.0787, 6.6053C12.9554, 6.7679 13.0727, 7 13.2782, 7L18.7502, 7C18.9557, 7 19.073, 6.7679 18.9497, 6.6053L16.2137, 3.0631C16.114, 2.9316 15.9145, 2.9316 15.8147, 3.0631zM28.9369, 15.9005L25.3947, 13.1645C25.2321, 13.0412 25, 13.1585 25, 13.364L25, 18.836C25, 19.0415 25.2321, 19.1588 25.3947, 19.0355L28.9369, 16.2995C29.0684, 16.1997 29.0684, 16.0003 28.9369, 15.9005zM16.2172, 29.0369L18.9532, 25.4947C19.0765, 25.3321 18.9592, 25.1 18.7537, 25.1L13.2817, 25.1C13.0762, 25.1 12.9589, 25.3321 13.0822, 25.4947L15.8182, 29.0369C15.918, 29.1684 16.1175, 29.1684 16.2172, 29.0369z" fill="#727272" class="Black" />
                  </g>
                </g>
              </g>
            </g>
          </g>
        </g>
      </g>
    </g>
  </g>
</svg>