<?xml version='1.0' encoding='UTF-8'?>
<svg viewBox="-2 -2.8575 32 32" xmlns="http://www.w3.org/2000/svg" xmlns:xlink="http://www.w3.org/1999/xlink">
  <g id="Layer_1" transform="translate(-0.9399, -1.8837)">
    <g transform="matrix(0.9391, 0, 0, 0.9391, 0, 0)">
      <g transform="matrix(1, 0, 0, 1, 0, 0)">
        <g id="icon">
          <g>
            <polygon points="18.4247,14.8247 22.2,11.1161 19.8757,8.8 16.1045,12.5045" fill="#727272" fill-opacity="1" class="Black" fill-rule="evenodd" />
          </g>
        </g>
      </g>
    </g>
  </g>
  <g id="Layer_1" transform="translate(-0.9399, -1.8837)">
    <g transform="matrix(0.9391, 0, 0, 0.9391, 0, 0)">
      <g transform="matrix(1, 0, 0, 1, 0, 0)">
        <g id="icon">
          <g>
            <polygon points="11.6582,16.8719 9.9,18.6 12.2243,20.9161 13.9502,19.2197" fill="#727272" fill-opacity="1" class="Black" fill-rule="evenodd" />
          </g>
        </g>
      </g>
    </g>
  </g>
  <g id="Layer_1" transform="translate(-0.9399, -1.8837)">
    <g transform="matrix(0.9391, 0, 0, 0.9391, 0, 0)">
      <g transform="matrix(1, 0, 0, 1, 0, 0)">
        <g id="icon">
          <path d="M1.0005, 25.7148C0.9689, 25.4463 2.4537, 24.8289 4.1657, 23.0587C5.5927, 21.5832 4.4487, 22.3887 6.0826, 20.8114C8.6255, 18.3564 9.0069, 18.5337 9.2228, 18.4824C9.6941, 18.8036 12.0518, 21.1551 12.3245, 21.6742C12.3828, 21.7853 12.5187, 22.2731 10.0292, 24.9293C8.4783, 26.584 9.3821, 25.3086 7.9268, 26.7303C6.1897, 28.4272 5.4982, 30.0646 5.1708, 29.9715C4.1288, 29.6752 1.0994, 26.5554 1.0005, 25.7148z" fill="#1177D7" fill-opacity="1" class="Blue" fill-rule="evenodd" />
        </g>
      </g>
    </g>
  </g>
  <g id="Layer_1" transform="translate(-0.9399, -1.8837)">
    <g transform="matrix(0.9391, 0, 0, 0.9391, 0, 0)">
      <g transform="matrix(1, 0, 0, 1, 0, 0)">
        <g id="icon">
          <g>
            <path d="M30.6472, 10.2297L28.8399, 8.4288C28.6135, 8.2031 28.2463, 8.2031 28.0198, 8.4288L27.8118, 8.6361C27.6596, 8.5464 26.7072, 7.6569 26.5644, 7.5718L23.6902, 10.3835L24.8278, 11.6095L24.6126, 11.8239C24.3861, 12.0496 24.3861, 12.4154 24.6126, 12.6411L26.4199, 14.442C26.6464, 14.6676 27.0135, 14.6676 27.24, 14.442L30.6472, 11.0469C30.8736, 10.8212 30.8736, 10.4553 30.6472, 10.2297z" fill="#727272" fill-opacity="1" class="Black" fill-rule="evenodd" />
          </g>
        </g>
      </g>
    </g>
  </g>
  <g id="Layer_1" transform="translate(-0.9399, -1.8837)">
    <g transform="matrix(0.9391, 0, 0, 0.9391, 0, 0)">
      <g transform="matrix(1, 0, 0, 1, 0, 0)">
        <g id="icon">
          <g>
            <path d="M23.6352, 11.2143L24.3226, 10.4673C24.3226, 10.4673 27.0122, 7.8492 27.0246, 7.8369C27.2203, 7.6419 27.2758, 7.5865 27.2894, 7.573C27.5159, 7.3474 27.5159, 6.9815 27.2894, 6.7558C27.2894, 6.7558 24.6223, 4.0982 24.2539, 3.7311C22.1245, 1.4668 16.0858, 2.7231 14.9675, 3.616C17.1476, 4.3101 17.5314, 3.2208 20.7206, 6.6287C20.461, 7.2747 19.8768, 7.4694 19.8768, 7.4694C19.6503, 7.6951 19.6503, 8.0609 19.8768, 8.2866L22.815, 11.2144C23.0415, 11.44 23.4087, 11.44 23.6352, 11.2143z" fill="#727272" fill-opacity="1" class="Black" fill-rule="evenodd" />
          </g>
        </g>
      </g>
    </g>
  </g>
  <g id="Layer_1" transform="translate(-0.9399, -1.8837)">
    <g transform="matrix(0.9391, 0, 0, 0.9391, 0, 0)">
      <g transform="matrix(1, 0, 0, 1, 0, 0)">
        <g id="icon">
          <path d="M28.853, 28.2361L27.5276, 29.5546C26.9317, 30.1484 25.9654, 30.1484 25.3695, 29.5546L9.2119, 13.2913C6.6304, 14.1402 4.3792, 13.4078 3.3413, 12.3736C1.9803, 11.0174 0.636, 8.2645 1.6182, 5.1647C1.6365, 5.1286 1.6698, 5.0793 1.6996, 5.0331L6.0887, 9.4066C7.0363, 10.3509 7.7024, 10.0304 8.5126, 9.2231C9.3227, 8.4158 9.4756, 7.2833 8.8688, 6.6788L4.5262, 2.3515C4.5789, 2.3216 4.6336, 2.2893 4.6777, 2.2698C7.9197, 1.3886 10.5844, 2.8482 11.7223, 4.0223C13.1546, 5.5002 13.3494, 7.349 12.507, 9.9894L28.853, 26.0855C29.449, 26.6794 29.449, 27.6422 28.853, 28.2361zM27.0606, 26.2669C26.6365, 25.8443 25.9488, 25.8443 25.5247, 26.2669C25.1006, 26.6895 25.1006, 27.3748 25.5247, 27.7974C25.9488, 28.22 26.6365, 28.22 27.0606, 27.7974C27.4847, 27.3748 27.4847, 26.6895 27.0606, 26.2669z" fill="#727272" fill-opacity="1" class="Black" fill-rule="evenodd" />
        </g>
      </g>
    </g>
  </g>
</svg>