<?xml version='1.0' encoding='UTF-8'?>
<svg viewBox="-2 -2.575 32 32" xmlns="http://www.w3.org/2000/svg" xmlns:xlink="http://www.w3.org/1999/xlink">
  <clipPath id="clip_mask" tag="staticElement_id45830349">
    <path d="M21.2213, 31.7619C21.0395, 31.3215 21.1396, 30.8189 21.4763, 30.4818L23.9152, 28L17.4319, 28C16.6468, 28 16, 27.4119 16, 26.6612L16, 24.3952C16, 23.6305 16.6541, 22.9999 17.4188, 22.9999L23.9149, 22.9999L21.4675, 20.4944C21.138, 20.1623 21.0395, 19.6616 21.2227, 19.2218C21.4059, 18.782 21.8321, 18.4999 22.3086, 18.4999L25.8138, 18.4999C26.1741, 18.4999 26.5154, 18.6374 26.775, 18.887L26.7922, 18.904C26.7922, 18.904 30.4396, 22.5844 31.9999, 24.1614L31.9999, 0L0, 0L0, 32L21.3537, 32C21.3014, 31.9271 21.2566, 31.8475 21.2213, 31.7619z" fill-rule="evenodd" />
  </clipPath>
  <g id="Layer_1" transform="translate(0, -0.882)">
    <g transform="matrix(0.8804, 0, 0, 0.8804, 0, 0)">
      <g id="main">
        <g id="icon" clip-path="url(#clip_mask)">
          <g id="transformed_icon" transform="translate(-1, -1)">
            <path d="M30, 29.5L2, 29.5C1.7239, 29.5 1.5, 29.2761 1.5, 29L1.5, 7.5L30.5, 7.5L30.5, 29C30.5, 29.2761 30.2761, 29.5 30, 29.5z" fill="#FFFFFF" stroke="#000000" stroke-width="1px" stroke-miterlimit="1" />
          </g>
        </g>
      </g>
    </g>
  </g>
  <g id="Layer_1" transform="translate(0, -0.882)">
    <g transform="matrix(0.8804, 0, 0, 0.8804, 0, 0)">
      <g id="main">
        <g id="icon" clip-path="url(#clip_mask)">
          <g id="transformed_icon" transform="translate(-1, -1)">
            <path d="M31, 8L1, 8L1, 3.2C1, 2.5373 1.5373, 2 2.2, 2L13.8, 2C14.4627, 2 15, 2.5373 15, 3.2L15, 6L29.6, 6C30.3732, 6 31, 6.6268 31, 7.4L31, 8z" fill="#1177D7" class="Blue" />
          </g>
        </g>
      </g>
    </g>
  </g>
  <g id="Layer_1" transform="translate(0, -0.882)">
    <g transform="matrix(0.8804, 0, 0, 0.8804, 0, 0)">
      <g id="main">
        <g id="overlay">
          <path d="M26.1, 31.3945C26.0279, 31.4625 25.9325, 31.5003 25.8333, 31.5L22.3081, 31.4894C22.1513, 31.489 22.073, 31.2994 22.1838, 31.1884L26.3, 27L17.4319, 27C17.2182, 27 17.0319, 26.8749 17.0319, 26.6613L17.0319, 25.8158L17.0319, 25.058L17.0319, 24.3953C17.0319, 24.1816 17.2051, 24.0084 17.4188, 24.0084L26.2869, 24.0084L22.1835, 19.8006C22.0731, 19.6893 22.1519, 19.5 22.3087, 19.5L25.814, 19.5C25.914, 19.5 26.01, 19.5387 26.0821, 19.608C26.0821, 19.608 30.5525, 24.1189 31.7117, 25.2921C31.8303, 25.4121 31.8295, 25.6 31.7098, 25.7189C30.5524, 26.8689 26.1, 31.3945 26.1, 31.3945z" fill="#1177D7" class="Blue" fill-rule="evenodd" />
        </g>
      </g>
    </g>
  </g>
</svg>