<?xml version='1.0' encoding='UTF-8'?>
<svg viewBox="-2 -2.9325 32 32" xmlns="http://www.w3.org/2000/svg" xmlns:xlink="http://www.w3.org/1999/xlink">
  <g id="Layer_1" transform="translate(-0.935, -0.9337)">
    <g transform="matrix(0.9333, 0, 0, 0.9333, 0, 0)">
      <g id="icon">
        <path d="M17.0295, 20L14.9795, 20C14.4435, 20 14.009, 19.5655 14.009, 19.0295L14.009, 14.9704C14.009, 14.4344 14.4435, 13.9999 14.9795, 13.9999L17.0295, 13.9999C17.5655, 13.9999 18, 14.4344 18, 14.9704L18, 19.0295C18, 19.5655 17.5655, 20 17.0295, 20z" fill="#727272" fill-opacity="1" class="Black" />
      </g>
    </g>
  </g>
  <g id="Layer_1" transform="translate(-0.935, -0.9337)">
    <g transform="matrix(0.9333, 0, 0, 0.9333, 0, 0)">
      <g id="icon">
        <path d="M29.8, 6L2.2, 6C1.54, 6 1, 6.54 1, 7.2L1, 15.35C1, 16.2575 1.7425, 17 2.65, 17L13, 17L13, 14.9875C13, 13.8898 13.8898, 13 14.9875, 13L17.0125, 13C18.1102, 13 19, 13.8898 19, 14.9875L19, 17L29.35, 17C30.2575, 17 31, 16.2575 31, 15.35L31, 7.2C31, 6.54 30.46, 6 29.8, 6z" fill="#D11C1C" fill-opacity="1" class="Red" />
      </g>
    </g>
  </g>
  <g id="Layer_1" transform="translate(-0.935, -0.9337)">
    <g transform="matrix(0.9333, 0, 0, 0.9333, 0, 0)">
      <g id="icon">
        <path d="M11, 3.45C11, 3.2025 11.2025, 3 11.45, 3L20.5375, 3C20.7919, 3 21, 3.2081 21, 3.4625L21, 5L23, 5L23, 3.3011C23, 2.0355 21.9645, 1 20.6989, 1L11.283, 1C10.0221, 1 9, 2.0221 9, 3.283L9, 5L11, 5L11, 3.45z" fill="#D11C1C" fill-opacity="1" class="Red" />
      </g>
    </g>
  </g>
  <g id="Layer_1" transform="translate(-0.935, -0.9337)">
    <g transform="matrix(0.9333, 0, 0, 0.9333, 0, 0)">
      <g id="icon">
        <path d="M19, 18L19, 19.0125C19, 20.1102 18.1102, 21 17.0125, 21L14.9875, 21C13.8898, 21 13, 20.1102 13, 19.0125L13, 18L1, 18L1, 27.7727C1, 28.4327 1.54, 29 2.2, 29L29.8, 29C30.46, 29 31, 28.4327 31, 27.7727L31, 18L19, 18z" fill="#D11C1C" fill-opacity="1" class="Red" />
      </g>
    </g>
  </g>
  <g id="Layer_1" transform="translate(-0.935, -0.9337)">
    <g transform="matrix(0.9333, 0, 0, 0.9333, 0, 0)">
      <g id="icon">
        <rect x="9" y="5" width="2" height="1" rx="0" ry="0" fill="#D11C1C" fill-opacity="1" class="Red" />
      </g>
    </g>
  </g>
  <g id="Layer_1" transform="translate(-0.935, -0.9337)">
    <g transform="matrix(0.9333, 0, 0, 0.9333, 0, 0)">
      <g id="icon">
        <rect x="21" y="5" width="2" height="1" rx="0" ry="0" fill="#D11C1C" fill-opacity="1" class="Red" />
      </g>
    </g>
  </g>
</svg>