<?xml version='1.0' encoding='UTF-8'?>
<svg viewBox="-2 -2.9325 32 32" xmlns="http://www.w3.org/2000/svg" xmlns:xlink="http://www.w3.org/1999/xlink">
  <g id="Layer_1" transform="translate(-0.935, -0.9337)">
    <g transform="matrix(0.9333, 0, 0, 0.9333, 0, 0)">
      <g id="icon">
        <path d="M9.0295, 20L6.9795, 20C6.4435, 20 6.009, 19.5655 6.009, 19.0295L6.009, 14.9704C6.009, 14.4344 6.4435, 13.9999 6.9795, 13.9999L9.0295, 13.9999C9.5655, 13.9999 10, 14.4344 10, 14.9704L10, 19.0295C10, 19.5655 9.5655, 20 9.0295, 20zM25.0205, 20L22.9705, 20C22.4345, 20 22, 19.5655 22, 19.0295L22, 14.9704C22, 14.4344 22.4345, 13.9999 22.9705, 13.9999L25.0205, 13.9999C25.5565, 13.9999 25.991, 14.4344 25.991, 14.9704L25.991, 19.0295C25.9909, 19.5655 25.5564, 20 25.0205, 20z" fill="#727272" fill-opacity="1" class="Black" />
      </g>
    </g>
  </g>
  <g id="Layer_1" transform="translate(-0.935, -0.9337)">
    <g transform="matrix(0.9333, 0, 0, 0.9333, 0, 0)">
      <g id="icon">
        <g>
          <path d="M29.8, 6L2.2, 6C1.54, 6 1, 6.54 1, 7.2L1, 15.35C1, 16.2575 1.7425, 17 2.65, 17L5, 17L5, 14.9875C5, 13.8898 5.8898, 13 6.9875, 13L9.0125, 13C10.1102, 13 11, 13.8898 11, 14.9875L11, 17L21, 17L21, 14.9875C21, 13.8898 21.8898, 13 22.9875, 13L25.0125, 13C26.1102, 13 27, 13.8898 27, 14.9875L27, 17L29.35, 17C30.2575, 17 31, 16.2575 31, 15.35L31, 7.2C31, 6.54 30.46, 6 29.8, 6z" fill="#1177D7" fill-opacity="1" class="Blue" />
        </g>
      </g>
    </g>
  </g>
  <g id="Layer_1" transform="translate(-0.935, -0.9337)">
    <g transform="matrix(0.9333, 0, 0, 0.9333, 0, 0)">
      <g id="icon">
        <g>
          <path d="M11, 3.45C11, 3.2025 11.2025, 3 11.45, 3L20.5375, 3C20.7919, 3 21, 3.2081 21, 3.4625L21, 5.5L23, 5.5L23, 3.3011C23, 2.0355 21.9645, 1 20.6989, 1L11.283, 1C10.0221, 1 9, 2.0221 9, 3.283L9, 5.5L11, 5.5L11, 3.45z" fill="#1177D7" fill-opacity="1" class="Blue" />
        </g>
      </g>
    </g>
  </g>
  <g id="Layer_1" transform="translate(-0.935, -0.9337)">
    <g transform="matrix(0.9333, 0, 0, 0.9333, 0, 0)">
      <g id="icon">
        <g>
          <path d="M27, 19.0125C27, 20.1102 26.1102, 21 25.0125, 21L22.9875, 21C21.8898, 21 21, 20.1102 21, 19.0125L21, 18L11, 18L11, 19.0125C11, 20.1102 10.1102, 21 9.0125, 21L6.9875, 21C5.8898, 21 5, 20.1102 5, 19.0125L5, 18L1, 18L1, 27.7727C1, 28.4327 1.54, 29 2.2, 29L29.8, 29C30.46, 29 31, 28.4327 31, 27.7727L31, 18L27, 18L27, 19.0125z" fill="#1177D7" fill-opacity="1" class="Blue" />
        </g>
      </g>
    </g>
  </g>
</svg>