<?xml version='1.0' encoding='UTF-8'?>
<svg viewBox="-2 -2 32 32" xmlns="http://www.w3.org/2000/svg" xmlns:xlink="http://www.w3.org/1999/xlink">
  <g id="Layer_1" transform="translate(-0.9674, -0.9674)">
    <g transform="matrix(0.9655, 0, 0, 0.9655, 0, 0)">
      <g id="icon">
        <path d="M15.5, 1C7.4919, 1 1, 7.4919 1, 15.5C1, 23.5081 7.4919, 30 15.5, 30C23.5081, 30 30, 23.5081 30, 15.5C30, 7.4919 23.5081, 1 15.5, 1zM17, 24.6C17, 24.8209 16.8209, 25 16.6, 25L14.4, 25C14.1791, 25 14, 24.8209 14, 24.6L14, 12.4C14, 12.1791 14.1791, 12 14.4, 12L16.6, 12C16.8209, 12 17, 12.1791 17, 12.4L17, 24.6zM17, 8.6C17, 8.8209 16.8209, 9 16.6, 9L14.4, 9C14.1791, 9 14, 8.8209 14, 8.6L14, 6.4C14, 6.1791 14.1791, 6 14.4, 6L16.6, 6C16.8209, 6 17, 6.1791 17, 6.4L17, 8.6z" fill="#1177D7" fill-opacity="1" class="Blue" fill-rule="evenodd" />
      </g>
    </g>
  </g>
  <g id="Layer_1" transform="translate(-0.9674, -0.9674)">
    <g transform="matrix(0.9655, 0, 0, 0.9655, 0, 0)">
      <g id="icon">
        <path d="M16.6, 25L14.4, 25C14.1791, 25 14, 24.8209 14, 24.6L14, 12.4C14, 12.1791 14.1791, 12 14.4, 12L16.6, 12C16.8209, 12 17, 12.1791 17, 12.4L17, 24.6C17, 24.8209 16.8209, 25 16.6, 25zM16.6, 6L14.4, 6C14.1791, 6 14, 6.1791 14, 6.4L14, 8.6C14, 8.8209 14.1791, 9 14.4, 9L16.6, 9C16.8209, 9 17, 8.8209 17, 8.6L17, 6.4C17, 6.1791 16.8209, 6 16.6, 6z" fill="#FFFFFF" fill-opacity="1" class="White" fill-rule="evenodd" />
      </g>
    </g>
  </g>
</svg>