<?xml version='1.0' encoding='UTF-8'?>
<svg viewBox="-2.0875 -2 32 32" xmlns="http://www.w3.org/2000/svg" xmlns:xlink="http://www.w3.org/1999/xlink">
  <g id="Layer_1" transform="translate(-0.175, 0)">
    <g transform="matrix(0.875, 0, 0, 0.875, 0, 0)">
      <g id="icon">
        <path d="M30.81, 0.5L7.19, 0.5C6.809, 0.5 6.5, 0.84 6.5, 1.26L6.5, 12.609C6.596, 12.621 6.693, 12.638 6.791, 12.66C7.056, 12.721 7.299, 12.822 7.516, 12.956L7.516, 12.614C7.516, 11.237 8.473, 10.238 9.791, 10.238L9.81, 10.238C10.94, 10.246 11.779, 10.966 11.996, 12.049C12.333, 11.821 12.741, 11.683 13.208, 11.683C14.666, 11.683 15.474, 13.087 15.477, 14.061C15.477, 14.075 15.477, 14.089 15.477, 14.104C15.818, 13.882 16.212, 13.751 16.623, 13.751C17.789, 13.751 18.747, 14.924 18.877, 15.976C18.89, 16.077 18.896, 17.637 18.897, 19.498L30.81, 19.498C31.191, 19.498 31.5, 19.158 31.5, 18.738L31.5, 1.26C31.5, 0.84 31.191, 0.5 30.81, 0.5z" fill="#FFFFFF" fill-opacity="1" class="White" fill-rule="evenodd" />
      </g>
    </g>
  </g>
  <g id="Layer_1" transform="translate(-0.175, 0)">
    <g transform="matrix(0.875, 0, 0, 0.875, 0, 0)">
      <g id="icon">
        <path d="M30.81, 0L7.19, 0C6.534, 0 6, 0.565 6, 1.26L6, 12.595C6.058, 12.591 6.117, 12.588 6.177, 12.588C6.374, 12.588 6.58, 12.612 6.79, 12.661C6.862, 12.677 6.931, 12.697 6.999, 12.719L6.999, 1.762C8.811, 3.657 14.101, 9.161 15.54, 10.324C16.949, 11.44 17.943, 11.998 18.952, 11.998C19.957, 11.998 20.975, 11.444 22.431, 10.337C23.209, 9.788 28.835, 3.994 30.999, 1.755L30.999, 18.74C30.999, 18.879 30.91, 19 30.809, 19L18.898, 19C18.898, 19.323 18.899, 19.658 18.899, 20L30.81, 20C31.466, 20 32, 19.435 32, 18.74L32, 1.26C32, 0.565 31.466, 0 30.81, 0zM21.877, 9.506L21.835, 9.535C19.263, 11.493 18.627, 11.493 16.166, 9.544C14.775, 8.42 9.381, 2.805 7.655, 1L30.339, 1C27.117, 4.333 22.374, 9.175 21.877, 9.506z" fill="#727272" fill-opacity="1" class="Black" />
      </g>
    </g>
  </g>
  <g id="Layer_1" transform="translate(-0.175, 0)">
    <g transform="matrix(0.875, 0, 0, 0.875, 0, 0)">
      <g id="icon">
        <path d="M5.014, 23.3C5.014, 22.699 5.008, 16.077 5.008, 15.103C5.02, 14.069 5.54, 13.399 6.566, 13.635C7.26, 13.794 7.628, 14.386 7.63, 15.107C7.633, 16.614 7.63, 18.377 7.63, 19.884C7.666, 20.388 8.515, 20.299 8.515, 19.884C8.515, 17.79 8.516, 15.539 8.515, 13.445C8.515, 13.138 8.515, 12.891 8.515, 12.614C8.515, 11.855 8.98, 11.232 9.802, 11.238C10.626, 11.244 11.051, 11.852 11.051, 12.622C11.051, 13.998 11.054, 14.996 11.054, 16.182C11.054, 17.474 11.054, 18.697 11.054, 19.984C11.054, 20.506 11.939, 20.645 11.939, 20.229C11.939, 18.498 11.939, 15.798 11.939, 14.067C11.942, 13.465 12.387, 12.682 13.208, 12.682C14.03, 12.682 14.477, 13.554 14.477, 14.067C14.496, 15.787 14.476, 18.855 14.477, 20.575C14.477, 21.06 15.362, 21.203 15.362, 20.783C15.362, 19.521 15.362, 16.913 15.362, 16.144C15.362, 15.376 16.001, 14.75 16.624, 14.75C17.247, 14.75 17.813, 15.505 17.886, 16.098C17.896, 16.177 17.91, 22.507 17.89, 25.626C17.879, 27.336 16.995, 28.917 15.792, 30.269C14.772, 31.418 13.51, 32 11.839, 32C10.168, 32 10.486, 32 9.374, 32C8.262, 32 6.43, 30.662 5.828, 29.374C5.021, 27.648 3.806, 26.56 2.324, 25.417C1.832, 25.038 1.287, 24.714 0.777, 24.354C0.165, 23.922 0.011, 23.411 0.456, 22.954C0.694, 22.71 1.105, 22.538 1.468, 22.473C2.721, 22.248 3.751, 22.473 4.737, 23.254C4.765, 23.276 4.886, 23.273 5.014, 23.3z" fill="#D11C1C" fill-opacity="1" class="Red" />
      </g>
    </g>
  </g>
</svg>