<?xml version='1.0' encoding='UTF-8'?>
<svg viewBox="-2 -2 32 32" xmlns="http://www.w3.org/2000/svg" xmlns:xlink="http://www.w3.org/1999/xlink">
  <g id="Layer_1" transform="translate(0, 0)">
    <g transform="matrix(0.8734, 0, 0, 0.8734, 0, 0)">
      <g id="main">
        <g id="icon">
          <path d="M0.5, 27.2L0.5273, 27.46L0.6057, 27.7L0.89, 28.11L1.304, 28.4L1.545, 28.47L1.8, 28.5L17.3, 28.5L17.48, 28.28L20.76, 25L17.48, 21.72L17.29, 21.49L17.15, 21.23L17.07, 20.95L17.04, 20.66L17.07, 20.38L17.15, 20.1L17.29, 19.84L17.48, 19.6L19.6, 17.48L19.83, 17.29L20.09, 17.16L20.37, 17.07L20.66, 17.04L20.96, 17.07L21.24, 17.16L21.5, 17.29L21.73, 17.48L25, 20.76L28.27, 17.48L28.5, 17.29L28.76, 17.16L29.04, 17.07L29.33, 17.04L29.5, 17.06L29.5, 6.5L0.5, 6.5zM29.24, 25L29.5, 25.26L29.5, 24.74zz" fill="#FFFFFF" fill-opacity="1" class="White" fill-rule="evenodd" />
        </g>
      </g>
    </g>
  </g>
  <g id="Layer_1" transform="translate(0, 0)">
    <g transform="matrix(0.8734, 0, 0, 0.8734, 0, 0)">
      <g id="main">
        <g id="icon">
          <path d="M0, 6.5L0, 27.2L0, 27.23L0.0027, 27.25L0.0303, 27.51L0.0357, 27.56L0.0518, 27.61L0.1301, 27.85L0.1523, 27.92L0.1936, 27.98L0.4779, 28.4L0.5311, 28.47L0.6082, 28.53L1.023, 28.81L1.082, 28.85L1.151, 28.87L1.392, 28.95L1.441, 28.96L1.492, 28.97L1.747, 29L1.773, 29L1.8, 29L17.09, 29L17.15, 28.77L17.29, 28.51L17.48, 28.28L17.76, 28L1.827, 28L1.649, 27.98L1.526, 27.94L1.249, 27.75L1.059, 27.48L1.019, 27.35L1, 27.17L1, 7L29, 7L29, 17.08L29.04, 17.07L29.33, 17.04L29.63, 17.07L29.91, 17.16L30, 17.2L30, 6.5L30, 6L29.5, 6L0.5, 6L0, 6zM29.24, 25L30, 25.76L30, 24.24zz" fill="#727272" fill-opacity="1" class="Black" />
        </g>
      </g>
    </g>
  </g>
  <g id="Layer_1" transform="translate(0, 0)">
    <g transform="matrix(0.8734, 0, 0, 0.8734, 0, 0)">
      <g id="main">
        <g id="icon">
          <path d="M1.038, 2.026L0.7945, 2.102L0.3813, 2.381L0.1023, 2.795L0.0264, 3.038L0, 3.3L0, 7L30, 7L30, 3.3L29.97, 3.042L29.89, 2.8L29.6, 2.386L29.18, 2.104L28.93, 2.027L28.66, 2L25, 2L25, 5L21, 5L21, 2L10, 2L10, 5L6, 5L6, 2L1.3, 2zz" fill="#1177D7" fill-opacity="1" class="Blue" />
        </g>
      </g>
    </g>
  </g>
  <g id="Layer_1" transform="translate(0, 0)">
    <g transform="matrix(0.8734, 0, 0, 0.8734, 0, 0)">
      <g id="main">
        <g id="icon">
          <g>
            <path d="M7, 4L9, 4L9, 0L7, 0zz" fill="#727272" fill-opacity="1" class="Black" />
          </g>
        </g>
      </g>
    </g>
  </g>
  <g id="Layer_1" transform="translate(0, 0)">
    <g transform="matrix(0.8734, 0, 0, 0.8734, 0, 0)">
      <g id="main">
        <g id="icon">
          <g>
            <path d="M22, 4L24, 4L24, 0L22, 0zz" fill="#727272" fill-opacity="1" class="Black" />
          </g>
        </g>
      </g>
    </g>
  </g>
  <g id="Layer_1" transform="translate(0, 0)">
    <g transform="matrix(0.8734, 0, 0, 0.8734, 0, 0)">
      <g id="main">
        <g id="icon">
          <path d="M9, 13L3, 13L3, 26L19.76, 26L20.76, 25L20, 24.24L20, 25L16, 25L16, 22L17.76, 22L17.48, 21.72L17.29, 21.49L17.15, 21.23L17.09, 21L16, 21L16, 18L19.08, 18L19.6, 17.48L19.83, 17.29L20.09, 17.16L20.37, 17.07L20.66, 17.04L20.96, 17.07L21.24, 17.16L21.5, 17.29L21.73, 17.48L22.24, 18L26, 18L26, 19.76L27, 18.76L27, 9L9, 9zM15, 10L15, 13L10, 13L10, 10zM20, 10L20, 13L16, 13L16, 10zM26, 10L26, 13L21, 13L21, 10zM9, 14L9, 17L4, 17L4, 14zM15, 14L15, 17L10, 17L10, 14zM20, 14L20, 17L16, 17L16, 14zM26, 14L26, 17L21, 17L21, 14zM9, 18L9, 21L4, 21L4, 18zM15, 18L15, 21L10, 21L10, 18zM9, 22L9, 25L4, 25L4, 22zM15, 22L15, 25L10, 25L10, 22zz" fill="#727272" fill-opacity="1" class="Black" />
        </g>
      </g>
    </g>
  </g>
  <g id="Layer_1" transform="translate(0, 0)">
    <g transform="matrix(0.8734, 0, 0, 0.8734, 0, 0)">
      <g id="main">
        <g id="overlay">
          <path d="M31.91, 29.789L29.789, 31.91C29.594, 32.105 29.277, 32.105 29.082, 31.91L25, 27.828L21.018, 31.81C20.823, 32.005 20.506, 32.005 20.311, 31.81L18.19, 29.689C17.995, 29.494 17.995, 29.177 18.19, 28.982L22.172, 25L18.19, 21.018C17.995, 20.823 17.995, 20.506 18.19, 20.311L20.311, 18.19C20.506, 17.995 20.823, 17.995 21.018, 18.19L25, 22.172L28.982, 18.19C29.177, 17.995 29.494, 17.995 29.689, 18.19L31.81, 20.311C32.005, 20.506 32.005, 20.823 31.81, 21.018L27.828, 25L31.91, 29.082C32.106, 29.277 32.106, 29.594 31.91, 29.789z" fill="#D11C1C" fill-opacity="1" class="Red" fill-rule="evenodd" />
        </g>
      </g>
    </g>
  </g>
</svg>