<?xml version='1.0' encoding='UTF-8'?>
<svg viewBox="-2.925 -2 32 32" xmlns="http://www.w3.org/2000/svg" xmlns:xlink="http://www.w3.org/1999/xlink">
  <g id="Layer_1" transform="translate(-1.8699, -0.9524)">
    <g transform="matrix(0.934, 0, 0, 0.934, 0, 0)">
      <g id="icon">
        <path d="M29.756, 6.065C29.595, 5.411 29.009, 4.955 28.331, 4.955C28.28, 4.955 28.229, 4.958 28.179, 4.963C27.685, 5.014 27.186, 5.039 26.694, 5.039C21.47, 5.039 17.939, 2.245 16.981, 1.389C16.714, 1.15 16.368, 1.018 16.009, 1.018C15.688, 1.018 15.37, 1.126 15.115, 1.321C13.663, 2.43 9.772, 5.008 4.977, 5.008C4.592, 5.008 4.205, 4.991 3.825, 4.958C3.781, 4.954 3.738, 4.952 3.694, 4.952C3.013, 4.952 2.426, 5.413 2.266, 6.074C1.554, 9.017 2.071, 18.751 6.31, 24.25C9.148, 27.933 12.225, 30.128 15.718, 30.961C15.828, 30.987 15.942, 31 16.057, 31C16.171, 31 16.285, 30.987 16.397, 30.96C20.762, 29.917 23.6, 26.826 25.586, 24.25C29.845, 18.722 30.449, 8.873 29.756, 6.065zM22.301, 19.63C22.481, 19.81 22.481, 20.101 22.301, 20.281L20.83, 21.752C20.65, 21.932 20.359, 21.932 20.179, 21.752L16.049, 17.622L11.919, 21.752C11.739, 21.932 11.448, 21.932 11.268, 21.752L9.799, 20.28C9.619, 20.1 9.619, 19.809 9.799, 19.629L13.929, 15.499L9.799, 11.369C9.619, 11.189 9.619, 10.898 9.799, 10.718L11.27, 9.247C11.45, 9.067 11.741, 9.067 11.921, 9.247L16.051, 13.377L20.181, 9.247C20.361, 9.067 20.652, 9.067 20.832, 9.247L22.303, 10.718C22.483, 10.898 22.483, 11.189 22.303, 11.369L18.173, 15.499L22.301, 19.63z" fill="#D11C1C" fill-opacity="1" class="Red" />
      </g>
    </g>
  </g>
  <g id="Layer_1" transform="translate(-1.8699, -0.9524)">
    <g transform="matrix(0.934, 0, 0, 0.934, 0, 0)">
      <g id="icon">
        <path d="M18.171, 15.5L22.301, 11.37C22.481, 11.19 22.481, 10.899 22.301, 10.719L20.83, 9.249C20.65, 9.069 20.359, 9.069 20.179, 9.249L16.049, 13.379L11.919, 9.249C11.739, 9.069 11.448, 9.069 11.268, 9.249L9.799, 10.72C9.619, 10.9 9.619, 11.191 9.799, 11.371L13.929, 15.501L9.799, 19.631C9.619, 19.811 9.619, 20.102 9.799, 20.282L11.27, 21.753C11.45, 21.933 11.741, 21.933 11.921, 21.753L16.051, 17.623L20.181, 21.753C20.361, 21.933 20.652, 21.933 20.832, 21.753L22.303, 20.282C22.483, 20.102 22.483, 19.811 22.303, 19.631L18.171, 15.5z" fill="#FFFFFF" fill-opacity="1" class="White" />
      </g>
    </g>
  </g>
</svg>