<?xml version='1.0' encoding='UTF-8'?>
<svg viewBox="-2 -2.025 32 32" xmlns="http://www.w3.org/2000/svg" xmlns:xlink="http://www.w3.org/1999/xlink">
  <g id="Layer_1" transform="translate(-0.9325, -0.9337)">
    <g transform="matrix(0.9318, 0, 0, 0.9318, 0, 0)">
      <g id="icon">
        <path d="M10.043, 13.133L3.427, 13.129L7.055, 11.074C7.14, 11.025 7.238, 10.999 7.338, 10.999L10.537, 11L10.043, 13.133zM11.582, 11L12.017, 13.133L18.631, 13.136L14.971, 11.084C14.889, 11.03 14.792, 11.001 14.694, 11.001C14.121, 11.001 11.582, 11 11.582, 11zM12.07, 13.667L19.005, 13.67L19, 26.478C19, 26.768 18.765, 27.002 18.475, 27.002L3.53, 26.997C3.228, 26.997 2.996, 26.751 2.997, 26.463L3.002, 13.663L9.937, 13.666L9.935, 16.6C9.935, 16.729 10.066, 16.867 10.202, 16.867L11.802, 16.868C11.937, 16.868 12.069, 16.73 12.069, 16.601L12.07, 13.667zM14.124, 20.881L14.928, 20.881L14.927, 23.955C14.927, 24.025 14.983, 24.081 15.053, 24.081L15.868, 24.081C15.938, 24.081 15.994, 24.025 15.994, 23.955L15.995, 20.881L16.765, 20.881C16.832, 20.881 16.871, 20.805 16.832, 20.75L15.548, 18.965C15.519, 18.924 15.458, 18.924 15.429, 18.965L14.071, 20.776C14.04, 20.82 14.071, 20.881 14.124, 20.881zM10.923, 20.879L11.727, 20.879L11.726, 23.953C11.726, 24.023 11.782, 24.079 11.852, 24.079L12.667, 24.079C12.737, 24.079 12.793, 24.023 12.793, 23.953L12.794, 20.879L13.564, 20.879C13.631, 20.879 13.67, 20.803 13.631, 20.748L12.347, 18.963C12.318, 18.922 12.257, 18.922 12.228, 18.963L10.87, 20.774C10.839, 20.819 10.87, 20.879 10.923, 20.879zM17.06, 24.887C17.06, 24.737 16.938, 24.615 16.788, 24.615L10.93, 24.613C10.78, 24.613 10.658, 24.735 10.658, 24.885L10.658, 25.408C10.658, 25.558 10.78, 25.68 10.93, 25.68L16.788, 25.682C16.938, 25.682 17.06, 25.56 17.06, 25.41L17.06, 24.887z" fill="#FFB115" fill-opacity="1" class="Yellow" />
      </g>
    </g>
  </g>
  <g id="Layer_1" transform="translate(-0.9325, -0.9337)">
    <g transform="matrix(0.9318, 0, 0, 0.9318, 0, 0)">
      <g id="icon">
        <path d="M18.631, 13.137L3.428, 13.131C3.165, 13.342 3.024, 13.519 3.001, 13.664L19.004, 13.67C18.995, 13.447 18.824, 13.287 18.631, 13.137z" fill="#FFFFFF" fill-opacity="1" class="White" />
      </g>
    </g>
  </g>
  <g id="Layer_1" transform="translate(-0.9325, -0.9337)">
    <g transform="matrix(0.9318, 0, 0, 0.9318, 0, 0)">
      <g id="icon">
        <path d="M11.582, 11L12.078, 13.421L12.069, 16.6C12.069, 16.729 11.938, 16.867 11.802, 16.867L10.202, 16.866C10.067, 16.866 9.935, 16.728 9.935, 16.599L9.951, 13.42L10.537, 11L11.582, 11zM10.93, 25.679L16.788, 25.681C16.938, 25.681 17.06, 25.559 17.06, 25.409L17.06, 24.886C17.06, 24.736 16.938, 24.614 16.788, 24.614L10.93, 24.612C10.78, 24.612 10.658, 24.734 10.658, 24.884L10.658, 25.407C10.659, 25.557 10.78, 25.679 10.93, 25.679zM12.229, 18.965L10.871, 20.776C10.84, 20.819 10.871, 20.879 10.924, 20.879L11.728, 20.879L11.727, 23.953C11.727, 24.023 11.783, 24.079 11.853, 24.079L12.668, 24.079C12.738, 24.079 12.794, 24.023 12.794, 23.953L12.795, 20.879L13.565, 20.879C13.632, 20.879 13.671, 20.803 13.632, 20.748L12.348, 18.963C12.318, 18.924 12.258, 18.924 12.229, 18.965zM15.429, 18.966L14.071, 20.777C14.04, 20.82 14.071, 20.88 14.124, 20.88L14.928, 20.88L14.927, 23.954C14.927, 24.024 14.983, 24.08 15.053, 24.08L15.868, 24.08C15.938, 24.08 15.994, 24.024 15.994, 23.954L15.995, 20.88L16.765, 20.88C16.832, 20.88 16.871, 20.804 16.832, 20.749L15.548, 18.964C15.519, 18.926 15.458, 18.926 15.429, 18.966z" fill="#727272" fill-opacity="1" class="Black" fill-rule="evenodd" />
      </g>
    </g>
  </g>
  <g id="Layer_1" transform="translate(-0.9325, -0.9337)">
    <g transform="matrix(0.9318, 0, 0, 0.9318, 0, 0)">
      <g id="icon">
        <path d="M30.232, 28.072L25, 28L25, 10L29.95, 10C30.53, 10 31, 9.53 31, 8.95L31, 2.05C31, 1.47 30.53, 1 29.95, 1L18.05, 1C17.47, 1 17, 1.47 17, 2.05L17, 8.95C17, 9.53 17.47, 10 18.05, 10L23, 10L23, 28L1.818, 28.072C1.366, 28.072 1, 28.438 1, 28.89L1, 30.181C1, 30.633 1.366, 30.999 1.818, 30.999L30.231, 30.999C30.683, 30.999 31.049, 30.633 31.049, 30.181L31.049, 28.89C31.05, 28.439 30.684, 28.072 30.232, 28.072zM27.877, 9.033C27.274, 9.033 26.786, 8.545 26.786, 7.942C26.786, 7.339 27.274, 6.851 27.877, 6.851C28.48, 6.851 28.968, 7.339 28.968, 7.942C28.968, 8.545 28.479, 9.033 27.877, 9.033zM18, 6L18, 2L30, 2L30, 6L18, 6zM20.139, 9.033C19.536, 9.033 19.048, 8.545 19.048, 7.942C19.048, 7.339 19.537, 6.851 20.139, 6.851C20.742, 6.851 21.23, 7.339 21.23, 7.942C21.23, 8.545 20.742, 9.033 20.139, 9.033zM23.958, 9.033C23.355, 9.033 22.867, 8.545 22.867, 7.942C22.867, 7.339 23.355, 6.851 23.958, 6.851C24.561, 6.851 25.049, 7.339 25.049, 7.942C25.049, 8.545 24.561, 9.033 23.958, 9.033z" fill="#1177D7" fill-opacity="1" class="Blue" fill-rule="evenodd" />
      </g>
    </g>
  </g>
  <g id="Layer_1" transform="translate(-0.9325, -0.9337)">
    <g transform="matrix(0.9318, 0, 0, 0.9318, 0, 0)">
      <g id="icon">
        <path d="M30, 2L30, 6L18, 6L18, 2L30, 2zM20.139, 6.851C19.536, 6.851 19.048, 7.339 19.048, 7.942C19.048, 8.545 19.537, 9.033 20.139, 9.033C20.742, 9.033 21.23, 8.545 21.23, 7.942C21.23, 7.339 20.742, 6.851 20.139, 6.851zM27.877, 6.851C27.274, 6.851 26.786, 7.339 26.786, 7.942C26.786, 8.545 27.274, 9.033 27.877, 9.033C28.48, 9.033 28.968, 8.545 28.968, 7.942C28.968, 7.339 28.479, 6.851 27.877, 6.851zM23.958, 6.851C23.355, 6.851 22.867, 7.339 22.867, 7.942C22.867, 8.545 23.355, 9.033 23.958, 9.033C24.561, 9.033 25.049, 8.545 25.049, 7.942C25.049, 7.339 24.561, 6.851 23.958, 6.851z" fill="#FFFFFF" fill-opacity="1" class="White" />
      </g>
    </g>
  </g>
  <g id="Layer_1" transform="translate(14, 13.975)" style="enable-background:new 0 0 16 16">
    <g id="AddCircled">
      <circle cx="9" cy="9" r="7" fill="#039C23" class="Green" />
    </g>
  </g>
  <g id="Layer_1" transform="translate(14, 13.975)" style="enable-background:new 0 0 16 16">
    <g id="AddCircled">
      <polygon points="14,8 10,8 10,4 8,4 8,8 4,8 4,10 8,10 8,14 10,14 10,10 14,10  " fill="#FFFFFF" class="White" />
    </g>
  </g>
</svg>