<?xml version='1.0' encoding='UTF-8'?>
<svg viewBox="-2.7125 -2.005 32 32" xmlns="http://www.w3.org/2000/svg" xmlns:xlink="http://www.w3.org/1999/xlink">
  <g id="Layer_1" transform="translate(-1.6205, -0.9504)">
    <g transform="matrix(0.9336, 0, 0, 0.9336, 0, 0)">
      <g id="icon">
        <path d="M29.3933, 8.1422C27.3503, 2.6788 21.3248, 0.5661 15.8775, 1.0876C12.8529, 1.3771 9.9706, 2.3362 7.8662, 4.6148C5.8525, 6.7952 4.9089, 9.431 4.3162, 12.2856C4.2311, 12.6955 4.1386, 13.1293 4.2578, 13.5434C4.3393, 13.8267 4.6944, 14.0439 4.6129, 14.345C4.4461, 14.9617 3.8676, 15.5816 3.5299, 16.1158C3.1249, 16.7563 1.3575, 18.7696 1.8055, 19.5694C2.2127, 20.2963 3.8932, 20.0507 3.6958, 21.1016C3.4795, 22.2534 3.4456, 22.5754 4.7073, 22.7632C4.4049, 22.8893 3.4096, 23.1715 3.739, 23.6822C4.0518, 24.1671 4.701, 24.2114 4.5623, 24.9448C4.3726, 25.9474 3.7279, 26.9387 4.4767, 27.9057C5.1873, 28.8233 6.5677, 28.6531 7.5737, 28.5478C8.397, 28.4616 10.2844, 27.8275 10.7011, 28.9181C10.9822, 29.6538 10.6255, 30.629 11.527, 30.8739C12.1926, 31.0547 12.8807, 30.9923 13.7375, 30.9923C14.4769, 30.9923 26.8142, 30.9107 25.4474, 24.9946C25.1829, 23.8499 25.3081, 24.0888 25.3081, 23.2714C25.3081, 21.7128 26.8255, 20.8163 27.7462, 19.6114C28.5494, 18.5602 29.2023, 17.3919 29.6263, 16.1368C30.4975, 13.5579 30.342, 10.6792 29.3933, 8.1422zM27.2923, 14.4683C25.9499, 18.2862 22.2709, 19.8689 17.268, 18.1099C12.2651, 16.3509 7.8328, 11.9162 9.1752, 8.0982C10.5176, 4.2803 16.4757, 2.5346 21.4786, 4.2937C26.4815, 6.0527 28.6347, 10.6504 27.2923, 14.4683z" fill="#727272" class="Black" />
      </g>
    </g>
  </g>
  <g id="Layer_1" transform="translate(-1.6205, -0.9504)">
    <g transform="matrix(0.9336, 0, 0, 0.9336, 0, 0)">
      <g id="icon">
        <path d="M27.2923, 14.4683C25.9499, 18.2862 22.2709, 19.8689 17.268, 18.1098C12.2651, 16.3507 7.8328, 11.9162 9.1752, 8.0982C10.5176, 4.2802 16.4757, 2.5346 21.4786, 4.2937C26.4815, 6.0528 28.6347, 10.6504 27.2923, 14.4683z" fill="#FFFFFF" />
      </g>
    </g>
  </g>
  <g id="Layer_1" transform="translate(-1.6205, -0.9504)">
    <g transform="matrix(0.9336, 0, 0, 0.9336, 0, 0)">
      <g id="icon">
        <path d="M25.4591, 11.377L24.4757, 11.0402L24.237, 10.4511L24.709, 9.5263C24.7899, 9.3678 24.7602, 9.1754 24.6355, 9.0485L24.1644, 8.5694C24.0397, 8.4425 23.8477, 8.4097 23.6879, 8.4879L22.7552, 8.9443L22.1703, 8.6961L21.8504, 7.7059C21.7956, 7.5366 21.6386, 7.4191 21.4607, 7.4176L20.7888, 7.4119C20.6109, 7.4104 20.4519, 7.5252 20.3942, 7.6935L20.0574, 8.6769L19.4683, 8.9156L18.5435, 8.4436C18.3851, 8.3627 18.1926, 8.3924 18.0657, 8.5171L17.5866, 8.9882C17.4597, 9.1129 17.4269, 9.3049 17.5051, 9.4647L17.9615, 10.3974L17.7133, 10.9823L16.7231, 11.3022C16.5538, 11.357 16.4363, 11.514 16.4348, 11.6919L16.4291, 12.3638C16.4276, 12.5417 16.5424, 12.7007 16.7107, 12.7584L17.6941, 13.0952L17.9328, 13.6843L17.4608, 14.6091C17.3799, 14.7676 17.4096, 14.96 17.5343, 15.0869L18.0054, 15.566C18.1301, 15.6929 18.3221, 15.7257 18.4819, 15.6475L19.4146, 15.1911L19.9995, 15.4393L20.3194, 16.4295C20.3742, 16.5988 20.5312, 16.7163 20.7091, 16.7178L21.381, 16.7235C21.5589, 16.725 21.7179, 16.6102 21.7756, 16.4419L22.1124, 15.4585L22.7015, 15.2198L23.6263, 15.6918C23.7848, 15.7727 23.9772, 15.743 24.1041, 15.6183L24.5832, 15.1472C24.7101, 15.0225 24.7429, 14.8305 24.6647, 14.6707L24.2083, 13.738L24.4565, 13.1531L25.4467, 12.8332C25.616, 12.7784 25.7335, 12.6214 25.735, 12.4435L25.7407, 11.7716C25.7422, 11.5937 25.6274, 11.4347 25.4591, 11.377zM21.0735, 13.3897C20.3434, 13.3835 19.7566, 12.7865 19.7629, 12.0565C19.7691, 11.3264 20.3661, 10.7396 21.0961, 10.7459C21.8262, 10.7521 22.413, 11.3491 22.4067, 12.0791C22.4005, 12.8091 21.8036, 13.3959 21.0735, 13.3897z" fill="Transparent" class="Transparent" />
      </g>
    </g>
  </g>
  <g id="Layer_1" transform="translate(-1.6205, -0.9504)">
    <g transform="matrix(0.9336, 0, 0, 0.9336, 0, 0)">
      <g id="icon">
        <path d="M17.0825, 7.631L16.3579, 7.6824L16.0447, 7.3742L16.0964, 6.6637C16.1058, 6.5417 16.0345, 6.4281 15.9218, 6.3806L15.4953, 6.2017C15.3826, 6.1542 15.2517, 6.1844 15.171, 6.2763L14.7, 6.813L14.2631, 6.8105L13.7909, 6.25C13.7113, 6.1571 13.5736, 6.1072 13.4603, 6.1533L13.0325, 6.3276C12.9192, 6.3738 12.8557, 6.5057 12.8637, 6.6278L12.9139, 7.3494L12.6051, 7.6611L11.8942, 7.6087C11.7722, 7.5993 11.6584, 7.6702 11.611, 7.7829L11.432, 8.2092C11.3845, 8.3219 11.4147, 8.4527 11.5066, 8.5334L12.0433, 9.0044L12.0408, 9.4413L11.4973, 9.9066C11.4044, 9.9862 11.3714, 10.117 11.4176, 10.2302L11.5919, 10.658C11.6381, 10.7713 11.753, 10.8417 11.8751, 10.8337L12.5882, 10.7869L12.8957, 11.0974L12.8412, 11.8091C12.8318, 11.9311 12.9016, 12.0453 13.0144, 12.0928L13.4402, 12.272C13.5529, 12.3195 13.6834, 12.2895 13.7641, 12.1975L14.235, 11.6609L14.6718, 11.6634L15.1394, 12.2128C15.219, 12.3057 15.3521, 12.3446 15.4654, 12.2984L15.8932, 12.1241C16.0065, 12.0779 16.0745, 11.9571 16.0665, 11.835L16.0185, 11.1189L16.3284, 10.81L17.0398, 10.8638C17.1618, 10.8732 17.2759, 10.803 17.3233, 10.6903L17.5024, 10.2643C17.5499, 10.1516 17.5198, 10.021 17.4279, 9.9403L16.8913, 9.4694L16.8938, 9.0326L17.4602, 8.558C17.5531, 8.4784 17.609, 8.3383 17.5628, 8.2251L17.3885, 7.7973C17.3424, 7.6841 17.2045, 7.623 17.0825, 7.631zM14.8109, 10.0803C14.3452, 10.2701 13.8138, 10.0463 13.624, 9.5806C13.4342, 9.1149 13.658, 8.5835 14.1237, 8.3937C14.5894, 8.2039 15.1208, 8.4277 15.3106, 8.8934C15.5004, 9.3592 15.2766, 9.8905 14.8109, 10.0803z" fill="Transparent" class="Transparent" />
      </g>
    </g>
  </g>
  <g transform="translate(8.2875, 4.6087)">
    <g transform="matrix(0.5, 0, 0, 0.5, 0, 0)">
      <g id="Layer_1" transform="translate(-0.9925, -4.6862)">
        <g transform="matrix(0.9368, 0, 0, 0.9368, 0, 0)">
          <g id="icon">
            <path d="M1.54, 28C1.338, 28 1.161, 27.875 1.09, 27.682C1.019, 27.488 1.07, 27.275 1.222, 27.138L5.583, 23.157C5.671, 23.078 5.784, 23.034 5.901, 23.034L22.899, 23.067L27.278, 19.119C27.365, 19.042 27.476, 19 27.591, 19L30.341, 19C30.539, 19 30.714, 19.122 30.787, 19.31C30.86, 19.498 30.814, 19.709 30.67, 19.848L22.251, 27.866C22.161, 27.952 22.045, 28 21.922, 28L1.54, 28z" fill="Transparent" fill-opacity="1" class="Transparent" fill-rule="evenodd" />
          </g>
        </g>
      </g>
    </g>
  </g>
  <g transform="translate(8.2875, 4.6087)">
    <g transform="matrix(0.5, 0, 0, 0.5, 0, 0)">
      <g id="Layer_1" transform="translate(-0.9925, -4.6862)">
        <g transform="matrix(0.9368, 0, 0, 0.9368, 0, 0)">
          <g id="icon">
            <path d="M1.564, 21C1.363, 21 1.188, 20.876 1.118, 20.684C1.048, 20.492 1.1, 20.28 1.251, 20.146L5.429, 16.221C5.515, 16.144 5.626, 16.101 5.741, 16.101L22.899, 16.068L27.277, 12.121C27.364, 12.044 27.475, 12.002 27.59, 12.002L30.315, 12.002C30.512, 12.002 30.686, 12.123 30.758, 12.311C30.83, 12.499 30.784, 12.709 30.641, 12.846L22.274, 20.87C22.185, 20.955 22.069, 21.002 21.948, 21.002L1.564, 21.002z" fill="Transparent" fill-opacity="1" class="Transparent" fill-rule="evenodd" />
          </g>
        </g>
      </g>
    </g>
  </g>
  <g transform="translate(8.2875, 4.6087)">
    <g transform="matrix(0.5, 0, 0, 0.5, 0, 0)">
      <g id="Layer_1" transform="translate(-0.9925, -4.6862)">
        <g transform="matrix(0.9368, 0, 0, 0.9368, 0, 0)">
          <g id="icon">
            <path d="M1.565, 14C1.363, 14 1.187, 13.875 1.117, 13.68C1.047, 13.486 1.101, 13.274 1.255, 13.139L9.864, 5.117C9.95, 5.041 10.061, 5 10.174, 5L30.47, 5C30.673, 5 30.849, 5.126 30.919, 5.321C30.989, 5.516 30.934, 5.728 30.779, 5.862L22.087, 13.884C22.001, 13.959 21.891, 14 21.778, 14L1.565, 14z" fill="Transparent" fill-opacity="1" class="Transparent" fill-rule="evenodd" />
          </g>
        </g>
      </g>
    </g>
  </g>
  <g transform="translate(8.2875, 4.6087)">
    <g transform="matrix(0.5, 0, 0, 0.5, 0, 0)">
      <g id="Layer_1" transform="translate(6, 2.7725)">
        <g id="icon">
          <path d="M14.005, 12.268C14.86, 11.068 15.365, 9.603 15.365, 8.021C15.365, 6.431 14.855, 4.958 13.992, 3.755L15.649, 2.098C16.118, 1.629 16.118, 0.87 15.649, 0.401C15.18, -0.068 14.421, -0.068 13.952, 0.401L12.295, 2.058C11.092, 1.195 9.619, 0.685 8.029, 0.685C6.447, 0.685 4.982, 1.19 3.782, 2.045L2.088, 0.391C1.614, -0.072 0.854, -0.062 0.391, 0.412C-0.072, 0.886 -0.063, 1.646 0.412, 2.109L2.08, 3.736C1.208, 4.943 0.693, 6.423 0.693, 8.021C0.693, 9.611 1.203, 11.084 2.066, 12.287L0.401, 13.951C-0.068, 14.42 -0.068, 15.179 0.401, 15.648C0.635, 15.882 0.942, 15.999 1.25, 15.999C1.558, 15.999 1.864, 15.882 2.099, 15.648L3.764, 13.983C4.967, 14.846 6.44, 15.356 8.03, 15.356C9.629, 15.356 11.108, 14.841 12.315, 13.969L13.943, 15.637C14.178, 15.878 14.49, 15.999 14.802, 15.999C15.104, 15.999 15.407, 15.886 15.64, 15.658C16.114, 15.195 16.124, 14.435 15.661, 13.961L14.005, 12.268zM3.093, 8.021C3.093, 5.299 5.307, 3.085 8.029, 3.085C10.751, 3.085 12.965, 5.299 12.965, 8.021C12.965, 10.743 10.751, 12.957 8.029, 12.957C5.307, 12.957 3.093, 10.743 3.093, 8.021z" fill="#1177D7" class="Blue" />
        </g>
      </g>
    </g>
  </g>
</svg>