<?xml version='1.0' encoding='UTF-8'?>
<svg viewBox="-2.71 -2 32 32" xmlns="http://www.w3.org/2000/svg" xmlns:xlink="http://www.w3.org/1999/xlink">
  <g id="Layer_1" transform="translate(-1.6202, -0.9502)">
    <g transform="matrix(0.9336, 0, 0, 0.9336, 0, 0)">
      <g transform="matrix(1, 0, 0, 1, 0, 0)">
        <g id="icon">
          <path d="M23.337, 15.054C23.337, 15.979 23.17, 17.531 22.053, 17.531C21.787, 17.531 21.552, 17.429 21.355, 17.228C20.957, 16.821 20.736, 16.037 20.749, 15.074C20.749, 13.886 21.086, 12.617 22.033, 12.617C23.167, 12.617 23.337, 14.144 23.337, 15.054zM12.948, 6.469C12.001, 6.469 11.664, 7.738 11.664, 8.926C11.651, 9.889 11.872, 10.673 12.27, 11.08C12.467, 11.281 12.702, 11.383 12.968, 11.383C14.086, 11.383 14.252, 9.831 14.252, 8.906C14.252, 7.996 14.082, 6.469 12.948, 6.469zM29.626, 16.137C29.202, 17.392 28.549, 18.56 27.746, 19.612C26.825, 20.817 25.308, 21.713 25.308, 23.272C25.308, 24.089 25.183, 23.851 25.447, 24.995C26.814, 30.911 14.477, 30.993 13.737, 30.993C12.88, 30.993 12.192, 31.055 11.526, 30.875C10.625, 30.63 10.981, 29.655 10.7, 28.919C10.283, 27.828 8.396, 28.463 7.573, 28.549C6.567, 28.654 5.187, 28.825 4.476, 27.907C3.727, 26.94 4.372, 25.949 4.562, 24.946C4.701, 24.213 4.052, 24.168 3.739, 23.683C3.41, 23.172 4.405, 22.89 4.707, 22.764C3.445, 22.576 3.479, 22.254 3.695, 21.102C3.892, 20.051 2.212, 20.297 1.805, 19.57C1.357, 18.77 3.124, 16.757 3.529, 16.116C3.867, 15.582 4.445, 14.962 4.612, 14.345C4.693, 14.044 4.338, 13.827 4.257, 13.543C4.138, 13.129 4.23, 12.695 4.315, 12.285C4.908, 9.43 5.851, 6.795 7.865, 4.614C9.969, 2.335 12.852, 1.376 15.876, 1.087C21.323, 0.566 27.349, 2.678 29.392, 8.142C30.342, 10.679 30.497, 13.558 29.626, 16.137zM12.932, 12.852C14.417, 12.852 15.915, 11.597 15.915, 8.794C15.915, 6.489 14.784, 5 13.033, 5C11.219, 5 10, 6.608 10, 9.002C10.016, 11.305 11.195, 12.852 12.932, 12.852zM14.897, 18.916L21.57, 5.245C21.596, 5.194 21.595, 5.133 21.569, 5.082C21.542, 5.031 21.494, 5.014 21.441, 5.014L20.188, 5.014C20.134, 5.014 20.085, 5.03 20.059, 5.083L13.404, 18.757C13.378, 18.808 13.379, 18.872 13.405, 18.922C13.432, 18.973 13.48, 19 13.533, 19L14.769, 19C14.822, 19 14.871, 18.968 14.897, 18.916zM25, 14.942C25, 12.637 23.869, 11.148 22.118, 11.148C20.304, 11.148 19.085, 12.756 19.085, 15.15C19.101, 17.452 20.28, 18.999 22.017, 18.999C23.502, 19 25, 17.745 25, 14.942z" fill="#1177D7" fill-opacity="1" class="Blue" />
        </g>
      </g>
    </g>
  </g>
</svg>