<?xml version='1.0' encoding='UTF-8'?>
<svg viewBox="-3.3125 -2 32 32" xmlns="http://www.w3.org/2000/svg" xmlns:xlink="http://www.w3.org/1999/xlink">
  <g id="Layer_1" transform="translate(-2.625, 0)">
    <g transform="matrix(0.875, 0, 0, 0.875, 0, 0)">
      <g id="main">
        <g id="icon">
          <path d="M3.988, 0.5629L3.734, 0.7342L3.563, 0.9885L3.5, 1.3L3.5, 28.7L3.563, 29.01L3.734, 29.27L3.988, 29.44L4.3, 29.5L18.28, 29.5L18.01, 29.1L17.54, 28.16L17.19, 27.16L16.97, 26.1L16.9, 25L16.94, 24.17L17.06, 23.37L17.26, 22.59L17.54, 21.85L17.88, 21.14L18.28, 20.47L18.75, 19.85L19.27, 19.27L19.85, 18.75L20.47, 18.28L21.14, 17.88L21.85, 17.54L22.59, 17.26L23.37, 17.06L24.17, 16.94L25, 16.9L26.1, 16.97L26.5, 17.06L26.5, 1.3L26.44, 0.9885L26.27, 0.7342L26.01, 0.5629L25.7, 0.5L4.3, 0.5zz" fill="#FFFFFF" />
        </g>
      </g>
    </g>
  </g>
  <g id="Layer_1" transform="translate(-2.625, 0)">
    <g transform="matrix(0.875, 0, 0, 0.875, 0, 0)">
      <g id="main">
        <g id="icon">
          <path d="M4.038, 0.0264L3.794, 0.1023L3.381, 0.3811L3.102, 0.7943L3.026, 1.038L3, 1.3L3, 28.7L3.026, 28.96L3.102, 29.21L3.381, 29.62L3.794, 29.9L4.038, 29.97L4.3, 30L18.63, 30L18.59, 29.96L18.01, 29.1L17.96, 29L4.3, 29L4.088, 28.91L4, 28.7L4, 1.3L4.088, 1.088L4.3, 1L25.7, 1L25.91, 1.088L26, 1.3L26, 16.97L26.1, 16.97L27, 17.16L27, 1.3L26.97, 1.038L26.9, 0.7943L26.62, 0.3811L26.21, 0.1023L25.96, 0.0264L25.7, 0L4.3, 0zz" fill="#727272" class="Black" />
        </g>
      </g>
    </g>
  </g>
  <g id="Layer_1" transform="translate(-2.625, 0)">
    <g transform="matrix(0.875, 0, 0, 0.875, 0, 0)">
      <g id="main">
        <g id="icon">
          <path d="M7.305, 4.039L7.146, 4.146L7.039, 4.305L7, 4.5L7.039, 4.695L7.146, 4.854L7.305, 4.961L7.5, 5L22.5, 5L22.69, 4.961L22.85, 4.854L22.96, 4.695L23, 4.5L22.96, 4.305L22.85, 4.146L22.69, 4.039L22.5, 4L7.5, 4zM7.305, 7.039L7.146, 7.146L7.039, 7.305L7, 7.5L7.039, 7.695L7.146, 7.854L7.305, 7.961L7.5, 8L22.5, 8L22.69, 7.961L22.85, 7.854L22.96, 7.695L23, 7.5L22.96, 7.305L22.85, 7.146L22.69, 7.039L22.5, 7L7.5, 7zz" fill="#727272" class="Black" />
        </g>
      </g>
    </g>
  </g>
  <g id="Layer_1" transform="translate(-2.625, 0)">
    <g transform="matrix(0.875, 0, 0, 0.875, 0, 0)">
      <g id="main">
        <g id="icon">
          <path d="M14.47, 11.03L13.93, 11.11L13.41, 11.24L12.91, 11.43L12.43, 11.65L11.98, 11.93L11.18, 12.59L10.83, 12.97L10.51, 13.39L10.24, 13.84L10.01, 14.31L9.827, 14.81L9.693, 15.33L9.61, 15.87L9.582, 16.42L9.61, 16.98L9.693, 17.51L9.827, 18.03L10.01, 18.53L10.24, 19.01L10.51, 19.45L10.83, 19.87L11.18, 20.25L11.98, 20.92L12.43, 21.19L12.91, 21.42L13.41, 21.6L13.93, 21.73L14.47, 21.81L15.03, 21.84L15.58, 21.81L16.12, 21.73L16.64, 21.6L17.15, 21.42L17.62, 21.19L17.98, 20.97L18.28, 20.47L18.75, 19.85L19.27, 19.27L19.85, 18.75L19.99, 18.65L20.04, 18.53L20.23, 18.03L20.36, 17.51L20.44, 16.98L20.47, 16.42L20.44, 15.87L20.36, 15.33L20.23, 14.81L20.04, 14.31L19.81, 13.84L19.54, 13.39L19.23, 12.97L18.88, 12.59L18.07, 11.93L17.62, 11.65L17.15, 11.43L16.64, 11.24L16.12, 11.11L15.58, 11.03L15.03, 11zM9.845, 25.23L9.804, 25.39L9.847, 25.54L9.957, 25.66L10.12, 25.7L11.79, 25.72L12.98, 26.88L13.13, 26.96L13.28, 26.96L13.42, 26.88L13.51, 26.74L14.74, 22.36L13.99, 22.28L13.26, 22.11L12.58, 21.85L11.93, 21.52zM17.47, 21.84L16.78, 22.1L16.06, 22.27L15.31, 22.36L16.54, 26.74L16.63, 26.88L16.76, 26.96L16.92, 26.96L17.07, 26.88L17.12, 26.83L16.97, 26.1L16.9, 25L16.94, 24.17L17.06, 23.37L17.26, 22.59L17.54, 21.85L17.56, 21.79zz" fill="#D11C1C" class="Red" />
        </g>
      </g>
    </g>
  </g>
  <g id="Layer_1" transform="translate(-2.625, 0)">
    <g transform="matrix(0.875, 0, 0, 0.875, 0, 0)">
      <g id="main">
        <g id="overlay">
          <path d="M25, 18C21.134, 18 18, 21.134 18, 25C18, 28.866 21.134, 32 25, 32C28.866, 32 32, 28.866 32, 25C32, 21.134 28.866, 18 25, 18zM28.5, 24.5L25.5, 27.5L28.5, 27.5L28.5, 29L21.5, 29L21.5, 27.5L24.5135, 27.5C23.5523, 26.5115 21.5, 24.4 21.5, 24.4L21.5, 22.2L24, 24.7L24, 20L26, 20L26, 24.7L28.5, 22.2L28.5, 24.5z" fill="#039C23" class="Green" fill-rule="evenodd" />
        </g>
      </g>
    </g>
  </g>
  <g id="Layer_1" transform="translate(-2.625, 0)">
    <g transform="matrix(0.875, 0, 0, 0.875, 0, 0)">
      <g id="main">
        <g id="overlay">
          <path d="M28.5, 22.2L26, 24.7L26, 20L24, 20L24, 24.7L21.5, 22.2L21.5, 24.4C21.5, 24.4 23.5523, 26.5115 24.5135, 27.5L21.5, 27.5L21.5, 29L28.5, 29L28.5, 27.5L25.5, 27.5L28.5, 24.5L28.5, 22.2z" fill="#FFFFFF" fill-rule="evenodd" />
        </g>
      </g>
    </g>
  </g>
</svg>