<?xml version='1.0' encoding='UTF-8'?>
<svg viewBox="-2 -2 32 32" xmlns="http://www.w3.org/2000/svg" xmlns:xlink="http://www.w3.org/1999/xlink">
  <g id="Layer_1" transform="translate(0, 0)">
    <g transform="matrix(0.875, 0, 0, 0.875, 0, 0)">
      <g id="main">
        <g id="icon">
          <path d="M0.9914, 0.5504L0.7119, 0.7096L0.5514, 0.9889L0.5, 1.4L0.5, 28.6L0.5514, 29.01L0.7119, 29.29L0.9914, 29.45L1.4, 29.5L18.28, 29.5L18.01, 29.1L17.54, 28.16L17.19, 27.16L16.97, 26.1L16.9, 25L16.94, 24.17L17.06, 23.37L17.26, 22.59L17.48, 22.01L17.38, 22.11L17.12, 22.3L16.81, 22.42L16.6, 22.81L16.26, 23.09L11.45, 25.61L11.19, 25.71L10.92, 25.74L10.49, 25.65L10.13, 25.41L9.931, 25.22L9.718, 24.92L9.611, 24.59L9.613, 24.23L9.73, 23.89L12.26, 19.09L12.54, 18.75L12.94, 18.54L13.05, 18.24L13.24, 17.98L23.27, 7.996L23.1, 7.8L16.2, 0.9L15.95, 0.6898L15.71, 0.5688L15.3, 0.5L1.4, 0.5zM22.04, 17.47L22.59, 17.26L23.37, 17.06L23.5, 17.04L23.5, 16.01zz" fill="#FFFFFF" fill-rule="evenodd" />
        </g>
      </g>
    </g>
  </g>
  <g id="Layer_1" transform="translate(0, 0)">
    <g transform="matrix(0.875, 0, 0, 0.875, 0, 0)">
      <g id="main">
        <g id="icon">
          <path d="M1.077, 0.0227L0.7947, 0.0898L0.5545, 0.2014L0.3564, 0.3564L0.2014, 0.5545L0.0898, 0.7947L0.0227, 1.077L0, 1.4L0, 28.6L0.0227, 28.92L0.0898, 29.21L0.2014, 29.45L0.3564, 29.64L0.5545, 29.8L0.7947, 29.91L1.077, 29.98L1.4, 30L18.63, 30L18.59, 29.96L18.01, 29.1L17.96, 29L1.4, 29L1.184, 28.99L1.064, 28.94L1.012, 28.82L1, 28.6L1, 1.4L1.012, 1.184L1.064, 1.064L1.184, 1.012L1.4, 1L15, 1L15, 7.7L15.03, 7.962L15.1, 8.206L15.38, 8.619L15.79, 8.898L16.04, 8.974L16.3, 9L22.26, 9L23.62, 7.64L23.45, 7.446L16.55, 0.5461L16.27, 0.3059L15.97, 0.1354L15.64, 0.0338L15.3, 0L1.4, 0zM22.59, 8L16.3, 8L16.09, 7.912L16, 7.7L16, 1.407zM23, 16.51L23, 17.16L23.37, 17.06L24, 16.97L24, 15.51zz" fill="#727272" class="Black" />
        </g>
      </g>
    </g>
  </g>
  <g id="Layer_1" transform="translate(0, 0)">
    <g transform="matrix(0.875, 0, 0, 0.875, 0, 0)">
      <g id="main">
        <g id="icon">
          <path d="M27.39, 5.385L27.05, 5.638L26, 6.668L25.96, 6.759L26, 6.849L28.56, 9.378L28.65, 9.415L28.74, 9.378L29.68, 8.44L29.92, 8.081L30, 7.671L29.92, 7.262L29.68, 6.902L28.41, 5.638L28.07, 5.385L27.73, 5.301zM25.19, 7.486L13.95, 18.69L13.91, 18.78L13.95, 18.87L16.49, 21.4L16.58, 21.44L16.67, 21.4L27.92, 10.2L27.95, 10.11L27.92, 10.02L25.38, 7.486L25.28, 7.448zM13.15, 19.56L10.62, 24.36L10.64, 24.51L10.83, 24.7L10.9, 24.74L10.98, 24.72L15.79, 22.2L15.86, 22.11L15.83, 22L13.35, 19.53L13.24, 19.5zz" fill="#1177D7" class="Blue" fill-rule="evenodd" />
        </g>
      </g>
    </g>
  </g>
  <g id="Layer_1" transform="translate(0, 0)">
    <g transform="matrix(0.875, 0, 0, 0.875, 0, 0)">
      <g id="main">
        <g id="icon">
          <path d="M4.183, 25.11L4.01, 25.4L4.059, 25.73L4.308, 25.96L4.5, 26L16.97, 26L16.9, 25L4.5, 25zz" fill="#727272" class="Black" />
        </g>
      </g>
    </g>
  </g>
  <g id="Layer_1" transform="translate(0, 0)">
    <g transform="matrix(0.875, 0, 0, 0.875, 0, 0)">
      <g id="main">
        <g id="overlay">
          <path d="M25, 18C21.134, 18 18, 21.134 18, 25C18, 28.866 21.134, 32 25, 32C28.866, 32 32, 28.866 32, 25C32, 21.134 28.866, 18 25, 18zM28.5, 24.5L25.5, 27.5L28.5, 27.5L28.5, 29L21.5, 29L21.5, 27.5L24.5135, 27.5C23.5523, 26.5115 21.5, 24.4 21.5, 24.4L21.5, 22.2L24, 24.7L24, 20L26, 20L26, 24.7L28.5, 22.2L28.5, 24.5z" fill="#039C23" class="Green" fill-rule="evenodd" />
        </g>
      </g>
    </g>
  </g>
  <g id="Layer_1" transform="translate(0, 0)">
    <g transform="matrix(0.875, 0, 0, 0.875, 0, 0)">
      <g id="main">
        <g id="overlay">
          <path d="M28.5, 22.2L26, 24.7L26, 20L24, 20L24, 24.7L21.5, 22.2L21.5, 24.4C21.5, 24.4 23.5523, 26.5115 24.5135, 27.5L21.5, 27.5L21.5, 29L28.5, 29L28.5, 27.5L25.5, 27.5L28.5, 24.5L28.5, 22.2z" fill="#FFFFFF" fill-rule="evenodd" />
        </g>
      </g>
    </g>
  </g>
</svg>