<?xml version='1.0' encoding='UTF-8'?>
<svg viewBox="-2.0011 -2 31.9986 32" xmlns="http://www.w3.org/2000/svg" xmlns:xlink="http://www.w3.org/1999/xlink">
  <g id="Layer_1" transform="translate(0, 0)">
    <g transform="matrix(0.8749, 0, 0, 0.8749, 0, 0)">
      <g id="main">
        <g id="icon">
          <g>
            <path d="M0.9914, 0.5504L0.7119, 0.7096L0.5514, 0.9889L0.5, 1.4L0.5, 28.6L0.5514, 29.01L0.7119, 29.29L0.9914, 29.45L1.4, 29.5L17.63, 29.5L17.51, 29.07L17.56, 28.53L17.66, 28.27L17.8, 28.02L18.45, 27.1L18.34, 26.81L17.31, 26.63L17.04, 26.56L16.79, 26.44L16.37, 26.09L16.1, 25.62L16.03, 25.35L16, 25.07L16, 23.88L16.03, 23.6L16.1, 23.33L16.23, 23.1L11.45, 25.61L11.19, 25.71L10.92, 25.74L10.49, 25.65L10.13, 25.41L9.931, 25.22L9.718, 24.92L9.611, 24.59L9.613, 24.23L9.73, 23.89L12.26, 19.09L12.54, 18.75L12.94, 18.54L13.05, 18.24L13.24, 17.98L23.27, 7.996L23.1, 7.8L16.2, 0.9L15.95, 0.6898L15.71, 0.5688L15.3, 0.5L1.4, 0.5zM23.42, 16.09L23.5, 16.07L23.5, 16.01zM21.38, 18.12L21.95, 18.53L22.17, 18.44L22.37, 17.31L22.44, 17.07zM17.38, 22.11L17.12, 22.3L16.81, 22.42L16.74, 22.54L16.79, 22.51L17.04, 22.39L17.31, 22.32L18.41, 22.12L18.55, 21.78L18.2, 21.28zz" fill="#FFFFFF" fill-rule="evenodd" />
          </g>
        </g>
      </g>
    </g>
  </g>
  <g id="Layer_1" transform="translate(0, 0)">
    <g transform="matrix(0.8749, 0, 0, 0.8749, 0, 0)">
      <g id="main">
        <g id="icon">
          <g>
            <path d="M1.077, 0.0227L0.7947, 0.0898L0.5545, 0.2014L0.3564, 0.3564L0.2014, 0.5545L0.0898, 0.7947L0.0227, 1.077L0, 1.4L0, 28.6L0.0227, 28.92L0.0898, 29.21L0.2014, 29.45L0.3564, 29.64L0.5545, 29.8L0.7947, 29.91L1.077, 29.98L1.4, 30L17.92, 30L17.79, 29.84L17.65, 29.6L17.51, 29.07L17.52, 29L1.4, 29L1.184, 28.99L1.064, 28.94L1.012, 28.82L1, 28.6L1, 1.4L1.012, 1.184L1.064, 1.064L1.184, 1.012L1.4, 1L15, 1L15, 7.7L15.03, 7.962L15.1, 8.206L15.38, 8.619L15.79, 8.898L16.04, 8.974L16.3, 9L22.26, 9L23.62, 7.64L23.45, 7.446L16.55, 0.5461L16.27, 0.3059L15.97, 0.1354L15.64, 0.0338L15.3, 0L1.4, 0zM22.59, 8L16.3, 8L16.09, 7.912L16, 7.7L16, 1.407zM23.42, 16.09L23.65, 16.03L23.93, 16L24, 16L24, 15.51zz" fill="#727272" class="Black" />
          </g>
        </g>
      </g>
    </g>
  </g>
  <g id="Layer_1" transform="translate(0, 0)">
    <g transform="matrix(0.8749, 0, 0, 0.8749, 0, 0)">
      <g id="main">
        <g id="icon">
          <path d="M3.305, 24.04L3.146, 24.15L3.039, 24.31L3, 24.5L3.039, 24.69L3.146, 24.85L3.305, 24.96L3.5, 25L9.5, 25L9.729, 24.94L9.602, 24.5L9.611, 24.26L9.669, 24.03L9.5, 24L3.5, 24zz" fill="#727272" class="Black" />
        </g>
      </g>
    </g>
  </g>
  <g id="Layer_1" transform="translate(0, 0)">
    <g transform="matrix(0.8749, 0, 0, 0.8749, 0, 0)">
      <g id="main">
        <g id="icon">
          <path d="M27.39, 5.385L27.05, 5.638L26, 6.668L25.96, 6.759L26, 6.849L28.56, 9.378L28.65, 9.415L28.74, 9.378L29.68, 8.44L29.92, 8.081L30, 7.671L29.92, 7.262L29.68, 6.902L28.41, 5.638L28.07, 5.385L27.73, 5.301zM25.19, 7.486L13.95, 18.69L13.91, 18.78L13.95, 18.87L16.49, 21.4L16.58, 21.44L16.67, 21.4L17.69, 20.38L17.69, 20.38L17.64, 19.84L17.78, 19.31L17.92, 19.07L18.1, 18.86L18.94, 18.02L19.18, 17.82L19.46, 17.67L19.75, 17.58L20.06, 17.55L20.47, 17.61L27.92, 10.2L27.95, 10.11L27.92, 10.02L25.38, 7.486L25.28, 7.448zM13.15, 19.56L10.62, 24.36L10.64, 24.51L10.83, 24.7L10.9, 24.74L10.98, 24.72L15.79, 22.2L15.86, 22.11L15.83, 22L13.35, 19.53L13.24, 19.5zz" fill="#1177D7" class="Blue" fill-rule="evenodd" />
        </g>
      </g>
    </g>
  </g>
  <g id="Layer_1" transform="translate(0, 0)">
    <g transform="matrix(0.8749, 0, 0, 0.8749, 0, 0)">
      <g id="main">
        <g id="overlay">
          <path d="M32, 25.1684L32, 23.9822C32, 23.6973 31.7951, 23.4538 31.5145, 23.4049L29.7872, 23.1044C29.6762, 22.7 29.516, 22.3028 29.307, 21.9195L30.3415, 20.4493C30.5054, 20.2163 30.478, 19.8992 30.2766, 19.6978L29.4377, 18.8589C29.2363, 18.6575 28.9192, 18.6301 28.6862, 18.794L27.258, 19.7989C26.8629, 19.5667 26.4419, 19.3854 26.0051, 19.2575L25.6968, 17.4855C25.648, 17.2049 25.4044, 17 25.1195, 17L23.9331, 17C23.6482, 17 23.4047, 17.2049 23.3558, 17.4855L23.0555, 19.2117C22.6459, 19.3187 22.243, 19.4746 21.8542, 19.6816L20.4002, 18.6586C20.1672, 18.4947 19.8501, 18.5221 19.6487, 18.7235L18.8098, 19.5624C18.6084, 19.7638 18.581, 20.0809 18.7449, 20.3139L19.7187, 21.6979C19.4702, 22.1087 19.3027, 22.549 19.1685, 23.0062L17.4844, 23.3025C17.2043, 23.3518 17, 23.5951 17, 23.8796L17, 25.0679C17, 25.3523 17.2043, 25.5957 17.4844, 25.645L19.1144, 25.9319C19.2255, 26.3667 19.3794, 26.7941 19.603, 27.2053L18.6169, 28.6C18.4523, 28.8328 18.4792, 29.1503 18.6806, 29.3522L19.5162, 30.1895C19.7176, 30.3913 20.0351, 30.4189 20.2683, 30.2547L21.6086, 29.3109C22.0343, 29.5654 22.4901, 29.7361 22.9643, 29.8684L23.2536, 31.5157C23.3028, 31.7959 23.5462, 32.0003 23.8307, 32.0003L25.0189, 32.0003C25.3033, 32.0003 25.5467, 31.796 25.596, 31.5159L25.8831, 29.8848C26.3126, 29.7694 26.7345, 29.6117 27.1401, 29.3859L28.551, 30.3834C28.7838, 30.548 29.1013, 30.5211 29.3032, 30.3197L30.1405, 29.4841C30.3423, 29.2827 30.3699, 28.9652 30.2057, 28.732L29.2308, 27.3476C29.469, 26.9376 29.6533, 26.5011 29.7795, 26.0473L31.5146, 25.746C31.795, 25.697 32, 25.4533 32, 25.1684zM25.7239, 26.7708C24.5057, 27.4741 22.948, 27.0567 22.2447, 25.8386C21.5414, 24.6204 21.9588, 23.0628 23.1769, 22.3594C24.3951, 21.6561 25.9527, 22.0735 26.6561, 23.2916C27.3594, 24.5098 26.942, 26.0675 25.7239, 26.7708z" fill="#727272" class="Black" fill-rule="evenodd" />
        </g>
      </g>
    </g>
  </g>
</svg>