<?xml version='1.0' encoding='UTF-8'?>
<svg viewBox="-2.4385 -2 31.9985 32" xmlns="http://www.w3.org/2000/svg" xmlns:xlink="http://www.w3.org/1999/xlink">
  <g id="Layer_1" transform="translate(-0.8749, 0)">
    <g transform="matrix(0.8749, 0, 0, 0.8749, 0, 0)">
      <g id="main">
        <g id="icon">
          <path d="M5.874, 3.538L5.661, 3.66L5.539, 3.872L5.5, 4.185L5.5, 25.82L5.539, 26.13L5.661, 26.34L5.874, 26.46L6.185, 26.5L22.64, 26.5L22.64, 26.5L22.15, 26.04L21.71, 25.53L21.35, 25L9.6, 25L9.278, 24.97L8.977, 24.87L8.705, 24.73L8.469, 24.53L8.273, 24.29L8.126, 24.02L8.032, 23.72L8, 23.4L8, 3.5L6.185, 3.5zz" fill="#FFFFFF" fill-rule="evenodd" />
        </g>
      </g>
    </g>
  </g>
  <g id="Layer_1" transform="translate(-0.8749, 0)">
    <g transform="matrix(0.8749, 0, 0, 0.8749, 0, 0)">
      <g id="main">
        <g id="icon">
          <path d="M6.123, 3.004L5.813, 3.042L5.713, 3.054L5.627, 3.104L5.414, 3.225L5.296, 3.292L5.228, 3.411L5.105, 3.623L5.055, 3.71L5.043, 3.81L5.004, 4.123L5, 4.154L5, 4.185L5, 25.82L5, 25.85L5.004, 25.88L5.043, 26.19L5.055, 26.29L5.105, 26.38L5.228, 26.59L5.296, 26.71L5.414, 26.78L5.627, 26.9L5.713, 26.95L5.813, 26.96L6.123, 27L6.154, 27L6.185, 27L22.36, 27L22.64, 26.5L22.15, 26.04L22.12, 26L6.216, 26L6.034, 25.98L6.027, 25.97L6.023, 25.97L6, 25.78L6, 4.215L6.023, 4.034L6.027, 4.027L6.034, 4.022L6.216, 4L7.8, 4L8.117, 3.887L8.29, 3.598L8.241, 3.265L7.992, 3.038L7.8, 3L6.185, 3L6.154, 3zz" fill="#727272" class="Black" />
        </g>
      </g>
    </g>
  </g>
  <g id="Layer_1" transform="translate(-0.8749, 0)">
    <g transform="matrix(0.8749, 0, 0, 0.8749, 0, 0)">
      <g id="main">
        <g id="icon">
          <path d="M1.874, 6.538L1.661, 6.66L1.539, 6.872L1.5, 7.185L1.5, 28.82L1.539, 29.13L1.661, 29.34L1.874, 29.46L2.185, 29.5L19.82, 29.5L20.13, 29.46L20.34, 29.34L20.46, 29.13L20.5, 28.82L20.5, 28L5.6, 28L5.278, 27.97L4.977, 27.87L4.705, 27.73L4.469, 27.53L4.273, 27.29L4.126, 27.02L4.032, 26.72L4, 26.4L4, 6.5L2.185, 6.5zz" fill="#FFFFFF" fill-rule="evenodd" />
        </g>
      </g>
    </g>
  </g>
  <g id="Layer_1" transform="translate(-0.8749, 0)">
    <g transform="matrix(0.8749, 0, 0, 0.8749, 0, 0)">
      <g id="main">
        <g id="icon">
          <path d="M2.123, 6.004L1.813, 6.042L1.713, 6.054L1.627, 6.104L1.414, 6.225L1.296, 6.292L1.228, 6.411L1.105, 6.623L1.055, 6.71L1.043, 6.81L1.004, 7.123L1, 7.154L1, 7.185L1, 28.82L1, 28.85L1.004, 28.88L1.043, 29.19L1.055, 29.29L1.105, 29.38L1.228, 29.59L1.296, 29.71L1.414, 29.78L1.627, 29.9L1.713, 29.95L1.813, 29.96L2.123, 30L2.154, 30L2.185, 30L19.82, 30L19.85, 30L19.88, 30L20.19, 29.96L20.29, 29.95L20.37, 29.9L20.59, 29.78L20.7, 29.71L20.77, 29.59L20.89, 29.38L20.94, 29.29L20.96, 29.19L21, 28.88L21, 28.85L21, 28.82L21, 28.2L20.89, 27.88L20.6, 27.71L20.27, 27.76L20.04, 28.01L20, 28.2L20, 28.78L19.98, 28.97L19.97, 28.97L19.97, 28.98L19.78, 29L2.216, 29L2.034, 28.98L2.027, 28.97L2.023, 28.97L2, 28.78L2, 7.215L2.023, 7.034L2.027, 7.027L2.034, 7.022L2.216, 7L3.8, 7L4.117, 6.887L4.29, 6.598L4.241, 6.265L3.992, 6.038L3.8, 6L2.185, 6L2.154, 6zz" fill="#727272" class="Black" />
        </g>
      </g>
    </g>
  </g>
  <g id="Layer_1" transform="translate(-0.8749, 0)">
    <g transform="matrix(0.8749, 0, 0, 0.8749, 0, 0)">
      <g id="main">
        <g id="icon">
          <path d="M9.874, 0.5385L9.661, 0.6596L9.539, 0.8721L9.5, 1.185L9.5, 22.82L9.539, 23.13L9.661, 23.34L9.874, 23.46L10.18, 23.5L20.68, 23.5L20.56, 23.09L20.44, 22.4L20.4, 21.68L20.43, 21.04L20.53, 20.42L20.68, 19.81L20.9, 19.23L21.16, 18.68L21.48, 18.17L21.84, 17.68L22.25, 17.23L22.7, 16.83L23.18, 16.46L23.7, 16.15L24.25, 15.88L24.83, 15.67L25.43, 15.51L26.06, 15.42L26.7, 15.38L27.52, 15.44L28.31, 15.59L28.5, 15.66L28.5, 6.815L28.42, 6.379L28.2, 6.054L22.95, 0.8043L22.75, 0.6443L22.57, 0.5521L22.26, 0.5L10.18, 0.5zz" fill="#FFFFFF" fill-rule="evenodd" />
        </g>
      </g>
    </g>
  </g>
  <g id="Layer_1" transform="translate(-0.8749, 0)">
    <g transform="matrix(0.8749, 0, 0, 0.8749, 0, 0)">
      <g id="main">
        <g id="icon">
          <path d="M10.12, 0.0037L9.813, 0.0422L9.713, 0.0545L9.627, 0.1039L9.414, 0.225L9.296, 0.2924L9.228, 0.4105L9.105, 0.623L9.055, 0.7104L9.043, 0.8102L9.004, 1.123L9, 1.154L9, 1.185L9, 22.82L9, 22.85L9.004, 22.88L9.043, 23.19L9.055, 23.29L9.105, 23.38L9.228, 23.59L9.296, 23.71L9.414, 23.78L9.627, 23.9L9.713, 23.95L9.813, 23.96L10.12, 24L10.15, 24L10.18, 24L20.85, 24L20.75, 23.75L20.56, 23.09L20.54, 23L10.22, 23L10.03, 22.98L10.03, 22.97L10.02, 22.97L10, 22.78L10, 1.215L10.02, 1.034L10.03, 1.027L10.03, 1.022L10.22, 1L22.22, 1L22.41, 1.033L22.48, 1.065L22.61, 1.175L27.81, 6.376L27.95, 6.574L28, 6.861L28, 15.53L28.31, 15.59L29, 15.82L29, 6.815L29, 6.77L28.99, 6.725L28.91, 6.288L28.89, 6.182L28.83, 6.094L28.61, 5.77L28.58, 5.733L28.55, 5.701L23.3, 0.4506L23.28, 0.4338L23.26, 0.4184L23.07, 0.2584L23.03, 0.2236L22.98, 0.1988L22.8, 0.1068L22.73, 0.0719L22.65, 0.0592L22.34, 0.0068L22.3, 0L22.26, 0L10.18, 0L10.15, 0zz" fill="#727272" class="Black" />
        </g>
      </g>
    </g>
  </g>
  <g id="Layer_1" transform="translate(-0.8749, 0)">
    <g transform="matrix(0.8749, 0, 0, 0.8749, 0, 0)">
      <g id="main">
        <g id="icon">
          <path d="M22, 5.7L22, 5.75L22.01, 5.799L22.07, 6.11L22.09, 6.208L22.15, 6.291L22.32, 6.545L22.37, 6.626L22.45, 6.68L22.71, 6.852L22.79, 6.907L22.89, 6.927L23.2, 6.99L23.25, 7L23.3, 7L28.4, 7L28.4, 6L23.35, 6L23.19, 5.967L23.09, 5.905L23.03, 5.814L23, 5.65L23, 0.8L22, 0.8zz" fill="#727272" class="Black" />
        </g>
      </g>
    </g>
  </g>
  <g id="Layer_1" transform="translate(-0.8749, 0)">
    <g transform="matrix(0.8749, 0, 0, 0.8749, 0, 0)">
      <g id="main">
        <g id="overlay">
          <path d="M26.7002, 16.385C29.6272, 16.385 32, 18.7578 32, 21.6848C32, 24.6118 29.6272, 26.9846 26.7002, 26.9846C23.7732, 26.9846 21.4004, 24.6118 21.4004, 21.6848C21.4004, 18.7578 23.7732, 16.385 26.7002, 16.385zM29.904, 27.0209C29.0724, 27.5237 28.112, 27.8345 27.084, 27.8935L28.174, 31.7742C28.2375, 32.0002 28.5197, 32.0759 28.6878, 31.912L29.8506, 30.7781L31.4746, 30.7589C31.7093, 30.7561 31.8555, 30.5032 31.7408, 30.2984L29.904, 27.0209zM26.3145, 27.8893L25.2233, 31.7742C25.1598, 32.0002 24.8776, 32.0759 24.7095, 31.912L23.5467, 30.7781L21.9227, 30.7589C21.688, 30.7561 21.5418, 30.5032 21.6565, 30.2984L23.5077, 26.9952C24.3342, 27.5038 25.29, 27.8214 26.3145, 27.8893z" fill="#FFB115" class="Yellow" />
        </g>
      </g>
    </g>
  </g>
</svg>