<?xml version='1.0' encoding='UTF-8'?>
<svg viewBox="-2 -2.8538 32 31.9988" xmlns="http://www.w3.org/2000/svg" xmlns:xlink="http://www.w3.org/1999/xlink">
  <g id="Layer_1" transform="translate(-0.0428, -1.7526)">
    <g transform="matrix(0.8763, 0, 0, 0.8763, 0, 0)">
      <g id="main">
        <g id="icon">
          <path d="M6.883, 20.04L10.31, 27.95L29.97, 2zz" fill="#FFFFFF" fill-rule="evenodd" />
        </g>
      </g>
    </g>
  </g>
  <g id="Layer_1" transform="translate(-0.0428, -1.7526)">
    <g transform="matrix(0.8763, 0, 0, 0.8763, 0, 0)">
      <g id="main">
        <g id="icon">
          <path d="M0.249, 17.19L0.0857, 17.35L0.0488, 17.58L0.1314, 17.79L0.327, 17.93L6.902, 20.1L29.97, 2zz" fill="#1177D7" class="Blue" fill-rule="evenodd" />
        </g>
      </g>
    </g>
  </g>
  <g id="Layer_1" transform="translate(-0.0428, -1.7526)">
    <g transform="matrix(0.8763, 0, 0, 0.8763, 0, 0)">
      <g id="main">
        <g id="icon">
          <path d="M11.2, 21.9L11.2, 21.9L10.31, 27.95L13.98, 23.03L19.57, 25.31L19.89, 25.37L20.19, 25.31L20.45, 25.13L20.63, 24.85L20.92, 24.16L20.75, 23.75L20.56, 23.09L20.44, 22.4L20.4, 21.68L20.43, 21.04L20.53, 20.42L20.68, 19.81L20.9, 19.23L21.16, 18.68L21.48, 18.17L21.84, 17.68L22.25, 17.23L22.7, 16.83L23.18, 16.46L23.7, 16.15L24.25, 15.88L24.31, 15.86L29.97, 2zz" fill="#1177D7" class="Blue" fill-rule="evenodd" />
        </g>
      </g>
    </g>
  </g>
  <g id="Layer_1" transform="translate(-0.0428, -1.7526)">
    <g transform="matrix(0.8763, 0, 0, 0.8763, 0, 0)">
      <g id="main">
        <g id="icon">
          <path d="M6.883, 20.04L10.31, 27.95L11.24, 26.72L8.222, 19zz" fill="#1177D7" class="Blue" fill-rule="evenodd" />
        </g>
      </g>
    </g>
  </g>
  <g id="Layer_1" transform="translate(-0.0428, -1.7526)">
    <g transform="matrix(0.8763, 0, 0, 0.8763, 0, 0)">
      <g id="main">
        <g id="overlay">
          <path d="M26.7002, 16.385C29.6272, 16.385 32, 18.7578 32, 21.6848C32, 24.6118 29.6272, 26.9846 26.7002, 26.9846C23.7732, 26.9846 21.4004, 24.6118 21.4004, 21.6848C21.4004, 18.7578 23.7732, 16.385 26.7002, 16.385zM29.904, 27.0209C29.0724, 27.5237 28.112, 27.8345 27.084, 27.8935L28.174, 31.7742C28.2375, 32.0002 28.5197, 32.0759 28.6878, 31.912L29.8506, 30.7781L31.4746, 30.7589C31.7093, 30.7561 31.8555, 30.5032 31.7408, 30.2984L29.904, 27.0209zM26.3145, 27.8893L25.2233, 31.7742C25.1598, 32.0002 24.8776, 32.0759 24.7095, 31.912L23.5467, 30.7781L21.9227, 30.7589C21.688, 30.7561 21.5418, 30.5032 21.6565, 30.2984L23.5077, 26.9952C24.3342, 27.5038 25.29, 27.8214 26.3145, 27.8893z" fill="#D11C1C" class="Red" />
        </g>
      </g>
    </g>
  </g>
</svg>