<?xml version="1.0" encoding="UTF-8"?>
<!DOCTYPE svg PUBLIC "-//W3C//DTD SVG 1.1//EN" "http://www.w3.org/Graphics/SVG/1.1/DTD/svg11.dtd">
<svg version="1.1" id="Layer_1" xmlns="http://www.w3.org/2000/svg" xmlns:xlink="http://www.w3.org/1999/xlink" x="0px" y="0px" width="32px" height="32px" viewBox="0 0 32 32" enable-background="new 0 0 32 32" xml:space="preserve">
  <g id="icon">
    <path d="M1,4h30v24H1V4z" fill="#3E79B4"/>
    <path d="M10.989,4h9.987v24h-9.987V4z" fill="#EAB765"/>
    <path d="M20.976,4H31v24H20.976V4z" fill="#CD4C32"/>
    <path d="M21.316,18.471c0.707,0.912,0.252,1.772,-0.43,2.278c-0.684,0.507,-2.001,0.431,-2.658,0.481c-0.658,0.051,-0.785,0.38,-0.785,0.38c0.507,0.482,-0.253,0.862,-0.253,0.862c-0.151,0.506,-0.758,-0.051,-0.758,-0.051L16,22.8l-0.43,-0.38c0,0,-0.608,0.556,-0.759,0.051c0,0,-0.759,-0.38,-0.253,-0.862c0,0,-0.126,-0.329,-0.785,-0.38c-0.658,-0.05,-1.974,0.026,-2.657,-0.481c-0.684,-0.506,-1.139,-1.365,-0.43,-2.278c0,0,-0.536,-0.177,-0.356,-0.709c0.179,-0.532,0.634,-0.43,0.634,-0.253c0,0,0.607,-0.438,0.152,-1.244c0,0,-0.887,0.105,-0.38,-0.579c0,0,-0.759,-0.43,-0.785,-1.316c-0.025,-0.887,0.988,-1.443,1.418,-1.088c0,0,0.025,-0.355,0.202,-0.355c0.178,0,0.279,0.228,0.279,0.228s-0.026,-0.581,-0.406,-0.91c-0.38,-0.329,-1.164,-1.215,0.481,-1.722c1.646,-0.506,1.721,0.533,1.468,0.76c0,0,0.406,0.226,0.861,0.202c0.456,-0.025,0.127,-0.555,0.026,-0.785c-0.101,-0.228,-0.026,-1.036,0.532,-1.012c0.556,0.026,0.582,0.253,0.784,0.329c0.203,0.075,0.406,0.025,0.406,0.025s0.203,0.051,0.406,-0.025c0.202,-0.075,0.228,-0.303,0.783,-0.329c0.559,-0.025,0.634,0.784,0.533,1.012c-0.103,0.23,-0.43,0.76,0.026,0.785c0.455,0.025,0.86,-0.202,0.86,-0.202c-0.252,-0.228,-0.177,-1.266,1.468,-0.76c1.646,0.507,0.862,1.393,0.482,1.722c-0.38,0.329,-0.406,0.91,-0.406,0.91s0.101,-0.228,0.278,-0.228c0.178,0,0.203,0.355,0.203,0.355c0.43,-0.355,1.442,0.202,1.417,1.088c-0.026,0.885,-0.784,1.316,-0.784,1.316c0.506,0.684,-0.38,0.579,-0.38,0.579c-0.456,0.805,0.151,1.244,0.151,1.244c0,-0.177,0.456,-0.278,0.635,0.253C21.851,18.294,21.316,18.471,21.316,18.471z" fill="#B4B4B5"/>
    <path d="M15.797,12.169v3.341h-3.341v-3.341H15.797z" fill="#CD4C32"/>
    <path d="M12.679,15.256l0.992,-1.025v0.278l-0.837,0.924L12.679,15.256zM15.393,12.256c-0.089,0,-0.495,0.064,-0.507,0.228c-0.012,0.166,0.159,0.267,0.066,0.356c-0.091,0.088,-0.34,0.306,-0.34,0.306l0.148,0.177c0,0,0.212,-0.177,0.38,-0.42c0.084,-0.125,0.02,-0.426,0.1,-0.444c0.241,-0.05,0.33,0.064,0.318,0.153c-0.014,0.088,-0.164,0.177,-0.164,0.177l-0.089,0.139c0,0,0.44,0.115,0.44,-0.278S15.481,12.256,15.393,12.256z" fill="#FFCE57"/>
    <path d="M13.774,14.836c0.06,-0.021,0.141,-0.044,0.238,-0.058c-0.055,0.267,-0.11,0.606,-0.484,0.606c-0.229,0,-0.38,-0.265,-0.406,-0.366c-0.025,-0.103,-0.114,-0.342,-0.303,-0.305c-0.19,0.039,0.075,0.305,0.075,0.305l-0.056,0.189c-0.412,-0.101,-0.374,-0.754,0,-0.754c0.373,0,0.448,0.754,0.676,0.728C13.657,15.165,13.736,14.975,13.774,14.836zM15.449,14.452c-0.373,0,-0.449,0.754,-0.677,0.728c-0.152,-0.017,-0.23,-0.23,-0.266,-0.371c0.107,0.032,0.172,0.068,0.172,0.068l0.487,-1.328l-0.974,-1.241l-1.037,1.228l0.518,1.342c0,0,0.039,-0.019,0.103,-0.041c0.023,-0.083,0.032,-0.149,0.032,-0.149s0.266,-0.189,0.208,0.08c-0.001,0.003,-0.001,0.007,-0.002,0.011c0.056,-0.008,0.115,-0.014,0.178,-0.014c0.028,0,0.055,0.002,0.081,0.004c0.057,0.268,0.108,0.616,0.488,0.616c0.228,0,0.38,-0.265,0.406,-0.366c0.025,-0.103,0.114,-0.342,0.303,-0.305c0.19,0.039,-0.075,0.305,-0.075,0.305l0.056,0.189C15.861,15.105,15.823,14.452,15.449,14.452z" fill="#FFFFFF"/>
    <path d="M13.368,13.555l0.68,-0.818l-0.007,1.76l-0.329,0.101L13.368,13.555zM14.272,12.737l0.007,1.76l0.329,0.101l0.345,-1.043L14.272,12.737z" fill="#FFCE57"/>
    <path d="M15.797,15.813v3.444c0,0,-0.793,-0.153,-1.485,0c-0.858,0.188,-1.856,0,-1.856,-1.368v-2.076H15.797z" fill="#FFCE57"/>
    <path d="M15.393,15.813v3.392c-0.146,-0.012,-0.321,-0.02,-0.507,-0.015v-3.377H15.393zM12.862,19.014c0.143,0.13,0.318,0.212,0.506,0.257v-3.457h-0.506V19.014zM13.873,19.315c0.148,-0.007,0.295,-0.028,0.439,-0.059c0.023,-0.006,0.045,-0.009,0.068,-0.014v-3.43h-0.507V19.315z" fill="#CD4C32"/>
    <rect x="16.203" y="12.169" width="3.341" height="3.341" fill="#FFCE57"/>
    <path d="M16.607,12.169h0.507v3.341h-0.507V12.169zM17.62,15.51h0.507v-3.341h-0.507V15.51zM18.633,12.169v3.341h0.506v-3.341H18.633z" fill="#CD4C32"/>
    <path d="M19.543,15.813v2.076c0,1.368,-0.998,1.556,-1.856,1.368c-0.692,-0.153,-1.485,0,-1.485,0v-3.444H19.543z" fill="#FFCE57"/>
    <path d="M18.886,18.167c-0.139,0.089,0.025,0.43,0,0.595c-0.026,0.164,-0.329,0.404,-0.253,0.267c0.075,-0.14,0,-0.519,0,-0.519s-0.088,0.291,-0.164,0.38s-0.341,0.101,-0.24,0.025c0.1,-0.075,0.202,-0.241,0.113,-0.329c-0.088,-0.088,-0.484,-0.101,-0.502,-0.063c-0.016,0.038,-0.091,0.48,-0.142,0.507c-0.052,0.024,-0.115,-0.038,-0.077,-0.178s0,-0.38,0,-0.38s-0.266,-0.012,-0.253,0.101c0.014,0.114,0.127,0.164,0.103,0.252c-0.027,0.089,-0.19,0.204,-0.203,0.051c-0.014,-0.151,-0.266,-0.253,-0.152,-0.329s0.228,-0.195,0.228,-0.195s-0.142,-0.033,-0.243,-0.171c-0.101,-0.14,-0.187,-0.127,-0.39,-0.127c-0.101,0,0,-0.164,0,-0.164l0.317,-0.253h0.392v0.203c0,0,0.558,-0.008,1.013,-0.055C18.886,17.737,19.026,18.078,18.886,18.167zM16.709,16.534c0.203,0,0.288,-0.011,0.39,0.127c0.101,0.14,0.243,0.172,0.243,0.172s-0.114,0.119,-0.228,0.195c-0.114,0.075,0.139,0.177,0.152,0.329c0.012,0.152,0.176,0.037,0.203,-0.051c0.025,-0.089,-0.089,-0.14,-0.103,-0.253c-0.012,-0.114,0.253,-0.1,0.253,-0.1s0.038,0.239,0,0.38c-0.038,0.139,0.025,0.202,0.077,0.177c0.051,-0.027,0.126,-0.469,0.142,-0.507c0.018,-0.038,0.415,-0.025,0.502,0.063c0.089,0.089,-0.012,0.253,-0.113,0.329c-0.101,0.077,0.163,0.064,0.24,-0.025c0.077,-0.088,0.164,-0.38,0.164,-0.38s0.075,0.38,0,0.519c-0.075,0.139,0.228,-0.101,0.253,-0.267c0.025,-0.163,-0.139,-0.506,0,-0.595c0.14,-0.088,0,-0.43,-0.456,-0.383c-0.455,0.046,-1.013,0.055,-1.013,0.055v-0.204h-0.392l-0.317,0.253C16.709,16.37,16.607,16.534,16.709,16.534z" fill="#CD4C32"/>
    <path d="M14.127,20.533c-0.279,-0.024,-1.658,-0.328,-1.835,-0.417c-0.178,-0.089,-0.089,-0.607,-0.089,-0.607c0,0.037,1.861,0.543,2.069,0.582C14.482,20.129,14.405,20.559,14.127,20.533zM20.075,19.822c-0.05,-0.041,-0.164,-0.338,-0.328,-0.313c-0.166,0.026,-0.799,0.253,-1.279,0.367c-0.482,0.114,-1.28,0.259,-1.28,0.259c-0.185,0.034,0,0.526,0,0.526s1.291,-0.178,1.696,-0.292c0.404,-0.115,1.239,-0.506,1.239,-0.506L20.075,19.822zM15.797,20.231c-0.48,-0.02,-1.037,-0.096,-1.037,-0.096l0.126,0.537c0,0,0.659,0.064,1.063,0.064c0.406,0,1,-0.064,1,-0.064l-0.342,-0.464C16.607,20.209,16.278,20.25,15.797,20.231z" fill="#58595B"/>
  </g>
</svg>
