<?xml version='1.0' encoding='UTF-8'?>
<svg viewBox="-2 -3.865 32 32" xmlns="http://www.w3.org/2000/svg" xmlns:xlink="http://www.w3.org/1999/xlink">
  <g transform="translate(0, 0)">
    <g id="Layer_1" transform="translate(-0.9377, -2.8002)">
      <g transform="matrix(0.9334, 0, 0, 0.9334, 0, 0)">
        <g id="icon">
          <path d="M16.005, 3.7C23.897, 3.7 30.295, 9.202 30.295, 15.99C30.295, 22.778 23.897, 28.28 16.005, 28.28C13.323, 28.28 10.813, 27.644 8.669, 26.539C8.433, 26.53 3.699, 27.814 2.049, 28.289C1.814, 28.357 1.615, 28.109 1.738, 27.9C2.348, 26.865 3.917, 24.373 4.376, 23.134C2.701, 21.121 1.716, 18.655 1.716, 15.99C1.715, 9.202 8.113, 3.7 16.005, 3.7z" fill="#FFFFFF" fill-opacity="1" class="White" fill-rule="evenodd" />
        </g>
      </g>
    </g>
  </g>
  <g transform="translate(0, 0)">
    <g id="Layer_1" transform="translate(-0.9377, -2.8002)">
      <g transform="matrix(0.9334, 0, 0, 0.9334, 0, 0)">
        <g id="icon">
          <path d="M2.154, 29C1.795, 29 1.463, 28.837 1.242, 28.552C0.952, 28.179 0.92, 27.676 1.16, 27.269C1.273, 27.078 1.419, 26.836 1.585, 26.562C2.135, 25.652 3.043, 24.15 3.506, 23.164C1.877, 21.038 1.016, 18.559 1.016, 15.989C1.015, 8.827 7.741, 3 16.008, 3C24.275, 3 31, 8.827 31, 15.99C31, 23.153 24.274, 28.98 16.008, 28.98C13.422, 28.98 10.875, 28.401 8.636, 27.305C7.656, 27.531 4.1, 28.488 2.479, 28.954C2.373, 28.985 2.264, 29 2.154, 29L2.154, 29zM8.998, 25.501L9.174, 25.592C11.23, 26.649 13.593, 27.208 16.008, 27.208C23.295, 27.208 29.224, 22.176 29.224, 15.99C29.224, 9.804 23.295, 4.773 16.008, 4.773C8.721, 4.773 2.792, 9.805 2.792, 15.99C2.792, 18.322 3.629, 20.559 5.212, 22.459L5.541, 22.853L5.362, 23.334C5.047, 24.18 4.3, 25.489 3.497, 26.829C5.8, 26.191 8.405, 25.494 8.784, 25.494L8.998, 25.501z" fill="#1177D7" fill-opacity="1" class="Blue" />
        </g>
      </g>
    </g>
  </g>
</svg>