<?xml version='1.0' encoding='UTF-8'?>
<svg viewBox="0 -0.5339 32 32" xmlns="http://www.w3.org/2000/svg" xmlns:xlink="http://www.w3.org/1999/xlink">
  <g transform="translate(0, 0)">
    <g transform="matrix(1.1429, 0, 0, 1.1429, 0, 0)">
      <g id="Layer_1" transform="translate(-0.9333, -0.9333)">
        <g transform="matrix(0.9333, 0, 0, 0.9333, 0, 0)">
          <g id="icon">
            <path d="M29.2, 29.5L2.8, 29.5C2.107, 29.5 1.5, 28.9 1.5, 28.2L1.5, 7.5L30.5, 7.5L30.5, 28.2C30.5, 28.9 29.893, 29.5 29.2, 29.5z" fill="#FFFFFF" fill-opacity="1" class="White" stroke="#000000" stroke-width="1px" stroke-miterlimit="1" stroke-opacity="1" fill-rule="evenodd" />
          </g>
        </g>
      </g>
    </g>
  </g>
  <g transform="translate(0, 0)">
    <g transform="matrix(1.1429, 0, 0, 1.1429, 0, 0)">
      <g id="Layer_1" transform="translate(-0.9333, -0.9333)">
        <g transform="matrix(0.9333, 0, 0, 0.9333, 0, 0)">
          <g id="icon">
            <path d="M29.66, 3L26, 3L26, 6L22, 6L22, 3L11, 3L11, 6L7, 6L7, 3L2.3, 3C1.5832, 3 1, 3.5832 1, 4.3L1, 8L31, 8L31, 4.3C31, 3.5953 30.3863, 3 29.66, 3z" fill="#D11C1C" fill-opacity="1" class="Red" />
          </g>
        </g>
      </g>
    </g>
  </g>
  <g transform="translate(0, 0)">
    <g transform="matrix(1.1429, 0, 0, 1.1429, 0, 0)">
      <g id="Layer_1" transform="translate(-0.9333, -0.9333)">
        <g transform="matrix(0.9333, 0, 0, 0.9333, 0, 0)">
          <g id="icon">
            <g>
              <rect x="8" y="1" width="2" height="4" rx="0" ry="0" fill="#727272" fill-opacity="1" class="Black" />
            </g>
          </g>
        </g>
      </g>
    </g>
  </g>
  <g transform="translate(0, 0)">
    <g transform="matrix(1.1429, 0, 0, 1.1429, 0, 0)">
      <g id="Layer_1" transform="translate(-0.9333, -0.9333)">
        <g transform="matrix(0.9333, 0, 0, 0.9333, 0, 0)">
          <g id="icon">
            <g>
              <rect x="23" y="1" width="2" height="4" rx="0" ry="0" fill="#727272" fill-opacity="1" class="Black" />
            </g>
          </g>
        </g>
      </g>
    </g>
  </g>
  <g transform="translate(0, 0)">
    <g transform="matrix(1.1429, 0, 0, 1.1429, 0, 0)">
      <g id="Layer_1" transform="translate(-0.9333, -0.9333)">
        <g transform="matrix(0.9333, 0, 0, 0.9333, 0, 0)">
          <g id="icon">
            <g>
              <path d="M15.0176, 23.8L9.3507, 23.8L10.004, 23.1863C12.8961, 20.3997 14.9434, 18.2123 14.9434, 15.4248C14.9434, 13.2497 13.5252, 11.0553 10.3568, 11.0553C8.8537, 11.0553 7.3438, 11.6002 6.2142, 12.5502C6.1207, 12.6288 6.0909, 12.7599 6.1412, 12.8712L6.7482, 14.2153C6.7832, 14.2929 6.8526, 14.3498 6.9356, 14.3689C7.0186, 14.3879 7.1058, 14.3672 7.1713, 14.3126C7.6773, 13.8909 8.7161, 13.1835 9.9883, 13.1835C12.0564, 13.1835 12.4904, 14.5324 12.4904, 15.664C12.4904, 17.7014 10.8375, 19.4977 7.327, 22.839L5.807, 24.2915C5.7541, 24.3428 5.7001, 24.4134 5.7001, 24.4871L5.7001, 25.6577C5.7001, 25.8083 5.8706, 26.0002 6.0212, 26.0002L15.0176, 26.0002C15.1682, 26.0002 15.3, 25.8083 15.3, 25.6577L15.3, 24.075C15.3, 23.9244 15.1682, 23.8 15.0176, 23.8z" fill="#727272" fill-opacity="1" class="Black" />
            </g>
          </g>
        </g>
      </g>
    </g>
  </g>
  <g transform="translate(0, 0)">
    <g transform="matrix(1.1429, 0, 0, 1.1429, 0, 0)">
      <g id="Layer_1" transform="translate(-0.9333, -0.9333)">
        <g transform="matrix(0.9333, 0, 0, 0.9333, 0, 0)">
          <g id="icon">
            <g>
              <path d="M23.4919, 17.9902C24.8465, 17.2805 25.6086, 16.1068 25.6086, 14.6883C25.6086, 12.8801 24.2775, 11.0556 21.3038, 11.0556C19.7309, 11.0556 18.229, 11.6255 17.4383, 12.1903C17.3379, 12.262 17.2981, 12.3923 17.3415, 12.5079L17.8618, 13.8953C17.8916, 13.9747 17.9565, 14.0357 18.0376, 14.0604C18.1187, 14.085 18.2065, 14.0706 18.2756, 14.0214C18.8448, 13.6149 19.8829, 13.14 20.9353, 13.14C22.3326, 13.14 23.1339, 13.8631 23.1339, 15.0399C23.1339, 16.5894 21.4172, 17.1999 20.2632, 17.1999L19.201, 17.1999C19.0504, 17.1999 18.8999, 17.2257 18.8999, 17.3763L18.8999, 18.8071C18.8999, 18.9577 19.0504, 19.0999 19.201, 19.0999L20.2632, 19.0999C21.8785, 19.0999 23.6118, 19.7593 23.6325, 21.6403C23.644, 22.2709 23.4094, 22.8731 22.9889, 23.3012C22.4755, 23.824 21.7116, 24.0865 20.7184, 24.0865C19.1624, 24.0865 17.8783, 23.3417 17.737, 23.257C17.667, 23.2149 17.5817, 23.2059 17.505, 23.2334C17.4281, 23.2608 17.3676, 23.321 17.3401, 23.3979L16.8199, 24.8502C16.7774, 24.9688 16.8217, 25.101 16.927, 25.1701C17.629, 25.6307 19.0488, 26.1686 20.7402, 26.1686C22.388, 26.1686 23.7749, 25.706 24.7511, 24.8308C25.6536, 24.0217 26.1506, 22.8987 26.1506, 21.6657C26.1316, 19.9377 25.1105, 18.5577 23.4919, 17.9902z" fill="#727272" fill-opacity="1" class="Black" />
            </g>
          </g>
        </g>
      </g>
    </g>
  </g>
</svg>