<?xml version="1.0" encoding="UTF-8"?>
<!DOCTYPE svg PUBLIC "-//W3C//DTD SVG 1.1//EN" "http://www.w3.org/Graphics/SVG/1.1/DTD/svg11.dtd">
<svg version="1.1" id="Layer_1" xmlns="http://www.w3.org/2000/svg" xmlns:xlink="http://www.w3.org/1999/xlink" x="0px" y="0px" width="32px" height="32px" viewBox="0 0 32 32" enable-background="new 0 0 32 32" xml:space="preserve">
  <g id="icon">
    <rect x="1" y="3" width="30" height="26" fill="#FFFFFF"/>
    <path d="M31,5H18V3h13V5zM31,7H18v2h13V7zM31,11H18v2h13V11zM31,15H18v2h13V15zM31,19H1v2h30V19zM31,23H1v2h30V23zM31,27H1v2h30V27z" fill="#CD4C32"/>
    <rect x="1" y="3" width="17" height="14" fill="#3E79B4"/>
    <path d="M15.09,14.592l-0.655,-0.477h0.825l0.255,-0.771l0.223,0.771h0.832l-0.677,0.484l0.263,0.766l-0.661,-0.487l-0.654,0.489L15.09,14.592zM11.09,14.592l-0.655,-0.477h0.825l0.255,-0.771l0.223,0.771h0.832l-0.677,0.484l0.263,0.766l-0.661,-0.487l-0.654,0.489L11.09,14.592zM7.09,14.592l-0.655,-0.477h0.825l0.255,-0.771l0.223,0.771h0.832l-0.677,0.484l0.263,0.766l-0.661,-0.487l-0.654,0.489L7.09,14.592zM3.09,14.592l-0.655,-0.477h0.825l0.255,-0.771l0.223,0.771h0.832l-0.677,0.484l0.263,0.766l-0.661,-0.487l-0.654,0.489L3.09,14.592zM13.09,12.292l-0.655,-0.477h0.825l0.255,-0.771l0.223,0.771h0.832l-0.677,0.484l0.263,0.766l-0.661,-0.487l-0.654,0.489L13.09,12.292zM9.09,12.292l-0.655,-0.477h0.825l0.255,-0.771l0.223,0.771h0.832l-0.677,0.484l0.263,0.766l-0.661,-0.487l-0.654,0.489L9.09,12.292zM5.09,12.292l-0.655,-0.477h0.825l0.255,-0.771l0.223,0.771h0.832l-0.677,0.484l0.263,0.766l-0.661,-0.487l-0.654,0.489L5.09,12.292zM15.09,10.092l-0.655,-0.477h0.825l0.255,-0.771l0.223,0.771h0.832l-0.677,0.484l0.263,0.766l-0.661,-0.487l-0.654,0.489L15.09,10.092zM11.09,10.092l-0.655,-0.477h0.825l0.255,-0.771l0.223,0.771h0.832l-0.677,0.484l0.263,0.766l-0.661,-0.487l-0.654,0.489L11.09,10.092zM7.09,10.092l-0.655,-0.477h0.825l0.255,-0.771l0.223,0.771h0.832l-0.677,0.484l0.263,0.766l-0.661,-0.487l-0.654,0.489L7.09,10.092zM3.09,10.092l-0.655,-0.477h0.825l0.255,-0.771l0.223,0.771h0.832l-0.677,0.484l0.263,0.766l-0.661,-0.487l-0.654,0.489L3.09,10.092zM13.09,7.892l-0.655,-0.477h0.825l0.255,-0.771l0.223,0.771h0.832l-0.677,0.484l0.263,0.766l-0.661,-0.487l-0.654,0.489L13.09,7.892zM9.09,7.892l-0.655,-0.477h0.825l0.255,-0.771l0.223,0.771h0.832l-0.677,0.484l0.263,0.766l-0.661,-0.487l-0.654,0.489L9.09,7.892zM5.09,7.892l-0.655,-0.477h0.825l0.255,-0.771l0.223,0.771h0.832l-0.677,0.484l0.263,0.766l-0.661,-0.487l-0.654,0.489L5.09,7.892zM15.09,5.692l-0.655,-0.477h0.825l0.255,-0.771l0.223,0.771h0.832l-0.677,0.484l0.263,0.766l-0.661,-0.487l-0.654,0.489L15.09,5.692zM11.09,5.692l-0.655,-0.477h0.825l0.255,-0.771l0.223,0.771h0.832l-0.677,0.484l0.263,0.766l-0.661,-0.487l-0.654,0.489L11.09,5.692zM7.09,5.692l-0.655,-0.477h0.825l0.255,-0.771l0.223,0.771h0.832l-0.677,0.484l0.263,0.766l-0.661,-0.487l-0.654,0.489L7.09,5.692zM3.09,5.692l-0.655,-0.477h0.825l0.255,-0.771l0.223,0.771h0.832l-0.677,0.484l0.263,0.766l-0.661,-0.487l-0.654,0.489L3.09,5.692z" fill-rule="evenodd" fill="#FFFFFF"/>
  </g>
</svg>
