<?xml version="1.0" encoding="UTF-8"?>
<!DOCTYPE svg PUBLIC "-//W3C//DTD SVG 1.1//EN" "http://www.w3.org/Graphics/SVG/1.1/DTD/svg11.dtd">
<svg version="1.1" id="Layer_1" xmlns="http://www.w3.org/2000/svg" xmlns:xlink="http://www.w3.org/1999/xlink" x="0px" y="0px" width="32px" height="32px" viewBox="0 0 32 32" enable-background="new 0 0 32 32" xml:space="preserve">
  <g id="icon">
    <rect x="1" y="4" width="30" height="6" fill="#CD4C32"/>
    <rect x="1" y="10" width="30" height="12" fill="#EAB765"/>
    <rect x="1" y="22" width="30" height="6" fill="#CD4C32"/>
    <rect x="4.645" y="14.823" width="1.18" height="0.664" fill="#797979"/>
    <rect x="4.645" y="19.692" width="1.217" height="0.627" fill="#797979"/>
    <rect x="4.83" y="15.487" width="0.848" height="4.205" fill="#FFFFFF"/>
    <rect x="12.575" y="14.823" width="1.18" height="0.664" fill="#797979"/>
    <rect x="12.538" y="19.692" width="1.217" height="0.627" fill="#797979"/>
    <rect x="12.723" y="15.487" width="0.848" height="4.205" fill="#FFFFFF"/>
    <path d="M6.563,16.52v0.516c-0.184,-0.074,-0.516,-0.148,-0.885,-0.148c-0.111,0,-0.258,0,-0.406,0.037c-0.516,0.074,-0.922,0.295,-0.885,0.443l-0.184,-0.406c-0.037,-0.184,0.406,-0.406,0.959,-0.516c0.184,-0.037,0.369,-0.037,0.516,-0.037C6.047,16.409,6.379,16.446,6.563,16.52zM4.424,17.405c0,0.111,0.184,0.184,0.406,0.184l0.037,-0.443c-0.074,0,-0.148,0,-0.221,0C4.498,17.221,4.424,17.331,4.424,17.405zM5.678,17.257v0.406c0.221,-0.111,0.369,-0.258,0.332,-0.295C5.936,17.331,5.825,17.294,5.678,17.257zM6.016,17.407l-0.006,-0.039C6.02,17.378,6.021,17.391,6.016,17.407zM6.084,17.811l-0.067,-0.404c-0.032,0.102,-0.36,0.318,-0.744,0.478c-0.184,0.074,-0.295,0.148,-0.443,0.184c-0.332,0.111,-0.59,0.258,-0.553,0.332l0.074,0.406c0,-0.017,0.046,-0.056,0.119,-0.1c-0.073,0.057,-0.119,0.108,-0.119,0.137c0,0.037,0.037,0.074,0.111,0.111c0.074,0.037,0.148,0.111,0.111,0.184c0.074,-0.074,0.111,-0.148,0.111,-0.221c0,-0.106,-0.068,-0.212,-0.139,-0.253c0.081,-0.043,0.18,-0.086,0.287,-0.116c0.148,-0.037,0.406,-0.148,0.553,-0.221C5.825,18.106,6.121,17.884,6.084,17.811zM14.198,16.925l-0.184,0.443c0.037,-0.148,-0.369,-0.369,-0.885,-0.443c-0.148,-0.037,-0.295,-0.037,-0.406,-0.037c-0.369,0,-0.701,0.074,-0.885,0.148v-0.516c0.184,-0.074,0.516,-0.111,0.885,-0.111c0.148,0,0.332,0,0.516,0C13.792,16.52,14.235,16.741,14.198,16.925zM13.977,17.405c0,-0.074,-0.074,-0.184,-0.221,-0.258c-0.074,0,-0.148,0,-0.221,0l0.037,0.443C13.792,17.589,13.977,17.516,13.977,17.405zM12.723,17.663v-0.406c-0.148,0.037,-0.258,0.074,-0.332,0.111c-0.01,0.01,-0.011,0.023,-0.006,0.039l0.003,-0.016C12.399,17.447,12.533,17.568,12.723,17.663zM13.571,18.069c-0.148,-0.037,-0.258,-0.111,-0.443,-0.184c-0.384,-0.16,-0.712,-0.375,-0.744,-0.478l-0.067,0.404c-0.037,0.074,0.258,0.295,0.701,0.516c0.148,0.074,0.406,0.184,0.553,0.221c0.102,0.029,0.198,0.076,0.275,0.123c-0.066,0.046,-0.127,0.148,-0.127,0.282c0,0.074,0.037,0.148,0.111,0.221c-0.037,-0.037,0.037,-0.148,0.111,-0.221c0.074,-0.037,0.111,-0.074,0.111,-0.111c0,-0.013,-0.009,-0.03,-0.025,-0.049l0.098,-0.394C14.161,18.327,13.903,18.179,13.571,18.069zM9.182,12.463c-0.738,0,-2.139,0.148,-2.656,0.664c0.553,1.328,1.475,0.775,2.656,0.775c1.217,0,2.102,0.553,2.656,-0.775C11.321,12.61,9.883,12.463,9.182,12.463z" fill="#CD4C32"/>
    <path d="M10.989,13.938c-0.443,-0.258,-1.107,-0.295,-1.807,-0.295c-0.701,0,-1.365,0.074,-1.807,0.295l0.148,0.627c0.406,0.111,0.996,0.184,1.66,0.221c0.664,0,1.217,-0.074,1.66,-0.221L10.989,13.938" fill="#797979"/>
    <path d="M11.792,13.298l-0.139,-0.209c0.221,-0.148,0.184,-0.811,-0.701,-0.811c-0.074,0,-0.184,0.037,-0.258,0.037c0.184,0.369,-0.221,0.701,-0.221,0.701l-0.111,-0.184c0.332,-0.184,0.332,-0.811,-0.443,-0.811c-0.184,0,-0.369,0.074,-0.479,0.148c0,0.037,0.037,0.516,0.074,0.627l-0.295,0.258l-0.295,-0.258c0.037,-0.074,0.074,-0.59,0.074,-0.627c-0.148,-0.111,-0.295,-0.148,-0.479,-0.148c-0.738,0,-0.701,0.627,-0.443,0.811l-0.111,0.184c0,0,-0.479,-0.332,-0.221,-0.701c-0.074,-0.037,-0.148,-0.037,-0.258,-0.037c-0.738,0,-1.106,0.295,-0.701,0.811L6.6,13.311c0,0,-0.848,-1.143,0.848,-1.143c0.111,0,0.221,0,0.332,0.037c0,0.037,0.221,-0.295,0.738,-0.295c0.184,0,0.332,0.037,0.479,0.111v-0.037c0,-0.044,0.039,-0.1,0.087,-0.139c-0.047,-0.027,-0.086,-0.07,-0.107,-0.119H8.96v-0.074v-0.037h0.004c0.015,-0.072,0.074,-0.139,0.143,-0.168v-0.016v-0.184h-0.111v-0.111h0.111v-0.111h0.148v0.111h0.111v0.111h-0.111v0.184v0.016c0.069,0.029,0.128,0.096,0.143,0.168h0.004l0.037,0.037l-0.037,0.074h-0.016c-0.02,0.048,-0.058,0.09,-0.103,0.117c0.034,0.028,0.063,0.066,0.083,0.105v0.037c0.148,-0.074,0.295,-0.111,0.479,-0.111c0.516,0,0.738,0.295,0.738,0.295c0.111,-0.037,0.221,-0.037,0.332,-0.037c0.258,0,0.553,0.111,0.701,0.221C12.088,12.756,11.791,13.221,11.792,13.298zM11.8,13.311l-0.008,-0.012C11.792,13.306,11.794,13.311,11.8,13.311z" fill="#797979"/>
    <path d="M9.219,21.056c-0.701,0,-1.365,-0.184,-1.955,-0.443c-0.443,-0.221,-0.701,-0.627,-0.701,-1.107v-1.77h5.311v1.77c0,0.479,-0.295,0.922,-0.701,1.107C10.583,20.909,9.919,21.056,9.219,21.056M9.182,17.737h2.656v-2.951H9.182V17.737z" fill="#FFFFFF"/>
    <path d="M9.219,19.507c0,0.701,-0.59,1.254,-1.328,1.254c-0.738,0,-1.328,-0.553,-1.328,-1.254v-1.77h2.656V19.507M6.526,17.737h2.656v-2.951H6.526V17.737zM11.874,17.737H9.219v1.77c0,0.701,0.59,1.254,1.328,1.254c0.738,0,1.328,-0.553,1.328,-1.254V17.737" fill="#CD4C32"/>
    <path d="M10.915,15.303c0.111,0.221,0.111,0.775,-0.221,0.664c0.074,0.037,0.111,0.295,0.221,0.443c0.184,0.221,0.406,0.037,0.369,-0.221c-0.074,-0.406,-0.037,-0.664,0.037,-1.07c0,0.037,0.184,0.037,0.258,-0.037c-0.037,0.111,-0.074,0.258,0,0.258c-0.074,0.111,-0.258,0.295,-0.295,0.406c-0.037,0.258,0.369,0.738,-0.074,0.848c-0.295,0.074,-0.111,0.295,0,0.406c0,0,-0.148,0.479,-0.074,0.443c-0.295,0.111,-0.221,-0.148,-0.221,-0.148c0.148,-0.443,-0.258,-0.479,-0.221,-0.553c-0.369,-0.037,0.037,0.332,-0.295,0.332c-0.074,0,-0.221,0.074,-0.221,0.074c-0.406,-0.037,-0.184,-0.406,-0.037,-0.369c0.111,0.037,0.221,0.221,0.221,-0.037c0,0,-0.184,-0.295,0.295,-0.295c-0.184,0,-0.295,-0.148,-0.369,-0.332c-0.074,0.037,-0.184,0.221,-0.59,0.258c0,0,-0.111,-0.406,0,-0.332c0.148,0.074,0.221,0.074,0.369,-0.074c-0.074,-0.111,-0.516,-0.258,-0.443,-0.516c0,-0.074,0.221,-0.184,0.221,-0.184c-0.037,0.184,0.074,0.369,0.295,0.369c0.295,0.037,0.184,-0.074,0.221,-0.148c0.037,-0.074,0.258,0.037,0.184,-0.148c0,-0.037,-0.258,-0.074,-0.184,-0.184C10.51,14.971,10.731,15.118,10.915,15.303" fill="#CD4C32"/>
    <path d="M7.116,20.54l0.037,-2.877h0.295v3.024C7.301,20.651,7.19,20.577,7.116,20.54M6.526,19.47c0,0.369,0.148,0.664,0.295,0.811v-2.619h-0.295V19.47M7.706,20.761c0.111,0,0.221,0,0.295,0v-3.098h-0.295V20.761M8.297,20.688c0.111,-0.037,0.258,-0.111,0.332,-0.148v-2.877h-0.295L8.297,20.688M8.924,20.282c0.148,-0.111,0.258,-0.369,0.295,-0.664V17.7h-0.295V20.282M7.338,15.413v0.184h0.074v0.148h-0.184v0.369h0.111v0.811h-0.221v0.406h1.512v-0.406h-0.184v-0.811h0.074v-0.369h-0.184v-0.148h0.111v-0.184h-0.369v0.184h0.074v0.148h-0.184v-0.443h0.111v-0.184H7.67v0.184h0.111v0.443h-0.184v-0.148h0.074v-0.184H7.338zM11.505,19.95v-1.844H9.587v1.844l0.885,0.406h0.111L11.505,19.95M10.473,18.253v0.627l-0.627,-0.627H10.473M9.698,18.29l0.738,0.738l-0.738,0.738V18.29M9.772,19.913l0.701,-0.701v1.033L9.772,19.913M10.583,20.208v-1.033l0.701,0.701L10.583,20.208M11.358,19.765l-0.738,-0.738l0.738,-0.738V19.765M10.583,18.253h0.627l-0.627,0.627V18.253" fill="#EAB765"/>
    <path d="M8.333,17.7c0,-0.553,0.369,-0.959,0.848,-0.959c0.479,0,0.848,0.443,0.848,0.959s-0.369,0.959,-0.848,0.959C8.702,18.659,8.333,18.253,8.333,17.7" fill="#CD4C32"/>
    <path d="M8.592,17.7c0,-0.406,0.258,-0.701,0.59,-0.701c0.332,0,0.59,0.332,0.59,0.701c0,0.406,-0.258,0.701,-0.59,0.701C8.85,18.401,8.592,18.106,8.592,17.7" fill="#3E79B4"/>
    <path d="M8.924,17.221l0.148,0.406l-0.111,0.037l0.074,0.148h-0.221l0.074,-0.148l-0.111,-0.037L8.924,17.221M9.477,17.221l-0.148,0.406l0.111,0.037l-0.074,0.148h0.221l-0.037,-0.148l0.111,-0.037L9.477,17.221M9.219,17.7l-0.184,0.406l0.111,0.037l-0.037,0.148h0.184l-0.037,-0.148l0.111,-0.037L9.219,17.7" fill="#EAB765"/>
  </g>
</svg>
