<?xml version='1.0' encoding='UTF-8'?>
<svg viewBox="-2 -2 32 32" xmlns="http://www.w3.org/2000/svg" xmlns:xlink="http://www.w3.org/1999/xlink">
  <g id="Layer_1" transform="translate(0.0001, 0.0001)">
    <g transform="matrix(1.75, 0, 0, 1.75, 0, 0)">
      <g id="icon">
        <path d="M9, 16L13.683, 16C14.41, 16 15, 15.411 15, 14.683L15, 14L9, 14L9, 16z" fill="Transparent" class="Transparent" />
      </g>
    </g>
  </g>
  <g id="Layer_1" transform="translate(0.0001, 0.0001)">
    <g transform="matrix(1.75, 0, 0, 1.75, 0, 0)">
      <g id="icon">
        <path d="M9, 15L11, 15L11, 16L9, 16L9, 15zM14, 15L15, 15L15, 14L14, 14L14, 15z" fill="Transparent" opacity="0.5" class="Transparent" />
      </g>
    </g>
  </g>
  <g id="Layer_1" transform="translate(0.0001, 0.0001)">
    <g transform="matrix(1.75, 0, 0, 1.75, 0, 0)">
      <g id="icon">
        <path d="M3, 15.275C3, 15.675 3.325, 16 3.725, 16L9.275, 16C9.675, 16 10, 15.675 10, 15.275L10, 13.5L3, 13.5L3, 15.275z" fill="Transparent" class="Transparent" />
      </g>
    </g>
  </g>
  <g id="Layer_1" transform="translate(0.0001, 0.0001)">
    <g transform="matrix(1.75, 0, 0, 1.75, 0, 0)">
      <g id="icon">
        <path d="M14.496, 8.185C14.242, 8.438 13.911, 8.575 13.56, 8.575C13.206, 8.575 12.871, 8.436 12.618, 8.184L10.615, 6.187C10.361, 5.934 10.216, 5.584 10.216, 5.225L10.216, 4.5L10, 4.5L10, 8.083C10, 9.14 9.14, 10 8.083, 10L3.5, 10L3.5, 13.5L15.5, 13.5L15.5, 7.172L14.496, 8.185z" fill="Transparent" class="Transparent" />
      </g>
    </g>
  </g>
  <g id="Layer_1" transform="translate(0.0001, 0.0001)">
    <g transform="matrix(1.75, 0, 0, 1.75, 0, 0)">
      <g id="icon">
        <path d="M15, 7.677L15, 13L4, 13L4, 10L3, 10L3, 13.5C3, 13.776 3.224, 14 3.5, 14L15.5, 14C15.776, 14 16, 13.776 16, 13.5L16, 6.668L15, 7.677z" fill="Transparent" class="Transparent" />
      </g>
    </g>
  </g>
  <g id="Layer_1" transform="translate(0.0001, 0.0001)">
    <g transform="matrix(1.75, 0, 0, 1.75, 0, 0)">
      <g id="icon">
        <path d="M4, 10L5, 10L5, 11L4, 11L4, 10zM11, 13L12, 13L12, 12L11, 12L11, 13zM7, 13L8, 13L8, 12L7, 12L7, 13zM14.68, 8L15, 8L15, 7.677L14.68, 8zM14, 11L15, 11L15, 10L14, 10L14, 11z" fill="Transparent" opacity="0.5" class="Transparent" />
      </g>
    </g>
  </g>
  <g id="Layer_1" transform="translate(0.0001, 0.0001)">
    <g transform="matrix(1.75, 0, 0, 1.75, 0, 0)">
      <g id="icon">
        <polygon points="11,15 11,16 15,16 15,15 14,15" fill="Transparent" class="Transparent" />
      </g>
    </g>
  </g>
  <g id="Layer_1" transform="translate(0.0001, 0.0001)">
    <g transform="matrix(1.75, 0, 0, 1.75, 0, 0)">
      <g id="icon">
        <polygon points="12,8 12.434,8 11,6.57 11,7 10,7 10,8 11,8 11,10 8.083,10 8,10 7,10 5,10 5,11 7,11 7,12 8,12 8,11 11,11 11,12 12,12 12,11 14,11 14,10 12,10" fill="Transparent" class="Transparent" />
      </g>
    </g>
  </g>
  <g id="Layer_1" transform="translate(0.0001, 0.0001)">
    <g transform="matrix(1.75, 0, 0, 1.75, 0, 0)">
      <g id="icon">
        <path d="M15.875, 5.226C15.875, 5.32 15.838, 5.411 15.771, 5.478L13.786, 7.481C13.658, 7.609 13.455, 7.606 13.324, 7.475L11.321, 5.478C11.254, 5.411 11.216, 5.32 11.216, 5.225L11.216, 4.116C11.216, 3.995 11.362, 3.935 11.447, 4.02L12.953, 5.522L12.953, 3.613C12.953, 2.853 12.354, 2.257 11.588, 2.257L10.318, 2.257C10.098, 2.257 10.03, 2.187 10.03, 1.966L10.03, 1.374C10.03, 1.167 10.083, 1.071 10.318, 1.071L11.588, 1.071C12.97, 1.071 14.092, 2.149 14.144, 3.526L14.144, 3.53L14.144, 3.543C14.144, 3.561 14.142, 3.579 14.137, 3.596L14.137, 5.52L15.636, 4.027C15.724, 3.939 15.874, 4.002 15.874, 4.126L15.874, 5.226z" fill="#1177D7" class="Blue" />
      </g>
    </g>
  </g>
  <g id="Layer_1" transform="translate(0.0001, 0.0001)">
    <g transform="matrix(1.75, 0, 0, 1.75, 0, 0)">
      <g id="icon">
        <path d="M8.083, 0L0.917, 0C0.41, 0 0, 0.41 0, 0.917L0, 8.084C0, 8.59 0.41, 9 0.917, 9L8.084, 9C8.59, 9 9, 8.59 9, 8.083L9, 0.917C9, 0.41 8.59, 0 8.083, 0zM7.941, 7.385C8.042, 7.51 7.957, 7.7 7.799, 7.7L6.06, 7.7C6.005, 7.7 5.953, 7.675 5.918, 7.631L4.605, 6.011L3.375, 7.627C3.34, 7.673 3.286, 7.7 3.23, 7.7L1.479, 7.7C1.324, 7.7 1.238, 7.515 1.334, 7.389L3.461, 4.598L1.044, 1.615C0.943, 1.491 1.028, 1.3 1.186, 1.3L2.925, 1.3C2.98, 1.3 3.032, 1.325 3.067, 1.369L4.539, 3.185L5.92, 1.373C5.955, 1.327 6.009, 1.3 6.065, 1.3L7.816, 1.3C7.971, 1.3 8.057, 1.485 7.961, 1.611L5.683, 4.598L7.941, 7.385z" fill="Transparent" class="Transparent" />
      </g>
    </g>
  </g>
  <g id="Layer_1" transform="translate(0.0001, 0.0001)">
    <g transform="matrix(1.75, 0, 0, 1.75, 0, 0)">
      <g id="icon">
        <path d="M5.683, 4.598L7.96, 1.611C8.056, 1.485 7.969, 1.3 7.815, 1.3L6.064, 1.3C6.007, 1.3 5.954, 1.327 5.919, 1.373L4.538, 3.185L3.066, 1.369C3.031, 1.325 2.979, 1.3 2.924, 1.3L1.186, 1.3C1.029, 1.3 0.943, 1.491 1.044, 1.615L3.461, 4.598L1.334, 7.389C1.238, 7.515 1.324, 7.7 1.479, 7.7L3.23, 7.7C3.287, 7.7 3.34, 7.673 3.375, 7.627L4.606, 6.012L5.919, 7.632C5.954, 7.675 6.006, 7.7 6.06, 7.7L7.799, 7.7C7.956, 7.7 8.042, 7.509 7.941, 7.385L5.683, 4.598z" fill="Transparent" class="Transparent" />
      </g>
    </g>
  </g>
  <g id="Layer_1" transform="translate(0, -2)">
    <g id="icon">
      <path d="M0.914, 2.5L15.086, 2.5C15.315, 2.5 15.5, 2.697 15.5, 2.94L15.5, 13.06C15.5, 13.303 15.315, 13.5 15.086, 13.5L0.914, 13.5C0.685, 13.5 0.5, 13.303 0.5, 13.06L0.5, 2.94C0.5, 2.697 0.685, 2.5 0.914, 2.5z" fill="#FFFFFF" stroke="#000000" stroke-width="1px" stroke-linecap="round" stroke-miterlimit="1" fill-rule="evenodd" />
    </g>
  </g>
  <g id="Layer_1" transform="translate(0, -2)">
    <g id="icon">
      <rect x="12" y="4" width="2" height="3" rx="0" ry="0" fill="#1177D7" class="Blue" fill-rule="evenodd" />
    </g>
  </g>
  <g id="Layer_1" transform="translate(0, -2)">
    <g id="icon">
      <line x1="3.486" y1="8.5" x2="10.545" y2="8.5" fill="#FFFFFF" stroke="#000000" stroke-width="1px" stroke-linecap="round" stroke-miterlimit="1" fill-rule="evenodd" />
    </g>
  </g>
  <g id="Layer_1" transform="translate(0, -2)">
    <g id="icon">
      <line x1="3.486" y1="10.5" x2="10.545" y2="10.5" fill="#FFFFFF" stroke="#000000" stroke-width="1px" stroke-linecap="round" stroke-miterlimit="1" fill-rule="evenodd" />
    </g>
  </g>
  <g id="Layer_1" transform="translate(14, 14)">
    <g id="icon">
      <path d="M15.919, 13.07C15.518, 11.049 14.805, 11.015 10.907, 9.64C10.338, 9.426 10.177, 9.119 10.22, 8.68C11.32, 7.367 11.982, 5.242 11.982, 3.757C11.982, 1.457 11.196, 0 7.979, 0C7.966, 0 7.983, 0 7.979, 0C4.76, 0 4.04, 1.457 4.04, 3.757C4.04, 5.242 4.7, 7.363 5.8, 8.676C5.843, 9.115 5.681, 9.424 5.111, 9.638C1.212, 11.013 0.499, 11.048 0.098, 13.069C-0.023, 13.881 -0.043, 14.222 0.278, 15.122C0.639, 16.135 5.744, 16.003 7.978, 16.003C7.987, 16.003 7.963, 16.003 7.978, 16.003C10.212, 16.003 15.377, 16.136 15.738, 15.123C16.059, 14.222 16.04, 13.882 15.919, 13.07z" fill="#039C23" fill-opacity="1" class="Green" fill-rule="evenodd" />
    </g>
  </g>
</svg>