<?xml version='1.0' encoding='UTF-8'?>
<svg viewBox="-2.0475 -1.9975 32 32" xmlns="http://www.w3.org/2000/svg" xmlns:xlink="http://www.w3.org/1999/xlink">
  <g id="Layer_1" transform="translate(-0.9312, -0.837)">
    <g transform="matrix(0.9302, 0, 0, 0.9302, 0, 0)">
      <g id="icon">
        <path d="M25, 25.3712L25, 1.3022C24.995, 1.1315 24.872, 1 24.7063, 1L22.3063, 1C22.1379, 1 22, 1.1378 22, 1.3063L22, 25.359L16.2049, 19.5354C16.1293, 19.4597 16, 19.5132 16, 19.6202L16, 23.3717C16, 23.4992 16.0507, 23.6214 16.1409, 23.7115L23.3013, 30.8817C23.4812, 31.0409 23.5422, 31.0409 23.7179, 30.8723L30.859, 23.7049C30.9493, 23.6148 31, 23.4926 31, 23.3651L31, 19.6203C31, 19.5134 30.8707, 19.4599 30.7951, 19.5354L25, 25.3712z" fill="#1177D7" class="Blue" />
      </g>
    </g>
  </g>
  <g id="Layer_1" transform="translate(-0.9312, -0.837)">
    <g transform="matrix(0.9302, 0, 0, 0.9302, 0, 0)">
      <g id="icon">
        <path d="M7, 6.5288L7, 30.6978C7.005, 30.8685 7.128, 31 7.2937, 31L9.6937, 31C9.8621, 31 10, 30.8622 10, 30.6937L10, 6.541L15.7951, 12.3646C15.8707, 12.4403 16, 12.3868 16, 12.2798L16, 8.5282C16, 8.4007 15.9493, 8.2785 15.8591, 8.1884L8.6987, 1.0183C8.5188, 0.859 8.4578, 0.859 8.2821, 1.0277L1.141, 8.1951C1.0507, 8.2852 1, 8.4074 1, 8.5349L1, 12.2797C1, 12.3866 1.1293, 12.4401 1.2049, 12.3646L7, 6.5288z" fill="#039C23" class="Green" />
      </g>
    </g>
  </g>
</svg>