<?xml version='1.0' encoding='UTF-8'?>
<svg viewBox="-2 -2.15 32 32" xmlns="http://www.w3.org/2000/svg" xmlns:xlink="http://www.w3.org/1999/xlink">
  <g id="Layer_1" transform="translate(-1.0336, -1.4315)">
    <g transform="matrix(0.9397, 0, 0, 0.9397, 0, 0)">
      <g id="icon">
        <path d="M5.6534, 6.8362C4.9678, 6.5912 4.4566, 6.3674 4.134, 6.1707C3.8463, 5.9955 3.644, 5.8087 3.5324, 5.6153C3.4225, 5.4251 3.3668, 5.1644 3.3668, 4.8406C3.3668, 4.4253 3.5059, 4.1258 3.8047, 3.8978C4.1281, 3.6509 4.6023, 3.5257 5.2139, 3.5257C6.0484, 3.5257 6.9233, 3.7153 7.8143, 4.0894C7.9152, 4.1316 8.0291, 4.1307 8.1296, 4.0867C8.2298, 4.0425 8.3076, 3.9591 8.3444, 3.856L8.7592, 2.6977C8.83, 2.5001 8.7356, 2.2815 8.5434, 2.1975C7.5422, 1.76 6.4325, 1.538 5.2452, 1.538C4.0682, 1.538 3.1004, 1.8301 2.3687, 2.4062C1.6082, 3.0051 1.2226, 3.8189 1.2226, 4.8251C1.2226, 5.7609 1.4862, 6.5366 2.0061, 7.1305C2.5129, 7.7097 3.3134, 8.1895 4.4539, 8.5977C5.1897, 8.8598 5.7407, 9.0947 6.0914, 9.2956C6.4055, 9.4759 6.6273, 9.6667 6.7505, 9.8623C6.8682, 10.0499 6.928, 10.3063 6.928, 10.6244C6.928, 11.0957 6.76, 11.4508 6.4146, 11.7099C6.0384, 11.992 5.4449, 12.135 4.6504, 12.135C4.1374, 12.135 3.6117, 12.0798 3.0879, 11.9711C2.5629, 11.8622 2.0717, 11.712 1.6281, 11.5247C1.5051, 11.4726 1.377, 11.4857 1.2654, 11.5598C1.154, 11.6337 1.1, 11.7585 1.1, 11.8923L1.1, 13.1758C1.1, 13.3295 1.1751, 13.4694 1.3136, 13.5357C2.1057, 13.9149 3.1795, 14.0992 4.6099, 14.0992C5.9465, 14.0992 7.0258, 13.7869 7.8244, 13.1708C8.6545, 12.5304 9.0738, 11.6315 9.0738, 10.4991C9.0738, 9.617 8.8097, 8.8836 8.2905, 8.3192C7.7898, 7.7754 6.9266, 7.2902 5.6534, 6.8362zM18.2667, 13.5958L20.5752, 16.0036C20.686, 16.1189 20.7173, 16.2931 20.6546, 16.4404C20.592, 16.5876 20.4474, 16.6999 20.2875, 16.6999L18.3544, 16.6999C18.2384, 16.6999 18.1283, 16.6326 18.0524, 16.5448L15.9469, 14.0855L15.7078, 14.0965C15.703, 14.0966 15.6982, 14.0979 15.6934, 14.0979C13.897, 14.0979 12.484, 13.5333 11.4936, 12.4187C10.5154, 11.3181 10.0194, 9.7612 10.0194, 7.7908C10.0194, 5.8355 10.5171, 4.2886 11.4987, 3.1928C12.4915, 2.0842 13.9081, 1.5222 15.709, 1.5222C17.4641, 1.5222 18.8602, 2.0942 19.8584, 3.2222C20.8442, 4.3362 21.3439, 5.8786 21.3439, 7.8067C21.3439, 9.34 21.0268, 10.6395 20.4016, 11.6689C19.8736, 12.5378 19.1573, 13.1882 18.2667, 13.5958zM12.2262, 7.8068C12.2262, 9.2542 12.5287, 10.3551 13.1251, 11.0788C13.7107, 11.7895 14.5508, 12.135 15.6934, 12.135C16.845, 12.135 17.6831, 11.7917 18.2558, 11.0853C18.8406, 10.3635 19.1371, 9.2604 19.1371, 7.8068C19.1371, 6.3687 18.8418, 5.2749 18.2594, 4.5557C17.6894, 3.8521 16.8551, 3.51 15.709, 3.51C14.556, 3.51 13.7108, 3.8555 13.1251, 4.5662C12.5287, 5.29 12.2262, 6.3802 12.2262, 7.8068zM29.4578, 11.9L25.1, 11.9L25.1, 2.1014C25.1, 1.881 24.8386, 1.7 24.6182, 1.7L23.392, 1.7C23.1716, 1.7 23, 1.8811 23, 2.1014L23, 13.6478C23, 13.8682 23.1716, 14 23.392, 14L29.4578, 14C29.6782, 14 29.9, 13.8683 29.9, 13.6478L29.9, 12.3383C29.9, 12.1179 29.6782, 11.9 29.4578, 11.9z" fill="#727272" class="Black" />
      </g>
    </g>
  </g>
  <g id="Layer_1" transform="translate(-1.0336, -1.4315)">
    <g transform="matrix(0.9397, 0, 0, 0.9397, 0, 0)">
      <g id="icon">
        <path d="M30.7281, 18.0224L28.8668, 16.1611C28.6488, 15.9431 28.2976, 15.9405 28.079, 16.1579L18.1506, 26.023L12.9791, 20.7933C12.8744, 20.6873 12.7607, 20.6558 12.6117, 20.6554C12.4623, 20.6549 12.3486, 20.7423 12.2433, 20.8476L10.4672, 22.6237C10.2497, 22.8412 10.2201, 23.165 10.4363, 23.3838L15.3807, 28.3584C15.4054, 28.4024 15.4363, 28.4147 15.4726, 28.451L17.8457, 30.8241C17.9549, 30.9333 18.0838, 31.0022 18.2269, 31.0022C18.3695, 31.0022 18.5049, 30.9552 18.614, 30.8467L30.7343, 18.807C30.8397, 18.7022 30.8954, 18.5636 30.8956, 18.4149C30.896, 18.2663 30.8332, 18.1275 30.7281, 18.0224z" fill="#039C23" class="Green" />
      </g>
    </g>
  </g>
</svg>