<?xml version='1.0' encoding='UTF-8'?>
<svg viewBox="-2.4 -2 32 32" xmlns="http://www.w3.org/2000/svg" xmlns:xlink="http://www.w3.org/1999/xlink">
  <g id="Layer_1" transform="translate(-1.2758, -0.9599)">
    <g transform="matrix(0.9342, 0, 0, 0.9342, 0, 0)">
      <g id="icon">
        <path d="M30.4697, 26.8544C29.5237, 19.2942 30.2015, 21.4969 22.0692, 18.4777C21.8267, 18.3551 21.6352, 18.2585 21.4789, 18.1885C20.9291, 17.9012 20.0035, 17.8321 20.36, 16.9294C22.1205, 14.4197 23.1829, 10.7762 23.1829, 8.161C23.1829, 3.7841 21.7497, 1.0273 15.9947, 1.0273C10.1753, 1.0273 8.8551, 3.7841 8.8551, 8.161C8.8551, 10.7384 9.8481, 14.3145 11.5311, 16.8198C11.7992, 17.6743 11.0761, 17.8592 10.5215, 18.1214C10.4752, 18.1419 10.1587, 18.2867 9.697, 18.5201C1.5647, 21.5393 2.3276, 19.2943 1.3816, 26.8545C0.7989, 30.9773 16.0391, 31 16.0391, 31C16.0391, 31 31.0524, 30.9773 30.4697, 26.8544z" fill="#727272" class="Black" fill-rule="evenodd" />
      </g>
    </g>
  </g>
</svg>