<?xml version='1.0' encoding='UTF-8'?>
<svg viewBox="-3.3125 -2 32 32" xmlns="http://www.w3.org/2000/svg" xmlns:xlink="http://www.w3.org/1999/xlink">
  <g id="Layer_1" transform="translate(-2.625, 0)">
    <g transform="matrix(0.875, 0, 0, 0.875, 0, 0)">
      <g id="main">
        <g id="icon">
          <path d="M3.991, 0.5506L3.712, 0.7098L3.551, 0.9891L3.5, 1.4L3.5, 28.6L3.551, 29.01L3.712, 29.29L3.991, 29.45L4.4, 29.5L18.28, 29.5L18.01, 29.1L17.54, 28.16L17.19, 27.16L16.97, 26.1L16.9, 25L16.94, 24.17L17.06, 23.37L17.26, 22.59L17.54, 21.85L17.88, 21.14L18.28, 20.47L18.75, 19.85L19.27, 19.27L19.85, 18.75L20.47, 18.28L21.14, 17.88L21.85, 17.54L22.59, 17.26L23.37, 17.06L24.17, 16.94L25, 16.9L26.1, 16.97L26.5, 17.06L26.5, 8.8L26.47, 8.489L26.39, 8.226L26.27, 8L26.1, 7.8L19.2, 0.8998L18.94, 0.6896L18.71, 0.5686L18.3, 0.5L4.4, 0.5zz" fill="#FFFFFF" fill-rule="evenodd" />
        </g>
      </g>
    </g>
  </g>
  <g id="Layer_1" transform="translate(-2.625, 0)">
    <g transform="matrix(0.875, 0, 0, 0.875, 0, 0)">
      <g id="main">
        <g id="icon">
          <path d="M4.339, 0.0037L3.93, 0.0543L3.831, 0.0666L3.744, 0.116L3.464, 0.2752L3.346, 0.3426L3.278, 0.4605L3.118, 0.74L3.068, 0.8271L3.055, 0.9271L3.004, 1.338L3, 1.369L3, 1.4L3, 28.6L3, 28.63L3.004, 28.66L3.055, 29.07L3.068, 29.17L3.118, 29.26L3.278, 29.54L3.346, 29.66L3.464, 29.72L3.744, 29.88L3.831, 29.93L3.93, 29.95L4.339, 30L4.369, 30L4.4, 30L18.63, 30L18.59, 29.96L18.01, 29.1L17.96, 29L4.431, 29L4.152, 28.97L4.078, 28.92L4.035, 28.85L4, 28.57L4, 1.431L4.035, 1.151L4.078, 1.077L4.152, 1.034L4.431, 1L18.26, 1L18.55, 1.049L18.67, 1.11L18.86, 1.27L25.73, 8.139L25.86, 8.285L25.93, 8.421L25.98, 8.584L26, 8.821L26, 16.97L26.1, 16.97L27, 17.16L27, 8.8L27, 8.778L27, 8.757L26.97, 8.446L26.97, 8.396L26.95, 8.347L26.87, 8.084L26.86, 8.031L26.83, 7.983L26.71, 7.757L26.68, 7.714L26.65, 7.676L26.48, 7.477L26.47, 7.461L26.45, 7.446L19.55, 0.5463L19.54, 0.5293L19.52, 0.5141L19.26, 0.3039L19.22, 0.2691L19.17, 0.2441L18.93, 0.1232L18.87, 0.0883L18.79, 0.0756L18.38, 0.0068L18.34, 0L18.3, 0L4.4, 0L4.369, 0zz" fill="#727272" class="Black" />
        </g>
      </g>
    </g>
  </g>
  <g id="Layer_1" transform="translate(-2.625, 0)">
    <g transform="matrix(0.875, 0, 0, 0.875, 0, 0)">
      <g id="main">
        <g id="icon">
          <path d="M18, 7.7L18, 7.75L18.01, 7.799L18.07, 8.11L18.09, 8.208L18.15, 8.291L18.32, 8.545L18.37, 8.626L18.45, 8.68L18.71, 8.852L18.79, 8.907L18.89, 8.927L19.2, 8.99L19.25, 9L19.3, 9L26.3, 9L26.3, 8L19.35, 8L19.19, 7.967L19.09, 7.905L19.03, 7.814L19, 7.65L19, 1L18, 1zz" fill="#727272" class="Black" />
        </g>
      </g>
    </g>
  </g>
  <g id="Layer_1" transform="translate(-2.625, 0)">
    <g transform="matrix(0.875, 0, 0, 0.875, 0, 0)">
      <g id="main">
        <g id="overlay">
          <path d="M25, 18C21.134, 18 18, 21.134 18, 25C18, 28.866 21.134, 32 25, 32C28.866, 32 32, 28.866 32, 25C32, 21.134 28.866, 18 25, 18zM26, 26L26, 30L24, 30L24, 26L20, 26L20, 24L24, 24L24, 20L26, 20L26, 24L30, 24L30, 26L26, 26z" fill="#039C23" class="Green" fill-rule="evenodd" />
        </g>
      </g>
    </g>
  </g>
  <g id="Layer_1" transform="translate(-2.625, 0)">
    <g transform="matrix(0.875, 0, 0, 0.875, 0, 0)">
      <g id="main">
        <g id="overlay">
          <polygon points="30,24 26,24 26,20 24,20 24,24 20,24 20,26 24,26 24,30 26,30 26,26 30,26" fill="#FFFFFF" fill-rule="evenodd" />
        </g>
      </g>
    </g>
  </g>
</svg>