<?xml version='1.0' encoding='UTF-8'?>
<svg viewBox="-2 -2.935 32 32" xmlns="http://www.w3.org/2000/svg" xmlns:xlink="http://www.w3.org/1999/xlink">
  <g id="Layer_1" transform="translate(-0.935, -1.8687)">
    <g transform="matrix(0.9333, 0, 0, 0.9333, 0, 0)">
      <g id="icon">
        <path d="M13, 6L1.798, 5.997L7.597, 2.141C7.757, 2.049 7.94, 2 8.127, 2L18.825, 2L13, 6zM17.32, 18.327C16.286, 16.535 16.899, 14.245 18.691, 13.21C20.483, 12.176 22.773, 12.79 23.808, 14.581C24.842, 16.372 24.229, 18.663 22.437, 19.698C20.646, 20.733 18.355, 20.119 17.32, 18.327zM22.842, 17.245L22.546, 16.733L19.756, 18.344L20.052, 18.856L22.842, 17.245zM22.757, 14.733L17.977, 17.493L18.371, 18.176L23.151, 15.416L22.757, 14.733zM17.813, 15.767L18.207, 16.45L21.68, 14.445L21.286, 13.762L17.813, 15.767zM20.783, 2L16.7, 6L26.2, 6L30.2, 2C30.181, 1.999 20.783, 2 20.783, 2zM30.997, 2.82L27, 6.7L27, 29.3L30.854, 23.681C30.949, 23.53 31, 23.357 31, 23.181L31, 2.8C31, 2.782 30.998, 2.837 30.997, 2.82zM16, 7L26, 7L26, 30L2, 30C1.435, 30 0.998, 29.538 1, 29L1, 7L12, 7L12, 11.5C12, 11.742 12.246, 12 12.5, 12L15.5, 12C15.754, 12 16, 11.742 16, 11.5L16, 7zM10.493, 20L12, 20L12, 24.764C12, 24.894 12.106, 25 12.236, 25L13.764, 25C13.894, 25 14, 24.894 14, 24.764L14, 20L15.444, 20C15.57, 20 15.643, 19.857 15.57, 19.755L13.163, 16.41C13.108, 16.334 12.994, 16.334 12.939, 16.41L10.394, 19.807C10.336, 19.887 10.393, 20 10.493, 20zM4.493, 20L6, 20L6, 24.764C6, 24.894 6.106, 25 6.236, 25L7.764, 25C7.894, 25 8, 24.894 8, 24.764L8, 20L9.444, 20C9.57, 20 9.643, 19.857 9.57, 19.755L7.163, 16.41C7.108, 16.334 6.994, 16.334 6.939, 16.41L4.394, 19.807C4.336, 19.887 4.393, 20 4.493, 20zM16, 26.509C16, 26.228 15.772, 26 15.491, 26L4.509, 26C4.228, 26 4, 26.228 4, 26.509L4, 27.49C4, 27.771 4.228, 27.999 4.509, 27.999L15.49, 27.999C15.771, 27.999 15.999, 27.771 15.999, 27.49L15.999, 26.509zM16.656, 18.654C17.881, 20.776 20.594, 21.502 22.715, 20.278C24.837, 19.053 25.563, 16.34 24.339, 14.219C23.114, 12.097 20.401, 11.371 18.28, 12.595C16.158, 13.82 15.431, 16.533 16.656, 18.654z" fill="#FFB115" fill-opacity="1" class="Yellow" />
      </g>
    </g>
  </g>
  <g id="Layer_1" transform="translate(-0.935, -1.8687)">
    <g transform="matrix(0.9333, 0, 0, 0.9333, 0, 0)">
      <g id="icon">
        <path d="M27, 29.3L27, 6.7L30.997, 2.82L31, 2.8C30.972, 2.305 30.72, 2.027 30.2, 2L26.2, 6L1.8, 6L1.535, 6.106C1.231, 6.282 1.044, 6.396 1.043, 6.735L1, 7L26, 7L26, 30C26.478, 29.912 26.775, 29.644 27, 29.3z" fill="#FFFFFF" fill-opacity="1" class="White" />
      </g>
    </g>
  </g>
  <g id="Layer_1" transform="translate(-0.935, -1.8687)">
    <g transform="matrix(0.9333, 0, 0, 0.9333, 0, 0)">
      <g id="icon">
        <path d="M20.783, 2L16.015, 6.538L16, 11.5C16, 11.742 15.754, 12 15.5, 12L12.5, 12C12.246, 12 12, 11.742 12, 11.5L12.028, 6.538L18.825, 2L20.783, 2z" fill="#727272" fill-opacity="1" class="Black" fill-rule="evenodd" />
      </g>
    </g>
  </g>
  <g id="Layer_1" transform="translate(-0.935, -1.8687)">
    <g transform="matrix(0.9333, 0, 0, 0.9333, 0, 0)">
      <g id="icon">
        <path d="M4.509, 28L15.49, 28C15.771, 28 15.999, 27.772 15.999, 27.491L15.999, 26.51C15.999, 26.229 15.771, 26.001 15.49, 26.001L4.509, 26.001C4.228, 26.001 4, 26.229 4, 26.51L4, 27.491C4, 27.772 4.228, 28 4.509, 28zM6.938, 16.409L4.393, 19.806C4.335, 19.887 4.393, 20 4.492, 20L6, 20L6, 24.764C6, 24.894 6.106, 25 6.236, 25L7.764, 25C7.894, 25 8, 24.894 8, 24.764L8, 20L9.444, 20C9.57, 20 9.643, 19.857 9.57, 19.755L7.163, 16.41C7.107, 16.333 6.993, 16.333 6.938, 16.409zM12.938, 16.409L10.393, 19.806C10.335, 19.887 10.393, 20 10.492, 20L12, 20L12, 24.764C12, 24.894 12.106, 25 12.236, 25L13.764, 25C13.894, 25 14, 24.894 14, 24.764L14, 20L15.444, 20C15.57, 20 15.643, 19.857 15.57, 19.755L13.163, 16.41C13.107, 16.333 12.993, 16.333 12.938, 16.409z" fill="#727272" fill-opacity="1" class="Black" fill-rule="evenodd" />
      </g>
    </g>
  </g>
  <g id="Layer_1" transform="translate(-0.935, -1.8687)">
    <g transform="matrix(0.9333, 0, 0, 0.9333, 0, 0)">
      <g id="icon">
        <path d="M24.338, 14.219C23.113, 12.097 20.4, 11.371 18.279, 12.595C16.157, 13.82 15.431, 16.533 16.655, 18.654C17.88, 20.776 20.593, 21.502 22.714, 20.278C24.836, 19.053 25.563, 16.34 24.338, 14.219zM22.437, 19.698C20.645, 20.732 18.355, 20.119 17.32, 18.327C16.286, 16.535 16.899, 14.245 18.691, 13.21C20.483, 12.176 22.773, 12.79 23.808, 14.581C24.842, 16.373 24.229, 18.664 22.437, 19.698zM17.813, 15.767L21.286, 13.762L21.68, 14.445L18.207, 16.45L17.813, 15.767zM17.977, 17.493L22.757, 14.733L23.151, 15.416L18.371, 18.176L17.977, 17.493zM19.756, 18.344L22.546, 16.733L22.842, 17.245L20.052, 18.856L19.756, 18.344z" fill="#D11C1C" opacity="0.67" fill-opacity="1" class="Red" fill-rule="evenodd" />
      </g>
    </g>
  </g>
</svg>