<?xml version='1.0' encoding='UTF-8'?>
<svg viewBox="-2 -2.4675 32 32" xmlns="http://www.w3.org/2000/svg" xmlns:xlink="http://www.w3.org/1999/xlink">
  <g id="Layer_1" transform="translate(-0.935, -0.935)">
    <g transform="matrix(0.9333, 0, 0, 0.9333, 0, 0)">
      <g id="icon">
        <path d="M14, 13.625C14, 13.806 13.815, 14 13.625, 14L10.375, 14C10.185, 14 10, 13.806 10, 13.625L10, 8L1.75, 8C1.336, 8 1, 8.336 1, 8.75L1, 29.25C0.999, 29.654 1.326, 30 1.75, 30L23.263, 30C23.67, 30 24, 29.67 24, 29.262L24, 8.75C24, 8.336 23.664, 8 23.25, 8L14, 8L14, 13.625zM8.795, 21.105L10.703, 18.557C10.744, 18.5 10.829, 18.5 10.871, 18.557L12.677, 21.066C12.732, 21.143 12.677, 21.25 12.583, 21.25L11.5, 21.25L11.5, 25.573C11.5, 25.671 11.421, 25.75 11.323, 25.75L10.177, 25.75C10.079, 25.75 10, 25.671 10, 25.573L10, 21.25L8.87, 21.25C8.795, 21.25 8.752, 21.165 8.795, 21.105zM4.295, 21.105L6.203, 18.557C6.244, 18.5 6.329, 18.5 6.371, 18.557L8.177, 21.066C8.232, 21.143 8.177, 21.25 8.083, 21.25L7, 21.25L7, 25.573C7, 25.671 6.921, 25.75 6.823, 25.75L5.677, 25.75C5.579, 25.75 5.5, 25.671 5.5, 25.573L5.5, 21.25L4.37, 21.25C4.295, 21.25 4.252, 21.165 4.295, 21.105zM13, 27.618C13, 27.829 12.829, 28 12.618, 28L4.382, 28C4.171, 28 4, 27.829 4, 27.618L4, 26.882C4, 26.671 4.171, 26.5 4.382, 26.5L12.618, 26.5C12.829, 26.5 13, 26.671 13, 26.882L13, 27.618zM16.959, 15.196C18.55, 14.277 20.585, 14.823 21.503, 16.414C22.422, 18.005 21.876, 20.04 20.285, 20.958C18.694, 21.877 16.659, 21.331 15.741, 19.74C14.823, 18.15 15.368, 16.115 16.959, 15.196zM20.078, 20.524C21.422, 19.748 21.882, 18.03 21.106, 16.687C20.33, 15.343 18.612, 14.883 17.269, 15.659C15.925, 16.435 15.465, 18.153 16.241, 19.497C17.016, 20.839 18.734, 21.299 20.078, 20.524zM18.289, 19.892L18.067, 19.508L20.16, 18.3L20.382, 18.684L18.289, 19.892zM20.614, 17.312L17.029, 19.382L16.733, 18.87L20.318, 16.8L20.614, 17.312zM19.214, 16.071L19.51, 16.583L16.905, 18.087L16.609, 17.575L19.214, 16.071z" fill="#FFB115" fill-opacity="1" class="Yellow" />
      </g>
    </g>
  </g>
  <g id="Layer_1" transform="translate(-0.935, -0.935)">
    <g transform="matrix(0.9333, 0, 0, 0.9333, 0, 0)">
      <g id="icon">
        <path d="M5.5, 25.573L5.5, 21.25L4.37, 21.25C4.295, 21.25 4.252, 21.165 4.296, 21.105L6.204, 18.557C6.245, 18.5 6.33, 18.5 6.372, 18.557L8.178, 21.066C8.233, 21.143 8.178, 21.25 8.084, 21.25L7, 21.25L7, 25.573C7, 25.671 6.921, 25.75 6.823, 25.75L5.677, 25.75C5.579, 25.75 5.5, 25.671 5.5, 25.573zM10.177, 25.75L11.323, 25.75C11.421, 25.75 11.5, 25.671 11.5, 25.573L11.5, 21.25L12.583, 21.25C12.678, 21.25 12.732, 21.143 12.677, 21.066L10.871, 18.557C10.83, 18.5 10.745, 18.5 10.703, 18.557L8.795, 21.105C8.751, 21.166 8.795, 21.25 8.869, 21.25L10, 21.25L10, 25.573C10, 25.671 10.079, 25.75 10.177, 25.75zM12.618, 26.5L4.382, 26.5C4.171, 26.5 4, 26.671 4, 26.882L4, 27.618C4, 27.829 4.171, 28 4.382, 28L12.618, 28C12.829, 28 13, 27.829 13, 27.618L13, 26.882C13, 26.671 12.829, 26.5 12.618, 26.5zM10.02, 8L10, 13.625C10, 13.806 10.185, 14 10.375, 14L13.625, 14C13.815, 14 14, 13.806 14, 13.625L14.01, 8L10.02, 8z" fill="#727272" fill-opacity="1" class="Black" />
      </g>
    </g>
  </g>
  <g id="Layer_1" transform="translate(-0.935, -0.935)">
    <g transform="matrix(0.9333, 0, 0, 0.9333, 0, 0)">
      <g id="icon">
        <path d="M21.504, 16.414C20.585, 14.823 18.551, 14.278 16.96, 15.196C15.369, 16.115 14.824, 18.149 15.742, 19.74C16.661, 21.331 18.695, 21.876 20.286, 20.958C21.877, 20.04 22.422, 18.005 21.504, 16.414zM20.078, 20.524C18.734, 21.3 17.016, 20.839 16.241, 19.496C15.465, 18.152 15.926, 16.434 17.269, 15.658C18.613, 14.882 20.331, 15.343 21.106, 16.686C21.882, 18.03 21.421, 19.748 20.078, 20.524zM16.609, 17.575L19.214, 16.071L19.51, 16.583L16.905, 18.087L16.609, 17.575zM16.733, 18.87L20.318, 16.8L20.614, 17.312L17.029, 19.382L16.733, 18.87zM18.067, 19.508L20.16, 18.3L20.382, 18.684L18.289, 19.892L18.067, 19.508z" fill="#D11C1C" opacity="0.67" fill-opacity="1" class="Red" fill-rule="evenodd" />
      </g>
    </g>
  </g>
  <g id="Layer_1" transform="translate(-0.935, -0.935)">
    <g transform="matrix(0.9333, 0, 0, 0.9333, 0, 0)">
      <g id="icon">
        <path d="M8, 7L8, 1.75C8, 1.336 8.336, 1 8.75, 1L17, 1L17, 6.625C17, 6.806 17.185, 7 17.375, 7L8, 7zM25, 13.817L25, 11.821L27.614, 10.312L27.318, 9.8L25, 11.138L25, 10.455L26.51, 9.583L26.214, 9.071L25, 9.772L25, 8.95C25, 8.753 24.97, 8.564 24.916, 8.385C26.123, 8.047 27.451, 8.551 28.106, 9.686C28.882, 11.03 28.421, 12.748 27.078, 13.523C26.423, 13.902 25.68, 13.985 25, 13.817zM25.289, 12.892L27.382, 11.684L27.16, 11.3L25.067, 12.508L25.289, 12.892zM30.25, 1L21, 1L21, 6.625C21, 6.806 20.815, 7 20.625, 7L23.05, 7C23.734, 7 24.335, 7.353 24.683, 7.886C26.123, 7.461 27.72, 8.056 28.504, 9.414C29.423, 11.005 28.877, 13.04 27.286, 13.958C26.567, 14.373 25.757, 14.489 25, 14.344L25, 23L30.263, 23C30.67, 23 31.001, 22.67 31.001, 22.262L31.001, 1.75C31, 1.336 30.664, 1 30.25, 1z" fill="#FFB115" fill-opacity="1" class="Yellow" />
      </g>
    </g>
  </g>
  <g id="Layer_1" transform="translate(-0.935, -0.935)">
    <g transform="matrix(0.9333, 0, 0, 0.9333, 0, 0)">
      <g id="icon">
        <path d="M17.375, 7L20.625, 7C20.815, 7 21, 6.806 21, 6.625L21.01, 1L17.02, 1L17, 6.625C17, 6.806 17.185, 7 17.375, 7z" fill="#727272" fill-opacity="1" class="Black" />
      </g>
    </g>
  </g>
  <g id="Layer_1" transform="translate(-0.935, -0.935)">
    <g transform="matrix(0.9333, 0, 0, 0.9333, 0, 0)">
      <g id="icon">
        <path d="M25, 10.455L25, 9.772L26.214, 9.071L26.51, 9.583L25, 10.455zM27.318, 9.8L25, 11.138L25, 11.821L27.614, 10.312L27.318, 9.8zM28.504, 9.414C27.72, 8.056 26.124, 7.461 24.683, 7.886C24.783, 8.039 24.862, 8.206 24.916, 8.385C26.123, 8.046 27.451, 8.551 28.106, 9.686C28.882, 11.03 28.421, 12.748 27.078, 13.523C26.423, 13.901 25.68, 13.985 25, 13.817L25, 14.344C25.757, 14.489 26.567, 14.373 27.286, 13.958C28.877, 13.04 29.422, 11.005 28.504, 9.414zM25.289, 12.892L27.382, 11.684L27.16, 11.3L25.067, 12.508L25.289, 12.892z" fill="#D11C1C" opacity="0.67" fill-opacity="1" class="Red" />
      </g>
    </g>
  </g>
</svg>