<?xml version='1.0' encoding='UTF-8'?>
<svg viewBox="-2 -2.935 32 32" xmlns="http://www.w3.org/2000/svg" xmlns:xlink="http://www.w3.org/1999/xlink">
  <g id="Layer_1" transform="translate(-0.935, -1.8687)">
    <g transform="matrix(0.9333, 0, 0, 0.9333, 0, 0)">
      <g id="icon">
        <path d="M13, 6L1.798, 5.997L7.597, 2.141C7.757, 2.049 7.94, 2 8.127, 2L18.825, 2L13, 6zM20.783, 2L16.7, 6L26.2, 6L30.2, 2C30.181, 1.999 20.783, 2 20.783, 2zM30.997, 2.82L27, 6.7L27, 29.3L30.854, 23.681C30.949, 23.53 31, 23.357 31, 23.181L31, 2.8C31, 2.782 30.998, 2.837 30.997, 2.82zM16, 7L26, 7L26, 30L2, 30C1.435, 30 0.998, 29.538 1, 29L1, 7L12, 7L12, 11.5C12, 11.742 12.246, 12 12.5, 12L15.5, 12C15.754, 12 16, 11.742 16, 11.5L16, 7z" fill="#1177D7" fill-opacity="1" class="Blue" />
      </g>
    </g>
  </g>
  <g id="Layer_1" transform="translate(-0.935, -1.8687)">
    <g transform="matrix(0.9333, 0, 0, 0.9333, 0, 0)">
      <g id="icon">
        <path d="M20.783, 2L16.015, 6.538L16, 11.5C16, 11.742 15.754, 12 15.5, 12L12.5, 12C12.246, 12 12, 11.742 12, 11.5L12.028, 6.538L18.825, 2L20.783, 2z" fill="#FFFFFF" fill-opacity="1" class="White" fill-rule="evenodd" />
      </g>
    </g>
  </g>
</svg>