<?xml version='1.0' encoding='UTF-8'?>
<svg viewBox="-2 -2 32 32" xmlns="http://www.w3.org/2000/svg" xmlns:xlink="http://www.w3.org/1999/xlink">
  <g id="Layer_1" transform="translate(-0.9349, -0.9349)">
    <g transform="matrix(0.9333, 0, 0, 0.9333, 0, 0)">
      <g id="icon">
        <path d="M14.2, 5L1.798, 4.997L8.597, 1.141C8.757, 1.049 8.94, 1 9.127, 1L15.125, 1L14.2, 5zM21.32, 18.327C20.286, 16.535 20.899, 14.245 22.691, 13.21C24.483, 12.176 26.773, 12.79 27.808, 14.581C28.842, 16.372 28.229, 18.663 26.437, 19.698C24.646, 20.733 22.355, 20.119 21.32, 18.327zM26.842, 17.245L26.546, 16.733L23.756, 18.344L24.052, 18.856L26.842, 17.245zM26.757, 14.733L21.977, 17.493L22.371, 18.176L27.151, 15.416L26.757, 14.733zM21.813, 15.767L22.207, 16.45L25.68, 14.445L25.286, 13.762L21.813, 15.767zM17.083, 1L17.9, 5L30.3, 5L23.436, 1.155C23.282, 1.054 23.101, 1 22.917, 1C21.843, 0.999 17.083, 1 17.083, 1zM18, 6L31, 6L31, 30.017C31, 30.56 30.56, 31 30.017, 31L2, 31C1.435, 31 0.998, 30.538 1, 30L1, 6L14, 6L14, 11.5C14, 11.742 14.246, 12 14.5, 12L17.5, 12C17.754, 12 18, 11.742 18, 11.5L18, 6zM11.493, 20L13, 20L13, 25.764C13, 25.894 13.106, 26 13.236, 26L14.764, 26C14.894, 26 15, 25.894 15, 25.764L15, 20L16.444, 20C16.57, 20 16.643, 19.857 16.57, 19.755L14.163, 16.41C14.108, 16.334 13.994, 16.334 13.939, 16.41L11.394, 19.807C11.336, 19.887 11.393, 20 11.493, 20zM5.493, 20L7, 20L7, 25.764C7, 25.894 7.106, 26 7.236, 26L8.764, 26C8.894, 26 9, 25.894 9, 25.764L9, 20L10.444, 20C10.57, 20 10.643, 19.857 10.57, 19.755L8.163, 16.41C8.108, 16.334 7.994, 16.334 7.939, 16.41L5.394, 19.807C5.336, 19.887 5.393, 20 5.493, 20zM17, 27.509C17, 27.228 16.772, 27 16.491, 27L5.509, 27C5.228, 27 5, 27.228 5, 27.509L5, 28.49C5, 28.771 5.228, 28.999 5.509, 28.999L16.49, 28.999C16.771, 28.999 16.999, 28.771 16.999, 28.49L16.999, 27.509zM20.656, 18.654C21.881, 20.776 24.594, 21.502 26.715, 20.278C28.837, 19.053 29.563, 16.34 28.339, 14.219C27.114, 12.097 24.401, 11.371 22.28, 12.595C20.158, 13.82 19.431, 16.533 20.656, 18.654z" fill="#FFB115" fill-opacity="1" class="Yellow" />
      </g>
    </g>
  </g>
  <g id="Layer_1" transform="translate(-0.9349, -0.9349)">
    <g transform="matrix(0.9333, 0, 0, 0.9333, 0, 0)">
      <g id="icon">
        <path d="M30.3, 5L1.8, 5C1.306, 5.395 1.043, 5.728 1, 6L31, 6C30.981, 5.582 30.661, 5.283 30.3, 5z" fill="#FFFFFF" fill-opacity="1" class="White" />
      </g>
    </g>
  </g>
  <g id="Layer_1" transform="translate(-0.9349, -0.9349)">
    <g transform="matrix(0.9333, 0, 0, 0.9333, 0, 0)">
      <g id="icon">
        <path d="M17.083, 1L18.015, 5.538L18, 11.5C18, 11.742 17.754, 12 17.5, 12L14.5, 12C14.246, 12 14, 11.742 14, 11.5L14.028, 5.538L15.125, 1L17.083, 1zM5.509, 29L16.49, 29C16.771, 29 16.999, 28.772 16.999, 28.491L16.999, 27.51C16.999, 27.229 16.771, 27.001 16.49, 27.001L5.509, 27.001C5.228, 27.001 5, 27.229 5, 27.51L5, 28.491C5, 28.772 5.228, 29 5.509, 29zM7.938, 16.409L5.393, 19.806C5.335, 19.887 5.393, 20 5.492, 20L7, 20L7, 25.764C7, 25.894 7.106, 26 7.236, 26L8.764, 26C8.894, 26 9, 25.894 9, 25.764L9, 20L10.444, 20C10.57, 20 10.643, 19.857 10.57, 19.755L8.163, 16.41C8.107, 16.333 7.993, 16.333 7.938, 16.409zM13.938, 16.409L11.393, 19.806C11.335, 19.887 11.393, 20 11.492, 20L13, 20L13, 25.764C13, 25.894 13.106, 26 13.236, 26L14.764, 26C14.894, 26 15, 25.894 15, 25.764L15, 20L16.444, 20C16.57, 20 16.643, 19.857 16.57, 19.755L14.163, 16.41C14.107, 16.333 13.993, 16.333 13.938, 16.409z" fill="#727272" fill-opacity="1" class="Black" fill-rule="evenodd" />
      </g>
    </g>
  </g>
  <g id="Layer_1" transform="translate(-0.9349, -0.9349)">
    <g transform="matrix(0.9333, 0, 0, 0.9333, 0, 0)">
      <g id="icon">
        <path d="M28.338, 14.219C27.113, 12.097 24.4, 11.371 22.279, 12.595C20.157, 13.82 19.431, 16.533 20.655, 18.654C21.88, 20.776 24.593, 21.502 26.714, 20.278C28.836, 19.053 29.563, 16.34 28.338, 14.219zM26.437, 19.698C24.645, 20.732 22.355, 20.119 21.32, 18.327C20.286, 16.535 20.899, 14.245 22.691, 13.21C24.483, 12.176 26.773, 12.79 27.808, 14.581C28.842, 16.373 28.229, 18.664 26.437, 19.698zM21.813, 15.767L25.286, 13.762L25.68, 14.445L22.207, 16.45L21.813, 15.767zM21.977, 17.493L26.757, 14.733L27.151, 15.416L22.371, 18.176L21.977, 17.493zM23.756, 18.344L26.546, 16.733L26.842, 17.245L24.052, 18.856L23.756, 18.344z" fill="#D11C1C" opacity="0.67" fill-opacity="1" class="Red" fill-rule="evenodd" />
      </g>
    </g>
  </g>
</svg>