<?xml version='1.0' encoding='UTF-8'?>
<svg viewBox="-2.4375 -2 32 32" xmlns="http://www.w3.org/2000/svg" xmlns:xlink="http://www.w3.org/1999/xlink">
  <g id="Layer_1" transform="translate(-0.875, 0)">
    <g transform="matrix(0.875, 0, 0, 0.875, 0, 0)">
      <g id="main">
        <g id="icon">
          <path d="M5.874, 3.538L5.661, 3.66L5.539, 3.872L5.5, 4.185L5.5, 25.82L5.539, 26.13L5.661, 26.34L5.874, 26.46L6.185, 26.5L17.06, 26.5L16.97, 26.1L16.9, 25L9.6, 25L9.278, 24.97L8.977, 24.87L8.705, 24.73L8.469, 24.53L8.273, 24.29L8.126, 24.02L8.032, 23.72L8, 23.4L8, 3.5L6.185, 3.5zz" fill="#FFFFFF" fill-opacity="1" class="White" fill-rule="evenodd" />
        </g>
      </g>
    </g>
  </g>
  <g id="Layer_1" transform="translate(-0.875, 0)">
    <g transform="matrix(0.875, 0, 0, 0.875, 0, 0)">
      <g id="main">
        <g id="icon">
          <path d="M6.123, 3.004L5.813, 3.042L5.713, 3.054L5.627, 3.104L5.414, 3.225L5.296, 3.292L5.228, 3.411L5.105, 3.623L5.055, 3.71L5.043, 3.81L5.004, 4.123L5, 4.154L5, 4.185L5, 25.82L5, 25.85L5.004, 25.88L5.043, 26.19L5.055, 26.29L5.105, 26.38L5.228, 26.59L5.296, 26.71L5.414, 26.78L5.627, 26.9L5.713, 26.95L5.813, 26.96L6.123, 27L6.154, 27L6.185, 27L17.16, 27L16.97, 26.1L16.97, 26L6.216, 26L6.034, 25.98L6.027, 25.97L6.023, 25.97L6, 25.78L6, 4.215L6.023, 4.034L6.027, 4.027L6.034, 4.022L6.216, 4L7.8, 4L8.117, 3.887L8.29, 3.598L8.241, 3.265L7.992, 3.038L7.8, 3L6.185, 3L6.154, 3zz" fill="#1177D7" fill-opacity="1" class="Blue" />
        </g>
      </g>
    </g>
  </g>
  <g id="Layer_1" transform="translate(-0.875, 0)">
    <g transform="matrix(0.875, 0, 0, 0.875, 0, 0)">
      <g id="main">
        <g id="icon">
          <path d="M1.874, 6.538L1.661, 6.66L1.539, 6.872L1.5, 7.185L1.5, 28.82L1.539, 29.13L1.661, 29.34L1.874, 29.46L2.185, 29.5L18.28, 29.5L18.01, 29.1L17.54, 28.16L17.48, 28L5.6, 28L5.278, 27.97L4.977, 27.87L4.705, 27.73L4.469, 27.53L4.273, 27.29L4.126, 27.02L4.032, 26.72L4, 26.4L4, 6.5L2.185, 6.5zz" fill="#FFFFFF" fill-opacity="1" class="White" fill-rule="evenodd" />
        </g>
      </g>
    </g>
  </g>
  <g id="Layer_1" transform="translate(-0.875, 0)">
    <g transform="matrix(0.875, 0, 0, 0.875, 0, 0)">
      <g id="main">
        <g id="icon">
          <path d="M2.123, 6.004L1.813, 6.042L1.713, 6.054L1.627, 6.104L1.414, 6.225L1.296, 6.292L1.228, 6.411L1.105, 6.623L1.055, 6.71L1.043, 6.81L1.004, 7.123L1, 7.154L1, 7.185L1, 28.82L1, 28.85L1.004, 28.88L1.043, 29.19L1.055, 29.29L1.105, 29.38L1.228, 29.59L1.296, 29.71L1.414, 29.78L1.627, 29.9L1.713, 29.95L1.813, 29.96L2.123, 30L2.154, 30L2.185, 30L18.63, 30L18.59, 29.96L18.01, 29.1L17.96, 29L2.216, 29L2.034, 28.98L2.027, 28.97L2.023, 28.97L2, 28.78L2, 7.215L2.023, 7.034L2.027, 7.027L2.034, 7.022L2.216, 7L3.8, 7L4.117, 6.887L4.29, 6.598L4.241, 6.265L3.992, 6.038L3.8, 6L2.185, 6L2.154, 6zz" fill="#039C23" fill-opacity="1" class="Green" />
        </g>
      </g>
    </g>
  </g>
  <g id="Layer_1" transform="translate(-0.875, 0)">
    <g transform="matrix(0.875, 0, 0, 0.875, 0, 0)">
      <g id="main">
        <g id="icon">
          <path d="M9.874, 0.5385L9.661, 0.6596L9.539, 0.8721L9.5, 1.185L9.5, 22.82L9.539, 23.13L9.661, 23.34L9.874, 23.46L10.18, 23.5L17.04, 23.5L17.06, 23.37L17.26, 22.59L17.54, 21.85L17.88, 21.14L18.28, 20.47L18.75, 19.85L19.27, 19.27L19.85, 18.75L20.47, 18.28L21.14, 17.88L21.85, 17.54L22.59, 17.26L23.37, 17.06L24.17, 16.94L25, 16.9L26.1, 16.97L27.16, 17.19L28.16, 17.54L28.5, 17.71L28.5, 6.815L28.42, 6.379L28.2, 6.054L22.95, 0.8043L22.75, 0.6443L22.57, 0.5521L22.26, 0.5L10.18, 0.5zz" fill="#FFFFFF" fill-opacity="1" class="White" fill-rule="evenodd" />
        </g>
      </g>
    </g>
  </g>
  <g id="Layer_1" transform="translate(-0.875, 0)">
    <g transform="matrix(0.875, 0, 0, 0.875, 0, 0)">
      <g id="main">
        <g id="icon">
          <path d="M10.12, 0.0037L9.813, 0.0422L9.713, 0.0545L9.627, 0.1039L9.414, 0.225L9.296, 0.2924L9.228, 0.4105L9.105, 0.623L9.055, 0.7104L9.043, 0.8102L9.004, 1.123L9, 1.154L9, 1.185L9, 22.82L9, 22.85L9.004, 22.88L9.043, 23.19L9.055, 23.29L9.105, 23.38L9.228, 23.59L9.296, 23.71L9.414, 23.78L9.627, 23.9L9.713, 23.95L9.813, 23.96L10.12, 24L10.15, 24L10.18, 24L16.97, 24L17.06, 23.37L17.16, 23L10.22, 23L10.03, 22.98L10.03, 22.97L10.02, 22.97L10, 22.78L10, 1.215L10.02, 1.034L10.03, 1.027L10.03, 1.022L10.22, 1L22.22, 1L22.41, 1.033L22.48, 1.065L22.61, 1.175L27.81, 6.376L27.95, 6.574L28, 6.861L28, 17.48L28.16, 17.54L29, 17.96L29, 6.815L29, 6.77L28.99, 6.725L28.91, 6.288L28.89, 6.182L28.83, 6.094L28.61, 5.77L28.58, 5.733L28.55, 5.701L23.3, 0.4506L23.28, 0.4338L23.26, 0.4184L23.07, 0.2584L23.03, 0.2236L22.98, 0.1988L22.8, 0.1068L22.73, 0.0719L22.65, 0.0592L22.34, 0.0068L22.3, 0L22.26, 0L10.18, 0L10.15, 0zz" fill="#727272" fill-opacity="1" class="Black" />
        </g>
      </g>
    </g>
  </g>
  <g id="Layer_1" transform="translate(-0.875, 0)">
    <g transform="matrix(0.875, 0, 0, 0.875, 0, 0)">
      <g id="main">
        <g id="icon">
          <path d="M22, 5.7L22, 5.75L22.01, 5.799L22.07, 6.11L22.09, 6.208L22.15, 6.291L22.32, 6.545L22.37, 6.626L22.45, 6.68L22.71, 6.852L22.79, 6.907L22.89, 6.927L23.2, 6.99L23.25, 7L23.3, 7L28.4, 7L28.4, 6L23.35, 6L23.19, 5.967L23.09, 5.905L23.03, 5.814L23, 5.65L23, 0.8L22, 0.8zz" fill="#727272" fill-opacity="1" class="Black" />
        </g>
      </g>
    </g>
  </g>
  <g id="Layer_1" transform="translate(-0.875, 0)">
    <g transform="matrix(0.875, 0, 0, 0.875, 0, 0)">
      <g id="main">
        <g id="overlay">
          <path d="M25, 18C21.134, 18 18, 21.134 18, 25C18, 28.866 21.134, 32 25, 32C28.866, 32 32, 28.866 32, 25C32, 21.134 28.866, 18 25, 18zM29.2426, 27.8284L27.8284, 29.2426L25, 26.4142L22.1716, 29.2426L20.7574, 27.8284L23.5858, 25L20.7574, 22.1716L22.1716, 20.7574L25, 23.5858L27.8284, 20.7574L29.2426, 22.1716L26.4142, 25L29.2426, 27.8284z" fill="#D11C1C" fill-opacity="1" class="Red" fill-rule="evenodd" />
        </g>
      </g>
    </g>
  </g>
  <g id="Layer_1" transform="translate(-0.875, 0)">
    <g transform="matrix(0.875, 0, 0, 0.875, 0, 0)">
      <g id="main">
        <g id="overlay">
          <polygon points="27.8284,20.7574 25,23.5858 22.1716,20.7574 20.7574,22.1716 23.5858,25 20.7574,27.8284 22.1716,29.2426 25,26.4142 27.8284,29.2426 29.2426,27.8284 26.4142,25 29.2426,22.1716" fill="#FFFFFF" fill-opacity="1" class="White" fill-rule="evenodd" />
        </g>
      </g>
    </g>
  </g>
</svg>