<?xml version='1.0' encoding='UTF-8'?>
<svg viewBox="-2 -4.258 32 32" xmlns="http://www.w3.org/2000/svg" xmlns:xlink="http://www.w3.org/1999/xlink">
  <g id="Layer_1" transform="translate(0, -2.7096)">
    <g transform="matrix(0.9032, 0, 0, 0.9032, 0, 0)">
      <g id="icon">
        <rect x="1" y="4" width="29" height="24" rx="0" ry="0" fill="#FFFFFF" />
      </g>
    </g>
  </g>
  <g id="Layer_1" transform="translate(0, -2.7096)">
    <g transform="matrix(0.9032, 0, 0, 0.9032, 0, 0)">
      <g id="icon">
        <polygon points="10,28 1,28 1,4 10,8" fill="#D11C1C" opacity="0.2" class="Red" />
      </g>
    </g>
  </g>
  <g id="Layer_1" transform="translate(0, -2.7096)">
    <g transform="matrix(0.9032, 0, 0, 0.9032, 0, 0)">
      <g id="icon">
        <path d="M11, 28L11, 24L11, 23L11, 19L11, 18L11, 14L11, 13L11, 9L10, 9L10, 13L1, 13L1, 9L10, 9L10, 8L1, 8L1, 4L0, 4L0, 29L11, 29L11, 28zM10, 28L1, 28L1, 24L10, 24L10, 28zM10, 23L1, 23L1, 19L10, 19L10, 23zM10, 18L1, 18L1, 14L10, 14L10, 18z" fill="#D11C1C" class="Red" />
      </g>
    </g>
  </g>
  <g id="Layer_1" transform="translate(0, -2.7096)">
    <g transform="matrix(0.9032, 0, 0, 0.9032, 0, 0)">
      <g id="icon">
        <path d="M31, 9L30, 9L30, 13L21, 13L21, 9L20, 9L20, 13L11, 13L11, 14L20, 14L20, 18L11, 18L11, 19L20, 19L20, 23L11, 23L11, 24L20, 24L20, 28L11, 28L11, 29L31, 29L31, 9zM30, 28L21, 28L21, 24L30, 24L30, 28zM30, 23L21, 23L21, 19L30, 19L30, 23zM30, 18L21, 18L21, 14L30, 14L30, 18z" fill="#727272" class="Black" />
      </g>
    </g>
  </g>
  <g id="Layer_1" transform="translate(0, -2.7096)">
    <g transform="matrix(0.9032, 0, 0, 0.9032, 0, 0)">
      <g id="icon">
        <path d="M10, 4L10, 8L10, 9L11, 9L20, 9L21, 9L30, 9L31, 9L31, 3L0, 3L0, 4L1, 4L10, 4zM21, 4L30, 4L30, 8L21, 8L21, 4zM11, 4L20, 4L20, 8L11, 8L11, 4z" fill="#1177D7" class="Blue" />
      </g>
    </g>
  </g>
  <g id="Layer_1" transform="translate(0, -2.7096)">
    <g transform="matrix(0.9032, 0, 0, 0.9032, 0, 0)">
      <g id="icon">
        <polygon points="10,8 30,8 30,4 1,4" fill="#1177D7" opacity="0.2" class="Blue" />
      </g>
    </g>
  </g>
</svg>