<?xml version='1.0' encoding='UTF-8'?>
<svg viewBox="-1.9975 -2.9175 32 32" xmlns="http://www.w3.org/2000/svg" xmlns:xlink="http://www.w3.org/1999/xlink">
  <g id="Layer_1" transform="translate(-0.9701, -1.9026)">
    <g transform="matrix(0.9355, 0, 0, 0.9355, 0, 0)">
      <g transform="matrix(1, 0, 0, 1, 0, 0)">
        <g id="icon">
          <path d="M28.749, 10.4L3.251, 10.4C2.864, 10.697 2.5, 11.173 2.5, 11.68L2.5, 27.922C2.5, 28.794 3.3, 29.501 4.12, 29.501L27.88, 29.501C28.7, 29.501 29.5, 28.794 29.5, 27.922L29.5, 11.68C29.5, 11.173 29.136, 10.697 28.749, 10.4z" fill="#FFFFFF" fill-opacity="1" class="White" />
        </g>
      </g>
    </g>
  </g>
  <g id="Layer_1" transform="translate(-0.9701, -1.9026)">
    <g transform="matrix(0.9355, 0, 0, 0.9355, 0, 0)">
      <g transform="matrix(1, 0, 0, 1, 0, 0)">
        <g id="icon">
          <path d="M11.413, 17L5.575, 17C5.259, 17 5, 17.259 5, 17.575L5, 29.9L12, 29.9L12, 17.588C12, 17.264 11.736, 17 11.413, 17z" fill="#1177D7" fill-opacity="1" class="Blue" />
        </g>
      </g>
    </g>
  </g>
  <g id="Layer_1" transform="translate(-0.9701, -1.9026)">
    <g transform="matrix(0.9355, 0, 0, 0.9355, 0, 0)">
      <g transform="matrix(1, 0, 0, 1, 0, 0)">
        <g id="icon">
          <path d="M26.575, 17L15.425, 17C15.19, 17 15, 17.19 15, 17.425L15, 25.575C15, 25.81 15.19, 26 15.425, 26L26.575, 26C26.81, 26 27, 25.81 27, 25.575L27, 17.425C27, 17.19 26.81, 17 26.575, 17z" fill="#1177D7" fill-opacity="1" class="Blue" />
        </g>
      </g>
    </g>
  </g>
  <g id="Layer_1" transform="translate(-0.9701, -1.9026)">
    <g transform="matrix(0.9355, 0, 0, 0.9355, 0, 0)">
      <g transform="matrix(1, 0, 0, 1, 0, 0)">
        <g id="icon">
          <path d="M29, 14.689L29, 27.922C29, 28.539 28.409, 29.001 27.88, 29.001L4.12, 29.001C3.591, 29.001 3, 28.54 3, 27.922L3, 14.687C2.626, 14.548 2.287, 14.334 2, 14.066L2, 27.922C2, 29.029 2.991, 30 4.12, 30L27.88, 30C29.009, 30 30, 29.029 30, 27.921L30, 14.069C29.713, 14.337 29.374, 14.55 29, 14.689z" fill="#727272" fill-opacity="1" class="Black" />
        </g>
      </g>
    </g>
  </g>
  <g id="Layer_1" transform="translate(-0.9701, -1.9026)">
    <g transform="matrix(0.9355, 0, 0, 0.9355, 0, 0)">
      <g transform="matrix(1, 0, 0, 1, 0, 0)">
        <g id="icon">
          <path d="M24.981, 9.336L24.981, 11.15C24.981, 12.813 23.634, 14.173 21.988, 14.173C20.342, 14.173 18.995, 12.813 18.995, 11.15L18.995, 9.396L17.499, 2.033L20.492, 2.033L24.942, 9.335L24.981, 9.335zM7.062, 9.336L7.022, 9.336L7.022, 11.15C7.022, 12.813 8.369, 14.173 10.015, 14.173C11.661, 14.173 13.008, 12.813 13.008, 11.15L13.008, 9.396L14.505, 2.033L11.512, 2.033L7.062, 9.336z" fill="#727272" fill-opacity="1" class="Black" />
        </g>
      </g>
    </g>
  </g>
  <g id="Layer_1" transform="translate(-0.9701, -1.9026)">
    <g transform="matrix(0.9355, 0, 0, 0.9355, 0, 0)">
      <g transform="matrix(1, 0, 0, 1, 0, 0)">
        <g id="icon">
          <path d="M30.967, 9.336L30.967, 11.15C30.967, 12.813 29.62, 14.173 27.974, 14.173C26.328, 14.173 24.981, 12.813 24.981, 11.15L24.981, 9.396L20.492, 2.033L23.485, 2.033L30.902, 9.335L30.967, 9.335zM1.103, 9.336L1.037, 9.336L1.037, 11.15C1.037, 12.813 2.384, 14.173 4.03, 14.173C5.676, 14.173 7.023, 12.813 7.023, 11.15L7.023, 9.396L11.512, 2.033L8.519, 2.033L1.103, 9.336zM17.498, 2.033L14.505, 2.033L13.022, 9.335L13.009, 9.335L13.009, 11.149C13.009, 12.812 14.356, 14.172 16.002, 14.172C17.648, 14.172 18.995, 12.812 18.995, 11.149L18.995, 9.336L18.982, 9.336L17.498, 2.033z" fill="#1177D7" fill-opacity="1" class="Blue" />
        </g>
      </g>
    </g>
  </g>
  <g id="Layer_1" transform="translate(-0.9701, -1.9026)">
    <g transform="matrix(0.9355, 0, 0, 0.9355, 0, 0)">
      <g transform="matrix(1, 0, 0, 1, 0, 0)">
        <g id="icon">
          <rect x="9" y="22" width="2" height="2" rx="0" ry="0" fill="#FFFFFF" fill-opacity="1" class="White" />
        </g>
      </g>
    </g>
  </g>
</svg>