<?xml version='1.0' encoding='UTF-8'?>
<svg viewBox="-2 -2 32 32" xmlns="http://www.w3.org/2000/svg" xmlns:xlink="http://www.w3.org/1999/xlink">
  <clipPath id="clip_mask" tag="staticElement_id45298596">
    <path d="M17.038, 32L0, 32L0, 0L32, 0L32, 17.308C32, 16.587 31.413, 16 30.692, 16L19.308, 16C18.587, 16 18, 16.587 18, 17.308L18, 29.036C17.427, 29.175 17, 29.692 17, 30.308L17, 31.691C17, 31.798 17.014, 31.901 17.038, 32z" fill="#727272" fill-opacity="1" class="Black" />
  </clipPath>
  <g id="Layer_1" transform="translate(-0.025, -0.025)">
    <g transform="matrix(0.8758, 0, 0, 0.8758, 0, 0)">
      <g transform="matrix(1, 0, 0, 1, 0, 0)">
        <g id="main">
          <g id="icon" clip-path="url(#clip_mask)">
            <g id="transformed_icon" transform="translate(-1, -1)">
              <path d="M13.961, 20.704C14.015, 19.554 14.55, 19.777 16.055, 19.777C17.56, 19.777 18.118, 19.554 18.064, 20.702C18.078, 21.223 17.635, 21.442 17.088, 21.953C17.062, 23.745 18.006, 30.064 18.006, 30.064L16.026, 30.798L14.2, 30.023C14.2, 30.023 14.952, 23.767 15.011, 21.951C14.598, 21.412 13.961, 21.236 13.961, 20.704z" fill="#727272" fill-opacity="1" class="Black" fill-rule="evenodd" />
            </g>
          </g>
        </g>
      </g>
    </g>
  </g>
  <g id="Layer_1" transform="translate(-0.025, -0.025)">
    <g transform="matrix(0.8758, 0, 0, 0.8758, 0, 0)">
      <g transform="matrix(1, 0, 0, 1, 0, 0)">
        <g id="main">
          <g id="icon" clip-path="url(#clip_mask)">
            <g id="transformed_icon" transform="translate(-1, -1)">
              <path d="M15.925, 31C15.432, 30.999 3.816, 30.953 1.479, 28.304C1.112, 27.888 0.966, 27.425 1.046, 26.928C1.128, 26.35 1.198, 25.819 1.262, 25.333C1.959, 20.031 2.115, 19.88 9.623, 17.427C10.13, 17.202 10.446, 17.077 10.449, 17.076L10.771, 16.95C10.771, 16.95 14.694, 30.626 16.006, 30.626C17.318, 30.626 21.242, 17.021 21.242, 17.021L21.572, 17.154C21.72, 17.214 21.897, 17.292 22.116, 17.389C29.692, 19.864 30.051, 20.02 30.78, 25.477C30.84, 25.924 30.904, 26.408 30.979, 26.934C31.057, 27.421 30.913, 27.881 30.548, 28.294C28.202, 30.953 16.426, 30.999 15.926, 31L15.925, 31z" fill="#727272" fill-opacity="1" class="Black" fill-rule="evenodd" />
            </g>
          </g>
        </g>
      </g>
    </g>
  </g>
  <g id="Layer_1" transform="translate(-0.025, -0.025)">
    <g transform="matrix(0.8758, 0, 0, 0.8758, 0, 0)">
      <g transform="matrix(1, 0, 0, 1, 0, 0)">
        <g id="main">
          <g id="icon" clip-path="url(#clip_mask)">
            <g id="transformed_icon" transform="translate(-1, -1)">
              <path d="M16.095, 1.027C10.276, 1.027 8.955, 4.601 8.955, 8.687C8.955, 12.773 11.818, 18.55 16.063, 18.55C20.308, 18.55 23.083, 12.774 23.083, 8.687C23.083, 4.6 21.85, 1.027 16.095, 1.027zM16.106, 17.167C12.582, 17.167 10.412, 11.966 10.412, 8.534C10.412, 8.138 10.444, 7.76 10.505, 7.399C10.756, 7.007 11.18, 6.545 12.007, 5.922C12.327, 5.68 12.758, 5.631 13.118, 5.809C15.355, 6.918 20.779, 6.149 21.537, 7.583C21.579, 7.888 21.601, 8.205 21.601, 8.534C21.6, 11.966 19.63, 17.167 16.106, 17.167z" fill="#727272" fill-opacity="1" class="Black" fill-rule="evenodd" />
            </g>
          </g>
        </g>
      </g>
    </g>
  </g>
  <g id="Layer_1" transform="translate(-0.025, -0.025)">
    <g transform="matrix(0.8758, 0, 0, 0.8758, 0, 0)">
      <g transform="matrix(1, 0, 0, 1, 0, 0)">
        <g id="main">
          <g id="overlay">
            <path d="M31.692, 30L31, 30L31, 17.308C31, 17.138 30.862, 17 30.692, 17L19.308, 17C19.138, 17 19, 17.138 19, 17.308L19, 30L18.308, 30C18.138, 30 18, 30.138 18, 30.308L18, 31.691C18, 31.861 18.138, 31.999 18.308, 31.999L19.308, 31.999L30.691, 31.999L31.691, 31.999C31.861, 31.999 31.999, 31.861 31.999, 31.691L31.999, 30.308C32, 30.138 31.862, 30 31.692, 30zM24, 19L26, 19L26, 21L24, 21L24, 19zM24, 22L26, 22L26, 24L24, 24L24, 22zM24, 25L26, 25L26, 27L24, 27L24, 25zM21, 19L23, 19L23, 21L21, 21L21, 19zM21, 22L23, 22L23, 24L21, 24L21, 22zM21, 25L23, 25L23, 27L21, 27L21, 25zM27, 31L23, 31L23, 28L27, 28L27, 31zM29, 27L27, 27L27, 25L29, 25L29, 27zM29, 24L27, 24L27, 22L29, 22L29, 24zM29, 21L27, 21L27, 19L29, 19L29, 21z" fill="#1177D7" fill-opacity="1" class="Blue" />
          </g>
        </g>
      </g>
    </g>
  </g>
  <g id="Layer_1" transform="translate(-0.025, -0.025)">
    <g transform="matrix(0.8758, 0, 0, 0.8758, 0, 0)">
      <g transform="matrix(1, 0, 0, 1, 0, 0)">
        <g id="main">
          <g id="overlay">
            <path d="M23, 21L21, 21L21, 19L23, 19L23, 21zM26, 19L24, 19L24, 21L26, 21L26, 19zM29, 19L27, 19L27, 21L29, 21L29, 19zM23, 24L21, 24L21, 22L23, 22L23, 24zM26, 22L24, 22L24, 24L26, 24L26, 22zM29, 22L27, 22L27, 24L29, 24L29, 22zM23, 27L21, 27L21, 25L23, 25L23, 27zM26, 25L24, 25L24, 27L26, 27L26, 25zM29, 25L27, 25L27, 27L29, 27L29, 25zM27, 28L23, 28L23, 31L27, 31L27, 28z" fill="#FFFFFF" fill-opacity="1" class="White" />
          </g>
        </g>
      </g>
    </g>
  </g>
</svg>