<?xml version='1.0' encoding='UTF-8'?>
<svg viewBox="0 0 32 32" xmlns="http://www.w3.org/2000/svg" xmlns:xlink="http://www.w3.org/1999/xlink">
  <g id="Layer_1" transform="translate(-0.9976, -0.9851)">
    <g transform="matrix(0.9368, 0, 0, 0.9368, 0, 0)">
      <g transform="matrix(1, 0, 0, 1, 0, 0)">
        <g id="icon">
          <path d="M2.7, 11L29.7, 11L29.7, 13L2.6, 13L2.7, 11z" fill="#1177D7" fill-opacity="1" class="Blue" fill-rule="evenodd" />
        </g>
      </g>
    </g>
  </g>
  <g id="Layer_1" transform="translate(-0.9976, -0.9851)">
    <g transform="matrix(0.9368, 0, 0, 0.9368, 0, 0)">
      <g transform="matrix(1, 0, 0, 1, 0, 0)">
        <g id="icon">
          <path d="M2.6, 19L29.7, 19L29.7, 21L3, 21L2.6, 19z" fill="#1177D7" fill-opacity="1" class="Blue" fill-rule="evenodd" />
        </g>
      </g>
    </g>
  </g>
  <g id="Layer_1" transform="translate(-0.9976, -0.9851)">
    <g transform="matrix(0.9368, 0, 0, 0.9368, 0, 0)">
      <g transform="matrix(1, 0, 0, 1, 0, 0)">
        <g id="icon">
          <path d="M19.403, 2.496L17.109, 2.496C17.109, 2.496 19.8, 9.549 19.8, 15.864C19.8, 21.992 17.109, 29.35 17.109, 29.35L19.403, 29.35C19.403, 29.35 22.094, 22.065 22.094, 15.976C22.094, 9.626 19.403, 2.496 19.403, 2.496z" fill="#1177D7" fill-opacity="1" class="Blue" fill-rule="evenodd" />
        </g>
      </g>
    </g>
  </g>
  <g id="Layer_1" transform="translate(-0.9976, -0.9851)">
    <g transform="matrix(0.9368, 0, 0, 0.9368, 0, 0)">
      <g transform="matrix(1, 0, 0, 1, 0, 0)">
        <g id="icon">
          <path d="M12.765, 2.496L14.929, 2.496C14.929, 2.496 12.238, 9.549 12.238, 15.864C12.238, 21.992 14.929, 29.35 14.929, 29.35L12.765, 29.35C12.765, 29.35 10, 22.065 10, 15.976C10, 9.626 12.765, 2.496 12.765, 2.496z" fill="#1177D7" fill-opacity="1" class="Blue" fill-rule="evenodd" />
        </g>
      </g>
    </g>
  </g>
  <g id="Layer_1" transform="translate(-0.9976, -0.9851)">
    <g transform="matrix(0.9368, 0, 0, 0.9368, 0, 0)">
      <g transform="matrix(1, 0, 0, 1, 0, 0)">
        <g id="icon">
          <path d="M16.007, 30.937C7.767, 30.937 1.064, 24.233 1.064, 15.994C1.064, 7.755 7.767, 1.05 16.007, 1.05C24.247, 1.05 30.95, 7.754 30.95, 15.993C30.95, 24.232 24.247, 30.937 16.007, 30.937zM16.007, 3.597C9.172, 3.597 3.611, 9.158 3.611, 15.994C3.611, 22.83 9.172, 28.39 16.007, 28.39C22.842, 28.39 28.403, 22.829 28.403, 15.993C28.403, 9.157 22.842, 3.597 16.007, 3.597z" fill="#1177D7" fill-opacity="1" class="Blue" />
        </g>
      </g>
    </g>
  </g>
  <g id="Layer_1" transform="translate(16, 16.0069)">
    <g id="icon">
      <rect x="4.9" y="4.4" width="6.2" height="9.6" rx="0" ry="0" fill="#FFFFFF" fill-opacity="1" class="White" fill-rule="evenodd" />
    </g>
  </g>
  <g id="Layer_1" transform="translate(16, 16.0069)">
    <g id="icon">
      <g>
        <g>
          <path d="M12, 11.5C11.7239, 11.5 11.5, 11.2761 11.5, 11L11.5, 7C11.5, 6.7239 11.7239, 6.5 12, 6.5L13, 6.5C13.2761, 6.5 13.5, 6.7239 13.5, 7L13.5, 11C13.5, 11.2761 13.2761, 11.5 13, 11.5L12, 11.5z" fill="#FFFFFF" fill-opacity="1" class="White" />
        </g>
      </g>
    </g>
  </g>
  <g id="Layer_1" transform="translate(16, 16.0069)">
    <g id="icon">
      <g>
        <g>
          <path d="M13, 7L13, 11L12, 11L12, 7L13, 7M13, 6L12, 6C11.4477, 6 11, 6.4477 11, 7L11, 11C11, 11.5523 11.4477, 12 12, 12L13, 12C13.5523, 12 14, 11.5523 14, 11L14, 7C14, 6.4477 13.5523, 6 13, 6L13, 6z" fill="#FFB115" fill-opacity="1" class="Yellow" />
        </g>
      </g>
    </g>
  </g>
  <g id="Layer_1" transform="translate(16, 16.0069)">
    <g id="icon">
      <g>
        <g>
          <path d="M11.6862, 13.5C11.1424, 13.5 10.7, 13.0576 10.7, 12.5138L10.7, 12.4863C10.7, 11.9425 11.1424, 11.5001 11.6862, 11.5001L13.3137, 11.5001C13.8575, 11.5001 14.2999, 11.9425 14.2999, 12.4863L14.2999, 12.5138C14.2999, 13.0576 13.8575, 13.5 13.3137, 13.5L11.6862, 13.5z" fill="#FFFFFF" fill-opacity="1" class="White" />
        </g>
      </g>
    </g>
  </g>
  <g id="Layer_1" transform="translate(16, 16.0069)">
    <g id="icon">
      <g>
        <g>
          <path d="M13.3138, 12C13.5823, 12 13.8, 12.2177 13.8, 12.4862L13.8, 12.5138C13.8, 12.7823 13.5823, 13 13.3138, 13L11.6862, 13C11.4177, 13 11.2, 12.7823 11.2, 12.5138L11.2, 12.4862C11.2, 12.2177 11.4177, 12 11.6862, 12L13.3138, 12M13.3138, 11L11.6862, 11C10.8667, 11 10.2, 11.6667 10.2, 12.4862L10.2, 12.5138C10.2, 13.3333 10.8667, 14 11.6862, 14L13.3138, 14C14.1333, 14 14.8, 13.3333 14.8, 12.5138L14.8, 12.4862C14.8, 11.6667 14.1333, 11 13.3138, 11L13.3138, 11z" fill="#FFB115" fill-opacity="1" class="Yellow" />
        </g>
      </g>
    </g>
  </g>
  <g id="Layer_1" transform="translate(16, 16.0069)">
    <g id="icon">
      <g>
        <g>
          <path d="M11.6862, 6.5C11.1424, 6.5 10.7, 6.0576 10.7, 5.5138L10.7, 5.4863C10.7, 4.9425 11.1424, 4.5001 11.6862, 4.5001L13.3137, 4.5001C13.8575, 4.5001 14.2999, 4.9425 14.2999, 5.4863L14.2999, 5.5138C14.2999, 6.0576 13.8575, 6.5 13.3137, 6.5L11.6862, 6.5z" fill="#FFFFFF" fill-opacity="1" class="White" />
        </g>
      </g>
    </g>
  </g>
  <g id="Layer_1" transform="translate(16, 16.0069)">
    <g id="icon">
      <g>
        <g>
          <path d="M13.3138, 5C13.5823, 5 13.8, 5.2177 13.8, 5.4862L13.8, 5.5138C13.8, 5.7823 13.5823, 6 13.3138, 6L11.6862, 6C11.4177, 6 11.2, 5.7823 11.2, 5.5138L11.2, 5.4862C11.2, 5.2177 11.4177, 5 11.6862, 5L13.3138, 5M13.3138, 4L11.6862, 4C10.8667, 4 10.2, 4.6667 10.2, 5.4862L10.2, 5.5138C10.2, 6.3333 10.8667, 7 11.6862, 7L13.3138, 7C14.1333, 7 14.8, 6.3333 14.8, 5.5138L14.8, 5.4862C14.8, 4.6667 14.1333, 4 13.3138, 4L13.3138, 4z" fill="#FFB115" fill-opacity="1" class="Yellow" />
        </g>
      </g>
    </g>
  </g>
  <g id="Layer_1" transform="translate(16, 16.0069)">
    <g id="icon">
      <g>
        <g>
          <path d="M3, 11.5C2.7239, 11.5 2.5, 11.2761 2.5, 11L2.5, 7C2.5, 6.7239 2.7239, 6.5 3, 6.5L4, 6.5C4.2761, 6.5 4.5, 6.7239 4.5, 7L4.5, 11C4.5, 11.2761 4.2761, 11.5 4, 11.5L3, 11.5z" fill="#FFFFFF" fill-opacity="1" class="White" />
        </g>
      </g>
    </g>
  </g>
  <g id="Layer_1" transform="translate(16, 16.0069)">
    <g id="icon">
      <g>
        <g>
          <path d="M4, 7L4, 11L3, 11L3, 7L4, 7M4, 6L3, 6C2.4477, 6 2, 6.4477 2, 7L2, 11C2, 11.5523 2.4477, 12 3, 12L4, 12C4.5523, 12 5, 11.5523 5, 11L5, 7C5, 6.4477 4.5523, 6 4, 6L4, 6z" fill="#FFB115" fill-opacity="1" class="Yellow" />
        </g>
      </g>
    </g>
  </g>
  <g id="Layer_1" transform="translate(16, 16.0069)">
    <g id="icon">
      <g>
        <g>
          <path d="M2.6862, 13.5C2.1424, 13.5 1.7, 13.0576 1.7, 12.5138L1.7, 12.4863C1.7, 11.9425 2.1424, 11.5001 2.6862, 11.5001L4.3137, 11.5001C4.8575, 11.5001 5.2999, 11.9425 5.2999, 12.4863L5.2999, 12.5138C5.2999, 13.0576 4.8575, 13.5 4.3137, 13.5L2.6862, 13.5z" fill="#FFFFFF" fill-opacity="1" class="White" />
        </g>
      </g>
    </g>
  </g>
  <g id="Layer_1" transform="translate(16, 16.0069)">
    <g id="icon">
      <g>
        <g>
          <path d="M4.3138, 12C4.5823, 12 4.8, 12.2177 4.8, 12.4862L4.8, 12.5138C4.8, 12.7823 4.5823, 13 4.3138, 13L2.6862, 13C2.4177, 13 2.2, 12.7823 2.2, 12.5138L2.2, 12.4862C2.2, 12.2177 2.4177, 12 2.6862, 12L4.3138, 12M4.3138, 11L2.6862, 11C1.8667, 11 1.2, 11.6667 1.2, 12.4862L1.2, 12.5138C1.2, 13.3333 1.8667, 14 2.6862, 14L4.3138, 14C5.1333, 14 5.8, 13.3333 5.8, 12.5138L5.8, 12.4862C5.8, 11.6667 5.1333, 11 4.3138, 11L4.3138, 11z" fill="#FFB115" fill-opacity="1" class="Yellow" />
        </g>
      </g>
    </g>
  </g>
  <g id="Layer_1" transform="translate(16, 16.0069)">
    <g id="icon">
      <g>
        <g>
          <path d="M2.6862, 6.5C2.1424, 6.5 1.7, 6.0576 1.7, 5.5138L1.7, 5.4863C1.7, 4.9424 2.1424, 4.5 2.6862, 4.5L4.3137, 4.5C4.8576, 4.5 5.3, 4.9424 5.3, 5.4862L5.3, 5.5137C5.3, 6.0576 4.8576, 6.5 4.3138, 6.5L2.6862, 6.5z" fill="#FFFFFF" fill-opacity="1" class="White" />
        </g>
      </g>
    </g>
  </g>
  <g id="Layer_1" transform="translate(16, 16.0069)">
    <g id="icon">
      <g>
        <g>
          <path d="M4.3138, 5C4.5823, 5 4.8, 5.2177 4.8, 5.4862L4.8, 5.5138C4.8, 5.7823 4.5823, 6 4.3138, 6L2.6862, 6C2.4177, 6 2.2, 5.7823 2.2, 5.5138L2.2, 5.4862C2.2, 5.2177 2.4177, 5 2.6862, 5L4.3138, 5M4.3138, 4L2.6862, 4C1.8667, 4 1.2, 4.6667 1.2, 5.4862L1.2, 5.5138C1.2, 6.3333 1.8667, 7 2.6862, 7L4.3138, 7C5.1333, 7 5.8, 6.3333 5.8, 5.5138L5.8, 5.4862C5.8, 4.6667 5.1333, 4 4.3138, 4L4.3138, 4z" fill="#FFB115" fill-opacity="1" class="Yellow" />
        </g>
      </g>
    </g>
  </g>
  <g id="Layer_1" transform="translate(16, 16.0069)">
    <g id="icon">
      <path d="M6, 8L10, 8L10, 14L6, 14L6, 8z" fill="#727272" fill-opacity="1" class="Black" fill-rule="evenodd" />
    </g>
  </g>
  <g id="Layer_1" transform="translate(16, 16.0069)">
    <g id="icon">
      <g>
        <path d="M1, 15.5C0.7239, 15.5 0.5, 15.2761 0.5, 15L0.5, 14C0.5, 13.7239 0.7239, 13.5 1, 13.5L15, 13.5C15.2761, 13.5 15.5, 13.7239 15.5, 14L15.5, 15C15.5, 15.2761 15.2761, 15.5 15, 15.5L1, 15.5z" fill="#FFFFFF" fill-opacity="1" class="White" />
      </g>
    </g>
  </g>
  <g id="Layer_1" transform="translate(16, 16.0069)">
    <g id="icon">
      <g>
        <path d="M15, 14L15, 15L1, 15L1, 14L15, 14M15, 13L1, 13C0.4477, 13 0, 13.4477 0, 14L0, 15C0, 15.5523 0.4477, 16 1, 16L15, 16C15.5523, 16 16, 15.5523 16, 15L16, 14C16, 13.4477 15.5523, 13 15, 13L15, 13z" fill="#FFB115" fill-opacity="1" class="Yellow" />
      </g>
    </g>
  </g>
  <g id="Layer_1" transform="translate(16, 16.0069)">
    <g id="icon">
      <path d="M8.1789, 0.5729L15.4814, 4.5L0.5221, 4.5L8.1789, 0.5729z" fill="#FFFFFF" fill-opacity="1" class="White" stroke="#EEB764" stroke-width="1px" stroke-linecap="round" stroke-linejoin="round" stroke-miterlimit="1" stroke-opacity="1" />
    </g>
  </g>
</svg>