<?xml version='1.0' encoding='UTF-8'?>
<svg viewBox="-1 0 32 32" xmlns="http://www.w3.org/2000/svg" xmlns:xlink="http://www.w3.org/1999/xlink">
  <g id="Layer_1" transform="translate(2.0035, -0.9837)">
    <g transform="matrix(0.9368, 0, 0, 0.9368, 0, 0)">
      <g id="icon">
        <path d="M2.7, 11L29.7, 11L29.7, 13L2.6, 13L2.7, 11z" fill="#039C23" class="Green" fill-rule="evenodd" />
      </g>
    </g>
  </g>
  <g id="Layer_1" transform="translate(2.0035, -0.9837)">
    <g transform="matrix(0.9368, 0, 0, 0.9368, 0, 0)">
      <g id="icon">
        <path d="M2.6, 19L29.7, 19L29.7, 21L3, 21L2.6, 19z" fill="#039C23" class="Green" fill-rule="evenodd" />
      </g>
    </g>
  </g>
  <g id="Layer_1" transform="translate(2.0035, -0.9837)">
    <g transform="matrix(0.9368, 0, 0, 0.9368, 0, 0)">
      <g id="icon">
        <path d="M19.4033, 2.4964L17.1091, 2.4964C17.1091, 2.4964 19.8, 9.5494 19.8, 15.8643C19.8, 21.9923 17.1091, 29.3505 17.1091, 29.3505L19.4033, 29.3505C19.4033, 29.3505 22.0942, 22.0658 22.0942, 15.9764C22.0942, 9.6256 19.4033, 2.4964 19.4033, 2.4964z" fill="#039C23" class="Green" fill-rule="evenodd" />
      </g>
    </g>
  </g>
  <g id="Layer_1" transform="translate(2.0035, -0.9837)">
    <g transform="matrix(0.9368, 0, 0, 0.9368, 0, 0)">
      <g id="icon">
        <path d="M12.765, 2.4964L14.9292, 2.4964C14.9292, 2.4964 12.2383, 9.5494 12.2383, 15.8643C12.2383, 21.9923 14.9292, 29.3505 14.9292, 29.3505L12.765, 29.3505C12.765, 29.3505 10, 22.0658 10, 15.9764C10, 9.6256 12.765, 2.4964 12.765, 2.4964z" fill="#039C23" class="Green" fill-rule="evenodd" />
      </g>
    </g>
  </g>
  <g id="Layer_1" transform="translate(2.0035, -0.9837)">
    <g transform="matrix(0.9368, 0, 0, 0.9368, 0, 0)">
      <g id="icon">
        <path d="M16.007, 30.9366C7.7674, 30.9366 1.064, 24.2331 1.064, 15.9933C1.064, 7.7535 7.7674, 1.05 16.007, 1.05C24.2466, 1.05 30.95, 7.7535 30.95, 15.9933C30.95, 24.2331 24.2466, 30.9366 16.007, 30.9366zM16.007, 3.5966C9.1716, 3.5966 3.6106, 9.1577 3.6106, 15.9933C3.6106, 22.8289 9.1716, 28.39 16.007, 28.39C22.8424, 28.39 28.4034, 22.8289 28.4034, 15.9933C28.4034, 9.1577 22.8424, 3.5966 16.007, 3.5966z" fill="#039C23" class="Green" />
      </g>
    </g>
  </g>
  <g id="Layer_1" transform="translate(-1, 16)">
    <g id="icon">
      <path d="M14.6917, 14L14, 14L14, 0.3083C14, 0.138 13.862, 0 13.6917, 0L2.3083, 0C2.138, 0 2, 0.138 2, 0.3083L2, 14L1.3083, 14C1.138, 14 1, 14.138 1, 14.3083L1, 15.6916C1, 15.8619 1.138, 15.9999 1.3083, 15.9999L2.3083, 15.9999L13.6916, 15.9999L14.6916, 15.9999C14.8619, 15.9999 14.9999, 15.8619 14.9999, 15.6916L14.9999, 14.3083C15, 14.138 14.862, 14 14.6917, 14zM7, 1L9, 1L9, 3L7, 3L7, 1zM7, 4L9, 4L9, 6L7, 6L7, 4zM7, 7L9, 7L9, 9L7, 9L7, 7zM7, 10L9, 10L9, 12L7, 12L7, 10zM4, 1L6, 1L6, 3L4, 3L4, 1zM4, 4L6, 4L6, 6L4, 6L4, 4zM4, 7L6, 7L6, 9L4, 9L4, 7zM4, 10L6, 10L6, 12L4, 12L4, 10zM10, 15L6, 15L6, 13L10, 13L10, 15zM12, 12L10, 12L10, 10L12, 10L12, 12zM12, 9L10, 9L10, 7L12, 7L12, 9zM12, 6L10, 6L10, 4L12, 4L12, 6zM12, 3L10, 3L10, 1L12, 1L12, 3z" fill="#1177D7" class="Blue" />
    </g>
  </g>
  <g id="Layer_1" transform="translate(-1, 16)">
    <g id="icon">
      <path d="M6, 3L4, 3L4, 1L6, 1L6, 3zM9, 1L7, 1L7, 3L9, 3L9, 1zM12, 1L10, 1L10, 3L12, 3L12, 1zM6, 6L4, 6L4, 4L6, 4L6, 6zM9, 4L7, 4L7, 6L9, 6L9, 4zM12, 4L10, 4L10, 6L12, 6L12, 4zM6, 9L4, 9L4, 7L6, 7L6, 9zM9, 7L7, 7L7, 9L9, 9L9, 7zM12, 7L10, 7L10, 9L12, 9L12, 7zM6, 12L4, 12L4, 10L6, 10L6, 12zM9, 10L7, 10L7, 12L9, 12L9, 10zM10, 13L6, 13L6, 15L10, 15L10, 13zM12, 10L10, 10L10, 12L12, 12L12, 10z" fill="#FFFFFF" />
    </g>
  </g>
</svg>