<?xml version='1.0' encoding='UTF-8'?>
<svg viewBox="-2.0275 -2 32 32" xmlns="http://www.w3.org/2000/svg" xmlns:xlink="http://www.w3.org/1999/xlink">
  <clipPath id="clip_mask" tag="staticElement_id23325828">
    <path d="M20.87, 30.4894C17.0372, 27.0724 15.1, 25.3572 15.1, 22.167L15.1, 22.1539C15.2, 19.3031 17.5321, 16.9838 20.4217, 16.9838C21.79, 16.9838 23.0681, 17.5276 24.0566, 18.5085C25.0451, 17.5276 26.3199, 16.9838 27.6882, 16.9838C29.4451, 16.9838 31.028, 17.8421 32, 19.155L32, 0L0, 0L0, 32L22.5662, 32C21.9583, 31.4539 21.3864, 30.9497 20.87, 30.4894z" fill="#727272" fill-opacity="1" class="Black" fill-rule="evenodd" />
  </clipPath>
  <g id="Layer_1" transform="translate(-0.0537, 0)">
    <g transform="matrix(0.875, 0, 0, 0.875, 0, 0)">
      <g transform="matrix(1, 0, 0, 1, 0, 0)">
        <g id="main">
          <g id="icon" clip-path="url(#clip_mask)">
            <g id="transformed_icon" transform="translate(-1, -1)">
              <path d="M30.831, 20.515C30.242, 17.497 29.194, 17.447 23.462, 15.393C22.625, 15.074 22.389, 14.615 22.452, 13.96C24.069, 11.999 25.043, 8.827 25.043, 6.609C25.043, 3.175 23.888, 0.999 19.157, 0.999C14.859, 0.999 13.591, 2.795 13.395, 5.699C15.583, 5.707 18.504, 6.838 19.569, 10.009C20.118, 11.643 20.187, 13.315 20.208, 14.753C20.226, 15.944 20.292, 16.83 20.424, 17.628C20.566, 18.486 20.779, 18.942 21.158, 19.204C21.626, 19.527 21.907, 20.059 21.912, 20.628C21.917, 21.2 21.642, 21.74 21.176, 22.073C20.687, 22.422 20.179, 22.683 19.665, 22.877C19.815, 22.918 19.971, 22.959 20.135, 23.002C21.417, 23.337 23.046, 23.763 24.293, 24.87C27.291, 24.787 30.241, 24.501 30.565, 23.579C31.037, 22.236 31.008, 21.728 30.831, 20.515z" fill="#1177D7" fill-opacity="1" class="Blue" fill-rule="evenodd" />
            </g>
          </g>
        </g>
      </g>
    </g>
  </g>
  <g id="Layer_1" transform="translate(-0.0537, 0)">
    <g transform="matrix(0.875, 0, 0, 0.875, 0, 0)">
      <g transform="matrix(1, 0, 0, 1, 0, 0)">
        <g id="main">
          <g id="icon" clip-path="url(#clip_mask)">
            <g id="transformed_icon" transform="translate(-1, -1)">
              <path d="M16.318, 22.152C17.785, 22.097 19.198, 21.89 20.421, 21.017C20.676, 20.835 20.678, 20.453 20.42, 20.276C19.588, 19.702 19.298, 18.79 19.141, 17.842C18.974, 16.834 18.922, 15.799 18.907, 14.774C18.885, 13.298 18.812, 11.843 18.336, 10.424C17.457, 7.809 14.949, 6.868 12.974, 7.015C12.285, 7.066 11.659, 7.34 11.112, 7.785C10.976, 7.896 10.778, 8 10.613, 7.995C8.955, 7.942 7.964, 8.922 7.434, 10.218C7.082, 11.079 6.898, 11.986 6.879, 12.906C6.857, 13.969 6.923, 15.034 6.973, 16.097C7.025, 17.198 6.946, 18.273 6.42, 19.269C6.174, 19.734 5.949, 20.006 5.549, 20.291C5.293, 20.474 5.291, 20.85 5.546, 21.035C6.284, 21.568 7.641, 21.929 9.652, 22.122C8.504, 25.498 1.06, 22.796 1.06, 29.818C1.06, 30.928 4.748, 30.967 6.606, 30.967C7.212, 30.967 10.73, 30.967 12.644, 30.967C12.671, 30.967 12.698, 30.967 12.724, 30.967C12.914, 30.967 13.086, 30.967 13.237, 30.967C13.264, 30.967 13.291, 30.967 13.317, 30.967C15.231, 30.967 18.749, 30.967 19.355, 30.967C21.213, 30.967 24.901, 30.927 24.901, 29.818C24.9, 22.816 17.5, 25.481 16.318, 22.152z" fill="#039C23" fill-opacity="1" class="Green" />
            </g>
          </g>
        </g>
      </g>
    </g>
  </g>
  <g id="Layer_1" transform="translate(-0.0537, 0)">
    <g transform="matrix(0.875, 0, 0, 0.875, 0, 0)">
      <g transform="matrix(1, 0, 0, 1, 0, 0)">
        <g id="main">
          <g id="overlay">
            <path d="M32, 22.167C31.9478, 18.1909 26.5696, 16.1943 24.0763, 20.0779C24.0719, 20.1106 24.0546, 20.1106 24.0502, 20.0779C21.5569, 16.1943 16.1787, 18.1909 16.1265, 22.167C16.1265, 25.4634 18.5982, 27.0005 24.0477, 31.9935C24.0485, 32.0023 24.0779, 32.0023 24.0787, 31.9935C29.5283, 27.0005 32, 25.4633 32, 22.167z" fill="#D11C1C" fill-opacity="1" class="Red" fill-rule="evenodd" />
          </g>
        </g>
      </g>
    </g>
  </g>
</svg>