<?xml version='1.0' encoding='UTF-8'?>
<svg viewBox="-4.3325 -1.9975 32 32" xmlns="http://www.w3.org/2000/svg" xmlns:xlink="http://www.w3.org/1999/xlink">
  <g transform="translate(0.0008, 0.0025)">
    <g transform="matrix(1.1667, 0, 0, 1.1667, 0, 0)">
      <g transform="translate(-0.0003, -0.0025)">
        <g transform="matrix(0.75, 0, 0, 0.75, 0, 0)">
          <g transform="translate(-0.0008, 0)">
            <g transform="matrix(1.3333, 0, 0, 1.3333, 0, 0)">
              <g id="Layer_1" transform="translate(-6, -4)" style="enable-background:new 0 0 32 32">
                <g id="Book">
                  <path d="M9, 6L26, 6L26, 5C26, 4.4 25.6, 4 25, 4L9, 4C7.3, 4 6, 5.3 6, 7L6, 25C6, 26.7 7.3, 28 9, 28L25, 28C25.6, 28 26, 27.6 26, 27L26, 8L9, 8C8.4, 8 8, 7.6 8, 7C8, 6.4 8.4, 6 9, 6z" fill="#727272" class="Black" />
                </g>
              </g>
            </g>
          </g>
        </g>
      </g>
    </g>
  </g>
</svg>