<?xml version='1.0' encoding='UTF-8'?>
<svg viewBox="-2.03 -2 32 32" xmlns="http://www.w3.org/2000/svg" xmlns:xlink="http://www.w3.org/1999/xlink">
  <clipPath id="clip_mask" tag="staticElement_id16670523">
    <path d="M17.3616, 31.5624C17.0158, 30.5912 17.034, 30.1241 17.1576, 29.2899L17.1613, 29.266L17.166, 29.2422C17.5911, 27.0962 18.5834, 26.7519 21.235, 25.8317C21.4367, 25.7618 21.6511, 25.6874 21.879, 25.6075C20.9907, 24.2217 20.581, 22.4657 20.581, 21.2962C20.581, 19.4611 21.04, 17.0001 25.0078, 17.0001C25.0078, 17.0001 25.0107, 17.0001 25.0122, 17.0001C28.0319, 17.0001 29.4997, 18.4187 29.4997, 21.2962C29.4997, 22.4659 29.0894, 24.2129 28.2002, 25.6002C28.4283, 25.6801 28.643, 25.7595 28.8448, 25.8296C30.3866, 26.3645 31.3662, 26.706 32.0001, 27.3204L32.0001, 0L0, 0L0, 32L17.6098, 32C17.5006, 31.8697 17.4194, 31.7245 17.3616, 31.5624z" fill="#727272" fill-opacity="1" class="Black" fill-rule="evenodd" />
  </clipPath>
  <g id="Layer_1" transform="translate(-0.0613, 0)">
    <g transform="matrix(0.875, 0, 0, 0.875, 0, 0)">
      <g transform="matrix(1, 0, 0, 1, 0, 0)">
        <g id="main">
          <g id="icon" clip-path="url(#clip_mask)">
            <g id="transformed_icon" transform="translate(-1, -1)">
              <path d="M30.8411, 25.4956C30.0907, 21.7078 28.756, 21.6446 21.4573, 19.0667C20.3916, 18.6663 20.0907, 18.0903 20.1705, 17.2682C22.2293, 14.8068 23.4697, 10.8249 23.4697, 8.0413C23.4697, 3.7306 21.999, 1 15.9746, 1C15.9498, 1 15.9827, 1 15.9746, 1C9.9502, 1 8.6006, 3.7306 8.6006, 8.0414C8.6006, 10.825 9.8362, 14.7991 11.8949, 17.2605C11.9747, 18.0826 11.6714, 18.6624 10.6057, 19.0628C3.307, 21.6407 1.9711, 21.7058 1.2207, 25.4936C0.9951, 27.0161 0.9575, 27.6544 1.5582, 29.3415C2.2343, 31.2405 11.7912, 30.992 15.9745, 30.992C15.9914, 30.992 15.9458, 30.992 15.9745, 30.992C20.1579, 30.992 29.8268, 31.2413 30.5029, 29.3424C31.1037, 27.6554 31.0667, 27.0181 30.8411, 25.4956z" fill="#D11C1C" fill-opacity="1" class="Red" fill-rule="evenodd" />
            </g>
          </g>
        </g>
      </g>
    </g>
  </g>
  <g id="Layer_1" transform="translate(-0.0613, 0)">
    <g transform="matrix(0.875, 0, 0, 0.875, 0, 0)">
      <g transform="matrix(1, 0, 0, 1, 0, 0)">
        <g id="main">
          <g id="overlay">
            <path d="M31.9295, 29.4375C31.5803, 27.675 30.9593, 27.6456 27.5632, 26.4461C27.0673, 26.2598 26.9273, 25.9918 26.9645, 25.6093C27.9224, 24.464 28.4996, 22.6112 28.4996, 21.316C28.4996, 19.3102 27.8153, 18.0396 25.0121, 18.0396C25.0006, 18.0396 25.0159, 18.0396 25.0121, 18.0396C22.2089, 18.0396 21.581, 19.3101 21.581, 21.316C21.581, 22.6112 22.1559, 24.4604 23.1139, 25.6057C23.151, 25.9882 23.0099, 26.258 22.514, 26.4443C19.1179, 27.6438 18.4963, 27.6741 18.1471, 29.4366C18.0421, 30.145 18.0246, 30.442 18.3041, 31.227C18.6187, 32.1106 23.0655, 31.995 25.0121, 31.995C25.02, 31.995 24.9988, 31.995 25.0121, 31.995C26.9586, 31.995 31.4576, 32.111 31.7722, 31.2274C32.0517, 30.4424 32.0345, 30.1459 31.9295, 29.4375z" fill="#039C23" fill-opacity="1" class="Green" fill-rule="evenodd" />
          </g>
        </g>
      </g>
    </g>
  </g>
</svg>