<?xml version='1.0' encoding='UTF-8'?>
<svg viewBox="-2.1925 -2 32 32" xmlns="http://www.w3.org/2000/svg" xmlns:xlink="http://www.w3.org/1999/xlink">
  <clipPath id="clip_mask" tag="staticElement_id19365543">
    <path d="M16, 31.6691L16, 29.2912C16, 28.9384 16.1357, 28.6064 16.3823, 28.3565L16.3916, 28.3472C16.4312, 28.3081 20.0213, 24.7638 21.692, 23.0988C21.5878, 22.6645 21.5351, 22.2185 21.5351, 21.7663C21.5351, 19.0645 23.4482, 16.7234 26.0895, 16.1854C26.4982, 16.076 26.9185, 16.0145 27.3394, 16.0022C27.3938, 16.0006 27.4476, 15.9999 27.5015, 15.9999C29.0066, 15.9999 30.4117, 16.5964 31.4578, 17.6795C31.657, 17.8857 31.8377, 18.1045 32, 18.3338L32, 0L0, 0L0, 32L16.0432, 32C16.016, 31.894 16, 31.7835 16, 31.6691z" fill="#727272" fill-opacity="1" class="Black" />
  </clipPath>
  <g id="Layer_1" transform="translate(-0.4075, -0.025)">
    <g transform="matrix(0.8758, 0, 0, 0.8758, 0, 0)">
      <g transform="matrix(1, 0, 0, 1, 0, 0)">
        <g id="main">
          <g id="icon" clip-path="url(#clip_mask)">
            <g id="transformed_icon" transform="translate(-1, -1)">
              <path d="M30.5697, 27.105C29.6237, 20.0469 30.3015, 20.1375 22.1692, 17.3188C21.9476, 17.2142 21.7701, 17.1309 21.6216, 17.0673C21.4505, 17.464 21.2773, 17.8437 21.1031, 18.2087C21.512, 18.3541 21.8814, 18.4891 22.1915, 18.5967C25.4144, 19.7166 27.1592, 20.3673 27.9619, 21.185C28.6769, 21.9135 28.8426, 23.0308 29.1803, 25.7124C29.2403, 26.1882 29.3052, 26.7039 29.3803, 27.2644L29.3831, 27.2846C29.389, 27.323 29.3962, 27.3707 29.2932, 27.4908C29.0286, 27.799 27.7278, 28.8502 22.1009, 29.4357C18.9524, 29.7633 16.0274, 29.775 15.9391, 29.7753C15.8522, 29.775 12.9689, 29.7634 9.8628, 29.4371C4.3149, 28.8544 3.0243, 27.8081 2.7608, 27.5013C2.6541, 27.377 2.6618, 27.3258 2.668, 27.2847L2.6709, 27.2645C2.7545, 26.6407 2.8258, 26.0651 2.8887, 25.5573C3.2241, 22.8496 3.3752, 21.8779 4.0652, 21.1832C4.8746, 20.3684 6.6729, 19.7121 10.0266, 18.5488C10.4235, 18.3942 10.7943, 18.2487 11.1494, 18.1125C10.9741, 17.7516 10.7979, 17.3771 10.6214, 16.9862C10.5751, 17.0054 10.2586, 17.1406 9.7969, 17.3584C1.6646, 20.1771 2.4275, 20.047 1.4815, 27.1051C0.8988, 30.9542 15.939, 30.9754 15.939, 30.9754C15.939, 30.9754 31.1524, 30.9541 30.5697, 27.105z" fill="#727272" fill-opacity="1" class="Black" fill-rule="evenodd" />
            </g>
          </g>
        </g>
      </g>
    </g>
  </g>
  <g id="Layer_1" transform="translate(-0.4075, -0.025)">
    <g transform="matrix(0.8758, 0, 0, 0.8758, 0, 0)">
      <g transform="matrix(1, 0, 0, 1, 0, 0)">
        <g id="main">
          <g id="icon" clip-path="url(#clip_mask)">
            <g id="transformed_icon" transform="translate(-1, -1)">
              <path d="M16.0947, 1.0273C10.2753, 1.0273 8.9551, 3.601 8.9551, 7.6872C8.9551, 11.7734 11.8179, 18.55 16.0628, 18.55C20.3077, 18.55 23.2829, 11.7735 23.2829, 7.6873C23.2829, 3.6011 21.8497, 1.0273 16.0947, 1.0273zM16.0391, 17.0641C12.5565, 17.0641 10.411, 11.4935 10.411, 8.0184C10.411, 7.9146 10.4133, 7.8121 10.4174, 7.7106C13.2226, 7.5789 18.5568, 6.953 20.3024, 5.7667C20.434, 6.3149 21.0705, 7.2891 21.6601, 7.7055C21.6643, 7.8086 21.6666, 7.9129 21.6666, 8.0184C21.6667, 11.4935 19.5217, 17.0641 16.0391, 17.0641z" fill="#727272" fill-opacity="1" class="Black" fill-rule="evenodd" />
            </g>
          </g>
        </g>
      </g>
    </g>
  </g>
  <g id="Layer_1" transform="translate(-0.4075, -0.025)">
    <g transform="matrix(0.8758, 0, 0, 0.8758, 0, 0)">
      <g transform="matrix(1, 0, 0, 1, 0, 0)">
        <g id="main">
          <g id="icon" clip-path="url(#clip_mask)">
            <g id="transformed_icon" transform="translate(-1, -1)">
              <path d="M14.2688, 20.1955C14.3154, 18.9879 14.7751, 19.2218 16.0684, 19.2218C17.3617, 19.2218 17.8419, 18.988 17.7953, 20.1932C17.8073, 20.7397 17.4266, 20.97 16.9563, 21.5069C16.9338, 23.3877 17.7455, 30.0226 17.7455, 30.0226L16.0437, 30.4L14.4739, 29.9788C14.4739, 29.9788 15.1205, 23.4106 15.1712, 21.5048C14.8164, 20.9383 14.2688, 20.754 14.2688, 20.1955z" fill="#1177D7" fill-opacity="1" class="Blue" fill-rule="evenodd" />
            </g>
          </g>
        </g>
      </g>
    </g>
  </g>
  <g id="Layer_1" transform="translate(-0.4075, -0.025)">
    <g transform="matrix(0.8758, 0, 0, 0.8758, 0, 0)">
      <g transform="matrix(1, 0, 0, 1, 0, 0)">
        <g id="main">
          <g id="overlay">
            <path d="M27.3685, 17.0019C27.0065, 17.0124 26.6552, 17.067 26.319, 17.1594C24.1622, 17.5842 22.5351, 19.4849 22.5351, 21.7664C22.5351, 22.335 22.6362, 22.8799 22.8213, 23.3843C21.4287, 24.7798 17.0941, 29.0589 17.0941, 29.0589C17.033, 29.1208 17, 29.2043 17, 29.2912L17, 31.6692C17, 31.8519 17.1458, 32 17.3286, 32L20.9352, 32C21.1179, 32 21.2, 31.8519 21.2, 31.6692L21.2, 30.1244L23.2572, 30.125C23.4399, 30.125 23.6, 30.0259 23.6, 29.8432L23.6, 28.0625C23.6, 28.0625 25.1313, 26.4392 25.4783, 26.1156C26.0253, 26.3387 26.6137, 26.4627 27.241, 26.4627C29.523, 26.4627 31.4194, 24.8348 31.8435, 22.6771C31.9334, 22.3496 31.9852, 22.0079 31.9974, 21.6559C32.0878, 19.0554 29.9656, 16.9269 27.3685, 17.0019zM28.5632, 19.243C29.26, 19.243 29.8249, 19.8079 29.8249, 20.5047C29.8249, 21.2015 29.26, 21.7664 28.5632, 21.7664C27.8664, 21.7664 27.3015, 21.2015 27.3015, 20.5047C27.3015, 19.8079 27.8663, 19.243 28.5632, 19.243z" fill="#FFB115" fill-opacity="1" class="Yellow" />
          </g>
        </g>
      </g>
    </g>
  </g>
</svg>