<?xml version='1.0' encoding='UTF-8'?>
<svg viewBox="-2.8759 -2 31.9984 32" xmlns="http://www.w3.org/2000/svg" xmlns:xlink="http://www.w3.org/1999/xlink">
  <clipPath id="clip_mask" tag="staticElement_id35228413">
    <path d="M23.135, 31.7732L21.911, 31.7587C21.4444, 31.7533 21.0264, 31.5088 20.7929, 31.1048C20.5593, 30.7007 20.5561, 30.2164 20.7843, 29.8093L22.64, 26.4981C21.2712, 25.3416 20.4004, 23.6129 20.4004, 21.6848C20.4004, 18.2111 23.2265, 15.3849 26.7003, 15.3849C28.9226, 15.3849 30.8783, 16.5426 32.0001, 18.2855L32.0001, 0L0, 0L0, 32L23.3675, 32L23.135, 31.7732z" />
  </clipPath>
  <g id="Layer_1" transform="translate(-1.7498, 0)">
    <g transform="matrix(0.8749, 0, 0, 0.8749, 0, 0)">
      <g id="main">
        <g id="icon" clip-path="url(#clip_mask)">
          <g id="transformed_icon" transform="translate(-1, -1)">
            <path d="M26.6, 30.5L4.4, 30.5C3.7649, 30.5 3.5, 30.2406 3.5, 29.6L3.5, 2.4C3.5, 1.7593 3.7649, 1.5 4.4, 1.5C4.4, 1.5 21.0709, 1.5 21.3083, 1.5C21.5458, 1.5 21.8578, 1.5496 22.2081, 1.8998C22.5073, 2.199 25.6164, 5.3164 27.1, 6.8C27.3527, 7.0527 27.5, 7.35 27.5, 7.8C27.5, 8.1125 27.5, 29.6 27.5, 29.6C27.5, 30.2406 27.2351, 30.5 26.6, 30.5z" fill="#FFFFFF" stroke="#000000" stroke-width="1px" stroke-miterlimit="1" fill-rule="evenodd" />
          </g>
        </g>
      </g>
    </g>
  </g>
  <g id="Layer_1" transform="translate(-1.7498, 0)">
    <g transform="matrix(0.8749, 0, 0, 0.8749, 0, 0)">
      <g id="main">
        <g id="icon" clip-path="url(#clip_mask)">
          <g id="transformed_icon" transform="translate(-1, -1)">
            <path d="M21.5, 1.5L21.5, 6.7C21.5, 7.1418 21.8582, 7.5 22.3, 7.5L27.5, 7.5" fill="#FFFFFF" class="White" stroke="#000000" stroke-width="1px" stroke-miterlimit="1" fill-rule="evenodd" />
          </g>
        </g>
      </g>
    </g>
  </g>
  <g id="Layer_1" transform="translate(-1.7498, 0)">
    <g transform="matrix(0.8749, 0, 0, 0.8749, 0, 0)">
      <g id="main">
        <g id="icon" clip-path="url(#clip_mask)">
          <g id="transformed_icon" transform="translate(-1, -1)">
            <path d="M6, 10L6, 27L25, 27L25, 10L6, 10zM12, 26L7, 26L7, 23L12, 23L12, 26zM12, 22L7, 22L7, 19L12, 19L12, 22zM12, 18L7, 18L7, 15L12, 15L12, 18zM12, 14L7, 14L7, 11L12, 11L12, 14zM18, 26L13, 26L13, 23L18, 23L18, 26zM18, 22L13, 22L13, 19L18, 19L18, 22zM18, 18L13, 18L13, 15L18, 15L18, 18zM18, 14L13, 14L13, 11L18, 11L18, 14zM24, 26L19, 26L19, 23L24, 23L24, 26zM24, 22L19, 22L19, 19L24, 19L24, 22zM24, 18L19, 18L19, 15L24, 15L24, 18zM24, 14L19, 14L19, 11L24, 11L24, 14z" fill="#727272" class="Black" />
          </g>
        </g>
      </g>
    </g>
  </g>
  <g id="Layer_1" transform="translate(-1.7498, 0)">
    <g transform="matrix(0.8749, 0, 0, 0.8749, 0, 0)">
      <g id="main">
        <g id="icon" clip-path="url(#clip_mask)">
          <g id="transformed_icon" transform="translate(-1, -1)">
            <path d="M7, 11L12, 11L12, 14L7, 14L7, 11zM7, 18L12, 18L12, 15L7, 15L7, 18zM7, 22L12, 22L12, 19L7, 19L7, 22zM7, 26L12, 26L12, 23L7, 23L7, 26zM13, 14L18, 14L18, 11L13, 11L13, 14zM19, 11L19, 14L24, 14L24, 11L19, 11z" fill="#FFFFFF" class="White" fill-rule="evenodd" />
          </g>
        </g>
      </g>
    </g>
  </g>
  <g id="Layer_1" transform="translate(-1.7498, 0)">
    <g transform="matrix(0.8749, 0, 0, 0.8749, 0, 0)">
      <g id="main">
        <g id="overlay">
          <path d="M26.7002, 16.385C29.6272, 16.385 32, 18.7578 32, 21.6848C32, 24.6118 29.6272, 26.9846 26.7002, 26.9846C23.7732, 26.9846 21.4004, 24.6118 21.4004, 21.6848C21.4004, 18.7578 23.7732, 16.385 26.7002, 16.385zM29.904, 27.0209C29.0724, 27.5237 28.112, 27.8345 27.084, 27.8935L28.174, 31.7742C28.2375, 32.0002 28.5197, 32.0759 28.6878, 31.912L29.8506, 30.7781L31.4746, 30.7589C31.7093, 30.7561 31.8555, 30.5032 31.7408, 30.2984L29.904, 27.0209zM26.3145, 27.8893L25.2233, 31.7742C25.1598, 32.0002 24.8776, 32.0759 24.7095, 31.912L23.5467, 30.7781L21.9227, 30.7589C21.688, 30.7561 21.5418, 30.5032 21.6565, 30.2984L23.5077, 26.9952C24.3342, 27.5038 25.29, 27.8214 26.3145, 27.8893z" fill="#D11C1C" class="Red" />
        </g>
      </g>
    </g>
  </g>
</svg>