<?xml version='1.0' encoding='UTF-8'?>
<svg viewBox="-2 -2 32 32" xmlns="http://www.w3.org/2000/svg" xmlns:xlink="http://www.w3.org/1999/xlink">
  <g id="Layer_1" transform="translate(-2, -2)" style="enable-background:new 0 0 32 32">
    <g id="DoughnutChart">
      <path d="M19.5, 20.9C18.5, 21.6 17.3, 22 16, 22C14.7, 22 13.5, 21.6 12.5, 20.9L6.8, 26.6C9.3, 28.7 12.5, 30 16, 30C19.5, 30 22.7, 28.7 25.2, 26.6L19.5, 20.9z" fill="#FFB115" class="Yellow" />
    </g>
  </g>
  <g id="Layer_1" transform="translate(-2, -2)" style="enable-background:new 0 0 32 32">
    <g id="DoughnutChart">
      <path d="M26.6, 6.8L20.9, 12.5C21.6, 13.5 22, 14.7 22, 16C22, 17.3 21.6, 18.5 20.9, 19.5L26.6, 25.2C28.7, 22.7 30, 19.5 30, 16C30, 12.5 28.7, 9.3 26.6, 6.8z" fill="#039C23" class="Green" />
    </g>
  </g>
  <g id="Layer_1" transform="translate(-2, -2)" style="enable-background:new 0 0 32 32">
    <g id="DoughnutChart">
      <path d="M10, 16C10, 12.7 12.7, 10 16, 10C17.3, 10 18.5, 10.4 19.5, 11.1L25.2, 5.4C22.7, 3.3 19.5, 2 16, 2C8.3, 2 2, 8.3 2, 16C2, 19.5 3.3, 22.7 5.4, 25.2L11.1, 19.5C10.4, 18.5 10, 17.3 10, 16z" fill="#D11C1C" class="Red" />
    </g>
  </g>
  <g id="Layer_1" transform="translate(14, 14)" style="enable-background:new 0 0 16 16">
    <g id="Settings">
      <path d="M16, 9L16, 7L13.5, 6.4C13.4, 6 13.2, 5.6 13, 5.2L14.5, 3.1L12.9, 1.5L10.8, 3C10.4, 2.8 10, 2.6 9.6, 2.5L9, 0L7, 0L6.4, 2.5C6, 2.6 5.6, 2.8 5.2, 3L3.2, 1.5L1.5, 3.2L3, 5.2C2.8, 5.6 2.6, 6 2.5, 6.4L0, 7L0, 9L2.5, 9.6C2.6, 10 2.8, 10.4 3, 10.8L1.5, 12.9L3.1, 14.5L5.2, 13C5.6, 13.2 6, 13.4 6.4, 13.5L7, 16L9, 16L9.6, 13.5C10, 13.4 10.4, 13.2 10.8, 13L12.9, 14.5L14.5, 12.9L13, 10.8C13.2, 10.4 13.4, 10 13.5, 9.6L16, 9z" fill="#1177D7" class="Blue" />
    </g>
  </g>
  <g id="Layer_1" transform="translate(14, 14)" style="enable-background:new 0 0 16 16">
    <g id="Settings">
      <circle cx="8" cy="8" r="2" fill="#FFFFFF" class="White" />
    </g>
  </g>
</svg>