<?xml version='1.0' encoding='UTF-8'?>
<svg viewBox="0 -4 32 32" xmlns="http://www.w3.org/2000/svg" xmlns:xlink="http://www.w3.org/1999/xlink">
  <g id="Layer_1" transform="translate(0, -4)" style="enable-background:new 0 0 32 32">
    <g id="Box">
      <polygon points="18,4 10,4 2,12 10,12  " fill="#039C23" class="Green" />
    </g>
  </g>
  <g id="Layer_1" transform="translate(0, -4)" style="enable-background:new 0 0 32 32">
    <g id="Box">
      <rect x="2" y="14" width="20" height="14" rx="0" ry="0" fill="#1177D7" class="Blue" />
    </g>
  </g>
  <g id="Layer_1" transform="translate(0, -4)" style="enable-background:new 0 0 32 32">
    <g id="Box">
      <polygon points="24,28 30,22 30,6.8 24,12.8  " fill="#FFB115" class="Yellow" />
    </g>
  </g>
  <g id="Layer_1" transform="translate(0, -4)" style="enable-background:new 0 0 32 32">
    <g id="Box">
      <polygon points="21,4 13,12 21.9,12 29.9,4  " fill="#D11C1C" class="Red" />
    </g>
  </g>
  <g id="Layer_1" transform="translate(0, 12)" style="enable-background:new 0 0 16 16">
    <g id="Delete_1_">
      <path d="M10.8, 8L15.7, 3.1C16.1, 2.7 16.1, 2.1 15.7, 1.7L14.3, 0.3C13.9, -0.1 13.3, -0.1 12.9, 0.3L8, 5.2L3.1, 0.3C2.7, -0.1 2.1, -0.1 1.7, 0.3L0.3, 1.7C-0.1, 2.1 -0.1, 2.7 0.3, 3.1L5.2, 8L0.3, 12.9C-0.1, 13.3 -0.1, 13.9 0.3, 14.3L1.7, 15.7C2.1, 16.1 2.7, 16.1 3.1, 15.7L8, 10.8L12.9, 15.7C13.3, 16.1 13.9, 16.1 14.3, 15.7L15.7, 14.3C16.1, 13.9 16.1, 13.3 15.7, 12.9L10.8, 8z" fill="#D11C1C" class="Red" />
    </g>
  </g>
</svg>