<?xml version='1.0' encoding='UTF-8'?>
<svg viewBox="-2.4222 -2 31.9997 32" xmlns="http://www.w3.org/2000/svg" xmlns:xlink="http://www.w3.org/1999/xlink">
  <g id="Layer_1" transform="translate(-0.875, 0)">
    <g transform="matrix(0.875, 0, 0, 0.875, 0, 0)">
      <g id="main">
        <g id="icon">
          <path d="M4.038, 0.0264L3.794, 0.1021L3.381, 0.3807L3.102, 0.7939L3.026, 1.038L3, 1.3L3, 28.7L3.026, 28.96L3.102, 29.21L3.381, 29.62L3.794, 29.9L4.038, 29.97L4.3, 30L16.42, 30L18.77, 28L6, 28L5, 28L4, 28L4, 26L5, 26L5, 24L4, 24L4, 22L5, 22L5, 20L4, 20L4, 18L5, 18L5, 16L4, 16L4, 14L5, 14L5, 12L4, 12L4, 10L5, 10L5, 8L4, 8L4, 6L5, 6L5, 4L4, 4L4, 2L5, 2L6, 2L27, 2L27, 20.99L29, 19.29L29, 1.3L28.97, 1.038L28.9, 0.7939L28.62, 0.3807L28.21, 0.1021L27.96, 0.0264L27.7, 0L4.3, 0zz" fill="#1177D7" class="Blue" />
        </g>
      </g>
    </g>
  </g>
  <g id="Layer_1" transform="translate(-0.875, 0)">
    <g transform="matrix(0.875, 0, 0, 0.875, 0, 0)">
      <g id="main">
        <g id="icon">
          <path d="M5, 27.9L18.89, 27.9L27, 20.99L27, 1.9L5, 1.9zz" fill="#FFFFFF" />
        </g>
      </g>
    </g>
  </g>
  <g id="Layer_1" transform="translate(-0.875, 0)">
    <g transform="matrix(0.875, 0, 0, 0.875, 0, 0)">
      <g id="main">
        <g id="icon">
          <path d="M1, 4L3, 4L3, 2L1, 2zM1, 8L3, 8L3, 6L1, 6zM1, 12L3, 12L3, 10L1, 10zM1, 16L3, 16L3, 14L1, 14zM1, 20L3, 20L3, 18L1, 18zM1, 24L3, 24L3, 22L1, 22zM1, 28L3, 28L3, 26L1, 26zz" fill="#727272" class="Black" />
        </g>
      </g>
    </g>
  </g>
  <g id="Layer_1" transform="translate(-0.875, 0)">
    <g transform="matrix(0.875, 0, 0, 0.875, 0, 0)">
      <g id="main">
        <g id="icon">
          <path d="M3, 4L4, 4L4, 2L3, 2zM3, 8L4, 8L4, 6L3, 6zM3, 12L4, 12L4, 10L3, 10zM3, 16L4, 16L4, 14L3, 14zM3, 20L4, 20L4, 18L3, 18zM3, 24L4, 24L4, 22L3, 22zM3, 28L4, 28L4, 26L3, 26zz" fill="#F1F2F2" />
        </g>
      </g>
    </g>
  </g>
  <g id="Layer_1" transform="translate(-0.875, 0)">
    <g transform="matrix(0.875, 0, 0, 0.875, 0, 0)">
      <g id="main">
        <g id="icon">
          <path d="M4, 4L6, 4L6, 2L4, 2zM4, 8L6, 8L6, 6L4, 6zM4, 12L6, 12L6, 10L4, 10zM4, 16L6, 16L6, 14L4, 14zM4, 20L6, 20L6, 18L4, 18zM4, 24L6, 24L6, 22L4, 22zM4, 28L6, 28L6, 26L4, 26zz" fill="#FFFFFF" class="White" />
        </g>
      </g>
    </g>
  </g>
  <g id="Layer_1" transform="translate(-0.875, 0)">
    <g transform="matrix(0.875, 0, 0, 0.875, 0, 0)">
      <g id="main">
        <g id="icon">
          <path d="M9.183, 4.113L9.01, 4.402L9.059, 4.735L9.308, 4.962L9.5, 5L22.5, 5L22.82, 4.887L22.99, 4.598L22.94, 4.265L22.69, 4.038L22.5, 4L9.5, 4zz" fill="#727272" class="Black" />
        </g>
      </g>
    </g>
  </g>
  <g id="Layer_1" transform="translate(-0.875, 0)">
    <g transform="matrix(0.875, 0, 0, 0.875, 0, 0)">
      <g id="main">
        <g id="icon">
          <path d="M12.18, 6.113L12.01, 6.402L12.06, 6.735L12.31, 6.962L12.5, 7L19.5, 7L19.82, 6.887L19.99, 6.598L19.94, 6.265L19.69, 6.038L19.5, 6L12.5, 6zz" fill="#727272" class="Black" />
        </g>
      </g>
    </g>
  </g>
  <g id="Layer_1" transform="translate(-0.875, 0)">
    <g transform="matrix(0.875, 0, 0, 0.875, 0, 0)">
      <g id="main">
        <g id="icon">
          <path d="M20.5, 9.985L20.39, 10.03L20.32, 10.12L20.3, 10.24L20.35, 10.35L21.1, 11.4L17.22, 14.12L14.44, 10.7L14.29, 10.62L14.11, 10.66L8.45, 15L8.404, 15.07L8.42, 15.15L9.083, 16.15L9.157, 16.2L9.225, 16.19L14.01, 12.42L16.83, 15.83L16.99, 15.92L17.16, 15.89L21.93, 12.56L22.61, 13.51L22.71, 13.58L22.82, 13.6L22.93, 13.56L23.01, 13.47L24.68, 9.739L24.7, 9.615L24.65, 9.505L24.56, 9.431L24.43, 9.415zz" fill="#039C23" class="Green" />
        </g>
      </g>
    </g>
  </g>
  <g id="Layer_1" transform="translate(-0.875, 0)">
    <g transform="matrix(0.875, 0, 0, 0.875, 0, 0)">
      <g id="main">
        <g id="icon">
          <path d="M21.27, 15.03L21.13, 15.13L21.03, 15.27L21, 15.44L21, 25L22.29, 25L24, 23.55L24, 15.44L23.97, 15.27L23.87, 15.13L23.73, 15.03L23.56, 15L21.44, 15zM13.27, 17.03L13.13, 17.13L13.03, 17.27L13, 17.44L13, 25L16, 25L16, 17.44L15.97, 17.27L15.87, 17.13L15.73, 17.03L15.56, 17L13.44, 17zM9.27, 18.03L9.129, 18.13L9.035, 18.27L9, 18.44L9, 25L12, 25L12, 25L12, 18.44L11.97, 18.27L11.87, 18.13L11.73, 18.03L11.56, 18L9.442, 18zM17.27, 19.03L17.13, 19.13L17.03, 19.27L17, 19.44L17, 25L20, 25L20, 19.44L19.97, 19.27L19.87, 19.13L19.73, 19.03L19.56, 19L17.44, 19zz" fill="#727272" class="Black" />
        </g>
      </g>
    </g>
  </g>
  <g id="Layer_1" transform="translate(-0.875, 0)">
    <g transform="matrix(0.875, 0, 0, 0.875, 0, 0)">
      <g id="main">
        <g id="overlay">
          <path d="M16.225, 32L31.808, 32C31.932, 32 32.033, 31.899 32.033, 31.775L32.033, 18.507C32.033, 18.316 31.809, 18.212 31.663, 18.336L16.08, 31.604C15.92, 31.74 16.016, 32 16.225, 32zM23.533, 29L29.033, 24.1L29.033, 29L23.533, 29z" fill="#FFB115" class="Yellow" fill-rule="evenodd" />
        </g>
      </g>
    </g>
  </g>
</svg>