<?xml version='1.0' encoding='UTF-8'?>
<svg viewBox="-2.9333 -2 31.9983 32" xmlns="http://www.w3.org/2000/svg" xmlns:xlink="http://www.w3.org/1999/xlink">
  <g id="Layer_1" transform="translate(-1.8666, -0.9333)">
    <g transform="matrix(0.9333, 0, 0, 0.9333, 0, 0)">
      <g id="icon">
        <path d="M28.7, 1L5.3, 1C4.582, 1 4, 1.582 4, 2.3L4, 29.7C4, 30.418 4.582, 31 5.3, 31L28.7, 31C29.418, 31 30, 30.418 30, 29.7L30, 2.3C30, 1.582 29.418, 1 28.7, 1zM28, 29L7, 29L6, 29L5, 29L5, 27L6, 27L6, 25L5, 25L5, 23L6, 23L6, 21L5, 21L5, 19L6, 19L6, 17L5, 17L5, 15L6, 15L6, 13L5, 13L5, 11L6, 11L6, 9L5, 9L5, 7L6, 7L6, 5L5, 5L5, 3L6, 3L7, 3L28, 3L28, 29z" fill="#1177D7" class="Blue" />
      </g>
    </g>
  </g>
  <g id="Layer_1" transform="translate(-1.8666, -0.9333)">
    <g transform="matrix(0.9333, 0, 0, 0.9333, 0, 0)">
      <g id="icon">
        <rect x="6" y="2.9" width="22" height="26" rx="0" ry="0" fill="#FFFFFF" />
      </g>
    </g>
  </g>
  <g id="Layer_1" transform="translate(-1.8666, -0.9333)">
    <g transform="matrix(0.9333, 0, 0, 0.9333, 0, 0)">
      <g id="icon">
        <path d="M4, 19L4, 21L2, 21L2, 19L4, 19zM2, 15L2, 17L4, 17L4, 15L2, 15zM2, 11L2, 13L4, 13L4, 11L2, 11zM2, 23L2, 25L4, 25L4, 23L2, 23zM2, 27L2, 29L4, 29L4, 27L2, 27zM4, 7L4, 9L2, 9L2, 7L4, 7zM4, 3L4, 5L2, 5L2, 3L4, 3z" fill="#727272" class="Black" />
      </g>
    </g>
  </g>
  <g id="Layer_1" transform="translate(-1.8666, -0.9333)">
    <g transform="matrix(0.9333, 0, 0, 0.9333, 0, 0)">
      <g id="icon">
        <path d="M5, 19L5, 21L4, 21L4, 19L5, 19zM4, 15L4, 17L5, 17L5, 15L4, 15zM4, 11L4, 13L5, 13L5, 11L4, 11zM4, 23L4, 25L5, 25L5, 23L4, 23zM4, 27L4, 29L5, 29L5, 27L4, 27zM5, 7L5, 9L4, 9L4, 7L5, 7zM5, 3L5, 5L4, 5L4, 3L5, 3z" fill="#F1F2F2" />
      </g>
    </g>
  </g>
  <g id="Layer_1" transform="translate(-1.8666, -0.9333)">
    <g transform="matrix(0.9333, 0, 0, 0.9333, 0, 0)">
      <g id="icon">
        <path d="M7, 19L7, 21L5, 21L5, 19L7, 19zM5, 15L5, 17L7, 17L7, 15L5, 15zM5, 11L5, 13L7, 13L7, 11L5, 11zM5, 23L5, 25L7, 25L7, 23L5, 23zM5, 27L5, 29L7, 29L7, 27L5, 27zM7, 7L7, 9L5, 9L5, 7L7, 7zM7, 3L7, 5L5, 5L5, 3L7, 3z" fill="#FFFFFF" class="White" />
      </g>
    </g>
  </g>
  <g id="Layer_1" transform="translate(-1.8666, -0.9333)">
    <g transform="matrix(0.9333, 0, 0, 0.9333, 0, 0)">
      <g id="icon">
        <path d="M10.5, 5.5L23.5, 5.5" fill="none" stroke="#000000" stroke-width="1px" stroke-linecap="round" stroke-miterlimit="10" />
      </g>
    </g>
  </g>
  <g id="Layer_1" transform="translate(-1.8666, -0.9333)">
    <g transform="matrix(0.9333, 0, 0, 0.9333, 0, 0)">
      <g id="icon">
        <path d="M13.5, 7.5L20.5, 7.5" fill="none" stroke="#000000" stroke-width="1px" stroke-linecap="round" stroke-miterlimit="10" />
      </g>
    </g>
  </g>
  <g id="Layer_1" transform="translate(-1.8666, -0.9333)">
    <g transform="matrix(0.9333, 0, 0, 0.9333, 0, 0)">
      <g id="icon">
        <path d="M10.1569, 17.1991C10.1268, 17.1948 10.0999, 17.1778 10.0832, 17.1527L9.4198, 16.1497C9.3988, 16.118 9.4012, 16.0862 9.4045, 16.07C9.4078, 16.0538 9.418, 16.0237 9.4498, 16.0026L15.1112, 11.6558C15.2173, 11.5837 15.3608, 11.6046 15.4419, 11.7039L18.218, 15.1197L22.1003, 12.4005L21.3455, 11.3494C21.2441, 11.2082 21.3285, 11.0099 21.5005, 10.985L25.4346, 10.4154C25.6153, 10.3892 25.7538, 10.5726 25.6793, 10.7393L24.0124, 14.4664C23.9394, 14.6296 23.717, 14.6521 23.6127, 14.507L22.9253, 13.5648L18.1642, 16.8913C18.0581, 16.9526 17.911, 16.9338 17.8276, 16.8331L15.0096, 13.4211L10.2249, 17.1865C10.2085, 17.1971 10.1819, 17.2027 10.1569, 17.1991z" fill="#039C23" class="Green" />
      </g>
    </g>
  </g>
  <g id="Layer_1" transform="translate(-1.8666, -0.9333)">
    <g transform="matrix(0.9333, 0, 0, 0.9333, 0, 0)">
      <g id="icon">
        <path d="M13, 26L10, 26L10, 19.4417C10, 19.1978 10.1977, 19 10.4417, 19L12.5584, 19C12.8023, 19 13.0001, 19.1977 13.0001, 19.4417L13.0001, 26zM17, 26L14, 26L14, 18.4417C14, 18.1978 14.1977, 18 14.4417, 18L16.5584, 18C16.8023, 18 17.0001, 18.1977 17.0001, 18.4417L17.0001, 26zM21, 26L18, 26L18, 20.4417C18, 20.1978 18.1977, 20 18.4417, 20L20.5584, 20C20.8023, 20 21.0001, 20.1977 21.0001, 20.4417L21.0001, 26zM25, 26L22, 26L22, 16.4417C22, 16.1978 22.1977, 16 22.4417, 16L24.5584, 16C24.8023, 16 25.0001, 16.1977 25.0001, 16.4417L25.0001, 26z" fill="#727272" class="Black" />
      </g>
    </g>
  </g>
</svg>