<?xml version='1.0' encoding='UTF-8'?>
<svg viewBox="-1 -1 32 32" xmlns="http://www.w3.org/2000/svg" xmlns:xlink="http://www.w3.org/1999/xlink">
  <g id="Layer_1" transform="translate(-1, -1)">
    <g id="icon">
      <path d="M1, 1L1, 15L15, 15L15, 1L1, 1zM12, 12L4, 12L4, 4L12, 4L12, 12z" fill="#039C23" fill-opacity="1" class="Green" />
    </g>
  </g>
  <g id="Layer_1" transform="translate(0.0209, 0.4091)">
    <g transform="matrix(0.9325, 0, 0, 0.9325, 0, 0)">
      <g id="icon">
        <path d="M16.065, 1.1C18.638, 1.0938 19.1864, 9.7976 20.4729, 10.9157C21.7594, 12.0338 30.6299, 9.9715 31.0587, 12.1456C31.4875, 14.3197 24.1558, 17.8724 23.4206, 19.6117C22.6854, 21.351 26.8633, 28.7131 25.3317, 30.0175C23.8001, 31.322 17.9641, 24.9606 16.065, 24.9606C14.1659, 24.9606 8.4522, 30.9493 6.9207, 29.8312C5.3891, 28.7131 9.1994, 21.1184 8.7093, 19.5034C8.2192, 17.8884 0.6046, 14.2576 1.0713, 12.1456C1.538, 10.0336 10.0641, 12.096 11.4732, 11.04C12.8822, 9.9839 13.9208, 1.1621 16.065, 1.1" fill="Transparent" class="Transparent" fill-rule="evenodd" />
      </g>
    </g>
  </g>
  <g id="Layer_1" transform="translate(15, -1)">
    <g id="icon">
      <path d="M1, 1L1, 15L15, 15L15, 1L1, 1zM12, 12L4, 12L4, 4L12, 4L12, 12z" fill="#FFB115" fill-opacity="1" class="Yellow" />
    </g>
  </g>
  <g id="Layer_1" transform="translate(-1, 15)">
    <g id="icon">
      <path d="M1, 1L1, 15L15, 15L15, 1L1, 1zM12, 12L4, 12L4, 4L12, 4L12, 12z" fill="#D11C1C" fill-opacity="1" class="Red" />
    </g>
  </g>
  <g id="Layer_1" transform="translate(15, 15)">
    <g id="icon">
      <path d="M8, 16C7.619, 16 7.26, 15.851 6.99, 15.582L0.418, 9.01C0.149, 8.74 0, 8.381 0, 8C0, 7.619 0.149, 7.26 0.418, 6.99L6.99, 0.418C7.547, -0.139 8.453, -0.139 9.01, 0.418L15.582, 6.99C15.852, 7.26 16, 7.618 16, 8C16, 8.382 15.851, 8.74 15.582, 9.01L9.01, 15.582C8.74, 15.851 8.381, 16 8, 16zM8, 1.2C7.942, 1.2 7.883, 1.222 7.839, 1.267L1.267, 7.839C1.209, 7.897 1.2, 7.965 1.2, 8C1.2, 8.035 1.209, 8.103 1.267, 8.161L7.839, 14.733C7.897, 14.791 7.965, 14.8 8, 14.8C8.035, 14.8 8.058, 1.2 8, 1.2z" fill="#1177D7" fill-opacity="1" class="Blue" />
    </g>
  </g>
</svg>