<?xml version='1.0' encoding='UTF-8'?>
<svg viewBox="-2 -2.0175 32 32" xmlns="http://www.w3.org/2000/svg" xmlns:xlink="http://www.w3.org/1999/xlink">
  <g id="Layer_1" transform="translate(-0.9333, -0.9391)">
    <g transform="matrix(0.9333, 0, 0, 0.9333, 0, 0)">
      <g id="icon">
        <path d="M12.3, 7.033C12.014, 4.988 10.406, 3.367 8.367, 3.065L8.367, 1.005L7.027, 1.005L7.027, 3.06C4.97, 3.347 3.344, 4.975 3.055, 7.033L1, 7.033L1, 8.373L3.06, 8.373C3.36, 10.416 4.981, 12.028 7.027, 12.314L7.027, 14.4L8.367, 14.4L8.367, 12.308C10.395, 12.008 11.997, 10.402 12.296, 8.372L14.395, 8.372L14.395, 7.032L12.3, 7.032zM7.698, 11.051C5.848, 11.051 4.349, 9.552 4.349, 7.702C4.349, 5.852 5.848, 4.353 7.698, 4.353C9.548, 4.353 11.047, 5.852 11.047, 7.702C11.046, 9.552 9.547, 11.051 7.698, 11.051zM7.698, 6.363C8.438, 6.363 9.038, 6.963 9.038, 7.703C9.038, 8.443 8.438, 9.043 7.698, 9.043C6.958, 9.043 6.358, 8.443 6.358, 7.703C6.358, 6.963 6.958, 6.363 7.698, 6.363z" fill="#727272" class="Black" fill-rule="evenodd" />
      </g>
    </g>
  </g>
  <g id="Layer_1" transform="translate(-0.9333, -0.9391)">
    <g transform="matrix(0.9333, 0, 0, 0.9333, 0, 0)">
      <g id="icon">
        <path d="M25.702, 17.122C25.189, 17.122 24.706, 16.922 24.344, 16.559L18.102, 10.317C17.353, 9.568 17.353, 8.349 18.102, 7.6C18.465, 7.237 18.947, 7.037 19.46, 7.037C19.973, 7.037 20.456, 7.237 20.818, 7.6L21.204, 7.986C21.279, 7.719 21.421, 7.474 21.623, 7.272C21.64, 7.255 23.326, 5.572 23.434, 5.474C24.615, 4.397 25.916, 3.827 27.195, 3.827C28.726, 3.827 30.054, 4.665 30.661, 6.015C31.39, 7.636 30.929, 9.614 29.428, 11.305C29.304, 11.445 27.57, 13.184 27.553, 13.201C27.351, 13.403 27.106, 13.545 26.839, 13.62L27.06, 13.841C27.809, 14.59 27.809, 15.809 27.06, 16.558C26.698, 16.922 26.215, 17.122 25.702, 17.122z" fill="#1177D7" class="Blue" fill-rule="evenodd" />
      </g>
    </g>
  </g>
  <g id="Layer_1" transform="translate(-0.9333, -0.9391)">
    <g transform="matrix(0.9333, 0, 0, 0.9333, 0, 0)">
      <g id="icon">
        <path d="M5.4, 30.968C4.966, 30.968 4.551, 30.669 4.366, 30.224C4.191, 29.802 4.274, 29.362 4.587, 29.049C6.32, 27.316 7.234, 26.013 8.39, 24.363C10.163, 21.835 12.369, 18.688 18.697, 12.359L18.865, 12.191L19.036, 12.356C20.31, 13.583 20.756, 14.036 21.15, 14.437C21.525, 14.818 21.822, 15.119 22.723, 15.975L22.903, 16.146L22.727, 16.322C16.172, 22.877 13.09, 25.123 10.613, 26.927C9.053, 28.063 7.821, 28.961 6.147, 30.635C5.93, 30.852 5.671, 30.968 5.4, 30.968z" fill="#727272" class="Black" fill-rule="evenodd" />
      </g>
    </g>
  </g>
</svg>