<?xml version='1.0' encoding='UTF-8'?>
<svg viewBox="-2 -6.6675 32 32" xmlns="http://www.w3.org/2000/svg" xmlns:xlink="http://www.w3.org/1999/xlink">
  <g transform="translate(0, 0)">
    <g transform="translate(0, -0.0012)">
      <g id="Layer_1" transform="translate(-0.9351, -5.6001)">
        <g transform="matrix(0.9333, 0, 0, 0.9333, 0, 0)">
          <g id="icon">
            <path d="M28.133, 6L3.867, 6C2.283, 6 1, 7.283 1, 8.867L1, 23.134C1, 24.717 2.283, 26 3.867, 26L28.134, 26C29.717, 26 31.001, 24.717 31.001, 23.133L31.001, 8.867C31, 7.283 29.717, 6 28.133, 6zM10.839, 13.048C10.839, 13.184 10.811, 13.309 10.755, 13.424C10.699, 13.539 10.603, 13.637 10.468, 13.719L7.34, 15.659C7.205, 15.74 7.064, 15.811 6.918, 15.872C6.772, 15.933 6.614, 15.987 6.446, 16.035C6.615, 16.082 6.772, 16.135 6.918, 16.192C7.064, 16.25 7.205, 16.322 7.34, 16.41L10.468, 18.35C10.603, 18.431 10.698, 18.529 10.755, 18.645C10.811, 18.76 10.839, 18.889 10.839, 19.031L10.839, 20.859L4, 16.552L4, 15.516L10.839, 11.22L10.839, 13.048zM13.658, 22L11.654, 22L18.334, 10L20.338, 10L13.658, 22zM28, 16.552L21.153, 20.858L21.153, 19.03C21.153, 18.895 21.183, 18.768 21.242, 18.649C21.301, 18.531 21.398, 18.431 21.533, 18.349L24.661, 16.409C24.914, 16.253 25.212, 16.128 25.555, 16.033C25.386, 15.986 25.229, 15.931 25.083, 15.87C24.937, 15.809 24.796, 15.738 24.661, 15.657L21.533, 13.717C21.398, 13.636 21.301, 13.538 21.242, 13.422C21.183, 13.307 21.153, 13.182 21.153, 13.046L21.153, 11.22L28, 15.516L28, 16.552z" fill="#039C23" fill-opacity="1" class="Green" />
          </g>
        </g>
      </g>
    </g>
  </g>
  <g transform="translate(0, 0)">
    <g transform="translate(0, -0.0012)">
      <g id="Layer_1" transform="translate(-0.9351, -5.6001)">
        <g transform="matrix(0.9333, 0, 0, 0.9333, 0, 0)">
          <g id="icon">
            <path d="M4, 16.552L4, 15.516L10.839, 11.22L10.839, 13.048C10.839, 13.184 10.811, 13.309 10.755, 13.424C10.699, 13.539 10.603, 13.637 10.468, 13.719L7.34, 15.659C7.205, 15.74 7.064, 15.811 6.918, 15.872C6.772, 15.933 6.614, 15.987 6.446, 16.035C6.615, 16.082 6.772, 16.135 6.918, 16.192C7.064, 16.25 7.205, 16.322 7.34, 16.41L10.468, 18.35C10.603, 18.431 10.698, 18.529 10.755, 18.645C10.811, 18.76 10.839, 18.889 10.839, 19.031L10.839, 20.859L4, 16.552zM21.153, 20.859L21.153, 19.031C21.153, 18.896 21.183, 18.769 21.242, 18.65C21.301, 18.532 21.398, 18.432 21.533, 18.35L24.661, 16.41C24.914, 16.254 25.212, 16.129 25.555, 16.034C25.386, 15.987 25.229, 15.932 25.083, 15.871C24.937, 15.81 24.796, 15.739 24.661, 15.658L21.533, 13.718C21.398, 13.637 21.301, 13.539 21.242, 13.423C21.183, 13.308 21.153, 13.183 21.153, 13.047L21.153, 11.22L28, 15.516L28, 16.552L21.153, 20.859zM20.338, 10L18.334, 10L11.654, 22L13.658, 22L20.338, 10z" fill="#FFFFFF" fill-opacity="1" class="White" />
          </g>
        </g>
      </g>
    </g>
  </g>
</svg>