<?xml version='1.0' encoding='UTF-8'?>
<svg viewBox="-3.867 -2 32.002 31.9975" xmlns="http://www.w3.org/2000/svg" xmlns:xlink="http://www.w3.org/1999/xlink">
  <g id="Layer_1" transform="translate(-2.7999, -0.9351)">
    <g transform="matrix(0.9333, 0, 0, 0.9333, 0, 0)">
      <g id="icon">
        <path d="M27.7, 1L6.3, 1C5.582, 1 5, 1.582 5, 2.3L5, 29.7C5, 30.418 5.582, 31 6.3, 31L27.7, 31C28.418, 31 29, 30.418 29, 29.7L29, 2.3C29, 1.582 28.418, 1 27.7, 1zM8, 29L6, 29L6, 27L8, 27L8, 29zM8, 25L6, 25L6, 23L8, 23L8, 25zM8, 21L6, 21L6, 19L8, 19L8, 21zM8, 17L6, 17L6, 15L8, 15L8, 17zM8, 13L6, 13L6, 11L8, 11L8, 13zM8, 9L6, 9L6, 7L8, 7L8, 9zM8, 5L6, 5L6, 3L8, 3L8, 5zM24, 12.15C24, 12.6194 23.6194, 13 23.15, 13L12.85, 13C12.3806, 13 12, 12.6194 12, 12.15L12, 7.85C12, 7.3806 12.3806, 7 12.85, 7L23.15, 7C23.6194, 7 24, 7.3806 24, 7.85L24, 12.15z" fill="#1177D7" fill-opacity="1" class="Blue" />
      </g>
    </g>
  </g>
  <g id="Layer_1" transform="translate(-2.7999, -0.9351)">
    <g transform="matrix(0.9333, 0, 0, 0.9333, 0, 0)">
      <g id="icon">
        <path d="M5, 19L5, 21L3, 21L3, 19L5, 19zM3, 15L3, 17L5, 17L5, 15L3, 15zM3, 11L3, 13L5, 13L5, 11L3, 11zM3, 23L3, 25L5, 25L5, 23L3, 23zM3, 27L3, 29L5, 29L5, 27L3, 27zM5, 7L5, 9L3, 9L3, 7L5, 7zM5, 3L5, 5L3, 5L3, 3L5, 3z" fill="#727272" fill-opacity="1" class="Black" />
      </g>
    </g>
  </g>
  <g id="Layer_1" transform="translate(-2.7999, -0.9351)">
    <g transform="matrix(0.9333, 0, 0, 0.9333, 0, 0)">
      <g id="icon">
        <path d="M6, 19L6, 21L5, 21L5, 19L6, 19zM5, 15L5, 17L6, 17L6, 15L5, 15zM5, 11L5, 13L6, 13L6, 11L5, 11zM5, 23L5, 25L6, 25L6, 23L5, 23zM5, 27L5, 29L6, 29L6, 27L5, 27zM6, 7L6, 9L5, 9L5, 7L6, 7zM6, 3L6, 5L5, 5L5, 3L6, 3z" fill="#FFFFFF" fill-opacity="1" class="White" />
      </g>
    </g>
  </g>
  <g id="Layer_1" transform="translate(-2.7999, -0.9351)">
    <g transform="matrix(0.9333, 0, 0, 0.9333, 0, 0)">
      <g id="icon">
        <path d="M8, 19L8, 21L6, 21L6, 19L8, 19zM6, 15L6, 17L8, 17L8, 15L6, 15zM6, 11L6, 13L8, 13L8, 11L6, 11zM6, 23L6, 25L8, 25L8, 23L6, 23zM6, 27L6, 29L8, 29L8, 27L6, 27zM8, 7L8, 9L6, 9L6, 7L8, 7zM8, 3L8, 5L6, 5L6, 3L8, 3z" fill="#727272" fill-opacity="1" class="Black" />
      </g>
    </g>
  </g>
  <g id="Layer_1" transform="translate(-2.7999, -0.9351)">
    <g transform="matrix(0.9333, 0, 0, 0.9333, 0, 0)">
      <g id="icon">
        <path d="M23.2, 13L12.85, 13C12.3806, 13 12, 12.6194 12, 12.15L12, 7.85C12, 7.3806 12.3806, 7 12.85, 7L23.2, 7C23.6694, 7 24, 7.3806 24, 7.85L24, 12.15C24, 12.6194 23.6694, 13 23.2, 13z" fill="#FFFFFF" fill-opacity="1" class="White" />
      </g>
    </g>
  </g>
  <g id="Layer_1" transform="translate(12.133, 13.9958)" style="enable-background:new 0 0 16 16">
    <g id="DeleteCircled_1_">
      <circle cx="8" cy="8" r="8" fill="#D11C1C" class="Red" />
    </g>
  </g>
  <g id="Layer_1" transform="translate(12.133, 13.9958)" style="enable-background:new 0 0 16 16">
    <g id="DeleteCircled_1_">
      <polygon points="12.2,5.2 10.8,3.8 8,6.6 5.2,3.8 3.8,5.2 6.6,8 3.8,10.8 5.2,12.2 8,9.4 10.8,12.2 12.2,10.8 9.4,8     " fill="#FFFFFF" class="White" />
    </g>
  </g>
</svg>