<?xml version='1.0' encoding='UTF-8'?>
<svg viewBox="-2 -3.9309 32 31.9984" xmlns="http://www.w3.org/2000/svg" xmlns:xlink="http://www.w3.org/1999/xlink">
  <g id="Layer_1" transform="translate(-0.9655, -3.862)">
    <g transform="matrix(0.9655, 0, 0, 0.9655, 0, 0)">
      <g id="icon">
        <path d="M29, 28.5L2, 28.5C1.724, 28.5 1.5, 28.276 1.5, 28L1.5, 5.033C1.5, 4.738 1.739, 4.5 2.033, 4.5L28.966, 4.5C29.261, 4.5 29.499, 4.739 29.499, 5.033L29.499, 28C29.5, 28.276 29.276, 28.5 29, 28.5z" fill="#FFFFFF" />
      </g>
    </g>
  </g>
  <g id="Layer_1" transform="translate(-0.9655, -3.862)">
    <g transform="matrix(0.9655, 0, 0, 0.9655, 0, 0)">
      <g id="icon">
        <rect x="8.5" y="4.5" width="7" height="24" rx="0" ry="0" fill="#1177D7" class="Blue" />
      </g>
    </g>
  </g>
  <g id="Layer_1" transform="translate(-0.9655, -3.862)">
    <g transform="matrix(0.9655, 0, 0, 0.9655, 0, 0)">
      <g id="icon">
        <path d="M16, 29L8, 29L8, 4L16, 4L16, 29zM9, 28L15, 28L15, 5L9, 5L9, 28z" fill="#1177D7" class="Blue" />
      </g>
    </g>
  </g>
  <g id="Layer_1" transform="translate(-0.9655, -3.862)">
    <g transform="matrix(0.9655, 0, 0, 0.9655, 0, 0)">
      <g id="icon">
        <path d="M8, 17L7, 17L7, 16L8, 16L8, 17zM8, 10L7, 10L7, 11L8, 11L8, 10zM16, 10L16, 11L17, 11L17, 10L16, 10zM16, 17L17, 17L17, 16L16, 16L16, 17zM8, 23L7, 23L7, 22L8, 22L8, 23zM16, 23L17, 23L17, 22L16, 22L16, 23z" fill="#B4B4B5" opacity="0.4" />
      </g>
    </g>
  </g>
  <g id="Layer_1" transform="translate(-0.9655, -3.862)">
    <g transform="matrix(0.9655, 0, 0, 0.9655, 0, 0)">
      <g id="icon">
        <path d="M8, 5L7, 5L7, 4L8, 4L8, 5zM16, 5L17, 5L17, 4L16, 4L16, 5zM8, 29L7, 29L7, 28L8, 28L8, 29zM16, 29L17, 29L17, 28L16, 28L16, 29z" fill="#B4B4B5" />
      </g>
    </g>
  </g>
  <g id="Layer_1" transform="translate(-0.9655, -3.862)">
    <g transform="matrix(0.9655, 0, 0, 0.9655, 0, 0)">
      <g id="icon">
        <path d="M7, 17L2, 17L2, 16L7, 16L7, 17zM7, 10L2, 10L2, 11L7, 11L7, 10zM29, 11L29, 10L23, 10L23, 5L22, 5L22, 10L17, 10L17, 11L22, 11L22, 16L17, 16L17, 17L22, 17L22, 22L17, 22L17, 23L22, 23L22, 28L23, 28L23, 23L29, 23L29, 22L23, 22L23, 17L29, 17L29, 16L23, 16L23, 11L29, 11zM7, 22L2, 22L2, 23L7, 23L7, 22z" fill="#727272" class="Black" />
      </g>
    </g>
  </g>
  <g id="Layer_1" transform="translate(-0.9655, -3.862)">
    <g transform="matrix(0.9655, 0, 0, 0.9655, 0, 0)">
      <g id="icon">
        <path d="M30, 5.033L30, 28C30, 28.551 29.551, 29 29, 29L17, 29L17, 28L29.001, 28L29, 5.033C29, 5.015 28.985, 5 28.967, 5L17, 5L17, 4L28.967, 4C29.536, 4 30, 4.464 30, 5.033zM7, 28L2, 28L2, 5.033C2, 5.015 2.015, 5 2.033, 5L7, 5L7, 4L2.033, 4C1.464, 4 1, 4.464 1, 5.033L1, 28C1, 28.551 1.449, 29 2, 29L7, 29L7, 28z" fill="#727272" class="Black" />
      </g>
    </g>
  </g>
</svg>