<?xml version='1.0' encoding='UTF-8'?>
<svg viewBox="-2 -4.3332 32 32" xmlns="http://www.w3.org/2000/svg" xmlns:xlink="http://www.w3.org/1999/xlink">
  <g id="Layer_1" transform="translate(-0.9333, -3.7332)">
    <g transform="matrix(0.9333, 0, 0, 0.9333, 0, 0)">
      <g id="icon">
        <path d="M30, 28.5L2, 28.5C1.724, 28.5 1.5, 28.276 1.5, 28L1.5, 5.133C1.5, 4.783 1.784, 4.5 2.133, 4.5L29.866, 4.5C30.216, 4.5 30.499, 4.784 30.499, 5.133L30.499, 28C30.5, 28.276 30.276, 28.5 30, 28.5z" fill="#FFFFFF" stroke="#000000" stroke-width="1px" stroke-miterlimit="1" />
      </g>
    </g>
  </g>
  <g id="Layer_1" transform="translate(-0.9333, -3.7332)">
    <g transform="matrix(0.9333, 0, 0, 0.9333, 0, 0)">
      <g id="icon">
        <path d="M30, 11L30, 10L24, 10L24, 5L23, 5L23, 10L21.5, 10L18, 10L17, 10L17, 9L17, 7.2L17, 5L16, 5L16, 7.2L16, 9L16, 10L9, 10L9, 9L9, 7.2L9, 5L8, 5L8, 7.2L8, 9L8, 10L7, 10L5.4, 10L2, 10L2, 11L5.4, 11L7, 11L8, 11L8, 16L7, 16L5.2, 16L2, 16L2, 17L5.2, 17L7, 17L8, 17L8, 18L8, 19L8, 22L2, 22L2, 23L8, 23L8, 28L9, 28L9, 23L16, 23L16, 28L17, 28L17, 23L23, 23L23, 28L24, 28L24, 23L30, 23L30, 22L24, 22L24, 17L30, 17L30, 16L24, 16L24, 11L30, 11zM9, 11L16, 11L16, 16L9, 16L9, 11zM16, 22L9, 22L9, 19L9, 18L9, 17L16, 17L16, 18L16, 18.9L16, 22zM23, 22L17, 22L17, 18.9L17, 18L17, 17L18, 17L20.8, 17L23, 17L23, 22zM23, 16L20.8, 16L18, 16L17, 16L17, 11L18, 11L21.5, 11L23, 11L23, 16z" fill="#727272" class="Black" />
      </g>
    </g>
  </g>
</svg>