<?xml version='1.0' encoding='UTF-8'?>
<svg viewBox="-2.485 -2 32 32" xmlns="http://www.w3.org/2000/svg" xmlns:xlink="http://www.w3.org/1999/xlink">
  <g id="Layer_1" transform="translate(-1.9333, -1.9311)">
    <g transform="matrix(0.9655, 0, 0, 0.9655, 0, 0)">
      <g id="icon">
        <polyline points="2.5,2.5 2.5,30.5 29.5,30.5" fill="none" stroke="#000000" stroke-width="1px" stroke-linecap="round" stroke-linejoin="round" stroke-miterlimit="10" />
      </g>
    </g>
  </g>
  <g id="Layer_1" transform="translate(-1.9333, -1.9311)">
    <g transform="matrix(0.9655, 0, 0, 0.9655, 0, 0)">
      <g id="icon">
        <polyline points="4.55,26.45 20.55,11.55 29.45,21.45" fill="none" stroke="#EEB764" stroke-width="1.1px" stroke-linecap="round" stroke-linejoin="round" stroke-miterlimit="10" />
      </g>
    </g>
  </g>
  <g id="Layer_1" transform="translate(-1.9333, -1.9311)">
    <g transform="matrix(0.9655, 0, 0, 0.9655, 0, 0)">
      <g id="icon">
        <polyline points="4.55,19.45 11.55,10.55 20.45,23.45 29.45,7.55" fill="none" stroke="#377AB5" stroke-width="1.1px" stroke-linecap="round" stroke-linejoin="round" stroke-miterlimit="10" />
      </g>
    </g>
  </g>
  <g id="Layer_1" transform="translate(7.515, 10)">
    <g transform="matrix(0.5, 0, 0, 0.5, 0, 0)">
      <g id="icon">
        <path d="M2, 2L1, 2L1, 1L2, 1L2, 2zM4, 1L3, 1L3, 2L4, 2L4, 1zM6, 1L5, 1L5, 2L6, 2L6, 1zM8, 1L7, 1L7, 2L8, 2L8, 1zM10, 1L9, 1L9, 2L10, 2L10, 1zM12, 1L11, 1L11, 2L12, 2L12, 1zM14, 1L13, 1L13, 2L14, 2L14, 1zM16, 1L15, 1L15, 2L16, 2L16, 1zM18, 1L17, 1L17, 2L18, 2L18, 1zM20, 1L19, 1L19, 2L20, 2L20, 1zM22, 1L21, 1L21, 2L22, 2L22, 1zM24, 1L23, 1L23, 2L24, 2L24, 1zM26, 1L25, 1L25, 2L26, 2L26, 1zM28, 1L27, 1L27, 2L28, 2L28, 1zM30, 1L29, 1L29, 2L30, 2L30, 1zM2, 16L1, 16L1, 15L2, 15L2, 16zM4, 15L3, 15L3, 16L4, 16L4, 15zM6, 15L5, 15L5, 16L6, 16L6, 15zM8, 15L7, 15L7, 16L8, 16L8, 15zM10, 15L9, 15L9, 16L10, 16L10, 15zM12, 15L11, 15L11, 16L12, 16L12, 15zM14, 15L13, 15L13, 16L14, 16L14, 15zM16, 15L15, 15L15, 16L16, 16L16, 15zM18, 15L17, 15L17, 16L18, 16L18, 15zM20, 15L19, 15L19, 16L20, 16L20, 15zM22, 15L21, 15L21, 16L22, 16L22, 15zM24, 15L23, 15L23, 16L24, 16L24, 15zM26, 15L25, 15L25, 16L26, 16L26, 15zM28, 15L27, 15L27, 16L28, 16L28, 15zM30, 15L29, 15L29, 16L30, 16L30, 15zM1, 13L1, 14L2, 14L2, 13L1, 13zM1, 11L1, 12L2, 12L2, 11L1, 11zM1, 9L1, 10L2, 10L2, 9L1, 9zM1, 7L1, 8L2, 8L2, 7L1, 7zM1, 5L1, 6L2, 6L2, 5L1, 5zM1, 3L1, 4L2, 4L2, 3L1, 3zM15, 13L15, 14L16, 14L16, 13L15, 13zM15, 11L15, 12L16, 12L16, 11L15, 11zM15, 9L15, 10L16, 10L16, 9L15, 9zM15, 7L15, 8L16, 8L16, 7L15, 7zM15, 5L15, 6L16, 6L16, 5L15, 5zM15, 3L15, 4L16, 4L16, 3L15, 3zM29, 13L29, 14L30, 14L30, 13L29, 13zM29, 11L29, 12L30, 12L30, 11L29, 11zM29, 9L29, 10L30, 10L30, 9L29, 9zM29, 7L29, 8L30, 8L30, 7L29, 7zM29, 5L29, 6L30, 6L30, 5L29, 5zM29, 3L29, 4L30, 4L30, 3L29, 3zM29, 27L29, 28L30, 28L30, 27L29, 27zM29, 25L29, 26L30, 26L30, 25L29, 25zM29, 23L29, 24L30, 24L30, 23L29, 23zM29, 21L29, 22L30, 22L30, 21L29, 21zM29, 19L29, 20L30, 20L30, 19L29, 19zM29, 17L29, 18L30, 18L30, 17L29, 17zM15, 27L15, 28L16, 28L16, 27L15, 27zM15, 25L15, 26L16, 26L16, 25L15, 25zM15, 23L15, 24L16, 24L16, 23L15, 23zM15, 21L15, 22L16, 22L16, 21L15, 21zM15, 19L15, 20L16, 20L16, 19L15, 19zM15, 17L15, 18L16, 18L16, 17L15, 17zM1, 27L1, 28L2, 28L2, 27L1, 27zM1, 25L1, 26L2, 26L2, 25L1, 25zM1, 23L1, 24L2, 24L2, 23L1, 23zM1, 21L1, 22L2, 22L2, 21L1, 21zM1, 19L1, 20L2, 20L2, 19L1, 19zM1, 17L1, 18L2, 18L2, 17L1, 17z" fill="Transparent" class="Transparent" />
      </g>
    </g>
  </g>
  <g id="Layer_1" transform="translate(7.515, 10)">
    <g transform="matrix(0.5, 0, 0, 0.5, 0, 0)">
      <g id="icon">
        <rect x="1" y="28" width="29" height="2" rx="0" ry="0" fill="#D11C1C" class="Red" />
      </g>
    </g>
  </g>
  <g id="Layer_1" transform="translate(7.515, 4)">
    <g transform="matrix(0.5, 0, 0, 0.5, 0, 0)">
      <g id="icon">
        <path d="M29, 29L30, 29L30, 30L29, 30L29, 29zM27, 30L28, 30L28, 29L27, 29L27, 30zM25, 30L26, 30L26, 29L25, 29L25, 30zM23, 30L24, 30L24, 29L23, 29L23, 30zM21, 30L22, 30L22, 29L21, 29L21, 30zM19, 30L20, 30L20, 29L19, 29L19, 30zM17, 30L18, 30L18, 29L17, 29L17, 30zM15, 30L16, 30L16, 29L15, 29L15, 30zM13, 30L14, 30L14, 29L13, 29L13, 30zM11, 30L12, 30L12, 29L11, 29L11, 30zM9, 30L10, 30L10, 29L9, 29L9, 30zM7, 30L8, 30L8, 29L7, 29L7, 30zM5, 30L6, 30L6, 29L5, 29L5, 30zM3, 30L4, 30L4, 29L3, 29L3, 30zM1, 30L2, 30L2, 29L1, 29L1, 30zM29, 15L30, 15L30, 16L29, 16L29, 15zM27, 16L28, 16L28, 15L27, 15L27, 16zM25, 16L26, 16L26, 15L25, 15L25, 16zM23, 16L24, 16L24, 15L23, 15L23, 16zM21, 16L22, 16L22, 15L21, 15L21, 16zM19, 16L20, 16L20, 15L19, 15L19, 16zM17, 16L18, 16L18, 15L17, 15L17, 16zM15, 16L16, 16L16, 15L15, 15L15, 16zM13, 16L14, 16L14, 15L13, 15L13, 16zM11, 16L12, 16L12, 15L11, 15L11, 16zM9, 16L10, 16L10, 15L9, 15L9, 16zM7, 16L8, 16L8, 15L7, 15L7, 16zM5, 16L6, 16L6, 15L5, 15L5, 16zM3, 16L4, 16L4, 15L3, 15L3, 16zM1, 16L2, 16L2, 15L1, 15L1, 16zM30, 18L30, 17L29, 17L29, 18L30, 18zM30, 20L30, 19L29, 19L29, 20L30, 20zM30, 22L30, 21L29, 21L29, 22L30, 22zM30, 24L30, 23L29, 23L29, 24L30, 24zM30, 26L30, 25L29, 25L29, 26L30, 26zM30, 28L30, 27L29, 27L29, 28L30, 28zM16, 18L16, 17L15, 17L15, 18L16, 18zM16, 20L16, 19L15, 19L15, 20L16, 20zM16, 22L16, 21L15, 21L15, 22L16, 22zM16, 24L16, 23L15, 23L15, 24L16, 24zM16, 26L16, 25L15, 25L15, 26L16, 26zM16, 28L16, 27L15, 27L15, 28L16, 28zM2, 18L2, 17L1, 17L1, 18L2, 18zM2, 20L2, 19L1, 19L1, 20L2, 20zM2, 22L2, 21L1, 21L1, 22L2, 22zM2, 24L2, 23L1, 23L1, 24L2, 24zM2, 26L2, 25L1, 25L1, 26L2, 26zM2, 28L2, 27L1, 27L1, 28L2, 28zM2, 4L2, 3L1, 3L1, 4L2, 4zM2, 6L2, 5L1, 5L1, 6L2, 6zM2, 8L2, 7L1, 7L1, 8L2, 8zM2, 10L2, 9L1, 9L1, 10L2, 10zM2, 12L2, 11L1, 11L1, 12L2, 12zM2, 14L2, 13L1, 13L1, 14L2, 14zM16, 4L16, 3L15, 3L15, 4L16, 4zM16, 6L16, 5L15, 5L15, 6L16, 6zM16, 8L16, 7L15, 7L15, 8L16, 8zM16, 10L16, 9L15, 9L15, 10L16, 10zM16, 12L16, 11L15, 11L15, 12L16, 12zM16, 14L16, 13L15, 13L15, 14L16, 14zM30, 4L30, 3L29, 3L29, 4L30, 4zM30, 6L30, 5L29, 5L29, 6L30, 6zM30, 8L30, 7L29, 7L29, 8L30, 8zM30, 10L30, 9L29, 9L29, 10L30, 10zM30, 12L30, 11L29, 11L29, 12L30, 12zM30, 14L30, 13L29, 13L29, 14L30, 14z" fill="Transparent" class="Transparent" />
      </g>
    </g>
  </g>
  <g id="Layer_1" transform="translate(7.515, 4)">
    <g transform="matrix(0.5, 0, 0, 0.5, 0, 0)">
      <g id="icon">
        <path d="M1, 1L30, 1L30, 3L1, 3L1, 1z" fill="#039C23" class="Green" />
      </g>
    </g>
  </g>
</svg>