<?xml version='1.0' encoding='UTF-8'?>
<svg viewBox="-2 -2 32 32" xmlns="http://www.w3.org/2000/svg" xmlns:xlink="http://www.w3.org/1999/xlink">
  <g id="Layer_1" transform="translate(-0.9349, -0.9349)">
    <g transform="matrix(0.9333, 0, 0, 0.9333, 0, 0)">
      <g id="icon">
        <path d="M18.856, 15.916C18.856, 18.23 18.487, 22.113 16.012, 22.113C14.258, 22.113 13.168, 19.795 13.168, 16.063C13.168, 12.299 14.284, 9.866 16.012, 9.866C18.363, 9.865 18.856, 13.156 18.856, 15.916zM31, 3.983L31, 28.016C31, 29.664 29.664, 30.999 28.017, 30.999L3.983, 30.999C2.336, 31 1, 29.664 1, 28.017L1, 3.983C1, 2.336 2.336, 1 3.983, 1L28.016, 1C29.664, 1 31, 2.336 31, 3.983zM21.868, 15.818C21.868, 10.54 19.734, 7.389 16.161, 7.389C14.382, 7.389 12.878, 8.181 11.811, 9.678C10.73, 11.196 10.158, 13.395 10.158, 16.041C10.208, 21.313 12.404, 24.588 15.89, 24.588C19.689, 24.588 21.868, 21.392 21.868, 15.818z" fill="#1177D7" fill-opacity="1" class="Blue" />
      </g>
    </g>
  </g>
  <g id="Layer_1" transform="translate(-0.9349, -0.9349)">
    <g transform="matrix(0.9333, 0, 0, 0.9333, 0, 0)">
      <g id="icon">
        <path d="M16.16, 7.39C14.381, 7.39 12.877, 8.182 11.81, 9.679C10.729, 11.197 10.157, 13.396 10.157, 16.042C10.207, 21.314 12.403, 24.589 15.889, 24.589C19.688, 24.589 21.867, 21.392 21.867, 15.819C21.868, 10.54 19.734, 7.39 16.16, 7.39zM16.013, 22.112C14.259, 22.112 13.169, 19.794 13.169, 16.062C13.169, 12.298 14.285, 9.865 16.013, 9.865C18.363, 9.865 18.857, 13.155 18.857, 15.915C18.856, 18.23 18.487, 22.112 16.013, 22.112z" fill="#FFFFFF" fill-opacity="1" class="White" />
      </g>
    </g>
  </g>
</svg>