<?xml version='1.0' encoding='UTF-8'?>
<svg viewBox="-2 -2.655 32 32" xmlns="http://www.w3.org/2000/svg" xmlns:xlink="http://www.w3.org/1999/xlink">
  <g id="Layer_1" transform="translate(-0.935, -1.6812)">
    <g transform="matrix(0.9333, 0, 0, 0.9333, 0, 0)">
      <g id="icon">
        <g>
          <path d="M16, 11.738C17.471, 10.887 19.179, 10.4 21, 10.4C22.821, 10.4 24.528, 10.887 25.999, 11.738C25.966, 6.244 21.502, 1.8 16, 1.8C10.498, 1.8 6.034, 6.244 6.001, 11.738C7.472, 10.887 9.179, 10.4 11, 10.4C12.821, 10.4 14.529, 10.887 16, 11.738z" fill="#1177D7" fill-opacity="1" class="Blue" />
        </g>
      </g>
    </g>
  </g>
  <g id="Layer_1" transform="translate(-0.935, -1.6812)">
    <g transform="matrix(0.9333, 0, 0, 0.9333, 0, 0)">
      <g id="icon">
        <g>
          <path d="M11.001, 20.462C8.011, 18.733 6, 15.502 6, 11.8C6, 11.779 6.001, 11.758 6.001, 11.738C3.011, 13.467 1, 16.698 1, 20.4C1, 25.923 5.477, 30.4 11, 30.4C12.821, 30.4 14.529, 29.913 16, 29.062C13.028, 27.343 11.023, 24.138 11.001, 20.462z" fill="#D11C1C" fill-opacity="1" class="Red" />
        </g>
      </g>
    </g>
  </g>
  <g id="Layer_1" transform="translate(-0.935, -1.6812)">
    <g transform="matrix(0.9333, 0, 0, 0.9333, 0, 0)">
      <g id="icon">
        <g>
          <path d="M11.001, 20.462C11.001, 20.441 11, 20.421 11, 20.4C11, 16.699 13.011, 13.467 16, 11.738C14.529, 10.887 12.821, 10.4 11, 10.4C9.179, 10.4 7.472, 10.887 6.001, 11.738C6.001, 11.759 6, 11.779 6, 11.8C6, 15.502 8.011, 18.733 11.001, 20.462z" fill="#1177D7" fill-opacity="1" class="Blue" />
        </g>
      </g>
    </g>
  </g>
  <g id="Layer_1" transform="translate(-0.935, -1.6812)">
    <g transform="matrix(0.9333, 0, 0, 0.9333, 0, 0)">
      <g id="icon">
        <g>
          <path d="M25.999, 11.738C25.999, 11.759 26, 11.779 26, 11.8C26, 15.502 23.989, 18.733 20.999, 20.462C20.977, 24.137 18.972, 27.342 16, 29.062C17.471, 29.913 19.179, 30.4 21, 30.4C26.523, 30.4 31, 25.923 31, 20.4C31, 16.698 28.989, 13.467 25.999, 11.738z" fill="#039C23" fill-opacity="1" class="Green" />
        </g>
      </g>
    </g>
  </g>
  <g id="Layer_1" transform="translate(-0.935, -1.6812)">
    <g transform="matrix(0.9333, 0, 0, 0.9333, 0, 0)">
      <g id="icon">
        <g>
          <path d="M16, 11.738C18.989, 13.467 21, 16.699 21, 20.4C21, 20.421 20.999, 20.442 20.999, 20.462C23.989, 18.733 26, 15.502 26, 11.8C26, 11.779 25.999, 11.758 25.999, 11.738C24.528, 10.887 22.821, 10.4 21, 10.4C19.179, 10.4 17.471, 10.887 16, 11.738z" fill="#1177D7" fill-opacity="1" class="Blue" />
        </g>
      </g>
    </g>
  </g>
  <g id="Layer_1" transform="translate(-0.935, -1.6812)">
    <g transform="matrix(0.9333, 0, 0, 0.9333, 0, 0)">
      <g id="icon">
        <g>
          <path d="M20.999, 20.462C19.528, 21.313 17.821, 21.8 16, 21.8C14.179, 21.8 12.472, 21.313 11.001, 20.462C11.023, 24.137 13.028, 27.342 16, 29.062C18.972, 27.343 20.977, 24.138 20.999, 20.462z" fill="#FFB115" fill-opacity="1" class="Yellow" />
        </g>
      </g>
    </g>
  </g>
  <g id="Layer_1" transform="translate(-0.935, -1.6812)">
    <g transform="matrix(0.9333, 0, 0, 0.9333, 0, 0)">
      <g id="icon">
        <g>
          <path d="M16, 11.738C13.011, 13.467 11, 16.699 11, 20.4C11, 20.421 11.001, 20.442 11.001, 20.462C12.472, 21.313 14.179, 21.8 16, 21.8C17.821, 21.8 19.528, 21.313 20.999, 20.462C20.999, 20.441 21, 20.421 21, 20.4C21, 16.699 18.989, 13.467 16, 11.738z" fill="#FFFFFF" fill-opacity="1" class="White" />
        </g>
      </g>
    </g>
  </g>
</svg>