<?xml version='1.0' encoding='UTF-8'?>
<svg viewBox="-2.0325 -2 32 32" xmlns="http://www.w3.org/2000/svg" xmlns:xlink="http://www.w3.org/1999/xlink">
  <g id="Layer_1" transform="translate(-0.9822, -0.9556)">
    <g transform="matrix(0.9556, 0, 0, 0.9556, 0, 0)">
      <g id="icon">
        <path d="M9.054, 28.946C9.214, 28.946 9.368, 28.883 9.482, 28.77L12.884, 25.399C13.101, 25.182 13.095, 24.837 12.873, 24.614L9.482, 21.213C9.368, 21.099 9.213, 21.034 9.052, 21.034L7.169, 21.034C6.964, 21.034 6.861, 21.281 7.006, 21.426L9.557, 23.982L6.316, 23.982C5.025, 23.982 4.014, 22.964 4.014, 21.665L4.014, 19.51C4.014, 19.137 3.896, 19.02 3.52, 19.02L2.515, 19.02C2.163, 19.02 2, 19.11 2, 19.51L2, 21.667C2, 24.014 3.83, 25.919 6.169, 26.007L6.175, 26.008L6.197, 26.008C6.228, 26.008 6.257, 26.004 6.286, 25.997L9.552, 25.997L7.017, 28.542C6.868, 28.691 6.974, 28.946 7.185, 28.946L9.054, 28.946z" fill="#1177D7" class="Blue" />
      </g>
    </g>
  </g>
  <g id="Layer_1" transform="translate(-0.9822, -0.9556)">
    <g transform="matrix(0.9556, 0, 0, 0.9556, 0, 0)">
      <g id="icon">
        <path d="M21.089, 2.02C20.929, 2.02 20.775, 2.083 20.661, 2.196L17.259, 5.567C17.042, 5.784 17.048, 6.129 17.27, 6.352L20.661, 9.753C20.775, 9.867 20.93, 9.932 21.091, 9.932L22.974, 9.932C23.179, 9.932 23.281, 9.685 23.137, 9.54L20.586, 6.984L23.828, 6.984C25.119, 6.984 26.13, 8.002 26.13, 9.301L26.13, 11.458C26.13, 11.831 26.248, 11.948 26.624, 11.948L27.629, 11.948C27.981, 11.948 28.144, 11.858 28.144, 11.458L28.144, 9.299C28.144, 6.952 26.314, 5.047 23.975, 4.959L23.969, 4.958L23.947, 4.958C23.916, 4.958 23.887, 4.962 23.858, 4.969L20.59, 4.969L23.125, 2.424C23.274, 2.275 23.168, 2.02 22.957, 2.02L21.089, 2.02z" fill="#1177D7" class="Blue" />
      </g>
    </g>
  </g>
  <g id="Layer_1" transform="translate(-0.9822, -0.9556)">
    <g transform="matrix(0.9556, 0, 0, 0.9556, 0, 0)">
      <g id="icon">
        <path d="M12.285, 15.691L10.876, 12L4.771, 12L3.362, 15.691C3.293, 15.877 3.116, 16 2.918, 16L1.498, 16C1.166, 16 0.937, 15.667 1.056, 15.357L6.421, 1.305C6.491, 1.122 6.667, 1 6.863, 1L8.893, 1C9.089, 1 9.266, 1.121 9.336, 1.305L14.692, 15.358C14.81, 15.668 14.581, 16 14.249, 16L12.729, 16C12.531, 16 12.354, 15.877 12.285, 15.691zM10.172, 10L7.824, 3.657L5.484, 10L10.172, 10z" fill="#727272" class="Black" />
      </g>
    </g>
  </g>
  <g id="Layer_1" transform="translate(-0.9822, -0.9556)">
    <g transform="matrix(0.9556, 0, 0, 0.9556, 0, 0)">
      <g id="icon">
        <path d="M27.259, 30.291C25.907, 30.291 24.649, 29.229 23.521, 27.135C23.227, 27.326 22.936, 27.503 22.654, 27.661C20.996, 28.563 19.234, 29.326 17.411, 29.93C17.306, 29.965 17.192, 29.913 17.149, 29.811L16.424, 28.094C16.377, 27.982 16.434, 27.854 16.548, 27.813C19.097, 26.899 21.144, 25.948 22.637, 24.984C22.208, 23.611 21.927, 21.869 21.802, 20L16.815, 20C16.585, 20 16.399, 19.814 16.399, 19.584L16.399, 18.416C16.399, 18.186 16.585, 18 16.815, 18L21.7, 18L21.7, 15.016C21.7, 14.786 21.886, 14.6 22.116, 14.6L23.484, 14.6C23.714, 14.6 23.9, 14.786 23.9, 15.016L23.9, 18L26.551, 18C26.171, 17.434 25.661, 16.791 25.032, 16.083C24.951, 15.992 24.963, 15.851 25.06, 15.776L26.294, 14.821C26.379, 14.756 26.5, 14.764 26.574, 14.841C27.256, 15.544 27.85, 16.247 28.344, 16.933C28.408, 17.021 28.392, 17.143 28.309, 17.214L27.399, 17.999L29.485, 17.999C29.715, 17.999 29.901, 18.185 29.901, 18.415L29.901, 19.583C29.901, 19.813 29.715, 19.999 29.485, 19.999L23.989, 19.999C24.081, 21.346 24.26, 22.628 24.519, 23.617C25.523, 22.814 26.586, 21.855 27.685, 20.763C27.8, 20.649 27.989, 20.661 28.087, 20.79L29.135, 22.167C29.218, 22.276 29.205, 22.431 29.106, 22.525C27.749, 23.808 26.504, 24.902 25.4, 25.781C26.3, 27.599 26.753, 27.535 27.452, 27.551C27.642, 27.542 27.848, 27.279 28.041, 26.792C28.208, 26.371 28.352, 25.925 28.47, 25.464C28.515, 25.289 28.717, 25.208 28.871, 25.303L30.135, 26.092C30.228, 26.15 30.277, 26.258 30.257, 26.366C30.174, 26.817 30.007, 27.411 29.759, 28.135C29.476, 28.962 29.122, 29.537 28.706, 29.844C28.298, 30.139 27.886, 30.292 27.48, 30.298L27.477, 30.298L27.259, 30.291z" fill="#727272" class="Black" />
      </g>
    </g>
  </g>
</svg>