<?xml version='1.0' encoding='UTF-8'?>
<svg viewBox="-1.9999 -2.485 31.9999 32" xmlns="http://www.w3.org/2000/svg" xmlns:xlink="http://www.w3.org/1999/xlink">
  <g id="Layer_1" transform="translate(-1.931, -1.9333)">
    <g transform="matrix(0.9655, 0, 0, 0.9655, 0, 0)">
      <g id="icon">
        <path d="M30, 29.5L3, 29.5C2.7239, 29.5 2.5, 29.2761 2.5, 29L2.5, 7.5L30.5, 7.5L30.5, 29C30.5, 29.2761 30.2761, 29.5 30, 29.5z" fill="#FFFFFF" stroke="#000000" stroke-width="1px" stroke-miterlimit="1" />
      </g>
    </g>
  </g>
  <g id="Layer_1" transform="translate(-1.931, -1.9333)">
    <g transform="matrix(0.9655, 0, 0, 0.9655, 0, 0)">
      <g id="icon">
        <path d="M31, 8L2, 8L2, 3.4C2, 2.6268 2.6268, 2 3.4, 2L29.6, 2C30.3732, 2 31, 2.6268 31, 3.4L31, 8z" fill="#1177D7" class="Blue" />
      </g>
    </g>
  </g>
  <g id="Layer_1" transform="translate(-1.931, -1.9333)">
    <g transform="matrix(0.9655, 0, 0, 0.9655, 0, 0)">
      <g id="icon">
        <path d="M5.7569, 21.3991C5.7268, 21.3948 5.6999, 21.3778 5.6832, 21.3527L5.0198, 20.3497C4.9988, 20.318 5.0012, 20.2862 5.0045, 20.27C5.0078, 20.2538 5.018, 20.2237 5.0498, 20.2026L13.5112, 14.3558C13.6173, 14.2837 13.7608, 14.3046 13.8419, 14.4039L16.618, 17.8197L24.4003, 12.0005L23.6455, 10.9494C23.5441, 10.8082 23.6285, 10.6099 23.8005, 10.585L27.7346, 10.0154C27.9153, 9.9892 28.0538, 10.1726 27.9793, 10.3393L26.3124, 14.0664C26.2394, 14.2296 26.017, 14.2521 25.9127, 14.107L25.2253, 13.1648L16.5642, 19.5913C16.4581, 19.6526 16.311, 19.6338 16.2276, 19.5331L13.4096, 16.1211L5.825, 21.3862C5.8085, 21.3971 5.7819, 21.4027 5.7569, 21.3991z" fill="#039C23" class="Green" />
      </g>
    </g>
  </g>
  <g id="Layer_1" transform="translate(-1.931, -1.9333)">
    <g transform="matrix(0.9655, 0, 0, 0.9655, 0, 0)">
      <g id="icon">
        <path d="M8, 27L5, 27L5, 23.4417C5, 23.1978 5.1977, 23 5.4417, 23L7.5584, 23C7.8023, 23 8.0001, 23.1977 8.0001, 23.4417L8.0001, 27zM12, 27L9, 27L9, 21.4417C9, 21.1978 9.1977, 21 9.4417, 21L11.5584, 21C11.8023, 21 12.0001, 21.1977 12.0001, 21.4417L12.0001, 27zM16, 27L13, 27L13, 22.4417C13, 22.1978 13.1977, 22 13.4417, 22L15.5584, 22C15.8023, 22 16.0001, 22.1977 16.0001, 22.4417L16.0001, 27zM20, 27L17, 27L17, 21.4417C17, 21.1978 17.1977, 21 17.4417, 21L19.5584, 21C19.8023, 21 20.0001, 21.1977 20.0001, 21.4417L20.0001, 27zM24, 27L21, 27L21, 18.4417C21, 18.1978 21.1977, 18 21.4417, 18L23.5584, 18C23.8023, 18 24.0001, 18.1977 24.0001, 18.4417L24.0001, 27zM28, 27L25, 27L25, 16.4417C25, 16.1978 25.1977, 16 25.4417, 16L27.5584, 16C27.8023, 16 28.0001, 16.1977 28.0001, 16.4417L28.0001, 27z" fill="#727272" class="Black" />
      </g>
    </g>
  </g>
</svg>