<?xml version='1.0' encoding='UTF-8'?>
<svg viewBox="-2 -2.005 32 32" xmlns="http://www.w3.org/2000/svg" xmlns:xlink="http://www.w3.org/1999/xlink">
  <clipPath id="clip_mask" tag="staticElement_id45680779">
    <path d="M17, 31.329C17, 28.353 18.972, 27.596 20.378, 27.211C20.259, 27.149 20.151, 27.082 20.051, 27.01C19.719, 26.772 19.522, 26.386 19.523, 25.978C19.524, 25.57 19.724, 25.185 20.057, 24.948C20.147, 24.884 20.183, 24.851 20.265, 24.696C20.44, 24.367 20.502, 23.967 20.474, 23.359L20.46, 23.074C20.434, 22.54 20.406, 21.988 20.418, 21.428C20.432, 20.76 20.567, 20.111 20.819, 19.498C21.302, 18.323 22.239, 17.631 23.403, 17.582C23.861, 17.247 24.384, 17.051 24.924, 17.011C25.025, 17.004 25.129, 17 25.232, 17C26.596, 17 28.426, 17.702 29.094, 19.68C29.428, 20.668 29.469, 21.667 29.482, 22.526C29.489, 22.986 29.509, 23.588 29.606, 24.169C29.694, 24.699 29.817, 24.848 29.936, 24.93C30.275, 25.163 30.48, 25.548 30.483, 25.959C30.486, 26.372 30.287, 26.762 29.95, 27.002C29.843, 27.078 29.734, 27.148 29.625, 27.211C30.386, 27.42 31.311, 27.738 32.001, 28.457L32.001, 0L0, 0L0, 32L17.182, 32C17.062, 31.805 17, 31.582 17, 31.329z" />
  </clipPath>
  <g id="Layer_1" transform="translate(0, -0.0094)">
    <g transform="matrix(0.875, 0, 0, 0.875, 0, 0)">
      <g id="main">
        <g id="icon" clip-path="url(#clip_mask)">
          <g id="transformed_icon" transform="translate(-1, -1)">
            <path d="M25.131, 16C25.131, 18.403 24.158, 20.752 22.46, 22.453L26.609, 26.602C29.403, 23.803 31, 19.958 31, 16C31, 12.087 29.49, 8.378 26.747, 5.557C24.02, 2.751 20.383, 1.138 16.5, 1.009L16.5, 6.885C21.347, 7.148 25.131, 11.135 25.131, 16z" fill="#039C23" class="Green" />
          </g>
        </g>
      </g>
    </g>
  </g>
  <g id="Layer_1" transform="translate(0, -0.0094)">
    <g transform="matrix(0.875, 0, 0, 0.875, 0, 0)">
      <g id="main">
        <g id="icon" clip-path="url(#clip_mask)">
          <g id="transformed_icon" transform="translate(-1, -1)">
            <path d="M12.038, 24.226C8.982, 22.748 6.869, 19.616 6.869, 16C6.869, 11.115 10.646, 7.147 15.5, 6.886L15.5, 1.01C11.705, 1.135 8.127, 2.694 5.41, 5.41C2.566, 8.254 1, 12.015 1, 16C1, 19.985 2.566, 23.746 5.41, 26.59C6.645, 27.825 8.054, 28.819 9.578, 29.549L12.038, 24.226z" fill="#039C23" class="Green" />
          </g>
        </g>
      </g>
    </g>
  </g>
  <g id="Layer_1" transform="translate(0, -0.0094)">
    <g transform="matrix(0.875, 0, 0, 0.875, 0, 0)">
      <g id="main">
        <g id="icon" clip-path="url(#clip_mask)">
          <g id="transformed_icon" transform="translate(-1, -1)">
            <path d="M21.712, 23.119C20.089, 24.417 18.07, 25.131 16, 25.131C14.935, 25.131 13.913, 24.947 12.962, 24.611L10.495, 29.949C12.227, 30.638 14.088, 31 16, 31C19.578, 31 23.052, 29.711 25.781, 27.371L25.879, 27.287L21.712, 23.119z" fill="#039C23" class="Green" />
          </g>
        </g>
      </g>
    </g>
  </g>
  <g id="Layer_1" transform="translate(0, -0.0094)">
    <g transform="matrix(0.875, 0, 0, 0.875, 0, 0)">
      <g id="main">
        <g id="overlay">
          <path d="M26.96, 26.851C27.821, 26.819 28.651, 26.698 29.369, 26.188C29.518, 26.082 29.52, 25.859 29.368, 25.755C28.879, 25.42 28.709, 24.887 28.617, 24.333C28.519, 23.744 28.489, 23.139 28.48, 22.541C28.467, 21.679 28.424, 20.829 28.144, 20C27.628, 18.472 26.155, 17.923 24.995, 18.008C24.591, 18.038 24.223, 18.198 23.902, 18.458C23.822, 18.523 23.706, 18.584 23.609, 18.581C22.635, 18.55 22.053, 19.122 21.742, 19.879C21.535, 20.382 21.427, 20.912 21.416, 21.449C21.403, 22.07 21.442, 22.692 21.471, 23.313C21.501, 23.956 21.455, 24.584 21.146, 25.166C21.002, 25.438 20.869, 25.597 20.635, 25.763C20.485, 25.87 20.483, 26.09 20.633, 26.197C21.067, 26.509 21.863, 26.719 23.044, 26.832C22.37, 28.804 17.999, 27.226 17.999, 31.328C17.999, 31.976 20.165, 31.999 21.256, 31.999C21.612, 31.999 23.678, 31.999 24.802, 31.999C24.818, 31.999 24.834, 31.999 24.849, 31.999C24.961, 31.999 25.061, 31.999 25.15, 31.999C25.166, 31.999 25.182, 31.999 25.197, 31.999C26.321, 31.999 28.387, 31.999 28.743, 31.999C29.834, 31.999 32, 31.976 32, 31.328C32, 27.239 27.654, 28.796 26.96, 26.851z" fill="#039C23" class="Green" />
        </g>
      </g>
    </g>
  </g>
</svg>