<?xml version='1.0' encoding='UTF-8'?>
<svg viewBox="-2 -2.005 32 32" xmlns="http://www.w3.org/2000/svg" xmlns:xlink="http://www.w3.org/1999/xlink">
  <g id="Layer_1" transform="translate(-0.9333, -0.943)">
    <g transform="matrix(0.9333, 0, 0, 0.9333, 0, 0)">
      <g id="icon">
        <path d="M25.131, 16C25.131, 18.403 24.158, 20.752 22.46, 22.453L26.609, 26.602C29.403, 23.803 31, 19.958 31, 16C31, 12.087 29.49, 8.378 26.747, 5.557C24.02, 2.751 20.383, 1.138 16.5, 1.009L16.5, 6.885C21.347, 7.148 25.131, 11.135 25.131, 16z" fill="#D11C1C" class="Red" />
      </g>
    </g>
  </g>
  <g id="Layer_1" transform="translate(-0.9333, -0.943)">
    <g transform="matrix(0.9333, 0, 0, 0.9333, 0, 0)">
      <g id="icon">
        <path d="M12.038, 24.226C8.982, 22.748 6.869, 19.616 6.869, 16C6.869, 11.115 10.646, 7.147 15.5, 6.886L15.5, 1.01C11.705, 1.135 8.127, 2.694 5.41, 5.41C2.566, 8.254 1, 12.015 1, 16C1, 19.985 2.566, 23.746 5.41, 26.59C6.645, 27.825 8.054, 28.819 9.578, 29.549L12.038, 24.226z" fill="#1177D7" class="Blue" />
      </g>
    </g>
  </g>
  <g id="Layer_1" transform="translate(-0.9333, -0.943)">
    <g transform="matrix(0.9333, 0, 0, 0.9333, 0, 0)">
      <g id="icon">
        <path d="M21.712, 23.119C20.089, 24.417 18.07, 25.131 16, 25.131C14.935, 25.131 13.913, 24.947 12.962, 24.611L10.495, 29.949C12.227, 30.638 14.088, 31 16, 31C19.578, 31 23.052, 29.711 25.781, 27.371L25.879, 27.287L21.712, 23.119z" fill="#FFB115" class="Yellow" />
      </g>
    </g>
  </g>
</svg>