<?xml version='1.0' encoding='UTF-8'?>
<svg viewBox="-2 -2 32 32" xmlns="http://www.w3.org/2000/svg" xmlns:xlink="http://www.w3.org/1999/xlink">
  <clipPath id="clip_mask" tag="staticElement_id30342279">
    <path d="M17, 31.329C17, 28.353 18.972, 27.596 20.378, 27.211C20.259, 27.149 20.151, 27.082 20.051, 27.01C19.719, 26.772 19.522, 26.386 19.523, 25.978C19.524, 25.57 19.724, 25.185 20.057, 24.948C20.147, 24.884 20.183, 24.851 20.265, 24.696C20.44, 24.367 20.502, 23.967 20.474, 23.359L20.46, 23.074C20.434, 22.54 20.406, 21.988 20.418, 21.428C20.432, 20.76 20.567, 20.111 20.819, 19.498C21.302, 18.323 22.239, 17.631 23.403, 17.582C23.861, 17.247 24.384, 17.051 24.924, 17.011C25.025, 17.004 25.129, 17 25.232, 17C26.596, 17 28.426, 17.702 29.094, 19.68C29.428, 20.668 29.469, 21.667 29.482, 22.526C29.489, 22.986 29.509, 23.588 29.606, 24.169C29.694, 24.699 29.817, 24.848 29.936, 24.93C30.275, 25.163 30.48, 25.548 30.483, 25.959C30.486, 26.372 30.287, 26.762 29.95, 27.002C29.843, 27.078 29.734, 27.148 29.625, 27.211C30.386, 27.42 31.311, 27.738 32.001, 28.457L32.001, 0L0, 0L0, 32L17.182, 32C17.062, 31.805 17, 31.582 17, 31.329z" />
  </clipPath>
  <g id="Layer_1" transform="translate(-0.9032, -0.9032)">
    <g transform="matrix(0.9032, 0, 0, 0.9032, 0, 0)">
      <g id="main">
        <g id="icon" clip-path="url(#clip_mask)">
          <g id="transformed_icon" transform="translate(-1, -1)">
            <path d="M30, 29.5L3, 29.5C2.7239, 29.5 2.5, 29.2761 2.5, 29L2.5, 7.5L30.5, 7.5L30.5, 29C30.5, 29.2761 30.2761, 29.5 30, 29.5z" fill="none" stroke="#4DAE89" stroke-width="1px" stroke-miterlimit="1" />
          </g>
        </g>
      </g>
    </g>
  </g>
  <g id="Layer_1" transform="translate(-0.9032, -0.9032)">
    <g transform="matrix(0.9032, 0, 0, 0.9032, 0, 0)">
      <g id="main">
        <g id="icon" clip-path="url(#clip_mask)">
          <g id="transformed_icon" transform="translate(-1, -1)">
            <path d="M31, 8L2, 8L2, 3.4C2, 2.6268 2.6268, 2 3.4, 2L29.6, 2C30.3732, 2 31, 2.6268 31, 3.4L31, 8z" fill="#039C23" class="Green" />
          </g>
        </g>
      </g>
    </g>
  </g>
  <g id="Layer_1" transform="translate(-0.9032, -0.9032)">
    <g transform="matrix(0.9032, 0, 0, 0.9032, 0, 0)">
      <g id="main">
        <g id="icon" clip-path="url(#clip_mask)">
          <g id="transformed_icon" transform="translate(-1, -1)">
            <path d="M5.7569, 21.3991C5.7268, 21.3948 5.6999, 21.3778 5.6832, 21.3527L5.0198, 20.3497C4.9988, 20.318 5.0012, 20.2862 5.0045, 20.27C5.0078, 20.2538 5.018, 20.2237 5.0498, 20.2026L13.5112, 14.3558C13.6173, 14.2837 13.7608, 14.3046 13.8419, 14.4039L16.618, 17.8197L24.4003, 12.0005L23.6455, 10.9494C23.5441, 10.8082 23.6285, 10.6099 23.8005, 10.585L27.7346, 10.0154C27.9153, 9.9892 28.0538, 10.1726 27.9793, 10.3393L26.3124, 14.0664C26.2394, 14.2296 26.017, 14.2521 25.9127, 14.107L25.2253, 13.1648L16.5642, 19.5913C16.4581, 19.6526 16.311, 19.6338 16.2276, 19.5331L13.4096, 16.1211L5.825, 21.3862C5.8085, 21.3971 5.7819, 21.4027 5.7569, 21.3991z" fill="#039C23" class="Green" />
          </g>
        </g>
      </g>
    </g>
  </g>
  <g id="Layer_1" transform="translate(-0.9032, -0.9032)">
    <g transform="matrix(0.9032, 0, 0, 0.9032, 0, 0)">
      <g id="main">
        <g id="icon" clip-path="url(#clip_mask)">
          <g id="transformed_icon" transform="translate(-1, -1)">
            <path d="M8, 27L5, 27L5, 23.4417C5, 23.1978 5.1977, 23 5.4417, 23L7.5584, 23C7.8023, 23 8.0001, 23.1977 8.0001, 23.4417L8.0001, 27zM12, 27L9, 27L9, 21.4417C9, 21.1978 9.1977, 21 9.4417, 21L11.5584, 21C11.8023, 21 12.0001, 21.1977 12.0001, 21.4417L12.0001, 27zM16, 27L13, 27L13, 22.4417C13, 22.1978 13.1977, 22 13.4417, 22L15.5584, 22C15.8023, 22 16.0001, 22.1977 16.0001, 22.4417L16.0001, 27zM20, 27L17, 27L17, 21.4417C17, 21.1978 17.1977, 21 17.4417, 21L19.5584, 21C19.8023, 21 20.0001, 21.1977 20.0001, 21.4417L20.0001, 27zM24, 27L21, 27L21, 18.4417C21, 18.1978 21.1977, 18 21.4417, 18L23.5584, 18C23.8023, 18 24.0001, 18.1977 24.0001, 18.4417L24.0001, 27zM28, 27L25, 27L25, 16.4417C25, 16.1978 25.1977, 16 25.4417, 16L27.5584, 16C27.8023, 16 28.0001, 16.1977 28.0001, 16.4417L28.0001, 27z" fill="#039C23" class="Green" />
          </g>
        </g>
      </g>
    </g>
  </g>
  <g id="Layer_1" transform="translate(-0.9032, -0.9032)">
    <g transform="matrix(0.9032, 0, 0, 0.9032, 0, 0)">
      <g id="main">
        <g id="overlay">
          <path d="M26.96, 26.851C27.821, 26.819 28.651, 26.698 29.369, 26.188C29.518, 26.082 29.52, 25.859 29.368, 25.755C28.879, 25.42 28.709, 24.887 28.617, 24.333C28.519, 23.744 28.489, 23.139 28.48, 22.541C28.467, 21.679 28.424, 20.829 28.144, 20C27.628, 18.472 26.155, 17.923 24.995, 18.008C24.591, 18.038 24.223, 18.198 23.902, 18.458C23.822, 18.523 23.706, 18.584 23.609, 18.581C22.635, 18.55 22.053, 19.122 21.742, 19.879C21.535, 20.382 21.427, 20.912 21.416, 21.449C21.403, 22.07 21.442, 22.692 21.471, 23.313C21.501, 23.956 21.455, 24.584 21.146, 25.166C21.002, 25.438 20.869, 25.597 20.635, 25.763C20.485, 25.87 20.483, 26.09 20.633, 26.197C21.067, 26.509 21.863, 26.719 23.044, 26.832C22.37, 28.804 17.999, 27.226 17.999, 31.328C17.999, 31.976 20.165, 31.999 21.256, 31.999C21.612, 31.999 23.678, 31.999 24.802, 31.999C24.818, 31.999 24.834, 31.999 24.849, 31.999C24.961, 31.999 25.061, 31.999 25.15, 31.999C25.166, 31.999 25.182, 31.999 25.197, 31.999C26.321, 31.999 28.387, 31.999 28.743, 31.999C29.834, 31.999 32, 31.976 32, 31.328C32, 27.239 27.654, 28.796 26.96, 26.851z" fill="#039C23" class="Green" />
        </g>
      </g>
    </g>
  </g>
</svg>