<?xml version='1.0' encoding='UTF-8'?>
<svg viewBox="-2 -7.25 32 32" xmlns="http://www.w3.org/2000/svg" xmlns:xlink="http://www.w3.org/1999/xlink">
  <g id="Layer_1" transform="translate(0, -5.25)">
    <g transform="matrix(1.75, 0, 0, 1.75, 0, 0)">
      <g id="icon">
        <path d="M15, 10.125L15, 5.8488C13.8811, 5.6898 13.2965, 5.1112 13.1364, 4L2.89, 4C2.89, 5.2012 2.2095, 5.875 1, 5.875L1, 10.1512C2.1189, 10.3102 2.7035, 10.8888 2.8636, 12L13.11, 12C13.11, 10.7988 13.7905, 10.125 15, 10.125z" fill="#FFFFFF" fill-opacity="1" class="White" />
      </g>
    </g>
  </g>
  <g id="Layer_1" transform="translate(0, -5.25)">
    <g transform="matrix(1.75, 0, 0, 1.75, 0, 0)">
      <g id="icon">
        <path d="M7.1969, 6.5617C7.3228, 6.4549 7.4472, 6.389 7.6794, 6.3639L7.6794, 7.5232C7.4472, 7.474 7.2791, 7.4008 7.1706, 7.3035C7.0621, 7.2062 7.0003, 7.0853 7.0003, 6.9408C7.0003, 6.7948 7.0709, 6.6685 7.1969, 6.5617zM8.4238, 8.2415L8.4238, 9.4992C8.5786, 9.479 8.7503, 9.4081 8.8913, 9.2867C9.0323, 9.1653 9.0941, 9.0151 9.0941, 8.8362C9.0941, 8.6837 9.0583, 8.5611 8.9604, 8.4685C8.8625, 8.3758 8.656, 8.3002 8.4238, 8.2415zM10.7139, 7.9728C10.7139, 9.8012 9.5098, 11.2834 8.0244, 11.2834C6.539, 11.2834 5.3349, 9.8011 5.3349, 7.9728C5.3349, 6.1444 6.539, 4.6622 8.0244, 4.6622C9.5098, 4.6622 10.7139, 6.1444 10.7139, 7.9728zM9.6772, 8.8222C9.6772, 8.6735 9.6431, 8.5353 9.5822, 8.4076C9.5212, 8.2799 9.4369, 8.1697 9.3234, 8.0769C9.21, 7.9842 9.0661, 7.8581 8.8986, 7.7977C8.8108, 7.7667 8.6365, 7.7224 8.4238, 7.6647L8.4238, 6.397C8.5656, 6.4266 8.6741, 6.4879 8.7745, 6.5809C8.8749, 6.6739 8.9282, 6.8075 8.96, 6.982L9.5827, 6.8478C9.5315, 6.5478 9.3921, 6.3118 9.1403, 6.1398C8.9439, 6.0047 8.7073, 5.924 8.4238, 5.8976L8.4238, 5.556L7.7228, 5.556L7.7062, 5.8829C7.2756, 5.9155 7.0017, 5.9839 6.7829, 6.1287C6.4557, 6.3442 6.2922, 6.6244 6.2922, 6.9721C6.2922, 7.1677 6.3484, 7.3417 6.4607, 7.4956C6.573, 7.6495 6.7332, 7.7696 6.941, 7.8565C7.2212, 7.9743 7.4181, 8.0585 7.6794, 8.1096L7.6794, 9.5033C7.4503, 9.484 7.3129, 9.3896 7.1349, 9.2204C7.0108, 9.1006 6.9248, 8.9129 6.8757, 8.6574L6.1861, 8.8467C6.2094, 9.0933 6.2956, 9.3021 6.4395, 9.473C6.5832, 9.6439 6.7512, 9.7676 6.9487, 9.8443C7.1461, 9.921 7.7858, 10.0185 7.7858, 10.0185L7.7858, 10.4474L8.4238, 10.4474L8.4238, 10.0281C8.7783, 10.0124 9.05, 9.8596 9.3047, 9.6409C9.5594, 9.4223 9.6772, 9.1494 9.6772, 8.8222zM16, 3.5952L16, 12.4048C16, 12.7335 15.7314, 13 15.4, 13L0.6, 13C0.2686, 13 0, 12.7335 0, 12.4048L0, 3.5952C0, 3.2665 0.2686, 3 0.6, 3L15.4, 3C15.7314, 3 16, 3.2665 16, 3.5952zM15, 5.8488C13.8811, 5.6898 13.2965, 5.1112 13.1364, 4L2.89, 4C2.89, 5.2012 2.2095, 5.875 1, 5.875L1, 10.1512C2.1189, 10.3102 2.7035, 10.8888 2.8636, 12L13.11, 12C13.11, 10.7988 13.7905, 10.125 15, 10.125L15, 5.8488z" fill="#727272" fill-opacity="1" class="Black" />
      </g>
    </g>
  </g>
  <g id="Layer_1" transform="translate(0, -5.25)">
    <g transform="matrix(1.75, 0, 0, 1.75, 0, 0)">
      <g id="icon">
        <path d="M8.4238, 10.4475L8.4238, 10.0282C8.7783, 10.0125 9.05, 9.8597 9.3047, 9.641C9.5594, 9.4223 9.6772, 9.1494 9.6772, 8.8222C9.6772, 8.6735 9.6431, 8.5353 9.5822, 8.4076C9.5212, 8.2799 9.4369, 8.1697 9.3234, 8.0769C9.21, 7.9842 9.0661, 7.8581 8.8986, 7.7977C8.8108, 7.7667 8.6365, 7.7224 8.4238, 7.6647L8.4238, 6.397C8.5656, 6.4266 8.6741, 6.488 8.7745, 6.5809C8.8749, 6.6739 8.9282, 6.8075 8.96, 6.982L9.5827, 6.8478C9.5315, 6.5478 9.3921, 6.3118 9.1403, 6.1398C8.9439, 6.0047 8.7073, 5.924 8.4238, 5.8976L8.4238, 5.556L7.7228, 5.556L7.7062, 5.8829C7.2756, 5.9155 7.0017, 5.9839 6.7829, 6.1287C6.4557, 6.3442 6.2922, 6.6244 6.2922, 6.9721C6.2922, 7.1677 6.3484, 7.3417 6.4607, 7.4956C6.573, 7.6495 6.7332, 7.7696 6.941, 7.8565C7.2212, 7.9743 7.4181, 8.0585 7.6794, 8.1096L7.6794, 9.5033C7.4503, 9.484 7.3129, 9.3896 7.1349, 9.2204C7.0108, 9.1006 6.9248, 8.9129 6.8757, 8.6574L6.1861, 8.8467C6.2094, 9.0933 6.2956, 9.3021 6.4395, 9.473C6.5832, 9.6439 6.7512, 9.7676 6.9487, 9.8443C7.1461, 9.921 7.7858, 10.0185 7.7858, 10.0185L7.7858, 10.4474L8.4238, 10.4474zM8.4238, 8.2415C8.656, 8.3002 8.8625, 8.3758 8.9604, 8.4684C9.0582, 8.5611 9.0941, 8.6836 9.0941, 8.8361C9.0941, 9.0151 9.0323, 9.1652 8.8913, 9.2867C8.7503, 9.4081 8.5786, 9.479 8.4238, 9.4992L8.4238, 8.2415zM7.6794, 7.5232C7.4472, 7.474 7.2791, 7.4008 7.1706, 7.3035C7.0621, 7.2062 7.0003, 7.0853 7.0003, 6.9408C7.0003, 6.7948 7.0709, 6.6685 7.1969, 6.5617C7.3228, 6.4549 7.4472, 6.389 7.6794, 6.3639L7.6794, 7.5232z" fill="#FFFFFF" fill-opacity="1" class="White" fill-rule="evenodd" />
      </g>
    </g>
  </g>
</svg>