<?xml version='1.0' encoding='UTF-8'?>
<svg viewBox="-2.9175 0 31.9975 32" xmlns="http://www.w3.org/2000/svg" xmlns:xlink="http://www.w3.org/1999/xlink">
  <g transform="translate(0.0001, 2.0011)">
    <g transform="translate(-0.0001, 0.0011)">
      <g transform="translate(-0.0017, -0.0064)">
        <g transform="matrix(0.8747, 0, 0, 0.8747, 0, 0)">
          <g transform="translate(0.0021, 0.0088)">
            <g transform="matrix(1.1428, 0, 0, 1.1428, 0, 0)">
              <g id="Layer_1" transform="translate(-0.1474, -0.0075)">
                <g transform="matrix(1.7522, 0, 0, 1.7522, 0, 0)">
                  <g id="icon">
                    <path d="M14.5935, 3.8004C13.5217, 0.8889 10.3605, -0.237 7.5028, 0.0409C5.916, 0.1952 4.4038, 0.7063 3.2998, 1.9206C2.2433, 3.0826 1.7483, 4.4873 1.4373, 6.0086C1.3927, 6.227 1.3441, 6.4582 1.4067, 6.6789C1.4495, 6.8299 1.6357, 6.9457 1.593, 7.1061C1.5055, 7.4348 1.202, 7.7651 1.0248, 8.0498C0.8124, 8.3911 -0.1148, 9.464 0.1202, 9.8903C0.3338, 10.2777 1.2155, 10.1468 1.1119, 10.7069C0.9984, 11.3207 0.9806, 11.4923 1.6426, 11.5924C1.4839, 11.6596 0.9618, 11.81 1.1346, 12.0822C1.2987, 12.3406 1.6393, 12.3642 1.5665, 12.7551C1.467, 13.2894 1.1288, 13.8177 1.5216, 14.333C1.8944, 14.822 2.6186, 14.7313 3.1463, 14.6752C3.5782, 14.6293 4.5684, 14.2913 4.787, 14.8725C4.9345, 15.2646 4.7474, 15.7843 5.2203, 15.9148C5.5695, 16.0112 5.9305, 15.9779 6.38, 15.9779C6.7679, 15.9779 13.2404, 15.9344 12.5233, 12.7816C12.3846, 12.1716 12.4502, 12.2989 12.4502, 11.8633C12.4502, 11.0327 13.2462, 10.5549 13.7293, 9.9128C14.1507, 9.3526 14.4932, 8.73 14.7156, 8.0611C15.1727, 6.6866 15.0912, 5.1525 14.5935, 3.8004zM13.4912, 7.1718C12.7869, 9.2064 10.8569, 10.0499 8.2322, 9.1125C5.6075, 8.1751 3.2823, 5.8117 3.9865, 3.777C4.6908, 1.7424 7.8165, 0.8121 10.4412, 1.7495C13.0659, 2.6869 14.1955, 5.1371 13.4912, 7.1718z" fill="#039C23" fill-opacity="1" class="Green" />
                  </g>
                </g>
              </g>
            </g>
          </g>
        </g>
      </g>
    </g>
  </g>
  <g transform="translate(0.0001, 2.0011)">
    <g transform="translate(-0.0001, 0.0011)">
      <g transform="translate(-0.0017, -0.0064)">
        <g transform="matrix(0.8747, 0, 0, 0.8747, 0, 0)">
          <g transform="translate(0.0021, 0.0088)">
            <g transform="matrix(1.1428, 0, 0, 1.1428, 0, 0)">
              <g id="Layer_1" transform="translate(-0.1474, -0.0075)">
                <g transform="matrix(1.7522, 0, 0, 1.7522, 0, 0)">
                  <g id="icon">
                    <path d="M13.4912, 7.1718C12.7869, 9.2064 10.8569, 10.0499 8.2322, 9.1125C5.6075, 8.1751 3.2823, 5.8117 3.9865, 3.777C4.6907, 1.7423 7.8165, 0.8121 10.4412, 1.7495C13.0659, 2.6869 14.1955, 5.1371 13.4912, 7.1718z" fill="#FFFFFF" fill-opacity="1" class="White" />
                  </g>
                </g>
              </g>
            </g>
          </g>
        </g>
      </g>
    </g>
  </g>
  <g transform="translate(0.0001, 2.0011)">
    <g transform="translate(-0.0001, 0.0011)">
      <g transform="translate(-0.0017, -0.0064)">
        <g transform="matrix(0.8747, 0, 0, 0.8747, 0, 0)">
          <g transform="translate(0.0021, 0.0088)">
            <g transform="matrix(1.1428, 0, 0, 1.1428, 0, 0)">
              <g id="Layer_1" transform="translate(-0.1474, -0.0075)">
                <g transform="matrix(1.7522, 0, 0, 1.7522, 0, 0)">
                  <g id="icon">
                    <path d="M11.7301, 4.6643L11.1077, 4.4478L10.9566, 4.0691L11.2553, 3.4746C11.3065, 3.3727 11.2877, 3.249 11.2088, 3.1674L10.9107, 2.8594C10.8318, 2.7778 10.7103, 2.7567 10.6091, 2.807L10.0188, 3.1004L9.6486, 2.9409L9.4461, 2.3043C9.4114, 2.1955 9.3121, 2.1199 9.1995, 2.1189L8.7743, 2.1152C8.6617, 2.1142 8.5611, 2.188 8.5246, 2.2962L8.3115, 2.9284L7.9387, 3.0819L7.3535, 2.7785C7.2532, 2.7265 7.1314, 2.7456 7.0511, 2.8257L6.7479, 3.1285C6.6676, 3.2087 6.6468, 3.3321 6.6963, 3.4348L6.9851, 4.0344L6.828, 4.4104L6.2013, 4.6161C6.0942, 4.6513 6.0198, 4.7522 6.0188, 4.8666L6.0152, 5.2985C6.0142, 5.4129 6.0869, 5.5151 6.1934, 5.5521L6.8158, 5.7686L6.9669, 6.1473L6.6682, 6.7418C6.617, 6.8437 6.6358, 6.9674 6.7147, 7.049L7.0128, 7.357C7.0917, 7.4386 7.2132, 7.4597 7.3144, 7.4094L7.9047, 7.116L8.2749, 7.2755L8.4774, 7.9121C8.5121, 8.0209 8.6114, 8.0965 8.724, 8.0975L9.1492, 8.1012C9.2618, 8.1022 9.3624, 8.0284 9.3989, 7.9202L9.612, 7.288L9.9848, 7.1345L10.57, 7.4379C10.6703, 7.4899 10.7921, 7.4708 10.8724, 7.3907L11.1756, 7.0879C11.2559, 7.0077 11.2767, 6.8843 11.2272, 6.7816L10.9384, 6.182L11.0955, 5.806L11.7222, 5.6003C11.8293, 5.5651 11.9037, 5.4642 11.9047, 5.3498L11.9083, 4.9179C11.9093, 4.8036 11.8366, 4.7014 11.7301, 4.6643zM8.9547, 5.9582C8.4927, 5.9542 8.1213, 5.5705 8.1253, 5.1011C8.1293, 4.6318 8.507, 4.2545 8.969, 4.2586C9.431, 4.2627 9.8024, 4.6463 9.7984, 5.1157C9.7945, 5.585 9.4168, 5.9622 8.9547, 5.9582z" fill="Transparent" fill-opacity="1" class="Transparent" />
                  </g>
                </g>
              </g>
            </g>
          </g>
        </g>
      </g>
    </g>
  </g>
  <g id="Layer_1" transform="translate(11.0825, 0)" style="enable-background:new 0 0 16 16">
    <g id="Table">
      <g class="st1">
        <rect x="0" y="6" width="4" height="4" rx="0" ry="0" fill="#1177D7" class="Blue" />
      </g>
    </g>
  </g>
  <g id="Layer_1" transform="translate(11.0825, 0)" style="enable-background:new 0 0 16 16">
    <g id="Table">
      <g class="st1">
        <rect x="6" y="12" width="4" height="4" rx="0" ry="0" fill="#FFB115" class="Yellow" />
      </g>
    </g>
  </g>
  <g id="Layer_1" transform="translate(11.0825, 0)" style="enable-background:new 0 0 16 16">
    <g id="Table">
      <g class="st1">
        <rect x="0" y="12" width="4" height="4" rx="0" ry="0" fill="#D11C1C" class="Red" />
      </g>
    </g>
  </g>
  <g id="Layer_1" transform="translate(11.0825, 0)" style="enable-background:new 0 0 16 16">
    <g id="Table">
      <g class="st1">
        <rect x="12" y="6" width="4" height="4" rx="0" ry="0" fill="Transparent" class="Transparent" />
      </g>
    </g>
  </g>
  <g id="Layer_1" transform="translate(11.0825, 0)" style="enable-background:new 0 0 16 16">
    <g id="Table">
      <g class="st1">
        <rect x="12" y="12" width="4" height="4" rx="0" ry="0" fill="Transparent" class="Transparent" />
      </g>
    </g>
  </g>
  <g id="Layer_1" transform="translate(11.0825, 0)" style="enable-background:new 0 0 16 16">
    <g id="Table">
      <g class="st1">
        <rect x="6" y="6" width="4" height="4" rx="0" ry="0" fill="#1177D7" class="Blue" />
      </g>
    </g>
  </g>
  <g id="Layer_1" transform="translate(11.0825, 0)" style="enable-background:new 0 0 16 16">
    <g id="Table">
      <rect x="0" y="0" width="16" height="4" rx="0" ry="0" fill="Transparent" class="Transparent" />
    </g>
  </g>
</svg>