<?xml version='1.0' encoding='UTF-8'?>
<svg viewBox="-2 -2 32 31.9987" xmlns="http://www.w3.org/2000/svg" xmlns:xlink="http://www.w3.org/1999/xlink">
  <g id="Layer_1" transform="translate(-0.02, -0.02)">
    <g transform="matrix(1.7522, 0, 0, 1.7522, 0, 0)">
      <g id="icon">
        <path d="M9.5223, 7.9551C9.5223, 9.1886 9.3254, 11.258 8.0066, 11.258C7.0717, 11.258 6.4909, 10.0223 6.4909, 8.033C6.4909, 6.0265 7.0858, 4.7301 8.0066, 4.7301C9.2594, 4.7302 9.5223, 6.4839 9.5223, 7.9551zM13.6497, 13.6497C10.5294, 16.77 5.4705, 16.77 2.3502, 13.6497C-0.7701, 10.5294 -0.7701, 5.4705 2.3502, 2.3502C5.4705, -0.7701 10.5294, -0.7701 13.6497, 2.3502C16.77, 5.4705 16.77, 10.5295 13.6497, 13.6497zM11.1275, 7.9032C11.1275, 5.09 9.9902, 3.4105 8.0854, 3.4105C7.1372, 3.4105 6.3354, 3.8325 5.7668, 4.6308C5.1904, 5.44 4.8857, 6.612 4.8857, 8.0222C4.9121, 10.8322 6.0828, 12.5778 7.9409, 12.5778C9.9661, 12.5778 11.1275, 10.8739 11.1275, 7.9032z" fill="#1177D7" fill-opacity="1" class="Blue" />
      </g>
    </g>
  </g>
  <g id="Layer_1" transform="translate(-0.02, -0.02)">
    <g transform="matrix(1.7522, 0, 0, 1.7522, 0, 0)">
      <g id="icon">
        <path d="M8.0855, 3.4105C7.1373, 3.4105 6.3355, 3.8325 5.7669, 4.6308C5.1905, 5.44 4.8858, 6.612 4.8858, 8.0222C4.9122, 10.8322 6.0829, 12.5778 7.941, 12.5778C9.9661, 12.5778 11.1275, 10.874 11.1275, 7.9032C11.1275, 5.09 9.9903, 3.4105 8.0855, 3.4105zM8.0067, 11.258C7.0718, 11.258 6.491, 10.0223 6.491, 8.033C6.491, 6.0266 7.0859, 4.7301 8.0067, 4.7301C9.2594, 4.7301 9.5224, 6.4838 9.5224, 7.9551C9.5223, 9.1887 9.3255, 11.258 8.0067, 11.258z" fill="#FFFFFF" fill-opacity="1" class="White" />
      </g>
    </g>
  </g>
  <g id="Layer_1" transform="translate(16.5261, 15.0012)">
    <g transform="matrix(0.5, 0, 0, 0.5, 0, 0)">
      <g transform="matrix(1.7495, 0, 0, 1.7495, 0, 0)">
        <g id="icon">
          <path d="M9.9724, 6L13.9307, 6C14.127, 6 14.2151, 6.2462 14.0632, 6.3707L1.829, 15.954C1.6546, 16.097 1.4087, 15.9006 1.5095, 15.6989L5.4275, 8L1.8708, 8C1.6987, 8 1.6003, 7.8036 1.7034, 7.6658L7.272, 0.0838C7.3115, 0.0311 7.3735, 0 7.4394, 0L15.3906, 0C15.5803, 0 15.6719, 0.2324 15.5332, 0.3618L9.9724, 6z" fill="#FFB115" fill-opacity="1" class="Yellow" fill-rule="evenodd" />
        </g>
      </g>
    </g>
  </g>
</svg>