<?xml version='1.0' encoding='UTF-8'?>
<svg viewBox="-2.015 -2 32 32" xmlns="http://www.w3.org/2000/svg" xmlns:xlink="http://www.w3.org/1999/xlink">
  <g id="Layer_1" transform="translate(-0.9611, -0.9333)">
    <g transform="matrix(0.9333, 0, 0, 0.9333, 0, 0)">
      <g id="icon">
        <path d="M12, 10.046L12, 8.321C12, 8.964 12.286, 9.582 12.797, 10.147C12.535, 10.104 12.269, 10.07 12, 10.046zM21.622, 25C21.498, 25 21.374, 24.998 21.251, 24.996C21.108, 25.363 20.945, 25.72 20.765, 26.067C21.049, 26.083 21.335, 26.093 21.622, 26.093C25.793, 26.093 29.417, 24.7 31, 22.55L31, 20.421C31, 22.955 26.81, 25 21.622, 25zM21.392, 9.935C26.519, 9.839 30.85, 8.084 30.76, 5.671C30.752, 5.444 30.718, 5.221 30.638, 5.004C30.644, 5.061 30.648, 5.117 30.648, 5.174C30.648, 7.368 25.982, 8.88 21.027, 8.88C16.523, 8.88 12.813, 7.26 12.171, 5.357C12.023, 7.916 16.261, 10.031 21.392, 9.935zM21.622, 13C20.424, 13 19.266, 12.885 18.194, 12.678C18.639, 13.063 19.052, 13.483 19.43, 13.934C20.146, 14.035 20.879, 14.093 21.622, 14.093C25.793, 14.093 29.417, 12.7 31, 10.55L31, 8.321C31, 10.855 26.81, 13 21.622, 13zM22, 20.996C22, 20.997 22, 20.999 22, 21C22, 21.368 21.982, 21.731 21.946, 22.09C25.98, 22.02 29.458, 20.644 31, 18.551L31, 16.422C31, 18.893 27.012, 20.899 22, 20.996zM21.622, 17C21.497, 17 21.372, 16.998 21.248, 16.996C21.388, 17.353 21.509, 17.719 21.611, 18.093C21.615, 18.093 21.618, 18.093 21.622, 18.093C25.793, 18.093 29.417, 16.7 31, 14.55L31, 12.421C31, 14.955 26.81, 17 21.622, 17z" fill="#FFFFFF" />
      </g>
    </g>
  </g>
  <g id="Layer_1" transform="translate(-0.9611, -0.9333)">
    <g transform="matrix(0.9333, 0, 0, 0.9333, 0, 0)">
      <g id="icon">
        <path d="M31, 22.551C31, 23.466 31, 24.219 31, 24.422C31, 26.956 26.81, 29.001 21.622, 29.001C20.635, 29.001 19.675, 28.927 18.768, 28.789C19.565, 27.994 20.241, 27.076 20.766, 26.068C21.05, 26.084 21.336, 26.094 21.623, 26.094C25.793, 26.093 29.417, 24.7 31, 22.551zM21.946, 22.09C21.846, 23.106 21.608, 24.081 21.251, 24.996C21.374, 24.998 21.498, 25 21.622, 25C26.81, 25 31, 22.955 31, 20.421C31, 20.218 31, 19.465 31, 18.55C29.458, 20.644 25.98, 22.02 21.946, 22.09zM21.622, 14.093C20.88, 14.093 20.146, 14.035 19.43, 13.934C20.191, 14.842 20.809, 15.874 21.248, 16.996C21.372, 16.998 21.497, 17 21.622, 17C26.81, 17 31, 14.955 31, 12.421C31, 12.218 31, 11.465 31, 10.55C29.417, 12.7 25.793, 14.093 21.622, 14.093zM31, 5.604C31, 5.672 31, 7.917 31, 8.321C31, 10.855 26.81, 13 21.622, 13C20.424, 13 19.266, 12.885 18.194, 12.678C16.695, 11.381 14.841, 10.483 12.798, 10.147C12.287, 9.583 12.001, 8.965 12.001, 8.321C12.001, 7.988 12.001, 5.567 12.001, 5.48C12, 2.945 16.42, 1 21.611, 1C26.802, 1 31, 3.069 31, 5.604zM30.76, 5.671C30.752, 5.444 30.718, 5.221 30.638, 5.004C30.644, 5.061 30.648, 5.117 30.648, 5.174C30.648, 7.368 25.982, 8.88 21.027, 8.88C16.523, 8.88 12.813, 7.26 12.171, 5.357C12.022, 7.916 16.26, 10.031 21.392, 9.934C26.519, 9.838 30.85, 8.084 30.76, 5.671zM21.622, 18.093C21.618, 18.093 21.615, 18.093 21.611, 18.093C21.864, 19.018 22, 19.991 22, 20.996C27.012, 20.899 31, 18.893 31, 16.421C31, 16.218 31, 15.465 31, 14.55C29.417, 16.7 25.793, 18.093 21.622, 18.093z" fill="#FFB115" class="Yellow" />
      </g>
    </g>
  </g>
  <g id="Layer_1" transform="translate(-0.9611, -0.9333)">
    <g transform="matrix(0.9333, 0, 0, 0.9333, 0, 0)">
      <g id="icon">
        <path d="M21.511, 7.807C17.106, 7.807 13.522, 6.406 13.522, 4.683C13.522, 2.96 17.106, 1.559 21.511, 1.559C25.916, 1.559 29.5, 2.961 29.5, 4.684C29.5, 6.407 25.916, 7.807 21.511, 7.807zM21.511, 1.949C17.655, 1.949 14.413, 3.121 14.413, 4.39C14.413, 5.898 17.655, 6.929 21.511, 6.929C25.367, 6.929 28.609, 5.898 28.609, 4.39C28.609, 3.122 25.367, 1.949 21.511, 1.949z" fill="#727272" opacity="0.1" class="Black" />
      </g>
    </g>
  </g>
  <g id="Layer_1" transform="translate(-0.9611, -0.9333)">
    <g transform="matrix(0.9333, 0, 0, 0.9333, 0, 0)">
      <g id="icon">
        <path d="M18.098, 13.929C14.193, 10.024 7.861, 10.024 3.956, 13.929C0.051, 17.834 0.051, 24.166 3.956, 28.071C7.861, 31.976 14.193, 31.976 18.098, 28.071C22.003, 24.166 22.003, 17.834 18.098, 13.929z" fill="#FFB115" class="Yellow" />
      </g>
    </g>
  </g>
  <g id="Layer_1" transform="translate(-0.9611, -0.9333)">
    <g transform="matrix(0.9333, 0, 0, 0.9333, 0, 0)">
      <g id="icon">
        <path d="M11.026, 12.265C6.202, 12.265 2.291, 16.176 2.291, 21C2.291, 25.824 6.202, 29.735 11.026, 29.735C15.85, 29.735 19.761, 25.824 19.761, 21C19.761, 16.176 15.851, 12.265 11.026, 12.265zM11.026, 29.007C6.604, 29.007 3.019, 25.422 3.019, 21C3.019, 16.578 6.604, 12.993 11.026, 12.993C15.448, 12.993 19.033, 16.578 19.033, 21C19.034, 25.422 15.449, 29.007 11.026, 29.007z" fill="#727272" opacity="0.15" class="Black" />
      </g>
    </g>
  </g>
</svg>