<?xml version='1.0' encoding='UTF-8'?>
<svg viewBox="-2.005 -2 32 32" xmlns="http://www.w3.org/2000/svg" xmlns:xlink="http://www.w3.org/1999/xlink">
  <g id="Layer_1" transform="translate(-0.0028, -0.0001)">
    <g transform="matrix(1.7497, 0, 0, 1.7497, 0, 0)">
      <g id="icon">
        <path d="M16, 8.505L16, 10.44C15.167, 11.96 13.259, 12.945 11.064, 12.945C10.936, 12.945 10.808, 12.939 10.68, 12.931C10.81, 12.55 10.902, 12.151 10.952, 11.74C10.989, 11.741 11.026, 11.742 11.063, 11.742C13.795, 11.742 16, 10.296 16, 8.505zM7.565, 5.575C7.834, 5.703 8.092, 5.849 8.338, 6.014C9.094, 6.361 9.989, 6.56 10.943, 6.536C13.641, 6.468 15.921, 5.009 15.874, 3.303C15.87, 3.143 15.852, 2.985 15.81, 2.831C15.813, 2.871 15.815, 2.911 15.815, 2.951C15.815, 4.502 13.359, 5.572 10.751, 5.572C8.381, 5.572 6.428, 4.427 6.09, 3.081C6.05, 4.016 6.627, 4.924 7.565, 5.575zM11.064, 8.592C10.868, 8.592 10.675, 8.583 10.484, 8.567C10.642, 8.922 10.766, 9.295 10.853, 9.683C10.923, 9.686 10.994, 9.688 11.064, 9.688C13.259, 9.688 15.167, 8.703 16, 7.183L16, 5.177C16, 6.968 13.795, 8.592 11.064, 8.592z" fill="#FFFFFF" />
      </g>
    </g>
  </g>
  <g id="Layer_1" transform="translate(-0.0028, -0.0001)">
    <g transform="matrix(1.7497, 0, 0, 1.7497, 0, 0)">
      <g id="icon">
        <path d="M16, 10.44C16, 11.087 16, 11.62 16, 11.763C16, 13.554 13.795, 15 11.064, 15C10.559, 15 10.068, 14.947 9.602, 14.849C10.072, 14.288 10.44, 13.639 10.68, 12.931C10.807, 12.939 10.935, 12.945 11.064, 12.945C13.259, 12.945 15.167, 11.96 16, 10.44zM11.064, 9.687C10.993, 9.687 10.923, 9.685 10.853, 9.682C10.948, 10.106 11, 10.547 11, 11C11, 11.251 10.983, 11.497 10.953, 11.74C10.99, 11.741 11.027, 11.742 11.064, 11.742C13.795, 11.742 16, 10.296 16, 8.505C16, 8.362 16, 7.829 16, 7.182C15.167, 8.702 13.259, 9.687 11.064, 9.687zM11.058, 0C8.326, 0 6, 1.376 6, 3.168C6, 3.224 6, 4.659 6, 5.084C6.551, 5.176 7.076, 5.343 7.565, 5.575C6.626, 4.924 6.05, 4.015 6.09, 3.081C6.428, 4.427 8.381, 5.572 10.751, 5.572C13.359, 5.572 15.815, 4.503 15.815, 2.951C15.815, 2.911 15.813, 2.87 15.81, 2.831C15.852, 2.985 15.87, 3.142 15.874, 3.303C15.921, 5.009 13.642, 6.468 10.943, 6.536C9.989, 6.56 9.094, 6.361 8.338, 6.014C9.274, 6.642 10.022, 7.526 10.484, 8.566C10.675, 8.582 10.868, 8.591 11.064, 8.591C13.795, 8.591 16, 6.967 16, 5.176C16, 4.89 16, 3.303 16, 3.255C16, 1.463 13.791, 0 11.058, 0z" fill="#727272" class="Black" />
      </g>
    </g>
  </g>
  <g id="Layer_1" transform="translate(-0.0028, -0.0001)">
    <g transform="matrix(1.7497, 0, 0, 1.7497, 0, 0)">
      <g id="icon">
        <path d="M11.006, 0.414C8.687, 0.414 6.801, 1.45 6.801, 2.723C6.801, 3.996 8.687, 5.032 11.006, 5.032C13.325, 5.032 15.211, 3.996 15.211, 2.723C15.211, 1.45 13.324, 0.414 11.006, 0.414zM11.006, 4.384C8.976, 4.384 7.27, 3.621 7.27, 2.507C7.27, 1.569 8.976, 0.702 11.006, 0.702C13.036, 0.702 14.742, 1.569 14.742, 2.507C14.741, 3.622 13.035, 4.384 11.006, 4.384z" fill="#727272" opacity="0.1" class="Black" />
      </g>
    </g>
  </g>
  <g id="Layer_1" transform="translate(-0.0028, -0.0001)">
    <g transform="matrix(1.7497, 0, 0, 1.7497, 0, 0)">
      <g id="icon">
        <path d="M8.536, 7.464C6.583, 5.511 3.418, 5.511 1.465, 7.464C-0.488, 9.417 -0.488, 12.582 1.465, 14.535C3.418, 16.488 6.583, 16.488 8.536, 14.535C10.489, 12.582 10.488, 9.417 8.536, 7.464z" fill="#727272" class="Black" />
      </g>
    </g>
  </g>
  <g id="Layer_1" transform="translate(-0.0028, -0.0001)">
    <g transform="matrix(1.7497, 0, 0, 1.7497, 0, 0)">
      <g id="icon">
        <path d="M5, 6.632C2.588, 6.632 0.632, 8.588 0.632, 11C0.632, 13.412 2.588, 15.368 5, 15.368C7.412, 15.368 9.368, 13.412 9.368, 11C9.368, 8.588 7.412, 6.632 5, 6.632zM5, 15.004C2.789, 15.004 0.996, 13.211 0.996, 11C0.996, 8.789 2.788, 6.996 5, 6.996C7.212, 6.996 9.004, 8.789 9.004, 11C9.004, 13.211 7.211, 15.004 5, 15.004z" fill="#727272" opacity="0.15" class="Black" />
      </g>
    </g>
  </g>
</svg>