<?xml version='1.0' encoding='UTF-8'?>
<svg viewBox="-2 -3.75 32 32" xmlns="http://www.w3.org/2000/svg" xmlns:xlink="http://www.w3.org/1999/xlink">
  <g id="Layer_1" transform="translate(-0.0002, -1.7514)">
    <g transform="matrix(1.75, 0, 0, 1.75, 0, 0)">
      <g id="icon">
        <path d="M5.3436, 3.2068C5.146, 3.0146 5.0378, 2.8071 5.0378, 2.5895C5.0377, 1.559 7.4679, 1 10.5062, 1C13.5445, 1 15.9659, 1.559 15.9659, 2.5895C15.9659, 3.62 13.5167, 4.4271 10.4784, 4.4271C8.9251, 4.4271 7.539, 4.2158 6.5541, 3.8719C6.4882, 3.805 6.4264, 3.7424 6.37, 3.6852C6.0974, 3.4087 5.7291, 3.2391 5.3436, 3.2068zM10.5082, 5.557C9.5966, 5.557 8.7525, 5.4792 8.0107, 5.3474C8.7963, 6.1424 9.5839, 6.9378 9.9059, 7.2577C10.2944, 7.644 10.2971, 8.2751 9.9121, 8.6647C9.3152, 9.2689 7.1722, 11.4369 6.3029, 12.3164C6.0033, 12.6194 5.5887, 12.7942 5.1626, 12.7991C5.7497, 14.1574 7.9188, 15 10.5062, 15C13.5445, 15 15.999, 13.9355 15.999, 12.0441C15.999, 11.952 15.9999, 4.96 15.9999, 3.9877C15.6481, 4.865 13.2691, 5.557 10.5082, 5.557z" fill="#FFB115" fill-opacity="1" class="Yellow" />
      </g>
    </g>
  </g>
  <g id="Layer_1" transform="translate(-0.0002, -1.7514)">
    <g transform="matrix(1.75, 0, 0, 1.75, 0, 0)">
      <g id="icon">
        <path d="M3.11, 4.2405L5.8184, 7L0.2964, 7C0.1334, 7 0, 7.1334 0, 7.2964L0, 7.7616L0, 8.2551L0, 8.748C0, 8.8872 0.1128, 9 0.252, 9L5.8099, 9L3.0675, 11.7589C2.9788, 11.8481 3.042, 12 3.1678, 12L5.1444, 12C5.366, 12 5.5782, 11.9116 5.734, 11.754C6.6033, 10.8746 8.7462, 8.7066 9.3431, 8.1025C9.4194, 8.0253 9.4191, 7.9017 9.3421, 7.8252C8.7611, 7.2479 6.7077, 5.1669 5.8004, 4.2469C5.6445, 4.0888 5.4319, 4 5.21, 4L3.211, 4C3.0856, 4 3.0222, 4.151 3.11, 4.2405z" fill="#039C23" fill-opacity="1" class="Green" fill-rule="evenodd" />
      </g>
    </g>
  </g>
</svg>