<?xml version='1.0' encoding='UTF-8'?>
<svg viewBox="-2.0425 -2 32 32" xmlns="http://www.w3.org/2000/svg" xmlns:xlink="http://www.w3.org/1999/xlink">
  <g id="Layer_1" transform="translate(-0.9337, -0.9375)">
    <g transform="matrix(0.9336, 0, 0, 0.9336, 0, 0)">
      <g id="icon">
        <path d="M17.793, 7.37C17.948, 7.378 18.103, 7.388 18.259, 7.4C18.309, 7.471 18.346, 7.553 18.346, 7.648C18.346, 7.852 18.066, 8.126 17.793, 8.247L17.793, 7.37zM30.487, 23.29C30.033, 24.86 29.277, 26.264 28.4, 27.643C27.954, 28.344 27.444, 29.002 26.929, 29.656C26.192, 30.591 25.677, 30.868 24.475, 30.871C23.343, 30.874 20.552, 31.508 20.666, 29.856C20.7, 29.359 20.824, 28.338 19.966, 28.49C19.071, 28.648 18.13, 28.799 17.22, 28.793C16.442, 28.788 15.555, 28.592 14.79, 28.69C14.05, 28.785 14.027, 29.52 13.814, 30.066C13.528, 30.799 13.035, 30.87 12.298, 30.873C11.415, 30.877 10.015, 31.136 9.189, 30.822C8.04, 30.385 9.163, 27.526 8.452, 26.599C8.048, 26.071 7.306, 25.701 6.821, 25.233C6.116, 24.552 5.446, 23.813 4.64, 23.242C3.664, 22.551 1.803, 22.934 1.301, 21.774C1.009, 21.099 1.049, 20.295 1.041, 19.579C1.03, 18.559 0.9, 17.271 1.154, 16.272C1.391, 15.342 1.891, 15.148 2.769, 15.051C3.621, 14.957 4.103, 14.405 4.476, 13.7C4.827, 13.036 5.152, 12.419 5.667, 11.855C6.093, 11.388 7.062, 10.859 6.912, 10.125C6.786, 9.508 5.999, 8.771 5.629, 8.262C5.227, 7.709 5.001, 6.28 6.033, 6.543C7.045, 6.8 8.027, 7.222 8.92, 7.756C9.656, 8.196 10.276, 8.602 11.17, 8.368C12.089, 8.127 13.016, 7.912 13.942, 7.696C14.863, 7.482 15.783, 7.373 16.707, 7.353L16.707, 8.314C16.505, 8.303 16.28, 8.273 16.047, 8.222C15.752, 8.158 15.484, 8.075 15.26, 7.976L15.255, 7.974C15.154, 7.93 15.041, 8.004 15.041, 8.114L15.041, 8.773C15.041, 8.833 15.076, 8.887 15.131, 8.912C15.332, 9.005 15.598, 9.078 15.907, 9.129C16.163, 9.172 16.405, 9.196 16.708, 9.203L16.708, 9.525C16.708, 9.637 16.798, 9.727 16.91, 9.727L17.364, 9.727C17.476, 9.727 17.566, 9.637 17.566, 9.525L17.566, 9.147C18.02, 9.069 18.425, 8.904 18.709, 8.658C19.03, 8.379 19.187, 8.021 19.187, 7.593C19.187, 7.562 19.186, 7.532 19.184, 7.502C19.21, 7.506 19.237, 7.509 19.263, 7.512C23.324, 8.087 27.069, 10.525 29.188, 13.952C30.251, 15.672 30.807, 17.761 30.892, 19.761C30.934, 20.757 30.798, 22.132 30.487, 23.29zM10.497, 15.256C10.497, 14.618 9.968, 14.1 9.315, 14.1C8.662, 14.1 8.133, 14.618 8.133, 15.256C8.133, 15.894 8.662, 16.412 9.315, 16.412C9.968, 16.412 10.497, 15.894 10.497, 15.256zM22.281, 10.907C19.729, 9.627 15.074, 9.623 12.318, 10.9C12.067, 11.016 11.958, 11.313 12.075, 11.564C12.16, 11.746 12.34, 11.854 12.529, 11.854C12.599, 11.854 12.671, 11.839 12.739, 11.808C15.449, 10.552 19.775, 10.769 21.833, 11.801C22.08, 11.925 22.38, 11.825 22.504, 11.578C22.628, 11.332 22.528, 11.031 22.281, 10.907z" fill="#D11C1C" fill-opacity="1" style="fill:#EB83BA" />
      </g>
    </g>
  </g>
  <g id="Layer_1" transform="translate(-0.9337, -0.9375)">
    <g transform="matrix(0.9336, 0, 0, 0.9336, 0, 0)">
      <g id="icon">
        <path d="M10.497, 15.256C10.497, 15.894 9.968, 16.412 9.315, 16.412C8.662, 16.412 8.133, 15.894 8.133, 15.256C8.133, 14.618 8.663, 14.1 9.315, 14.1C9.968, 14.1 10.497, 14.618 10.497, 15.256zM12.739, 11.808C15.449, 10.552 19.775, 10.769 21.833, 11.801C22.08, 11.925 22.38, 11.825 22.504, 11.578C22.628, 11.331 22.528, 11.031 22.281, 10.907C19.729, 9.627 15.074, 9.623 12.318, 10.9C12.067, 11.016 11.958, 11.313 12.075, 11.564C12.16, 11.746 12.34, 11.854 12.529, 11.854C12.6, 11.854 12.671, 11.839 12.739, 11.808z" fill="#FFFFFF" fill-opacity="1" class="White" />
      </g>
    </g>
  </g>
  <g id="Layer_1" transform="translate(-0.9337, -0.9375)">
    <g transform="matrix(0.9336, 0, 0, 0.9336, 0, 0)">
      <g id="icon">
        <g>
          <path d="M16.315, 4.64C16.406, 4.557 16.429, 4.494 16.701, 4.45L16.701, 5.678C16.428, 5.596 16.378, 5.513 16.295, 5.428C16.196, 5.327 16.143, 5.192 16.143, 5.017C16.144, 4.866 16.203, 4.742 16.315, 4.64zM17.793, 6.997L17.793, 8.247C18.066, 8.126 18.346, 7.852 18.346, 7.648C18.346, 7.485 18.236, 7.359 18.139, 7.262C18.078, 7.2 17.93, 7.108 17.793, 6.997zM20.961, 10.295C20.799, 10.457 20.629, 10.605 20.453, 10.742C19.494, 10.523 18.461, 10.402 17.384, 10.402C16.151, 10.402 14.975, 10.56 13.902, 10.844C13.678, 10.68 13.463, 10.497 13.261, 10.295C11.135, 8.169 11.135, 4.721 13.261, 2.595C15.387, 0.469 18.835, 0.469 20.961, 2.595C23.087, 4.721 23.087, 8.168 20.961, 10.295zM19.187, 7.593C19.187, 7.318 19.121, 7.078 19.003, 6.882C18.886, 6.688 18.717, 6.515 18.477, 6.369C18.262, 6.238 17.97, 6.109 17.566, 5.975L17.566, 4.412C17.919, 4.453 18.279, 4.544 18.63, 4.683C18.704, 4.714 18.789, 4.678 18.818, 4.603L19.043, 4.032C19.071, 3.96 19.038, 3.879 18.967, 3.848L18.964, 3.847C18.512, 3.665 18.02, 3.558 17.565, 3.529L17.565, 3.264C17.565, 3.152 17.475, 3.062 17.363, 3.062L16.909, 3.062C16.797, 3.062 16.707, 3.152 16.707, 3.264L16.707, 3.549C16.253, 3.615 15.897, 3.766 15.617, 3.998C15.295, 4.264 15.128, 4.61 15.128, 5.025C15.128, 5.448 15.265, 5.799 15.525, 6.07C15.763, 6.318 16.151, 6.53 16.706, 6.715L16.706, 8.313C16.504, 8.302 16.279, 8.272 16.046, 8.221C15.751, 8.157 15.483, 8.074 15.259, 7.975L15.254, 7.973C15.153, 7.929 15.04, 8.003 15.04, 8.113L15.04, 8.772C15.04, 8.832 15.075, 8.886 15.13, 8.911C15.331, 9.004 15.597, 9.077 15.906, 9.128C16.162, 9.171 16.404, 9.195 16.707, 9.202L16.707, 9.524C16.707, 9.636 16.797, 9.726 16.909, 9.726L17.363, 9.726C17.475, 9.726 17.565, 9.636 17.565, 9.524L17.565, 9.146C18.019, 9.068 18.424, 8.903 18.708, 8.657C19.03, 8.379 19.187, 8.021 19.187, 7.593z" fill="#FFB115" fill-opacity="1" class="Yellow" />
        </g>
      </g>
    </g>
  </g>
  <g id="Layer_1" transform="translate(-0.9337, -0.9375)">
    <g transform="matrix(0.9336, 0, 0, 0.9336, 0, 0)">
      <g id="icon">
        <g>
          <path d="M14.853, 10.632C15.085, 10.589 15.32, 10.551 15.559, 10.52C13.917, 9.895 12.751, 8.307 12.751, 6.446C12.751, 4.038 14.703, 2.086 17.111, 2.086C19.519, 2.086 21.471, 4.038 21.471, 6.446C21.471, 8.26 20.362, 9.816 18.786, 10.472C19.025, 10.496 19.261, 10.527 19.493, 10.562C20.912, 9.739 21.867, 8.205 21.867, 6.446C21.867, 3.819 19.738, 1.69 17.111, 1.69C14.484, 1.69 12.355, 3.819 12.355, 6.446C12.355, 8.254 13.366, 9.828 14.853, 10.632z" fill="#727272" opacity="0.2" fill-opacity="1" class="Black" />
        </g>
      </g>
    </g>
  </g>
  <g id="Layer_1" transform="translate(-0.9337, -0.9375)">
    <g transform="matrix(0.9336, 0, 0, 0.9336, 0, 0)">
      <g id="icon">
        <g>
          <path d="M19.003, 6.881C18.886, 6.687 18.717, 6.514 18.477, 6.368C18.262, 6.237 17.97, 6.108 17.566, 5.974L17.566, 4.412C17.919, 4.453 18.279, 4.544 18.63, 4.683L18.63, 4.683C18.704, 4.714 18.789, 4.678 18.818, 4.603L19.043, 4.032C19.071, 3.96 19.038, 3.879 18.967, 3.848L18.964, 3.847C18.512, 3.665 18.02, 3.558 17.565, 3.529L17.565, 3.264C17.565, 3.152 17.475, 3.062 17.363, 3.062L16.909, 3.062C16.797, 3.062 16.707, 3.152 16.707, 3.264L16.707, 3.549C16.253, 3.615 15.897, 3.766 15.617, 3.998C15.295, 4.264 15.128, 4.61 15.128, 5.025C15.128, 5.448 15.265, 5.799 15.525, 6.07C15.763, 6.318 16.151, 6.53 16.706, 6.715L16.706, 8.313C16.504, 8.302 16.279, 8.272 16.046, 8.221C15.751, 8.157 15.483, 8.074 15.259, 7.975L15.254, 7.973C15.153, 7.929 15.04, 8.003 15.04, 8.113L15.04, 8.772C15.04, 8.832 15.075, 8.886 15.13, 8.911L15.13, 8.911C15.331, 9.004 15.597, 9.077 15.906, 9.128C16.162, 9.171 16.404, 9.196 16.707, 9.202L16.707, 9.524C16.707, 9.636 16.797, 9.726 16.909, 9.726L17.363, 9.726C17.475, 9.726 17.565, 9.636 17.565, 9.524L17.565, 9.146C18.019, 9.068 18.424, 8.903 18.708, 8.657C19.029, 8.378 19.186, 8.02 19.186, 7.592C19.187, 7.318 19.121, 7.078 19.003, 6.881zM17.793, 6.997C17.929, 7.108 18.078, 7.2 18.139, 7.262C18.236, 7.359 18.346, 7.485 18.346, 7.648C18.346, 7.852 18.066, 8.126 17.793, 8.247L17.793, 6.997zM16.144, 5.017C16.144, 4.865 16.203, 4.742 16.315, 4.64C16.406, 4.557 16.429, 4.494 16.701, 4.45L16.701, 5.678C16.428, 5.596 16.378, 5.512 16.295, 5.428C16.197, 5.327 16.144, 5.192 16.144, 5.017z" fill="#FFFFFF" fill-opacity="1" class="White" />
        </g>
      </g>
    </g>
  </g>
</svg>