<?xml version='1.0' encoding='UTF-8'?>
<svg viewBox="-2 -2 32 32" xmlns="http://www.w3.org/2000/svg" xmlns:xlink="http://www.w3.org/1999/xlink">
  <g id="Layer_1" transform="translate(-0.9349, -0.9349)">
    <g transform="matrix(0.9333, 0, 0, 0.9333, 0, 0)">
      <g id="icon">
        <circle cx="16" cy="16" r="14.143" fill="#FFFFFF" fill-opacity="1" class="White" />
      </g>
    </g>
  </g>
  <g id="Layer_1" transform="translate(-0.9349, -0.9349)">
    <g transform="matrix(0.9333, 0, 0, 0.9333, 0, 0)">
      <g id="icon">
        <path d="M16, 1C7.716, 1 1, 7.716 1, 16C1, 24.284 7.716, 31 16, 31C24.284, 31 31, 24.284 31, 16C31, 7.716 24.284, 1 16, 1zM16, 29.935C8.304, 29.935 2.065, 23.696 2.065, 16C2.065, 8.304 8.304, 2.065 16, 2.065C23.696, 2.065 29.935, 8.304 29.935, 16C29.935, 23.696 23.696, 29.935 16, 29.935z" fill="#727272" fill-opacity="1" class="Black" fill-rule="evenodd" />
      </g>
    </g>
  </g>
  <g id="Layer_1" transform="translate(-0.9349, -0.9349)">
    <g transform="matrix(0.9333, 0, 0, 0.9333, 0, 0)">
      <g id="icon">
        <path d="M28.721, 16.002C28.721, 16.355 28.706, 16.705 28.678, 17.05C28.578, 17.182 28.479, 17.296 28.397, 17.389C28.288, 17.513 28.177, 17.62 28.069, 17.723C27.975, 17.813 27.886, 17.898 27.814, 17.982C27.517, 18.326 27.406, 18.576 27.404, 18.906C27.399, 19.911 27.177, 20.746 26.726, 21.458C26.706, 21.489 26.695, 21.513 26.689, 21.526C26.682, 22.362 26.212, 22.936 25.833, 23.399C25.77, 23.476 25.706, 23.553 25.646, 23.631C25.293, 24.087 24.803, 24.338 24.267, 24.338C23.611, 24.338 22.982, 23.954 22.585, 23.311C22.171, 22.641 22.006, 21.932 21.846, 21.247C21.795, 21.027 21.746, 20.82 21.69, 20.615C21.597, 20.272 21.74, 19.976 21.836, 19.779C21.852, 19.747 21.867, 19.716 21.88, 19.685C22.018, 19.354 21.976, 19.008 21.754, 18.657C21.419, 18.128 21.264, 17.63 21.273, 17.107C21.132, 17.077 21.029, 17.01 20.963, 16.952C20.874, 16.875 20.805, 16.859 20.722, 16.859C20.588, 16.859 20.414, 16.906 20.23, 16.955C20.115, 16.986 19.997, 17.018 19.872, 17.043C19.6, 17.098 19.392, 17.133 19.194, 17.133C18.548, 17.133 18.213, 16.747 17.908, 16.31C17.891, 16.298 17.865, 16.281 17.846, 16.268C17.707, 16.177 17.474, 16.024 17.368, 15.735C17.214, 15.313 17.134, 14.886 17.056, 14.472L17.041, 14.394C16.986, 14.103 16.93, 13.763 16.965, 13.416C16.997, 13.1 17.133, 12.765 17.339, 12.497C17.513, 12.27 17.701, 12.066 17.883, 11.869C17.982, 11.762 18.081, 11.654 18.176, 11.544C18.184, 11.53 18.199, 11.501 18.21, 11.479C18.234, 11.431 18.265, 11.371 18.304, 11.309C18.431, 11.107 18.56, 10.906 18.69, 10.707C18.423, 10.503 18.227, 10.152 18.407, 9.553C18.414, 9.531 18.421, 9.509 18.426, 9.488C18.44, 9.051 18.818, 8.83 19.046, 8.696C19.08, 8.676 19.114, 8.657 19.143, 8.638C19.173, 8.619 19.204, 8.602 19.236, 8.587C19.155, 8.463 19.119, 8.313 19.137, 8.162C19.161, 7.96 19.28, 7.782 19.457, 7.682L20.921, 6.85C20.895, 6.831 20.869, 6.811 20.845, 6.789C20.556, 6.523 20.524, 6.232 20.531, 6.082C20.55, 5.654 20.872, 5.406 21.045, 5.274L21.063, 5.26C21.272, 5.099 21.483, 4.964 21.707, 4.821C21.761, 4.786 21.818, 4.75 21.874, 4.713C25.941, 6.836 28.721, 11.094 28.721, 16.002zM3.343, 14.745C3.345, 14.746 3.346, 14.747 3.347, 14.747C3.512, 14.812 3.68, 14.873 3.847, 14.934C4.699, 15.245 5.435, 15.514 5.839, 16.247C5.932, 16.415 6.091, 16.526 6.27, 16.564C6.262, 16.658 6.254, 16.747 6.242, 16.82C6.236, 16.841 6.205, 16.899 6.182, 16.94C6.074, 17.141 5.873, 17.515 6.027, 17.997C6.037, 18.03 6.041, 18.097 6.042, 18.166C6.012, 18.216 5.989, 18.27 5.973, 18.327C5.924, 18.507 5.956, 18.7 6.061, 18.854C6.159, 18.999 6.257, 19.144 6.355, 19.289C6.611, 19.669 6.875, 20.063 7.151, 20.445C7.395, 20.783 7.666, 20.992 7.956, 21.067C8.16, 21.12 8.28, 21.208 8.336, 21.523C8.413, 21.964 8.472, 22.446 8.515, 22.999C8.546, 23.395 8.57, 23.802 8.592, 24.196C8.624, 24.751 8.657, 25.325 8.712, 25.893C8.727, 26.045 8.748, 26.263 8.802, 26.489C9.294, 26.827 9.811, 27.132 10.35, 27.4C10.553, 27.326 10.767, 27.215 11.002, 27.078C11.154, 26.99 11.23, 26.869 11.261, 26.819C11.363, 26.681 11.406, 26.508 11.379, 26.338C11.364, 26.243 11.328, 26.153 11.274, 26.075C11.396, 25.892 11.418, 25.654 11.319, 25.446L11.289, 25.383C11.503, 25.167 11.706, 24.961 11.898, 24.728C12.277, 24.269 12.557, 23.882 12.782, 23.508C12.913, 23.289 12.954, 23.065 12.987, 22.885C13.001, 22.809 13.015, 22.731 13.032, 22.687C13.043, 22.656 13.053, 22.632 13.062, 22.613C13.795, 22.322 14.483, 21.835 14.379, 20.602C14.361, 20.384 14.413, 20.192 14.559, 19.941C14.743, 19.626 14.829, 19.285 14.899, 19.01C14.922, 18.918 14.944, 18.83 14.97, 18.749C15.066, 18.442 14.919, 18.111 14.626, 17.976C14.398, 17.871 14.181, 17.77 13.971, 17.672C13.498, 17.452 13.051, 17.244 12.602, 17.047L12.537, 17.019C12.467, 16.989 12.37, 16.947 12.315, 16.915C12.315, 16.914 12.315, 16.914 12.315, 16.913C12.357, 16.495 12.023, 16.192 11.725, 16.059C11.492, 15.955 11.255, 15.858 11.027, 15.765C10.615, 15.596 10.227, 15.437 9.86, 15.243L9.836, 15.23C9.357, 14.977 8.862, 14.716 8.289, 14.716C7.87, 14.716 7.48, 14.86 7.125, 15.144C7.063, 15.156 7.004, 15.176 6.949, 15.203C6.943, 15.169 6.936, 15.135 6.931, 15.101C6.908, 14.948 6.894, 14.786 6.881, 14.63C6.875, 14.559 6.869, 14.491 6.863, 14.427C6.837, 14.164 6.655, 13.952 6.413, 13.877L6.472, 13.731C6.589, 13.441 6.478, 13.109 6.21, 12.946C6.027, 12.835 5.84, 12.778 5.655, 12.778C5.281, 12.778 5.044, 12.994 4.904, 13.167C4.901, 13.137 4.9, 13.104 4.902, 13.069C4.907, 12.965 4.934, 12.884 4.961, 12.833C5.035, 12.821 5.109, 12.809 5.182, 12.797C5.497, 12.746 5.795, 12.698 6.094, 12.667C6.187, 12.658 6.276, 12.649 6.347, 12.645C6.389, 12.743 6.443, 12.887 6.482, 12.994C6.58, 13.257 6.838, 13.425 7.119, 13.412C7.4, 13.397 7.639, 13.202 7.709, 12.931C7.73, 12.848 7.747, 12.772 7.763, 12.701C7.782, 12.612 7.801, 12.529 7.818, 12.489C7.853, 12.409 7.887, 12.326 7.92, 12.243C7.991, 12.065 8.065, 11.881 8.143, 11.802C8.716, 11.221 9.339, 10.689 9.874, 10.245C9.972, 10.163 10.086, 10.086 10.212, 10.007C10.401, 10.071 10.615, 10.045 10.786, 9.927C11.403, 9.5 12.025, 9.01 12.744, 8.382C13.053, 8.112 13.074, 7.636 13.056, 7.49C13.029, 7.265 12.903, 7.078 12.709, 6.976C12.631, 6.935 12.604, 6.88 12.544, 6.543C12.535, 6.492 12.526, 6.441 12.516, 6.389C12.488, 6.246 12.402, 6.05 12.152, 5.914C12.078, 5.871 11.996, 5.843 11.912, 5.832C11.876, 5.778 11.832, 5.729 11.779, 5.686C11.438, 5.412 11.138, 5.284 10.836, 5.284C10.645, 5.284 10.237, 5.345 9.966, 5.817C9.704, 5.854 9.489, 6.049 9.43, 6.31C9.396, 6.459 9.293, 6.576 9.117, 6.743C9.079, 6.71 9.038, 6.681 8.996, 6.657C8.832, 6.561 8.668, 6.534 8.554, 6.518C8.34, 6.339 8.111, 6.239 7.873, 6.218C5.369, 8.301 3.678, 11.324 3.343, 14.745z" fill="#039C23" fill-opacity="1" class="Green" />
      </g>
    </g>
  </g>
</svg>