<?xml version='1.0' encoding='UTF-8'?>
<svg viewBox="-2.055 -2 32 32" xmlns="http://www.w3.org/2000/svg" xmlns:xlink="http://www.w3.org/1999/xlink">
  <clipPath id="clip_mask" tag="staticElement_id18965813">
    <path d="M22.2686, 31.6885L22.0837, 30.6358C21.9469, 30.5856 21.816, 30.5328 21.6897, 30.4766L20.844, 31.0721C20.5754, 31.2613 20.2597, 31.3614 19.9311, 31.3614C19.5067, 31.3614 19.108, 31.196 18.8083, 30.8957L17.9728, 30.0586C17.4261, 29.5107 17.3536, 28.6545 17.8003, 28.0227L18.4494, 27.1046C18.4098, 27.0085 18.3722, 26.9105 18.3367, 26.8104L17.311, 26.6298C16.5513, 26.4961 16, 25.8393 16, 25.0679L16, 23.8796C16, 23.1083 16.5514, 22.4514 17.311, 22.3176L18.4089, 22.1245C18.4545, 22.0041 18.502, 21.8886 18.5518, 21.7772L17.9271, 20.8894C17.4823, 20.2573 17.5562, 19.4019 18.1027, 18.8554L18.9417, 18.0165C19.2412, 17.717 19.6396, 17.552 20.0633, 17.552C20.3916, 17.552 20.7071, 17.6519 20.9757, 17.8409L21.9548, 18.5297C22.0275, 18.4995 22.1007, 18.4707 22.1744, 18.4432L22.3708, 17.3142C22.5033, 16.5527 23.1604, 16.0001 23.9333, 16.0001L25.1197, 16.0001C25.8925, 16.0001 26.5496, 16.5527 26.6822, 17.3142L26.8897, 18.5069C26.9873, 18.5462 27.0839, 18.5878 27.1795, 18.6316L28.1109, 17.9762C28.3794, 17.7872 28.6949, 17.6873 29.0232, 17.6873C29.4469, 17.6873 29.8452, 17.8522 30.1448, 18.1518L30.9838, 18.9907C31.5303, 19.5372 31.6041, 20.3926 31.1595, 21.0247L30.4632, 22.0143C30.4925, 22.0831 30.5206, 22.1522 30.5476, 22.2217L31.686, 22.4197C31.7956, 22.4388 31.9002, 22.4698 32.0002, 22.5094L32.0002, 0L0, 0L0, 32L22.3579, 32C22.3186, 31.9009 22.2877, 31.7971 22.2686, 31.6885z" fill="#727272" fill-opacity="1" class="Black" fill-rule="evenodd" />
  </clipPath>
  <g id="Layer_1" transform="translate(-0.0625, 0.0475)">
    <g transform="matrix(0.8734, 0, 0, 0.8734, 0, 0)">
      <g transform="matrix(1, 0, 0, 1, 0, 0)">
        <g id="main">
          <g id="icon" clip-path="url(#clip_mask)">
            <g id="transformed_icon" transform="translate(-1, -1)">
              <g>
                <g>
                  <path d="M30.6578, 23.0556C28.5083, 20.8113 24.8799, 15.9475 24.8799, 12.1968C24.8799, 8.653 22.4426, 5.6313 19.0209, 4.4625C19.0501, 4.2943 19.0663, 4.1217 19.0663, 3.9452C19.0663, 2.288 17.7229, 0.9446 16.0657, 0.9446C14.4085, 0.9446 13.065, 2.2879 13.065, 3.9451C13.065, 4.0819 13.075, 4.2164 13.0928, 4.3484C9.4847, 5.4237 6.8763, 8.5307 6.8763, 12.1968C6.8763, 17.4479 3.2961, 20.6487 1.2872, 23.1497C-0.74, 25.1892 11.889, 26.0926 15.9718, 26.0926C20.0546, 26.0926 32.8073, 25.2999 30.6578, 23.0556z" fill="#FFB115" fill-opacity="1" class="Yellow" fill-rule="evenodd" />
                </g>
              </g>
            </g>
          </g>
        </g>
      </g>
    </g>
  </g>
  <g id="Layer_1" transform="translate(-0.0625, 0.0475)">
    <g transform="matrix(0.8734, 0, 0, 0.8734, 0, 0)">
      <g transform="matrix(1, 0, 0, 1, 0, 0)">
        <g id="main">
          <g id="icon" clip-path="url(#clip_mask)">
            <g id="transformed_icon" transform="translate(-1, -1)">
              <path d="M20.7362, 26.9267C20.7362, 29.4125 18.5895, 31.0327 16.1037, 31.0327C13.6179, 31.0327 11.537, 29.4124 11.537, 26.9267C15.1445, 27.2575 16.9214, 27.2575 20.7362, 26.9267z" fill="#727272" fill-opacity="1" class="Black" fill-rule="evenodd" />
            </g>
          </g>
        </g>
      </g>
    </g>
  </g>
  <g id="Layer_1" transform="translate(-0.0625, 0.0475)">
    <g transform="matrix(0.8734, 0, 0, 0.8734, 0, 0)">
      <g transform="matrix(1, 0, 0, 1, 0, 0)">
        <g id="main">
          <g id="overlay">
            <path d="M32, 25.1684L32, 23.9822C32, 23.6973 31.7951, 23.4538 31.5145, 23.4049L29.7872, 23.1044C29.6762, 22.7 29.516, 22.3028 29.307, 21.9195L30.3415, 20.4493C30.5054, 20.2163 30.478, 19.8992 30.2766, 19.6978L29.4377, 18.8589C29.2363, 18.6575 28.9192, 18.6301 28.6862, 18.794L27.258, 19.7989C26.8629, 19.5667 26.4419, 19.3854 26.0051, 19.2575L25.6968, 17.4855C25.648, 17.2049 25.4044, 17 25.1195, 17L23.9331, 17C23.6482, 17 23.4047, 17.2049 23.3558, 17.4855L23.0555, 19.2117C22.6459, 19.3187 22.243, 19.4746 21.8542, 19.6816L20.4002, 18.6586C20.1672, 18.4947 19.8501, 18.5221 19.6487, 18.7235L18.8098, 19.5624C18.6084, 19.7638 18.581, 20.0809 18.7449, 20.3139L19.7187, 21.6979C19.4702, 22.1087 19.3027, 22.549 19.1685, 23.0062L17.4844, 23.3025C17.2043, 23.3518 17, 23.5951 17, 23.8796L17, 25.0679C17, 25.3523 17.2043, 25.5957 17.4844, 25.645L19.1144, 25.9319C19.2255, 26.3667 19.3794, 26.7941 19.603, 27.2053L18.6169, 28.6C18.4523, 28.8328 18.4792, 29.1503 18.6806, 29.3522L19.5162, 30.1895C19.7176, 30.3913 20.0351, 30.4189 20.2683, 30.2547L21.6086, 29.3109C22.0343, 29.5654 22.4901, 29.7361 22.9643, 29.8684L23.2536, 31.5157C23.3028, 31.7959 23.5462, 32.0003 23.8307, 32.0003L25.0189, 32.0003C25.3033, 32.0003 25.5467, 31.796 25.596, 31.5159L25.8831, 29.8848C26.3126, 29.7694 26.7345, 29.6117 27.1401, 29.3859L28.551, 30.3834C28.7838, 30.548 29.1013, 30.5211 29.3032, 30.3197L30.1405, 29.4841C30.3423, 29.2827 30.3699, 28.9652 30.2057, 28.732L29.2308, 27.3476C29.469, 26.9376 29.6533, 26.5011 29.7795, 26.0473L31.5146, 25.746C31.795, 25.697 32, 25.4533 32, 25.1684zM25.7239, 26.7708C24.5057, 27.4741 22.948, 27.0567 22.2447, 25.8386C21.5414, 24.6204 21.9588, 23.0628 23.1769, 22.3594C24.3951, 21.6561 25.9527, 22.0735 26.6561, 23.2916C27.3594, 24.5098 26.942, 26.0675 25.7239, 26.7708z" fill="#1177D7" fill-opacity="1" class="Blue" fill-rule="evenodd" />
          </g>
        </g>
      </g>
    </g>
  </g>
  <g id="Layer_1" transform="translate(13.945, 14)">
    <g id="icon">
      <path d="M8, 0C3.5817, 0 0, 3.5817 0, 8C0, 12.4183 3.5817, 16 8, 16C12.4183, 16 16, 12.4183 16, 8C16, 3.5817 12.4183, 0 8, 0zM13, 6.6904C13, 6.8452 12.8745, 7 12.7197, 7L9.3906, 7C9.3171, 7 9.2465, 6.9711 9.194, 6.9195L8.2838, 5.9947C8.1048, 5.8186 8.2299, 5.514 8.4811, 5.5147L10.1528, 5.5191L9.6858, 5.197C9.159, 4.8852 8.5548, 4.7204 7.9384, 4.7204C7.0001, 4.7204 6.1216, 5.0996 5.4647, 5.7881C4.1975, 7.1164 4.1975, 9.1975 5.4647, 10.5258C6.1397, 11.2333 7.0186, 11.623 7.9394, 11.623C8.829, 11.623 9.6876, 11.2543 10.3571, 10.5849C10.8175, 10.1245 11.1394, 9.5216 11.28, 8.8646C11.3105, 8.7221 11.4465, 8.6279 11.5909, 8.6475C11.8979, 8.6891 12.4005, 8.7569 12.7158, 8.8006C12.8765, 8.8229 12.9833, 8.9762 12.9518, 9.1354C12.7554, 10.1263 12.2767, 11.0226 11.5551, 11.7442C10.59, 12.7093 9.3075, 13.2408 7.9438, 13.2408C6.5545, 13.2408 5.2545, 12.6909 4.2834, 11.6923C2.3757, 9.7308 2.3794, 6.5353 4.2917, 4.5691C5.2629, 3.5705 6.5701, 3.0206 7.9726, 3.0206C9.1448, 3.0206 10.3579, 3.5384 11.329, 4.3059L11.5, 4.4494L11.5, 2.4808C11.5, 2.2311 11.8127, 2.1061 11.9892, 2.2826L12.9125, 3.1794C12.9651, 3.232 13, 3.3032 13, 3.3776L13, 6.6904z" fill="#039C23" fill-opacity="1" class="Green" fill-rule="evenodd" />
    </g>
  </g>
  <g id="Layer_1" transform="translate(13.945, 14)">
    <g id="icon">
      <path d="M7.9439, 13.2408C6.5546, 13.2408 5.2546, 12.6909 4.2835, 11.6923C2.3758, 9.7308 2.3795, 6.5353 4.2918, 4.5691C5.263, 3.5705 6.5702, 3.0206 7.9727, 3.0206C9.1449, 3.0206 10.3688, 3.5384 11.3399, 4.3059L11.5215, 4.4494L11.5215, 2.4808C11.5215, 2.2311 11.8234, 2.1061 11.9999, 2.2826L12.9178, 3.1794C12.9704, 3.232 12.9999, 3.3032 12.9999, 3.3776L12.9999, 6.6904C12.9999, 6.8452 12.8744, 7 12.7196, 7L9.3906, 7C9.3171, 7 9.2465, 6.9711 9.194, 6.9195L8.2838, 5.9947C8.1048, 5.8186 8.23, 5.514 8.4811, 5.5147L10.1528, 5.5191L9.6858, 5.197C9.159, 4.8852 8.5548, 4.7204 7.9384, 4.7204C7.0001, 4.7204 6.1216, 5.0996 5.4647, 5.7881C4.1975, 7.1164 4.1975, 9.1975 5.4647, 10.5258C6.1397, 11.2333 7.0186, 11.623 7.9394, 11.623C8.829, 11.623 9.6876, 11.2543 10.3571, 10.5849C10.8175, 10.1245 11.1394, 9.5216 11.2801, 8.8646C11.3106, 8.7221 11.4466, 8.6279 11.591, 8.6475C11.898, 8.6891 12.4006, 8.7569 12.7159, 8.8006C12.8766, 8.8229 12.9834, 8.9762 12.9519, 9.1354C12.7555, 10.1263 12.2768, 11.0227 11.5552, 11.7442C10.5901, 12.7093 9.3076, 13.2408 7.9439, 13.2408z" fill="#FFFFFF" fill-opacity="1" class="White" />
    </g>
  </g>
</svg>