<?xml version='1.0' encoding='UTF-8'?>
<svg viewBox="-2.8 -2 32 32" xmlns="http://www.w3.org/2000/svg" xmlns:xlink="http://www.w3.org/1999/xlink">
  <g id="Layer_1" transform="translate(-3.7333, -0.9333)">
    <g transform="matrix(0.9333, 0, 0, 0.9333, 0, 0)">
      <g id="icon">
        <path d="M26.6, 30.5L5.4, 30.5C4.7649, 30.5 4.5, 30.2406 4.5, 29.6L4.5, 2.4C4.5, 1.7593 4.7649, 1.5 5.4, 1.5C5.4, 1.5 19.0626, 1.5 19.3, 1.5C19.5375, 1.5 19.8495, 1.5496 20.1997, 1.8998C20.499, 2.199 25.6164, 7.3164 27.1, 8.8C27.3527, 9.0527 27.5, 9.35 27.5, 9.8C27.5, 10.1125 27.5, 29.6 27.5, 29.6C27.5, 30.2406 27.2351, 30.5 26.6, 30.5z" fill="#FFFFFF" fill-rule="evenodd" />
      </g>
    </g>
  </g>
  <g id="Layer_1" transform="translate(-3.7333, -0.9333)">
    <g transform="matrix(0.9333, 0, 0, 0.9333, 0, 0)">
      <g id="icon">
        <path d="M27.4535, 8.4464L20.5534, 1.5462C20.1858, 1.1787 19.7758, 1 19.3, 1L5.4, 1C4.4841, 1 4, 1.4841 4, 2.4L4, 29.6C4, 30.5159 4.4841, 31 5.4, 31L26.6, 31C27.5159, 31 28, 30.5159 28, 29.6L28, 9.8C28, 9.2494 27.8264, 8.8192 27.4535, 8.4464zM20, 2.4071L26.5929, 9L20.3, 9C20.1346, 9 20, 8.8654 20, 8.7L20, 2.4071zM26.6, 30L5.4, 30C5.0374, 30 5, 29.9626 5, 29.6L5, 2.4C5, 2.0374 5.0374, 2 5.4, 2L19, 2L19, 8.7C19, 9.4168 19.5832, 10 20.3, 10L27, 10L27, 29.6C27, 29.9626 26.9626, 30 26.6, 30z" fill="#727272" class="Black" />
      </g>
    </g>
  </g>
  <g id="Layer_1" transform="translate(-3.7333, -0.9333)">
    <g transform="matrix(0.9333, 0, 0, 0.9333, 0, 0)">
      <g id="icon">
        <path d="M16.5, 6L7.5, 6C7.2239, 6 7, 5.7761 7, 5.5C7, 5.2239 7.2239, 5 7.5, 5L16.5, 5C16.7761, 5 17, 5.2239 17, 5.5C17, 5.7761 16.7761, 6 16.5, 6zM16.5, 8L7.5, 8C7.2239, 8 7, 7.7761 7, 7.5C7, 7.2239 7.2239, 7 7.5, 7L16.5, 7C16.7761, 7 17, 7.2239 17, 7.5C17, 7.7761 16.7761, 8 16.5, 8zM16.5, 10L7.5, 10C7.2239, 10 7, 9.7761 7, 9.5C7, 9.2239 7.2239, 9 7.5, 9L16.5, 9C16.7761, 9 17, 9.2239 17, 9.5C17, 9.7761 16.7761, 10 16.5, 10zM16.5, 12L7.5, 12C7.2239, 12 7, 11.7761 7, 11.5C7, 11.2239 7.2239, 11 7.5, 11L16.5, 11C16.7761, 11 17, 11.2239 17, 11.5C17, 11.7761 16.7761, 12 16.5, 12zM24.5, 14L7.5, 14C7.2239, 14 7, 13.7761 7, 13.5C7, 13.2239 7.2239, 13 7.5, 13L24.5, 13C24.7761, 13 25, 13.2239 25, 13.5C25, 13.7761 24.7761, 14 24.5, 14zM24.5, 16L7.5, 16C7.2239, 16 7, 15.7761 7, 15.5C7, 15.2239 7.2239, 15 7.5, 15L24.5, 15C24.7761, 15 25, 15.2239 25, 15.5C25, 15.7761 24.7761, 16 24.5, 16zM24.5, 18L7.5, 18C7.2239, 18 7, 17.7761 7, 17.5C7, 17.2239 7.2239, 17 7.5, 17L24.5, 17C24.7761, 17 25, 17.2239 25, 17.5C25, 17.7761 24.7761, 18 24.5, 18z" fill="#727272" class="Black" />
      </g>
    </g>
  </g>
  <g id="Layer_1" transform="translate(-3.7333, -0.9333)">
    <g transform="matrix(0.9333, 0, 0, 0.9333, 0, 0)">
      <g id="icon">
        <path d="M7.1686, 27.7427C7.1922, 27.6992 7.2121, 27.6519 7.2335, 27.6018C7.2939, 27.4599 7.3588, 27.3073 7.4868, 27.1992C8.2596, 26.5462 9.0528, 25.8912 9.8201, 25.2577C10.1253, 25.006 10.4249, 24.7586 10.7235, 24.5114C10.3776, 24.5474 10.0724, 24.5792 9.76, 24.606L9.6649, 24.6155C9.5774, 24.6248 9.4868, 24.6338 9.3977, 24.6338C9.2865, 24.6338 9.1917, 24.6195 9.1081, 24.5903L9.0837, 24.5818C8.7909, 24.4797 8.4266, 24.3529 8.3048, 24.0792C8.1798, 23.7987 8.297, 23.3461 8.4849, 23.0994C9.264, 22.0766 10.2444, 21.3055 11.3993, 20.8079C11.8961, 20.594 12.4156, 20.4241 12.918, 20.26C13.1364, 20.1887 13.3615, 20.1149 13.5811, 20.0388C13.6344, 20.0208 13.6966, 20.0015 13.7668, 20.0015L14.0063, 20C14.2148, 20 14.7031, 20 14.8161, 20.4553C14.8906, 20.755 14.6038, 21.0913 14.3293, 21.383C14.1942, 21.5264 14.0342, 21.6337 13.8797, 21.7373C13.7761, 21.8071 13.6691, 21.8789 13.5791, 21.9567C13.4744, 22.0475 13.3849, 22.1659 13.29, 22.2912C13.2575, 22.3345 13.2253, 22.3768 13.1926, 22.4183C13.1571, 22.4633 13.1272, 22.5136 13.0955, 22.5667C13.0784, 22.5947 13.0615, 22.623 13.0437, 22.651L12.7944, 23.0423L12.6643, 22.5972C12.6547, 22.5642 12.6394, 22.5281 12.6238, 22.4904C12.5702, 22.3623 12.5058, 22.2089 12.5627, 22.0563C12.6289, 21.8789 12.7677, 21.7028 12.9753, 21.5321C13.1272, 21.4075 13.2875, 21.2894 13.4427, 21.1751C13.6221, 21.0432 13.7956, 20.9157 13.9579, 20.7798C13.9571, 20.7758 13.9652, 20.738 13.9665, 20.6907C13.9574, 20.6867 13.9479, 20.6827 13.9423, 20.6814L13.9018, 20.6819C13.7451, 20.6819 13.5634, 20.6882 13.4087, 20.7339C11.5041, 21.2951 10.2387, 22.0537 9.3056, 23.1935C9.2857, 23.2183 9.2626, 23.2423 9.2389, 23.2663C9.2203, 23.2856 9.1944, 23.3121 9.1888, 23.3231C9.1677, 23.3816 9.1395, 23.4467 9.1118, 23.5097C9.0763, 23.591 9.0024, 23.7609 9.0104, 23.8114C9.0368, 23.8399 9.23, 23.917 9.4205, 23.917C9.901, 23.9025 10.3757, 23.8409 10.8348, 23.7811L11.0303, 23.7558C11.0927, 23.7478 11.1483, 23.744 11.1996, 23.744C11.5362, 23.744 11.7654, 23.9074 11.9203, 24.2584L11.9862, 24.4073L9.0763, 26.67C9.5495, 26.4055 10.0315, 26.1351 10.5045, 25.8639L10.7309, 25.7351C11.4609, 25.3203 12.2146, 24.892 12.7744, 24.242C12.8891, 24.1091 13.0687, 24.0979 13.227, 24.0879C13.2786, 24.0846 13.3271, 24.0819 13.3684, 24.0744L13.7805, 23.9988L13.5956, 24.3723C13.5772, 24.4093 13.5619, 24.4496 13.5455, 24.4919C13.499, 24.6117 13.4474, 24.7453 13.3362, 24.8439C12.8685, 25.2585 12.6791, 25.4711 12.5833, 25.7561C12.5964, 25.7456 12.609, 25.7351 12.6213, 25.7243C12.9033, 25.4796 13.1838, 25.2337 13.4646, 24.9877L13.536, 24.9252C13.9921, 24.5249 14.4638, 24.1111 14.933, 23.7095C15.0751, 23.5874 15.2809, 23.5691 15.3909, 23.5691L15.4264, 23.5696C15.598, 23.5766 15.7056, 23.7635 15.7441, 23.8436C15.7589, 23.8764 15.7672, 23.9061 15.7708, 23.9334C16.0772, 23.6842 16.441, 23.4613 16.8769, 23.2529C16.9914, 23.1981 17.0968, 23.1713 17.1997, 23.1713C17.5021, 23.1713 17.6679, 23.4032 17.7776, 23.5568C17.804, 23.5936 17.8224, 23.6193 17.8415, 23.6431C17.9751, 23.8122 17.8694, 24.0549 17.7285, 24.3316C17.7026, 24.3824 17.6749, 24.4322 17.6462, 24.481C18.4002, 24.0374 18.9961, 23.4855 19.4605, 22.8037C19.5483, 22.6751 19.6887, 22.6161 19.8122, 22.5643C19.859, 22.5448 19.8977, 22.5288 19.9319, 22.5103L20.2758, 22.3222L20.2426, 22.711C20.2393, 22.7483 20.2398, 22.7878 20.2401, 22.8296C20.2406, 22.9499 20.2414, 23.0853 20.1762, 23.2119C20.0801, 23.398 19.9757, 23.5809 19.8703, 23.7601C20.179, 23.5242 20.5186, 23.2657 20.8517, 23.024C20.9636, 22.9427 21.0925, 22.8989 21.2059, 22.8601C21.2519, 22.8446 21.2965, 22.8296 21.3395, 22.8118L21.5765, 22.7147L21.6258, 22.9646C21.6341, 23.0056 21.6442, 23.0469 21.654, 23.0884C21.6797, 23.196 21.7073, 23.3126 21.7136, 23.4334C21.7229, 23.604 21.7222, 23.7809 21.7204, 23.9415C22.0726, 23.7544 22.3184, 23.4716 22.5574, 23.1972C22.6671, 23.0711 22.7768, 22.9453 22.895, 22.8282C22.9503, 22.7734 23.0802, 22.6411 23.0802, 22.6411C23.255, 22.463 23.4357, 22.2788 23.6369, 22.1142C23.7831, 21.9951 23.9556, 21.9321 24.136, 21.9321C24.41, 21.9321 24.6671, 22.079 24.824, 22.3252C25.2512, 22.9952 25.0232, 24.1786 24.3807, 24.6277C24.2537, 24.7165 24.101, 24.7363 23.9784, 24.752C23.9319, 24.758 23.8931, 24.763 23.8592, 24.7705L23.4117, 24.8726L23.6268, 24.4688L23.8037, 24.1403C23.9511, 23.8673 24.0822, 23.6249 24.1997, 23.3832C24.2208, 23.3399 24.2274, 23.2631 24.2138, 23.2186C24.1715, 23.081 24.1119, 22.9406 24.053, 22.8043C23.9436, 22.8588 23.8424, 22.9114 23.7707, 22.9789C23.5526, 23.1846 23.3367, 23.401 23.1274, 23.6106C22.8225, 23.9166 22.5206, 24.2193 22.2054, 24.5008C22.0452, 24.6439 21.7548, 24.7888 21.5098, 24.7888C21.4416, 24.7888 21.3795, 24.7775 21.3249, 24.7553C21.1116, 24.6685 21.0265, 24.4123 20.9516, 24.1864C20.9317, 24.1264 20.9134, 24.0708 20.8932, 24.021C20.8819, 23.9925 20.8736, 23.9642 20.8675, 23.9354C20.826, 23.9632 20.7878, 23.9894 20.7503, 24.0165C20.6099, 24.1183 20.4703, 24.2214 20.3307, 24.3245C20.0404, 24.5392 19.74, 24.7608 19.4346, 24.9675C19.3164, 25.0476 19.1803, 25.0676 19.06, 25.0853C19.016, 25.0918 18.9745, 25.0981 18.9357, 25.1071L18.7, 25.1631C18.7, 25.1631 18.661, 24.7263 18.6572, 24.6857L18.5224, 24.7763C18.1684, 25.015 17.8439, 25.2337 17.4985, 25.4383C17.3013, 25.5554 17.0545, 25.6252 16.8381, 25.6252C16.8072, 25.6252 16.777, 25.6239 16.747, 25.6212C16.5626, 25.6039 16.5128, 25.4361 16.46, 25.1979C16.3101, 25.2952 16.143, 25.3978 15.9561, 25.4624C15.7465, 25.535 15.4421, 25.6313 15.219, 25.6313C15.0781, 25.6313 14.9735, 25.5953 14.8988, 25.521C14.7876, 25.4112 14.7325, 25.2903 14.7353, 25.1627C14.7396, 24.9468 14.9076, 24.7934 15.0427, 24.6701C15.0835, 24.6333 15.127, 24.5938 15.1582, 24.559C15.1142, 24.59 15.0704, 24.621 15.0264, 24.6521C14.7884, 24.82 14.5424, 24.9934 14.3187, 25.1813C14.0085, 25.4422 13.7001, 25.7162 13.4015, 25.9814C13.1054, 26.2446 12.799, 26.5166 12.4906, 26.7765C12.3736, 26.8748 12.1749, 26.9464 12.0184, 26.9464C11.9359, 26.9464 11.8657, 26.9266 11.8101, 26.8879C11.6177, 26.755 11.5746, 26.43 11.6063, 26.2524C11.6221, 26.1626 11.6473, 26.076 11.678, 25.9879L11.6735, 25.9907C11.3228, 26.1936 10.9915, 26.3855 10.6622, 26.5719C9.8197, 27.0485 8.9777, 27.5201 8.1873, 27.9617C8.1098, 28.0052 8.0218, 28.0315 7.9398, 28.0353C7.8067, 28.0421 7.6714, 28.0446 7.5401, 28.0468L7, 28.0574L7.1686, 27.7427zM16.7349, 24.1012C16.5113, 24.205 16.268, 24.3834 16.0781, 24.5818C16.3324, 24.4537 16.5737, 24.2773 16.7349, 24.1012z" fill="#1177D7" class="Blue" />
      </g>
    </g>
  </g>
  <g id="Layer_1" transform="translate(11.3927, 12.2227)">
    <g transform="matrix(0.5, 0, 0, 0.5, 0, 0)">
      <g transform="matrix(1.2247, 0, 0, 1.2247, 0, 0)">
        <g transform="matrix(1, 0, 0, 1, 0, 0)">
          <g id="icon">
            <path d="M24.03, 4.87L16.018, 12.782L8.005, 4.77C7.693, 4.458 7.186, 4.458 6.874, 4.77L4.87, 6.874C4.558, 7.186 4.558, 7.693 4.87, 8.005L12.882, 16.017L4.87, 24.03C4.558, 24.342 4.558, 24.849 4.87, 25.161L6.874, 27.165C7.186, 27.477 7.693, 27.477 8.005, 27.165L16.017, 19.153L24.029, 27.165C24.341, 27.477 24.848, 27.477 25.16, 27.165L27.164, 25.061C27.476, 24.749 27.476, 24.242 27.164, 23.93L19.152, 15.918L27.164, 8.006C27.476, 7.694 27.476, 7.187 27.164, 6.875L25.162, 4.87C24.849, 4.557 24.343, 4.557 24.03, 4.87z" fill="#D11C1C" fill-opacity="1" class="Red" />
          </g>
        </g>
      </g>
    </g>
  </g>
</svg>