<?xml version='1.0' encoding='UTF-8'?>
<svg viewBox="-2.0025 -2.0025 32 32" xmlns="http://www.w3.org/2000/svg" xmlns:xlink="http://www.w3.org/1999/xlink">
  <g id="Layer_1" transform="translate(-0.9679, -0.9679)">
    <g transform="matrix(0.9654, 0, 0, 0.9654, 0, 0)">
      <g id="icon">
        <path d="M5.2469, 5.247C-0.4157, 10.9096 -0.4157, 20.0905 5.2469, 25.7531C10.9095, 31.4157 20.0904, 31.4157 25.753, 25.7531C31.4156, 20.0905 31.4156, 10.9096 25.753, 5.247C20.0904, -0.4156 10.9096, -0.4156 5.2469, 5.247zM17.4778, 8C17.5576, 8 17.6341, 8.0318 17.6904, 8.0883L24.8269, 15.2564C24.9435, 15.3735 24.9434, 15.5628 24.8268, 15.6798L17.6221, 22.9117C17.5658, 22.9682 17.4893, 23 17.4096, 23L14.0836, 23C13.8163, 23 13.6825, 22.6769 13.8715, 22.4879L19.3593, 17L7.3, 17C7.1343, 17 7, 16.8657 7, 16.7L7, 14.3C7, 14.1343 7.1343, 14 7.3, 14L19.4296, 14L13.9417, 8.5121C13.7527, 8.3231 13.8866, 8 14.1538, 8L17.4778, 8z" fill="#1177D7" class="Blue" fill-rule="evenodd" />
      </g>
    </g>
  </g>
  <g id="Layer_1" transform="translate(-0.9679, -0.9679)">
    <g transform="matrix(0.9654, 0, 0, 0.9654, 0, 0)">
      <g id="icon">
        <path d="M19.4296, 14L7.3, 14C7.1343, 14 7, 14.1343 7, 14.3L7, 16.7C7, 16.8657 7.1343, 17 7.3, 17L19.3593, 17L13.8714, 22.4879C13.6824, 22.6769 13.8163, 23 14.0835, 23L17.4095, 23C17.4893, 23 17.5657, 22.9682 17.622, 22.9117L24.8267, 15.6798C24.9433, 15.5628 24.9433, 15.3735 24.8268, 15.2564L17.6903, 8.0883C17.634, 8.0318 17.5575, 8 17.4777, 8L14.1538, 8C13.8865, 8 13.7527, 8.3231 13.9417, 8.5121L19.4296, 14z" fill="#FFFFFF" fill-rule="evenodd" />
      </g>
    </g>
  </g>
</svg>