<?xml version='1.0' encoding='UTF-8'?>
<svg viewBox="-4.1576 -2 32.0001 32" xmlns="http://www.w3.org/2000/svg" xmlns:xlink="http://www.w3.org/1999/xlink">
  <g transform="translate(4.76837158203125E-07, 0)">
    <g transform="matrix(0.875182509422302, 0, 0, 0.875182509422302, 0, 0)">
      <g transform="translate(0.000886648559570312, 0)">
        <g transform="matrix(1.00628304481506, 0, 0, 1.00628304481506, 0, 0)">
          <g transform="translate(-0.000881403350830078, 0)">
            <g transform="matrix(1.13556921482086, 0, 0, 1.13556921482086, 0, 0)">
              <g transform="translate(0, 0)">
                <g transform="matrix(0.875038921833038, 0, 0, 0.875038921833038, 0, 0)">
                  <g transform="translate(0.000452316284179688, 0)">
                    <g transform="matrix(1.00628614425659, 0, 0, 1.00628614425659, 0, 0)">
                      <g transform="translate(-0.000449591064453125, 0)">
                        <g transform="matrix(1.13561356067657, 0, 0, 1.13561356067657, 0, 0)">
                          <g id="Layer_1" transform="translate(-4.40251001358032, 0)">
                            <g transform="matrix(0.880502104759216, 0, 0, 0.880502104759216, 0, 0)">
                              <g id="main">
                                <g id="icon">
                                  <path d="M6.725, 0.002539L6.468, 0.02852L6.418, 0.0334L6.37, 0.04844L6.13, 0.1227L6.06, 0.1445L5.999, 0.1857L5.594, 0.459L5.513, 0.5133L5.459, 0.5939L5.186, 0.9992L5.145, 1.06L5.123, 1.13L5.048, 1.37L5.033, 1.418L5.029, 1.468L5.003, 1.725L5, 1.75L5, 1.775L5, 28.22L5, 28.25L5.003, 28.28L5.029, 28.53L5.033, 28.58L5.048, 28.63L5.123, 28.87L5.145, 28.94L5.186, 29L5.459, 29.41L5.513, 29.49L5.594, 29.54L5.999, 29.81L6.06, 29.86L6.13, 29.88L6.37, 29.95L6.418, 29.97L6.468, 29.97L6.725, 30L6.75, 30L6.775, 30L18.56, 30L19.07, 29L6.8, 29L6.619, 28.98L6.497, 28.94L6.234, 28.77L6.056, 28.5L6.018, 28.38L6, 28.2L6, 1.8L6.018, 1.619L6.056, 1.497L6.234, 1.234L6.497, 1.056L6.619, 1.018L6.8, 1L26.2, 1L26.38, 1.018L26.5, 1.056L26.77, 1.234L26.94, 1.497L26.98, 1.619L27, 1.8L27, 16.1L28, 16.1L28, 1.775L28, 1.75L28, 1.725L27.97, 1.468L27.97, 1.418L27.95, 1.37L27.88, 1.13L27.86, 1.06L27.81, 0.9992L27.54, 0.5939L27.49, 0.5133L27.41, 0.459L27, 0.1857L26.94, 0.1445L26.87, 0.1227L26.63, 0.04844L26.58, 0.0334L26.53, 0.02852L26.28, 0.002539L26.25, 0L26.22, 0L6.775, 0L6.75, 0zz" fill="#727272" class="Black" />
                                </g>
                              </g>
                            </g>
                          </g>
                        </g>
                      </g>
                    </g>
                  </g>
                </g>
              </g>
            </g>
          </g>
        </g>
      </g>
    </g>
  </g>
  <g transform="translate(6.0882568364562E-07, -3.4484863276063E-07)">
    <g transform="matrix(0.875182509422302, 0, 0, 0.875182509422302, 0, 0)">
      <g transform="translate(0.000886466598510882, 5.6457519548303E-08)">
        <g transform="matrix(1.00628304481506, 0, 0, 1.00628304481506, 0, 0)">
          <g transform="translate(-0.000881880187988404, 0)">
            <g transform="matrix(1.13556921482086, 0, 0, 1.13556921482086, 0, 0)">
              <g transform="translate(-1.39617919892032E-07, -1.39617919892032E-07)">
                <g transform="matrix(0.875038921833038, 0, 0, 0.875038921833038, 0, 0)">
                  <g transform="translate(0.000452303314208979, -2.51388549976639E-07)">
                    <g transform="matrix(1.00628614425659, 0, 0, 1.00628614425659, 0, 0)">
                      <g transform="translate(-0.000450067901611284, -2.38418579101563E-07)">
                        <g transform="matrix(1.13561356067657, 0, 0, 1.13561356067657, 0, 0)">
                          <g id="Layer_1" transform="translate(-4.40251001739502, -3.8146974468134E-09)">
                            <g transform="matrix(0.880502104759216, 0, 0, 0.880502104759216, 0, 0)">
                              <g id="main">
                                <g id="icon">
                                  <path d="M8.344, 3.044L8.165, 3.165L8.044, 3.344L8, 3.563L8, 10.44L8.044, 10.66L8.165, 10.84L8.344, 10.96L8.563, 11L24.44, 11L24.66, 10.96L24.84, 10.84L24.96, 10.66L25, 10.44L25, 3.563L24.96, 3.344L24.84, 3.165L24.66, 3.044L24.44, 3L8.563, 3zM21.97, 4.524L22.35, 4.677L22.67, 4.917L22.93, 5.232L23.12, 5.61L23.25, 6.041L23.33, 6.511L23.35, 7.01L23.32, 7.559L23.24, 8.057L23.09, 8.498L22.89, 8.874L22.62, 9.179L22.3, 9.405L21.92, 9.546L21.48, 9.595L21.03, 9.543L20.65, 9.393L20.33, 9.157L20.08, 8.844L19.88, 8.466L19.74, 8.032L19.66, 7.554L19.63, 7.041L19.65, 6.517L19.74, 6.031L19.88, 5.594L20.09, 5.215L20.35, 4.904L20.67, 4.67L21.06, 4.522L21.51, 4.471zM21.34, 5.373L21.21, 5.45L20.98, 5.76L20.84, 6.288L20.78, 7.041L20.83, 7.782L20.98, 8.305L21.2, 8.616L21.34, 8.693L21.5, 8.718L21.66, 8.692L21.8, 8.612L22.02, 8.295L22.15, 7.765L22.19, 7.025L22.15, 6.3L22.02, 5.775L21.8, 5.456L21.66, 5.375L21.49, 5.348zz" fill="#727272" class="Black" />
                                </g>
                              </g>
                            </g>
                          </g>
                        </g>
                      </g>
                    </g>
                  </g>
                </g>
              </g>
            </g>
          </g>
        </g>
      </g>
    </g>
  </g>
  <g transform="translate(6.0882568364562E-07, 2.31933594108114E-07)">
    <g transform="matrix(0.875182509422302, 0, 0, 0.875182509422302, 0, 0)">
      <g transform="translate(0.000886466598510882, -8.91113280943046E-07)">
        <g transform="matrix(1.00628304481506, 0, 0, 1.00628304481506, 0, 0)">
          <g transform="translate(-0.000881880187988404, -9.5367431640625E-07)">
            <g transform="matrix(1.13556921482086, 0, 0, 1.13556921482086, 0, 0)">
              <g transform="translate(-1.39617919892032E-07, -8.54492187229994E-07)">
                <g transform="matrix(0.875038921833038, 0, 0, 0.875038921833038, 0, 0)">
                  <g transform="translate(0.000452303314208979, -1.30462646552587E-06)">
                    <g transform="matrix(1.00628614425659, 0, 0, 1.00628614425659, 0, 0)">
                      <g transform="translate(-0.000450067901611284, -9.5367431640625E-07)">
                        <g transform="matrix(1.13561356067657, 0, 0, 1.13561356067657, 0, 0)">
                          <g id="Layer_1" transform="translate(-4.40251001739502, -1.75476074559811E-07)">
                            <g transform="matrix(0.880502104759216, 0, 0, 0.880502104759216, 0, 0)">
                              <g id="main">
                                <g id="icon">
                                  <path d="M8.443, 13.06L8.212, 13.21L8.057, 13.44L8, 13.72L8, 16.28L8.057, 16.56L8.212, 16.79L8.443, 16.94L8.725, 17L12.28, 17L12.56, 16.94L12.79, 16.79L12.94, 16.56L13, 16.28L13, 13.72L12.94, 13.44L12.79, 13.21L12.56, 13.06L12.28, 13L8.725, 13zM14.44, 13.06L14.21, 13.21L14.06, 13.44L14, 13.72L14, 16.28L14.06, 16.56L14.21, 16.79L14.44, 16.94L14.72, 17L18.28, 17L18.56, 16.94L18.79, 16.79L18.94, 16.56L19, 16.28L19, 13.72L18.94, 13.44L18.79, 13.21L18.56, 13.06L18.28, 13L14.72, 13zM20.44, 13.06L20.21, 13.21L20.06, 13.44L20, 13.72L20, 16.28L20.06, 16.56L20.21, 16.79L20.44, 16.94L20.72, 17L23.1, 17L23.42, 16.56L23.62, 16.36L23.85, 16.22L24.11, 16.13L24.38, 16.1L25, 16.1L25, 13.72L24.94, 13.44L24.79, 13.21L24.56, 13.06L24.28, 13L20.72, 13zM8.443, 18.06L8.212, 18.21L8.057, 18.44L8, 18.72L8, 21.28L8.057, 21.56L8.212, 21.79L8.443, 21.94L8.725, 22L12.28, 22L12.56, 21.94L12.79, 21.79L12.94, 21.56L13, 21.28L13, 18.72L12.94, 18.44L12.79, 18.21L12.56, 18.06L12.28, 18L8.725, 18zM14.44, 18.06L14.21, 18.21L14.06, 18.44L14, 18.72L14, 21.28L14.06, 21.56L14.21, 21.79L14.44, 21.94L14.72, 22L18.28, 22L18.56, 21.94L18.79, 21.79L18.94, 21.56L19, 21.28L19, 18.72L18.94, 18.44L18.79, 18.21L18.56, 18.06L18.28, 18L14.72, 18zM20.44, 18.06L20.21, 18.21L20.06, 18.44L20, 18.72L20, 21.21L22.36, 18L20.72, 18zM8.443, 23.06L8.212, 23.21L8.057, 23.44L8, 23.72L8, 26.28L8.057, 26.56L8.212, 26.79L8.443, 26.94L8.725, 27L12.28, 27L12.56, 26.94L12.79, 26.79L12.94, 26.56L13, 26.28L13, 23.72L12.94, 23.44L12.79, 23.21L12.56, 23.06L12.28, 23L8.725, 23zM14.44, 23.06L14.21, 23.21L14.06, 23.44L14, 23.72L14, 26.28L14.06, 26.56L14.21, 26.79L14.44, 26.94L14.72, 27L18.28, 27L18.56, 26.94L18.79, 26.79L18.94, 26.56L19, 26.28L19, 25.37L18.92, 25.36L18.63, 25.23L18.38, 25.03L18.19, 24.76L18.08, 24.44L18.07, 24.12L18.14, 23.81L18.3, 23.52L18.61, 23.09L18.56, 23.06L18.28, 23L14.72, 23zM20, 26.28L20.06, 26.56L20.2, 26.77L20.9, 25.4L20, 25.4zz" fill="#1177D7" class="Blue" />
                                </g>
                              </g>
                            </g>
                          </g>
                        </g>
                      </g>
                    </g>
                  </g>
                </g>
              </g>
            </g>
          </g>
        </g>
      </g>
    </g>
  </g>
  <g transform="translate(1.69372558644909E-07, -9.15527344602651E-07)">
    <g transform="matrix(0.875182509422302, 0, 0, 0.875182509422302, 0, 0)">
      <g transform="translate(0.000885617065430111, -0.00250045770779295)">
        <g transform="matrix(1.00628304481506, 0, 0, 1.00628304481506, 0, 0)">
          <g transform="translate(-0.000882952880859378, -1.37329101690398E-06)">
            <g transform="matrix(1.13556921482086, 0, 0, 1.13556921482086, 0, 0)">
              <g transform="translate(-1.05285644558251E-06, -2.45666504028463E-07)">
                <g transform="matrix(0.875038921833038, 0, 0, 0.875038921833038, 0, 0)">
                  <g transform="translate(0.000450457763671253, -1.8310546892053E-06)">
                    <g transform="matrix(1.00628614425659, 0, 0, 1.00628614425659, 0, 0)">
                      <g transform="translate(-0.000450527954100721, -1.37329101690398E-06)">
                        <g transform="matrix(1.13561356067657, 0, 0, 1.13561356067657, 0, 0)">
                          <g id="Layer_1" transform="translate(-4.40251031799317, -3.81469726917771E-07)">
                            <g transform="matrix(0.880502104759216, 0, 0, 0.880502104759216, 0, 0)">
                              <g id="main">
                                <g id="overlay">
                                  <path d="M26.715, 22.5886L30.3601, 22.5886C30.5409, 22.5886 30.622, 22.8153 30.4821, 22.9299L19.2158, 31.755C19.0552, 31.8867 18.8287, 31.7058 18.9216, 31.5201L22.5296, 24.4304L19.2543, 24.4304C19.0958, 24.4304 19.0052, 24.2495 19.1002, 24.1226L24.2282, 17.1406C24.2645, 17.092 24.3217, 17.0634 24.3823, 17.0634L31.7044, 17.0634C31.8791, 17.0634 31.9635, 17.2774 31.8357, 17.3966L26.715, 22.5886z" fill="#FFB115" class="Yellow" fill-rule="evenOdd" />
                                </g>
                              </g>
                            </g>
                          </g>
                        </g>
                      </g>
                    </g>
                  </g>
                </g>
              </g>
            </g>
          </g>
        </g>
      </g>
    </g>
  </g>
</svg>