<?xml version='1.0' encoding='UTF-8'?>
<svg viewBox="-2 -2 32 32" xmlns="http://www.w3.org/2000/svg" xmlns:xlink="http://www.w3.org/1999/xlink">
  <g id="Layer_1" transform="translate(-0.9032, -0.9032)">
    <g transform="matrix(0.9032, 0, 0, 0.9032, 0, 0)">
      <g id="main">
        <g id="icon">
          <path d="M2, 28L18.5, 28L18.2, 27.97L17.92, 27.88L17.66, 27.74L17.44, 27.56L17.26, 27.34L17.12, 27.08L17.03, 26.8L17, 26.5L17, 23.5L17.03, 23.2L17.12, 22.92L17.26, 22.66L17.44, 22.44L17.66, 22.26L17.92, 22.12L18.2, 22.03L18.5, 22L22, 22L22, 18.5L22.03, 18.2L22.12, 17.92L22.26, 17.66L22.44, 17.44L22.66, 17.26L22.92, 17.12L23.2, 17.03L23.5, 17L26.5, 17L26.8, 17.03L27.08, 17.12L27.34, 17.26L27.56, 17.44L27.74, 17.66L27.88, 17.92L27.97, 18.2L28, 18.5L28, 1.5L2, 1.5zz" fill="#FFFFFF" fill-rule="evenodd" />
        </g>
      </g>
    </g>
  </g>
  <g id="Layer_1" transform="translate(-0.9032, -0.9032)">
    <g transform="matrix(0.9032, 0, 0, 0.9032, 0, 0)">
      <g id="main">
        <g id="icon">
          <path d="M1.488, 1.063L1.234, 1.234L1.063, 1.488L1, 1.8L1, 28.2L1.063, 28.51L1.234, 28.77L1.488, 28.94L1.8, 29L22, 29L22, 28L18.5, 28L2, 28L2, 2L28, 2L28, 18.5L28, 22L29, 22L29, 1.8L28.94, 1.488L28.77, 1.234L28.51, 1.063L28.2, 1L1.8, 1zM28, 29L28.2, 29L28.51, 28.94L28.77, 28.77L28.94, 28.51L29, 28.2L29, 28L28, 28zz" fill="#727272" class="Black" fill-rule="evenodd" />
        </g>
      </g>
    </g>
  </g>
  <g id="Layer_1" transform="translate(-0.9032, -0.9032)">
    <g transform="matrix(0.9032, 0, 0, 0.9032, 0, 0)">
      <g id="main">
        <g id="icon">
          <path d="M22.87, 8.085L22.68, 8.204L12.77, 18.05L7.607, 12.82L7.429, 12.7L7.219, 12.66L7.008, 12.7L6.83, 12.83L5.055, 14.6L4.932, 14.79L4.889, 14.99L4.927, 15.2L5.047, 15.38L10.01, 20.36L10.12, 20.46L12.49, 22.83L12.66, 22.96L12.86, 23.02L13.07, 22.98L13.25, 22.86L25.36, 10.83L25.47, 10.66L25.5, 10.46L25.45, 10.26L25.31, 10.08L23.45, 8.225L23.27, 8.099L23.07, 8.051zz" fill="#1177D7" class="Blue" />
        </g>
      </g>
    </g>
  </g>
  <g id="Layer_1" transform="translate(-0.9032, -0.9032)">
    <g transform="matrix(0.9032, 0, 0, 0.9032, 0, 0)">
      <g id="main">
        <g id="overlay">
          <path d="M31.5, 23L27, 23L27, 18.5C27, 18.224 26.776, 18 26.5, 18L23.5, 18C23.224, 18 23, 18.224 23, 18.5L23, 23L18.5, 23C18.224, 23 18, 23.224 18, 23.5L18, 26.5C18, 26.776 18.224, 27 18.5, 27L23, 27L23, 31.5C23, 31.776 23.224, 32 23.5, 32L26.5, 32C26.776, 32 27, 31.776 27, 31.5L27, 27L31.5, 27C31.776, 27 32, 26.776 32, 26.5L32, 23.5C32, 23.224 31.776, 23 31.5, 23z" fill="#039C23" class="Green" fill-rule="evenodd" />
        </g>
      </g>
    </g>
  </g>
</svg>