<?xml version='1.0' encoding='UTF-8'?>
<svg viewBox="-2 -5.0625 32 32" xmlns="http://www.w3.org/2000/svg" xmlns:xlink="http://www.w3.org/1999/xlink">
  <g id="Layer_1" transform="translate(0, -6.125)">
    <g transform="matrix(0.875, 0, 0, 0.875, 0, 0)">
      <g id="main">
        <g id="icon">
          <path d="M1, 22L18.5, 22L22, 22L22, 18.5L22.03, 18.2L22.12, 17.92L22.26, 17.66L22.44, 17.44L22.66, 17.26L22.92, 17.12L23.2, 17.03L23.5, 17L26.5, 17L26.8, 17.03L27.08, 17.12L27.34, 17.26L27.56, 17.44L27.74, 17.66L27.88, 17.92L27.97, 18.2L28, 18.5L28, 22L29, 22L29, 8L1, 8zz" fill="#FFFFFF" fill-rule="evenodd" />
        </g>
      </g>
    </g>
  </g>
  <g id="Layer_1" transform="translate(0, -6.125)">
    <g transform="matrix(0.875, 0, 0, 0.875, 0, 0)">
      <g id="main">
        <g id="icon">
          <path d="M0.4885, 7.063L0.2342, 7.234L0.0629, 7.488L0, 7.8L0, 22.2L0.0629, 22.51L0.2342, 22.77L0.4885, 22.94L0.8, 23L17.09, 23L17.12, 22.92L17.26, 22.66L17.44, 22.44L17.66, 22.26L17.92, 22.12L18.2, 22.03L18.5, 22L1, 22L1, 8L29, 8L29, 22L30, 22L30, 7.8L29.94, 7.488L29.77, 7.234L29.51, 7.063L29.2, 7L0.8, 7zz" fill="#727272" class="Black" fill-rule="evenodd" />
        </g>
      </g>
    </g>
  </g>
  <g id="Layer_1" transform="translate(0, -6.125)">
    <g transform="matrix(0.875, 0, 0, 0.875, 0, 0)">
      <g id="main">
        <g id="icon">
          <path d="M3, 19L8, 19L8, 11L3, 11zz" fill="#D1D3D4" style="fill:#727272;fill-opacity:0.8" fill-rule="evenodd" />
        </g>
      </g>
    </g>
  </g>
  <g id="Layer_1" transform="translate(0, -6.125)">
    <g transform="matrix(0.875, 0, 0, 0.875, 0, 0)">
      <g id="main">
        <g id="icon">
          <path d="M9.078, 9.077L9, 9.266L9, 9.733L9.078, 9.922L9.267, 10L10.27, 10L10.55, 10.06L10.79, 10.21L10.94, 10.45L11, 10.73L11, 19.27L10.94, 19.55L10.79, 19.78L10.55, 19.94L10.27, 20L9.267, 20L9.078, 20.08L9, 20.27L9, 20.73L9.078, 20.92L9.267, 21L10.27, 21L10.62, 20.96L10.95, 20.86L11.24, 20.7L11.5, 20.48L11.76, 20.7L12.05, 20.86L12.38, 20.96L12.73, 21L13.73, 21L13.92, 20.92L14, 20.73L14, 20.27L13.92, 20.08L13.73, 20L12.73, 20L12.45, 19.94L12.21, 19.78L12.06, 19.55L12, 19.27L12, 10.73L12.06, 10.45L12.21, 10.21L12.45, 10.06L12.73, 10L13.73, 10L13.92, 9.922L14, 9.733L14, 9.266L13.92, 9.077L13.73, 8.999L12.73, 8.999L12.38, 9.035L12.05, 9.138L11.76, 9.3L11.5, 9.515L11.24, 9.3L10.95, 9.138L10.62, 9.035L10.27, 8.999L9.267, 8.999zz" fill="#727272" class="Black" />
        </g>
      </g>
    </g>
  </g>
  <g id="Layer_1" transform="translate(0, -6.125)">
    <g transform="matrix(0.875, 0, 0, 0.875, 0, 0)">
      <g id="main">
        <g id="overlay">
          <path d="M31.5, 23L27, 23L27, 18.5C27, 18.224 26.776, 18 26.5, 18L23.5, 18C23.224, 18 23, 18.224 23, 18.5L23, 23L18.5, 23C18.224, 23 18, 23.224 18, 23.5L18, 26.5C18, 26.776 18.224, 27 18.5, 27L23, 27L23, 31.5C23, 31.776 23.224, 32 23.5, 32L26.5, 32C26.776, 32 27, 31.776 27, 31.5L27, 27L31.5, 27C31.776, 27 32, 26.776 32, 26.5L32, 23.5C32, 23.224 31.776, 23 31.5, 23z" fill="#039C23" class="Green" fill-rule="evenodd" />
        </g>
      </g>
    </g>
  </g>
</svg>