<?xml version='1.0' encoding='UTF-8'?>
<svg viewBox="-2 -2 32 32" xmlns="http://www.w3.org/2000/svg" xmlns:xlink="http://www.w3.org/1999/xlink">
  <g id="Layer_1" transform="translate(-1.8666, -1.8666)">
    <g transform="matrix(0.9333, 0, 0, 0.9333, 0, 0)">
      <g id="main">
        <g id="icon">
          <path d="M13.73, 2.664L12.5, 2.852L11.31, 3.157L10.17, 3.574L9.089, 4.097L8.067, 4.718L7.113, 5.432L6.232, 6.232L5.432, 7.113L4.718, 8.067L4.097, 9.089L3.574, 10.17L3.157, 11.31L2.852, 12.5L2.664, 13.73L2.6, 15L2.664, 16.27L2.852, 17.5L3.157, 18.69L3.574, 19.83L4.097, 20.91L4.718, 21.93L5.432, 22.89L6.232, 23.77L7.113, 24.57L8.067, 25.28L9.089, 25.9L10.17, 26.43L11.31, 26.84L12.5, 27.15L13.73, 27.34L15, 27.4L16.27, 27.34L17.18, 27.2L17.12, 27.08L17.03, 26.8L17, 26.5L17, 23.5L17.03, 23.2L17.12, 22.92L17.26, 22.66L17.44, 22.44L17.66, 22.26L17.92, 22.12L18.2, 22.03L18.5, 22L22, 22L22, 18.5L22.03, 18.2L22.12, 17.92L22.26, 17.66L22.44, 17.44L22.66, 17.26L22.92, 17.12L23.2, 17.03L23.5, 17L26.5, 17L26.8, 17.03L27.08, 17.12L27.2, 17.18L27.34, 16.27L27.4, 15L27.34, 13.73L27.15, 12.5L26.84, 11.31L26.43, 10.17L25.9, 9.089L25.28, 8.067L24.57, 7.113L23.77, 6.232L22.89, 5.432L21.93, 4.718L20.91, 4.097L19.83, 3.574L18.69, 3.157L17.5, 2.852L16.27, 2.664L15, 2.6zz" fill="#FFFFFF" />
        </g>
      </g>
    </g>
  </g>
  <g id="Layer_1" transform="translate(-1.8666, -1.8666)">
    <g transform="matrix(0.9333, 0, 0, 0.9333, 0, 0)">
      <g id="main">
        <g id="icon">
          <path d="M13.67, 2.067L12.38, 2.265L11.14, 2.586L9.945, 3.023L8.809, 3.571L7.737, 4.223L6.736, 4.972L5.812, 5.812L4.972, 6.736L4.223, 7.737L3.571, 8.809L3.023, 9.945L2.586, 11.14L2.265, 12.38L2.067, 13.67L2, 15L2.067, 16.33L2.265, 17.62L2.586, 18.86L3.023, 20.06L3.571, 21.19L4.223, 22.26L4.972, 23.26L5.812, 24.19L6.736, 25.03L7.737, 25.78L8.809, 26.43L9.945, 26.98L11.14, 27.41L12.38, 27.74L13.67, 27.93L15, 28L16.33, 27.93L17.62, 27.74L17.64, 27.73L17.44, 27.56L17.26, 27.34L17.12, 27.08L17.03, 26.8L17.01, 26.62L16.2, 26.74L15, 26.8L13.8, 26.74L12.62, 26.56L11.49, 26.27L10.41, 25.87L9.38, 25.37L8.407, 24.78L7.498, 24.1L6.66, 23.34L5.898, 22.5L5.218, 21.59L4.626, 20.62L4.129, 19.59L3.731, 18.51L3.44, 17.38L3.261, 16.2L3.2, 15L3.261, 13.8L3.44, 12.62L3.731, 11.49L4.129, 10.41L4.626, 9.38L5.218, 8.407L5.898, 7.498L6.66, 6.66L7.498, 5.898L8.407, 5.218L9.38, 4.626L10.41, 4.129L11.49, 3.731L12.62, 3.44L13.8, 3.261L15, 3.2L16.2, 3.261L17.38, 3.44L18.51, 3.731L19.59, 4.129L20.62, 4.626L21.59, 5.218L22.5, 5.898L23.34, 6.66L24.1, 7.498L24.78, 8.407L25.37, 9.38L25.87, 10.41L26.27, 11.49L26.56, 12.62L26.74, 13.8L26.8, 15L26.74, 16.2L26.62, 17.01L26.8, 17.03L27.08, 17.12L27.34, 17.26L27.56, 17.44L27.73, 17.64L27.74, 17.62L27.93, 16.33L28, 15L27.93, 13.67L27.74, 12.38L27.41, 11.14L26.98, 9.945L26.43, 8.809L25.78, 7.737L25.03, 6.736L24.19, 5.812L23.26, 4.972L22.26, 4.223L21.19, 3.571L20.06, 3.023L18.86, 2.586L17.62, 2.265L16.33, 2.067L15, 2zz" fill="#727272" class="Black" />
        </g>
      </g>
    </g>
  </g>
  <g id="Layer_1" transform="translate(-1.8666, -1.8666)">
    <g transform="matrix(0.9333, 0, 0, 0.9333, 0, 0)">
      <g id="main">
        <g id="icon">
          <path d="M14.39, 9.031L13.79, 9.122L13.22, 9.27L12.66, 9.471L12.14, 9.724L11.65, 10.02L11.18, 10.37L10.76, 10.76L10.37, 11.18L10.02, 11.65L9.724, 12.14L9.471, 12.66L9.27, 13.22L9.122, 13.79L9.031, 14.39L9, 15L9.031, 15.61L9.122, 16.21L9.27, 16.78L9.471, 17.34L9.724, 17.86L10.02, 18.35L10.37, 18.82L10.76, 19.24L11.18, 19.63L11.65, 19.98L12.14, 20.28L12.66, 20.53L13.22, 20.73L13.79, 20.88L14.39, 20.97L15, 21L15.61, 20.97L16.21, 20.88L16.78, 20.73L17.34, 20.53L17.86, 20.28L18.35, 19.98L18.82, 19.63L19.24, 19.24L19.63, 18.82L19.98, 18.35L20.28, 17.86L20.53, 17.34L20.73, 16.78L20.88, 16.21L20.97, 15.61L21, 15L20.97, 14.39L20.88, 13.79L20.73, 13.22L20.53, 12.66L20.28, 12.14L19.98, 11.65L19.63, 11.18L19.24, 10.76L18.82, 10.37L18.35, 10.02L17.86, 9.724L17.34, 9.471L16.78, 9.27L16.21, 9.122L15.61, 9.031L15, 9zz" fill="#1177D7" class="Blue" />
        </g>
      </g>
    </g>
  </g>
  <g id="Layer_1" transform="translate(-1.8666, -1.8666)">
    <g transform="matrix(0.9333, 0, 0, 0.9333, 0, 0)">
      <g id="main">
        <g id="overlay">
          <path d="M31.5, 23L27, 23L27, 18.5C27, 18.224 26.776, 18 26.5, 18L23.5, 18C23.224, 18 23, 18.224 23, 18.5L23, 23L18.5, 23C18.224, 23 18, 23.224 18, 23.5L18, 26.5C18, 26.776 18.224, 27 18.5, 27L23, 27L23, 31.5C23, 31.776 23.224, 32 23.5, 32L26.5, 32C26.776, 32 27, 31.776 27, 31.5L27, 27L31.5, 27C31.776, 27 32, 26.776 32, 26.5L32, 23.5C32, 23.224 31.776, 23 31.5, 23z" fill="#039C23" class="Green" fill-rule="evenodd" />
        </g>
      </g>
    </g>
  </g>
</svg>