<?xml version='1.0' encoding='UTF-8'?>
<svg viewBox="-2 -2.0056 32 32.0006" xmlns="http://www.w3.org/2000/svg" xmlns:xlink="http://www.w3.org/1999/xlink">
  <g id="Layer_1" transform="translate(0, -0.0111)">
    <g transform="matrix(0.875, 0, 0, 0.875, 0, 0)">
      <g id="main">
        <g id="icon">
          <path d="M2, 27L17.09, 27L17.03, 26.8L17, 26.5L17, 23.5L17.03, 23.2L17.12, 22.92L17.26, 22.66L17.44, 22.44L17.66, 22.26L17.92, 22.12L18.2, 22.03L18.5, 22L22, 22L22, 18.5L22.03, 18.2L22.12, 17.92L22.26, 17.66L22.44, 17.44L22.66, 17.26L22.92, 17.12L23.2, 17.03L23.5, 17L26.5, 17L26.8, 17.03L27.08, 17.12L27.34, 17.26L27.56, 17.44L27.74, 17.66L27.88, 17.92L27.97, 18.2L28, 18.5L28, 16.5L2, 16.5zz" fill="#FFFFFF" fill-rule="evenodd" />
        </g>
      </g>
    </g>
  </g>
  <g id="Layer_1" transform="translate(0, -0.0111)">
    <g transform="matrix(0.875, 0, 0, 0.875, 0, 0)">
      <g id="main">
        <g id="icon">
          <path d="M1.488, 16.06L1.234, 16.23L1.063, 16.49L1, 16.8L1, 27.2L1.063, 27.51L1.234, 27.77L1.488, 27.94L1.8, 28L18.5, 28L18.2, 27.97L17.92, 27.88L17.66, 27.74L17.44, 27.56L17.26, 27.34L17.12, 27.08L17.09, 27L2, 27L2, 17L6.779, 17L7.305, 16L1.8, 16zM14.34, 17L23.5, 17L26.5, 17L28, 17L28, 18.5L28, 22L29, 22L29, 16.8L28.94, 16.49L28.77, 16.23L28.51, 16.06L28.2, 16L15.34, 16zz" fill="#727272" class="Black" fill-rule="evenodd" />
        </g>
      </g>
    </g>
  </g>
  <g id="Layer_1" transform="translate(0, -0.0111)">
    <g transform="matrix(0.875, 0, 0, 0.875, 0, 0)">
      <g id="main">
        <g id="icon">
          <path d="M24.09, 0.1033L23.73, 0.375L22.51, 1.577L25.44, 4.483L26.64, 3.285L26.91, 2.921L27, 2.556L26.91, 2.191L26.64, 1.827L25.19, 0.375L24.82, 0.1033L24.46, 0.0127zM9.479, 14.62L12.39, 17.53L24.75, 5.172L21.84, 2.262zM6.038, 20.56L6.015, 20.69L6.075, 20.81L6.202, 20.94L6.322, 21L6.455, 20.98L11.71, 18.21L8.803, 15.3zz" fill="#1177D7" class="Blue" fill-rule="evenodd" />
        </g>
      </g>
    </g>
  </g>
  <g id="Layer_1" transform="translate(0, -0.0111)">
    <g transform="matrix(0.875, 0, 0, 0.875, 0, 0)">
      <g id="main">
        <g id="icon">
          <path d="M0, 18L3, 18L3, 15L0, 15zM27, 17.09L27.08, 17.12L27.34, 17.26L27.56, 17.44L27.74, 17.66L27.88, 17.92L27.91, 18L30, 18L30, 15L27, 15zM0, 29L3, 29L3, 26L0, 26zM28, 29L30, 29L30, 28L28, 28zz" fill="#727272" class="Black" fill-rule="evenodd" />
        </g>
      </g>
    </g>
  </g>
  <g id="Layer_1" transform="translate(0, -0.0111)">
    <g transform="matrix(0.875, 0, 0, 0.875, 0, 0)">
      <g id="main">
        <g id="icon">
          <path d="M20.08, 19.85L20.02, 19.86L19.37, 19.92L19.33, 19.93L18.69, 20.06L18.63, 20.07L17.4, 20.47L17.35, 20.49L16.16, 21.03L16.13, 21.05L14.98, 21.66L14.97, 21.66L13.85, 22.28L12.76, 22.83L11.7, 23.26L11.19, 23.41L10.68, 23.5L10.17, 23.54L9.668, 23.51L9.156, 23.42L8.636, 23.24L8.098, 22.98L7.543, 22.62L6.965, 22.15L6.351, 21.54L6.046, 21.4L5.72, 21.49L5.521, 21.76L5.539, 22.09L5.649, 22.26L6.279, 22.88L6.314, 22.91L6.931, 23.41L6.975, 23.44L7.58, 23.84L7.634, 23.87L8.228, 24.16L8.289, 24.18L8.874, 24.38L8.94, 24.39L9.516, 24.5L9.583, 24.51L10.15, 24.54L10.21, 24.54L10.78, 24.5L10.83, 24.49L11.39, 24.38L11.44, 24.37L12, 24.22L12.05, 24.2L13.16, 23.75L13.2, 23.73L14.31, 23.17L14.33, 23.16L15.45, 22.54L15.45, 22.54L15.45, 22.54L16.59, 21.94L17.74, 21.42L18.91, 21.03L19.5, 20.92L20.1, 20.85L20.72, 20.85L21.35, 20.92L22, 21.06L22, 20.04L21.54, 19.94L21.49, 19.93L20.8, 19.85L20.74, 19.85zz" fill="#1177D7" class="Blue" />
        </g>
      </g>
    </g>
  </g>
  <g id="Layer_1" transform="translate(0, -0.0111)">
    <g transform="matrix(0.875, 0, 0, 0.875, 0, 0)">
      <g id="main">
        <g id="overlay">
          <path d="M31.5, 23L27, 23L27, 18.5C27, 18.224 26.776, 18 26.5, 18L23.5, 18C23.224, 18 23, 18.224 23, 18.5L23, 23L18.5, 23C18.224, 23 18, 23.224 18, 23.5L18, 26.5C18, 26.776 18.224, 27 18.5, 27L23, 27L23, 31.5C23, 31.776 23.224, 32 23.5, 32L26.5, 32C26.776, 32 27, 31.776 27, 31.5L27, 27L31.5, 27C31.776, 27 32, 26.776 32, 26.5L32, 23.5C32, 23.224 31.776, 23 31.5, 23z" fill="#039C23" class="Green" fill-rule="evenodd" />
        </g>
      </g>
    </g>
  </g>
</svg>