<?xml version='1.0' encoding='UTF-8'?>
<svg viewBox="-2.1 -2.0025 32 32" xmlns="http://www.w3.org/2000/svg" xmlns:xlink="http://www.w3.org/1999/xlink">
  <g id="Layer_1" transform="translate(-0.9554, -0.9136)">
    <g transform="matrix(0.9298, 0, 0, 0.9298, 0, 0)">
      <g id="icon">
        <path d="M24.762, 30.15C24.378, 31.23 18.88, 31.088 16.501, 31.088C16.485, 31.088 16.511, 31.088 16.501, 31.088C14.122, 31.088 8.688, 31.229 8.304, 30.149C7.962, 29.19 7.984, 28.827 8.112, 27.961C8.539, 25.807 9.298, 25.77 13.449, 24.304C14.055, 24.076 14.227, 23.747 14.182, 23.279C13.011, 21.879 12.309, 19.62 12.309, 18.037C12.309, 15.586 13.076, 14.033 16.502, 14.033C16.507, 14.033 16.488, 14.033 16.502, 14.033C19.928, 14.033 20.764, 15.586 20.764, 18.037C20.764, 19.62 20.059, 21.884 18.888, 23.284C18.843, 23.751 19.014, 24.079 19.62, 24.307C23.77, 25.773 24.529, 25.809 24.956, 27.963C25.082, 28.828 25.103, 29.19 24.762, 30.15zM11.957, 23.766C12.282, 23.653 12.634, 23.531 13.015, 23.397C11.845, 21.709 11.308, 19.501 11.308, 18.038C11.308, 17.011 11.418, 15.521 12.374, 14.451C12.737, 14.044 13.192, 13.727 13.743, 13.497C13.755, 13.34 13.763, 13.185 13.763, 13.038C13.763, 10.587 12.927, 9.034 9.501, 9.034C6.075, 9.034 5.308, 10.587 5.308, 13.038C5.308, 14.621 6.011, 16.881 7.181, 18.28C7.226, 18.747 7.054, 19.077 6.448, 19.305C2.298, 20.771 1.538, 20.808 1.111, 22.962C0.983, 23.828 0.961, 24.191 1.303, 25.15C1.609, 26.009 5.11, 26.095 7.727, 26.095C8.413, 24.996 9.632, 24.573 11.957, 23.766z" fill="#039C23" class="Green" fill-rule="evenodd" />
      </g>
    </g>
  </g>
  <g id="Layer_1" transform="translate(-0.9554, -0.9136)">
    <g transform="matrix(0.9298, 0, 0, 0.9298, 0, 0)">
      <g id="icon">
        <g>
          <path d="M26.566, 16.168L26.408, 16.21C26.186, 16.269 25.961, 16.333 25.744, 16.396C25.335, 16.514 24.796, 16.661 24.248, 16.751C23.622, 16.854 22.91, 16.902 22.006, 16.902L21.992, 16.902C22.038, 17.257 22.063, 17.635 22.063, 18.037C22.063, 18.283 22.047, 18.55 22.017, 18.831C23.02, 18.822 24.097, 18.691 25.307, 18.431C26.825, 18.104 26.884, 17.862 26.596, 16.329L26.566, 16.168z" fill="#797979" />
        </g>
      </g>
    </g>
  </g>
  <g id="Layer_1" transform="translate(-0.9554, -0.9136)">
    <g transform="matrix(0.9298, 0, 0, 0.9298, 0, 0)">
      <g id="icon">
        <g>
          <path d="M28.188, 2.925C26.583, 1.616 24.641, 0.98 22.251, 0.98C21.998, 0.98 21.734, 0.987 21.468, 1.001C19.237, 1.119 17.332, 1.921 15.804, 3.384C14.299, 4.825 13.422, 6.553 13.152, 8.624C14.39, 9.446 15.021, 10.842 15.061, 12.832C15.27, 12.801 15.488, 12.777 15.714, 12.761C15.469, 12.087 15.316, 11.345 15.267, 10.543C15.134, 8.356 15.821, 6.344 17.201, 4.878C18.482, 3.517 20.282, 2.767 22.269, 2.767C22.76, 2.767 23.275, 2.814 23.8, 2.907C25.525, 3.213 26.969, 4.193 27.866, 5.667C28.791, 7.186 29.003, 9.083 28.448, 10.87C28.227, 11.582 27.795, 12.284 27.294, 12.748C27.074, 12.952 26.828, 13.059 26.584, 13.059C26.136, 13.059 25.812, 12.713 25.761, 12.179C25.668, 11.213 25.725, 10.211 25.78, 9.237C25.793, 9.005 25.806, 8.774 25.818, 8.542C25.853, 7.818 25.917, 7.11 25.985, 6.351C26.015, 6.02 26.045, 5.678 26.072, 5.342L26.086, 5.168L24.112, 5.168L23.913, 5.989L23.786, 5.853C23.252, 5.278 22.533, 4.974 21.707, 4.974C20.796, 4.974 19.832, 5.37 19.191, 6.006C17.484, 7.703 16.964, 9.873 17.644, 12.457C17.676, 12.579 17.714, 12.694 17.755, 12.807C19.429, 13.018 20.607, 13.682 21.303, 14.813C22.234, 14.673 23.003, 14.116 23.544, 13.18L23.67, 12.962L23.728, 13.207C23.914, 13.992 24.397, 14.492 25.165, 14.693C25.537, 14.79 25.908, 14.839 26.269, 14.839C27.068, 14.839 27.823, 14.602 28.513, 14.134C29.902, 13.191 30.699, 11.718 30.882, 9.755C31.149, 6.899 30.242, 4.601 28.188, 2.925zM22.827, 12.09C22.486, 12.672 21.905, 13.034 21.311, 13.034C21.18, 13.034 21.051, 13.016 20.927, 12.98C20.223, 12.774 19.817, 12.283 19.719, 11.52C19.688, 11.278 19.639, 11.042 19.596, 10.831C19.582, 10.761 19.568, 10.695 19.556, 10.632L19.553, 10.616L19.555, 10.6C19.703, 9.414 19.857, 8.188 20.822, 7.304C21.204, 6.954 21.635, 6.769 22.068, 6.769C22.807, 6.769 23.373, 7.294 23.547, 8.139C23.821, 9.478 23.579, 10.807 22.827, 12.09z" fill="#727272" class="Black" />
        </g>
      </g>
    </g>
  </g>
</svg>