<?xml version='1.0' encoding='UTF-8'?>
<svg viewBox="-2 -2.0056 32 31.9981" xmlns="http://www.w3.org/2000/svg" xmlns:xlink="http://www.w3.org/1999/xlink">
  <g id="Layer_1" transform="translate(0, -0.0111)">
    <g transform="matrix(0.875, 0, 0, 0.875, 0, 0)">
      <g id="main">
        <g id="icon">
          <path d="M2, 27L18.49, 27L18.89, 26.75L19.54, 26.45L21.23, 25.83L21.88, 25.61L21.57, 25.07L21.3, 24.51L20.9, 23.37L20.66, 22.27L20.58, 21.3L20.61, 20.58L20.71, 19.85L20.94, 19.13L21.31, 18.46L21.56, 18.15L21.86, 17.88L22.22, 17.63L22.64, 17.41L23.13, 17.24L23.68, 17.11L24.3, 17.03L25.01, 17L25.01, 17L26.07, 17.07L26.99, 17.27L27.76, 17.6L28, 17.78L28, 16.5L2, 16.5zz" fill="#FFFFFF" fill-rule="evenodd" />
        </g>
      </g>
    </g>
  </g>
  <g id="Layer_1" transform="translate(0, -0.0111)">
    <g transform="matrix(0.875, 0, 0, 0.875, 0, 0)">
      <g id="main">
        <g id="icon">
          <path d="M1.488, 16.06L1.234, 16.23L1.063, 16.49L1, 16.8L1, 27.2L1.063, 27.51L1.234, 27.77L1.488, 27.94L1.8, 28L17.58, 28L17.61, 27.93L17.94, 27.46L18.37, 27.08L18.49, 27L2, 27L2, 17L6.779, 17L7.305, 16L1.8, 16zM14.34, 17L25.01, 17L25.01, 17L28, 17L28, 17.78L28.39, 18.07L28.88, 18.67L29, 18.94L29, 16.8L28.94, 16.49L28.77, 16.23L28.51, 16.06L28.2, 16L15.34, 16zM28.78, 24.51L28.51, 25.06L28.2, 25.6L28.84, 25.83L29, 25.88L29, 23.88zz" fill="#6D6E71" fill-rule="evenodd" />
        </g>
      </g>
    </g>
  </g>
  <g id="Layer_1" transform="translate(0, -0.0111)">
    <g transform="matrix(0.875, 0, 0, 0.875, 0, 0)">
      <g id="main">
        <g id="icon">
          <path d="M24.09, 0.1033L23.73, 0.375L22.51, 1.577L25.44, 4.483L26.64, 3.285L26.91, 2.921L27, 2.556L26.91, 2.191L26.64, 1.827L25.19, 0.375L24.82, 0.1033L24.46, 0.0127zM9.479, 14.62L12.39, 17.53L24.75, 5.172L21.84, 2.262zM6.038, 20.56L6.015, 20.69L6.075, 20.81L6.202, 20.94L6.322, 21L6.455, 20.98L11.71, 18.21L8.803, 15.3zz" fill="#727272" class="Black" fill-rule="evenodd" />
        </g>
      </g>
    </g>
  </g>
  <g id="Layer_1" transform="translate(0, -0.0111)">
    <g transform="matrix(0.875, 0, 0, 0.875, 0, 0)">
      <g id="main">
        <g id="icon">
          <path d="M0, 18L3, 18L3, 15L0, 15zM27, 17.27L27.76, 17.6L28.3, 18L30, 18L30, 15L27, 15zM0, 29L3, 29L3, 26L0, 26zM29.9, 26.2L30, 26.24L30, 26L29.33, 26zz" fill="#727272" class="Black" fill-rule="evenodd" />
        </g>
      </g>
    </g>
  </g>
  <g id="Layer_1" transform="translate(0, -0.0111)">
    <g transform="matrix(0.875, 0, 0, 0.875, 0, 0)">
      <g id="main">
        <g id="icon">
          <path d="M20.08, 19.85L20.02, 19.86L19.37, 19.92L19.33, 19.93L18.69, 20.06L18.63, 20.07L17.4, 20.47L17.35, 20.49L16.16, 21.03L16.13, 21.05L14.98, 21.66L14.97, 21.66L13.85, 22.28L12.76, 22.83L11.7, 23.26L11.19, 23.41L10.68, 23.5L10.17, 23.54L9.668, 23.51L9.156, 23.42L8.636, 23.24L8.098, 22.98L7.543, 22.62L6.965, 22.15L6.351, 21.54L6.046, 21.4L5.72, 21.49L5.521, 21.76L5.539, 22.09L5.649, 22.26L6.279, 22.88L6.314, 22.91L6.931, 23.41L6.975, 23.44L7.58, 23.84L7.634, 23.87L8.228, 24.16L8.289, 24.18L8.874, 24.38L8.94, 24.39L9.516, 24.5L9.583, 24.51L10.15, 24.54L10.21, 24.54L10.78, 24.5L10.83, 24.49L11.39, 24.38L11.44, 24.37L12, 24.22L12.05, 24.2L13.16, 23.75L13.2, 23.73L14.31, 23.17L14.33, 23.16L15.45, 22.54L15.45, 22.54L15.45, 22.54L16.59, 21.94L17.74, 21.42L18.91, 21.03L19.5, 20.92L20.1, 20.85L20.6, 20.85L20.61, 20.58L20.71, 19.85zz" fill="#727272" class="Black" />
        </g>
      </g>
    </g>
  </g>
  <g id="Layer_1" transform="translate(0, -0.0111)">
    <g transform="matrix(0.875, 0, 0, 0.875, 0, 0)">
      <g id="main">
        <g id="overlay">
          <path d="M31.9295, 29.4375C31.5803, 27.675 30.9593, 27.6456 27.5632, 26.4461C27.0673, 26.2598 26.9273, 25.9918 26.9645, 25.6093C27.9224, 24.464 28.4996, 22.6112 28.4996, 21.316C28.4996, 19.3102 27.8153, 18.0396 25.0121, 18.0396C25.0006, 18.0396 25.0159, 18.0396 25.0121, 18.0396C22.2089, 18.0396 21.581, 19.3101 21.581, 21.316C21.581, 22.6112 22.1559, 24.4604 23.1139, 25.6057C23.151, 25.9882 23.0099, 26.258 22.514, 26.4443C19.1179, 27.6438 18.4963, 27.6741 18.1471, 29.4366C18.0421, 30.145 18.0246, 30.442 18.3041, 31.227C18.6187, 32.1106 23.0655, 31.995 25.0121, 31.995C25.02, 31.995 24.9988, 31.995 25.0121, 31.995C26.9586, 31.995 31.4576, 32.111 31.7722, 31.2274C32.0517, 30.4424 32.0345, 30.1459 31.9295, 29.4375z" fill="#1177D7" class="Blue" fill-rule="evenodd" />
        </g>
      </g>
    </g>
  </g>
</svg>