<?xml version='1.0' encoding='UTF-8'?>
<svg viewBox="-2 -4.1875 32 32" xmlns="http://www.w3.org/2000/svg" xmlns:xlink="http://www.w3.org/1999/xlink">
  <g id="Layer_1" transform="translate(0, -4.375)">
    <g transform="matrix(0.875, 0, 0, 0.875, 0, 0)">
      <g id="main">
        <g id="icon">
          <path d="M0.9885, 5.563L0.7342, 5.734L0.5629, 5.988L0.5, 6.3L0.5, 24.7L0.5629, 25.01L0.7342, 25.27L0.9885, 25.44L1.3, 25.5L16, 25.5L16, 23L16, 19L16.04, 18.6L16.16, 18.22L16.34, 17.88L16.59, 17.59L16.88, 17.34L17.22, 17.16L17.6, 17.04L18, 17L29.5, 17L29.5, 6.3L29.44, 5.988L29.27, 5.734L29.01, 5.563L28.7, 5.5L1.3, 5.5zz" fill="#FFFFFF" fill-rule="evenodd" />
        </g>
      </g>
    </g>
  </g>
  <g id="Layer_1" transform="translate(0, -4.375)">
    <g transform="matrix(0.875, 0, 0, 0.875, 0, 0)">
      <g id="main">
        <g id="icon">
          <path d="M1.201, 5.01L0.8896, 5.073L0.7918, 5.092L0.709, 5.148L0.4547, 5.32L0.374, 5.374L0.3197, 5.455L0.1482, 5.709L0.0924, 5.792L0.0727, 5.89L0.01, 6.201L0, 6.25L0, 6.3L0, 24.7L0, 24.75L0.01, 24.8L0.0727, 25.11L0.0924, 25.21L0.1482, 25.29L0.3197, 25.55L0.374, 25.63L0.4547, 25.68L0.709, 25.85L0.7918, 25.91L0.8896, 25.93L1.201, 25.99L1.25, 26L1.3, 26L16, 26L16, 25L1.35, 25L1.185, 24.97L1.094, 24.91L1.033, 24.81L1, 24.65L1, 6.35L1.033, 6.185L1.094, 6.094L1.185, 6.033L1.35, 6L28.65, 6L28.81, 6.033L28.91, 6.094L28.97, 6.185L29, 6.35L29, 17L30, 17L30, 6.3L30, 6.25L29.99, 6.201L29.93, 5.89L29.91, 5.792L29.85, 5.709L29.68, 5.455L29.63, 5.374L29.55, 5.32L29.29, 5.148L29.21, 5.092L29.11, 5.073L28.8, 5.01L28.75, 5L28.7, 5L1.3, 5L1.25, 5zz" fill="#727272" class="Black" />
        </g>
      </g>
    </g>
  </g>
  <g id="Layer_1" transform="translate(0, -4.375)">
    <g transform="matrix(0.875, 0, 0, 0.875, 0, 0)">
      <g id="main">
        <g id="icon">
          <path d="M23, 13L27, 13L27, 8L23, 8zz" fill="#1177D7" class="Blue" fill-rule="evenodd" />
        </g>
      </g>
    </g>
  </g>
  <g id="Layer_1" transform="translate(0, -4.375)">
    <g transform="matrix(0.875, 0, 0, 0.875, 0, 0)">
      <g id="main">
        <g id="icon">
          <path d="M5.183, 17.11L5.01, 17.4L5.059, 17.73L5.308, 17.96L5.5, 18L16.28, 18L16.34, 17.88L16.59, 17.59L16.88, 17.34L17.22, 17.16L17.6, 17.04L18, 17L5.5, 17zz" fill="#727272" class="Black" />
        </g>
      </g>
    </g>
  </g>
  <g id="Layer_1" transform="translate(0, -4.375)">
    <g transform="matrix(0.875, 0, 0, 0.875, 0, 0)">
      <g id="main">
        <g id="icon">
          <path d="M5.183, 20.11L5.01, 20.4L5.059, 20.73L5.308, 20.96L5.5, 21L16, 21L16, 20L5.5, 20zz" fill="#6D6E71" />
        </g>
      </g>
    </g>
  </g>
  <g id="Layer_1" transform="translate(0, -4.375)">
    <g transform="matrix(0.875, 0, 0, 0.875, 0, 0)">
      <g id="main">
        <g id="overlay">
          <path d="M31, 31.5L18, 31.5C17.724, 31.5 17.5, 31.276 17.5, 31L17.5, 20.5L31.5, 20.5L31.5, 31C31.5, 31.276 31.276, 31.5 31, 31.5z" fill="#FFFFFF" />
        </g>
      </g>
    </g>
  </g>
  <g id="Layer_1" transform="translate(0, -4.375)">
    <g transform="matrix(0.875, 0, 0, 0.875, 0, 0)">
      <g id="main">
        <g id="overlay">
          <path d="M31, 32L18, 32C17.449, 32 17, 31.551 17, 31L17, 20L32, 20L32, 31C32, 31.551 31.551, 32 31, 32zM18, 21L18, 31L31.001, 31L31, 21L18, 21z" fill="#727272" class="Black" />
        </g>
      </g>
    </g>
  </g>
  <g id="Layer_1" transform="translate(0, -4.375)">
    <g transform="matrix(0.875, 0, 0, 0.875, 0, 0)">
      <g id="main">
        <g id="overlay">
          <path d="M32, 22L17, 22L17, 19C17, 18.448 17.448, 18 18, 18L31, 18C31.552, 18 32, 18.448 32, 19L32, 22z" fill="#1177D7" class="Blue" />
        </g>
      </g>
    </g>
  </g>
</svg>