<?xml version='1.0' encoding='UTF-8'?>
<svg viewBox="-2 -4.1864 32 32.0014" xmlns="http://www.w3.org/2000/svg" xmlns:xlink="http://www.w3.org/1999/xlink">
  <g id="Layer_1" transform="translate(0, -4.375)">
    <g transform="matrix(0.875, 0, 0, 0.875, 0, 0)">
      <g id="main">
        <g id="icon">
          <path d="M0.9885, 5.563L0.7342, 5.734L0.5629, 5.988L0.5, 6.3L0.5, 24.7L0.5629, 25.01L0.7342, 25.27L0.9885, 25.44L1.3, 25.5L16.07, 25.5L16.03, 25.35L16, 25.07L16, 23.88L16.03, 23.6L16.1, 23.33L16.37, 22.86L16.79, 22.51L17.04, 22.39L17.31, 22.32L18.41, 22.12L18.55, 21.78L17.93, 20.89L17.78, 20.64L17.69, 20.38L17.64, 19.84L17.78, 19.31L17.92, 19.07L18.1, 18.86L18.94, 18.02L19.18, 17.82L19.46, 17.67L19.75, 17.58L20.06, 17.55L20.54, 17.63L20.98, 17.84L21.95, 18.53L22.17, 18.44L22.37, 17.31L22.44, 17.04L22.56, 16.79L22.91, 16.37L23.38, 16.1L23.65, 16.03L23.93, 16L25.12, 16L25.4, 16.03L25.67, 16.1L26.14, 16.37L26.49, 16.79L26.61, 17.04L26.68, 17.31L26.89, 18.51L27.18, 18.63L28.11, 17.98L28.54, 17.76L29.02, 17.69L29.34, 17.72L29.5, 17.77L29.5, 6.3L29.44, 5.988L29.27, 5.734L29.01, 5.563L28.7, 5.5L1.3, 5.5zz" fill="#FFFFFF" fill-rule="evenodd" />
        </g>
      </g>
    </g>
  </g>
  <g id="Layer_1" transform="translate(0, -4.375)">
    <g transform="matrix(0.875, 0, 0, 0.875, 0, 0)">
      <g id="main">
        <g id="icon">
          <path d="M1.201, 5.01L0.8896, 5.073L0.7918, 5.092L0.709, 5.148L0.4547, 5.32L0.374, 5.374L0.3197, 5.455L0.1482, 5.709L0.0924, 5.792L0.0727, 5.89L0.01, 6.201L0, 6.25L0, 6.3L0, 24.7L0, 24.75L0.01, 24.8L0.0727, 25.11L0.0924, 25.21L0.1482, 25.29L0.3197, 25.55L0.374, 25.63L0.4547, 25.68L0.709, 25.85L0.7918, 25.91L0.8896, 25.93L1.201, 25.99L1.25, 26L1.3, 26L16.32, 26L16.1, 25.62L16.03, 25.35L16, 25.07L16, 25L1.35, 25L1.185, 24.97L1.094, 24.91L1.033, 24.81L1, 24.65L1, 6.35L1.033, 6.185L1.094, 6.094L1.185, 6.033L1.35, 6L28.65, 6L28.81, 6.033L28.91, 6.094L28.97, 6.185L29, 6.35L29, 17.69L29.02, 17.69L29.34, 17.72L29.63, 17.81L29.9, 17.95L30, 18.03L30, 6.3L30, 6.25L29.99, 6.201L29.93, 5.89L29.91, 5.792L29.85, 5.709L29.68, 5.455L29.63, 5.374L29.55, 5.32L29.29, 5.148L29.21, 5.092L29.11, 5.073L28.8, 5.01L28.75, 5L28.7, 5L1.3, 5L1.25, 5zz" fill="#727272" class="Black" />
        </g>
      </g>
    </g>
  </g>
  <g id="Layer_1" transform="translate(0, -4.375)">
    <g transform="matrix(0.875, 0, 0, 0.875, 0, 0)">
      <g id="main">
        <g id="icon">
          <path d="M23, 13L27, 13L27, 8L23, 8zz" fill="#1177D7" class="Blue" fill-rule="evenodd" />
        </g>
      </g>
    </g>
  </g>
  <g id="Layer_1" transform="translate(0, -4.375)">
    <g transform="matrix(0.875, 0, 0, 0.875, 0, 0)">
      <g id="main">
        <g id="icon">
          <path d="M5.183, 17.11L5.01, 17.4L5.059, 17.73L5.308, 17.96L5.5, 18L18.96, 18L19.18, 17.82L19.46, 17.67L19.75, 17.58L20.06, 17.55L20.54, 17.63L20.87, 17.79L20.99, 17.6L20.94, 17.27L20.69, 17.04L20.5, 17L5.5, 17zz" fill="#727272" class="Black" />
        </g>
      </g>
    </g>
  </g>
  <g id="Layer_1" transform="translate(0, -4.375)">
    <g transform="matrix(0.875, 0, 0, 0.875, 0, 0)">
      <g id="main">
        <g id="icon">
          <path d="M5.183, 20.11L5.01, 20.4L5.059, 20.73L5.308, 20.96L5.5, 21L18, 21L17.93, 20.89L17.78, 20.64L17.69, 20.38L17.66, 20L5.5, 20zz" fill="#727272" class="Black" />
        </g>
      </g>
    </g>
  </g>
  <g id="Layer_1" transform="translate(0, -4.375)">
    <g transform="matrix(0.875, 0, 0, 0.875, 0, 0)">
      <g id="main">
        <g id="overlay">
          <path d="M32, 25.1684L32, 23.9822C32, 23.6973 31.7951, 23.4538 31.5145, 23.4049L29.7872, 23.1044C29.6762, 22.7 29.516, 22.3028 29.307, 21.9195L30.3415, 20.4493C30.5054, 20.2163 30.478, 19.8992 30.2766, 19.6978L29.4377, 18.8589C29.2363, 18.6575 28.9192, 18.6301 28.6862, 18.794L27.258, 19.7989C26.8629, 19.5667 26.4419, 19.3854 26.0051, 19.2575L25.6968, 17.4855C25.648, 17.2049 25.4044, 17 25.1195, 17L23.9331, 17C23.6482, 17 23.4047, 17.2049 23.3558, 17.4855L23.0555, 19.2117C22.6459, 19.3187 22.243, 19.4746 21.8542, 19.6816L20.4002, 18.6586C20.1672, 18.4947 19.8501, 18.5221 19.6487, 18.7235L18.8098, 19.5624C18.6084, 19.7638 18.581, 20.0809 18.7449, 20.3139L19.7187, 21.6979C19.4702, 22.1087 19.3027, 22.549 19.1685, 23.0062L17.4844, 23.3025C17.2043, 23.3518 17, 23.5951 17, 23.8796L17, 25.0679C17, 25.3523 17.2043, 25.5957 17.4844, 25.645L19.1144, 25.9319C19.2255, 26.3667 19.3794, 26.7941 19.603, 27.2053L18.6169, 28.6C18.4523, 28.8328 18.4792, 29.1503 18.6806, 29.3522L19.5162, 30.1895C19.7176, 30.3913 20.0351, 30.4189 20.2683, 30.2547L21.6086, 29.3109C22.0343, 29.5654 22.4901, 29.7361 22.9643, 29.8684L23.2536, 31.5157C23.3028, 31.7959 23.5462, 32.0003 23.8307, 32.0003L25.0189, 32.0003C25.3033, 32.0003 25.5467, 31.796 25.596, 31.5159L25.8831, 29.8848C26.3126, 29.7694 26.7345, 29.6117 27.1401, 29.3859L28.551, 30.3834C28.7838, 30.548 29.1013, 30.5211 29.3032, 30.3197L30.1405, 29.4841C30.3423, 29.2827 30.3699, 28.9652 30.2057, 28.732L29.2308, 27.3476C29.469, 26.9376 29.6533, 26.5011 29.7795, 26.0473L31.5146, 25.746C31.795, 25.697 32, 25.4533 32, 25.1684zM25.7239, 26.7708C24.5057, 27.4741 22.948, 27.0567 22.2447, 25.8386C21.5414, 24.6204 21.9588, 23.0628 23.1769, 22.3594C24.3951, 21.6561 25.9527, 22.0735 26.6561, 23.2916C27.3594, 24.5098 26.942, 26.0675 25.7239, 26.7708z" fill="#727272" class="Black" fill-rule="evenodd" />
        </g>
      </g>
    </g>
  </g>
</svg>