<?xml version='1.0' encoding='UTF-8'?>
<svg viewBox="-2 -2.0175 32 32" xmlns="http://www.w3.org/2000/svg" xmlns:xlink="http://www.w3.org/1999/xlink">
  <g id="Layer_1" transform="translate(-0.9163, -1.012)">
    <g transform="matrix(0.935, 0, 0, 0.935, 0, 0)">
      <g id="icon">
        <g>
          <path d="M26.566, 16.268L26.408, 16.31C26.186, 16.369 25.961, 16.433 25.744, 16.496C25.335, 16.614 24.796, 16.761 24.248, 16.851C23.622, 16.954 22.91, 17.002 22.006, 17.002L21.981, 17.002C20.428, 17.002 19.072, 16.594 17.992, 15.854C17.918, 16.511 17.777, 17.231 17.564, 17.968C18.872, 18.616 20.298, 18.932 21.902, 18.932C22.937, 18.932 24.05, 18.8 25.307, 18.53C26.825, 18.203 26.884, 17.961 26.596, 16.428L26.566, 16.268z" fill="#797979" />
        </g>
      </g>
    </g>
  </g>
  <g id="Layer_1" transform="translate(-0.9163, -1.012)">
    <g transform="matrix(0.935, 0, 0, 0.935, 0, 0)">
      <g id="icon">
        <g>
          <path d="M28.188, 3.025C26.583, 1.716 24.641, 1.08 22.251, 1.08C21.998, 1.08 21.734, 1.087 21.468, 1.101C19.237, 1.219 17.332, 2.021 15.804, 3.484C14.31, 4.914 13.435, 6.627 13.158, 8.678C13.976, 8.795 14.684, 9.006 15.291, 9.31C15.451, 7.647 16.107, 6.141 17.201, 4.979C18.482, 3.618 20.282, 2.868 22.269, 2.868C22.76, 2.868 23.275, 2.915 23.8, 3.008C25.525, 3.314 26.969, 4.294 27.866, 5.768C28.791, 7.287 29.003, 9.184 28.448, 10.971C28.227, 11.683 27.795, 12.385 27.294, 12.849C27.074, 13.053 26.828, 13.16 26.584, 13.16C26.136, 13.16 25.812, 12.814 25.761, 12.28C25.668, 11.314 25.725, 10.312 25.78, 9.338C25.793, 9.106 25.806, 8.875 25.818, 8.643C25.853, 7.919 25.917, 7.211 25.985, 6.452C26.015, 6.121 26.045, 5.779 26.072, 5.443L26.086, 5.269L24.112, 5.269L23.913, 6.09L23.786, 5.954C23.252, 5.379 22.533, 5.075 21.707, 5.075C20.796, 5.075 19.832, 5.471 19.191, 6.107C17.73, 7.559 17.139, 9.359 17.426, 11.468C17.726, 12.094 17.886, 12.756 17.969, 13.383C18.46, 14.283 19.306, 14.814 20.46, 14.931C20.584, 14.944 20.707, 14.95 20.826, 14.95C21.973, 14.95 22.913, 14.373 23.544, 13.281L23.67, 13.063L23.728, 13.308C23.914, 14.093 24.397, 14.593 25.165, 14.794C25.537, 14.891 25.908, 14.94 26.269, 14.94C27.068, 14.94 27.823, 14.703 28.513, 14.235C29.902, 13.292 30.699, 11.819 30.882, 9.856C31.149, 6.999 30.242, 4.701 28.188, 3.025zM22.827, 12.19C22.486, 12.772 21.905, 13.134 21.311, 13.134C21.18, 13.134 21.051, 13.116 20.927, 13.08C20.223, 12.874 19.817, 12.383 19.719, 11.62C19.688, 11.378 19.639, 11.142 19.596, 10.931C19.582, 10.861 19.568, 10.795 19.556, 10.732L19.553, 10.716L19.555, 10.7C19.703, 9.514 19.857, 8.288 20.822, 7.404C21.204, 7.054 21.635, 6.869 22.068, 6.869C22.807, 6.869 23.373, 7.394 23.547, 8.239C23.821, 9.578 23.579, 10.907 22.827, 12.19z" fill="#727272" class="Black" />
        </g>
      </g>
    </g>
  </g>
  <g id="Layer_1" transform="translate(-0.9163, -1.012)">
    <g transform="matrix(0.935, 0, 0, 0.935, 0, 0)">
      <g id="icon">
        <path d="M21.934, 27.117C21.406, 24.451 20.466, 24.406 15.329, 22.592C14.579, 22.31 14.367, 21.905 14.423, 21.326C15.872, 19.594 16.745, 16.791 16.745, 14.832C16.745, 11.798 15.71, 9.876 11.469, 9.876C11.452, 9.876 11.475, 9.876 11.469, 9.876C7.229, 9.876 6.279, 11.798 6.279, 14.832C6.279, 16.791 7.149, 19.588 8.598, 21.321C8.654, 21.9 8.441, 22.308 7.691, 22.59C2.554, 24.405 1.613, 24.45 1.085, 27.116C0.926, 28.188 0.9, 28.637 1.323, 29.824C1.799, 31.161 8.526, 30.986 11.47, 30.986C11.482, 30.986 11.45, 30.986 11.47, 30.986C14.415, 30.986 21.22, 31.161 21.696, 29.825C22.118, 28.638 22.092, 28.189 21.934, 27.117z" fill="#1177D7" class="Blue" fill-rule="evenodd" />
      </g>
    </g>
  </g>
</svg>