<?xml version='1.0' encoding='UTF-8'?>
<svg viewBox="-2.875 -2 32 32" xmlns="http://www.w3.org/2000/svg" xmlns:xlink="http://www.w3.org/1999/xlink">
  <g id="Layer_1" transform="translate(-1.75, 0)">
    <g transform="matrix(0.875, 0, 0, 0.875, 0, 0)">
      <g id="main">
        <g id="icon">
          <path d="M2.991, 0.5506L2.712, 0.7098L2.551, 0.9891L2.5, 1.4L2.5, 28.6L2.551, 29.01L2.712, 29.29L2.991, 29.45L3.4, 29.5L16, 29.5L16, 23L16, 19L16.04, 18.6L16.16, 18.22L16.34, 17.88L16.59, 17.59L16.88, 17.34L17.22, 17.16L17.6, 17.04L18, 17L27.5, 17L27.5, 6.8L27.47, 6.489L27.39, 6.226L27.27, 6L27.1, 5.8L22.2, 0.8998L21.94, 0.6896L21.71, 0.5686L21.3, 0.5L3.4, 0.5zz" fill="#FFFFFF" fill-rule="evenodd" />
        </g>
      </g>
    </g>
  </g>
  <g id="Layer_1" transform="translate(-1.75, 0)">
    <g transform="matrix(0.875, 0, 0, 0.875, 0, 0)">
      <g id="main">
        <g id="icon">
          <path d="M3.077, 0.0227L2.795, 0.09L2.554, 0.2016L2.356, 0.3564L2.202, 0.5545L2.09, 0.7949L2.023, 1.077L2, 1.4L2, 28.6L2.023, 28.92L2.09, 29.21L2.202, 29.45L2.356, 29.64L2.554, 29.8L2.795, 29.91L3.077, 29.98L3.4, 30L16, 30L16, 29L3.4, 29L3.185, 28.99L3.064, 28.94L3.012, 28.82L3, 28.6L3, 1.4L3.012, 1.185L3.064, 1.064L3.185, 1.012L3.4, 1L21, 1L21, 5.7L21.03, 5.962L21.1, 6.205L21.38, 6.619L21.79, 6.898L22.04, 6.974L22.3, 7L27, 7L27, 17L28, 17L28, 6.8L27.97, 6.409L27.87, 6.056L27.7, 5.738L27.45, 5.446L22.55, 0.5463L22.27, 0.3059L21.97, 0.1354L21.64, 0.0336L21.3, 0L3.4, 0zM26.59, 6L22.3, 6L22.09, 5.912L22, 5.7L22, 1.407zz" fill="#727272" class="Black" />
        </g>
      </g>
    </g>
  </g>
  <g id="Layer_1" transform="translate(-1.75, 0)">
    <g transform="matrix(0.875, 0, 0, 0.875, 0, 0)">
      <g id="main">
        <g id="icon">
          <path d="M13.29, 10.04L13.11, 10.14L12.98, 10.29L12.9, 10.48L12.54, 12.5L10.99, 12.5L10.74, 12.54L10.52, 12.66L10.35, 12.84L10.25, 13.07L10, 14L12.27, 14L11.72, 17L10.19, 17L9.942, 17.04L9.723, 17.16L9.552, 17.34L9.447, 17.57L9.2, 18.5L11.45, 18.5L11, 21L12.31, 21L12.51, 20.96L12.69, 20.86L12.82, 20.71L12.9, 20.52L13.26, 18.5L15.85, 18.5L15.4, 21L16, 21L16, 19L16.04, 18.6L16.16, 18.22L16.34, 17.88L16.59, 17.59L16.88, 17.34L17.22, 17.16L17.6, 17.04L18, 17L17.93, 17L18.48, 14L20.01, 14L20.26, 13.96L20.48, 13.84L20.65, 13.66L20.75, 13.43L21, 12.5L18.75, 12.5L19.2, 10L17.89, 10L17.69, 10.04L17.51, 10.14L17.38, 10.29L17.3, 10.48L16.94, 12.5L14.35, 12.5L14.8, 10L13.49, 10zM16.67, 14L16.12, 17L13.53, 17L14.08, 14zz" fill="#1177D7" class="Blue" />
        </g>
      </g>
    </g>
  </g>
  <g id="Layer_1" transform="translate(-1.75, 0)">
    <g transform="matrix(0.875, 0, 0, 0.875, 0, 0)">
      <g id="main">
        <g id="overlay">
          <path d="M31, 31.5L18, 31.5C17.724, 31.5 17.5, 31.276 17.5, 31L17.5, 20.5L31.5, 20.5L31.5, 31C31.5, 31.276 31.276, 31.5 31, 31.5z" fill="#FFFFFF" />
        </g>
      </g>
    </g>
  </g>
  <g id="Layer_1" transform="translate(-1.75, 0)">
    <g transform="matrix(0.875, 0, 0, 0.875, 0, 0)">
      <g id="main">
        <g id="overlay">
          <path d="M31, 32L18, 32C17.449, 32 17, 31.551 17, 31L17, 20L32, 20L32, 31C32, 31.551 31.551, 32 31, 32zM18, 21L18, 31L31.001, 31L31, 21L18, 21z" fill="#727272" class="Black" />
        </g>
      </g>
    </g>
  </g>
  <g id="Layer_1" transform="translate(-1.75, 0)">
    <g transform="matrix(0.875, 0, 0, 0.875, 0, 0)">
      <g id="main">
        <g id="overlay">
          <path d="M32, 22L17, 22L17, 19C17, 18.448 17.448, 18 18, 18L31, 18C31.552, 18 32, 18.448 32, 19L32, 22z" fill="#1177D7" class="Blue" />
        </g>
      </g>
    </g>
  </g>
</svg>