<?xml version='1.0' encoding='UTF-8'?>
<svg viewBox="-2.0135 -2 32.001 32" xmlns="http://www.w3.org/2000/svg" xmlns:xlink="http://www.w3.org/1999/xlink">
  <g id="Layer_1" transform="translate(-0.0269, 0)">
    <g transform="matrix(0.875, 0, 0, 0.875, 0, 0)">
      <g id="main">
        <g id="icon">
          <path d="M7.337, 8.105L6.401, 8.315L5.669, 8.655L5.373, 8.871L5.12, 9.117L4.731, 9.694L4.481, 10.38L4.348, 11.16L4.308, 12.04L4.34, 12.66L4.436, 13.33L4.592, 14.02L4.806, 14.73L5.074, 15.42L5.395, 16.09L5.765, 16.72L6.181, 17.28L6.171, 17.61L6.059, 17.88L5.825, 18.11L5.448, 18.31L2.923, 19.19L2.048, 19.54L1.383, 19.88L0.8932, 20.24L0.5414, 20.69L0.2928, 21.25L0.1109, 21.96L0.0389, 22.53L0.0307, 23.02L0.1107, 23.53L0.3029, 24.15L0.3969, 24.3L0.5596, 24.44L1.068, 24.66L1.78, 24.83L2.648, 24.94L4.662, 25.07L6.727, 25.09L7.01, 24.71L7.35, 24.38L7.754, 24.09L8.227, 23.82L9.412, 23.32L10.96, 22.77L12.02, 22.4L11.61, 21.74L11.25, 21.05L10.96, 20.35L10.72, 19.63L10.41, 18.26L10.31, 17.04L10.34, 16.19L10.48, 15.26L10.62, 14.79L10.8, 14.32L11.05, 13.87L11.37, 13.45L11.99, 12.91L12.74, 12.5L12.76, 12.04L12.72, 11.16L12.58, 10.38L12.32, 9.694L11.92, 9.117L11.66, 8.871L11.36, 8.655L10.61, 8.315L9.668, 8.105L8.501, 8.034zM14.34, 13.1L13.4, 13.31L12.67, 13.65L12.37, 13.87L12.12, 14.12L11.73, 14.69L11.48, 15.38L11.35, 16.16L11.31, 17.04L11.34, 17.66L11.44, 18.33L11.59, 19.02L11.81, 19.73L12.07, 20.42L12.4, 21.09L12.77, 21.72L13.18, 22.28L13.17, 22.6L13.06, 22.88L12.83, 23.11L12.45, 23.3L9.924, 24.19L9.049, 24.54L8.384, 24.87L7.894, 25.24L7.542, 25.69L7.294, 26.25L7.112, 26.96L7.04, 27.53L7.032, 28.02L7.112, 28.52L7.304, 29.15L7.433, 29.34L7.669, 29.5L8.412, 29.75L9.439, 29.92L10.65, 30.02L13.27, 30.09L15.5, 30.09L16, 30.09L16, 23L16, 19L16.04, 18.6L16.16, 18.22L16.34, 17.88L16.59, 17.59L16.88, 17.34L17.22, 17.16L17.6, 17.04L18, 17L19.76, 17L19.72, 16.16L19.58, 15.38L19.32, 14.69L18.92, 14.12L18.66, 13.87L18.36, 13.65L17.61, 13.31L16.67, 13.1L15.5, 13.03zz" fill="#039C23" class="Green" fill-rule="evenodd" />
        </g>
      </g>
    </g>
  </g>
  <g id="Layer_1" transform="translate(-0.0269, 0)">
    <g transform="matrix(0.875, 0, 0, 0.875, 0, 0)">
      <g id="main">
        <g id="icon">
          <g>
            <path d="M25.41, 15.21L24.74, 15.4L24.05, 15.58L23.25, 15.75L22.23, 15.87L21.01, 15.9L20.99, 15.9L21.06, 17L25.48, 17L25.63, 16.83L25.72, 16.58L25.73, 16.26L25.6, 15.33L25.57, 15.17zz" fill="#797979" />
          </g>
        </g>
      </g>
    </g>
  </g>
  <g id="Layer_1" transform="translate(-0.0269, 0)">
    <g transform="matrix(0.875, 0, 0, 0.875, 0, 0)">
      <g id="main">
        <g id="icon">
          <g>
            <path d="M20.47, 0.001L19.65, 0.0773L18.86, 0.2174L18.1, 0.4211L17.37, 0.6881L16.68, 1.018L16.02, 1.411L15.39, 1.866L14.8, 2.384L14.27, 2.938L13.79, 3.52L13.37, 4.129L13.01, 4.768L12.71, 5.436L12.47, 6.134L12.28, 6.863L12.15, 7.624L12.59, 7.959L12.97, 8.348L13.29, 8.792L13.56, 9.29L13.77, 9.843L13.92, 10.45L14.02, 11.11L14.06, 11.83L14.71, 11.76L14.42, 10.7L14.27, 9.543L14.26, 8.732L14.32, 7.941L14.46, 7.176L14.67, 6.44L14.95, 5.738L15.3, 5.074L15.72, 4.453L16.2, 3.878L16.71, 3.396L17.25, 2.974L17.84, 2.612L18.47, 2.312L19.13, 2.076L19.82, 1.905L20.53, 1.802L21.27, 1.767L22.02, 1.802L22.8, 1.907L23.43, 2.053L24.04, 2.26L24.61, 2.526L25.14, 2.849L25.64, 3.227L26.09, 3.657L26.5, 4.138L26.87, 4.667L27.18, 5.253L27.43, 5.87L27.6, 6.51L27.71, 7.168L27.75, 7.839L27.72, 8.517L27.62, 9.196L27.45, 9.87L27.24, 10.4L26.98, 10.9L26.65, 11.36L26.29, 11.75L25.95, 11.98L25.58, 12.06L25.27, 12L25.02, 11.82L24.85, 11.54L24.76, 11.18L24.72, 9.711L24.78, 8.237L24.82, 7.542L24.98, 5.351L25.07, 4.342L25.09, 4.168L23.11, 4.168L22.91, 4.989L22.79, 4.853L22.35, 4.473L21.86, 4.198L21.31, 4.03L20.71, 3.974L20.02, 4.046L19.35, 4.252L18.73, 4.576L18.19, 5.006L17.61, 5.664L17.13, 6.367L16.77, 7.112L16.52, 7.899L16.38, 8.728L16.36, 9.597L16.45, 10.51L16.64, 11.46L16.76, 11.81L17.36, 11.91L17.92, 12.05L18.43, 12.24L18.9, 12.47L19.32, 12.74L19.69, 13.05L20.02, 13.41L20.3, 13.81L20.97, 13.63L21.57, 13.29L22.1, 12.81L22.54, 12.18L22.67, 11.96L22.73, 12.21L22.92, 12.74L23.23, 13.17L23.64, 13.49L24.17, 13.69L24.72, 13.8L25.27, 13.84L25.86, 13.79L26.43, 13.66L26.98, 13.44L27.51, 13.13L28.01, 12.76L28.44, 12.33L28.82, 11.85L29.15, 11.33L29.42, 10.75L29.63, 10.13L29.78, 9.468L29.88, 8.755L29.93, 7.71L29.86, 6.719L29.69, 5.781L29.41, 4.897L29.01, 4.07L28.51, 3.298L27.9, 2.583L27.19, 1.925L26.57, 1.466L25.92, 1.069L25.23, 0.7344L24.51, 0.4617L23.76, 0.2502L22.96, 0.0998L22.13, 0.01L21.83, 0L20.5, 0zM21.34, 5.793L21.59, 5.864L22.02, 6.137L22.35, 6.568L22.55, 7.139L22.66, 8.141L22.57, 9.136L22.3, 10.12L21.83, 11.09L21.53, 11.48L21.16, 11.78L20.75, 11.97L20.31, 12.03L19.93, 11.98L19.46, 11.77L19.1, 11.46L18.85, 11.04L18.72, 10.52L18.6, 9.831L18.56, 9.632L18.55, 9.616L18.56, 9.6L18.68, 8.709L18.88, 7.839L19.04, 7.423L19.24, 7.025L19.5, 6.651L19.82, 6.304L20.12, 6.073L20.43, 5.905L20.74, 5.803L21.07, 5.769zz" fill="#727272" class="Black" />
          </g>
        </g>
      </g>
    </g>
  </g>
  <g id="Layer_1" transform="translate(-0.0269, 0)">
    <g transform="matrix(0.875, 0, 0, 0.875, 0, 0)">
      <g id="main">
        <g id="overlay">
          <path d="M31, 31.5L18, 31.5C17.724, 31.5 17.5, 31.276 17.5, 31L17.5, 20.5L31.5, 20.5L31.5, 31C31.5, 31.276 31.276, 31.5 31, 31.5z" fill="#FFFFFF" />
        </g>
      </g>
    </g>
  </g>
  <g id="Layer_1" transform="translate(-0.0269, 0)">
    <g transform="matrix(0.875, 0, 0, 0.875, 0, 0)">
      <g id="main">
        <g id="overlay">
          <path d="M31, 32L18, 32C17.449, 32 17, 31.551 17, 31L17, 20L32, 20L32, 31C32, 31.551 31.551, 32 31, 32zM18, 21L18, 31L31.001, 31L31, 21L18, 21z" fill="#727272" class="Black" />
        </g>
      </g>
    </g>
  </g>
  <g id="Layer_1" transform="translate(-0.0269, 0)">
    <g transform="matrix(0.875, 0, 0, 0.875, 0, 0)">
      <g id="main">
        <g id="overlay">
          <path d="M32, 22L17, 22L17, 19C17, 18.448 17.448, 18 18, 18L31, 18C31.552, 18 32, 18.448 32, 19L32, 22z" fill="#1177D7" class="Blue" />
        </g>
      </g>
    </g>
  </g>
</svg>