<?xml version='1.0' encoding='UTF-8'?>
<svg viewBox="-2 -2 32 32" xmlns="http://www.w3.org/2000/svg" xmlns:xlink="http://www.w3.org/1999/xlink">
  <g id="Layer_1" transform="translate(0, 0)">
    <g transform="matrix(0.875, 0, 0, 0.875, 0, 0)">
      <g id="main">
        <g id="icon">
          <g>
            <path d="M6.991, 0.5506L6.712, 0.7098L6.551, 0.9891L6.5, 1.4L6.5, 7.275L6.981, 7.19L7.299, 7.186L7.796, 7.257L8.396, 7.473L8.711, 7.658L9.023, 7.906L9.512, 8.476L9.875, 9.172L10.11, 9.992L10.22, 10.93L10.23, 11.97L10.16, 13.01L10.02, 14.06L9.812, 15.09L10.54, 16.03L11.15, 16.69L11.97, 17.48L13.2, 17.24L14.64, 17.05L15.59, 17.02L16.46, 17.11L17.05, 17.25L17.22, 17.16L17.6, 17.04L18, 17L29.5, 17L29.5, 8.8L29.47, 8.489L29.39, 8.226L29.27, 8L29.1, 7.8L22.2, 0.8998L21.94, 0.6896L21.71, 0.5686L21.3, 0.5L7.4, 0.5zM9.527, 21.31L8.498, 21.68L7.484, 22.1L7.058, 22.99L6.5, 24.01L6.5, 28.6L6.551, 29.01L6.712, 29.29L6.991, 29.45L7.4, 29.5L16, 29.5L16, 23L16, 22.46L15.87, 22.46L15.3, 22.41L14.68, 22.31L14.02, 22.14L13.33, 21.9L12.63, 21.6L11.93, 21.23L11.25, 20.78zz" fill="#FFFFFF" fill-rule="evenodd" />
          </g>
        </g>
      </g>
    </g>
  </g>
  <g id="Layer_1" transform="translate(0, 0)">
    <g transform="matrix(0.875, 0, 0, 0.875, 0, 0)">
      <g id="main">
        <g id="icon">
          <g>
            <path d="M7.077, 0.0227L6.795, 0.09L6.554, 0.2016L6.356, 0.3564L6.202, 0.5545L6.09, 0.7949L6.023, 1.077L6, 1.4L6, 7.473L6.48, 7.28L6.981, 7.19L7, 7.189L7, 1.4L7.012, 1.185L7.064, 1.064L7.185, 1.012L7.4, 1L21, 1L21, 7.7L21.03, 7.962L21.1, 8.205L21.38, 8.619L21.79, 8.898L22.04, 8.974L22.3, 9L29, 9L29, 17L30, 17L30, 8.8L29.97, 8.409L29.87, 8.056L29.7, 7.738L29.45, 7.446L22.55, 0.5463L22.27, 0.3059L21.97, 0.1354L21.64, 0.0336L21.3, 0L7.4, 0zM28.59, 8L22.3, 8L22.09, 7.912L22, 7.7L22, 1.407zM6.542, 23.94L6, 24.79L6, 28.6L6.023, 28.92L6.09, 29.21L6.202, 29.45L6.356, 29.64L6.554, 29.8L6.795, 29.91L7.077, 29.98L7.4, 30L16, 30L16, 29L7.4, 29L7.185, 28.99L7.064, 28.94L7.012, 28.82L7, 28.6L7, 23.11zz" fill="#727272" class="Black" />
          </g>
        </g>
      </g>
    </g>
  </g>
  <g id="Layer_1" transform="translate(0, 0)">
    <g transform="matrix(0.875, 0, 0, 0.875, 0, 0)">
      <g id="main">
        <g id="icon">
          <g>
            <path d="M10.51, 21L11.56, 21L11.25, 20.78zz" fill="#FFFFFF" class="White" />
          </g>
        </g>
      </g>
    </g>
  </g>
  <g id="Layer_1" transform="translate(0, 0)">
    <g transform="matrix(0.875, 0, 0, 0.875, 0, 0)">
      <g id="main">
        <g id="icon">
          <g>
            <path d="M9.305, 4.039L9.146, 4.146L9.039, 4.305L9, 4.5L9.039, 4.695L9.146, 4.854L9.305, 4.961L9.5, 5L18.5, 5L18.69, 4.961L18.85, 4.854L18.96, 4.695L19, 4.5L18.96, 4.305L18.85, 4.146L18.69, 4.039L18.5, 4L9.5, 4zz" fill="#FFFFFF" class="White" />
          </g>
        </g>
      </g>
    </g>
  </g>
  <g id="Layer_1" transform="translate(0, 0)">
    <g transform="matrix(0.875, 0, 0, 0.875, 0, 0)">
      <g id="main">
        <g id="icon">
          <g>
            <path d="M9.345, 8.025L9.21, 8.094L9.537, 8.516L9.802, 9L18.5, 9L18.69, 8.961L18.85, 8.854L18.96, 8.695L19, 8.5L18.96, 8.305L18.85, 8.146L18.69, 8.039L18.5, 8L9.5, 8zz" fill="#FFFFFF" class="White" />
          </g>
        </g>
      </g>
    </g>
  </g>
  <g id="Layer_1" transform="translate(0, 0)">
    <g transform="matrix(0.875, 0, 0, 0.875, 0, 0)">
      <g id="main">
        <g id="icon">
          <g>
            <path d="M10.16, 13L26.5, 13L26.69, 12.96L26.85, 12.85L26.96, 12.69L27, 12.5L26.96, 12.31L26.85, 12.15L26.69, 12.04L26.5, 12L10.23, 12zz" fill="#FFFFFF" class="White" />
          </g>
        </g>
      </g>
    </g>
  </g>
  <g id="Layer_1" transform="translate(0, 0)">
    <g transform="matrix(0.875, 0, 0, 0.875, 0, 0)">
      <g id="main">
        <g id="icon">
          <g>
            <path d="M9.305, 6.039L9.146, 6.146L9.039, 6.305L9, 6.5L9.039, 6.695L9.146, 6.854L9.305, 6.961L9.5, 7L18.5, 7L18.69, 6.961L18.85, 6.854L18.96, 6.695L19, 6.5L18.96, 6.305L18.85, 6.146L18.69, 6.039L18.5, 6L9.5, 6zz" fill="#FFFFFF" class="White" />
          </g>
        </g>
      </g>
    </g>
  </g>
  <g id="Layer_1" transform="translate(0, 0)">
    <g transform="matrix(0.875, 0, 0, 0.875, 0, 0)">
      <g id="main">
        <g id="icon">
          <g>
            <path d="M10.22, 10.93L10.22, 11L18.5, 11L18.69, 10.96L18.85, 10.85L18.96, 10.69L19, 10.5L18.96, 10.31L18.85, 10.15L18.69, 10.04L18.5, 10L10.11, 10zz" fill="#FFFFFF" class="White" />
          </g>
        </g>
      </g>
    </g>
  </g>
  <g id="Layer_1" transform="translate(0, 0)">
    <g transform="matrix(0.875, 0, 0, 0.875, 0, 0)">
      <g id="main">
        <g id="icon">
          <g>
            <path d="M9.833, 15L26.5, 15L26.69, 14.96L26.85, 14.85L26.96, 14.69L27, 14.5L26.96, 14.31L26.85, 14.15L26.69, 14.04L26.5, 14L10.03, 14zz" fill="#FFFFFF" class="White" />
          </g>
        </g>
      </g>
    </g>
  </g>
  <g id="Layer_1" transform="translate(0, 0)">
    <g transform="matrix(0.875, 0, 0, 0.875, 0, 0)">
      <g id="main">
        <g id="icon">
          <g>
            <path d="M11.46, 17L18, 17L26.5, 17L26.69, 16.96L26.85, 16.85L26.96, 16.69L27, 16.5L26.96, 16.31L26.85, 16.15L26.69, 16.04L26.5, 16L10.51, 16zz" fill="#FFFFFF" class="White" />
          </g>
        </g>
      </g>
    </g>
  </g>
  <g id="Layer_1" transform="translate(0, 0)">
    <g transform="matrix(0.875, 0, 0, 0.875, 0, 0)">
      <g id="main">
        <g id="icon">
          <g>
            <path d="M9.305, 26.04L9.146, 26.15L9.039, 26.31L9, 26.5L9.039, 26.69L9.146, 26.85L9.305, 26.96L9.5, 27L16, 27L16, 26L9.5, 26zz" fill="#FFFFFF" class="White" />
          </g>
        </g>
      </g>
    </g>
  </g>
  <g id="Layer_1" transform="translate(0, 0)">
    <g transform="matrix(0.875, 0, 0, 0.875, 0, 0)">
      <g id="main">
        <g id="icon">
          <g>
            <path d="M9.305, 22.04L9.146, 22.15L9.039, 22.31L9, 22.5L9.039, 22.69L9.146, 22.85L9.305, 22.96L9.5, 23L16, 23L16, 22.45L15.78, 22.46L15.11, 22.39L14.38, 22.23L13.6, 22L9.5, 22zz" fill="#FFFFFF" class="White" />
          </g>
        </g>
      </g>
    </g>
  </g>
  <g id="Layer_1" transform="translate(0, 0)">
    <g transform="matrix(0.875, 0, 0, 0.875, 0, 0)">
      <g id="main">
        <g id="icon">
          <g>
            <path d="M9.305, 24.04L9.146, 24.15L9.039, 24.31L9, 24.5L9.039, 24.69L9.146, 24.85L9.305, 24.96L9.5, 25L16, 25L16, 24L9.5, 24zz" fill="#FFFFFF" class="White" />
          </g>
        </g>
      </g>
    </g>
  </g>
  <g id="Layer_1" transform="translate(0, 0)">
    <g transform="matrix(0.875, 0, 0, 0.875, 0, 0)">
      <g id="main">
        <g id="icon">
          <path d="M7.056, 8.102L6.586, 8.212L6.317, 8.352L6.057, 8.575L5.83, 8.896L5.657, 9.335L5.564, 9.91L5.572, 10.64L5.669, 11.34L5.828, 12.01L6.25, 13.23L6.675, 14.14L6.935, 14.62L6.275, 16.93L5.646, 18.82L5.122, 20.21L4.779, 21.04L3.287, 21.82L2.137, 22.56L1.287, 23.24L0.6914, 23.86L0.3086, 24.41L0.0943, 24.88L0.0057, 25.26L0, 25.52L0, 25.56L0.0574, 25.88L0.1729, 26.16L0.3422, 26.4L0.5623, 26.6L0.8299, 26.75L1.141, 26.85L1.494, 26.9L1.884, 26.89L2.337, 26.81L2.777, 26.65L3.201, 26.42L3.608, 26.13L4.369, 25.41L5.049, 24.56L5.64, 23.66L6.132, 22.79L6.782, 21.42L8.098, 20.85L9.436, 20.38L11.4, 19.79L11.44, 19.78L12.12, 20.27L12.82, 20.67L13.51, 20.99L14.17, 21.23L14.8, 21.39L15.38, 21.5L15.88, 21.54L16, 21.54L16, 20.15L15.75, 20.2L15.18, 20.17L14.5, 20.02L13.75, 19.75L12.98, 19.38L13.01, 19.38L13.77, 19.25L14.7, 19.15L15.54, 19.15L16, 19.25L16, 19L16.04, 18.6L16.16, 18.22L16.27, 18.02L15.94, 17.97L15.33, 17.93L14.72, 17.96L13.84, 18.06L12.96, 18.21L11.71, 18.48L10.45, 17.28L9.602, 16.34L9.09, 15.66L8.83, 15.25L8.828, 15.25L9.071, 14.19L9.233, 13.11L9.312, 12.04L9.307, 10.97L9.223, 10.21L9.044, 9.56L8.771, 9.015L8.404, 8.58L7.988, 8.292L7.592, 8.147L7.265, 8.1zM7.188, 9.296L7.29, 9.355L7.41, 9.579L7.489, 9.89L7.536, 10.71L7.466, 11.7L7.317, 12.72L7.025, 11.77L6.824, 10.83L6.75, 10.01L6.772, 9.682L6.839, 9.429L6.963, 9.317L7.074, 9.285zM8.936, 17.41L9.448, 17.98L10.33, 18.84L8.556, 19.42L7.484, 19.82L8.01, 18.3L8.438, 16.79zM3.349, 23.81L2.536, 24.92L1.973, 25.48L1.729, 25.63L1.518, 25.7L1.465, 25.69L1.323, 25.65L1.154, 25.52L1.164, 25.37L1.165, 25.36L1.166, 25.36L1.233, 25.15L1.572, 24.62L1.912, 24.25L2.402, 23.82L3.07, 23.34L3.943, 22.8zz" fill="#D11C1C" class="Red" />
        </g>
      </g>
    </g>
  </g>
  <g id="Layer_1" transform="translate(0, 0)">
    <g transform="matrix(0.875, 0, 0, 0.875, 0, 0)">
      <g id="main">
        <g id="overlay">
          <path d="M31, 31.5L18, 31.5C17.724, 31.5 17.5, 31.276 17.5, 31L17.5, 20.5L31.5, 20.5L31.5, 31C31.5, 31.276 31.276, 31.5 31, 31.5z" fill="#FFFFFF" />
        </g>
      </g>
    </g>
  </g>
  <g id="Layer_1" transform="translate(0, 0)">
    <g transform="matrix(0.875, 0, 0, 0.875, 0, 0)">
      <g id="main">
        <g id="overlay">
          <path d="M31, 32L18, 32C17.449, 32 17, 31.551 17, 31L17, 20L32, 20L32, 31C32, 31.551 31.551, 32 31, 32zM18, 21L18, 31L31.001, 31L31, 21L18, 21z" fill="#1177D7" class="Blue" />
        </g>
      </g>
    </g>
  </g>
  <g id="Layer_1" transform="translate(0, 0)">
    <g transform="matrix(0.875, 0, 0, 0.875, 0, 0)">
      <g id="main">
        <g id="overlay">
          <path d="M32, 22L17, 22L17, 19C17, 18.448 17.448, 18 18, 18L31, 18C31.552, 18 32, 18.448 32, 19L32, 22z" fill="#1177D7" class="Blue" />
        </g>
      </g>
    </g>
  </g>
</svg>