<?xml version='1.0' encoding='UTF-8'?>
<svg viewBox="-2 -2.0351 32 32.0001" xmlns="http://www.w3.org/2000/svg" xmlns:xlink="http://www.w3.org/1999/xlink">
  <g id="Layer_1" transform="translate(0, -0.0701)">
    <g transform="matrix(0.875, 0, 0, 0.875, 0, 0)">
      <g id="main">
        <g id="icon">
          <g>
            <path d="M16.83, 15.88L16.56, 16.97L17.13, 17.21L17.22, 17.16L17.6, 17.04L18, 17L25.57, 17L25.63, 16.93L25.72, 16.68L25.73, 16.36L25.6, 15.43L25.57, 15.27L25.41, 15.31L24.74, 15.5L24.05, 15.68L23.25, 15.85L22.23, 15.97L21.01, 16L20.98, 16L19.85, 15.93L18.81, 15.71L17.85, 15.35L16.99, 14.85zz" fill="#727272" class="Black" />
          </g>
        </g>
      </g>
    </g>
  </g>
  <g id="Layer_1" transform="translate(0, -0.0701)">
    <g transform="matrix(0.875, 0, 0, 0.875, 0, 0)">
      <g id="main">
        <g id="icon">
          <g>
            <path d="M20.47, 0.101L19.65, 0.1773L18.86, 0.3174L18.1, 0.5211L17.37, 0.7881L16.68, 1.118L16.02, 1.511L15.39, 1.966L14.8, 2.484L14.27, 3.034L13.8, 3.61L13.38, 4.215L13.02, 4.848L12.72, 5.51L12.48, 6.202L12.29, 6.925L12.16, 7.678L13.3, 7.924L14.29, 8.31L14.5, 7.095L14.9, 5.957L15.16, 5.421L15.46, 4.912L15.81, 4.43L16.2, 3.979L16.71, 3.497L17.25, 3.075L17.84, 2.713L18.47, 2.413L19.13, 2.177L19.82, 2.006L20.53, 1.903L21.27, 1.868L22.02, 1.903L22.8, 2.008L23.43, 2.154L24.04, 2.361L24.61, 2.627L25.14, 2.95L25.64, 3.328L26.09, 3.758L26.5, 4.239L26.87, 4.768L27.18, 5.354L27.43, 5.971L27.6, 6.611L27.71, 7.269L27.75, 7.94L27.72, 8.618L27.62, 9.297L27.45, 9.971L27.24, 10.5L26.98, 11L26.65, 11.46L26.29, 11.85L25.95, 12.08L25.58, 12.16L25.27, 12.1L25.02, 11.92L24.85, 11.64L24.76, 11.28L24.72, 9.812L24.78, 8.338L24.82, 7.643L24.98, 5.452L25.07, 4.443L25.09, 4.269L23.11, 4.269L22.91, 5.09L22.79, 4.954L22.35, 4.574L21.86, 4.299L21.31, 4.131L20.71, 4.075L20.02, 4.147L19.35, 4.353L18.73, 4.677L18.19, 5.107L17.68, 5.668L17.26, 6.261L16.91, 6.885L16.65, 7.541L16.47, 8.228L16.38, 8.945L16.36, 9.692L16.43, 10.47L16.78, 11.43L16.97, 12.38L17.4, 12.99L17.97, 13.45L18.65, 13.77L19.46, 13.93L19.83, 13.95L20.25, 13.92L20.65, 13.84L21.02, 13.71L21.38, 13.53L21.71, 13.29L22.01, 13L22.29, 12.67L22.54, 12.28L22.67, 12.06L22.73, 12.31L22.92, 12.84L23.23, 13.27L23.64, 13.59L24.17, 13.79L24.72, 13.9L25.27, 13.94L25.86, 13.9L26.43, 13.76L26.98, 13.54L27.51, 13.23L28.01, 12.86L28.44, 12.43L28.82, 11.95L29.15, 11.43L29.42, 10.86L29.63, 10.24L29.78, 9.569L29.88, 8.856L29.93, 7.811L29.86, 6.819L29.69, 5.881L29.41, 4.998L29.01, 4.17L28.51, 3.398L27.9, 2.683L27.19, 2.025L26.57, 1.566L25.92, 1.169L25.23, 0.8344L24.51, 0.5617L23.76, 0.3502L22.96, 0.1998L22.13, 0.11L21.25, 0.0801zM21.34, 5.893L21.59, 5.964L22.02, 6.237L22.35, 6.668L22.55, 7.239L22.66, 8.241L22.57, 9.236L22.3, 10.22L21.83, 11.19L21.53, 11.58L21.16, 11.88L20.75, 12.07L20.31, 12.13L19.93, 12.08L19.46, 11.87L19.1, 11.56L18.85, 11.14L18.72, 10.62L18.6, 9.931L18.56, 9.732L18.55, 9.716L18.56, 9.7L18.68, 8.809L18.88, 7.939L19.04, 7.523L19.24, 7.125L19.5, 6.751L19.82, 6.404L20.12, 6.173L20.43, 6.005L20.74, 5.903L21.07, 5.869zz" fill="#727272" class="Black" />
          </g>
        </g>
      </g>
    </g>
  </g>
  <g id="Layer_1" transform="translate(0, -0.0701)">
    <g transform="matrix(0.875, 0, 0, 0.875, 0, 0)">
      <g id="main">
        <g id="icon">
          <path d="M9.029, 8.964L8.416, 9.073L7.869, 9.224L7.387, 9.414L6.963, 9.644L6.597, 9.912L6.284, 10.22L6.021, 10.56L5.803, 10.93L5.494, 11.78L5.328, 12.75L5.279, 13.83L5.319, 14.6L5.438, 15.43L5.631, 16.29L5.895, 17.16L6.228, 18.02L6.624, 18.85L7.082, 19.63L7.598, 20.32L7.585, 20.72L7.447, 21.07L7.157, 21.35L6.691, 21.59L3.566, 22.69L2.483, 23.12L1.66, 23.53L1.053, 23.99L0.6176, 24.54L0.3098, 25.23L0.085, 26.12L0, 26.79L0, 27.52L0.085, 28.05L0.323, 28.82L0.483, 29.06L0.775, 29.26L1.184, 29.43L1.695, 29.57L2.967, 29.78L4.471, 29.91L6.091, 29.97L7.709, 29.99L10.47, 29.99L13.24, 29.99L14.87, 29.97L16, 29.93L16, 23L16, 22.18L14.33, 21.59L13.86, 21.36L13.57, 21.07L13.44, 20.73L13.42, 20.33L13.94, 19.63L14.4, 18.86L14.79, 18.03L15.13, 17.16L15.39, 16.29L15.59, 15.43L15.7, 14.6L15.74, 13.83L15.69, 12.75L15.52, 11.78L15.38, 11.34L15.19, 10.93L14.97, 10.56L14.7, 10.22L14.38, 9.912L14, 9.644L13.57, 9.414L13.08, 9.224L12.53, 9.073L11.91, 8.964L10.47, 8.876zz" fill="#1177D7" class="Blue" fill-rule="evenodd" />
        </g>
      </g>
    </g>
  </g>
  <g id="Layer_1" transform="translate(0, -0.0701)">
    <g transform="matrix(0.875, 0, 0, 0.875, 0, 0)">
      <g id="main">
        <g id="overlay">
          <path d="M31, 31.5L18, 31.5C17.724, 31.5 17.5, 31.276 17.5, 31L17.5, 20.5L31.5, 20.5L31.5, 31C31.5, 31.276 31.276, 31.5 31, 31.5z" fill="#FFFFFF" />
        </g>
      </g>
    </g>
  </g>
  <g id="Layer_1" transform="translate(0, -0.0701)">
    <g transform="matrix(0.875, 0, 0, 0.875, 0, 0)">
      <g id="main">
        <g id="overlay">
          <path d="M31, 32L18, 32C17.449, 32 17, 31.551 17, 31L17, 20L32, 20L32, 31C32, 31.551 31.551, 32 31, 32zM18, 21L18, 31L31.001, 31L31, 21L18, 21z" fill="#727272" class="Black" />
        </g>
      </g>
    </g>
  </g>
  <g id="Layer_1" transform="translate(0, -0.0701)">
    <g transform="matrix(0.875, 0, 0, 0.875, 0, 0)">
      <g id="main">
        <g id="overlay">
          <path d="M32, 22L17, 22L17, 19C17, 18.448 17.448, 18 18, 18L31, 18C31.552, 18 32, 18.448 32, 19L32, 22z" fill="#1177D7" class="Blue" />
        </g>
      </g>
    </g>
  </g>
</svg>