<?xml version='1.0' encoding='UTF-8'?>
<svg viewBox="-2 -2 32 32" xmlns="http://www.w3.org/2000/svg" xmlns:xlink="http://www.w3.org/1999/xlink">
  <g id="Layer_1" transform="translate(-2, -2)">
    <g id="icon">
      <path d="M4, 2L3, 2L3, 3L4, 3L4, 2zM6, 2L5, 2L5, 3L6, 3L6, 2zM8, 2L7, 2L7, 3L8, 3L8, 2zM10, 2L9, 2L9, 3L10, 3L10, 2zM12, 2L11, 2L11, 3L12, 3L12, 2zM14, 2L13, 2L13, 3L14, 3L14, 2zM16, 2L15, 2L15, 3L16, 3L16, 2zM18, 2L17, 2L17, 3L18, 3L18, 2zM20, 2L19, 2L19, 3L20, 3L20, 2zM22, 2L21, 2L21, 3L22, 3L22, 2zM24, 2L23, 2L23, 3L24, 3L24, 2zM26, 2L25, 2L25, 3L26, 3L26, 2zM28, 2L27, 2L27, 3L28, 3L28, 2zM30, 2L29, 2L29, 3L30, 3L30, 2zM3, 29L2, 29L2, 30L3, 30L3, 29zM5, 29L4, 29L4, 30L5, 30L5, 29zM7, 29L6, 29L6, 30L7, 30L7, 29zM9, 29L8, 29L8, 30L9, 30L9, 29zM11, 29L10, 29L10, 30L11, 30L11, 29zM13, 29L12, 29L12, 30L13, 30L13, 29zM15, 29L14, 29L14, 30L15, 30L15, 29zM17, 29L16, 29L16, 30L17, 30L17, 29zM19, 29L18, 29L18, 30L19, 30L19, 29zM21, 29L20, 29L20, 30L21, 30L21, 29zM23, 29L22, 29L22, 30L23, 30L23, 29zM25, 29L24, 29L24, 30L25, 30L25, 29zM27, 29L26, 29L26, 30L27, 30L27, 29zM29, 29L28, 29L28, 30L29, 30L29, 29zM3, 16L2, 16L2, 15L3, 15L3, 16zM30, 14L29, 14L29, 15L30, 15L30, 14zM2, 13L2, 14L3, 14L3, 13L2, 13zM2, 11L2, 12L3, 12L3, 11L2, 11zM2, 9L2, 10L3, 10L3, 9L2, 9zM2, 7L2, 8L3, 8L3, 7L2, 7zM2, 5L2, 6L3, 6L3, 5L2, 5zM2, 3L2, 4L3, 4L3, 3L2, 3zM29, 12L29, 13L30, 13L30, 12L29, 12zM29, 10L29, 11L30, 11L30, 10L29, 10zM29, 8L29, 9L30, 9L30, 8L29, 8zM29, 6L29, 7L30, 7L30, 6L29, 6zM29, 4L29, 5L30, 5L30, 4L29, 4zM29, 26L29, 27L30, 27L30, 26L29, 26zM29, 28L29, 29L30, 29L30, 28L29, 28zM29, 24L29, 25L30, 25L30, 24L29, 24zM29, 22L29, 23L30, 23L30, 22L29, 22zM29, 20L29, 21L30, 21L30, 20L29, 20zM29, 18L29, 19L30, 19L30, 18L29, 18zM29, 16L29, 17L30, 17L30, 16L29, 16zM2, 27L2, 28L3, 28L3, 27L2, 27zM2, 25L2, 26L3, 26L3, 25L2, 25zM2, 23L2, 24L3, 24L3, 23L2, 23zM2, 21L2, 22L3, 22L3, 21L2, 21zM2, 19L2, 20L3, 20L3, 19L2, 19zM2, 17L2, 18L3, 18L3, 17L2, 17z" fill="#727272" class="Black" />
    </g>
  </g>
  <g id="Layer_1" transform="translate(-2, -2)">
    <g id="icon">
      <path d="M11, 28L12, 28L12, 21L20, 21L20, 28L21, 28L21, 21L28, 21L28, 20L21, 20L21, 12L28, 12L28, 11L21, 11L21, 4L20, 4L20, 11L12, 11L12, 4L11, 4L11, 11L4, 11L4, 12L11, 12L11, 20L4, 20L4, 21L11, 21L11, 28zM12, 12L20, 12L20, 20L12, 20L12, 12z" fill="#727272" class="Black" />
    </g>
  </g>
</svg>