<?xml version='1.0' encoding='UTF-8'?>
<svg viewBox="-1.8666 -2 32.0016 32" xmlns="http://www.w3.org/2000/svg" xmlns:xlink="http://www.w3.org/1999/xlink">
  <g id="Layer_1" transform="translate(-2.7999, -0.9333)">
    <g transform="matrix(0.9333, 0, 0, 0.9333, 0, 0)">
      <g id="icon">
        <polygon points="17,28 17,24.5 15,24.5 15,28 3,28 3,30 29,30 29,28" fill="#039C23" class="Green" />
      </g>
    </g>
  </g>
  <g id="Layer_1" transform="translate(-2.7999, -0.9333)">
    <g transform="matrix(0.9333, 0, 0, 0.9333, 0, 0)">
      <g id="icon">
        <path d="M18.475, 31L13.575, 31C13.2712, 31 13, 30.8038 13, 30.5L13, 27.55C13, 27.2462 13.2712, 27 13.575, 27L18.475, 27C18.7788, 27 19.025, 27.2462 19.025, 27.55L19.025, 30.5C19.025, 30.8038 18.7788, 31 18.475, 31z" fill="#797979" />
      </g>
    </g>
  </g>
  <g id="Layer_1" transform="translate(-2.7999, -0.9333)">
    <g transform="matrix(0.9333, 0, 0, 0.9333, 0, 0)">
      <g id="icon">
        <path d="M28, 1L4, 1C3.4477, 1 3, 1.4477 3, 2L3, 7C3, 7.5523 3.4477, 8 4, 8L28, 8C28.5523, 8 29, 7.5523 29, 7L29, 2C29, 1.4477 28.5523, 1 28, 1zM7, 6L5, 6L5, 3L7, 3L7, 6zM28, 9L4, 9C3.4477, 9 3, 9.4477 3, 10L3, 15C3, 15.5523 3.4477, 16 4, 16L28, 16C28.5523, 16 29, 15.5523 29, 15L29, 10C29, 9.4477 28.5523, 9 28, 9zM7, 14L5, 14L5, 11L7, 11L7, 14zM28, 17L4, 17C3.4477, 17 3, 17.4477 3, 18L3, 23C3, 23.5523 3.4477, 24 4, 24L28, 24C28.5523, 24 29, 23.5523 29, 23L29, 18C29, 17.4477 28.5523, 17 28, 17zM7, 22L5, 22L5, 19L7, 19L7, 22z" fill="#727272" class="Black" />
      </g>
    </g>
  </g>
  <g id="Layer_1" transform="translate(-2.7999, -0.9333)">
    <g transform="matrix(0.9333, 0, 0, 0.9333, 0, 0)">
      <g id="icon">
        <path d="M7, 22L5, 22L5, 19L7, 19L7, 22zM7, 11L5, 11L5, 14L7, 14L7, 11zM7, 3L5, 3L5, 6L7, 6L7, 3z" fill="#FFFFFF" />
      </g>
    </g>
  </g>
  <g id="Layer_1" transform="translate(14.1334, 14)" style="enable-background:new 0 0 16 16">
    <g>
      <path d="M8, 14C4.7, 14 2, 13.1 2, 12L2, 14C2, 15.1 4.7, 16 8, 16C11.3, 16 14, 15.1 14, 14L14, 12C14, 13.1 11.3, 14 8, 14z" fill="#FFB115" class="Yellow" />
    </g>
  </g>
  <g id="Layer_1" transform="translate(14.1334, 14)" style="enable-background:new 0 0 16 16">
    <g>
      <path d="M8, 10C4.7, 10 2, 9.1 2, 8L2, 10C2, 11.1 4.7, 12 8, 12C11.3, 12 14, 11.1 14, 10L14, 8C14, 9.1 11.3, 10 8, 10z" fill="#FFB115" class="Yellow" />
    </g>
  </g>
  <g id="Layer_1" transform="translate(14.1334, 14)" style="enable-background:new 0 0 16 16">
    <g>
      <path d="M8, 0C4.7, 0 2, 0.9 2, 2L2, 6C2, 7.1 4.7, 8 8, 8C11.3, 8 14, 7.1 14, 6L14, 2C14, 0.9 11.3, 0 8, 0z" fill="#FFB115" class="Yellow" />
    </g>
  </g>
  <g id="Layer_1" transform="translate(14.1334, 14)" style="enable-background:new 0 0 16 16">
    <g>
      <path d="M8, 12C4.7, 12 2, 11.1 2, 10L2, 12C2, 13.1 4.7, 14 8, 14C11.3, 14 14, 13.1 14, 12L14, 10C14, 11.1 11.3, 12 8, 12z" fill="#FFFFFF" class="White" />
    </g>
  </g>
  <g id="Layer_1" transform="translate(14.1334, 14)" style="enable-background:new 0 0 16 16">
    <g>
      <path d="M8, 8C4.7, 8 2, 7.1 2, 6L2, 8C2, 9.1 4.7, 10 8, 10C11.3, 10 14, 9.1 14, 8L14, 6C14, 7.1 11.3, 8 8, 8z" fill="#FFFFFF" class="White" />
    </g>
  </g>
</svg>