<?xml version='1.0' encoding='UTF-8'?>
<svg viewBox="-2 -2 32 32" xmlns="http://www.w3.org/2000/svg" xmlns:xlink="http://www.w3.org/1999/xlink">
  <g id="Layer_1" transform="translate(-4, -2)" style="enable-background:new 0 0 32 32">
    <g id="Copy">
      <path d="M21, 2L11, 2C10.5, 2 10, 2.5 10, 3L10, 8L5, 8C4.5, 8 4, 8.5 4, 9L4, 29C4, 29.5 4.5, 30 5, 30L21, 30C21.5, 30 22, 29.5 22, 29L22, 24L27, 24C27.5, 24 28, 23.5 28, 23L28, 9L21, 2zM20, 28L6, 28L6, 10L14, 10L14, 15C14, 15.5 14.5, 16 15, 16L20, 16L20, 28zM26, 22L22, 22L22, 15L15, 8L12, 8L12, 4L20, 4L20, 9C20, 9.5 20.5, 10 21, 10L26, 10L26, 22z" fill="#727272" class="Black" />
    </g>
  </g>
  <g id="Layer_1" transform="translate(12, 14)" style="enable-background:new 0 0 16 16">
    <g>
      <path d="M8, 14C4.7, 14 2, 13.1 2, 12L2, 14C2, 15.1 4.7, 16 8, 16C11.3, 16 14, 15.1 14, 14L14, 12C14, 13.1 11.3, 14 8, 14z" fill="#FFB115" class="Yellow" />
    </g>
  </g>
  <g id="Layer_1" transform="translate(12, 14)" style="enable-background:new 0 0 16 16">
    <g>
      <path d="M8, 10C4.7, 10 2, 9.1 2, 8L2, 10C2, 11.1 4.7, 12 8, 12C11.3, 12 14, 11.1 14, 10L14, 8C14, 9.1 11.3, 10 8, 10z" fill="#FFB115" class="Yellow" />
    </g>
  </g>
  <g id="Layer_1" transform="translate(12, 14)" style="enable-background:new 0 0 16 16">
    <g>
      <path d="M8, 0C4.7, 0 2, 0.9 2, 2L2, 6C2, 7.1 4.7, 8 8, 8C11.3, 8 14, 7.1 14, 6L14, 2C14, 0.9 11.3, 0 8, 0z" fill="#FFB115" class="Yellow" />
    </g>
  </g>
  <g id="Layer_1" transform="translate(12, 14)" style="enable-background:new 0 0 16 16">
    <g>
      <path d="M8, 12C4.7, 12 2, 11.1 2, 10L2, 12C2, 13.1 4.7, 14 8, 14C11.3, 14 14, 13.1 14, 12L14, 10C14, 11.1 11.3, 12 8, 12z" fill="#FFFFFF" class="White" />
    </g>
  </g>
  <g id="Layer_1" transform="translate(12, 14)" style="enable-background:new 0 0 16 16">
    <g>
      <path d="M8, 8C4.7, 8 2, 7.1 2, 6L2, 8C2, 9.1 4.7, 10 8, 10C11.3, 10 14, 9.1 14, 8L14, 6C14, 7.1 11.3, 8 8, 8z" fill="#FFFFFF" class="White" />
    </g>
  </g>
</svg>