<?xml version='1.0' encoding='UTF-8'?>
<svg viewBox="-2.0025 -2.0025 32 32" xmlns="http://www.w3.org/2000/svg" xmlns:xlink="http://www.w3.org/1999/xlink">
  <g id="Layer_1" transform="translate(-0.9335, -0.9346)">
    <g transform="matrix(0.9333, 0, 0, 0.9333, 0, 0)">
      <g id="icon">
        <path d="M9.5006, 10C14.1912, 10 17.9937, 10.857 17.9937, 12.437C17.9937, 14.017 14.1483, 15.069 9.4577, 15.069C4.7671, 15.069 1.0582, 14.017 1.0582, 12.437C1.0582, 10.857 4.81, 10 9.5006, 10zM9.5037, 15.9182C13.7659, 15.9182 17.452, 15.194 17.9952, 13.8379C17.9952, 15.3409 17.9937, 26.288 17.9937, 26.4305C17.9937, 29.3544 14.1912, 31 9.5006, 31C4.81, 31 1.0075, 29.2049 1.0075, 26.4305C1.0075, 26.3123 0.9821, 14.0139 1.0245, 13.9048C1.6988, 15.154 5.0942, 15.9182 9.5037, 15.9182z" fill="#FFB115" class="Yellow" fill-rule="evenodd" />
      </g>
    </g>
  </g>
  <g id="Layer_1" transform="translate(-0.9335, -0.9346)">
    <g transform="matrix(0.9333, 0, 0, 0.9333, 0, 0)">
      <g id="icon">
        <g>
          <path d="M22.4626, 6.069C27.1532, 6.069 30.9986, 5.017 30.9986, 3.437C30.9986, 1.857 27.1961, 1 22.5055, 1C17.8149, 1 14.0631, 1.857 14.0631, 3.437C14.0631, 5.017 17.772, 6.069 22.4626, 6.069z" fill="#FFB115" class="Yellow" />
        </g>
      </g>
    </g>
  </g>
  <g id="Layer_1" transform="translate(-0.9335, -0.9346)">
    <g transform="matrix(0.9333, 0, 0, 0.9333, 0, 0)">
      <g id="icon">
        <g>
          <path d="M22.5085, 6.9182C18.099, 6.9182 14.7036, 6.154 14.0294, 4.9049C14.0125, 4.9484 14.0064, 6.9287 14.0051, 9.3019C14.6456, 9.3989 15.2356, 9.5183 15.7649, 9.6601C17.9074, 10.2341 18.9937, 11.1684 18.9937, 12.437C18.9937, 12.9308 18.9952, 13.838 18.9952, 13.838C18.9952, 14.4812 18.9947, 18.3489 18.9943, 21.6304C20.0647, 21.8709 21.2528, 22.0001 22.5055, 22.0001C27.1961, 22.0001 30.9986, 20.3545 30.9986, 17.4306C30.9986, 17.2882 31.0001, 6.341 31.0001, 4.838C30.4568, 6.194 26.7708, 6.9182 22.5085, 6.9182z" fill="#FFB115" class="Yellow" />
        </g>
      </g>
    </g>
  </g>
</svg>