<?xml version='1.0' encoding='UTF-8'?>
<svg viewBox="-0.31 0 32 32" xmlns="http://www.w3.org/2000/svg" xmlns:xlink="http://www.w3.org/1999/xlink">
  <g id="Capa_1" transform="translate(-2.3101, 0)" style="enable-background:new 0 0 465 465">
    <g transform="matrix(0.0602, 0, 0, 0.0602, 0, 0)">
      <g>
        <path d="M304.94, 181.955C287.686, 181.955 272.043, 192.16 265.086, 207.953C263.416, 211.744 265.136, 216.17 268.926, 217.84C272.716, 219.509 277.143, 217.79 278.813, 213.999C283.374, 203.645 293.629, 196.954 304.94, 196.954C316.434, 196.954 326.753, 203.795 331.232, 214.381C332.442, 217.242 335.219, 218.961 338.142, 218.961C339.117, 218.961 340.107, 218.77 341.061, 218.367C344.875, 216.753 346.661, 212.353 345.046, 208.538C338.217, 192.39 322.474, 181.955 304.94, 181.955z" />
      </g>
    </g>
  </g>
  <g id="Capa_1" transform="translate(-2.3101, 0)" style="enable-background:new 0 0 465 465">
    <g transform="matrix(0.0602, 0, 0, 0.0602, 0, 0)">
      <g>
        <path d="M156.752, 181.955C139.498, 181.955 123.855, 192.16 116.898, 207.953C115.228, 211.744 116.948, 216.17 120.738, 217.84C124.528, 219.509 128.955, 217.79 130.625, 213.999C135.186, 203.645 145.441, 196.954 156.752, 196.954C168.245, 196.954 178.565, 203.795 183.043, 214.381C184.253, 217.242 187.03, 218.961 189.953, 218.961C190.928, 218.961 191.918, 218.77 192.872, 218.367C196.686, 216.753 198.472, 212.353 196.857, 208.538C190.027, 192.39 174.285, 181.955 156.752, 181.955z" />
      </g>
    </g>
  </g>
  <g id="Capa_1" transform="translate(-2.3101, 0)" style="enable-background:new 0 0 465 465">
    <g transform="matrix(0.0602, 0, 0, 0.0602, 0, 0)">
      <g>
        <path d="M426.646, 456.939L426.333, 211.461C426.333, 153.187 406.302, 99.479 369.928, 60.231C333.933, 21.39 285.327, 0 233.064, 0L232.363, 0.001L231.602, 0C179.343, 0 130.739, 21.391 94.742, 60.233C58.367, 99.483 38.334, 153.19 38.334, 211.461L38.334, 457.5C38.334, 461.642 41.691, 465 45.834, 465C71.629, 465 95.163, 451.719 108.452, 430.75C121.673, 451.719 144.985, 465 170.477, 465C195.963, 465 219.269, 451.729 232.491, 430.768C245.712, 451.729 269.018, 465 294.504, 465C319.996, 465 343.309, 451.718 356.529, 430.75C369.818, 451.719 393.352, 465 419.147, 465C419.153, 464.999 419.161, 465 419.167, 465C423.31, 465 426.667, 461.642 426.667, 457.5C426.667, 457.311 426.66, 457.124 426.646, 456.939zM363.589, 411.179C362.528, 408.184 359.696, 406.182 356.519, 406.182C353.342, 406.182 350.509, 408.184 349.449, 411.179C341.228, 434.399 319.146, 450 294.504, 450C269.862, 450 247.781, 434.399 239.561, 411.179C238.5, 408.184 235.667, 406.182 232.491, 406.182C229.315, 406.182 226.481, 408.184 225.421, 411.179C217.199, 434.399 195.119, 450 170.477, 450C145.835, 450 123.754, 434.399 115.533, 411.179C114.472, 408.184 111.639, 406.182 108.463, 406.182C105.285, 406.182 102.453, 408.184 101.393, 411.179C94.004, 432.049 75.221, 446.764 53.334, 449.529L53.334, 211.461C53.333, 101.296 131.638, 15 231.602, 15L232.364, 15.001L233.064, 15C333.028, 15 411.333, 101.296 411.333, 211.47L411.638, 449.527C389.757, 446.759 370.976, 432.045 363.589, 411.179z" />
      </g>
    </g>
  </g>
  <g id="Capa_1" transform="translate(-2.3101, 0)" style="enable-background:new 0 0 465 465">
    <g transform="matrix(0.0602, 0, 0, 0.0602, 0, 0)">
      <g>
        <path d="M251.95, 251.476C247.807, 251.476 244.45, 254.834 244.45, 258.976C244.45, 266.42 238.394, 272.476 230.95, 272.476C223.506, 272.476 217.45, 266.42 217.45, 258.976C217.45, 254.834 214.093, 251.476 209.95, 251.476C205.807, 251.476 202.45, 254.834 202.45, 258.976C202.45, 274.691 215.235, 287.476 230.95, 287.476C246.665, 287.476 259.45, 274.691 259.45, 258.976C259.45, 254.834 256.093, 251.476 251.95, 251.476z" />
      </g>
    </g>
  </g>
  <g id="Layer_1" transform="translate(15.69, 16)" style="enable-background:new 0 0 16 16">
    <g>
      <path d="M8, 14C4.7, 14 2, 13.1 2, 12L2, 14C2, 15.1 4.7, 16 8, 16C11.3, 16 14, 15.1 14, 14L14, 12C14, 13.1 11.3, 14 8, 14z" fill="#FFB115" class="Yellow" />
    </g>
  </g>
  <g id="Layer_1" transform="translate(15.69, 16)" style="enable-background:new 0 0 16 16">
    <g>
      <path d="M8, 10C4.7, 10 2, 9.1 2, 8L2, 10C2, 11.1 4.7, 12 8, 12C11.3, 12 14, 11.1 14, 10L14, 8C14, 9.1 11.3, 10 8, 10z" fill="#FFB115" class="Yellow" />
    </g>
  </g>
  <g id="Layer_1" transform="translate(15.69, 16)" style="enable-background:new 0 0 16 16">
    <g>
      <path d="M8, 0C4.7, 0 2, 0.9 2, 2L2, 6C2, 7.1 4.7, 8 8, 8C11.3, 8 14, 7.1 14, 6L14, 2C14, 0.9 11.3, 0 8, 0z" fill="#FFB115" class="Yellow" />
    </g>
  </g>
  <g id="Layer_1" transform="translate(15.69, 16)" style="enable-background:new 0 0 16 16">
    <g>
      <path d="M8, 12C4.7, 12 2, 11.1 2, 10L2, 12C2, 13.1 4.7, 14 8, 14C11.3, 14 14, 13.1 14, 12L14, 10C14, 11.1 11.3, 12 8, 12z" fill="#FFFFFF" class="White" />
    </g>
  </g>
  <g id="Layer_1" transform="translate(15.69, 16)" style="enable-background:new 0 0 16 16">
    <g>
      <path d="M8, 8C4.7, 8 2, 7.1 2, 6L2, 8C2, 9.1 4.7, 10 8, 10C11.3, 10 14, 9.1 14, 8L14, 6C14, 7.1 11.3, 8 8, 8z" fill="#FFFFFF" class="White" />
    </g>
  </g>
</svg>