<?xml version='1.0' encoding='UTF-8'?>
<svg viewBox="-4.7775 -2 32 32" xmlns="http://www.w3.org/2000/svg" xmlns:xlink="http://www.w3.org/1999/xlink">
  <g id="Layer_1" transform="translate(-3.7433, -0.9962)">
    <g transform="matrix(0.9354, 0, 0, 0.9354, 0, 0)">
      <g id="icon">
        <path d="M23, 15.4L23, 11.304C23, 7.349 19.794, 4.008 16, 4.008C12.206, 4.008 9, 7.35 9, 11.304L9, 15.4L6, 15.4L6, 11.304C6, 8.579 7.05, 6.008 8.955, 4.065C10.853, 2.129 13.355, 1.063 16, 1.063C18.644, 1.063 21.146, 2.129 23.045, 4.065C24.95, 6.008 26, 8.579 26, 11.304L26, 15.4L23, 15.4z" fill="#727272" class="Black" />
      </g>
    </g>
  </g>
  <g id="Layer_1" transform="translate(-3.7433, -0.9962)">
    <g transform="matrix(0.9354, 0, 0, 0.9354, 0, 0)">
      <g id="icon">
        <path d="M27.071, 14L4.843, 14C4.385, 14 4, 14.348 4, 14.82L4, 30.146C4, 30.618 4.418, 31 4.876, 31L27.17, 31C27.628, 31 28, 30.618 28, 30.146L28, 14.82C28, 14.348 27.529, 14 27.071, 14zM17.3, 22.692L17.8, 26.955C17.8, 27.642 16.733, 28.004 16.05, 28.004C15.367, 28.004 14.2, 27.642 14.2, 26.955L14.8, 22.692C14.1, 22.26 13.565, 21.455 13.565, 20.53C13.565, 19.15 14.683, 18.031 16.054, 18.031C17.425, 18.031 18.538, 19.15 18.538, 20.53C18.538, 21.454 18.1, 22.26 17.3, 22.692z" fill="#FFB115" class="Yellow" />
      </g>
    </g>
  </g>
  <g id="Layer_1" transform="translate(-3.7433, -0.9962)">
    <g transform="matrix(0.9354, 0, 0, 0.9354, 0, 0)">
      <g id="icon">
        <path d="M18.538, 20.53C18.538, 19.15 17.425, 18.031 16.054, 18.031C14.683, 18.031 13.565, 19.15 13.565, 20.53C13.565, 21.454 14.1, 22.259 14.8, 22.692L14.2, 26.955C14.2, 27.642 15.367, 28.004 16.05, 28.004C16.733, 28.004 17.8, 27.642 17.8, 26.955L17.3, 22.692C18.1, 22.26 18.538, 21.454 18.538, 20.53z" fill="#FFFFFF" />
      </g>
    </g>
  </g>
</svg>