<?xml version='1.0' encoding='UTF-8'?>
<svg viewBox="-4.7775 -2 32 32" xmlns="http://www.w3.org/2000/svg" xmlns:xlink="http://www.w3.org/1999/xlink">
  <g id="Layer_1" transform="translate(-3.7433, -0.9962)">
    <g transform="matrix(0.9354, 0, 0, 0.9354, 0, 0)">
      <g id="icon">
        <path d="M23.045, 4.065C21.147, 2.129 18.645, 1.063 16, 1.063C13.356, 1.063 10.854, 2.129 8.955, 4.065C8.537, 4.491 8.161, 4.947 7.828, 5.428C7.663, 5.667 7.729, 5.994 7.978, 6.145L9.695, 7.184C9.918, 7.319 10.209, 7.262 10.359, 7.049C11.645, 5.221 13.715, 4.008 16, 4.008C19.794, 4.008 23, 7.349 23, 11.304L23, 15.4L26, 15.4L26, 11.304C26, 8.579 24.95, 6.008 23.045, 4.065z" fill="#727272" class="Black" />
      </g>
    </g>
  </g>
  <g id="Layer_1" transform="translate(-3.7433, -0.9962)">
    <g transform="matrix(0.9354, 0, 0, 0.9354, 0, 0)">
      <g id="icon">
        <path d="M27.071, 14L4.843, 14C4.385, 14 4, 14.348 4, 14.82L4, 30.146C4, 30.618 4.418, 31 4.876, 31L27.17, 31C27.628, 31 28, 30.618 28, 30.146L28, 14.82C28, 14.348 27.529, 14 27.071, 14zM17.3, 22.692L17.8, 26.955C17.8, 27.642 16.733, 28.004 16.05, 28.004C15.367, 28.004 14.2, 27.642 14.2, 26.955L14.8, 22.692C14.1, 22.26 13.565, 21.455 13.565, 20.53C13.565, 19.15 14.683, 18.031 16.054, 18.031C17.425, 18.031 18.538, 19.15 18.538, 20.53C18.538, 21.454 18.1, 22.26 17.3, 22.692z" fill="#727272" class="Black" />
      </g>
    </g>
  </g>
</svg>