<?xml version='1.0' encoding='UTF-8'?>
<svg viewBox="-2.925 -2 32 32" xmlns="http://www.w3.org/2000/svg" xmlns:xlink="http://www.w3.org/1999/xlink">
  <g id="Layer_1" transform="translate(-1.8694, -0.9527)">
    <g transform="matrix(0.934, 0, 0, 0.934, 0, 0)">
      <g id="icon">
        <path d="M29.756, 6.065C29.595, 5.411 29.009, 4.955 28.331, 4.955C28.28, 4.955 28.229, 4.958 28.179, 4.963C27.685, 5.014 27.186, 5.039 26.694, 5.039C21.47, 5.039 17.939, 2.245 16.981, 1.389C16.714, 1.15 16.368, 1.018 16.009, 1.018C15.688, 1.018 15.37, 1.126 15.115, 1.321C13.663, 2.43 9.772, 5.008 4.977, 5.008C4.592, 5.008 4.205, 4.991 3.825, 4.958C3.781, 4.954 3.738, 4.952 3.694, 4.952C3.013, 4.952 2.426, 5.413 2.266, 6.074C1.554, 9.017 2.071, 18.751 6.31, 24.25C9.148, 27.933 12.225, 30.128 15.718, 30.961C15.828, 30.987 15.942, 31 16.057, 31C16.171, 31 16.285, 30.987 16.397, 30.96C20.762, 29.917 23.6, 26.826 25.586, 24.25C29.845, 18.722 30.449, 8.873 29.756, 6.065zM17.9, 22.649C17.9, 22.853 17.728, 23 17.516, 23L15.557, 23C15.346, 23 15.094, 22.853 15.094, 22.649L15.094, 10.731L13.047, 11.809C12.943, 11.862 12.86, 11.868 12.753, 11.822C12.646, 11.776 12.566, 11.687 12.537, 11.577L12.145, 10.104C12.101, 9.938 12.18, 9.77 12.337, 9.69L15.609, 8.026C15.664, 7.998 15.726, 8.002 15.788, 8.002L17.516, 8.002C17.727, 8.002 17.9, 8.129 17.9, 8.334L17.9, 22.649z" fill="#D11C1C" class="Red" />
      </g>
    </g>
  </g>
</svg>