<?xml version='1.0' encoding='UTF-8'?>
<svg viewBox="-2.925 -2 32 32" xmlns="http://www.w3.org/2000/svg" xmlns:xlink="http://www.w3.org/1999/xlink">
  <g id="Layer_1" transform="translate(-1.8694, -0.9527)">
    <g transform="matrix(0.934, 0, 0, 0.934, 0, 0)">
      <g id="icon">
        <path d="M29.756, 6.065C29.595, 5.411 29.009, 4.955 28.331, 4.955C28.28, 4.955 28.229, 4.958 28.179, 4.963C27.685, 5.014 27.186, 5.039 26.694, 5.039C21.47, 5.039 17.939, 2.245 16.981, 1.389C16.714, 1.15 16.368, 1.018 16.009, 1.018C15.688, 1.018 15.37, 1.126 15.115, 1.321C13.663, 2.43 9.772, 5.008 4.977, 5.008C4.592, 5.008 4.205, 4.991 3.825, 4.958C3.781, 4.954 3.738, 4.952 3.694, 4.952C3.013, 4.952 2.426, 5.413 2.266, 6.074C1.554, 9.017 2.071, 18.751 6.31, 24.25C9.148, 27.933 12.225, 30.128 15.718, 30.961C15.828, 30.987 15.942, 31 16.057, 31C16.171, 31 16.285, 30.987 16.397, 30.96C20.762, 29.917 23.6, 26.826 25.586, 24.25C29.845, 18.722 30.449, 8.873 29.756, 6.065zM21, 22.655C21, 22.855 20.771, 23 20.572, 23L11.543, 23C11.343, 23 11.2, 22.855 11.2, 22.655L11.2, 21.488C11.2, 21.389 11.231, 21.295 11.302, 21.226L12.794, 19.778C16.298, 16.464 17.948, 14.685 17.948, 12.69C17.948, 11.603 17.528, 10.307 15.524, 10.307C14.274, 10.307 13.25, 11 12.751, 11.413C12.664, 11.485 12.549, 11.512 12.44, 11.487C12.331, 11.462 12.239, 11.387 12.193, 11.284L11.584, 9.943C11.516, 9.794 11.556, 9.617 11.682, 9.513C12.831, 8.552 14.366, 8 15.894, 8C19.134, 8 20.585, 10.232 20.585, 12.446C20.585, 15.263 18.519, 17.454 15.6, 20.249L15.113, 20.694L20.572, 20.694C20.772, 20.694 21, 20.876 21, 21.077L21, 22.655z" fill="#FFB115" class="Yellow" />
      </g>
    </g>
  </g>
</svg>