<?xml version='1.0' encoding='UTF-8'?>
<svg viewBox="-2.925 -2 32 32" xmlns="http://www.w3.org/2000/svg" xmlns:xlink="http://www.w3.org/1999/xlink">
  <g id="Layer_1" transform="translate(-1.8694, -0.9527)">
    <g transform="matrix(0.934, 0, 0, 0.934, 0, 0)">
      <g id="icon">
        <path d="M29.756, 6.065C29.595, 5.411 29.009, 4.955 28.331, 4.955C28.28, 4.955 28.229, 4.958 28.179, 4.963C27.685, 5.014 27.186, 5.039 26.694, 5.039C21.47, 5.039 17.939, 2.245 16.981, 1.389C16.714, 1.15 16.368, 1.018 16.009, 1.018C15.688, 1.018 15.37, 1.126 15.115, 1.321C13.663, 2.43 9.772, 5.008 4.977, 5.008C4.592, 5.008 4.205, 4.991 3.825, 4.958C3.781, 4.954 3.738, 4.952 3.694, 4.952C3.013, 4.952 2.426, 5.413 2.266, 6.074C1.554, 9.017 2.071, 18.751 6.31, 24.25C9.148, 27.933 12.225, 30.128 15.718, 30.961C15.828, 30.987 15.942, 31 16.057, 31C16.171, 31 16.285, 30.987 16.397, 30.96C20.762, 29.917 23.6, 26.826 25.586, 24.25C29.845, 18.722 30.449, 8.873 29.756, 6.065zM19.385, 21.623C18.403, 22.494 17.011, 22.955 15.359, 22.955C13.666, 22.955 12.243, 22.421 11.539, 21.964C11.4, 21.874 11.342, 21.7 11.398, 21.544L11.913, 20.122C11.949, 20.022 12.028, 19.945 12.128, 19.909C12.228, 19.873 12.339, 19.886 12.43, 19.94C12.568, 20.022 13.82, 20.744 15.338, 20.744C16.303, 20.744 17.042, 20.499 17.533, 19.999C17.927, 19.598 18.147, 19.048 18.136, 18.459C18.116, 16.682 16.445, 16.085 14.887, 16.085L13.836, 16.085C13.639, 16.085 13.549, 15.854 13.549, 15.657L13.549, 14.256C13.549, 14.059 13.639, 13.908 13.836, 13.908L14.887, 13.908C15.994, 13.908 17.642, 13.377 17.642, 11.925C17.642, 10.829 16.88, 10.197 15.552, 10.197C14.53, 10.197 13.521, 10.653 12.968, 11.044C12.878, 11.108 12.763, 11.126 12.658, 11.094C12.553, 11.062 12.468, 10.983 12.429, 10.88L11.914, 9.522C11.856, 9.37 11.909, 9.198 12.042, 9.105C12.778, 8.585 14.234, 7.978 15.917, 7.978C18.92, 7.978 20.265, 9.809 20.265, 11.624C20.265, 12.987 19.559, 14.124 18.298, 14.841C19.827, 15.446 20.783, 16.789 20.801, 18.454C20.8, 19.69 20.297, 20.814 19.385, 21.623z" fill="#039C23" class="Green" />
      </g>
    </g>
  </g>
</svg>