<?xml version='1.0' encoding='UTF-8'?>
<svg viewBox="-3.8671 -2 32 32" xmlns="http://www.w3.org/2000/svg" xmlns:xlink="http://www.w3.org/1999/xlink">
  <g id="Layer_1" transform="translate(-2.7999, -0.935)">
    <g transform="matrix(0.9333, 0, 0, 0.9333, 0, 0)">
      <g id="icon">
        <polygon points="17,28 17,24.5 15,24.5 15,28 3,28 3,30 29,30 29,28" fill="#039C23" fill-opacity="1" class="Green" />
      </g>
    </g>
  </g>
  <g id="Layer_1" transform="translate(-2.7999, -0.935)">
    <g transform="matrix(0.9333, 0, 0, 0.9333, 0, 0)">
      <g id="icon">
        <path d="M18.475, 31L13.575, 31C13.2712, 31 13, 30.8038 13, 30.5L13, 27.55C13, 27.2462 13.2712, 27 13.575, 27L18.475, 27C18.7788, 27 19.025, 27.2462 19.025, 27.55L19.025, 30.5C19.025, 30.8038 18.7788, 31 18.475, 31z" fill="#727272" fill-opacity="1" class="Black" />
      </g>
    </g>
  </g>
  <g id="Layer_1" transform="translate(-2.7999, -0.935)">
    <g transform="matrix(0.9333, 0, 0, 0.9333, 0, 0)">
      <g id="icon">
        <path d="M16.0172, 1C20.9929, 1 25.0264, 1.9409 25.0264, 3.6755C25.0264, 5.4101 20.9473, 6.5651 15.9716, 6.5651C10.9959, 6.5651 7.0616, 5.4101 7.0616, 3.6755C7.0616, 1.9409 11.0416, 1 16.0172, 1z" fill="#FFB115" fill-opacity="1" class="Yellow" fill-rule="evenodd" />
      </g>
    </g>
  </g>
  <g id="Layer_1" transform="translate(-2.7999, -0.935)">
    <g transform="matrix(0.9333, 0, 0, 0.9333, 0, 0)">
      <g id="icon">
        <path d="M16.0205, 7.4974C20.5418, 7.4974 24.4518, 6.7023 25.028, 5.2136C25.028, 6.8637 25.0265, 18.8823 25.0265, 19.0386C25.0265, 22.2487 20.9929, 24.0553 16.0173, 24.0553C11.0416, 24.0553 7.0081, 22.0845 7.0081, 19.0386C7.0081, 18.9089 6.9812, 5.4067 7.0262, 5.287C7.7413, 6.6584 11.343, 7.4974 16.0205, 7.4974z" fill="#FFB115" fill-opacity="1" class="Yellow" fill-rule="evenodd" />
      </g>
    </g>
  </g>
</svg>