<?xml version='1.0' encoding='UTF-8'?>
<svg viewBox="-2.5475 -2 32 32" xmlns="http://www.w3.org/2000/svg" xmlns:xlink="http://www.w3.org/1999/xlink">
  <g id="Layer_1" transform="translate(-1.4797, -0.9333)">
    <g transform="matrix(0.9333, 0, 0, 0.9333, 0, 0)">
      <g id="icon">
        <path d="M18.572, 26.276C18.281, 26.189 17.94, 26.097 17.605, 25.984C17.278, 25.873 16.981, 25.901 16.724, 26.14C16.6, 26.256 16.495, 26.392 16.381, 26.519C16.214, 26.705 16.042, 26.886 15.88, 27.076C15.679, 27.311 15.62, 27.582 15.732, 27.874C15.87, 28.237 16.021, 28.595 16.165, 28.955C16.286, 29.259 16.166, 29.571 15.873, 29.711C15.191, 30.037 14.508, 30.363 13.826, 30.688C13.531, 30.829 13.211, 30.723 13.055, 30.432C12.891, 30.126 12.721, 29.824 12.565, 29.514C12.385, 29.156 12.107, 28.995 11.707, 29.025C11.332, 29.054 10.955, 29.056 10.58, 29.085C10.273, 29.109 10.048, 29.272 9.924, 29.559C9.77, 29.915 9.624, 30.274 9.472, 30.631C9.361, 30.892 9.091, 31.043 8.816, 30.988C8.012, 30.829 7.249, 30.55 6.525, 30.166C6.264, 30.027 6.163, 29.714 6.258, 29.408C6.37, 29.049 6.484, 28.69 6.58, 28.326C6.659, 28.026 6.574, 27.759 6.348, 27.547C6.057, 27.275 5.762, 27.006 5.465, 26.741C5.228, 26.53 4.955, 26.475 4.658, 26.592C4.304, 26.732 3.953, 26.881 3.601, 27.025C3.296, 27.15 2.983, 27.027 2.844, 26.73C2.524, 26.046 2.203, 25.361 1.883, 24.677C1.741, 24.373 1.844, 24.056 2.139, 23.893C2.46, 23.716 2.783, 23.543 3.104, 23.366C3.408, 23.199 3.554, 22.943 3.536, 22.592C3.516, 22.202 3.508, 21.811 3.482, 21.421C3.461, 21.109 3.311, 20.873 3.022, 20.745C2.678, 20.592 2.331, 20.448 1.985, 20.3C1.658, 20.16 1.515, 19.866 1.61, 19.517C1.698, 19.193 1.77, 18.863 1.887, 18.551C2.045, 18.128 2.233, 17.716 2.42, 17.305C2.517, 17.091 2.828, 16.944 3.106, 17.03C3.494, 17.15 3.88, 17.277 4.273, 17.375C4.553, 17.444 4.808, 17.351 5.006, 17.137C5.281, 16.839 5.553, 16.538 5.819, 16.232C6.022, 15.998 6.076, 15.725 5.964, 15.433C5.828, 15.079 5.682, 14.729 5.54, 14.377C5.407, 14.048 5.526, 13.743 5.845, 13.591C6.512, 13.273 7.182, 12.963 7.843, 12.633C8.142, 12.483 8.515, 12.606 8.661, 12.907C8.825, 13.245 9.009, 13.574 9.193, 13.902C9.341, 14.165 9.579, 14.297 9.874, 14.291C10.285, 14.282 10.696, 14.257 11.106, 14.229C11.422, 14.207 11.65, 14.042 11.777, 13.75C11.927, 13.405 12.071, 13.058 12.211, 12.709C12.337, 12.394 12.668, 12.275 12.905, 12.325C13.698, 12.493 14.453, 12.766 15.171, 13.143C15.429, 13.279 15.537, 13.6 15.447, 13.881C15.346, 14.197 15.259, 14.519 15.162, 14.836C15.112, 15.001 15.069, 15.164 15.11, 15.338C15.151, 15.512 15.232, 15.659 15.366, 15.78C15.652, 16.036 15.933, 16.297 16.217, 16.556C16.466, 16.782 16.748, 16.839 17.061, 16.712C17.403, 16.574 17.743, 16.43 18.085, 16.29C18.407, 16.158 18.713, 16.278 18.86, 16.592C19.18, 17.277 19.5, 17.961 19.821, 18.646C19.955, 18.933 19.85, 19.258 19.571, 19.411C19.244, 19.59 18.917, 19.767 18.591, 19.947C18.286, 20.115 18.144, 20.374 18.162, 20.724C18.182, 21.114 18.192, 21.505 18.217, 21.895C18.237, 22.204 18.387, 22.438 18.671, 22.566C19.022, 22.724 19.376, 22.875 19.734, 23.017C20.003, 23.124 20.185, 23.459 20.092, 23.763C19.974, 24.154 19.886, 24.556 19.748, 24.94C19.619, 25.301 19.449, 25.649 19.284, 25.996C19.168, 26.235 18.888, 26.348 18.572, 26.276zM10.431, 24.058C11.695, 24.274 12.989, 23.464 13.231, 22.067C13.465, 20.716 12.569, 19.499 11.292, 19.259C10.036, 19.023 8.713, 19.824 8.466, 21.244C8.233, 22.592 9.123, 23.82 10.431, 24.058z" fill="#797979" />
      </g>
    </g>
  </g>
  <g id="Layer_1" transform="translate(-1.4797, -0.9333)">
    <g transform="matrix(0.9333, 0, 0, 0.9333, 0, 0)">
      <g id="icon">
        <path d="M17.693, 8.096C17.923, 8.164 18.2, 8.246 18.477, 8.329C18.706, 8.398 18.91, 8.348 19.073, 8.178C19.293, 7.949 19.504, 7.712 19.709, 7.47C19.855, 7.298 19.888, 7.095 19.805, 6.882C19.704, 6.622 19.597, 6.363 19.492, 6.104C19.388, 5.846 19.473, 5.621 19.721, 5.502C20.223, 5.262 20.726, 5.022 21.229, 4.783C21.46, 4.673 21.695, 4.751 21.817, 4.979C21.946, 5.22 22.074, 5.462 22.204, 5.702C22.329, 5.934 22.523, 6.043 22.786, 6.029C23.071, 6.014 23.357, 6.003 23.642, 5.985C23.883, 5.97 24.063, 5.854 24.162, 5.626C24.271, 5.375 24.375, 5.123 24.481, 4.871C24.596, 4.6 24.789, 4.499 25.071, 4.565C25.616, 4.692 26.141, 4.874 26.639, 5.132C26.907, 5.27 26.992, 5.48 26.901, 5.769C26.819, 6.03 26.735, 6.291 26.666, 6.555C26.611, 6.767 26.667, 6.963 26.824, 7.114C27.052, 7.333 27.285, 7.548 27.525, 7.754C27.698, 7.903 27.901, 7.935 28.115, 7.849C28.373, 7.746 28.63, 7.638 28.887, 7.532C29.136, 7.429 29.364, 7.518 29.477, 7.761C29.714, 8.267 29.95, 8.773 30.188, 9.279C30.297, 9.51 30.218, 9.752 29.994, 9.874C29.747, 10.009 29.498, 10.141 29.253, 10.28C29.044, 10.399 28.94, 10.584 28.949, 10.827C28.96, 11.129 28.97, 11.432 28.991, 11.734C29.008, 11.969 29.126, 12.145 29.344, 12.241C29.6, 12.354 29.859, 12.461 30.116, 12.571C30.353, 12.672 30.459, 12.88 30.4, 13.136C30.27, 13.697 30.086, 14.238 29.822, 14.751C29.699, 14.989 29.512, 15.085 29.259, 15.016C29, 14.946 28.743, 14.868 28.488, 14.785C28.248, 14.707 28.004, 14.766 27.833, 14.957C27.637, 15.176 27.439, 15.393 27.245, 15.614C27.083, 15.798 27.045, 16.009 27.135, 16.238C27.237, 16.498 27.344, 16.756 27.448, 17.016C27.546, 17.261 27.455, 17.49 27.218, 17.604C26.715, 17.843 26.213, 18.084 25.71, 18.323C25.477, 18.434 25.244, 18.359 25.12, 18.131C24.99, 17.891 24.862, 17.649 24.733, 17.408C24.608, 17.176 24.415, 17.065 24.152, 17.078C23.861, 17.093 23.569, 17.104 23.279, 17.123C23.047, 17.138 22.874, 17.255 22.778, 17.469C22.662, 17.729 22.555, 17.993 22.446, 18.256C22.344, 18.501 22.121, 18.612 21.87, 18.537C21.529, 18.435 21.187, 18.339 20.851, 18.222C20.651, 18.152 20.461, 18.052 20.269, 17.959C20.029, 17.842 19.947, 17.612 20.033, 17.34C20.116, 17.079 20.199, 16.819 20.268, 16.554C20.326, 16.332 20.263, 16.132 20.096, 15.975C19.876, 15.768 19.653, 15.565 19.428, 15.364C19.251, 15.207 19.046, 15.167 18.824, 15.254C18.573, 15.353 18.322, 15.45 18.077, 15.563C17.816, 15.684 17.55, 15.568 17.441, 15.317C17.221, 14.813 16.979, 14.319 16.746, 13.821C16.64, 13.594 16.717, 13.353 16.937, 13.232C17.186, 13.095 17.438, 12.963 17.685, 12.821C17.894, 12.702 17.996, 12.516 17.986, 12.273C17.974, 11.974 17.963, 11.674 17.944, 11.375C17.929, 11.143 17.817, 10.966 17.603, 10.87C17.345, 10.754 17.083, 10.646 16.823, 10.537C16.574, 10.432 16.475, 10.205 16.543, 9.939C16.638, 9.568 16.734, 9.198 16.887, 8.847C16.964, 8.669 17.045, 8.493 17.131, 8.319C17.23, 8.122 17.432, 8.033 17.693, 8.096zM25.253, 11.868C25.425, 10.878 24.771, 9.938 23.805, 9.755C22.856, 9.575 21.862, 10.204 21.681, 11.239C21.507, 12.23 22.168, 13.184 23.147, 13.355C24.139, 13.528 25.08, 12.863 25.253, 11.868z" fill="#797979" />
      </g>
    </g>
  </g>
  <g id="Layer_1" transform="translate(-1.4797, -0.9333)">
    <g transform="matrix(0.9333, 0, 0, 0.9333, 0, 0)">
      <g id="icon">
        <path d="M10.475, 11.688C10.255, 11.633 10.064, 11.589 9.876, 11.538C9.724, 11.497 9.628, 11.331 9.646, 11.165C9.669, 10.948 9.69, 10.731 9.706, 10.514C9.719, 10.34 9.642, 10.205 9.498, 10.113C9.306, 9.991 9.111, 9.872 8.913, 9.759C8.765, 9.675 8.611, 9.673 8.464, 9.766C8.283, 9.881 8.106, 10.001 7.927, 10.119C7.767, 10.224 7.59, 10.199 7.476, 10.046C7.217, 9.697 6.961, 9.346 6.706, 8.994C6.612, 8.864 6.642, 8.675 6.772, 8.565C6.931, 8.43 7.092, 8.297 7.253, 8.165C7.408, 8.038 7.456, 7.876 7.41, 7.684C7.361, 7.475 7.31, 7.267 7.257, 7.059C7.208, 6.866 7.084, 6.751 6.891, 6.711C6.702, 6.672 6.514, 6.631 6.324, 6.595C6.117, 6.555 6.007, 6.415 6.015, 6.203C6.032, 5.766 6.092, 5.335 6.218, 4.915C6.265, 4.759 6.409, 4.654 6.569, 4.67C6.79, 4.691 7.011, 4.717 7.232, 4.731C7.402, 4.742 7.541, 4.668 7.633, 4.523C7.757, 4.327 7.878, 4.128 7.99, 3.925C8.072, 3.777 8.075, 3.62 7.981, 3.472C7.87, 3.296 7.755, 3.122 7.64, 2.947C7.525, 2.771 7.553, 2.592 7.721, 2.466C8.057, 2.215 8.395, 1.965 8.733, 1.716C8.878, 1.609 9.057, 1.628 9.174, 1.765C9.307, 1.921 9.436, 2.081 9.565, 2.241C9.696, 2.404 9.859, 2.461 10.063, 2.406C10.263, 2.352 10.466, 2.306 10.667, 2.255C10.859, 2.206 10.975, 2.083 11.017, 1.888C11.061, 1.683 11.102, 1.478 11.144, 1.273C11.175, 1.12 11.315, 0.997 11.468, 0.999C11.858, 1.006 12.243, 1.055 12.62, 1.153C12.688, 1.171 12.757, 1.186 12.822, 1.209C12.978, 1.265 13.061, 1.402 13.044, 1.566C13.022, 1.789 12.995, 2.011 12.983, 2.234C12.974, 2.398 13.046, 2.534 13.185, 2.622C13.385, 2.749 13.587, 2.873 13.792, 2.99C13.942, 3.076 14.096, 3.061 14.241, 2.968C14.409, 2.86 14.574, 2.749 14.74, 2.638C14.935, 2.508 15.102, 2.538 15.239, 2.726C15.479, 3.056 15.721, 3.385 15.963, 3.714C16.08, 3.873 16.061, 4.056 15.908, 4.185C15.751, 4.318 15.591, 4.447 15.434, 4.58C15.285, 4.705 15.232, 4.862 15.28, 5.054C15.332, 5.262 15.381, 5.471 15.432, 5.68C15.476, 5.858 15.582, 5.977 15.762, 6.018C15.964, 6.065 16.167, 6.107 16.37, 6.151C16.587, 6.198 16.676, 6.322 16.672, 6.545C16.663, 6.96 16.594, 7.365 16.492, 7.766C16.432, 8.003 16.287, 8.098 16.045, 8.069C15.842, 8.045 15.638, 8.026 15.434, 8.015C15.276, 8.006 15.148, 8.08 15.064, 8.212C14.935, 8.415 14.81, 8.622 14.692, 8.832C14.609, 8.98 14.621, 9.134 14.711, 9.277C14.823, 9.456 14.942, 9.632 15.055, 9.81C15.166, 9.983 15.13, 10.157 14.963, 10.28C14.633, 10.525 14.303, 10.77 13.974, 11.016C13.81, 11.139 13.633, 11.122 13.501, 10.964C13.371, 10.809 13.244, 10.651 13.116, 10.494C12.988, 10.336 12.826, 10.286 12.631, 10.336C12.433, 10.387 12.234, 10.437 12.035, 10.484C11.831, 10.533 11.711, 10.661 11.668, 10.866C11.627, 11.059 11.59, 11.253 11.547, 11.446C11.5, 11.656 11.378, 11.754 11.166, 11.743C10.928, 11.73 10.687, 11.706 10.475, 11.688zM11.111, 7.724C11.85, 7.853 12.56, 7.354 12.689, 6.609C12.816, 5.881 12.357, 5.157 11.579, 5.016C10.843, 4.882 10.137, 5.392 10.008, 6.13C9.876, 6.885 10.367, 7.594 11.111, 7.724z" fill="#797979" />
      </g>
    </g>
  </g>
</svg>