<?xml version='1.0' encoding='UTF-8'?>
<svg viewBox="-2 -2.0025 32 32" xmlns="http://www.w3.org/2000/svg" xmlns:xlink="http://www.w3.org/1999/xlink">
  <g id="Layer_1" transform="translate(-0.9333, -0.937)">
    <g transform="matrix(0.9333, 0, 0, 0.9333, 0, 0)">
      <g id="icon">
        <path d="M24.076, 27.916C23.713, 27.592 23.281, 27.226 22.873, 26.835C22.474, 26.452 22.027, 26.289 21.493, 26.457C21.236, 26.538 20.992, 26.662 20.742, 26.765C20.376, 26.917 20.005, 27.06 19.643, 27.222C19.195, 27.422 18.928, 27.771 18.893, 28.266C18.85, 28.881 18.828, 29.497 18.794, 30.113C18.766, 30.632 18.383, 30.997 17.864, 30.998C16.661, 31 15.455, 31 14.249, 31C13.727, 31 13.336, 30.629 13.305, 30.105C13.272, 29.554 13.23, 29.004 13.212, 28.452C13.191, 27.814 12.897, 27.393 12.298, 27.164C11.736, 26.949 11.189, 26.694 10.627, 26.479C10.167, 26.303 9.733, 26.383 9.36, 26.71C8.899, 27.115 8.446, 27.53 7.987, 27.938C7.651, 28.237 7.16, 28.268 6.798, 28.002C5.741, 27.224 4.824, 26.302 4.034, 25.256C3.749, 24.878 3.813, 24.36 4.155, 23.986C4.558, 23.547 4.964, 23.11 5.347, 22.654C5.663, 22.277 5.719, 21.836 5.534, 21.378C5.295, 20.788 5.049, 20.201 4.796, 19.618C4.595, 19.154 4.237, 18.887 3.729, 18.853C3.123, 18.811 2.516, 18.786 1.909, 18.752C1.384, 18.723 1.014, 18.333 1.012, 17.811C1.008, 16.61 1.003, 15.409 0.999, 14.208C0.997, 13.674 1.358, 13.29 1.895, 13.259C2.478, 13.225 3.062, 13.197 3.645, 13.164C4.197, 13.132 4.579, 12.864 4.789, 12.348C5.022, 11.774 5.272, 11.208 5.496, 10.631C5.675, 10.17 5.616, 9.728 5.284, 9.346C4.889, 8.892 4.483, 8.447 4.081, 7.999C3.701, 7.574 3.692, 7.055 4.063, 6.618C4.407, 6.214 4.733, 5.79 5.112, 5.421C5.624, 4.922 6.172, 4.46 6.719, 3.998C7.003, 3.758 7.552, 3.76 7.897, 4.073C8.378, 4.51 8.851, 4.957 9.354, 5.366C9.712, 5.657 10.144, 5.698 10.574, 5.526C11.172, 5.287 11.767, 5.041 12.357, 4.783C12.807, 4.586 13.069, 4.232 13.103, 3.736C13.144, 3.135 13.167, 2.532 13.198, 1.93C13.227, 1.367 13.603, 1.01 14.166, 1.01C15.344, 1.01 16.521, 1.024 17.699, 1.002C18.232, 0.992 18.69, 1.424 18.699, 1.954C18.71, 2.552 18.756, 3.15 18.802, 3.746C18.839, 4.225 19.095, 4.576 19.527, 4.769C20.127, 5.038 20.738, 5.283 21.351, 5.523C21.822, 5.708 22.264, 5.627 22.644, 5.294C23.092, 4.902 23.534, 4.502 23.97, 4.097C24.363, 3.732 24.922, 3.788 25.231, 4.021C26.266, 4.805 27.175, 5.713 27.961, 6.745C28.244, 7.116 28.184, 7.651 27.865, 7.993C27.506, 8.377 27.166, 8.779 26.813, 9.169C26.63, 9.371 26.459, 9.576 26.401, 9.854C26.344, 10.132 26.362, 10.398 26.476, 10.663C26.718, 11.226 26.95, 11.793 27.188, 12.358C27.396, 12.853 27.767, 13.127 28.304, 13.16C28.892, 13.196 29.48, 13.223 30.068, 13.256C30.622, 13.287 30.985, 13.669 30.987, 14.219C30.991, 15.42 30.996, 16.621 31, 17.823C31.002, 18.326 30.631, 18.721 30.126, 18.749C29.533, 18.783 28.941, 18.812 28.348, 18.847C27.795, 18.879 27.416, 19.154 27.207, 19.668C26.974, 20.242 26.727, 20.81 26.502, 21.386C26.323, 21.844 26.384, 22.282 26.709, 22.659C27.111, 23.125 27.522, 23.585 27.944, 24.034C28.261, 24.371 28.3, 24.976 27.963, 25.35C27.529, 25.83 27.133, 26.346 26.677, 26.803C26.248, 27.233 25.77, 27.616 25.297, 28C24.966, 28.265 24.484, 28.236 24.076, 27.916zM13.783, 19.165C15.467, 20.34 17.882, 20.063 19.169, 18.224C20.414, 16.446 19.933, 14.087 18.247, 12.869C16.588, 11.67 14.137, 11.915 12.828, 13.784C11.585, 15.557 12.05, 17.928 13.783, 19.165z" fill="#797979" />
      </g>
    </g>
  </g>
</svg>