<?xml version='1.0' encoding='UTF-8'?>
<svg viewBox="-1.9825 -2 32 32" xmlns="http://www.w3.org/2000/svg" xmlns:xlink="http://www.w3.org/1999/xlink">
  <g transform="translate(-0.0024, 0)">
    <g transform="matrix(0.8755, 0, 0, 0.8755, 0, 0)">
      <g transform="translate(0, 0)">
        <g transform="translate(0.0047, 0)">
          <g transform="matrix(1.1428, 0, 0, 1.1428, 0, 0)">
            <g id="Layer_1" transform="translate(-4.0296, -0.0153)">
              <g transform="matrix(0.8755, 0, 0, 0.8755, 0, 0)">
                <g id="icon">
                  <path d="M16.045, 9.102C9.724, 9.102 4.6, 14.228 4.6, 20.551C4.6, 26.874 9.724, 32 16.045, 32C22.366, 32 27.49, 26.874 27.49, 20.551C27.49, 14.228 22.365, 9.102 16.045, 9.102zM16.046, 27.568C12.124, 27.568 8.945, 24.463 8.945, 20.634C8.945, 16.804 12.124, 13.7 16.046, 13.7C19.968, 13.7 23.147, 16.805 23.147, 20.634C23.147, 24.464 19.967, 27.568 16.046, 27.568z" fill="#FFB115" class="Yellow" fill-rule="evenodd" />
                </g>
              </g>
            </g>
          </g>
        </g>
      </g>
    </g>
  </g>
  <g transform="translate(-0.0024, 0)">
    <g transform="matrix(0.8755, 0, 0, 0.8755, 0, 0)">
      <g transform="translate(0, 0)">
        <g transform="translate(0.0047, 0)">
          <g transform="matrix(1.1428, 0, 0, 1.1428, 0, 0)">
            <g id="Layer_1" transform="translate(-4.0296, -0.0153)">
              <g transform="matrix(0.8755, 0, 0, 0.8755, 0, 0)">
                <g id="icon">
                  <path d="M16.046, 13.699C19.968, 13.699 23.147, 16.804 23.147, 20.633C23.147, 24.463 19.968, 27.567 16.046, 27.567C12.124, 27.567 8.945, 24.462 8.945, 20.633C8.945, 16.804 12.124, 13.699 16.046, 13.699z" fill="#FFFFFF" fill-rule="evenodd" />
                </g>
              </g>
            </g>
          </g>
        </g>
      </g>
    </g>
  </g>
  <g transform="translate(-0.0024, 0)">
    <g transform="matrix(0.8755, 0, 0, 0.8755, 0, 0)">
      <g transform="translate(0, 0)">
        <g transform="translate(0.0047, 0)">
          <g transform="matrix(1.1428, 0, 0, 1.1428, 0, 0)">
            <g id="Layer_1" transform="translate(-4.0296, -0.0153)">
              <g transform="matrix(0.8755, 0, 0, 0.8755, 0, 0)">
                <g id="icon">
                  <path d="M16.046, 17.554C17.788, 17.554 19.2, 18.933 19.2, 20.634C19.2, 22.335 17.788, 23.714 16.046, 23.714C14.304, 23.714 12.892, 22.335 12.892, 20.634C12.891, 18.933 14.304, 17.554 16.046, 17.554z" fill="#727272" class="Black" fill-rule="evenodd" />
                </g>
              </g>
            </g>
          </g>
        </g>
      </g>
    </g>
  </g>
  <g transform="translate(-0.0024, 0)">
    <g transform="matrix(0.8755, 0, 0, 0.8755, 0, 0)">
      <g transform="translate(0, 0)">
        <g transform="translate(0.0047, 0)">
          <g transform="matrix(1.1428, 0, 0, 1.1428, 0, 0)">
            <g id="Layer_1" transform="translate(-4.0296, -0.0153)">
              <g transform="matrix(0.8755, 0, 0, 0.8755, 0, 0)">
                <g id="icon">
                  <path d="M16.046, 15.048C16.492, 15.048 16.854, 15.401 16.854, 15.837C16.854, 16.273 16.492, 16.626 16.046, 16.626C15.6, 16.626 15.238, 16.273 15.238, 15.837C15.238, 15.401 15.6, 15.048 16.046, 15.048zM20.043, 16.665C20.358, 16.973 20.358, 17.472 20.043, 17.78C19.728, 18.088 19.216, 18.088 18.901, 17.78C18.586, 17.472 18.586, 16.973 18.901, 16.665C19.217, 16.357 19.728, 16.357 20.043, 16.665zM21.669, 20.605C21.669, 21.041 21.307, 21.394 20.861, 21.394C20.415, 21.394 20.053, 21.041 20.053, 20.605C20.053, 20.169 20.415, 19.816 20.861, 19.816C21.307, 19.817 21.669, 20.17 21.669, 20.605zM20.013, 24.509C19.698, 24.817 19.186, 24.817 18.871, 24.509C18.556, 24.201 18.556, 23.702 18.871, 23.394C19.186, 23.086 19.698, 23.086 20.013, 23.394C20.328, 23.702 20.328, 24.201 20.013, 24.509zM16.081, 26.187C15.635, 26.187 15.273, 25.834 15.273, 25.398C15.273, 24.962 15.635, 24.609 16.081, 24.609C16.527, 24.609 16.889, 24.962 16.889, 25.398C16.889, 25.834 16.527, 26.187 16.081, 26.187zM12.083, 24.57C11.768, 24.262 11.768, 23.763 12.083, 23.455C12.398, 23.147 12.91, 23.147 13.225, 23.455C13.54, 23.763 13.54, 24.262 13.225, 24.57C12.91, 24.878 12.399, 24.878 12.083, 24.57zM10.458, 20.63C10.458, 20.194 10.82, 19.841 11.266, 19.841C11.712, 19.841 12.074, 20.194 12.074, 20.63C12.074, 21.066 11.712, 21.419 11.266, 21.419C10.82, 21.419 10.458, 21.066 10.458, 20.63zM12.114, 16.726C12.429, 16.418 12.941, 16.418 13.256, 16.726C13.571, 17.034 13.571, 17.533 13.256, 17.841C12.941, 18.149 12.429, 18.149 12.114, 17.841C11.799, 17.533 11.799, 17.034 12.114, 16.726z" fill="#727272" class="Black" fill-rule="evenodd" />
                </g>
              </g>
            </g>
          </g>
        </g>
      </g>
    </g>
  </g>
  <g transform="translate(-0.0024, 0)">
    <g transform="matrix(0.8755, 0, 0, 0.8755, 0, 0)">
      <g transform="translate(0, 0)">
        <g transform="translate(0.0047, 0)">
          <g transform="matrix(1.1428, 0, 0, 1.1428, 0, 0)">
            <g id="Layer_1" transform="translate(-4.0296, -0.0153)">
              <g transform="matrix(0.8755, 0, 0, 0.8755, 0, 0)">
                <g id="icon">
                  <path d="M8.089, 15.607C9.022, 14.187 10.334, 13.037 11.882, 12.301C11.863, 10.177 11.859, 7.859 11.951, 6.947C12.155, 4.909 13.512, 3.789 15.569, 3.683C17.994, 3.557 19.416, 4.345 19.847, 6.505C20.051, 7.526 20.063, 10.096 20.067, 12.387C21.562, 13.137 22.827, 14.277 23.728, 15.673C23.829, 15.632 23.918, 15.59 23.991, 15.546C23.991, 14.261 24.015, 9.279 23.986, 8.033C23.891, 3.929 21.653, 0.98 18.118, 0.267C12.27, -0.913 8.054, 2.107 8.005, 7.865C7.994, 9.1 8.003, 14.318 8.003, 15.566C8.03, 15.58 8.06, 15.593 8.089, 15.607z" fill="#FFB115" class="Yellow" />
                </g>
              </g>
            </g>
          </g>
        </g>
      </g>
    </g>
  </g>
  <g id="Layer_1" transform="translate(18.0175, 14)">
    <g id="icon">
      <path d="M11.283, 0L3.733, 0C3.338, 0 3, 0.321 3, 0.717L3, 3L12, 3L12, 0.717C12, 0.321 11.679, 0 11.283, 0zM11, 2L9, 2L9, 1L11, 1L11, 2zM3, 15.283C3, 15.679 3.338, 16 3.733, 16L11.283, 16C11.679, 16 12, 15.679 12, 15.283L12, 4L3, 4L3, 15.283zM7.5, 10.2C8.273, 10.2 8.9, 10.827 8.9, 11.6C8.9, 12.373 8.273, 13 7.5, 13C6.727, 13 6.1, 12.373 6.1, 11.6C6.1, 10.827 6.727, 10.2 7.5, 10.2z" fill="#039C23" class="Green" />
    </g>
  </g>
</svg>