<?xml version='1.0' encoding='UTF-8'?>
<svg viewBox="0 0 32 32" xmlns="http://www.w3.org/2000/svg" xmlns:xlink="http://www.w3.org/1999/xlink">
  <g transform="translate(0, 0)">
    <g transform="translate(0, 0)">
      <g transform="translate(0, 0)">
        <g transform="matrix(0.875000715255737, 0, 0, 0.875000715255737, 0, 0)">
          <g transform="translate(0, 0)">
            <g transform="matrix(1.14285719394684, 0, 0, 1.14285719394684, 0, 0)">
              <g id="Layer_1" transform="translate(-2, -2)" style="enable-background:new 0 0 32 32">
                <g id="Settings">
                  <path d="M30, 18L30, 14L25.6, 13.3C25.4, 12.5 25.1, 11.8 24.7, 11.2L27.3, 7.6L24.5, 4.8L20.9, 7.4C20.2, 7 19.5, 6.7 18.8, 6.5L18, 2L14, 2L13.3, 6.4C12.5, 6.6 11.8, 6.9 11.2, 7.3L7.5, 4.7L4.7, 7.5L7.3, 11.1C6.9, 11.8 6.6, 12.5 6.4, 13.2L2, 14L2, 18L6.4, 18.7C6.6, 19.5 6.9, 20.2 7.3, 20.8L4.7, 24.4L7.5, 27.2L11.1, 24.6C11.8, 25 12.5, 25.3 13.2, 25.5L14, 30L18, 30L18.7, 25.6C19.5, 25.4 20.2, 25.1 20.8, 24.7L24.4, 27.3L27.2, 24.5L24.6, 20.9C25, 20.2 25.3, 19.5 25.5, 18.8L30, 18zM16, 20C13.8, 20 12, 18.2 12, 16C12, 13.8 13.8, 12 16, 12C18.2, 12 20, 13.8 20, 16C20, 18.2 18.2, 20 16, 20z" fill="#039C23" class="Green" />
                </g>
              </g>
            </g>
          </g>
        </g>
      </g>
    </g>
  </g>
  <g id="Layer_1" transform="translate(16, 16)" style="enable-background:new 0 0 16 16">
    <g>
      <path d="M8, 14C4.7, 14 2, 13.1 2, 12L2, 14C2, 15.1 4.7, 16 8, 16C11.3, 16 14, 15.1 14, 14L14, 12C14, 13.1 11.3, 14 8, 14z" fill="#FFB115" class="Yellow" />
    </g>
  </g>
  <g id="Layer_1" transform="translate(16, 16)" style="enable-background:new 0 0 16 16">
    <g>
      <path d="M8, 10C4.7, 10 2, 9.1 2, 8L2, 10C2, 11.1 4.7, 12 8, 12C11.3, 12 14, 11.1 14, 10L14, 8C14, 9.1 11.3, 10 8, 10z" fill="#FFB115" class="Yellow" />
    </g>
  </g>
  <g id="Layer_1" transform="translate(16, 16)" style="enable-background:new 0 0 16 16">
    <g>
      <path d="M8, 0C4.7, 0 2, 0.9 2, 2L2, 6C2, 7.1 4.7, 8 8, 8C11.3, 8 14, 7.1 14, 6L14, 2C14, 0.9 11.3, 0 8, 0z" fill="#FFB115" class="Yellow" />
    </g>
  </g>
  <g id="Layer_1" transform="translate(16, 16)" style="enable-background:new 0 0 16 16">
    <g>
      <path d="M8, 12C4.7, 12 2, 11.1 2, 10L2, 12C2, 13.1 4.7, 14 8, 14C11.3, 14 14, 13.1 14, 12L14, 10C14, 11.1 11.3, 12 8, 12z" fill="#FFFFFF" class="White" />
    </g>
  </g>
  <g id="Layer_1" transform="translate(16, 16)" style="enable-background:new 0 0 16 16">
    <g>
      <path d="M8, 8C4.7, 8 2, 7.1 2, 6L2, 8C2, 9.1 4.7, 10 8, 10C11.3, 10 14, 9.1 14, 8L14, 6C14, 7.1 11.3, 8 8, 8z" fill="#FFFFFF" class="White" />
    </g>
  </g>
</svg>