<?xml version='1.0' encoding='UTF-8'?>
<svg viewBox="-2.0275 -2 32 32" xmlns="http://www.w3.org/2000/svg" xmlns:xlink="http://www.w3.org/1999/xlink">
  <g id="Layer_1" transform="translate(-1.0156, -0.931)">
    <g transform="matrix(0.9333, 0, 0, 0.9333, 0, 0)">
      <g id="icon">
        <path d="M23.8122, 5.4549C22.7587, 5.4549 21.759, 5.685 20.8566, 6.0952C19.5989, 3.0934 16.7506, 0.9972 13.436, 0.9972C9.3374, 0.9972 5.951, 4.2013 5.4053, 8.3613C2.9015, 9.1301 1.0866, 11.3991 1.0866, 14.0793C1.0866, 18.8531 5.1903, 19.7795 8.505, 19.9329C8.5293, 19.5806 8.6807, 19.242 8.9316, 18.9919L14.5448, 13.4033C14.6597, 13.293 14.9649, 13 15.4416, 13C15.8924, 13 16.1934, 13.2664 16.3067, 13.3666L16.3284, 13.3858L21.9674, 18.9908C22.2393, 19.262 22.3904, 19.6191 22.3984, 20L24.5132, 20C24.5961, 20 24.7619, 19.9907 24.9681, 19.9541C28.7931, 19.8153 31.0321, 16.6991 31.0321, 12.757C31.0321, 8.7241 27.7997, 5.4549 23.8122, 5.4549z" fill="#1177D7" class="Blue" fill-rule="evenodd" />
      </g>
    </g>
  </g>
  <g id="Layer_1" transform="translate(-1.0156, -0.931)">
    <g transform="matrix(0.9333, 0, 0, 0.9333, 0, 0)">
      <g id="icon">
        <path d="M14, 19.4948L14, 30.705C14.0049, 30.8716 14.125, 31 14.2867, 31L16.7, 31C16.8644, 31 16.999, 30.8655 16.999, 30.701L16.999, 19.5067L21.2, 23.7767C21.2738, 23.8506 21.4, 23.7983 21.4, 23.6939L21.4, 20.0317C21.4, 19.9073 21.3505, 19.7879 21.2624, 19.7L15.6439, 14.1155C15.4682, 13.96 15.4088, 13.96 15.2372, 14.1247L9.6376, 19.7C9.5495, 19.7879 9.5, 19.9073 9.5, 20.0317L9.5, 23.6874C9.5, 23.7918 9.6262, 23.844 9.7, 23.7702L14, 19.4948z" fill="#039C23" class="Green" />
      </g>
    </g>
  </g>
</svg>