<?xml version='1.0' encoding='UTF-8'?>
<svg viewBox="-2 -3.17 32 32" xmlns="http://www.w3.org/2000/svg" xmlns:xlink="http://www.w3.org/1999/xlink">
  <g id="svg10" transform="translate(0.0004, -0.0028)">
    <g transform="matrix(0.0560504570603371, 0, 0, 0.0560504570603371, 0, 0)">
      <g transform="matrix(1.33333265781403, 0, 0, 1.33333265781403, 0, 0.000244140625)">
        <g id="g8" transform="matrix(0.1, 0, 0, -0.1, -32.344, 359.95)">
          <path d="M2055, 3580C1736, 3530 1426, 3398 1140, 3192C1022, 3107 778, 2870 680, 2745C560, 2593 478, 2460 412, 2310C377, 2231 317, 2050 324, 2043C327, 2040 331, 2039 333, 2041C357, 2077 455, 2199 531, 2285C694, 2471 908, 2668 1081, 2792C1163, 2850 1342, 2960 1356, 2960C1361, 2960 1311, 2905 1245, 2838C910, 2496 682, 2118 577, 1730C499, 1442 489, 1111 550, 835C581, 692 670, 470 743, 355C799, 266 883, 155 887, 166C889, 172 877, 215 861, 262C822, 371 786, 516 763, 655C738, 810 738, 1244 763, 1375C832, 1730 941, 1978 1136, 2225C1238, 2355 1305, 2419 1518, 2591C1541, 2610 1530, 2583 1504, 2559C1464, 2523 1339, 2365 1282, 2280C1201, 2158 1098, 1943 1060, 1815C971, 1513 966, 1193 1046, 945C1070, 871 1142, 720 1176, 676C1198, 645 1203, 664 1189, 722C1179, 759 1175, 841 1175, 1000C1176, 1208 1178, 1234 1203, 1347C1231, 1469 1300, 1662 1326, 1690C1343, 1708 1343, 1703 1325, 1607C1277, 1353 1342, 1049 1495, 821C1542, 751 1676, 610 1696, 610C1704, 610 1696, 638 1675, 687C1599, 870 1576, 1002 1576, 1277C1575, 1524 1586, 1566 1614, 1421C1667, 1150 1837, 907 2047, 801C2081, 784 2114, 770 2120, 770C2125, 770 2104, 803 2073, 843C2018, 913 1947, 1048 1916, 1141C1878, 1256 1865, 1353 1865, 1520C1865, 1708 1877, 1766 1942, 1914C1982, 2005 2062, 2138 2068, 2122C2069, 2117 2059, 2082 2044, 2044C2015, 1966 1990, 1832 1990, 1750C1990, 1664 2015, 1523 2045, 1435C2138, 1166 2383, 887 2672, 721C2869, 608 3073, 528 3285, 480C3467, 438 3561, 428 3813, 423C3973, 419 4070, 421 4070, 427C4070, 432 4044, 447 4013, 460C3881, 514 3725, 596 3520, 718C3085, 978 2783, 1262 2650, 1535C2581, 1677 2566, 1744 2572, 1879C2576, 1984 2578, 1993 2618, 2074C2715, 2269 2930, 2389 3242, 2420C3442, 2441 3552, 2407 3614, 2306C3638, 2267 3645, 2243 3648, 2189C3651, 2151 3656, 2120 3660, 2120C3674, 2120 3749, 2180 3800, 2232C3933, 2369 4017, 2601 3992, 2763C3956, 2992 3757, 3162 3441, 3234C3388, 3245 3339, 3259 3333, 3263C3326, 3268 3320, 3286 3320, 3304C3320, 3349 3294, 3369 3175, 3418C2923, 3520 2828, 3550 2651, 3580C2498, 3606 2217, 3606 2055, 3580zM2533, 3254C2556, 3239 2594, 3210 2616, 3189C2670, 3140 2707, 3122 2772, 3112L2825, 3104L2775, 3072C2714, 3032 2692, 3026 2636, 3034C2552, 3047 2470, 3153 2470, 3250C2470, 3287 2479, 3287 2533, 3254zM3425, 3090C3741, 3000 3886, 2768 3779, 2520L3757, 2468L3709, 2523C3659, 2580 3588, 2618 3490, 2640C3383, 2664 3106, 2680 2765, 2680C2461, 2680 2418, 2682 2430, 2694C2451, 2715 2596, 2755 2790, 2794C2976, 2832 3052, 2857 3127, 2907C3191, 2949 3224, 2987 3258, 3057C3282, 3106 3287, 3110 3320, 3110C3339, 3110 3387, 3101 3425, 3090z" fill="#039C23" id="path4" class="Green" />
        </g>
      </g>
    </g>
  </g>
  <g id="svg10" transform="translate(0.000398550415038557, -0.00280061035156276)">
    <g transform="matrix(0.0560504570603371, 0, 0, 0.0560504570603371, 0, 0)">
      <g transform="matrix(1.33333265781403, 0, 0, 1.33333265781403, 0, 0.000244140625)">
        <g id="g8" transform="matrix(0.1, 0, 0, -0.1, -32.344, 359.95)">
          <path d="M3297, 2963C3294, 2958 3289, 2936 3285, 2913L3278, 2871L3332, 2877C3402, 2885 3446, 2906 3430, 2925C3419, 2939 3338, 2970 3314, 2970C3307, 2970 3299, 2967 3297, 2963z" fill="#039C23" id="path6" class="Green" />
        </g>
      </g>
    </g>
  </g>
</svg>