<?xml version='1.0' encoding='UTF-8'?>
<svg viewBox="-2.0025 -2.015 32 32" xmlns="http://www.w3.org/2000/svg" xmlns:xlink="http://www.w3.org/1999/xlink">
  <g id="Layer_1" transform="translate(-0.00239999999999996, -0.0303002098083498)">
    <g transform="matrix(1.75000143051147, 0, 0, 1.75000143051147, 0, 0)">
      <g id="icon">
        <path d="M13.825, 15.5L2.175, 15.5C1.2538, 15.5 0.5, 14.7462 0.5, 13.825L0.5, 5.175C0.5, 4.2537 1.2538, 3.5 2.175, 3.5L13.825, 3.5C14.7462, 3.5 15.5, 4.2537 15.5, 5.175L15.5, 13.825C15.5, 14.7462 14.7462, 15.5 13.825, 15.5z" fill="#FFFFFF" />
      </g>
    </g>
  </g>
  <g id="Layer_1" transform="translate(-0.00240041007995595, -0.0303006866455071)">
    <g transform="matrix(1.75000143051147, 0, 0, 1.75000143051147, 0, 0)">
      <g id="icon">
        <path d="M9.3681, 12.5339C9.1823, 11.5235 8.8518, 11.5067 7.0444, 10.8191C6.7805, 10.7123 6.706, 10.5587 6.7258, 10.3394C7.2356, 9.6828 7.5428, 8.6207 7.5428, 7.8783C7.5427, 6.7283 7.1785, 6 5.6867, 6C5.6806, 6 5.6887, 6 5.6867, 6C4.1949, 6 3.8607, 6.7283 3.8607, 7.8782C3.8607, 8.6207 4.1667, 9.6807 4.6765, 10.3373C4.6963, 10.5566 4.6211, 10.7113 4.3573, 10.818C2.5499, 11.5056 2.2191, 11.523 2.0333, 12.5333C1.9774, 12.9394 1.9681, 13.1097 2.1169, 13.5597C2.2843, 14.0663 4.6508, 14 5.6867, 14C5.6909, 14 5.6796, 14 5.6867, 14C6.7226, 14 9.1169, 14.0665 9.2843, 13.56C9.4331, 13.11 9.4239, 12.94 9.3681, 12.5339z" fill="#039C23" class="Green" fill-rule="evenOdd" />
      </g>
    </g>
  </g>
  <g id="Layer_1" transform="translate(-0.00240190734863432, -0.0303006866455071)">
    <g transform="matrix(1.75000143051147, 0, 0, 1.75000143051147, 0, 0)">
      <g id="icon">
        <path d="M10.5, 10.5L13.5, 10.5M10.5, 8.5L13.5, 8.5M10.5, 12.5L13.5, 12.5" fill="none" stroke="#000000" stroke-width="1px" stroke-linecap="round" stroke-miterlimit="10" />
      </g>
    </g>
  </g>
  <g id="Layer_1" transform="translate(-0.00239999999999974, -0.0303)">
    <g transform="matrix(1.75000143051147, 0, 0, 1.75000143051147, 0, 0)">
      <g id="icon">
        <path d="M9.5, 0.0167L6.5, 0.0167C6.2239, 0.0167 6, 0.2406 6, 0.5167L6, 4.5C6, 4.7761 6.2239, 5 6.5, 5L9.5, 5C9.7761, 5 10, 4.7761 10, 4.5L10, 0.5167C10, 0.2405 9.7761, 0.0167 9.5, 0.0167zM8, 3C7.4477, 3 7, 2.5523 7, 2C7, 1.4477 7.4477, 1 8, 1C8.5523, 1 9, 1.4477 9, 2C9, 2.5523 8.5523, 3 8, 3z" fill="#727272" class="Black" />
      </g>
    </g>
  </g>
  <g id="Layer_1" transform="translate(-0.0024, -0.0303002098083498)">
    <g transform="matrix(1.75000143051147, 0, 0, 1.75000143051147, 0, 0)">
      <g id="icon">
        <path d="M13.825, 3L11, 3C10.7239, 3 10.5, 3.2239 10.5, 3.5L10.5, 3.5C10.5, 3.7761 10.7239, 4 11, 4L13.825, 4C14.4739, 4 15, 4.5261 15, 5.175L15, 13.825C15, 14.4739 14.4739, 15 13.825, 15L2.175, 15C1.5261, 15 1, 14.4739 1, 13.825L1, 5.175C1, 4.5261 1.5261, 4 2.175, 4L5, 4C5.2761, 4 5.5, 3.7761 5.5, 3.5L5.5, 3.5C5.5, 3.2239 5.2761, 3 5, 3L2.175, 3C0.9738, 3 0, 3.9738 0, 5.175L0, 13.825C0, 15.0262 0.9738, 16 2.175, 16L13.825, 16C15.0262, 16 16, 15.0262 16, 13.825L16, 5.175C16, 3.9738 15.0262, 3 13.825, 3z" fill="#727272" class="Black" />
      </g>
    </g>
  </g>
</svg>