<?xml version='1.0' encoding='UTF-8'?>
<svg viewBox="-4 -4.025 32 32" xmlns="http://www.w3.org/2000/svg" xmlns:xlink="http://www.w3.org/1999/xlink">
  <g id="Layer_1" transform="translate(-4.00000228881836, -4.025)" style="enable-background:new 0 0 32 32">
    <g id="Edit">
      <path d="M27.6, 8.2L23.8, 4.4C23.3, 3.9 22.4, 3.9 21.9, 4.4L19.4, 6.9L25.2, 12.7L27.7, 10.2C28.1, 9.6 28.1, 8.8 27.6, 8.2z" fill="#1177D7" class="Blue" />
    </g>
  </g>
  <g id="Layer_1" transform="translate(-4, -4.02499885559082)" style="enable-background:new 0 0 32 32">
    <g id="Edit">
      <polygon points="4,28 9.8,28 4,22.2  " fill="#1177D7" class="Blue" />
    </g>
  </g>
  <g id="Layer_1" transform="translate(-3.99999988555908, -4.024999559021)" style="enable-background:new 0 0 32 32">
    <g id="Edit">
      <rect x="5.8" y="13.4" width="17.6" height="8.2" fill="#1177D7" class="Blue" transform="matrix(0.707, -0.7072, 0.7072, 0.707, -8.0721, 15.4048)" />
    </g>
  </g>
  <g id="Layer_1" transform="translate(12.0000003814697, 11.9750003814697)" style="enable-background:new 0 0 16 16">
    <g id="User">
      <path d="M4, 4.9C3.9, 5.3 4.1, 5.5 4.3, 5.8C4.5, 6.1 4.2, 6.8 4.9, 6.8C4.9, 6.8 4.9, 6.9 4.9, 6.9C5.3, 8.4 6.2, 10 8, 10C9.8, 10 10.8, 8.4 11.2, 6.9C11.2, 6.9 11.2, 6.8 11.2, 6.8C11.9, 6.8 11.6, 6.1 11.8, 5.8C12, 5.5 12.1, 5.3 12, 4.9C11.9, 4.6 11.7, 4.7 11.6, 4.7C12.8, 1.6 10.9, 1.8 10.9, 1.8C10.9, 1.8 10.7, 0 7.2, 0C4, 0 3.6, 2.5 4.3, 4.7C4.3, 4.8 4.1, 4.8 4, 4.9z" fill="#1177D7" class="Blue" />
    </g>
  </g>
  <g id="Layer_1" transform="translate(12, 11.9750003814697)" style="enable-background:new 0 0 16 16">
    <g id="User">
      <path d="M10.7, 10C10.2, 10.9 9.3, 12 8, 12C6.7, 12 5.9, 10.9 5.3, 10C3.8, 12.1 0, 10.6 0, 15.1L0, 16L16, 16L16, 15.1C16, 10.6 12.2, 12.1 10.7, 10z" fill="#1177D7" class="Blue" />
    </g>
  </g>
</svg>