<?xml version='1.0' encoding='UTF-8'?>
<svg viewBox="0 -4 32 32" xmlns="http://www.w3.org/2000/svg" xmlns:xlink="http://www.w3.org/1999/xlink">
  <g id="Layer_1" transform="translate(4, -4)" style="enable-background:new 0 0 32 32">
    <g transform="matrix(-1, 0, 0, 1, 24, 0)">
      <g id="Zoom">
        <path d="M27.7, 25.3L20.5, 18C21.5, 16.6 22, 14.8 22, 13C22, 8 18, 4 13, 4C8, 4 4, 8 4, 13C4, 18 8, 22 13, 22C14.9, 22 16.6, 21.4 18, 20.5L25.3, 27.8C25.6, 28.1 26.2, 28.1 26.5, 27.8L27.7, 26.6C28.1, 26.2 28.1, 25.6 27.7, 25.3zM6, 13C6, 9.1 9.1, 6 13, 6C16.9, 6 20, 9.1 20, 13C20, 16.9 16.9, 20 13, 20C9.1, 20 6, 16.9 6, 13z" fill="#727272" class="Black" />
      </g>
    </g>
  </g>
  <g id="Layer_1" transform="translate(15.9999965667725, 12)" style="enable-background:new 0 0 16 16">
    <g id="User">
      <path d="M4, 4.9C3.9, 5.3 4.1, 5.5 4.3, 5.8C4.5, 6.1 4.2, 6.8 4.9, 6.8C4.9, 6.8 4.9, 6.9 4.9, 6.9C5.3, 8.4 6.2, 10 8, 10C9.8, 10 10.8, 8.4 11.2, 6.9C11.2, 6.9 11.2, 6.8 11.2, 6.8C11.9, 6.8 11.6, 6.1 11.8, 5.8C12, 5.5 12.1, 5.3 12, 4.9C11.9, 4.6 11.7, 4.7 11.6, 4.7C12.8, 1.6 10.9, 1.8 10.9, 1.8C10.9, 1.8 10.7, 0 7.2, 0C4, 0 3.6, 2.5 4.3, 4.7C4.3, 4.8 4.1, 4.8 4, 4.9z" fill="#1177D7" class="Blue" />
    </g>
  </g>
  <g id="Layer_1" transform="translate(15.9999961853027, 12)" style="enable-background:new 0 0 16 16">
    <g id="User">
      <path d="M10.7, 10C10.2, 10.9 9.3, 12 8, 12C6.7, 12 5.9, 10.9 5.3, 10C3.8, 12.1 0, 10.6 0, 15.1L0, 16L16, 16L16, 15.1C16, 10.6 12.2, 12.1 10.7, 10z" fill="#1177D7" class="Blue" />
    </g>
  </g>
</svg>