<svg xmlns="http://www.w3.org/2000/svg" version="1.1" xmlns:xlink="http://www.w3.org/1999/xlink" width="512" height="512" x="0" y="0" viewBox="0 0 512 512" style="enable-background:new 0 0 512 512" xml:space="preserve" class=""><g><path d="M255.633 0C145.341.198 55.994 89.667 55.994 200.006v278.66c0 14.849 17.953 22.285 28.453 11.786l38.216-39.328 54.883 55.994c6.51 6.509 17.063 6.509 23.572 0L256 451.124l54.883 55.994c6.509 6.509 17.062 6.509 23.571 0l54.884-55.994 38.216 39.327c10.499 10.499 28.453 3.063 28.453-11.786V201.719C456.006 91.512 365.84-.197 255.633 0zm-82.969 266.674c-27.572 0-50.001-22.429-50.001-50.001s22.43-50.001 50.001-50.001 50.001 22.43 50.001 50.001-22.429 50.001-50.001 50.001zm166.672 0c-27.572 0-50.001-22.429-50.001-50.001s22.43-50.001 50.001-50.001 50.001 22.43 50.001 50.001-22.429 50.001-50.001 50.001z" fill="#7d7d7d" opacity="1" data-original="#000000" class=""></path></g></svg>