<?xml version='1.0' encoding='UTF-8'?>
<svg viewBox="-2 -3.3625 32 32" xmlns="http://www.w3.org/2000/svg" xmlns:xlink="http://www.w3.org/1999/xlink">
  <g id="Layer_1" transform="translate(-1.2075, -2.2041)">
    <g transform="matrix(0.9476, 0, 0, 0.9476, 0, 0)">
      <g id="icon">
        <polygon points="5,17.1 5,29 13,29 13,22 19,22 19,29 27,29 27,17.1 16,7.5" fill="#1177D7" fill-opacity="1" class="Blue" />
      </g>
    </g>
  </g>
  <g id="Layer_1" transform="translate(-1.2075, -2.2041)">
    <g transform="matrix(0.9476, 0, 0, 0.9476, 0, 0)">
      <g id="icon">
        <path d="M26, 10.598L26, 4L22, 4L22, 7.165L16.66, 2.568C16.281, 2.241 15.719, 2.242 15.341, 2.57L1.444, 14.59C1.235, 14.771 1.212, 15.088 1.394, 15.296L2.706, 16.803C2.887, 17.011 3.203, 17.033 3.411, 16.852L15.956, 5.932L28.693, 16.862C28.903, 17.042 29.218, 17.018 29.398, 16.808L30.7, 15.29C30.88, 15.08 30.856, 14.765 30.646, 14.585L26, 10.598z" fill="#1177D7" fill-opacity="1" class="Blue" />
      </g>
    </g>
  </g>
</svg>