<?xml version='1.0' encoding='UTF-8'?>
<svg viewBox="-2 -2.0025 32 32" xmlns="http://www.w3.org/2000/svg" xmlns:xlink="http://www.w3.org/1999/xlink">
  <g id="Layer_1" transform="translate(-0.9333, -0.9381)">
    <g transform="matrix(0.933333694934845, 0, 0, 0.933333694934845, 0, 0)">
      <g id="icon">
        <path d="M21.741, 1.004C21.017, 1.025 20.314, 1.134 19.642, 1.319C15.328, 2.169 12.074, 5.97 12.074, 10.533C12.074, 11.67 12.276, 12.76 12.646, 13.769C9.862, 16.56 1.191, 25.118 1.191, 25.118C1.069, 25.242 1, 25.409 1, 25.583L1, 30.339C1, 30.704 1.296, 31.001 1.662, 31.001L7.396, 31.001C7.761, 31.001 8, 30.705 8, 30.339L8, 28L10.297, 28C10.662, 28 11, 27.703 11, 27.337L11, 25L13.298, 25C13.663, 25 14, 24.802 14, 24.436L14, 21.2L15.024, 20.157L15.524, 20.673C15.778, 20.929 16.185, 20.935 16.446, 20.687C16.446, 20.687 17.231, 19.879 17.925, 19.232C19.019, 19.678 20.214, 19.926 21.468, 19.926C26.032, 19.926 29.834, 16.67 30.682, 12.355C30.862, 11.7 30.97, 11.017 30.994, 10.313C31.175, 5.111 26.936, 0.854 21.741, 1.004zM24.131, 5.486C25.525, 5.486 26.654, 6.616 26.654, 8.009C26.654, 9.403 25.524, 10.532 24.131, 10.532C22.738, 10.532 21.608, 9.402 21.608, 8.009C21.607, 6.616 22.737, 5.486 24.131, 5.486z" fill="#FFB115" class="Yellow" />
      </g>
    </g>
  </g>
  <g id="Layer_1" transform="translate(14.0000003814697, 13.9975004196167)" style="enable-background:new 0 0 16 16">
    <g id="User">
      <path d="M4, 4.9C3.9, 5.3 4.1, 5.5 4.3, 5.8C4.5, 6.1 4.2, 6.8 4.9, 6.8C4.9, 6.8 4.9, 6.9 4.9, 6.9C5.3, 8.4 6.2, 10 8, 10C9.8, 10 10.8, 8.4 11.2, 6.9C11.2, 6.9 11.2, 6.8 11.2, 6.8C11.9, 6.8 11.6, 6.1 11.8, 5.8C12, 5.5 12.1, 5.3 12, 4.9C11.9, 4.6 11.7, 4.7 11.6, 4.7C12.8, 1.6 10.9, 1.8 10.9, 1.8C10.9, 1.8 10.7, 0 7.2, 0C4, 0 3.6, 2.5 4.3, 4.7C4.3, 4.8 4.1, 4.8 4, 4.9z" fill="#1177D7" class="Blue" />
    </g>
  </g>
  <g id="Layer_1" transform="translate(14, 13.9974994659424)" style="enable-background:new 0 0 16 16">
    <g id="User">
      <path d="M10.7, 10C10.2, 10.9 9.3, 12 8, 12C6.7, 12 5.9, 10.9 5.3, 10C3.8, 12.1 0, 10.6 0, 15.1L0, 16L16, 16L16, 15.1C16, 10.6 12.2, 12.1 10.7, 10z" fill="#1177D7" class="Blue" />
    </g>
  </g>
</svg>