<svg width="100%" height="auto" version="1.1" xmlns="http://www.w3.org/2000/svg" desc="Created with imagetracer.js version 1.2.6" preserveAspectRatio="xMidYMid meet" viewBox="0 0 615 579" style="max-width: 100%; max-height: 70vh;"><path fill="rgb(42,119,177)" stroke="rgb(42,119,177)" stroke-width="1" opacity="1" d="M 90 92 L 524.5 92 L 525 92.5 L 525 195 L 90.5 195 L 90 194.5 L 90 92 Z "/><path fill="rgb(42,119,177)" stroke="rgb(42,119,177)" stroke-width="1" opacity="1" d="M 90 242 L 424.5 242 L 425 242.5 L 425 346 L 90.5 346 L 90 345.5 L 90 242 Z "/><path fill="rgb(42,119,177)" stroke="rgb(42,119,177)" stroke-width="1" opacity="1" d="M 90 391 L 296 391 L 296 497 L 90 497 L 90 391 Z "/><path fill="rgb(254,253,253)" stroke="rgb(254,253,253)" stroke-width="1" opacity="1" d="M 0 0 L 615 0 L 615 579 L 0 579 L 0 0 Z M 90 92 L 90 195 L 91 195 L 525 195 L 525 93 L 525 92 L 90 92 Z M 90 242 L 90 346 L 91 346 L 425 346 L 425 243 L 425 242 L 90 242 Z M 90 391 L 90 497 L 296 497 L 296 391 L 90 391 Z "/></svg>