<?xml version='1.0' encoding='UTF-8'?>
<svg viewBox="-5.0625 -2 32 32" xmlns="http://www.w3.org/2000/svg" xmlns:xlink="http://www.w3.org/1999/xlink">
  <g transform="translate(-3.0626, 0)" style="enable-background:new 0 0 512 512">
    <g transform="matrix(0.0546874962747097, 0, 0, 0.0546874962747097, 0, 0)">
      <g>
        <path d="M255.633, 0C145.341, 0.198 55.994, 89.667 55.994, 200.006L55.994, 478.666C55.994, 493.515 73.947, 500.951 84.447, 490.452L122.663, 451.124L177.546, 507.118C184.056, 513.627 194.609, 513.627 201.118, 507.118L256, 451.124L310.883, 507.118C317.392, 513.627 327.945, 513.627 334.454, 507.118L389.338, 451.124L427.554, 490.451C438.053, 500.95 456.007, 493.514 456.007, 478.665L456.007, 201.719C456.006, 91.512 365.84, -0.197 255.633, 0zM172.664, 266.674C145.092, 266.674 122.663, 244.245 122.663, 216.673C122.663, 189.101 145.093, 166.672 172.664, 166.672C200.235, 166.672 222.665, 189.102 222.665, 216.673C222.665, 244.244 200.236, 266.674 172.664, 266.674zM339.336, 266.674C311.764, 266.674 289.335, 244.245 289.335, 216.673C289.335, 189.101 311.765, 166.672 339.336, 166.672C366.907, 166.672 389.337, 189.102 389.337, 216.673C389.337, 244.244 366.908, 266.674 339.336, 266.674z" fill="#727272" opacity="1" class="Black" />
      </g>
    </g>
  </g>
  <g id="Layer_1" transform="translate(10.9375, 14)" style="enable-background:new 0 0 16 16">
    <g id="AddCircled">
      <circle cx="9" cy="9" r="7" fill="#039C23" class="Green" />
    </g>
  </g>
  <g id="Layer_1" transform="translate(10.9375, 14)" style="enable-background:new 0 0 16 16">
    <g id="AddCircled">
      <polygon points="14,8 10,8 10,4 8,4 8,8 4,8 4,10 8,10 8,14 10,14 10,10 14,10  " fill="#FFFFFF" class="White" />
    </g>
  </g>
</svg>