<?xml version='1.0' encoding='UTF-8'?>
<svg viewBox="0 -0.9325 32 32" xmlns="http://www.w3.org/2000/svg" xmlns:xlink="http://www.w3.org/1999/xlink">
  <g id="Layer_1" transform="translate(-0.935100610351563, -0.935000305175782)">
    <g transform="matrix(0.9333, 0, 0, 0.9333, 0, 0)">
      <g id="icon">
        <path d="M17.0295, 20L14.9795, 20C14.4435, 20 14.009, 19.5655 14.009, 19.0295L14.009, 14.9704C14.009, 14.4344 14.4435, 13.9999 14.9795, 13.9999L17.0295, 13.9999C17.5655, 13.9999 18, 14.4344 18, 14.9704L18, 19.0295C18, 19.5655 17.5655, 20 17.0295, 20z" fill="#727272" fill-opacity="1" class="Black" />
      </g>
    </g>
  </g>
  <g id="Layer_1" transform="translate(-0.9351, -0.935000514984131)">
    <g transform="matrix(0.9333, 0, 0, 0.9333, 0, 0)">
      <g id="icon">
        <path d="M29.8, 6L2.2, 6C1.54, 6 1, 6.54 1, 7.2L1, 15.35C1, 16.2575 1.7425, 17 2.65, 17L13, 17L13, 14.9875C13, 13.8898 13.8898, 13 14.9875, 13L17.0125, 13C18.1102, 13 19, 13.8898 19, 14.9875L19, 17L29.35, 17C30.2575, 17 31, 16.2575 31, 15.35L31, 7.2C31, 6.54 30.46, 6 29.8, 6z" fill="#FFB115" fill-opacity="1" class="Yellow" />
      </g>
    </g>
  </g>
  <g id="Layer_1" transform="translate(-0.935100801086426, -0.935)">
    <g transform="matrix(0.9333, 0, 0, 0.9333, 0, 0)">
      <g id="icon">
        <path d="M11, 3.45C11, 3.2025 11.2025, 3 11.45, 3L20.5375, 3C20.7919, 3 21, 3.2081 21, 3.4625L21, 5L23, 5L23, 3.3011C23, 2.0355 21.9645, 1 20.6989, 1L11.283, 1C10.0221, 1 9, 2.0221 9, 3.283L9, 5L11, 5L11, 3.45z" fill="#FFB115" fill-opacity="1" class="Yellow" />
      </g>
    </g>
  </g>
  <g id="Layer_1" transform="translate(-0.9351, -0.935001182556153)">
    <g transform="matrix(0.9333, 0, 0, 0.9333, 0, 0)">
      <g id="icon">
        <path d="M19, 18L19, 19.0125C19, 20.1102 18.1102, 21 17.0125, 21L14.9875, 21C13.8898, 21 13, 20.1102 13, 19.0125L13, 18L1, 18L1, 27.7727C1, 28.4327 1.54, 29 2.2, 29L29.8, 29C30.46, 29 31, 28.4327 31, 27.7727L31, 18L19, 18z" fill="#FFB115" fill-opacity="1" class="Yellow" />
      </g>
    </g>
  </g>
  <g id="Layer_1" transform="translate(-0.935100390624999, -0.934999851226807)">
    <g transform="matrix(0.9333, 0, 0, 0.9333, 0, 0)">
      <g id="icon">
        <rect x="9" y="5" width="2" height="1" fill="#FFB115" fill-opacity="1" class="Yellow" />
      </g>
    </g>
  </g>
  <g id="Layer_1" transform="translate(-0.935100170898437, -0.934999851226807)">
    <g transform="matrix(0.9333, 0, 0, 0.9333, 0, 0)">
      <g id="icon">
        <rect x="21" y="5" width="2" height="1" fill="#FFB115" fill-opacity="1" class="Yellow" />
      </g>
    </g>
  </g>
  <g id="Layer_1" transform="translate(16, 15.0675010681152)" style="enable-background:new 0 0 16 16">
    <g id="Edit_1_">
      <polygon points="0,16 4,16 0,12  " fill="#1177D7" class="Blue" />
    </g>
  </g>
  <g id="Layer_1" transform="translate(16.0000010238647, 15.0675000457764)" style="enable-background:new 0 0 16 16">
    <g id="Edit_1_">
      <rect x="1.9" y="6.5" width="9.5" height="5.6" fill="#1177D7" class="Blue" transform="matrix(0.7071, -0.7071, 0.7071, 0.7071, -4.6432, 7.4493)" />
    </g>
  </g>
  <g id="Layer_1" transform="translate(15.9999996185303, 15.0674997329712)" style="enable-background:new 0 0 16 16">
    <g id="Edit_1_">
      <path d="M15.6, 2.5L13.5, 0.4C13, -0.1 12.1, -0.1 11.6, 0.4L9.4, 2.7L13.4, 6.7L15.7, 4.4C16.1, 3.9 16.1, 3 15.6, 2.5z" fill="#1177D7" class="Blue" />
    </g>
  </g>
  <g id="Layer_1" transform="translate(16.0000001220703, 15.0674993881226)" style="enable-background:new 0 0 16 16">
    <g id="Edit_1_">
      <rect x="1.7" y="10.5" width="1.9" height="5.6" fill="#FFFFFF" class="White" transform="matrix(0.7071, -0.7071, 0.7071, 0.7071, -8.6546, 5.7876)" />
    </g>
  </g>
  <g id="Layer_1" transform="translate(16.000000567627, 15.067500163269)" style="enable-background:new 0 0 16 16">
    <g id="Edit_1_">
      <rect x="9.7" y="2.5" width="1.9" height="5.6" fill="#FFFFFF" class="White" transform="matrix(0.7071, -0.7071, 0.7071, 0.7071, -0.6318, 9.1109)" />
    </g>
  </g>
</svg>