<?xml version='1.0' encoding='UTF-8'?>
<svg viewBox="-2 -2 32 32" xmlns="http://www.w3.org/2000/svg" xmlns:xlink="http://www.w3.org/1999/xlink">
  <g id="Layer_1" transform="translate(-2, -4)" style="enable-background:new 0 0 32 32">
    <g id="Briefcase">
      <rect x="14" y="14" width="4" height="4" fill="#727272" class="Black" />
    </g>
  </g>
  <g id="Layer_1" transform="translate(-2, -4.00000095367432)" style="enable-background:new 0 0 32 32">
    <g id="Briefcase">
      <path d="M20, 19C20, 19.5 19.5, 20 19, 20L13, 20C12.5, 20 12, 19.5 12, 19L12, 16L2, 16L2, 27C2, 27.5 2.5, 28 3, 28L29, 28C29.5, 28 30, 27.5 30, 27L30, 16L20, 16L20, 19z" fill="#FFB115" class="Yellow" />
    </g>
  </g>
  <g id="Layer_1" transform="translate(-2, -4)" style="enable-background:new 0 0 32 32">
    <g id="Briefcase">
      <path d="M29, 8L22, 8L22, 5C22, 4.5 21.5, 4 21, 4L11, 4C10.5, 4 10, 4.5 10, 5L10, 8L3, 8C2.5, 8 2, 8.5 2, 9L2, 14L12, 14L12, 13C12, 12.5 12.5, 12 13, 12L19, 12C19.5, 12 20, 12.5 20, 13L20, 14L30, 14L30, 9C30, 8.5 29.5, 8 29, 8zM20, 8L12, 8L12, 6L20, 6L20, 8z" fill="#FFB115" class="Yellow" />
    </g>
  </g>
  <g id="Layer_1" transform="translate(14, 14)" style="enable-background:new 0 0 16 16">
    <g id="DeleteCircled_1_">
      <circle cx="8" cy="8" r="8" fill="#D11C1C" class="Red" />
    </g>
  </g>
  <g id="Layer_1" transform="translate(13.9999992370605, 13.9999992370605)" style="enable-background:new 0 0 16 16">
    <g id="DeleteCircled_1_">
      <polygon points="12.2,5.2 10.8,3.8 8,6.6 5.2,3.8 3.8,5.2 6.6,8 3.8,10.8 5.2,12.2 8,9.4 10.8,12.2 12.2,10.8 9.4,8     " fill="#FFFFFF" class="White" />
    </g>
  </g>
</svg>