<svg xmlns="http://www.w3.org/2000/svg" version="1.1" xmlns:xlink="http://www.w3.org/1999/xlink" width="512" height="512" x="0" y="0" viewBox="0 0 506.828 506.828" style="enable-background:new 0 0 512 512" xml:space="preserve" class=""><g><path d="M253.414 103.434c48.556 0 87.919 40.52 87.919 90.505s-39.363 90.505-87.919 90.505-87.919-40.521-87.919-90.505 39.363-90.505 87.919-90.505zm0 36.202c-28.324 0-51.717 24.081-51.717 54.303s23.393 54.303 51.717 54.303 51.717-24.081 51.717-54.303-23.393-54.303-51.717-54.303z" fill="#707070" opacity="1" data-original="#000000" class=""></path><path d="M253.414 0c139.957 0 253.414 113.457 253.414 253.414 0 94.285-51.491 176.544-127.886 220.19-35.728 20.575-77.036 32.582-121.104 33.199l-4.423.025C113.457 506.828 0 393.371 0 253.414S113.457 0 253.414 0zm-23.676 346.505c-46.331 0-87.479 29.378-102.607 73.008l-2.339 7.571c35.919 27.232 80.165 42.893 126.504 43.522l5.709-.009c38.24-.62 74.079-11.122 105.072-29.064l19.977-13.243-2.237-6.866c-14.371-44.046-55.062-74.052-101.239-74.901zm23.676-310.303c-119.963 0-217.212 97.249-217.212 217.212 0 57.493 22.337 109.77 58.807 148.624 21.668-55.072 74.965-91.735 134.73-91.735h46.831c59.905 0 113.311 36.835 134.885 92.121 36.686-38.892 59.172-91.325 59.172-149.01-.001-119.963-97.25-217.212-217.213-217.212z" fill="#707070" opacity="1" data-original="#000000" class=""></path></g></svg>