<?xml version='1.0' encoding='UTF-8'?>
<svg viewBox="-2.0025 -2 32 32" xmlns="http://www.w3.org/2000/svg" xmlns:xlink="http://www.w3.org/1999/xlink">
  <g id="Layer_1" transform="translate(-0.9351, -0.9351)">
    <g transform="matrix(0.9333, 0, 0, 0.9333, 0, 0)">
      <g id="icon">
        <path d="M21.011, 16.986C20.866, 16.698 20.767, 16.721 19.969, 15.397C19.464, 15.714 17.021, 16.532 16.025, 16.572C15.029, 16.533 12.586, 15.714 12.081, 15.397C11.283, 16.721 11.149, 16.653 11.004, 16.941C13.857, 24.212 15.032, 29.583 15.032, 29.583L16.006, 30.368C16.006, 30.389 16.006, 30.4 16.006, 30.4L16.026, 30.384L16.046, 30.4C16.046, 30.4 16.046, 30.389 16.046, 30.369L17.077, 29.559C17.076, 29.559 18.178, 24.207 21.011, 16.986z" fill="#FFFFFF" fill-opacity="1" class="White" fill-rule="evenodd" />
      </g>
    </g>
  </g>
  <g id="Layer_1" transform="translate(-0.9351, -0.9351)">
    <g transform="matrix(0.9333, 0, 0, 0.9333, 0, 0)">
      <g id="icon">
        <path d="M11.483, 10.19C11.543, 10.401 11.411, 10.617 11.188, 10.673C11.188, 10.673 10.977, 10.727 10.651, 10.809C9.911, 10.997 8.941, 12.605 8.154, 12.805C7.775, 12.901 7.17, 13.083 7.17, 13.083C6.948, 13.139 6.719, 13.014 6.66, 12.804C6.6, 12.593 6.732, 12.377 6.955, 12.321C6.955, 12.321 7.283, 12.21 7.652, 12.116C8.45, 11.913 9.469, 10.293 10.206, 10.106C10.51, 10.029 10.973, 9.911 10.973, 9.911C11.195, 9.855 11.423, 9.98 11.483, 10.19zM9.197, 13.609C9.257, 13.82 9.125, 14.036 8.902, 14.092L7.158, 14.535C6.936, 14.591 6.707, 14.466 6.648, 14.256C6.588, 14.045 6.72, 13.829 6.943, 13.773L8.687, 13.33C8.909, 13.273 9.138, 13.398 9.197, 13.609zM9.082, 15.196C9.142, 15.407 9.01, 15.623 8.787, 15.679L7.043, 16.122C6.821, 16.178 6.592, 16.053 6.533, 15.843C6.473, 15.632 6.605, 15.416 6.828, 15.36L8.572, 14.917C8.794, 14.861 9.023, 14.986 9.082, 15.196zM11.635, 16.926C11.695, 17.137 11.563, 17.353 11.34, 17.409C11.34, 17.409 10.935, 17.412 10.535, 17.513C9.803, 17.699 8.385, 17.105 7.638, 17.295C7.216, 17.402 7.063, 17.441 7.063, 17.441C6.841, 17.497 6.612, 17.372 6.553, 17.162C6.493, 16.951 6.625, 16.735 6.848, 16.679C6.848, 16.679 7.127, 16.608 7.538, 16.504C8.29, 16.313 9.737, 16.9 10.473, 16.713C10.863, 16.614 11.125, 16.648 11.125, 16.648C11.346, 16.591 11.575, 16.716 11.635, 16.926z" fill="#727272" fill-opacity="1" class="Black" fill-rule="evenodd" />
      </g>
    </g>
  </g>
  <g id="Layer_1" transform="translate(-0.9351, -0.9351)">
    <g transform="matrix(0.9333, 0, 0, 0.9333, 0, 0)">
      <g id="icon">
        <path d="M30.95, 27.127C29.974, 20.063 30.322, 20.043 21.935, 17.222C20.733, 16.672 20.733, 16.672 20.253, 17.379C19.244, 20.182 18.114, 23.507 17.268, 26.035C17.064, 24.356 16.859, 22.415 16.871, 21.444C17.345, 20.897 17.729, 20.662 17.717, 20.105C17.764, 18.876 17.28, 19.115 15.976, 19.115C14.672, 19.115 14.209, 18.877 14.162, 20.108C14.162, 20.677 14.714, 20.865 15.072, 21.443C15.046, 22.412 14.871, 24.299 14.702, 25.947C13.859, 23.429 12.744, 20.15 11.747, 17.38C11.267, 16.672 11.267, 16.672 10.065, 17.223C1.678, 20.044 2.026, 20.065 1.05, 27.128C0.45, 30.972 5.237, 30.98 15.965, 31.001L15.965, 31.001C15.977, 31.001 15.988, 31.001 16, 31.001C16.012, 31.001 16.023, 31.001 16.035, 31.001L16.035, 31.001C26.763, 30.979 31.55, 30.97 30.95, 27.127z" fill="#727272" fill-opacity="1" class="Black" fill-rule="evenodd" />
      </g>
    </g>
  </g>
  <g id="Layer_1" transform="translate(-0.9351, -0.9351)">
    <g transform="matrix(0.9333, 0, 0, 0.9333, 0, 0)">
      <g id="icon">
        <path d="M15.963, 1C11.452, 1 8.883, 3.584 8.883, 7.686C8.883, 12.763 11.553, 18.591 15.93, 18.591C20.307, 18.591 22.976, 12.797 22.976, 7.686C22.976, 3.584 20.473, 1 15.963, 1zM15.999, 16.938C12.59, 16.938 10.489, 11.436 10.489, 8.003C10.489, 4.57 12.745, 2.409 16.024, 2.409C19.252, 2.409 21.508, 4.571 21.508, 8.003C21.509, 11.435 19.409, 16.938 15.999, 16.938z" fill="#727272" fill-opacity="1" class="Black" fill-rule="evenodd" />
      </g>
    </g>
  </g>
  <g id="Layer_1" transform="translate(-0.9351, -0.9351)">
    <g transform="matrix(0.9333, 0, 0, 0.9333, 0, 0)">
      <g id="icon">
        <path d="M16.025, 2.408C19.253, 2.408 21.509, 4.57 21.509, 8.002C21.509, 11.435 19.409, 16.937 16, 16.937C12.591, 16.937 10.49, 11.435 10.49, 8.002C10.49, 4.57 12.746, 2.408 16.025, 2.408z" fill="#FFFFFF" fill-opacity="1" class="White" fill-rule="evenodd" />
      </g>
    </g>
  </g>
  <g id="Layer_1" transform="translate(-0.9351, -0.9351)">
    <g transform="matrix(0.9333, 0, 0, 0.9333, 0, 0)">
      <g id="icon">
        <path d="M19.581, 8.418C18.717, 8.513 17.763, 8.692 17.197, 9.045C16.868, 9.15 16.481, 9.128 16.002, 9.128C15.482, 9.128 15.185, 9.156 14.839, 9.017C14.794, 8.999 14.753, 8.991 14.716, 8.991C14.142, 8.673 13.242, 8.507 12.423, 8.417C11.087, 8.27 9.889, 8.471 9.889, 9.353C9.889, 10.234 11.194, 11.389 12.659, 11.389C14.48, 11.459 15.248, 10.736 15.307, 9.898C15.362, 9.894 15.399, 9.87 15.408, 9.816C15.457, 9.508 15.599, 9.666 16.003, 9.666C16.407, 9.666 16.549, 9.508 16.598, 9.816C16.607, 9.87 16.644, 9.894 16.699, 9.898C16.758, 10.736 17.526, 11.459 19.347, 11.389C20.812, 11.389 22.117, 10.234 22.117, 9.353C22.115, 8.472 20.916, 8.271 19.581, 8.418z" fill="#727272" fill-opacity="1" class="Black" fill-rule="evenodd" />
      </g>
    </g>
  </g>
  <g id="Layer_1" transform="translate(-0.9351, -0.9351)">
    <g transform="matrix(0.9333, 0, 0, 0.9333, 0, 0)">
      <g id="icon">
        <path d="M15.93, 2.096C18.402, 2.096 22.727, 2.543 22.403, 8.422C21.24, 4.522 18.485, 6.501 16.088, 6.501C13.692, 6.501 11.107, 4.537 9.515, 8.437C9.515, 2.128 13.458, 2.096 15.93, 2.096z" fill="#727272" fill-opacity="1" class="Black" fill-rule="evenodd" />
      </g>
    </g>
  </g>
</svg>