<?xml version='1.0' encoding='UTF-8'?>
<svg viewBox="-4.8275 -2 32 32" xmlns="http://www.w3.org/2000/svg" xmlns:xlink="http://www.w3.org/1999/xlink">
  <g id="Layer_1" transform="translate(-3.7608, -0.9333)">
    <g transform="matrix(0.9333, 0, 0, 0.9333, 0, 0)">
      <g id="icon">
        <path d="M10.3272, 2.6794C10.2442, 2.5334 10.249, 2.3643 10.3401, 2.2155C10.7665, 1.5198 13.6702, 1 15.9815, 1C16.3459, 1 16.6985, 1.0122 17.0296, 1.0363C18.0526, 1.0931 20.984, 1.4838 21.3359, 2.2362C21.4112, 2.3973 21.3869, 2.5762 21.2693, 2.721C21.0612, 2.9772 20.6533, 3.0999 19.9854, 3.0999L19.9853, 3.0999C19.4607, 3.0999 18.8429, 3.0263 18.2455, 2.9585C17.7923, 2.907 17.3641, 2.8567 17.0186, 2.8438C16.7331, 2.8269 16.4345, 2.8177 16.1245, 2.8177C15.1365, 2.8177 14.1618, 2.9002 13.3019, 2.9734C12.624, 3.0311 12.0385, 3.0807 11.5668, 3.0807C11.0665, 3.0807 10.528, 3.0328 10.3272, 2.6794zM6.3369, 8.5631C6.7735, 8.5631 7.4145, 8.3056 8.3018, 7.9492C10.0066, 7.2645 12.5827, 6.2297 15.7359, 6.2297C16.2174, 6.2297 16.703, 6.2543 17.1794, 6.3027L17.1948, 6.3039C20.0749, 6.4398 22.2804, 7.4148 23.7397, 8.0776C24.5694, 8.4544 25.1689, 8.7 25.6145, 8.7C25.6146, 8.7 25.6146, 8.7 25.6146, 8.7C25.871, 8.7 26.0727, 8.6385 26.2139, 8.4646C26.3047, 8.3527 26.4306, 8.1249 26.2532, 7.7677C25.6085, 6.4699 21.2006, 4.4379 16.6619, 4.3854C16.304, 4.3612 15.9372, 4.3523 15.5715, 4.3523C10.642, 4.3523 6.3579, 6.5238 5.7617, 7.6584C5.5889, 7.9873 5.6968, 8.2136 5.7765, 8.3188C5.8606, 8.4299 6.0261, 8.5631 6.3369, 8.5631zM26.0541, 21.3354C25.9656, 21.259 25.8856, 21.1902 25.8191, 21.1307C24.627, 20.0648 24.1139, 19.1857 23.5199, 18.1678C23.2349, 17.6795 22.9404, 17.1746 22.5505, 16.6194C21.6721, 15.3678 19.293, 12.4322 16.1818, 12.2049C13.2494, 11.99 10.8599, 13.276 9.1018, 16.0102C7.5507, 18.4226 7.2893, 22.6471 10.202, 26.6465L10.2395, 26.6882C10.892, 27.2768 11.3515, 27.8176 11.6869, 28.2127C12.1319, 28.7366 12.4005, 29.0528 12.7534, 29.0528C12.9269, 29.0528 13.0884, 28.9712 13.2333, 28.8102C13.8408, 28.1347 13.2657, 27.2968 12.313, 25.9085C12.2149, 25.7656 12.1121, 25.6159 12.005, 25.4581C10.0647, 22.6207 10.1067, 20.5577 10.3161, 18.688C10.511, 16.9478 13.0869, 14.0617 15.4852, 14.0617C15.538, 14.0617 15.5905, 14.0631 15.6429, 14.0661C18.0032, 14.2011 19.1205, 15.6544 20.1061, 16.9367C20.3407, 17.2418 20.5623, 17.5301 20.7916, 17.7884C21.3041, 18.3657 21.5959, 18.8173 21.9338, 19.3401C22.3506, 19.9851 22.8229, 20.7162 23.8247, 21.8296C24.9608, 23.0623 26.2044, 23.8906 26.9192, 23.8906C27.1882, 23.8906 27.3973, 23.7779 27.5078, 23.5734C27.8431, 22.9535 27.0114, 22.161 26.0541, 21.3354zM24.9563, 26.7307C22.4471, 25.4912 20.844, 22.6659 20.0736, 21.3081C19.9738, 21.1324 19.8895, 20.9837 19.8205, 20.8695C19.7176, 20.699 19.6104, 20.4637 19.4861, 20.1912C18.9571, 19.0303 18.0716, 17.0871 15.7636, 17.0871C15.7341, 17.0871 15.7046, 17.0875 15.6762, 17.088C13.9349, 17.1148 13.0287, 18.0684 12.8243, 20.0888C12.6444, 21.8684 13.5536, 24.0164 15.6039, 26.6553L15.6207, 26.6749C16.0544, 27.1347 16.5365, 27.6844 17.0027, 28.2117C18.7144, 30.147 19.5185, 31 20.0356, 31C20.0357, 31 20.0357, 31 20.0357, 31C20.1773, 31 20.3008, 30.9362 20.3836, 30.829C21.1808, 29.7966 20.5377, 29.1574 18.984, 27.6188C18.6234, 27.2616 18.2147, 26.8557 17.7468, 26.3742C16.3032, 24.677 15.0784, 22.0805 14.9011, 21.1059C14.7834, 20.4586 14.9441, 19.6835 15.275, 19.3029C15.4395, 19.1137 15.6254, 19.0334 15.8489, 19.0584L15.8702, 19.0599C16.5523, 19.0832 17.3515, 20.6653 17.9938, 21.9367C18.3582, 22.6582 18.7026, 23.3399 19.0605, 23.8686C20.9153, 26.622 24.6142, 29.2084 25.794, 29.2084C26.1152, 29.2084 26.2426, 29.0386 26.29, 28.9375C26.7253, 28.0075 25.2956, 26.8982 24.9563, 26.7307zM24.1843, 11.4275C22.4193, 9.8638 19.0728, 8.1807 15.8959, 8.1807C15.7192, 8.1807 15.5421, 8.1859 15.374, 8.1959C12.8286, 8.3052 10.1718, 9.2128 8.0889, 10.6833C5.0264, 12.7659 3.8805, 16.3864 4.0449, 18.292C4.0947, 18.8695 4.2671, 19.2304 4.5574, 19.3649C4.6281, 19.3976 4.7007, 19.4142 4.7733, 19.4142L4.7734, 19.4142C5.2373, 19.4142 5.4109, 18.8703 5.7261, 17.8833C6.2352, 16.2883 7.0874, 13.619 9.6633, 12.0639C10.9987, 11.2452 12.6371, 10.3851 14.6642, 10.2128C15.1241, 10.1737 15.5648, 10.1539 15.9739, 10.1539C18.7276, 10.1539 20.3628, 11.0096 22.7805, 12.8074C23.4159, 13.28 24.2213, 14.1691 25.0001, 15.029C26.2434, 16.4015 26.9717, 17.1781 27.4856, 17.1781C27.6045, 17.1781 27.7125, 17.1391 27.7978, 17.0653C27.8748, 16.9989 27.9667, 16.8747 27.9681, 16.6599C27.9749, 15.5799 25.4836, 12.5787 24.1843, 11.4275z" fill="#1177D7" class="Blue" />
      </g>
    </g>
  </g>
</svg>