<?xml version='1.0' encoding='UTF-8'?>
<svg viewBox="-2 -4.535 32 32" xmlns="http://www.w3.org/2000/svg" xmlns:xlink="http://www.w3.org/1999/xlink">
  <g id="Layer_1" transform="translate(-0.9333, -7.4683)">
    <g transform="matrix(0.9333, 0, 0, 0.9333, 0, 0)">
      <g id="icon">
        <rect x="2" y="9" width="28" height="14" rx="0" ry="0" fill="#FFFFFF" fill-rule="evenodd" />
      </g>
    </g>
  </g>
  <g id="Layer_1" transform="translate(-0.9333, -7.4683)">
    <g transform="matrix(0.9333, 0, 0, 0.9333, 0, 0)">
      <g id="icon">
        <path d="M1, 8.8L1, 23.2C1, 23.642 1.358, 24 1.8, 24L30.2, 24C30.642, 24 31, 23.642 31, 23.2L31, 8.8C31, 8.358 30.642, 8 30.2, 8L1.8, 8C1.358, 8 1, 8.358 1, 8.8zM2, 23L2, 9L30, 9L30, 23L2, 23z" fill="#727272" class="Black" fill-rule="evenodd" />
      </g>
    </g>
  </g>
  <g id="Layer_1" transform="translate(-0.9333, -7.4683)">
    <g transform="matrix(0.9333, 0, 0, 0.9333, 0, 0)">
      <g id="icon">
        <path d="M22.733, 11L23.733, 11C23.88, 11 24, 10.881 24, 10.733L24, 10.266C24, 10.119 23.881, 9.999 23.733, 9.999L22.733, 9.999C22.25, 9.999 21.814, 10.197 21.5, 10.515C21.186, 10.197 20.749, 9.999 20.267, 9.999L19.267, 9.999C19.12, 9.999 19, 10.118 19, 10.266L19, 10.733C19, 10.88 19.119, 11 19.267, 11L20.267, 11C20.672, 11 21, 11.328 21, 11.733L21, 20.266C21, 20.671 20.672, 20.999 20.267, 20.999L19.267, 20.999C19.12, 20.999 19, 21.118 19, 21.266L19, 21.733C19, 21.88 19.119, 22 19.267, 22L20.267, 22C20.75, 22 21.186, 21.802 21.5, 21.484C21.814, 21.802 22.251, 22 22.733, 22L23.733, 22C23.88, 22 24, 21.881 24, 21.733L24, 21.266C24, 21.119 23.881, 20.999 23.733, 20.999L22.733, 20.999C22.328, 20.999 22, 20.671 22, 20.266L22, 11.733C22, 11.328 22.328, 11 22.733, 11z" fill="#727272" class="Black" />
      </g>
    </g>
  </g>
  <g id="Layer_1" transform="translate(-0.9333, -7.4683)">
    <g transform="matrix(0.9333, 0, 0, 0.9333, 0, 0)">
      <g id="icon">
        <circle cx="7" cy="16" r="3" fill="#1177D7" class="Blue" fill-rule="evenodd" />
      </g>
    </g>
  </g>
  <g id="Layer_1" transform="translate(-0.9333, -7.4683)">
    <g transform="matrix(0.9333, 0, 0, 0.9333, 0, 0)">
      <g id="icon">
        <circle cx="15" cy="16" r="3" fill="#1177D7" class="Blue" fill-rule="evenodd" />
      </g>
    </g>
  </g>
  <g id="Layer_1" transform="translate(14, 11.465)" style="enable-background:new 0 0 16 16">
    <g id="EnvelopeClose">
      <path d="M15, 14L1, 14C0.4, 14 0, 13.6 0, 13L0, 3C0, 2.5 0.4, 2 1, 2L15, 2C15.6, 2 16, 2.5 16, 3L16, 13C16, 13.6 15.6, 14 15, 14z" fill="#FFB115" class="Yellow" />
    </g>
  </g>
  <g id="Layer_1" transform="translate(14, 11.465)" style="enable-background:new 0 0 16 16">
    <g id="EnvelopeClose">
      <polygon points="16,3.4 8,8 0,3.4 0,5.4 8,10 16,5.4  " fill="#FFFFFF" class="White" />
    </g>
  </g>
</svg>