<?xml version='1.0' encoding='UTF-8'?>
<svg viewBox="-2 -2.03 32 32" xmlns="http://www.w3.org/2000/svg" xmlns:xlink="http://www.w3.org/1999/xlink">
  <g id="Layer_1" transform="translate(-0.9149, -0.9674)">
    <g transform="matrix(0.9326, 0, 0, 0.9326, 0, 0)">
      <g id="icon">
        <path d="M21.934, 27.117C21.406, 24.451 20.466, 24.406 15.329, 22.592C14.579, 22.31 14.367, 21.905 14.423, 21.326C15.872, 19.594 16.745, 16.791 16.745, 14.832C16.745, 11.798 15.71, 9.876 11.469, 9.876C11.452, 9.876 11.475, 9.876 11.469, 9.876C7.229, 9.876 6.279, 11.798 6.279, 14.832C6.279, 16.791 7.149, 19.588 8.598, 21.321C8.654, 21.9 8.441, 22.308 7.691, 22.59C2.554, 24.405 1.613, 24.45 1.085, 27.116C0.926, 28.188 0.9, 28.637 1.323, 29.824C1.799, 31.161 8.526, 30.986 11.47, 30.986C11.482, 30.986 11.45, 30.986 11.47, 30.986C14.415, 30.986 21.22, 31.161 21.696, 29.825C22.118, 28.638 22.092, 28.189 21.934, 27.117z" fill="#039C23" fill-opacity="1" class="Green" fill-rule="evenodd" />
      </g>
    </g>
  </g>
  <g id="Layer_1" transform="translate(-0.9149, -0.9674)">
    <g transform="matrix(0.9326, 0, 0, 0.9326, 0, 0)">
      <g id="icon">
        <path d="M30.867, 17.889C30.867, 17.889 24.797, 11.908 22.847, 9.957C23.106, 9.252 23.248, 8.49 23.248, 7.696C23.248, 4.507 20.97, 1.85 17.951, 1.257C17.48, 1.128 16.988, 1.051 16.482, 1.037C12.846, 0.932 9.878, 3.907 10.005, 7.542C10.018, 7.916 10.065, 8.281 10.142, 8.635C10.556, 8.59 10.996, 8.568 11.464, 8.567C11.464, 8.567 11.468, 8.567 11.471, 8.567C13.876, 8.567 15.574, 9.144 16.664, 10.331C17.695, 11.454 17.972, 12.919 18.038, 14.116C18.423, 14.034 18.797, 13.92 19.154, 13.775C19.64, 14.227 20.189, 14.792 20.189, 14.792C20.372, 14.966 20.657, 14.961 20.834, 14.782L21.184, 14.421L22.001, 15.15L22.001, 17.605C22.001, 17.823 22.177, 17.999 22.395, 17.999L24, 17.999L24, 19.536C24, 19.792 24.207, 19.999 24.463, 19.999L26, 19.999L26, 21.536C26, 21.791 26.207, 21.999 26.463, 21.999L30.538, 21.999C30.793, 21.999 31.001, 21.792 31.001, 21.536L31.001, 18.212C31, 18.092 30.952, 17.975 30.867, 17.889zM14.834, 7.662C13.86, 7.662 13.07, 6.872 13.07, 5.898C13.07, 4.924 13.86, 4.134 14.834, 4.134C15.808, 4.134 16.598, 4.924 16.598, 5.898C16.598, 6.873 15.808, 7.662 14.834, 7.662z" fill="#FFB115" fill-opacity="1" class="Yellow" />
      </g>
    </g>
  </g>
</svg>