<?xml version='1.0' encoding='UTF-8'?>
<svg viewBox="0 0 32 32" xmlns="http://www.w3.org/2000/svg" xmlns:xlink="http://www.w3.org/1999/xlink">
  <g transform="translate(-1.14440917897696E-06, -2.09808349360685E-07)">
    <g transform="matrix(1.14285719394684, 0, 0, 1.14285719394684, 0, 0)">
      <g transform="translate(-4.95910644104924E-07, -3.24249267436016E-07)" style="enable-background:new 0 0 512 512">
        <g transform="matrix(0.0546874962747097, 0, 0, 0.0546874962747097, 0, 0)">
          <g transform="matrix(1.01020467281342, 0, 0, 1.01020467281342, 0, 0)">
            <g>
              <path d="M253.414, 103.434C301.97, 103.434 341.333, 143.954 341.333, 193.939C341.333, 243.924 301.97, 284.444 253.414, 284.444C204.858, 284.444 165.495, 243.923 165.495, 193.939C165.495, 143.955 204.858, 103.434 253.414, 103.434zM253.414, 139.636C225.09, 139.636 201.697, 163.717 201.697, 193.939C201.697, 224.161 225.09, 248.242 253.414, 248.242C281.738, 248.242 305.131, 224.161 305.131, 193.939C305.131, 163.717 281.738, 139.636 253.414, 139.636z" fill="#727272" opacity="1" class="Black" />
            </g>
          </g>
        </g>
      </g>
    </g>
  </g>
  <g transform="translate(0, 0)">
    <g transform="matrix(1.14285719394684, 0, 0, 1.14285719394684, 0, 0)">
      <g transform="translate(0, 0)" style="enable-background:new 0 0 512 512">
        <g transform="matrix(0.0546874962747097, 0, 0, 0.0546874962747097, 0, 0)">
          <g transform="matrix(1.01020467281342, 0, 0, 1.01020467281342, 0, 0)">
            <g>
              <path d="M253.414, 0C393.371, 0 506.828, 113.457 506.828, 253.414C506.828, 347.699 455.337, 429.958 378.942, 473.604C343.214, 494.179 301.906, 506.186 257.838, 506.803L253.415, 506.828C113.457, 506.828 0, 393.371 0, 253.414C0, 113.457 113.457, 0 253.414, 0zM229.738, 346.505C183.407, 346.505 142.259, 375.883 127.131, 419.513L124.792, 427.084C160.711, 454.316 204.957, 469.977 251.296, 470.606L257.005, 470.597C295.245, 469.977 331.084, 459.475 362.077, 441.533L382.054, 428.29L379.817, 421.424C365.446, 377.378 324.755, 347.372 278.578, 346.523zM253.414, 36.202C133.451, 36.202 36.202, 133.451 36.202, 253.414C36.202, 310.907 58.539, 363.184 95.009, 402.038C116.677, 346.966 169.974, 310.303 229.739, 310.303L276.57, 310.303C336.475, 310.303 389.881, 347.138 411.455, 402.424C448.141, 363.532 470.627, 311.099 470.627, 253.414C470.626, 133.451 373.377, 36.202 253.414, 36.202z" fill="#727272" opacity="1" class="Black" />
            </g>
          </g>
        </g>
      </g>
    </g>
  </g>
</svg>