<?xml version='1.0' encoding='UTF-8'?>
<svg viewBox="-2 -4.535 32 32" xmlns="http://www.w3.org/2000/svg" xmlns:xlink="http://www.w3.org/1999/xlink">
  <g id="Layer_1" transform="translate(-0.9333, -7.4683)">
    <g transform="matrix(0.9333, 0, 0, 0.9333, 0, 0)">
      <g id="icon">
        <rect x="2" y="9" width="28" height="14" rx="0" ry="0" fill="#FFFFFF" fill-rule="evenodd" />
      </g>
    </g>
  </g>
  <g id="Layer_1" transform="translate(-0.9333, -7.4683)">
    <g transform="matrix(0.9333, 0, 0, 0.9333, 0, 0)">
      <g id="icon">
        <path d="M1, 8.8L1, 23.2C1, 23.642 1.358, 24 1.8, 24L30.2, 24C30.642, 24 31, 23.642 31, 23.2L31, 8.8C31, 8.358 30.642, 8 30.2, 8L1.8, 8C1.358, 8 1, 8.358 1, 8.8zM2, 23L2, 9L30, 9L30, 23L2, 23z" fill="#727272" class="Black" fill-rule="evenodd" />
      </g>
    </g>
  </g>
  <g id="Layer_1" transform="translate(-0.9333, -7.4683)">
    <g transform="matrix(0.9333, 0, 0, 0.9333, 0, 0)">
      <g id="icon">
        <path d="M22.733, 11L23.733, 11C23.88, 11 24, 10.881 24, 10.733L24, 10.266C24, 10.119 23.881, 9.999 23.733, 9.999L22.733, 9.999C22.25, 9.999 21.814, 10.197 21.5, 10.515C21.186, 10.197 20.749, 9.999 20.267, 9.999L19.267, 9.999C19.12, 9.999 19, 10.118 19, 10.266L19, 10.733C19, 10.88 19.119, 11 19.267, 11L20.267, 11C20.672, 11 21, 11.328 21, 11.733L21, 20.266C21, 20.671 20.672, 20.999 20.267, 20.999L19.267, 20.999C19.12, 20.999 19, 21.118 19, 21.266L19, 21.733C19, 21.88 19.119, 22 19.267, 22L20.267, 22C20.75, 22 21.186, 21.802 21.5, 21.484C21.814, 21.802 22.251, 22 22.733, 22L23.733, 22C23.88, 22 24, 21.881 24, 21.733L24, 21.266C24, 21.119 23.881, 20.999 23.733, 20.999L22.733, 20.999C22.328, 20.999 22, 20.671 22, 20.266L22, 11.733C22, 11.328 22.328, 11 22.733, 11z" fill="#727272" class="Black" />
      </g>
    </g>
  </g>
  <g id="Layer_1" transform="translate(-0.9333, -7.4683)">
    <g transform="matrix(0.9333, 0, 0, 0.9333, 0, 0)">
      <g id="icon">
        <circle cx="7" cy="16" r="3" fill="#1177D7" class="Blue" fill-rule="evenodd" />
      </g>
    </g>
  </g>
  <g id="Layer_1" transform="translate(-0.9333, -7.4683)">
    <g transform="matrix(0.9333, 0, 0, 0.9333, 0, 0)">
      <g id="icon">
        <circle cx="15" cy="16" r="3" fill="#1177D7" class="Blue" fill-rule="evenodd" />
      </g>
    </g>
  </g>
  <g id="Layer_1" transform="translate(14, 11.465)" style="enable-background:new 0 0 16 16">
    <g id="Edit_1_">
      <polygon points="0,16 4,16 0,12  " fill="#1177D7" class="Blue" />
    </g>
  </g>
  <g id="Layer_1" transform="translate(14, 11.465)" style="enable-background:new 0 0 16 16">
    <g id="Edit_1_">
      <rect x="1.9" y="6.5" width="9.5" height="5.6" rx="0" ry="0" fill="#1177D7" class="Blue" transform="matrix(0.7071, -0.7071, 0.7071, 0.7071, -4.6432, 7.4493)" />
    </g>
  </g>
  <g id="Layer_1" transform="translate(14, 11.465)" style="enable-background:new 0 0 16 16">
    <g id="Edit_1_">
      <path d="M15.6, 2.5L13.5, 0.4C13, -0.1 12.1, -0.1 11.6, 0.4L9.4, 2.7L13.4, 6.7L15.7, 4.4C16.1, 3.9 16.1, 3 15.6, 2.5z" fill="#1177D7" class="Blue" />
    </g>
  </g>
  <g id="Layer_1" transform="translate(14, 11.465)" style="enable-background:new 0 0 16 16">
    <g id="Edit_1_">
      <rect x="1.7" y="10.5" width="1.9" height="5.6" rx="0" ry="0" fill="#FFFFFF" class="White" transform="matrix(0.7071, -0.7071, 0.7071, 0.7071, -8.6546, 5.7876)" />
    </g>
  </g>
  <g id="Layer_1" transform="translate(14, 11.465)" style="enable-background:new 0 0 16 16">
    <g id="Edit_1_">
      <rect x="9.7" y="2.5" width="1.9" height="5.6" rx="0" ry="0" fill="#FFFFFF" class="White" transform="matrix(0.7071, -0.7071, 0.7071, 0.7071, -0.6318, 9.1109)" />
    </g>
  </g>
</svg>