<?xml version='1.0' encoding='UTF-8'?>
<svg viewBox="-2 -2.8825 32 32" xmlns="http://www.w3.org/2000/svg" xmlns:xlink="http://www.w3.org/1999/xlink">
  <g id="Layer_1" transform="translate(-0.9534, -1.8769)">
    <g transform="matrix(0.937, 0, 0, 0.937, 0, 0)">
      <g id="icon">
        <path d="M30.5748, 26.2199L17.9813, 3.2429C17.0755, 1.5906 14.8407, 1.5888 13.9349, 3.2411L1.3414, 26.2208C0.4257, 27.8915 1.553, 30 3.3646, 30L28.5516, 30C30.3633, 30 31.4906, 27.8906 30.5748, 26.2199zM18, 25.6C18, 25.82 17.82, 26 17.6, 26L14.4, 26C14.18, 26 14, 25.82 14, 25.6L14, 23.4C14, 23.18 14.18, 23 14.4, 23L17.6, 23C17.82, 23 18, 23.18 18, 23.4L18, 25.6zM18, 20.6C18, 20.82 17.82, 21 17.6, 21L14.4, 21C14.18, 21 14, 20.82 14, 20.6L14, 10.4C14, 10.18 14.18, 10 14.4, 10L17.6, 10C17.82, 10 18, 10.18 18, 10.4L18, 20.6z" fill="#FFB115" class="Yellow" />
      </g>
    </g>
  </g>
  <g id="Layer_1" transform="translate(-0.9534, -1.8769)">
    <g transform="matrix(0.937, 0, 0, 0.937, 0, 0)">
      <g id="icon">
        <path d="M17.6, 21L14.4, 21C14.18, 21 14, 20.82 14, 20.6L14, 10.4C14, 10.18 14.18, 10 14.4, 10L17.6, 10C17.82, 10 18, 10.18 18, 10.4L18, 20.6C18, 20.82 17.82, 21 17.6, 21zM18, 25.6L18, 23.4C18, 23.18 17.82, 23 17.6, 23L14.4, 23C14.18, 23 14, 23.18 14, 23.4L14, 25.6C14, 25.82 14.18, 26 14.4, 26L17.6, 26C17.82, 26 18, 25.82 18, 25.6z" fill="#FFFFFF" class="White" />
      </g>
    </g>
  </g>
</svg>