<?xml version='1.0' encoding='UTF-8'?>
<svg viewBox="-2.265 -2 32 32" xmlns="http://www.w3.org/2000/svg" xmlns:xlink="http://www.w3.org/1999/xlink">
  <g id="Layer_1" transform="translate(-0.9399, -0.9174)">
    <g transform="matrix(0.9165, 0, 0, 0.9165, 0, 0)">
      <g transform="matrix(1, 0, 0, 1, 0, 0)">
        <g id="icon">
          <path d="M16.0385, 15C19.8684, 15 22.9732, 15.7163 22.9732, 17.0368C22.9732, 18.3573 19.8334, 19.2366 16.0035, 19.2366C12.1736, 19.2366 9.1452, 18.3573 9.1452, 17.0368C9.1452, 15.7163 12.2085, 15 16.0385, 15zM16.041, 19.9464C19.5212, 19.9464 22.5309, 19.3411 22.9744, 18.2077C22.9744, 19.4639 22.9732, 27.6135 22.9732, 27.7325C22.9732, 30.1763 19.8684, 31.5517 16.0385, 31.5517C12.2086, 31.5517 9.1038, 30.0513 9.1038, 27.7325C9.1038, 27.6337 9.0831, 18.3547 9.1177, 18.2636C9.6682, 19.3077 12.4406, 19.9464 16.041, 19.9464z" fill="#D11C1C" fill-opacity="1" class="Red" fill-rule="evenodd" />
        </g>
      </g>
    </g>
  </g>
  <g id="Layer_1" transform="translate(-0.9399, -0.9174)">
    <g transform="matrix(0.9165, 0, 0, 0.9165, 0, 0)">
      <g transform="matrix(1, 0, 0, 1, 0, 0)">
        <g id="icon">
          <path d="M6.0111, 1C8.7634, 1 10.9945, 1.5147 10.9945, 2.4637C10.9945, 3.4127 8.7381, 4.0445 5.9859, 4.0445C3.2336, 4.0445 1.0574, 3.4126 1.0574, 2.4637C1.0574, 1.5148 3.2588, 1 6.0111, 1zM6.0128, 4.5546C8.5137, 4.5546 10.6765, 4.1196 10.9953, 3.3052C10.9953, 4.2079 10.9944, 10.1145 10.9944, 10.2001C10.9944, 11.9563 8.7633, 12.9446 6.011, 12.9446C3.2587, 12.9446 1.0276, 11.8664 1.0276, 10.2001C1.0276, 10.1291 1.0127, 3.4109 1.0376, 3.3454C1.4333, 4.0956 3.4255, 4.5546 6.0128, 4.5546z" fill="#D11C1C" fill-opacity="1" class="Red" fill-rule="evenodd" />
        </g>
      </g>
    </g>
  </g>
  <g id="Layer_1" transform="translate(-0.9399, -0.9174)">
    <g transform="matrix(0.9165, 0, 0, 0.9165, 0, 0)">
      <g transform="matrix(1, 0, 0, 1, 0, 0)">
        <g id="icon">
          <path d="M26.0157, 1C28.768, 1 30.9991, 1.5147 30.9991, 2.4637C30.9991, 3.4127 28.7428, 4.0445 25.9905, 4.0445C23.2382, 4.0445 21.062, 3.4126 21.062, 2.4637C21.062, 1.5148 23.2635, 1 26.0157, 1zM26.0175, 4.5546C28.5184, 4.5546 30.6812, 4.1196 31, 3.3052C31, 4.2079 30.9991, 10.1145 30.9991, 10.2001C30.9991, 11.9563 28.768, 12.9446 26.0157, 12.9446C23.2634, 12.9446 21.0323, 11.8664 21.0323, 10.2001C21.0323, 10.1291 21.0174, 3.4109 21.0423, 3.3454C21.438, 4.0956 23.4302, 4.5546 26.0175, 4.5546z" fill="#D11C1C" fill-opacity="1" class="Red" fill-rule="evenodd" />
        </g>
      </g>
    </g>
  </g>
  <g id="Layer_1" transform="translate(-0.9399, -0.9174)">
    <g transform="matrix(0.9165, 0, 0, 0.9165, 0, 0)">
      <g transform="matrix(1, 0, 0, 1, 0, 0)">
        <g id="icon">
          <path d="M8.2806, 20.3755L5.9098, 18.0265C5.8554, 17.9718 5.7892, 17.992 5.7682, 18L4.7637, 18C4.6749, 18 4.6027, 18.0412 4.5752, 18.1076C4.5497, 18.1692 4.5673, 18.2389 4.6234, 18.295L6.2708, 19.9L5.4973, 19.9C4.1754, 19.9 3.1, 18.8362 3.1, 17.5286L3.1, 14.2378C3.1, 14.0783 2.9707, 13.9 2.7975, 13.9L2.1994, 13.9C2.028, 13.9 1.9, 14.0784 1.9, 14.2378L1.9, 17.5286C1.9, 19.4688 3.4228, 21.0408 5.3679, 21.1097C5.3867, 21.1117 5.4051, 21.1083 5.4234, 21.1L6.2524, 21.1L4.5993, 22.756C4.5417, 22.8136 4.5248, 22.8999 4.5563, 22.976C4.5875, 23.0513 4.6598, 23.1 4.7404, 23.1L4.7405, 23L5.7, 23L5.7, 23.1C5.8, 23.1 5.8156, 23.1 5.8641, 23.0512L8.2811, 20.6529C8.3584, 20.5753 8.3584, 20.4537 8.2806, 20.3755z" fill="#D11C1C" fill-opacity="1" class="Red" />
        </g>
      </g>
    </g>
  </g>
  <g id="Layer_1" transform="translate(-0.9399, -0.9174)">
    <g transform="matrix(0.9165, 0, 0, 0.9165, 0, 0)">
      <g transform="matrix(1, 0, 0, 1, 0, 0)">
        <g id="icon">
          <path d="M23.7584, 20.3755L26.1292, 18.0265C26.1836, 17.9718 26.2498, 18 26.2708, 18L27.2753, 18C27.3641, 18 27.4363, 18.0412 27.4638, 18.1076C27.4893, 18.1692 27.4717, 18.2389 27.4156, 18.295L25.7682, 19.9L26.5417, 19.9C27.8636, 19.9 28.9, 18.8362 28.9, 17.5286L28.9, 14.2378C28.9, 14.0783 29.0684, 13.9 29.2415, 13.9L29.8396, 13.9C30.0109, 13.9 30.0999, 14.0784 30.0999, 14.2378L30.0999, 17.5286C30.0999, 19.4688 28.5966, 21.0408 26.6515, 21.1097C26.6327, 21.1117 26.6339, 21.1 26.6155, 21.1L25.7865, 21.1L27.4396, 22.756C27.4972, 22.8136 27.5141, 22.8999 27.4826, 22.976C27.4514, 23.0513 27.3791, 23.1 27.2985, 23.1L27.2984, 23L26.3, 23L26.3, 23.1C26.2, 23.1 26.2039, 23.1 26.1554, 23.0512L23.7481, 20.6529C23.6709, 20.5753 23.6806, 20.4537 23.7584, 20.3755z" fill="#D11C1C" fill-opacity="1" class="Red" />
        </g>
      </g>
    </g>
  </g>
</svg>