<?xml version='1.0' encoding='UTF-8'?>
<svg viewBox="-2.4825 -2 32 32" xmlns="http://www.w3.org/2000/svg" xmlns:xlink="http://www.w3.org/1999/xlink">
  <g id="Layer_1" transform="translate(-1.9325, -1.9325)">
    <g transform="matrix(0.9655, 0, 0, 0.9655, 0, 0)">
      <g transform="matrix(1, 0, 0, 1, 0, 0)">
        <g id="icon">
          <path d="M28.363, 2L3.638, 2C2.737, 2 2, 2.737 2, 3.638L2, 20.363C2, 21.264 2.737, 22.001 3.638, 22.001L28.363, 22.001C29.264, 22.001 30.001, 21.264 30.001, 20.363L30.001, 3.638C30, 2.737 29.263, 2 28.363, 2zM28, 20L4, 20L4, 4L28, 4L28, 20z" fill="#039C23" fill-opacity="1" class="Green" />
        </g>
      </g>
    </g>
  </g>
  <g id="Layer_1" transform="translate(-1.9325, -1.9325)">
    <g transform="matrix(0.9655, 0, 0, 0.9655, 0, 0)">
      <g transform="matrix(1, 0, 0, 1, 0, 0)">
        <g id="icon">
          <rect x="13" y="21" width="6" height="3" rx="0" ry="0" fill="#039C23" fill-opacity="1" class="Green" />
        </g>
      </g>
    </g>
  </g>
  <g id="Layer_1" transform="translate(-1.9325, -1.9325)">
    <g transform="matrix(0.9655, 0, 0, 0.9655, 0, 0)">
      <g transform="matrix(1, 0, 0, 1, 0, 0)">
        <g id="icon">
          <path d="M26.925, 24L4.975, 24C4.439, 24 4, 24.439 4, 24.975L4, 30.025C4, 30.561 4.439, 31 4.975, 31L26.925, 31C27.461, 31 27.9, 30.561 27.9, 30.025L27.9, 24.975C27.9, 24.439 27.461, 24 26.925, 24zM18.5, 29L6.5, 29C6.225, 29 6, 28.775 6, 28.5C6, 28.225 6.225, 28 6.5, 28L18.5, 28C18.775, 28 19, 28.225 19, 28.5C19, 28.775 18.775, 29 18.5, 29zM18.5, 27L6.5, 27C6.225, 27 6, 26.775 6, 26.5C6, 26.225 6.225, 26 6.5, 26L18.5, 26C18.775, 26 19, 26.225 19, 26.5C19, 26.775 18.775, 27 18.5, 27zM23.5, 29C22.672, 29 22, 28.328 22, 27.5C22, 26.672 22.672, 26 23.5, 26C24.328, 26 25, 26.672 25, 27.5C25, 28.328 24.328, 29 23.5, 29z" fill="#039C23" fill-opacity="1" class="Green" />
        </g>
      </g>
    </g>
  </g>
</svg>