<?xml version='1.0' encoding='UTF-8'?>
<svg viewBox="-2 -2 32 32" xmlns="http://www.w3.org/2000/svg" xmlns:xlink="http://www.w3.org/1999/xlink">
  <g id="Layer_1" transform="translate(-0.9125, -0.935)">
    <g transform="matrix(0.9341, 0, 0, 0.9341, 0, 0)">
      <g transform="matrix(1, 0, 0, 1, 0, 0)">
        <g id="icon">
          <path d="M4.475, 1.025L4.475, 1.025C2.542, 1.025 0.975, 2.592 0.975, 4.525L0.975, 27.475C0.975, 29.408 2.542, 30.975 4.475, 30.975L4.475, 30.975C6.408, 30.975 7.975, 29.408 7.975, 27.475L7.975, 4.525C7.975, 2.592 6.408, 1.025 4.475, 1.025zM4.475, 29.225C3.509, 29.225 2.725, 28.441 2.725, 27.475C2.725, 26.509 3.509, 25.725 4.475, 25.725C5.441, 25.725 6.225, 26.509 6.225, 27.475C6.225, 28.441 5.441, 29.225 4.475, 29.225zM4.5, 17.25C3.534, 17.25 2.75, 16.466 2.75, 15.5C2.75, 14.534 3.534, 13.75 4.5, 13.75C5.466, 13.75 6.25, 14.534 6.25, 15.5C6.25, 16.466 5.466, 17.25 4.5, 17.25zM4.5, 6.25C3.534, 6.25 2.75, 5.466 2.75, 4.5C2.75, 3.534 3.534, 2.75 4.5, 2.75C5.466, 2.75 6.25, 3.534 6.25, 4.5C6.25, 5.466 5.466, 6.25 4.5, 6.25zM15.475, 1.025L15.475, 1.025C13.542, 1.025 11.975, 2.592 11.975, 4.525L11.975, 27.475C11.975, 29.408 13.542, 30.975 15.475, 30.975L15.475, 30.975C17.408, 30.975 18.975, 29.408 18.975, 27.475L18.975, 4.525C18.975, 2.592 17.408, 1.025 15.475, 1.025zM15.475, 2.775C16.441, 2.775 17.225, 3.559 17.225, 4.525C17.225, 5.491 16.441, 6.275 15.475, 6.275C14.509, 6.275 13.725, 5.491 13.725, 4.525C13.725, 3.559 14.509, 2.775 15.475, 2.775zM15.475, 29.225C14.509, 29.225 13.725, 28.441 13.725, 27.475C13.725, 26.509 14.509, 25.725 15.475, 25.725C16.441, 25.725 17.225, 26.509 17.225, 27.475C17.225, 28.441 16.441, 29.225 15.475, 29.225zM15.5, 17.25C14.534, 17.25 13.75, 16.466 13.75, 15.5C13.75, 14.534 14.534, 13.75 15.5, 13.75C16.466, 13.75 17.25, 14.534 17.25, 15.5C17.25, 16.466 16.466, 17.25 15.5, 17.25zM8.975, 12L10.975, 12L10.975, 19L8.975, 19L8.975, 12zM10.975, 4.525L10.975, 8L8.975, 8L8.975, 4.525C8.975, 3.098 8.307, 1.825 7.267, 1L12.682, 1C11.643, 1.825 10.975, 3.098 10.975, 4.525zM27.45, 12L19.975, 12L19.975, 19L27.45, 19C29.383, 19 30.95, 17.433 30.95, 15.5L30.95, 15.5C30.95, 13.567 29.383, 12 27.45, 12zM27.45, 17.25C26.484, 17.25 25.7, 16.466 25.7, 15.5C25.7, 14.534 26.484, 13.75 27.45, 13.75C28.416, 13.75 29.2, 14.534 29.2, 15.5C29.2, 16.466 28.416, 17.25 27.45, 17.25zM27.45, 1L18.267, 1C19.306, 1.825 19.975, 3.098 19.975, 4.525L19.975, 8L27.45, 8C29.383, 8 30.95, 6.433 30.95, 4.5L30.95, 4.5C30.95, 2.567 29.383, 1 27.45, 1zM27.45, 6.25C26.484, 6.25 25.7, 5.466 25.7, 4.5C25.7, 3.534 26.484, 2.75 27.45, 2.75C28.416, 2.75 29.2, 3.534 29.2, 4.5C29.2, 5.466 28.416, 6.25 27.45, 6.25z" fill="#D11C1C" fill-opacity="1" class="Red" />
        </g>
      </g>
    </g>
  </g>
</svg>