<?xml version="1.0" encoding="UTF-8"?>
<!DOCTYPE svg PUBLIC "-//W3C//DTD SVG 1.1//EN" "http://www.w3.org/Graphics/SVG/1.1/DTD/svg11.dtd">
<svg version="1.1" id="Layer_1" xmlns="http://www.w3.org/2000/svg" xmlns:xlink="http://www.w3.org/1999/xlink" x="0px" y="0px" width="32px" height="32px" viewBox="0 0 32 32" enable-background="new 0 0 32 32" xml:space="preserve">
  <g id="icon">
    <path d="M29.7862,8h-1.5807c0.0037,-0.1,-0.014,-0.4586,-0.0615,-0.6486C27.7869,5.9234,26.5764,5,25.7877,5h-9.9605c-0.7887,0,-1.6779,0.9981,-2.0349,2.3514C13.743,7.5383,13.7196,7.9,13.7146,8H10V6.4H5v1.6H2.4395C1.6508,8,1,8.6732,1,9.4618v17.0723C1,27.3228,1.6508,28,2.4395,28H29.572c0.7887,0,1.428,-0.6772,1.428,-1.4659V9.4618C31,8.6732,30.5749,8,29.7862,8zM11,12H5c-0.3943,0,-1,-0.4151,-1,-0.979c0,-0.5639,0.6057,-1.021,1,-1.021h6c0.3943,0,1,0.4912,1,1.055C12,11.6189,11.3943,12,11,12zM21.0003,25.9919c-4.4185,0,-8.0003,-3.5696,-8.0003,-7.9729c0,-4.4033,3.5819,-7.9729,8.0003,-7.9729c4.4185,0,8.0003,3.5696,8.0003,7.9729C29.0007,22.4223,25.4188,25.9919,21.0003,25.9919zM25.8008,18.0099c0,2.647,-2.1532,4.7928,-4.8093,4.7928c-2.6561,0,-4.8093,-2.1458,-4.8093,-4.7928c0,-2.647,2.1532,-4.7928,4.8093,-4.7928C23.6476,13.2171,25.8008,15.3629,25.8008,18.0099z" id="b" fill-rule="evenodd" fill="#FFFFFF"/>
  </g>
</svg>
