<?xml version='1.0' encoding='UTF-8'?>
<svg viewBox="-1.0025 -3 32 32" xmlns="http://www.w3.org/2000/svg" xmlns:xlink="http://www.w3.org/1999/xlink">
  <g transform="translate(-0.0025, 0)">
    <g transform="matrix(1.0714, 0, 0, 1.0714, 0, 0)">
      <g transform="translate(0, 0)">
        <g transform="matrix(0.9333, 0, 0, 0.9333, 0, 0)">
          <g transform="translate(0, 0)">
            <g transform="matrix(0.9375, 0, 0, 0.9375, 0, 0)">
              <g transform="translate(0, 0.0025)">
                <g transform="matrix(1.0667, 0, 0, 1.0667, 0, 0)">
                  <g transform="translate(0, -0.0025)">
                    <g transform="matrix(1.0714, 0, 0, 1.0714, 0, 0)">
                      <g id="Layer_1" transform="translate(-0.9333, -2.8)">
                        <g transform="matrix(0.9333, 0, 0, 0.9333, 0, 0)">
                          <g id="icon">
                            <path d="M30, 29.5L2, 29.5C1.724, 29.5 1.5, 29.276 1.5, 29L1.5, 7.5L30.5, 7.5L30.5, 29C30.5, 29.276 30.276, 29.5 30, 29.5z" fill="#FFFFFF" />
                          </g>
                        </g>
                      </g>
                    </g>
                  </g>
                </g>
              </g>
            </g>
          </g>
        </g>
      </g>
    </g>
  </g>
  <g transform="translate(-0.0025, 0)">
    <g transform="matrix(1.0714, 0, 0, 1.0714, 0, 0)">
      <g transform="translate(0, 0)">
        <g transform="matrix(0.9333, 0, 0, 0.9333, 0, 0)">
          <g transform="translate(0, 0)">
            <g transform="matrix(0.9375, 0, 0, 0.9375, 0, 0)">
              <g transform="translate(0, 0.0025)">
                <g transform="matrix(1.0667, 0, 0, 1.0667, 0, 0)">
                  <g transform="translate(0, -0.0025)">
                    <g transform="matrix(1.0714, 0, 0, 1.0714, 0, 0)">
                      <g id="Layer_1" transform="translate(-0.9333, -2.8)">
                        <g transform="matrix(0.9333, 0, 0, 0.9333, 0, 0)">
                          <g id="icon">
                            <path d="M29.6, 3L2.4, 3C1.627, 3 1, 3.627 1, 4.4L1, 8L31, 8L31, 4.4C31, 3.627 30.373, 3 29.6, 3zM21, 7L19, 7L19, 5L21, 5L21, 7zM25, 7L23, 7L23, 5L25, 5L25, 7zM29, 7L27, 7L27, 5L29, 5L29, 7z" fill="#D11C1C" class="Red" />
                          </g>
                        </g>
                      </g>
                    </g>
                  </g>
                </g>
              </g>
            </g>
          </g>
        </g>
      </g>
    </g>
  </g>
  <g transform="translate(-0.0025, 0)">
    <g transform="matrix(1.0714, 0, 0, 1.0714, 0, 0)">
      <g transform="translate(0, 0)">
        <g transform="matrix(0.9333, 0, 0, 0.9333, 0, 0)">
          <g transform="translate(0, 0)">
            <g transform="matrix(0.9375, 0, 0, 0.9375, 0, 0)">
              <g transform="translate(0, 0.0025)">
                <g transform="matrix(1.0667, 0, 0, 1.0667, 0, 0)">
                  <g transform="translate(0, -0.0025)">
                    <g transform="matrix(1.0714, 0, 0, 1.0714, 0, 0)">
                      <g id="Layer_1" transform="translate(-0.9333, -2.8)">
                        <g transform="matrix(0.9333, 0, 0, 0.9333, 0, 0)">
                          <g id="icon">
                            <rect x="2" y="24" width="28" height="5" rx="0" ry="0" fill="#FFFFFF" class="White" fill-rule="evenodd" />
                          </g>
                        </g>
                      </g>
                    </g>
                  </g>
                </g>
              </g>
            </g>
          </g>
        </g>
      </g>
    </g>
  </g>
  <g transform="translate(-0.0025, 0)">
    <g transform="matrix(1.0714, 0, 0, 1.0714, 0, 0)">
      <g transform="translate(0, 0)">
        <g transform="matrix(0.9333, 0, 0, 0.9333, 0, 0)">
          <g transform="translate(0, 0)">
            <g transform="matrix(0.9375, 0, 0, 0.9375, 0, 0)">
              <g transform="translate(0, 0.0025)">
                <g transform="matrix(1.0667, 0, 0, 1.0667, 0, 0)">
                  <g transform="translate(0, -0.0025)">
                    <g transform="matrix(1.0714, 0, 0, 1.0714, 0, 0)">
                      <g id="Layer_1" transform="translate(-0.9333, -2.8)">
                        <g transform="matrix(0.9333, 0, 0, 0.9333, 0, 0)">
                          <g id="icon">
                            <path d="M30, 8L30.001, 29L2, 29L2, 8L1, 8L1, 29C1, 29.551 1.449, 30 2, 30L30, 30C30.551, 30 31, 29.551 31, 29L31, 8L30, 8z" fill="#D11C1C" class="Red" />
                          </g>
                        </g>
                      </g>
                    </g>
                  </g>
                </g>
              </g>
            </g>
          </g>
        </g>
      </g>
    </g>
  </g>
  <g transform="translate(-0.0025, 0)">
    <g transform="matrix(1.0714, 0, 0, 1.0714, 0, 0)">
      <g transform="translate(0, 0)">
        <g transform="matrix(0.9333, 0, 0, 0.9333, 0, 0)">
          <g transform="translate(0, 0)">
            <g transform="matrix(0.9375, 0, 0, 0.9375, 0, 0)">
              <g transform="translate(0, 0.0025)">
                <g transform="matrix(1.0667, 0, 0, 1.0667, 0, 0)">
                  <g transform="translate(0, -0.0025)">
                    <g transform="matrix(1.0714, 0, 0, 1.0714, 0, 0)">
                      <g id="Layer_1" transform="translate(-0.9333, -2.8)">
                        <g transform="matrix(0.9333, 0, 0, 0.9333, 0, 0)">
                          <g id="icon">
                            <path d="M29, 7L27, 7L27, 5L29, 5L29, 7zM25, 5L23, 5L23, 7L25, 7L25, 5zM21, 5L19, 5L19, 7L21, 7L21, 5z" fill="#FFFFFF" />
                          </g>
                        </g>
                      </g>
                    </g>
                  </g>
                </g>
              </g>
            </g>
          </g>
        </g>
      </g>
    </g>
  </g>
  <g id="Layer_1" transform="translate(6.9975, 7)" style="enable-background:new 0 0 16 16">
    <g id="Rating">
      <polygon points="8,0.6 10.5,5.5 16,6.2 12,10.1 12.9,15.4 8,12.9 3.1,15.4 4,10.1 0,6.2 5.5,5.5  " fill="#D11C1C" class="Red" />
    </g>
  </g>
</svg>