<?xml version='1.0' encoding='UTF-8'?>
<svg viewBox="-2.0005 -2 31.998 32" xmlns="http://www.w3.org/2000/svg" xmlns:xlink="http://www.w3.org/1999/xlink">
  <g transform="translate(0, 0)">
    <g transform="matrix(0.8749, 0, 0, 0.8749, 0, 0)">
      <g transform="translate(0, 0)">
        <g transform="translate(0, 0)">
          <g transform="matrix(1.143, 0, 0, 1.143, 0, 0)">
            <g transform="translate(0, 0)">
              <g transform="matrix(0.8749, 0, 0, 0.8749, 0, 0)">
                <g transform="translate(0, 0)">
                  <g transform="matrix(1.143, 0, 0, 1.143, 0, 0)">
                    <g id="Layer_1" transform="translate(0, 0)">
                      <g transform="matrix(0.8749, 0, 0, 0.8749, 0, 0)">
                        <g id="main">
                          <g id="icon">
                            <path d="M0.9914, 0.5504L0.7119, 0.7096L0.5514, 0.9889L0.5, 1.4L0.5, 28.6L0.5514, 29.01L0.7119, 29.29L0.9914, 29.45L1.4, 29.5L20.96, 29.5L22.64, 26.5L22.15, 26.04L21.71, 25.53L21.33, 24.98L21.01, 24.38L20.75, 23.75L20.56, 23.09L20.44, 22.4L20.4, 21.68L20.43, 21.04L20.53, 20.42L20.68, 19.81L20.9, 19.23L21.16, 18.68L21.48, 18.17L21.84, 17.68L22.01, 17.49L17.38, 22.11L17.12, 22.3L16.81, 22.42L16.6, 22.81L16.26, 23.09L11.45, 25.61L11.19, 25.71L10.92, 25.74L10.49, 25.65L10.13, 25.41L9.931, 25.22L9.718, 24.92L9.611, 24.59L9.613, 24.23L9.73, 23.89L12.26, 19.09L12.54, 18.75L12.94, 18.54L13.05, 18.24L13.24, 17.98L23.27, 7.996L23.1, 7.8L16.2, 0.9L15.95, 0.6898L15.71, 0.5688L15.3, 0.5L1.4, 0.5zM22.53, 16.98L22.7, 16.83L23.18, 16.46L23.5, 16.27L23.5, 16.01zz" fill="#FFFFFF" fill-rule="evenodd" />
                          </g>
                        </g>
                      </g>
                    </g>
                  </g>
                </g>
              </g>
            </g>
          </g>
        </g>
      </g>
    </g>
  </g>
  <g transform="translate(0, 0)">
    <g transform="matrix(0.8749, 0, 0, 0.8749, 0, 0)">
      <g transform="translate(0, 0)">
        <g transform="translate(0, 0)">
          <g transform="matrix(1.143, 0, 0, 1.143, 0, 0)">
            <g transform="translate(0, 0)">
              <g transform="matrix(0.8749, 0, 0, 0.8749, 0, 0)">
                <g transform="translate(0, 0)">
                  <g transform="matrix(1.143, 0, 0, 1.143, 0, 0)">
                    <g id="Layer_1" transform="translate(0, 0)">
                      <g transform="matrix(0.8749, 0, 0, 0.8749, 0, 0)">
                        <g id="main">
                          <g id="icon">
                            <path d="M1.077, 0.0227L0.7947, 0.0898L0.5545, 0.2014L0.3564, 0.3564L0.2014, 0.5545L0.0898, 0.7947L0.0227, 1.077L0, 1.4L0, 28.6L0.0227, 28.92L0.0898, 29.21L0.2014, 29.45L0.3564, 29.64L0.5545, 29.8L0.7947, 29.91L1.077, 29.98L1.4, 30L20.71, 30L20.78, 29.81L21.24, 29L1.4, 29L1.184, 28.99L1.064, 28.94L1.012, 28.82L1, 28.6L1, 1.4L1.012, 1.184L1.064, 1.064L1.184, 1.012L1.4, 1L15, 1L15, 7.7L15.03, 7.962L15.1, 8.206L15.38, 8.619L15.79, 8.898L16.04, 8.974L16.3, 9L22.26, 9L23.62, 7.64L23.45, 7.446L16.55, 0.5461L16.27, 0.3059L15.97, 0.1354L15.64, 0.0338L15.3, 0L1.4, 0zM22.59, 8L16.3, 8L16.09, 7.912L16, 7.7L16, 1.407zM23, 16.51L23, 16.6L23.18, 16.46L23.7, 16.15L24, 16L24, 15.51zz" fill="#D11C1C" class="Red" />
                          </g>
                        </g>
                      </g>
                    </g>
                  </g>
                </g>
              </g>
            </g>
          </g>
        </g>
      </g>
    </g>
  </g>
  <g transform="translate(0, 0)">
    <g transform="matrix(0.8749, 0, 0, 0.8749, 0, 0)">
      <g transform="translate(0, 0)">
        <g transform="translate(0, 0)">
          <g transform="matrix(1.143, 0, 0, 1.143, 0, 0)">
            <g transform="translate(0, 0)">
              <g transform="matrix(0.8749, 0, 0, 0.8749, 0, 0)">
                <g transform="translate(0, 0)">
                  <g transform="matrix(1.143, 0, 0, 1.143, 0, 0)">
                    <g id="Layer_1" transform="translate(0, 0)">
                      <g transform="matrix(0.8749, 0, 0, 0.8749, 0, 0)">
                        <g id="main">
                          <g id="icon">
                            <path d="M27.39, 5.385L27.05, 5.638L26, 6.668L25.96, 6.759L26, 6.849L28.56, 9.378L28.65, 9.415L28.74, 9.378L29.68, 8.44L29.92, 8.081L30, 7.671L29.92, 7.262L29.68, 6.902L28.41, 5.638L28.07, 5.385L27.73, 5.301zM25.19, 7.486L13.95, 18.69L13.91, 18.78L13.95, 18.87L16.49, 21.4L16.58, 21.44L16.67, 21.4L27.92, 10.2L27.95, 10.11L27.92, 10.02L25.38, 7.486L25.28, 7.448zM13.15, 19.56L10.62, 24.36L10.64, 24.51L10.83, 24.7L10.9, 24.74L10.98, 24.72L15.79, 22.2L15.86, 22.11L15.83, 22L13.35, 19.53L13.24, 19.5zz" fill="#D11C1C" class="Red" fill-rule="evenodd" />
                          </g>
                        </g>
                      </g>
                    </g>
                  </g>
                </g>
              </g>
            </g>
          </g>
        </g>
      </g>
    </g>
  </g>
  <g transform="translate(0, 0)">
    <g transform="matrix(0.8749, 0, 0, 0.8749, 0, 0)">
      <g transform="translate(0, 0)">
        <g transform="translate(0, 0)">
          <g transform="matrix(1.143, 0, 0, 1.143, 0, 0)">
            <g transform="translate(0, 0)">
              <g transform="matrix(0.8749, 0, 0, 0.8749, 0, 0)">
                <g transform="translate(0, 0)">
                  <g transform="matrix(1.143, 0, 0, 1.143, 0, 0)">
                    <g id="Layer_1" transform="translate(0, 0)">
                      <g transform="matrix(0.8749, 0, 0, 0.8749, 0, 0)">
                        <g id="main">
                          <g id="icon">
                            <path d="M4.183, 25.11L4.01, 25.4L4.059, 25.73L4.308, 25.96L4.5, 26L19.5, 26L19.82, 25.89L19.99, 25.6L19.94, 25.27L19.69, 25.04L19.5, 25L4.5, 25zz" fill="#D11C1C" class="Red" />
                          </g>
                        </g>
                      </g>
                    </g>
                  </g>
                </g>
              </g>
            </g>
          </g>
        </g>
      </g>
    </g>
  </g>
  <g transform="translate(0, 0)">
    <g transform="matrix(0.8749, 0, 0, 0.8749, 0, 0)">
      <g transform="translate(0, 0)">
        <g transform="translate(0, 0)">
          <g transform="matrix(1.143, 0, 0, 1.143, 0, 0)">
            <g transform="translate(0, 0)">
              <g transform="matrix(0.8749, 0, 0, 0.8749, 0, 0)">
                <g transform="translate(0, 0)">
                  <g transform="matrix(1.143, 0, 0, 1.143, 0, 0)">
                    <g id="Layer_1" transform="translate(0, 0)">
                      <g transform="matrix(0.8749, 0, 0, 0.8749, 0, 0)">
                        <g id="main">
                          <g id="overlay">
                            <path d="M26.7002, 16.385C29.6272, 16.385 32, 18.7578 32, 21.6848C32, 24.6118 29.6272, 26.9846 26.7002, 26.9846C23.7732, 26.9846 21.4004, 24.6118 21.4004, 21.6848C21.4004, 18.7578 23.7732, 16.385 26.7002, 16.385zM29.904, 27.0209C29.0724, 27.5237 28.112, 27.8345 27.084, 27.8935L28.174, 31.7742C28.2375, 32.0002 28.5197, 32.0759 28.6878, 31.912L29.8506, 30.7781L31.4746, 30.7589C31.7093, 30.7561 31.8555, 30.5032 31.7408, 30.2984L29.904, 27.0209zM26.3145, 27.8893L25.2233, 31.7742C25.1598, 32.0002 24.8776, 32.0759 24.7095, 31.912L23.5467, 30.7781L21.9227, 30.7589C21.688, 30.7561 21.5418, 30.5032 21.6565, 30.2984L23.5077, 26.9952C24.3342, 27.5038 25.29, 27.8214 26.3145, 27.8893z" fill="#D11C1C" class="Red" />
                          </g>
                        </g>
                      </g>
                    </g>
                  </g>
                </g>
              </g>
            </g>
          </g>
        </g>
      </g>
    </g>
  </g>
</svg>