<?xml version='1.0' encoding='UTF-8'?>
<svg viewBox="-2.0075 -2 32 32" xmlns="http://www.w3.org/2000/svg" xmlns:xlink="http://www.w3.org/1999/xlink">
  <g id="Layer_1" transform="translate(-0.9549, -0.9349)">
    <g transform="matrix(0.9336, 0, 0, 0.9336, 0, 0)">
      <g transform="matrix(1, 0, 0, 1, 0, 0)">
        <g id="icon">
          <path d="M17, 1C9.28, 1 3, 7.28 3, 15C3, 16.768 3.33, 18.46 3.931, 20.019C3.9, 19.534 3.91, 19.044 3.961, 18.557C4.084, 17.396 4.444, 16.275 5.004, 15.262C5.002, 15.175 5, 15.088 5, 15C5, 13.964 5.132, 12.959 5.38, 12L8.163, 12C9.477, 11.218 10.98, 10.8 12.546, 10.8C14.112, 10.8 15.613, 11.218 16.925, 12L20.539, 12C20.607, 12.967 20.643, 13.967 20.643, 14.988C20.643, 15.485 20.634, 15.976 20.617, 16.46C21.624, 19.223 21.187, 22.404 19.306, 24.809C19.035, 25.619 18.727, 26.33 18.388, 26.918C17.932, 26.971 17.469, 26.999 17, 26.999C16.929, 26.999 16.859, 26.997 16.788, 26.996C15.501, 27.735 14.041, 28.131 12.52, 28.131C12.52, 28.131 12.52, 28.131 12.519, 28.131C12.386, 28.131 12.253, 28.127 12.121, 28.121C13.641, 28.688 15.285, 28.999 17, 28.999C24.72, 28.999 31, 22.719 31, 14.999C31, 7.279 24.72, 1 17, 1zM11.655, 10L6.093, 10C7.469, 7.009 10.04, 4.677 13.191, 3.62C12.482, 5.375 11.957, 7.559 11.655, 10zM13.674, 10C14.048, 7.16 14.737, 4.717 15.658, 3.075C16.099, 3.026 16.546, 3 17, 3C17.487, 3 17.967, 3.03 18.439, 3.087C19.325, 4.694 19.988, 7.134 20.345, 10L13.674, 10zM20.896, 3.65C24.007, 4.721 26.544, 7.037 27.908, 10L22.359, 10C22.077, 7.631 21.59, 5.431 20.896, 3.65zM20.863, 26.362C21.571, 24.591 22.068, 22.385 22.353, 20L27.907, 20C26.539, 22.974 23.989, 25.296 20.863, 26.362zM22.542, 18C22.678, 16.024 22.679, 13.98 22.544, 12L28.62, 12C28.868, 12.959 29, 13.964 29, 15C29, 16.036 28.868, 17.041 28.62, 18L22.542, 18z" fill="#039C23" fill-opacity="1" class="Green" />
        </g>
      </g>
    </g>
  </g>
  <g id="Layer_1" transform="translate(-0.9549, -0.9349)">
    <g transform="matrix(0.9336, 0, 0, 0.9336, 0, 0)">
      <g transform="matrix(1, 0, 0, 1, 0, 0)">
        <g id="icon">
          <path d="M17.783, 14.182C14.888, 11.269 10.19, 11.274 7.29, 14.192C4.79, 16.708 4.444, 20.567 6.249, 23.451L1.264, 28.395C0.941, 28.72 0.941, 29.246 1.264, 29.571L2.433, 30.747C2.756, 31.072 3.279, 31.072 3.602, 30.747L8.59, 25.8C11.453, 27.605 15.278, 27.252 17.773, 24.741C20.673, 21.823 20.677, 17.095 17.783, 14.182zM15.962, 22.961C14.05, 24.885 10.951, 24.885 9.039, 22.961C7.127, 21.037 7.127, 17.918 9.039, 15.994C10.951, 14.07 14.05, 14.07 15.962, 15.994C17.873, 17.918 17.873, 21.037 15.962, 22.961z" fill="#039C23" fill-opacity="1" class="Green" fill-rule="evenodd" />
        </g>
      </g>
    </g>
  </g>
</svg>