<?xml version='1.0' encoding='UTF-8'?>
<svg viewBox="-2.0225 -2 32 32" xmlns="http://www.w3.org/2000/svg" xmlns:xlink="http://www.w3.org/1999/xlink">
  <g id="Layer_1" transform="translate(-0.9952, -0.9352)">
    <g transform="matrix(0.934, 0, 0, 0.934, 0, 0)">
      <g transform="matrix(1, 0, 0, 1, 0, 0)">
        <g id="icon">
          <g>
            <path d="M22.4831, 28.1439L22.4809, 28.1284C22.4233, 27.6984 22.3735, 27.3028 22.3275, 26.9378C22.0684, 24.8805 21.9414, 24.0233 21.3928, 23.4645C20.777, 22.8371 19.4385, 22.338 16.9659, 21.4788C16.728, 21.3963 16.4446, 21.2927 16.1309, 21.1811C16.2659, 20.8982 16.4001, 20.6039 16.5328, 20.2961C16.252, 20.1806 15.8134, 20.0782 15.2411, 19.9021C14.9948, 20.1781 14.7335, 20.4254 14.4594, 20.6387C13.7067, 20.4281 12.9277, 20.2692 12.2467, 20.2692C11.4159, 20.2692 10.7199, 20.3845 10.0144, 20.5841C9.75, 20.3684 9.4985, 20.1206 9.2619, 19.8453C8.7661, 20.0598 8.4584, 20.0901 8.127, 20.2444C8.2605, 20.5399 8.3927, 20.8231 8.5238, 21.0962C8.2427, 21.2038 7.9487, 21.3193 7.6335, 21.442C5.0606, 22.3345 3.681, 22.838 3.0601, 23.4631C2.5308, 23.996 2.4148, 24.7415 2.1575, 26.8188C2.1093, 27.2084 2.0546, 27.65 1.9904, 28.1285L1.9882, 28.144C1.9834, 28.1755 1.9775, 28.2148 2.0594, 28.3102C2.2615, 28.5456 3.2516, 29.3483 7.5078, 29.7953C9.8907, 30.0456 12.1027, 30.0545 12.1694, 30.0547C12.2371, 30.0545 14.4811, 30.0456 16.8965, 29.7942C21.2133, 29.345 22.2112, 28.5386 22.4143, 28.3021C22.4931, 28.21 22.4876, 28.1734 22.4831, 28.1439z" fill="#FFFFFF" fill-opacity="1" class="White" fill-rule="evenodd" />
          </g>
        </g>
      </g>
    </g>
  </g>
  <g id="Layer_1" transform="translate(-0.9952, -0.9352)">
    <g transform="matrix(0.934, 0, 0, 0.934, 0, 0)">
      <g transform="matrix(1, 0, 0, 1, 0, 0)">
        <g id="icon">
          <g>
            <path d="M23.3934, 28.0061C22.6677, 22.5913 23.1877, 22.6608 16.9488, 20.4984C16.7788, 20.4182 16.6426, 20.3543 16.5287, 20.3054C16.3974, 20.6098 16.2646, 20.9011 16.1309, 21.1811C16.4446, 21.2927 16.728, 21.3962 16.9659, 21.4788C19.4385, 22.338 20.777, 22.8371 21.3928, 23.4645C21.9414, 24.0234 22.0684, 24.8805 22.3275, 26.9378C22.3735, 27.3028 22.4233, 27.6985 22.4809, 28.1284L22.4831, 28.1439C22.4876, 28.1733 22.4931, 28.21 22.4141, 28.3021C22.2111, 28.5385 21.2131, 29.345 16.8963, 29.7942C14.4808, 30.0456 12.2368, 30.0545 12.1692, 30.0547C12.1025, 30.0545 9.8906, 30.0456 7.5076, 29.7953C3.2514, 29.3483 2.2613, 28.5456 2.0592, 28.3102C1.9773, 28.2148 1.9833, 28.1756 1.988, 28.144L1.9902, 28.1285C2.0544, 27.6499 2.1091, 27.2083 2.1573, 26.8188C2.4146, 24.7415 2.5305, 23.996 3.0599, 23.4631C3.6808, 22.838 5.0604, 22.3345 7.6333, 21.442C7.9378, 21.3234 8.2223, 21.2118 8.4947, 21.1073C8.3602, 20.8304 8.2251, 20.5431 8.0896, 20.2432C8.0541, 20.2579 7.8112, 20.3616 7.457, 20.5287C1.2181, 22.6911 1.8034, 22.5913 1.0777, 28.0061C0.6306, 30.959 12.1691, 30.9753 12.1691, 30.9753C12.1691, 30.9753 23.8404, 30.959 23.3934, 28.0061z" fill="#1177D7" fill-opacity="1" class="Blue" fill-rule="evenodd" />
          </g>
        </g>
      </g>
    </g>
  </g>
  <g id="Layer_1" transform="translate(-0.9952, -0.9352)">
    <g transform="matrix(0.934, 0, 0, 0.934, 0, 0)">
      <g transform="matrix(1, 0, 0, 1, 0, 0)">
        <g id="icon">
          <g>
            <path d="M12.2886, 8C7.8241, 8 6.8113, 9.9745 6.8113, 13.1093C6.8113, 16.2441 9.0075, 21.4429 12.2641, 21.4429C15.5207, 21.4429 17.8032, 16.2442 17.8032, 13.1093C17.8032, 9.9744 16.7036, 8 12.2886, 8zM12.2459, 20.303C9.5742, 20.303 7.9282, 16.0294 7.9282, 13.3634C7.9282, 13.2838 7.93, 13.2051 7.9331, 13.1272C10.0852, 13.0261 14.1774, 12.546 15.5166, 11.6359C15.6176, 12.0565 16.1059, 12.8039 16.5582, 13.1233C16.5614, 13.2024 16.5632, 13.2824 16.5632, 13.3634C16.5632, 16.0293 14.9176, 20.303 12.2459, 20.303z" fill="#1177D7" fill-opacity="1" class="Blue" fill-rule="evenodd" />
          </g>
        </g>
      </g>
    </g>
  </g>
  <g id="Layer_1" transform="translate(-0.9952, -0.9352)">
    <g transform="matrix(0.934, 0, 0, 0.934, 0, 0)">
      <g transform="matrix(1, 0, 0, 1, 0, 0)">
        <g id="icon">
          <g>
            <path d="M15.5166, 11.6359C14.1775, 12.546 10.0852, 13.0261 7.9331, 13.1272C7.93, 13.2051 7.9282, 13.2837 7.9282, 13.3634C7.9282, 16.0294 9.5742, 20.303 12.2459, 20.303C14.9176, 20.303 16.5632, 16.0294 16.5632, 13.3634C16.5632, 13.2824 16.5614, 13.2024 16.5582, 13.1233C16.1059, 12.8039 15.6176, 12.0564 15.5166, 11.6359z" fill="#FFFFFF" fill-opacity="1" class="White" fill-rule="evenodd" />
          </g>
        </g>
      </g>
    </g>
  </g>
  <g id="Layer_1" transform="translate(-0.9952, -0.9352)">
    <g transform="matrix(0.934, 0, 0, 0.934, 0, 0)">
      <g transform="matrix(1, 0, 0, 1, 0, 0)">
        <g id="icon">
          <g>
            <path d="M10.8878, 22.7053C10.9235, 21.7789 11.2762, 21.9583 12.2684, 21.9583C13.2606, 21.9583 13.629, 21.7789 13.5932, 22.7035C13.6024, 23.1228 13.3103, 23.2994 12.9496, 23.7113C12.9323, 25.1542 13.555, 30.2443 13.555, 30.2443L12.2494, 30.5338L11.0451, 30.2107C11.0451, 30.2107 11.5411, 25.1717 11.5801, 23.7096C11.3078, 23.2752 10.8878, 23.1338 10.8878, 22.7053z" fill="#1177D7" fill-opacity="1" class="Blue" fill-rule="evenodd" />
          </g>
        </g>
      </g>
    </g>
  </g>
  <g id="Layer_1" transform="translate(-0.9952, -0.9352)">
    <g transform="matrix(0.934, 0, 0, 0.934, 0, 0)">
      <g transform="matrix(1, 0, 0, 1, 0, 0)">
        <g id="icon">
          <g>
            <g>
              <path d="M30.9566, 21.1938C30.7523, 19.7308 30.7777, 17.6008 29.5774, 16.5236C29.0062, 16.011 28.2393, 15.7338 27.5299, 15.4759C26.977, 15.2749 26.4176, 15.0923 25.8587, 14.9088C25.3179, 14.7312 24.779, 14.5073 24.238, 14.3171C23.2257, 15.3713 21.934, 18.5829 20.9753, 20.9476C21.759, 21.3101 22.322, 21.6695 22.7634, 22.1191C23.2948, 22.6604 23.5947, 23.2804 23.8, 24.0581C24.8824, 24.0333 25.9628, 23.9833 27.0375, 23.8877C28.2836, 23.7769 30.5528, 23.6414 30.9391, 22.1151C31.0151, 21.815 31.0045, 21.4974 30.9566, 21.1938z" fill="#727272" fill-opacity="1" class="Black" fill-rule="evenodd" />
            </g>
          </g>
        </g>
      </g>
    </g>
  </g>
  <g id="Layer_1" transform="translate(-0.9952, -0.9352)">
    <g transform="matrix(0.934, 0, 0, 0.934, 0, 0)">
      <g transform="matrix(1, 0, 0, 1, 0, 0)">
        <g id="icon">
          <g>
            <path d="M17.3985, 18.4517C17.5814, 18.8973 17.7624, 19.3461 17.9382, 19.7837C19.2386, 20.2379 20.2267, 20.5994 20.9987, 20.9585C22.0196, 18.4899 23.4083, 15.0818 24.4378, 14.1191C23.6541, 13.5521 22.294, 13.7178 21.4683, 13.9295C20.8825, 14.0797 20.3724, 14.1703 19.8509, 14.1718C19.488, 14.1708 19.1301, 14.1258 18.7489, 14.0484C18.5985, 15.4468 18.1313, 17.0343 17.3985, 18.4517z" fill="#FFFFFF" fill-opacity="1" class="White" />
          </g>
        </g>
      </g>
    </g>
  </g>
  <g id="Layer_1" transform="translate(-0.9952, -0.9352)">
    <g transform="matrix(0.934, 0, 0, 0.934, 0, 0)">
      <g transform="matrix(1, 0, 0, 1, 0, 0)">
        <g id="icon">
          <g>
            <path d="M25.9244, 7.8672C25.6117, 2.3058 22.8464, 1 19.8507, 1C16.9988, 1 14.3899, 2.1837 13.8762, 7.0956C14.6532, 7.1957 15.3325, 7.3756 15.9187, 7.6372C15.8891, 7.3144 15.8739, 7.0011 15.8739, 6.7042C15.8739, 5.2827 16.2222, 7.3824 18.3978, 7.3824C19.717, 7.3824 23.8062, 5.1131 23.8062, 7.0433C23.8062, 11.5169 21.9441, 14.0561 19.8851, 14.0561C19.4877, 14.0561 19.1177, 13.9504 18.7758, 13.7614C18.7465, 14.1395 18.6931, 14.5337 18.616, 14.9372C19.0069, 15.1017 19.4185, 15.193 19.8487, 15.193C20.8026, 15.193 21.6659, 14.7478 22.4111, 14.039C25.4092, 15.3897 26.1667, 17.1236 25.9244, 7.8672z" fill="#727272" fill-opacity="1" class="Black" />
          </g>
        </g>
      </g>
    </g>
  </g>
  <g id="Layer_1" transform="translate(-0.9952, -0.9352)">
    <g transform="matrix(0.934, 0, 0, 0.934, 0, 0)">
      <g transform="matrix(1, 0, 0, 1, 0, 0)">
        <g id="icon">
          <g>
            <path d="M17.4324, 8.6966C18.3676, 9.6982 18.8031, 11.1004 18.8031, 13.1093C18.8031, 13.3196 18.7931, 13.538 18.7758, 13.7614C19.1176, 13.9504 19.4876, 14.0561 19.8851, 14.0561C21.9441, 14.0561 23.8062, 11.5168 23.8062, 7.0433C23.8062, 5.1131 19.7171, 7.3824 18.3978, 7.3824C16.2222, 7.3824 15.8739, 5.2827 15.8739, 6.7042C15.8739, 7.0012 15.8891, 7.3144 15.9187, 7.6372C16.5181, 7.9047 17.0216, 8.2566 17.4324, 8.6966z" fill="#FFFFFF" fill-opacity="1" class="White" fill-rule="evenodd" />
          </g>
        </g>
      </g>
    </g>
  </g>
</svg>