<?xml version='1.0' encoding='UTF-8'?>
<svg viewBox="-2.96 -2 32 32" xmlns="http://www.w3.org/2000/svg" xmlns:xlink="http://www.w3.org/1999/xlink">
  <g id="Layer_1" transform="translate(-1.9152, -0.9352)">
    <g transform="matrix(0.9322, 0, 0, 0.9322, 0, 0)">
      <g transform="matrix(1, 0, 0, 1, 0, 0)">
        <g id="icon">
          <path d="M15.956, 31.033C15.956, 31.033 11.036, 31.026 7.049, 30.3C6.966, 28.55 6.913, 26.821 7, 25.114C7, 24.502 7.492, 24.006 8.1, 24.006C8.233, 23.998 8.367, 23.991 8.5, 23.984L8.5, 18.752C8.977, 18.586 9.494, 18.41 10.055, 18.22C10.499, 18.015 10.782, 17.901 10.826, 17.883C10.829, 17.89 10.832, 17.898 10.834, 17.905C10.887, 17.883 10.943, 17.859 10.999, 17.834L10.999, 23.867C14.344, 23.741 17.678, 23.741 20.999, 23.866L20.999, 17.867C21.134, 17.919 21.266, 17.963 21.385, 17.997C21.388, 17.99 21.391, 17.983 21.394, 17.976C21.481, 18.006 21.566, 18.035 21.651, 18.063C21.661, 18.065 21.672, 18.068 21.682, 18.07C21.681, 18.071 21.681, 18.072 21.68, 18.073C22.344, 18.299 22.948, 18.506 23.499, 18.701L23.499, 23.983C23.632, 23.991 23.766, 23.997 23.899, 24.005C24.507, 24.005 24.999, 24.501 24.999, 25.113C25.117, 26.81 25.03, 28.543 24.907, 30.31C20.885, 31.026 15.956, 31.033 15.956, 31.033zM10.509, 10C10.647, 13.231 12.898, 18.076 16.117, 18.076C19.367, 18.076 21.449, 13.224 21.61, 10L10.509, 10z" fill="#FFFFFF" fill-opacity="1" class="White" fill-rule="evenodd" />
        </g>
      </g>
    </g>
  </g>
  <g id="Layer_1" transform="translate(-1.9152, -0.9352)">
    <g transform="matrix(0.9322, 0, 0, 0.9322, 0, 0)">
      <g transform="matrix(1, 0, 0, 1, 0, 0)">
        <g id="icon">
          <path d="M10.5, 25.567C10.5, 26.027 10.127, 26.4 9.667, 26.4C9.207, 26.4 8.834, 26.027 8.834, 25.567C8.834, 25.107 9.207, 24.734 9.667, 24.734C10.127, 24.733 10.5, 25.106 10.5, 25.567zM2.067, 27.36C1.834, 28.857 4.203, 29.734 7.047, 30.248C6.965, 28.516 6.914, 26.804 7, 25.115C7, 24.503 7.492, 24.007 8.1, 24.007C8.233, 23.999 8.367, 23.992 8.5, 23.985L8.5, 18.784C2.341, 20.905 2.91, 21.241 2.067, 27.36zM30.012, 27.36C29.194, 21.423 29.195, 20.735 23.5, 18.734L23.5, 23.984C23.633, 23.992 23.767, 23.998 23.9, 24.006C24.508, 24.006 25, 24.502 25, 25.114C25.117, 26.793 25.033, 28.509 24.912, 30.257C27.815, 29.745 30.246, 28.867 30.012, 27.36zM22.267, 24.733C21.807, 24.733 21.434, 25.106 21.434, 25.566C21.434, 26.026 21.807, 26.399 22.267, 26.399C22.727, 26.399 23.1, 26.026 23.1, 25.566C23.1, 25.106 22.727, 24.733 22.267, 24.733zM19.918, 17.129C21.449, 15.169 22.412, 12.285 22.598, 10L21.242, 10C21.144, 13.216 19.316, 18.076 16.114, 18.076C12.912, 18.076 10.908, 13.216 10.8, 10L9.469, 10C9.658, 12.255 10.625, 15.093 12.142, 17.051C11.973, 17.402 11.448, 17.675 11, 17.872L11, 23.866C14.345, 23.74 17.679, 23.74 21, 23.865L21, 17.905C20.569, 17.739 20.107, 17.48 19.918, 17.129z" fill="#727272" fill-opacity="1" class="Black" />
        </g>
      </g>
    </g>
  </g>
  <g id="Layer_1" transform="translate(-1.9152, -0.9352)">
    <g transform="matrix(0.9322, 0, 0, 0.9322, 0, 0)">
      <g transform="matrix(1, 0, 0, 1, 0, 0)">
        <g id="icon">
          <path d="M24.491, 9.06C24.434, 8.654 24.076, 8.363 23.675, 8.363C23.413, 8.363 23.2, 8.145 23.2, 7.877L23.2, 7.861L23.2, 7.836C23.2, 3.996 20.314, 1.264 16.567, 1.017C12.335, 0.74 8.8, 3.594 8.8, 7.852L8.8, 7.878C8.8, 8.146 8.587, 8.364 8.325, 8.364C7.924, 8.364 7.566, 8.655 7.509, 9.061C7.438, 9.567 7.82, 10.001 8.3, 10.001L23.7, 10.001C24.181, 10 24.563, 9.566 24.491, 9.06zM14, 5.091C14, 5.656 13.552, 6.114 13, 6.114C12.448, 6.114 12, 5.656 12, 5.091L12, 2.807C12.599, 2.394 13.274, 2.082 14, 1.881L14, 5.091zM17, 5.091C17, 5.656 16.552, 6.114 16, 6.114C15.448, 6.114 15, 5.656 15, 5.091L15, 1.678C15.327, 1.635 15.661, 1.613 16, 1.613C16.175, 1.613 16.352, 1.619 16.529, 1.63C16.688, 1.64 16.845, 1.657 17.001, 1.678L17.001, 5.091zM20, 5.091C20, 5.656 19.552, 6.114 19, 6.114C18.448, 6.114 18, 5.656 18, 5.091L18, 1.879C18.727, 2.079 19.403, 2.389 20, 2.799L20, 5.091z" fill="#D11C1C" fill-opacity="1" class="Red" />
        </g>
      </g>
    </g>
  </g>
  <g id="Layer_1" transform="translate(-1.9152, -0.9352)">
    <g transform="matrix(0.9322, 0, 0, 0.9322, 0, 0)">
      <g transform="matrix(1, 0, 0, 1, 0, 0)">
        <g id="icon">
          <path d="M18, 5.091L18, 1.879C18.727, 2.079 19.403, 2.389 20, 2.799L20, 5.092C20, 5.657 19.552, 6.115 19, 6.115C18.448, 6.115 18, 5.656 18, 5.091zM13, 6.114C13.552, 6.114 14, 5.656 14, 5.091L14, 1.881C13.274, 2.082 12.599, 2.394 12, 2.807L12, 5.091C12, 5.656 12.448, 6.114 13, 6.114zM15, 5.091C15, 5.656 15.448, 6.114 16, 6.114C16.552, 6.114 17, 5.656 17, 5.091L17, 1.679C16.844, 1.659 16.687, 1.642 16.528, 1.631C16.352, 1.619 16.174, 1.614 15.999, 1.614C15.66, 1.614 15.326, 1.636 14.999, 1.679L14.999, 5.091z" fill="#FFFFFF" fill-opacity="1" class="White" />
        </g>
      </g>
    </g>
  </g>
</svg>