<?xml version='1.0' encoding='UTF-8'?>
<svg viewBox="-2 -2.875 32 32" xmlns="http://www.w3.org/2000/svg" xmlns:xlink="http://www.w3.org/1999/xlink">
  <clipPath id="clip_mask" tag="staticElement_id41247165">
    <path d="M17.456, 32L0, 32L0, 0L32, 0L32, 26.205C31.924, 26.111 31.842, 26.019 31.749, 25.931C31.146, 25.354 30.293, 25.011 28.721, 24.487L28.722, 24.486L28.112, 24.242C28.832, 23.004 29.239, 21.529 29.239, 20.337C29.239, 17.419 27.701, 16.001 24.536, 16.001C21.345, 16.001 19.858, 17.379 19.858, 20.337C19.858, 21.556 20.28, 23.047 20.961, 24.251L20.81, 24.319C18.888, 24.949 17.915, 25.297 17.251, 25.926C16.441, 26.693 16.312, 27.675 16.133, 29.035C16.102, 29.273 16.068, 29.533 16.028, 29.816C15.945, 30.355 16.106, 30.886 16.483, 31.314C16.666, 31.519 16.944, 31.763 17.456, 32z" fill="#727272" fill-opacity="1" class="Black" fill-rule="evenodd" />
  </clipPath>
  <g id="Layer_1" transform="translate(0, -1.75)">
    <g transform="matrix(0.875, 0, 0, 0.875, 0, 0)">
      <g transform="matrix(1, 0, 0, 1, 0, 0)">
        <g id="main">
          <g id="icon" clip-path="url(#clip_mask)">
            <g id="transformed_icon" transform="translate(-1, -1)">
              <path d="M30, 29.5L2, 29.5C1.724, 29.5 1.5, 29.276 1.5, 29L1.5, 7.5L30.5, 7.5L30.5, 29C30.5, 29.276 30.276, 29.5 30, 29.5z" fill="#FFFFFF" fill-opacity="1" class="White" />
            </g>
          </g>
        </g>
      </g>
    </g>
  </g>
  <g id="Layer_1" transform="translate(0, -1.75)">
    <g transform="matrix(0.875, 0, 0, 0.875, 0, 0)">
      <g transform="matrix(1, 0, 0, 1, 0, 0)">
        <g id="main">
          <g id="icon" clip-path="url(#clip_mask)">
            <g id="transformed_icon" transform="translate(-1, -1)">
              <path d="M29.6, 3L2.4, 3C1.627, 3 1, 3.627 1, 4.4L1, 8L31, 8L31, 4.4C31, 3.627 30.373, 3 29.6, 3zM21, 7L19, 7L19, 5L21, 5L21, 7zM25, 7L23, 7L23, 5L25, 5L25, 7zM29, 7L27, 7L27, 5L29, 5L29, 7z" fill="#1177D7" fill-opacity="1" class="Blue" />
            </g>
          </g>
        </g>
      </g>
    </g>
  </g>
  <g id="Layer_1" transform="translate(0, -1.75)">
    <g transform="matrix(0.875, 0, 0, 0.875, 0, 0)">
      <g transform="matrix(1, 0, 0, 1, 0, 0)">
        <g id="main">
          <g id="icon" clip-path="url(#clip_mask)">
            <g id="transformed_icon" transform="translate(-1, -1)">
              <path d="M30, 8L30.001, 29L2, 29L2, 8L1, 8L1, 29C1, 29.551 1.449, 30 2, 30L30, 30C30.551, 30 31, 29.551 31, 29L31, 8L30, 8z" fill="#727272" fill-opacity="1" class="Black" />
            </g>
          </g>
        </g>
      </g>
    </g>
  </g>
  <g id="Layer_1" transform="translate(0, -1.75)">
    <g transform="matrix(0.875, 0, 0, 0.875, 0, 0)">
      <g transform="matrix(1, 0, 0, 1, 0, 0)">
        <g id="main">
          <g id="icon" clip-path="url(#clip_mask)">
            <g id="transformed_icon" transform="translate(-1, -1)">
              <path d="M29, 7L27, 7L27, 5L29, 5L29, 7zM25, 5L23, 5L23, 7L25, 7L25, 5zM21, 5L19, 5L19, 7L21, 7L21, 5z" fill="#FFFFFF" fill-opacity="1" class="White" />
            </g>
          </g>
        </g>
      </g>
    </g>
  </g>
  <g id="Layer_1" transform="translate(0, -1.75)">
    <g transform="matrix(0.875, 0, 0, 0.875, 0, 0)">
      <g transform="matrix(1, 0, 0, 1, 0, 0)">
        <g id="main">
          <g id="icon" clip-path="url(#clip_mask)">
            <g id="transformed_icon" transform="translate(-1, -1)">
              <path d="M15.5, 18.5L7, 18.5L7, 12L15.5, 12L15.5, 18.5zM25, 12L16.5, 12L16.5, 18.5L25, 18.5L25, 12zM25, 19.5L16.5, 19.5L16.5, 26L25, 26L25, 19.5zM15.5, 19.5L7, 19.5L7, 26L15.5, 26L15.5, 19.5z" fill="#727272" fill-opacity="1" class="Black" fill-rule="evenodd" />
            </g>
          </g>
        </g>
      </g>
    </g>
  </g>
  <g id="Layer_1" transform="translate(0, -1.75)">
    <g transform="matrix(0.875, 0, 0, 0.875, 0, 0)">
      <g transform="matrix(1, 0, 0, 1, 0, 0)">
        <g id="main">
          <g id="overlay">
            <path d="M23.477, 26.848C23.504, 26.272 23.772, 26.384 24.524, 26.384C25.276, 26.384 25.556, 26.273 25.529, 26.847C25.536, 27.108 25.314, 27.217 25.041, 27.473C25.028, 28.369 25.5, 31.532 25.5, 31.532L24.51, 31.899L23.596, 31.511C23.596, 31.511 23.972, 28.38 24.002, 27.472C23.796, 27.202 23.477, 27.114 23.477, 26.848z" fill="#1177D7" fill-opacity="1" class="Blue" fill-rule="evenodd" />
          </g>
        </g>
      </g>
    </g>
  </g>
  <g id="Layer_1" transform="translate(0, -1.75)">
    <g transform="matrix(0.875, 0, 0, 0.875, 0, 0)">
      <g transform="matrix(1, 0, 0, 1, 0, 0)">
        <g id="main">
          <g id="overlay">
            <path d="M24.46, 32C24.213, 32 18.403, 31.977 17.234, 30.651C17.05, 30.443 16.978, 30.211 17.018, 29.962C17.059, 29.673 17.094, 29.407 17.126, 29.164C17.475, 26.511 17.553, 26.435 21.308, 25.208C21.562, 25.095 21.72, 25.033 21.721, 25.032L21.882, 24.969C21.882, 24.969 23.844, 31.813 24.501, 31.813C25.158, 31.813 27.22, 25.005 27.22, 25.005L27.385, 25.072C27.459, 25.102 27.548, 25.141 27.657, 25.19C31.447, 26.429 31.526, 26.506 31.891, 29.237C31.921, 29.461 31.953, 29.703 31.991, 29.966C32.03, 30.21 31.958, 30.44 31.775, 30.647C30.601, 31.977 24.71, 32 24.46, 32L24.46, 32z" fill="#1177D7" fill-opacity="1" class="Blue" fill-rule="evenodd" />
          </g>
        </g>
      </g>
    </g>
  </g>
  <g id="Layer_1" transform="translate(0, -1.75)">
    <g transform="matrix(0.875, 0, 0, 0.875, 0, 0)">
      <g transform="matrix(1, 0, 0, 1, 0, 0)">
        <g id="main">
          <g id="overlay">
            <path d="M24.536, 17C21.538, 17 20.858, 18.289 20.858, 20.336C20.858, 22.383 22.333, 25.777 24.519, 25.777C26.706, 25.777 28.238, 22.383 28.238, 20.336C28.238, 18.289 27.5, 17 24.536, 17zM24.507, 24.85C22.829, 24.85 21.795, 22.24 21.795, 20.612C21.795, 20.563 21.796, 20.515 21.798, 20.468C23.15, 20.406 25.72, 20.113 26.561, 19.557C26.624, 19.814 26.931, 20.27 27.215, 20.465C27.217, 20.513 27.218, 20.562 27.218, 20.612C27.219, 22.24 26.186, 24.85 24.507, 24.85z" fill="#1177D7" fill-opacity="1" class="Blue" fill-rule="evenodd" />
          </g>
        </g>
      </g>
    </g>
  </g>
</svg>