<?xml version="1.0" encoding="UTF-8" standalone="no"?>
<svg
   viewBox="-0.36 -0.3925 32 32"
   version="1.1"
   id="svg14"
   sodipodi:docname="LogoWeb.svg"
   inkscape:version="1.3 (0e150ed6c4, 2023-07-21)"
   xmlns:inkscape="http://www.inkscape.org/namespaces/inkscape"
   xmlns:sodipodi="http://sodipodi.sourceforge.net/DTD/sodipodi-0.dtd"
   xmlns="http://www.w3.org/2000/svg"
   xmlns:svg="http://www.w3.org/2000/svg">
  <defs
     id="defs14" />
  <sodipodi:namedview
     id="namedview14"
     pagecolor="#ffffff"
     bordercolor="#000000"
     borderopacity="0.25"
     inkscape:showpageshadow="2"
     inkscape:pageopacity="0.0"
     inkscape:pagecheckerboard="0"
     inkscape:deskcolor="#d1d1d1"
     inkscape:zoom="36.65625"
     inkscape:cx="16"
     inkscape:cy="16"
     inkscape:window-width="2560"
     inkscape:window-height="1369"
     inkscape:window-x="-8"
     inkscape:window-y="-8"
     inkscape:window-maximized="1"
     inkscape:current-layer="svg14" />
  <g
     transform="translate(0.0019,-5e-4)"
     id="g14"
     style="fill:#4a6cf7;fill-opacity:1">
    <g
       transform="scale(1.1126)"
       id="g13"
       style="fill:#4a6cf7;fill-opacity:1">
      <g
         id="g12"
         transform="translate(-0.3254,-0.3524)"
         style="fill:#4a6cf7;fill-opacity:1">
        <g
           transform="scale(0.0719)"
           id="g11"
           style="fill:#4a6cf7;fill-opacity:1">
          <g
             id="g10"
             style="fill:#4a6cf7;fill-opacity:1">
            <path
               d="m 207,4.9 c 1.9,7.7 3.7,15.4 5.9,24.7 3,-6.5 5.4,-11.6 9.7,-20.9 3.2,10.6 5.2,17.1 7.9,26.2 3.9,-6 6.7,-10.4 9.2,-14.3 8.2,12.5 16.6,25.3 23.9,36.4 4.3,27.1 10.8,54.3 12.6,81.9 2.4,37.6 1.4,75.4 1.6,113.1 0,6.3 -1.4,12.6 -2.2,20.3 15.4,-1.2 28.7,-2.4 41.9,-3.3 19.6,-1.2 29.8,8.6 21.8,25.8 -6.8,14.5 -21.4,25.6 -33.6,37.2 -6.1,5.7 -16.7,7.4 -21.2,13.8 -8.3,11.9 -13.5,10.4 -20.6,-0.2 -4.8,-7.2 -10.3,-13.9 -16.7,-22.5 -43.5,26.5 -81.7,62.2 -133.7,71.1 -2.7,0 -5.4,0 -8.1,0 -16.1,-5.9 -32.3,-11.8 -48.4,-17.7 -0.8,-1.9 -1.6,-3.8 -2.4,-5.7 36.3,-5.8 64.9,-22.9 86.5,-52.9 -13.5,-4.4 -26.5,-13.3 -35.8,6.6 -13.7,-7 -9.7,-17.4 -4.8,-27.1 7.9,-15.8 20.6,-27.4 38,-30.1 34.5,-5.4 44.9,-35.2 39.5,-57.7 -10.5,-44.2 7.9,-83.4 9.8,-125 0.8,-18.1 -7,-38.4 11.4,-54.2 4.9,-4.2 2.6,-16.6 3.6,-25.3 1.5,-0.2 2.9,-0.2 4.2,-0.2 z"
               fill="#FFFFFF"
               class="White"
               id="path9"
               style="fill:#4a6cf7;fill-opacity:1" />
          </g>
        </g>
      </g>
    </g>
  </g>
</svg>
