<?xml version='1.0' encoding='UTF-8'?>
<svg viewBox="-0.36 -0.3925 32 32" xmlns="http://www.w3.org/2000/svg" xmlns:xlink="http://www.w3.org/1999/xlink">
  <g transform="translate(0.0019, -0.0005)">
    <g transform="matrix(1.1126, 0, 0, 1.1126, 0, 0)">
      <g id="Layer_1" transform="translate(-0.3254, -0.3524)" style="enable-background:new 0 0 400 400">
        <g transform="matrix(0.0719, 0, 0, 0.0719, 0, 0)">
          <g>
            <path d="M105.7, 394.1C72, 394.1 38.3, 394.1 4.5, 394.1C4.5, 264.9 4.5, 135.6 4.5, 4.9C70.6, 4.9 136.8, 4.9 203, 4.9C202, 13.6 204.2, 26 199.4, 30.2C181, 46.1 188.8, 66.3 188, 84.4C186.2, 126 167.7, 165.2 178.2, 209.4C183.6, 232 173.2, 261.7 138.7, 267.1C121.2, 269.8 108.6, 281.5 100.7, 297.2C95.8, 306.9 91.8, 317.3 105.5, 324.3C114.8, 304.4 127.9, 313.3 141.3, 317.7C119.7, 347.7 91.1, 364.8 54.8, 370.6C55.6, 372.5 56.4, 374.4 57.2, 376.3C73.4, 382.3 89.5, 388.2 105.7, 394.1z" fill="Transparent" class="Transparent" />
          </g>
        </g>
      </g>
    </g>
  </g>
  <g transform="translate(0.0019, -0.0005)">
    <g transform="matrix(1.1126, 0, 0, 1.1126, 0, 0)">
      <g id="Layer_1" transform="translate(-0.3254, -0.3524)" style="enable-background:new 0 0 400 400">
        <g transform="matrix(0.0719, 0, 0, 0.0719, 0, 0)">
          <g>
            <path d="M207, 4.9C269.2, 4.9 331.3, 4.9 393.5, 4.9C393.5, 134.6 393.5, 264.4 393.5, 394.1C300.3, 394.1 207, 394.1 113.8, 394.1C165.8, 385.2 204, 349.5 247.5, 323C253.9, 331.6 259.4, 338.3 264.2, 345.5C271.2, 356.1 276.4, 357.6 284.8, 345.7C289.3, 339.3 300, 337.6 306, 331.9C318.2, 320.4 332.8, 309.2 339.6, 294.7C347.6, 277.5 337.4, 267.7 317.8, 268.9C304.5, 269.7 291.3, 270.9 275.9, 272.2C276.8, 264.5 278.2, 258.2 278.1, 251.9C277.9, 214.2 278.9, 176.4 276.5, 138.8C274.7, 111.3 268.2, 84 263.9, 56.9C256.4, 45.8 248, 33 239.8, 20.5C237.3, 24.4 234.5, 28.8 230.6, 34.8C227.9, 25.7 225.9, 19.2 222.7, 8.6C218.4, 17.9 216, 23.1 213, 29.5C210.7, 20.4 208.9, 12.6 207, 4.9z" fill="Transparent" class="Transparent" />
          </g>
        </g>
      </g>
    </g>
  </g>
  <g transform="translate(0.0019, -0.0005)">
    <g transform="matrix(1.1126, 0, 0, 1.1126, 0, 0)">
      <g id="Layer_1" transform="translate(-0.3254, -0.3524)" style="enable-background:new 0 0 400 400">
        <g transform="matrix(0.0719, 0, 0, 0.0719, 0, 0)">
          <g>
            <path d="M207, 4.9C208.9, 12.6 210.7, 20.3 212.9, 29.6C215.9, 23.1 218.3, 18 222.6, 8.7C225.8, 19.3 227.8, 25.8 230.5, 34.9C234.4, 28.9 237.2, 24.5 239.7, 20.6C247.9, 33.1 256.3, 45.9 263.6, 57C267.9, 84.1 274.4, 111.3 276.2, 138.9C278.6, 176.5 277.6, 214.3 277.8, 252C277.8, 258.3 276.4, 264.6 275.6, 272.3C291, 271.1 304.3, 269.9 317.5, 269C337.1, 267.8 347.3, 277.6 339.3, 294.8C332.5, 309.3 317.9, 320.4 305.7, 332C299.6, 337.7 289, 339.4 284.5, 345.8C276.2, 357.7 271, 356.2 263.9, 345.6C259.1, 338.4 253.6, 331.7 247.2, 323.1C203.7, 349.6 165.5, 385.3 113.5, 394.2C110.8, 394.2 108.1, 394.2 105.4, 394.2C89.3, 388.3 73.1, 382.4 57, 376.5C56.2, 374.6 55.4, 372.7 54.6, 370.8C90.9, 365 119.5, 347.9 141.1, 317.9C127.6, 313.5 114.6, 304.6 105.3, 324.5C91.6, 317.5 95.6, 307.1 100.5, 297.4C108.4, 281.6 121.1, 270 138.5, 267.3C173, 261.9 183.4, 232.1 178, 209.6C167.5, 165.4 185.9, 126.2 187.8, 84.6C188.6, 66.5 180.8, 46.2 199.2, 30.4C204.1, 26.2 201.8, 13.8 202.8, 5.1C204.3, 4.9 205.7, 4.9 207, 4.9z" fill="#727272" class="Black" />
          </g>
        </g>
      </g>
    </g>
  </g>
</svg>