<?xml version='1.0' encoding='UTF-8'?>
<svg viewBox="-0.0075 0 32 32" xmlns="http://www.w3.org/2000/svg" xmlns:xlink="http://www.w3.org/1999/xlink">
  <g transform="translate(0.0011, 0)">
    <g transform="matrix(1.1427, 0, 0, 1.1427, 0, 0)">
      <g id="Layer_1" transform="translate(-4.0708, -2.9221)">
        <g transform="matrix(0.0866, 0, 0, 0.0866, 0, 0)">
          <g>
            <path d="M131.07, 357.1C103.08, 357.1 75.1, 357.1 46.99, 357.1C46.99, 249.72 46.99, 142.33 46.99, 33.75C101.87, 33.75 156.89, 33.75 211.91, 33.75C211.06, 40.94 212.93, 51.27 208.89, 54.77C193.63, 67.96 200.09, 84.8 199.43, 99.83C197.92, 134.38 182.6, 166.95 191.32, 203.7C195.77, 222.45 187.13, 247.18 158.47, 251.67C143.95, 253.94 133.46, 263.59 126.88, 276.7C122.83, 284.76 119.52, 293.38 130.9, 299.21C138.65, 282.7 149.5, 290.03 160.67, 293.72C142.76, 318.62 119, 332.87 88.82, 337.68C89.49, 339.26 90.17, 340.83 90.84, 342.41C104.25, 347.3 117.66, 352.2 131.07, 357.1z" fill="Transparent" fill-opacity="1" class="Transparent" />
          </g>
        </g>
      </g>
    </g>
  </g>
  <g transform="translate(0.0011, 0)">
    <g transform="matrix(1.1427, 0, 0, 1.1427, 0, 0)">
      <g id="Layer_1" transform="translate(-4.0708, -2.9221)">
        <g transform="matrix(0.0866, 0, 0, 0.0866, 0, 0)">
          <g>
            <path d="M215.27, 33.75C266.92, 33.75 318.56, 33.75 370.21, 33.75C370.21, 141.53 370.21, 249.31 370.21, 357.1C292.74, 357.1 215.27, 357.1 137.81, 357.1C180.98, 349.69 212.75, 320.07 248.86, 298.05C254.17, 305.17 258.73, 310.76 262.7, 316.75C268.53, 325.54 272.86, 326.8 279.78, 316.9C283.49, 311.59 292.37, 310.19 297.4, 305.43C307.51, 295.85 319.68, 286.6 325.29, 274.56C331.96, 260.26 323.44, 252.14 307.17, 253.14C296.15, 253.82 285.14, 254.84 272.33, 255.84C273.07, 249.46 274.22, 244.22 274.19, 238.98C274.04, 207.64 274.88, 176.22 272.85, 144.99C271.37, 122.11 265.99, 99.48 262.39, 76.95C256.3, 67.69 249.33, 57.1 242.5, 46.71C240.42, 49.96 238.06, 53.63 234.86, 58.63C232.58, 51.07 230.96, 45.68 228.3, 36.87C224.7, 44.62 222.71, 48.89 220.22, 54.26C218.35, 46.57 216.81, 40.16 215.27, 33.75z" fill="Transparent" fill-opacity="1" class="Transparent" />
          </g>
        </g>
      </g>
    </g>
  </g>
  <g transform="translate(0.0011, 0)">
    <g transform="matrix(1.1427, 0, 0, 1.1427, 0, 0)">
      <g id="Layer_1" transform="translate(-4.0708, -2.9221)">
        <g transform="matrix(0.0866, 0, 0, 0.0866, 0, 0)">
          <g>
            <path d="M215.27, 33.75C216.81, 40.16 218.35, 46.57 220.2, 54.25C222.7, 48.88 224.68, 44.61 228.28, 36.86C230.94, 45.68 232.56, 51.06 234.84, 58.62C238.04, 53.63 240.4, 49.95 242.48, 46.7C249.31, 57.09 256.28, 67.68 262.37, 76.94C265.97, 99.47 271.35, 122.09 272.83, 144.98C274.86, 176.21 274.01, 207.63 274.17, 238.97C274.2, 244.21 273.05, 249.45 272.31, 255.83C285.13, 254.82 296.13, 253.81 307.15, 253.13C323.43, 252.12 331.94, 260.25 325.27, 274.55C319.66, 286.59 307.5, 295.83 297.38, 305.42C292.35, 310.19 283.47, 311.58 279.76, 316.89C272.84, 326.8 268.51, 325.53 262.68, 316.74C258.71, 310.76 254.14, 305.16 248.84, 298.04C212.74, 320.06 180.97, 349.68 137.79, 357.09C135.54, 357.09 133.3, 357.09 131.05, 357.09C117.64, 352.19 104.23, 347.29 90.82, 342.4C90.15, 340.82 89.47, 339.25 88.8, 337.67C118.97, 332.86 142.74, 318.61 160.65, 293.71C149.47, 290.02 138.63, 282.69 130.88, 299.2C119.49, 293.37 122.81, 284.75 126.86, 276.69C133.44, 263.59 143.94, 253.94 158.45, 251.66C187.11, 247.17 195.75, 222.44 191.3, 203.69C182.58, 166.94 197.9, 134.37 199.41, 99.82C200.07, 84.79 193.61, 67.95 208.87, 54.76C212.91, 51.26 211.05, 40.93 211.89, 33.74C213.02, 33.75 214.15, 33.75 215.27, 33.75z" fill="#1177D7" fill-opacity="1" class="Blue" />
          </g>
        </g>
      </g>
    </g>
  </g>
</svg>