<?xml version='1.0' encoding='UTF-8'?>
<svg viewBox="-2.0025 -2.0025 32 32" xmlns="http://www.w3.org/2000/svg" xmlns:xlink="http://www.w3.org/1999/xlink">
  <clipPath id="clip_mask" tag="staticElement_id66924213">
    <path d="M5.009, 16L0, 16L0, 0L16, 0L16, 6.453C15.954, 6.447 15.907, 6.443 15.859, 6.443C15.59, 6.443 15.328, 6.539 15.121, 6.715L5.402, 14.991C5.107, 15.242 4.964, 15.625 5.009, 16z" fill-rule="evenodd" />
  </clipPath>
  <g id="Layer_1" transform="translate(-0.0024, -0.0024)">
    <g transform="matrix(1.75, 0, 0, 1.75, 0, 0)">
      <g id="main">
        <g id="icon" clip-path="url(#clip_mask)">
          <path d="M8, 15L12.683, 15C13.41, 15 14, 14.411 14, 13.683L14, 13L8, 13L8, 15z" fill="#E6E7E8" />
        </g>
      </g>
    </g>
  </g>
  <g id="Layer_1" transform="translate(-0.0024, -0.0024)">
    <g transform="matrix(1.75, 0, 0, 1.75, 0, 0)">
      <g id="main">
        <g id="icon" clip-path="url(#clip_mask)">
          <path d="M8, 14L10, 14L10, 15L8, 15L8, 14zM13, 14L14, 14L14, 13L13, 13L13, 14z" fill="#B4B4B5" opacity="0.5" />
        </g>
      </g>
    </g>
  </g>
  <g id="Layer_1" transform="translate(-0.0024, -0.0024)">
    <g transform="matrix(1.75, 0, 0, 1.75, 0, 0)">
      <g id="main">
        <g id="icon" clip-path="url(#clip_mask)">
          <path d="M2, 14.275C2, 14.675 2.325, 15 2.725, 15L8.275, 15C8.675, 15 9, 14.675 9, 14.275L9, 12.5L2, 12.5L2, 14.275z" fill="#727272" class="Black" />
        </g>
      </g>
    </g>
  </g>
  <g id="Layer_1" transform="translate(-0.0024, -0.0024)">
    <g transform="matrix(1.75, 0, 0, 1.75, 0, 0)">
      <g id="main">
        <g id="icon" clip-path="url(#clip_mask)">
          <path d="M14.496, 8.185C14.242, 8.438 13.911, 8.575 13.56, 8.575C13.206, 8.575 12.871, 8.436 12.618, 8.184L10.615, 6.187C10.361, 5.934 10.216, 5.584 10.216, 5.225L10.216, 4.116C10.216, 3.889 10.284, 3.678 10.399, 3.5L10, 3.5L10, 8.083C10, 9.14 9.14, 10 8.083, 10L2.5, 10L2.5, 12.5L14.5, 12.5L14.5, 8.181L14.496, 8.185z" fill="#FFFFFF" />
        </g>
      </g>
    </g>
  </g>
  <g id="Layer_1" transform="translate(-0.0024, -0.0024)">
    <g transform="matrix(1.75, 0, 0, 1.75, 0, 0)">
      <g id="main">
        <g id="icon" clip-path="url(#clip_mask)">
          <path d="M14.496, 8.185C14.352, 8.328 14.183, 8.433 14, 8.498L14, 12L3, 12L3, 10L2, 10L2, 12.5C2, 12.776 2.224, 13 2.5, 13L14.5, 13C14.776, 13 15, 12.776 15, 12.5L15, 7.677L14.496, 8.185z" fill="#727272" class="Black" />
        </g>
      </g>
    </g>
  </g>
  <g id="Layer_1" transform="translate(-0.0024, -0.0024)">
    <g transform="matrix(1.75, 0, 0, 1.75, 0, 0)">
      <g id="main">
        <g id="icon" clip-path="url(#clip_mask)">
          <path d="M6, 11L7, 11L7, 12L6, 12L6, 11zM10.216, 4.116C10.216, 4.077 10.219, 4.038 10.222, 4L10, 4L10, 5L10.216, 5L10.216, 4.116zM10, 12L11, 12L11, 11L10, 11L10, 12zM13, 10L14, 10L14, 9L13, 9L13, 10z" fill="#B4B4B5" opacity="0.5" />
        </g>
      </g>
    </g>
  </g>
  <g id="Layer_1" transform="translate(-0.0024, -0.0024)">
    <g transform="matrix(1.75, 0, 0, 1.75, 0, 0)">
      <g id="main">
        <g id="icon" clip-path="url(#clip_mask)">
          <polygon points="10,14 10,15 14,15 14,14 13,14" fill="#B4B4B5" />
        </g>
      </g>
    </g>
  </g>
  <g id="Layer_1" transform="translate(-0.0024, -0.0024)">
    <g transform="matrix(1.75, 0, 0, 1.75, 0, 0)">
      <g id="main">
        <g id="icon" clip-path="url(#clip_mask)">
          <path d="M11, 9L13, 9L13, 10L11, 10L11, 11L10, 11L10, 10L8.083, 10C8.808, 10 9.44, 9.595 9.766, 9L10, 9L10, 8.083L10, 7L10, 6L10, 5L10.216, 5L10.216, 5.225C10.216, 5.583 10.362, 5.934 10.615, 6.187L11.431, 7.001L11, 7.001L11, 9zM6, 11L7, 11L7, 10L6, 10L6, 11z" fill="#B4B4B5" />
        </g>
      </g>
    </g>
  </g>
  <g id="Layer_1" transform="translate(-0.0024, -0.0024)">
    <g transform="matrix(1.75, 0, 0, 1.75, 0, 0)">
      <g id="main">
        <g id="icon" clip-path="url(#clip_mask)">
          <path d="M15.875, 5.226C15.875, 5.32 15.838, 5.411 15.771, 5.478L13.786, 7.481C13.658, 7.609 13.455, 7.606 13.324, 7.475L11.321, 5.478C11.254, 5.411 11.216, 5.32 11.216, 5.225L11.216, 4.116C11.216, 3.995 11.362, 3.935 11.447, 4.02L12.953, 5.522L12.953, 3.613C12.953, 2.853 12.354, 2.257 11.588, 2.257L10.318, 2.257C10.098, 2.257 10.03, 2.187 10.03, 1.966L10.03, 1.374C10.03, 1.167 10.083, 1.071 10.318, 1.071L11.588, 1.071C12.97, 1.071 14.092, 2.149 14.144, 3.526L14.144, 3.53L14.144, 3.543C14.144, 3.561 14.142, 3.579 14.137, 3.596L14.137, 5.52L15.636, 4.027C15.724, 3.939 15.874, 4.002 15.874, 4.126L15.874, 5.226z" fill="#1177D7" class="Blue" />
        </g>
      </g>
    </g>
  </g>
  <g id="Layer_1" transform="translate(-0.0024, -0.0024)">
    <g transform="matrix(1.75, 0, 0, 1.75, 0, 0)">
      <g id="main">
        <g id="icon" clip-path="url(#clip_mask)">
          <path d="M8.083, 0L0.917, 0C0.41, 0 0, 0.41 0, 0.917L0, 8.084C0, 8.59 0.41, 9 0.917, 9L8.084, 9C8.59, 9 9, 8.59 9, 8.083L9, 0.917C9, 0.41 8.59, 0 8.083, 0zM7.941, 7.385C8.042, 7.51 7.957, 7.7 7.799, 7.7L6.06, 7.7C6.005, 7.7 5.953, 7.675 5.918, 7.631L4.605, 6.011L3.375, 7.627C3.34, 7.673 3.286, 7.7 3.23, 7.7L1.479, 7.7C1.324, 7.7 1.238, 7.515 1.334, 7.389L3.461, 4.598L1.044, 1.615C0.943, 1.491 1.028, 1.3 1.186, 1.3L2.925, 1.3C2.98, 1.3 3.032, 1.325 3.067, 1.369L4.539, 3.185L5.92, 1.373C5.955, 1.327 6.009, 1.3 6.065, 1.3L7.816, 1.3C7.971, 1.3 8.057, 1.485 7.961, 1.611L5.683, 4.598L7.941, 7.385z" fill="#039C23" class="Green" />
        </g>
      </g>
    </g>
  </g>
  <g id="Layer_1" transform="translate(-0.0024, -0.0024)">
    <g transform="matrix(1.75, 0, 0, 1.75, 0, 0)">
      <g id="main">
        <g id="icon" clip-path="url(#clip_mask)">
          <path d="M5.683, 4.598L7.96, 1.611C8.056, 1.485 7.969, 1.3 7.815, 1.3L6.064, 1.3C6.007, 1.3 5.954, 1.327 5.919, 1.373L4.538, 3.185L3.066, 1.369C3.031, 1.325 2.979, 1.3 2.924, 1.3L1.186, 1.3C1.029, 1.3 0.943, 1.491 1.044, 1.615L3.461, 4.598L1.334, 7.389C1.238, 7.515 1.324, 7.7 1.479, 7.7L3.23, 7.7C3.287, 7.7 3.34, 7.673 3.375, 7.627L4.606, 6.012L5.919, 7.632C5.954, 7.675 6.006, 7.7 6.06, 7.7L7.799, 7.7C7.956, 7.7 8.042, 7.509 7.941, 7.385L5.683, 4.598z" fill="#FFFFFF" />
        </g>
      </g>
    </g>
  </g>
  <g id="Layer_1" transform="translate(-0.0024, -0.0024)">
    <g transform="matrix(1.75, 0, 0, 1.75, 0, 0)">
      <g id="main">
        <g id="overlay">
          <path d="M6.14, 16L15.86, 16C15.937, 16 16, 15.937 16, 15.86L16, 7.584C16, 7.465 15.86, 7.4 15.769, 7.477L6.049, 15.753C5.95, 15.838 6.01, 16 6.14, 16zM10.97, 14L14, 11.344L14, 14L10.97, 14z" fill="#FFB115" class="Yellow" fill-rule="evenodd" />
        </g>
      </g>
    </g>
  </g>
</svg>