<?xml version='1.0' encoding='UTF-8'?>
<svg viewBox="-5.435 -2 32 32" xmlns="http://www.w3.org/2000/svg" xmlns:xlink="http://www.w3.org/1999/xlink">
  <g id="Layer_1" transform="translate(-4.3787, -0.9325)">
    <g transform="matrix(0.9315, 0, 0, 0.9315, 0, 0)">
      <g transform="matrix(1, 0, 0, 1, 0, 0)">
        <g id="icon">
          <path d="M9.4895, 1.5593C9.4895, 1.5593 17.6486, 3.3623 22.3835, 3.5509C27.1185, 3.7395 30.2376, 3.968 23.4883, 7.4698C16.739, 10.9716 13.4009, 16.4287 13.4009, 16.4287C13.0487, 16.5231 12.6868, 16.3141 12.5924, 15.9619L9.0227, 2.3678C8.9283, 2.0156 9.1373, 1.6536 9.4895, 1.5593z" fill="#1177D7" fill-opacity="1" class="Blue" fill-rule="evenodd" />
        </g>
      </g>
    </g>
  </g>
  <g id="Layer_1" transform="translate(-4.3787, -0.9325)">
    <g transform="matrix(0.9315, 0, 0, 0.9315, 0, 0)">
      <g transform="matrix(1, 0, 0, 1, 0, 0)">
        <g id="icon">
          <path d="M5.1095, 1.4471L6.9968, 1.0189C7.2914, 0.94 7.5943, 1.1148 7.6733, 1.4095L15.1017, 29.9367C15.1807, 30.2313 15.0058, 30.5342 14.7112, 30.6132L12.8239, 31.0414C12.5293, 31.1203 12.2264, 30.9455 12.1475, 30.6508L4.719, 2.1236C4.64, 1.8289 4.8149, 1.5261 5.1095, 1.4471z" fill="#727272" fill-opacity="1" class="Black" fill-rule="evenodd" />
        </g>
      </g>
    </g>
  </g>
</svg>