<?xml version='1.0' encoding='UTF-8'?>
<svg viewBox="-3.62 -2 32 32" xmlns="http://www.w3.org/2000/svg" xmlns:xlink="http://www.w3.org/1999/xlink">
  <clipPath id="clip_mask" tag="staticElement_id19987085">
    <path d="M21.1325, 32L0, 32L0, 0L32, 0L32, 21.1325C30.6344, 18.6707 28.0091, 17 25, 17C20.5888, 17 17, 20.5888 17, 25C17, 28.0091 18.6707, 30.6344 21.1325, 32z" />
  </clipPath>
  <g id="Layer_1" transform="translate(-3.2411, -0.0022)">
    <g transform="matrix(0.8751, 0, 0, 0.8751, 0, 0)">
      <g id="main">
        <g id="icon" clip-path="url(#clip_mask)">
          <g id="transformed_icon" transform="translate(-1, -1)">
            <path d="M9.4895, 1.5593C9.4895, 1.5593 17.6486, 3.3623 22.3835, 3.5509C27.1185, 3.7395 30.2376, 3.968 23.4883, 7.4698C16.739, 10.9716 13.4009, 16.4287 13.4009, 16.4287C13.0487, 16.5231 12.6868, 16.3141 12.5924, 15.9619L9.0227, 2.3678C8.9283, 2.0156 9.1373, 1.6536 9.4895, 1.5593z" fill="#1177D7" class="Blue" fill-rule="evenodd" />
          </g>
        </g>
      </g>
    </g>
  </g>
  <g id="Layer_1" transform="translate(-3.2411, -0.0022)">
    <g transform="matrix(0.8751, 0, 0, 0.8751, 0, 0)">
      <g id="main">
        <g id="icon" clip-path="url(#clip_mask)">
          <g id="transformed_icon" transform="translate(-1, -1)">
            <path d="M5.1095, 1.4471L6.9968, 1.0189C7.2914, 0.94 7.5943, 1.1148 7.6733, 1.4095L15.1017, 29.9367C15.1807, 30.2313 15.0058, 30.5342 14.7112, 30.6132L12.8239, 31.0414C12.5293, 31.1203 12.2264, 30.9455 12.1475, 30.6508L4.719, 2.1236C4.64, 1.8289 4.8149, 1.5261 5.1095, 1.4471z" fill="#727272" class="Black" fill-rule="evenodd" />
          </g>
        </g>
      </g>
    </g>
  </g>
  <g id="Layer_1" transform="translate(-3.2411, -0.0022)">
    <g transform="matrix(0.8751, 0, 0, 0.8751, 0, 0)">
      <g id="main">
        <g id="overlay">
          <path d="M25, 18C21.134, 18 18, 21.134 18, 25C18, 28.866 21.134, 32 25, 32C28.866, 32 32, 28.866 32, 25C32, 21.134 28.866, 18 25, 18zM24.125, 28.6554C24.125, 28.8112 23.9987, 28.9375 23.8429, 28.9375L21.7821, 28.9375C21.6263, 28.9375 21.5, 28.8112 21.5, 28.6554L21.5, 21.3446C21.5, 21.1888 21.6263, 21.0625 21.7821, 21.0625L23.8429, 21.0625C23.9987, 21.0625 24.125, 21.1888 24.125, 21.3446L24.125, 28.6554zM28.5, 28.6554C28.5, 28.8112 28.3737, 28.9375 28.2179, 28.9375L26.1571, 28.9375C26.0013, 28.9375 25.875, 28.8112 25.875, 28.6554L25.875, 21.3446C25.875, 21.1888 26.0013, 21.0625 26.1571, 21.0625L28.2179, 21.0625C28.3737, 21.0625 28.5, 21.1888 28.5, 21.3446L28.5, 28.6554z" fill="#D11C1C" class="Red" />
        </g>
      </g>
    </g>
  </g>
</svg>