<?xml version='1.0' encoding='UTF-8'?>
<svg viewBox="0 -4.5725 32 32" xmlns="http://www.w3.org/2000/svg" xmlns:xlink="http://www.w3.org/1999/xlink">
  <g transform="translate(0, -0.0011)">
    <g transform="matrix(1.1429, 0, 0, 1.1429, 0, 0)">
      <g transform="translate(0, 0)">
        <g transform="translate(0, 0)">
          <g id="Layer_1" transform="translate(-2, -6)" style="enable-background:new 0 0 32 32">
            <g id="PersonalID">
              <rect x="18" y="16" width="8" height="2" rx="0" ry="0" fill="Transparent" class="Transparent" />
            </g>
          </g>
        </g>
      </g>
    </g>
  </g>
  <g transform="translate(0, -0.0011)">
    <g transform="matrix(1.1429, 0, 0, 1.1429, 0, 0)">
      <g transform="translate(0, 0)">
        <g transform="translate(0, 0)">
          <g id="Layer_1" transform="translate(-2, -6)" style="enable-background:new 0 0 32 32">
            <g id="PersonalID">
              <rect x="18" y="12" width="8" height="2" rx="0" ry="0" fill="Transparent" class="Transparent" />
            </g>
          </g>
        </g>
      </g>
    </g>
  </g>
  <g transform="translate(0, -0.0011)">
    <g transform="matrix(1.1429, 0, 0, 1.1429, 0, 0)">
      <g transform="translate(0, 0)">
        <g transform="translate(0, 0)">
          <g id="Layer_1" transform="translate(-2, -6)" style="enable-background:new 0 0 32 32">
            <g id="PersonalID">
              <circle cx="11" cy="13" r="3" fill="Transparent" class="Transparent" />
            </g>
          </g>
        </g>
      </g>
    </g>
  </g>
  <g transform="translate(0, -0.0011)">
    <g transform="matrix(1.1429, 0, 0, 1.1429, 0, 0)">
      <g transform="translate(0, 0)">
        <g transform="translate(0, 0)">
          <g id="Layer_1" transform="translate(-2, -6)" style="enable-background:new 0 0 32 32">
            <g id="PersonalID">
              <path d="M29, 6L3, 6C2.4, 6 2, 6.5 2, 7L2, 25C2, 25.5 2.4, 26 3, 26L29, 26C29.6, 26 30, 25.5 30, 25L30, 7C30, 6.5 29.6, 6 29, 6zM28, 24L4, 24L4, 8L28, 8L28, 24z" fill="#727272" style="fill:#EB83BA" />
            </g>
          </g>
        </g>
      </g>
    </g>
  </g>
  <g transform="translate(0, -0.0011)">
    <g transform="matrix(1.1429, 0, 0, 1.1429, 0, 0)">
      <g transform="translate(0, 0)">
        <g transform="translate(0, 0)">
          <g id="Layer_1" transform="translate(-2, -6)" style="enable-background:new 0 0 32 32">
            <g id="PersonalID">
              <path d="M14.2, 16.8C13.3, 17.5 12.2, 18 11, 18C9.8, 18 8.7, 17.5 7.8, 16.8C6, 18.5 6, 22 6, 22L16, 22C16, 22 16, 18.5 14.2, 16.8z" fill="Transparent" class="Transparent" />
            </g>
          </g>
        </g>
      </g>
    </g>
  </g>
  <g id="Layer_1" transform="translate(8, 3.4275)" style="enable-background:new 0 0 16 16">
    <g id="Delete_1_">
      <path d="M10.8, 8L15.7, 3.1C16.1, 2.7 16.1, 2.1 15.7, 1.7L14.3, 0.3C13.9, -0.1 13.3, -0.1 12.9, 0.3L8, 5.2L3.1, 0.3C2.7, -0.1 2.1, -0.1 1.7, 0.3L0.3, 1.7C-0.1, 2.1 -0.1, 2.7 0.3, 3.1L5.2, 8L0.3, 12.9C-0.1, 13.3 -0.1, 13.9 0.3, 14.3L1.7, 15.7C2.1, 16.1 2.7, 16.1 3.1, 15.7L8, 10.8L12.9, 15.7C13.3, 16.1 13.9, 16.1 14.3, 15.7L15.7, 14.3C16.1, 13.9 16.1, 13.3 15.7, 12.9L10.8, 8z" style="fill:#EB83BA" />
    </g>
  </g>
</svg>