<?xml version='1.0' encoding='UTF-8'?>
<svg viewBox="-2 -2.045 32 32" xmlns="http://www.w3.org/2000/svg" xmlns:xlink="http://www.w3.org/1999/xlink">
  <g id="Layer_1" transform="translate(-0.89, -0.9792)">
    <g transform="matrix(0.9319, 0, 0, 0.9319, 0, 0)">
      <g id="icon">
        <path d="M21.438, 18.487C21.296, 18.239 20.492, 18.178 19.71, 17.038C19.236, 17.3 17.018, 17.958 15.976, 18.042C14.933, 17.958 12.716, 17.3 12.242, 17.038C11.461, 18.178 10.657, 18.358 10.514, 18.606C12.061, 22.45 14.902, 24.808 15.824, 25.5C15.827, 25.659 15.828, 25.715 15.828, 25.715C15.828, 25.715 15.881, 25.68 15.977, 25.612C16.071, 25.679 16.124, 25.715 16.124, 25.715C16.124, 25.715 16.125, 25.659 16.128, 25.503C17.076, 24.803 20.034, 22.379 21.438, 18.487z" fill="#FFFFFF" fill-rule="evenodd" />
      </g>
    </g>
  </g>
  <g id="Layer_1" transform="translate(-0.89, -0.9792)">
    <g transform="matrix(0.9319, 0, 0, 0.9319, 0, 0)">
      <g id="icon">
        <path d="M30.953, 27.534C29.998, 21.213 30.203, 21.195 21.989, 18.67C20.812, 18.178 20.812, 18.178 20.342, 18.811C19.262, 21.552 17.998, 23.281 17.115, 24.26C17.047, 23.486 17.004, 22.814 17.009, 22.396C17.462, 21.91 17.828, 21.702 17.816, 21.207C17.861, 20.116 17.264, 20.328 16.019, 20.328C14.774, 20.328 14.197, 20.116 14.152, 21.209C14.152, 21.715 14.679, 21.881 15.02, 22.394C15.008, 22.807 14.96, 23.457 14.893, 24.205C13.971, 23.217 12.672, 21.502 11.612, 18.811C11.142, 18.178 11.142, 18.178 9.965, 18.67C1.751, 21.194 1.952, 21.213 0.996, 27.534C0.409, 30.973 5.499, 30.981 16.006, 31L16.006, 31C16.018, 31 16.029, 31 16.041, 31C16.053, 31 16.064, 31 16.076, 31L16.076, 31C26.585, 30.981 31.541, 30.973 30.953, 27.534zM4.672, 21.821L4.672, 21.343L10.055, 19.433L10.19, 20.627L4.672, 21.821zM16.044, 29.941C15.637, 29.941 15.307, 29.646 15.307, 29.283C15.307, 28.919 15.637, 28.625 16.044, 28.625C16.451, 28.625 16.781, 28.92 16.781, 29.283C16.781, 29.646 16.451, 29.941 16.044, 29.941zM16.044, 27.074C15.637, 27.074 15.307, 26.781 15.307, 26.419C15.307, 26.057 15.637, 25.764 16.044, 25.764C16.451, 25.764 16.781, 26.057 16.781, 26.419C16.781, 26.781 16.451, 27.074 16.044, 27.074zM25.218, 26.306C25.833, 27.653 25.388, 28.209 24.589, 28.428C23.82, 28.64 23.461, 28.865 23.461, 28.865C23.461, 28.865 23.102, 28.639 22.333, 28.428C21.534, 28.209 21.089, 27.652 21.704, 26.306C22.165, 25.38 21.495, 25.385 21.222, 25.166C21.286, 25.074 21.846, 24.688 22.008, 24.578C22.05, 24.553 22.166, 24.569 22.238, 24.61C22.823, 24.856 23.46, 24.74 23.46, 24.74C23.46, 24.74 24.097, 24.856 24.682, 24.61C24.755, 24.569 24.87, 24.553 24.912, 24.578C25.074, 24.687 25.634, 25.074 25.698, 25.166C25.427, 25.384 24.757, 25.379 25.218, 26.306zM27.28, 21.821L21.763, 20.508L21.898, 19.433L27.281, 21.343L27.281, 21.821z" fill="#1177D7" class="Blue" fill-rule="evenodd" />
      </g>
    </g>
  </g>
  <g id="Layer_1" transform="translate(-0.89, -0.9792)">
    <g transform="matrix(0.9319, 0, 0, 0.9319, 0, 0)">
      <g id="icon">
        <path d="M25.218, 26.306C25.833, 27.653 25.388, 28.209 24.589, 28.428C23.82, 28.64 23.461, 28.865 23.461, 28.865C23.461, 28.865 23.102, 28.639 22.333, 28.428C21.534, 28.209 21.089, 27.652 21.704, 26.306C22.165, 25.38 21.495, 25.385 21.222, 25.166C21.286, 25.074 21.846, 24.688 22.008, 24.578C22.05, 24.553 22.166, 24.569 22.238, 24.61C22.823, 24.856 23.46, 24.74 23.46, 24.74C23.46, 24.74 24.097, 24.856 24.682, 24.61C24.755, 24.569 24.87, 24.553 24.912, 24.578C25.074, 24.687 25.634, 25.074 25.698, 25.166C25.427, 25.384 24.757, 25.379 25.218, 26.306zM15.307, 26.419C15.307, 26.781 15.637, 27.074 16.044, 27.074C16.451, 27.074 16.781, 26.781 16.781, 26.419C16.781, 26.057 16.451, 25.764 16.044, 25.764C15.637, 25.763 15.307, 26.057 15.307, 26.419zM15.307, 29.282C15.307, 29.646 15.637, 29.94 16.044, 29.94C16.451, 29.94 16.781, 29.645 16.781, 29.282C16.781, 28.918 16.451, 28.624 16.044, 28.624C15.637, 28.624 15.307, 28.919 15.307, 29.282zM4.672, 21.821L10.189, 20.627L10.054, 19.433L4.671, 21.343L4.671, 21.821zM27.28, 21.821L21.763, 20.508L21.898, 19.433L27.281, 21.343L27.281, 21.821z" fill="#FFFFFF" fill-rule="evenodd" />
      </g>
    </g>
  </g>
  <g id="Layer_1" transform="translate(-0.89, -0.9792)">
    <g transform="matrix(0.9319, 0, 0, 0.9319, 0, 0)">
      <g id="icon">
        <path d="M23.006, 8.31C23.108, 8.872 23.151, 9.483 23.151, 10.137C23.151, 13.808 20.261, 19.895 15.974, 19.895C11.687, 19.895 8.797, 13.808 8.797, 10.137C8.797, 9.488 8.839, 8.881 8.94, 8.322C9.074, 8.392 9.144, 8.563 9.132, 8.685C9.087, 9.135 9.266, 9.457 9.679, 9.669C9.991, 9.829 10.337, 10.002 10.7, 10.157C10.695, 10.254 10.693, 10.352 10.693, 10.451C10.693, 13.492 12.729, 18.366 16.034, 18.366C19.339, 18.366 21.374, 13.492 21.374, 10.451C21.374, 10.324 21.369, 10.2 21.361, 10.078C21.615, 9.965 21.859, 9.842 22.094, 9.71C22.527, 9.465 22.723, 9.152 22.693, 8.752C22.672, 8.45 22.881, 8.351 23.006, 8.31z" fill="#1177D7" class="Blue" fill-rule="evenodd" />
      </g>
    </g>
  </g>
  <g id="Layer_1" transform="translate(-0.89, -0.9792)">
    <g transform="matrix(0.9319, 0, 0, 0.9319, 0, 0)">
      <g id="icon">
        <path d="M23.366, 6.718C22.1, 4.967 20.239, 2.361 16.383, 2.361C12.526, 2.361 9.535, 4.37 8.586, 6.718C8.107, 7.903 9.116, 9.002 10.73, 9.8C10.707, 10.011 10.694, 10.228 10.694, 10.452C10.694, 13.493 12.73, 18.367 16.035, 18.367C19.34, 18.367 21.375, 13.493 21.375, 10.452C21.375, 10.233 21.362, 10.02 21.34, 9.813C23.042, 8.907 24.063, 7.683 23.366, 6.718z" fill="#FFFFFF" fill-rule="evenodd" />
      </g>
    </g>
  </g>
  <g id="Layer_1" transform="translate(-0.89, -0.9792)">
    <g transform="matrix(0.9319, 0, 0, 0.9319, 0, 0)">
      <g id="icon">
        <path d="M17.012, 8.522C19.199, 8.396 21.411, 8.434 23.531, 7.833C23.658, 8.233 23.595, 8.35 23.109, 8.488C22.952, 8.532 22.881, 8.583 22.893, 8.737C22.93, 9.23 22.677, 9.61 22.193, 9.884C21.181, 10.456 20.057, 10.812 18.874, 11.029C16.287, 11.504 13.736, 11.402 11.258, 10.585C10.675, 10.393 10.124, 10.122 9.588, 9.848C9.077, 9.586 8.883, 9.167 8.933, 8.667C8.938, 8.612 8.898, 8.525 8.846, 8.5C8.368, 8.268 8.366, 8.271 8.418, 7.797C9.234, 8.136 10.125, 8.219 11.007, 8.289C12.323, 8.393 13.645, 8.442 14.964, 8.513C15.047, 8.517 15.13, 8.514 15.237, 8.47C15.152, 8.424 15.069, 8.376 14.983, 8.333C14.574, 8.127 14.168, 7.915 13.751, 7.72C13.641, 7.668 13.497, 7.658 13.366, 7.647C12.195, 7.545 11.021, 7.461 9.853, 7.342C9.457, 7.302 9.071, 7.183 8.685, 7.089C8.478, 7.039 8.365, 6.925 8.401, 6.725C8.437, 6.531 8.354, 6.363 8.247, 6.185C7.881, 5.575 7.512, 4.964 7.209, 4.332C6.99, 3.876 7.067, 3.732 7.592, 3.514C8.572, 3.108 9.559, 2.711 10.568, 2.361C12.053, 1.846 13.573, 1.412 15.147, 1.12C15.923, 0.976 16.672, 1.067 17.416, 1.236C19.606, 1.733 21.722, 2.397 23.763, 3.228C24.005, 3.327 24.238, 3.441 24.468, 3.558C24.854, 3.754 24.945, 3.898 24.778, 4.261C24.534, 4.792 24.238, 5.307 23.958, 5.826C23.896, 5.941 23.821, 6.054 23.734, 6.157C23.585, 6.333 23.524, 6.526 23.561, 6.735C23.597, 6.938 23.473, 7.047 23.266, 7.093C22.787, 7.198 22.31, 7.328 21.822, 7.38C20.779, 7.491 19.73, 7.56 18.683, 7.647C18.626, 7.652 18.564, 7.66 18.516, 7.683C18.054, 7.911 17.594, 8.143 17.135, 8.375C17.086, 8.4 17.042, 8.431 16.995, 8.459C17.001, 8.48 17.007, 8.501 17.012, 8.522zM14.204, 3.58C14.074, 3.67 13.934, 3.759 13.804, 3.858C13.271, 4.264 13.308, 4.126 13.667, 4.604C13.815, 4.801 13.85, 4.978 13.754, 5.215C13.626, 5.529 13.509, 5.874 13.534, 6.197C13.578, 6.755 13.975, 7.166 14.538, 7.472C15.016, 7.732 15.471, 8.022 15.948, 8.284C16.027, 8.327 16.197, 8.327 16.275, 8.284C16.745, 8.026 17.186, 7.731 17.663, 7.484C18.494, 7.053 18.918, 6.3 18.599, 5.554C18.403, 5.095 18.343, 4.712 18.754, 4.331C18.796, 4.292 18.783, 4.156 18.735, 4.116C18.503, 3.924 18.25, 3.749 18.015, 3.577C16.731, 4.303 15.478, 4.296 14.204, 3.58z" fill="#1177D7" class="Blue" />
      </g>
    </g>
  </g>
  <g id="Layer_1" transform="translate(-0.89, -0.9792)">
    <g transform="matrix(0.9319, 0, 0, 0.9319, 0, 0)">
      <g id="icon">
        <path d="M14.987, 7.255C15.047, 6.92 15.113, 6.642 15.139, 6.361C15.149, 6.255 15.099, 6.118 15.019, 6.039C14.809, 5.834 14.567, 5.654 14.282, 5.418C14.599, 5.375 14.841, 5.324 15.086, 5.314C15.411, 5.301 15.626, 5.2 15.738, 4.921C15.822, 4.712 15.96, 4.519 16.102, 4.27C16.281, 4.576 16.421, 4.839 16.588, 5.089C16.641, 5.168 16.759, 5.245 16.862, 5.264C17.192, 5.326 17.529, 5.361 17.943, 5.417C17.658, 5.651 17.406, 5.834 17.192, 6.045C17.107, 6.129 17.061, 6.279 17.072, 6.393C17.097, 6.657 17.168, 6.917 17.235, 7.253C16.908, 7.105 16.634, 6.993 16.376, 6.86C16.187, 6.762 16.029, 6.761 15.84, 6.861C15.583, 6.995 15.311, 7.107 14.987, 7.255z" fill="#1177D7" class="Blue" />
      </g>
    </g>
  </g>
</svg>