<?xml version='1.0' encoding='UTF-8'?>
<svg viewBox="-2 -2 32 32" xmlns="http://www.w3.org/2000/svg" xmlns:xlink="http://www.w3.org/1999/xlink">
  <g id="Layer_1" transform="translate(-0.9349, -0.9349)">
    <g transform="matrix(0.9333, 0, 0, 0.9333, 0, 0)">
      <g id="icon">
        <path d="M31, 15L28.962, 15C28.475, 8.627 23.373, 3.525 17, 3.038L17, 1L15, 1L15, 3.038C8.627, 3.525 3.525, 8.627 3.038, 15L1, 15L1, 17L3.038, 17C3.525, 23.373 8.627, 28.475 15, 28.962L15, 31L17, 31L17, 28.962C23.373, 28.475 28.475, 23.373 28.962, 17L31, 17L31, 15zM17, 26.954L17, 25L15, 25L15, 26.954C9.731, 26.477 5.523, 22.269 5.046, 17L7, 17L7, 15L5.046, 15C5.523, 9.731 9.731, 5.523 15, 5.046L15, 7L17, 7L17, 5.046C22.269, 5.523 26.477, 9.731 26.954, 15L25, 15L25, 17L26.954, 17C26.477, 22.269 22.269, 26.477 17, 26.954z" fill="#727272" fill-opacity="1" class="Black" />
      </g>
    </g>
  </g>
</svg>