<?xml version='1.0' encoding='UTF-8'?>
<svg viewBox="-2.03 -2 32 32" xmlns="http://www.w3.org/2000/svg" xmlns:xlink="http://www.w3.org/1999/xlink">
  <clipPath id="clip_mask" tag="staticElement_id18028880">
    <path d="M17.038, 32L0, 32L0, 0L32, 0L32, 17.308C32, 16.587 31.413, 16 30.692, 16L19.308, 16C18.587, 16 18, 16.587 18, 17.308L18, 29.036C17.427, 29.175 17, 29.692 17, 30.308L17, 31.691C17, 31.798 17.014, 31.901 17.038, 32z" fill="#727272" fill-opacity="1" class="Black" />
  </clipPath>
  <g id="Layer_1" transform="translate(1.815, -0.0025)">
    <g transform="matrix(-1, 0, 0, 1, 26.185, 0)">
      <g transform="matrix(0.8751, 0, 0, 0.8751, 0, 0)">
        <g transform="matrix(1, 0, 0, 1, 0, 0)">
          <g id="main">
            <g id="icon" clip-path="url(#clip_mask)">
              <g id="transformed_icon" transform="translate(-1, -1)">
                <path d="M30.841, 25.496C30.091, 21.708 28.756, 21.645 21.457, 19.067C20.391, 18.667 20.09, 18.091 20.17, 17.269C22.229, 14.808 23.469, 10.826 23.469, 8.042C23.469, 3.731 21.998, 1.001 15.974, 1.001C15.949, 1.001 15.982, 1.001 15.974, 1.001C9.95, 1 8.601, 3.731 8.601, 8.041C8.601, 10.825 9.837, 14.799 11.895, 17.26C11.975, 18.082 11.671, 18.662 10.606, 19.062C3.307, 21.64 1.971, 21.705 1.221, 25.493C0.995, 27.016 0.958, 27.654 1.559, 29.341C2.235, 31.24 11.792, 30.992 15.975, 30.992C15.992, 30.992 15.946, 30.992 15.975, 30.992C20.158, 30.992 29.827, 31.241 30.503, 29.342C31.104, 27.655 31.067, 27.018 30.841, 25.496z" fill="#039C23" fill-opacity="1" class="Green" fill-rule="evenodd" />
              </g>
            </g>
          </g>
        </g>
      </g>
    </g>
  </g>
  <g id="Layer_1" transform="translate(15.75, -0.0025)">
    <g transform="matrix(-1, 0, 0, 1, 12.25, 0)">
      <g transform="matrix(0.8751, 0, 0, 0.8751, 0, 0)">
        <g transform="matrix(1, 0, 0, 1, 0, 0)">
          <g id="main">
            <g id="overlay">
              <path d="M31.692, 30L31, 30L31, 17.308C31, 17.138 30.862, 17 30.692, 17L19.308, 17C19.138, 17 19, 17.138 19, 17.308L19, 30L18.308, 30C18.138, 30 18, 30.138 18, 30.308L18, 31.691C18, 31.861 18.138, 31.999 18.308, 31.999L19.308, 31.999L30.691, 31.999L31.691, 31.999C31.861, 31.999 31.999, 31.861 31.999, 31.691L31.999, 30.308C32, 30.138 31.862, 30 31.692, 30zM24, 19L26, 19L26, 21L24, 21L24, 19zM24, 22L26, 22L26, 24L24, 24L24, 22zM24, 25L26, 25L26, 27L24, 27L24, 25zM21, 19L23, 19L23, 21L21, 21L21, 19zM21, 22L23, 22L23, 24L21, 24L21, 22zM21, 25L23, 25L23, 27L21, 27L21, 25zM27, 31L23, 31L23, 28L27, 28L27, 31zM29, 27L27, 27L27, 25L29, 25L29, 27zM29, 24L27, 24L27, 22L29, 22L29, 24zM29, 21L27, 21L27, 19L29, 19L29, 21z" fill="#1177D7" fill-opacity="1" class="Blue" />
            </g>
          </g>
        </g>
      </g>
    </g>
  </g>
  <g id="Layer_1" transform="translate(21.0017, -0.0025)">
    <g transform="matrix(-1, 0, 0, 1, 7.0008, 0)">
      <g transform="matrix(0.8751, 0, 0, 0.8751, 0, 0)">
        <g transform="matrix(1, 0, 0, 1, 0, 0)">
          <g id="main">
            <g id="overlay">
              <path d="M23, 21L21, 21L21, 19L23, 19L23, 21zM26, 19L24, 19L24, 21L26, 21L26, 19zM29, 19L27, 19L27, 21L29, 21L29, 19zM23, 24L21, 24L21, 22L23, 22L23, 24zM26, 22L24, 22L24, 24L26, 24L26, 22zM29, 22L27, 22L27, 24L29, 24L29, 22zM23, 27L21, 27L21, 25L23, 25L23, 27zM26, 25L24, 25L24, 27L26, 27L26, 25zM29, 25L27, 25L27, 27L29, 27L29, 25zM27, 28L23, 28L23, 31L27, 31L27, 28z" fill="#FFFFFF" fill-opacity="1" class="White" />
            </g>
          </g>
        </g>
      </g>
    </g>
  </g>
</svg>