<?xml version='1.0' encoding='UTF-8'?>
<svg viewBox="0 0 32 32" xmlns="http://www.w3.org/2000/svg" xmlns:xlink="http://www.w3.org/1999/xlink">
  <g id="Layer_1" transform="translate(0, 0)">
    <g transform="matrix(0.875, 0, 0, 0.875, 0, 0)">
      <g id="icon">
        <path d="M16, 0C7.2, 0 0, 7.2 0, 16C0, 24.8 7.2, 32 16, 32C24.8, 32 32, 24.8 32, 16C32, 7.2 24.8, 0 16, 0zM12.7, 15.9C12.7, 16 12.7, 16 12.7, 16.1L18.8, 19.1C19.3, 18.7 20, 18.4 20.7, 18.4C22.4, 18.4 23.7, 19.7 23.7, 21.4C23.7, 23.1 22.4, 24.4 20.7, 24.4C19, 24.4 17.7, 23.1 17.7, 21.4C17.7, 21.3 17.7, 21.3 17.7, 21.2L11.6, 18.2C11.1, 18.6 10.4, 18.9 9.7, 18.9C8, 18.9 6.7, 17.6 6.7, 15.9C6.7, 14.2 8, 12.9 9.7, 12.9C10.4, 12.9 11.1, 13.2 11.6, 13.6L17.7, 10.6C17.7, 10.5 17.7, 10.5 17.7, 10.4C17.7, 8.7 19, 7.4 20.7, 7.4C22.4, 7.4 23.7, 8.7 23.7, 10.4C23.7, 12.1 22.4, 13.4 20.7, 13.4C20, 13.4 19.3, 13.1 18.8, 12.7L12.7, 15.7C12.7, 15.8 12.7, 15.8 12.7, 15.9z" fill="#039C23" fill-opacity="1" class="Green" />
      </g>
    </g>
  </g>
  <g id="Layer_1" transform="translate(0, 0)">
    <g transform="matrix(0.875, 0, 0, 0.875, 0, 0)">
      <g id="icon">
        <path d="M9.7, 18.9C10.4, 18.9 11.1, 18.6 11.6, 18.2L17.7, 21.2C17.7, 21.3 17.7, 21.3 17.7, 21.4C17.7, 23.1 19, 24.4 20.7, 24.4C22.4, 24.4 23.7, 23.1 23.7, 21.4C23.7, 19.7 22.4, 18.4 20.7, 18.4C20, 18.4 19.3, 18.7 18.8, 19.1L12.7, 16.1C12.7, 16 12.7, 16 12.7, 15.9C12.7, 15.8 12.7, 15.8 12.7, 15.7L18.8, 12.7C19.3, 13.1 20, 13.4 20.7, 13.4C22.4, 13.4 23.7, 12.1 23.7, 10.4C23.7, 8.7 22.4, 7.4 20.7, 7.4C19, 7.4 17.7, 8.7 17.7, 10.4C17.7, 10.5 17.7, 10.5 17.7, 10.6L11.6, 13.6C11.1, 13.2 10.4, 12.9 9.7, 12.9C8, 12.9 6.7, 14.2 6.7, 15.9C6.7, 17.6 8.1, 18.9 9.7, 18.9z" fill="#FFFFFF" fill-opacity="1" class="White" />
      </g>
    </g>
  </g>
  <g id="Layer_1" transform="translate(16, 16)" style="enable-background:new 0 0 16 16">
    <g id="Window_1_">
      <path d="M16, 4L16, 1C16, 0.4 15.5, 0 15, 0L1, 0C0.5, 0 0, 0.4 0, 1L0, 4L16, 4z" fill="#1177D7" class="Blue" />
    </g>
  </g>
  <g id="Layer_1" transform="translate(16, 16)" style="enable-background:new 0 0 16 16">
    <g id="Window_1_">
      <path d="M0, 4L0, 15C0, 15.6 0.5, 16 1, 16L15, 16C15.5, 16 16, 15.6 16, 15L16, 4L0, 4z" fill="#727272" class="Black" />
    </g>
  </g>
  <g id="Layer_1" transform="translate(16, 16)" style="enable-background:new 0 0 16 16">
    <g id="Window_1_">
      <rect x="2" y="4" width="12" height="10" rx="0" ry="0" fill="#FFFFFF" class="White" />
    </g>
  </g>
</svg>