<?xml version='1.0' encoding='UTF-8'?>
<svg viewBox="-2.0375 -2 32 32" xmlns="http://www.w3.org/2000/svg" xmlns:xlink="http://www.w3.org/1999/xlink">
  <g id="Layer_1" transform="translate(-1, -0.9356)">
    <g transform="matrix(0.9333, 0, 0, 0.9333, 0, 0)">
      <g id="icon">
        <path d="M30.841, 25.496C30.091, 21.708 28.756, 21.645 21.457, 19.067C20.391, 18.667 20.09, 18.091 20.17, 17.269C22.229, 14.808 23.469, 10.826 23.469, 8.042C23.469, 3.731 21.998, 1.001 15.974, 1.001C15.949, 1.001 15.982, 1.001 15.974, 1.001C9.95, 1 8.601, 3.731 8.601, 8.041C8.601, 10.825 9.837, 14.799 11.895, 17.26C11.975, 18.082 11.671, 18.662 10.606, 19.062C3.307, 21.64 1.971, 21.705 1.221, 25.493C0.995, 27.016 0.958, 27.654 1.559, 29.341C2.235, 31.24 11.792, 30.992 15.975, 30.992C15.992, 30.992 15.946, 30.992 15.975, 30.992C20.158, 30.992 29.827, 31.241 30.503, 29.342C31.104, 27.655 31.067, 27.018 30.841, 25.496z" fill="#039C23" class="Green" fill-rule="evenodd" />
      </g>
    </g>
  </g>
  <g id="Layer_1" transform="translate(13.9625, 14)" style="enable-background:new 0 0 16 16">
    <g id="AddCircled">
      <circle cx="9" cy="9" r="7" fill="#039C23" class="Green" />
    </g>
  </g>
  <g id="Layer_1" transform="translate(13.9625, 14)" style="enable-background:new 0 0 16 16">
    <g id="AddCircled">
      <polygon points="14,8 10,8 10,4 8,4 8,8 4,8 4,10 8,10 8,14 10,14 10,10 14,10  " fill="#FFFFFF" class="White" />
    </g>
  </g>
</svg>