<?xml version='1.0' encoding='UTF-8'?>
<svg viewBox="-2 -2 32 32" xmlns="http://www.w3.org/2000/svg" xmlns:xlink="http://www.w3.org/1999/xlink">
  <g id="Layer_1" transform="translate(-0.9349, -0.9349)">
    <g transform="matrix(0.9333, 0, 0, 0.9333, 0, 0)">
      <g id="icon">
        <path d="M16, 31C7.729, 31 1, 24.271 1, 16C1, 7.729 7.729, 1 16, 1C24.271, 1 31, 7.729 31, 16C31, 24.271 24.271, 31 16, 31zM16, 3C8.832, 3 3, 8.832 3, 16C3, 23.168 8.832, 29 16, 29C23.168, 29 29, 23.168 29, 16C29, 8.832 23.168, 3 16, 3z" fill="#D11C1C" fill-opacity="1" class="Red" />
      </g>
    </g>
  </g>
  <g id="Layer_1" transform="translate(-0.9349, -0.9349)">
    <g transform="matrix(0.9333, 0, 0, 0.9333, 0, 0)">
      <g id="icon">
        <path d="M13.85, 13.85L8.046, 23.523C7.878, 23.803 8.196, 24.121 8.476, 23.953L18.149, 18.149L23.953, 8.476C24.121, 8.196 23.803, 7.878 23.523, 8.046L13.85, 13.85zM16, 17.72C15.05, 17.72 14.28, 16.95 14.28, 16C14.28, 15.05 15.05, 14.28 16, 14.28C16.95, 14.28 17.72, 15.05 17.72, 16C17.72, 16.95 16.95, 17.72 16, 17.72z" fill="#D11C1C" fill-opacity="1" class="Red" />
      </g>
    </g>
  </g>
  <g id="Layer_1" transform="translate(-0.9349, -0.9349)">
    <g transform="matrix(0.9333, 0, 0, 0.9333, 0, 0)">
      <g id="icon">
        <circle cx="16" cy="16" r="1.72" fill="#FFFFFF" fill-opacity="1" class="White" />
      </g>
    </g>
  </g>
</svg>