<?xml version='1.0' encoding='UTF-8'?>
<svg viewBox="-3.865 -2 32 32" xmlns="http://www.w3.org/2000/svg" xmlns:xlink="http://www.w3.org/1999/xlink">
  <g id="Layer_1" transform="translate(-2.8001, -0.9351)">
    <g transform="matrix(0.9333, 0, 0, 0.9333, 0, 0)">
      <g transform="matrix(1, 0, 0, 1, 0, 0)">
        <g id="icon">
          <path d="M28.5833, 29L27, 29L27, 1.4C27, 1.1791 26.8209, 1 26.6, 1L5.4, 1C5.1791, 1 5, 1.1791 5, 1.4L5, 29L3.4, 29C3.1791, 29 3, 29.1791 3, 29.4L3, 30.6C3, 30.8209 3.1791, 31 3.4, 31L28.6, 31C28.8209, 31 29, 30.8209 29, 30.6L29, 29.4167C29, 29.1865 28.8135, 29 28.5833, 29zM14, 4L18, 4L18, 7L14, 7L14, 4zM14, 9L18, 9L18, 12L14, 12L14, 9zM14, 14L18, 14L18, 17L14, 17L14, 14zM14, 19L18, 19L18, 22L14, 22L14, 19zM12, 22L8, 22L8, 19L12, 19L12, 22zM12, 17L8, 17L8, 14L12, 14L12, 17zM12, 12L8, 12L8, 9L12, 9L12, 12zM12, 7L8, 7L8, 4L12, 4L12, 7zM19, 30L13, 30L13, 25L19, 25L19, 30zM24, 22L20, 22L20, 19L24, 19L24, 22zM24, 17L20, 17L20, 14L24, 14L24, 17zM24, 12L20, 12L20, 9L24, 9L24, 12zM24, 7L20, 7L20, 4L24, 4L24, 7z" fill="#1177D7" fill-opacity="1" class="Blue" />
        </g>
      </g>
    </g>
  </g>
  <g id="Layer_1" transform="translate(-2.8001, -0.9351)">
    <g transform="matrix(0.9333, 0, 0, 0.9333, 0, 0)">
      <g transform="matrix(1, 0, 0, 1, 0, 0)">
        <g id="icon">
          <path d="M19, 25L13, 25L13, 30L19, 30L19, 25zM12, 7L8, 7L8, 4L12, 4L12, 7zM18, 4L14, 4L14, 7L18, 7L18, 4zM24, 4L20, 4L20, 7L24, 7L24, 4zM12, 9L8, 9L8, 12L12, 12L12, 9zM18, 9L14, 9L14, 12L18, 12L18, 9zM24, 9L20, 9L20, 12L24, 12L24, 9zM12, 14L8, 14L8, 17L12, 17L12, 14zM18, 14L14, 14L14, 17L18, 17L18, 14zM24, 14L20, 14L20, 17L24, 17L24, 14zM12, 19L8, 19L8, 22L12, 22L12, 19zM18, 19L14, 19L14, 22L18, 22L18, 19zM24, 19L20, 19L20, 22L24, 22L24, 19z" fill="#FFFFFF" fill-opacity="1" class="White" />
        </g>
      </g>
    </g>
  </g>
</svg>