<?xml version='1.0' encoding='UTF-8'?>
<svg viewBox="-4.335 -2 32 32" xmlns="http://www.w3.org/2000/svg" xmlns:xlink="http://www.w3.org/1999/xlink">
  <g transform="translate(-0.0017, 0)">
    <g transform="matrix(1.1667, 0, 0, 1.1667, 0, 0)">
      <g id="Layer_1" transform="translate(-6, -4)" style="enable-background:new 0 0 32 32">
        <g id="Book">
          <path d="M9, 6L26, 6L26, 5C26, 4.4 25.6, 4 25, 4L9, 4C7.3, 4 6, 5.3 6, 7L6, 25C6, 26.7 7.3, 28 9, 28L25, 28C25.6, 28 26, 27.6 26, 27L26, 8L9, 8C8.4, 8 8, 7.6 8, 7C8, 6.4 8.4, 6 9, 6z" fill="#039C23" class="Green" />
        </g>
      </g>
    </g>
  </g>
  <g id="Layer_1" transform="translate(11.665, 14)" style="enable-background:new 0 0 16 16">
    <g id="CheckCircled_2_">
      <circle cx="8" cy="8" r="8" fill="#039C23" class="Green" />
    </g>
  </g>
  <g id="Layer_1" transform="translate(11.665, 14)" style="enable-background:new 0 0 16 16">
    <g id="CheckCircled_2_">
      <polygon points="11.5,4 6.5,9 4.5,7 3,8.5 6.5,12 13,5.5  " fill="#FFFFFF" class="White" />
    </g>
  </g>
</svg>