<?xml version='1.0' encoding='UTF-8'?>
<svg viewBox="-4.335 -2 32 32" xmlns="http://www.w3.org/2000/svg" xmlns:xlink="http://www.w3.org/1999/xlink">
  <g id="Layer_1" transform="translate(-2.8026, -0.9351)">
    <g transform="matrix(0.9333, 0, 0, 0.9333, 0, 0)">
      <g transform="matrix(1, 0, 0, 1, 0, 0)">
        <g id="icon">
          <path d="M26.749, 14.304C24.218, 8.255 26.28, 7.518 27.78, 6.09C27.428, 5.487 24.358, 2.965 23.468, 2.251C23.238, 2.086 22.604, 2.191 22.206, 2.459C18.995, 4.065 15.5, 1 15.5, 1C15.5, 1 12.005, 4.065 8.794, 2.458C8.396, 2.19 7.761, 2.085 7.532, 2.25C6.641, 2.964 3.571, 5.487 3.22, 6.089C4.72, 7.518 6.782, 8.254 4.251, 14.303C0.876, 23.098 4.931, 26.714 9.313, 28.142C13.531, 29.527 15.5, 31 15.5, 31C15.5, 31 17.469, 29.527 21.687, 28.143C26.07, 26.714 30.124, 23.098 26.749, 14.304zM24.535, 22.462C23.937, 23.716 22.666, 24.668 20.757, 25.29C18.404, 26.062 16.665, 26.87 15.5, 27.496C14.336, 26.87 12.598, 26.063 10.248, 25.292C8.334, 24.668 7.063, 23.716 6.465, 22.462C5.495, 20.426 6.236, 17.516 7.037, 15.417C8.928, 10.879 8.769, 8.232 7.451, 6.21C7.724, 5.977 8.01, 5.737 8.296, 5.499C9.092, 5.781 9.93, 5.923 10.798, 5.923C12.642, 5.923 14.296, 5.271 15.5, 4.608C16.704, 5.271 18.358, 5.923 20.202, 5.923C21.071, 5.923 21.909, 5.781 22.704, 5.499C22.991, 5.737 23.277, 5.978 23.549, 6.21C22.231, 8.231 22.072, 10.878 23.963, 15.417C24.764, 17.516 25.505, 20.427 24.535, 22.462z" fill="#1177D7" fill-opacity="1" class="Blue" fill-rule="evenodd" />
        </g>
      </g>
    </g>
  </g>
  <g id="Layer_1" transform="translate(-2.8026, -0.9351)">
    <g transform="matrix(0.9333, 0, 0, 0.9333, 0, 0)">
      <g transform="matrix(1, 0, 0, 1, 0, 0)">
        <g id="icon">
          <path d="M15.5, 27.496C14.336, 26.87 12.598, 26.063 10.248, 25.292C8.334, 24.668 7.063, 23.716 6.465, 22.462C5.495, 20.426 6.236, 17.516 7.037, 15.417C8.928, 10.879 8.769, 8.232 7.451, 6.21C7.724, 5.977 8.01, 5.737 8.296, 5.499C9.092, 5.781 9.93, 5.923 10.798, 5.923C12.642, 5.923 14.296, 5.271 15.5, 4.608C16.704, 5.271 18.358, 5.923 20.202, 5.923C21.071, 5.923 21.909, 5.781 22.704, 5.499C22.991, 5.737 23.277, 5.978 23.549, 6.21C22.231, 8.231 22.072, 10.878 23.963, 15.417C24.764, 17.515 25.504, 20.426 24.534, 22.461C23.936, 23.715 22.665, 24.667 20.756, 25.289C18.404, 26.063 16.665, 26.871 15.5, 27.496z" fill="#FFFFFF" fill-opacity="1" class="White" fill-rule="evenodd" />
        </g>
      </g>
    </g>
  </g>
</svg>