<?xml version='1.0' encoding='UTF-8'?>
<svg viewBox="-2.0125 -2 32 32" xmlns="http://www.w3.org/2000/svg" xmlns:xlink="http://www.w3.org/1999/xlink">
  <clipPath id="clip_mask" tag="staticElement_id44303172">
    <path d="M20.9262, 32C18.5189, 30.6 16.9, 27.9878 16.9, 25C16.9, 20.5265 20.5265, 16.9 25, 16.9C27.9878, 16.9 30.6, 18.5189 32, 20.9262L32, 0L0, 0L0, 32L20.9262, 32z" fill="#727272" fill-opacity="1" class="Black" fill-rule="evenodd" />
  </clipPath>
  <g id="Layer_1" transform="translate(-0.0038, 0.02)">
    <g transform="matrix(0.8744, 0, 0, 0.8744, 0, 0)">
      <g transform="matrix(1, 0, 0, 1, 0, 0)">
        <g id="main">
          <g id="icon" clip-path="url(#clip_mask)">
            <g id="transformed_icon" transform="translate(-1, -1)">
              <g>
                <path d="M17.2987, 18.3117C17.4811, 18.8816 17.6703, 19.4562 17.8603, 20.0095C19.3505, 20.5189 20.4004, 20.9048 21.1855, 21.3026C22.4028, 18.1773 23.8082, 13.3814 23.8082, 13.3814L24.0319, 13.475C24.0402, 13.4557 24.0487, 13.4374 24.057, 13.418C23.7744, 13.3012 23.3331, 13.1975 22.7571, 13.0193C22.5092, 13.2986 22.2463, 13.5489 21.9704, 13.7646C21.2129, 13.5515 20.429, 13.3907 19.7437, 13.3907C19.3369, 13.3907 18.9626, 13.4188 18.6033, 13.4704C18.5408, 14.9853 18.0524, 16.7653 17.2987, 18.3117z" fill="#FFFFFF" fill-opacity="1" class="White" fill-rule="evenodd" />
              </g>
            </g>
          </g>
        </g>
      </g>
    </g>
  </g>
  <g id="Layer_1" transform="translate(-0.0038, 0.02)">
    <g transform="matrix(0.8744, 0, 0, 0.8744, 0, 0)">
      <g transform="matrix(1, 0, 0, 1, 0, 0)">
        <g id="main">
          <g id="icon" clip-path="url(#clip_mask)">
            <g id="transformed_icon" transform="translate(-1, -1)">
              <g>
                <path d="M18.1993, 16.239C18.1993, 16.6516 18.6769, 16.7877 18.9864, 17.2062C18.9672, 17.8175 18.85, 19.078 18.7235, 20.3087C19.6258, 20.6269 20.3389, 20.9003 20.918, 21.1722C20.7315, 19.7052 20.5331, 17.9523 20.5437, 17.2077C20.9539, 16.811 21.286, 16.6409 21.2755, 16.2372C21.3162, 15.3468 20.8973, 15.5196 19.7691, 15.5196C18.6409, 15.5196 18.2399, 15.3468 18.1993, 16.239z" fill="#1177D7" fill-opacity="1" class="Blue" fill-rule="evenodd" />
              </g>
            </g>
          </g>
        </g>
      </g>
    </g>
  </g>
  <g id="Layer_1" transform="translate(-0.0038, 0.02)">
    <g transform="matrix(0.8744, 0, 0, 0.8744, 0, 0)">
      <g transform="matrix(1, 0, 0, 1, 0, 0)">
        <g id="main">
          <g id="icon" clip-path="url(#clip_mask)">
            <g id="transformed_icon" transform="translate(-1, -1)">
              <g>
                <g>
                  <path d="M30.9583, 21.0706C30.9022, 20.6624 30.8537, 20.2869 30.809, 19.9404C30.2624, 15.7078 30.1435, 15.5874 24.4636, 13.6675C24.2993, 13.5919 24.1669, 13.5315 24.0556, 13.485L23.8082, 13.3815C23.8082, 13.3815 22.4028, 18.1773 21.1856, 21.3027C21.7571, 21.5923 22.1885, 21.8883 22.5472, 22.2431C23.0636, 22.7538 23.3726, 23.3421 23.5856, 24.048C26.3123, 23.8217 29.6294, 23.3052 30.6351, 22.1259C30.9085, 21.8052 31.017, 21.4486 30.9583, 21.0706z" fill="#1177D7" fill-opacity="1" class="Blue" fill-rule="evenodd" />
                </g>
              </g>
            </g>
          </g>
        </g>
      </g>
    </g>
  </g>
  <g id="Layer_1" transform="translate(-0.0038, 0.02)">
    <g transform="matrix(0.8744, 0, 0, 0.8744, 0, 0)">
      <g transform="matrix(1, 0, 0, 1, 0, 0)">
        <g id="main">
          <g id="icon" clip-path="url(#clip_mask)">
            <g id="transformed_icon" transform="translate(-1, -1)">
              <g>
                <path d="M15.4285, 7.518C15.3683, 7.0979 15.3371, 6.6931 15.3371, 6.3188C15.3371, 6.2356 15.339, 6.1535 15.3422, 6.0722C17.5768, 5.9667 21.8262, 5.4654 23.2167, 4.5151C23.3216, 4.9542 23.8286, 5.7346 24.2983, 6.0681C24.3017, 6.1507 24.3035, 6.2342 24.3035, 6.3188C24.3035, 9.1024 22.5948, 13.5646 19.8205, 13.5646C19.3899, 13.5646 18.985, 13.4569 18.6082, 13.2649C18.6029, 13.6047 18.5767, 13.9583 18.5282, 14.3223C18.9192, 14.4871 19.3309, 14.5786 19.7613, 14.5786C23.0385, 14.5786 25.3355, 9.318 25.3355, 6.1458C25.3355, 2.9736 24.229, 0.9757 19.7859, 0.9757C15.2931, 0.9757 14.2738, 2.9737 14.2738, 6.1458C14.2738, 6.4795 14.2986, 6.8366 14.3462, 7.208C14.7345, 7.288 15.0956, 7.3908 15.4285, 7.518z" fill="#1177D7" fill-opacity="1" class="Blue" fill-rule="evenodd" />
              </g>
            </g>
          </g>
        </g>
      </g>
    </g>
  </g>
  <g id="Layer_1" transform="translate(-0.0038, 0.02)">
    <g transform="matrix(0.8744, 0, 0, 0.8744, 0, 0)">
      <g transform="matrix(1, 0, 0, 1, 0, 0)">
        <g id="main">
          <g id="icon" clip-path="url(#clip_mask)">
            <g id="transformed_icon" transform="translate(-1, -1)">
              <g>
                <path d="M17.2417, 8.7073C18.1759, 9.7134 18.611, 11.1238 18.611, 13.1458C18.611, 13.1849 18.6087, 13.2255 18.6081, 13.265C18.985, 13.457 19.3899, 13.5647 19.8204, 13.5647C22.5947, 13.5647 24.3034, 9.1025 24.3034, 6.3189C24.3034, 6.2344 24.3016, 6.1509 24.2982, 6.0682C23.8285, 5.7347 23.3215, 4.9543 23.2166, 4.5152C21.8261, 5.4655 17.5767, 5.9668 15.3421, 6.0723C15.3388, 6.1536 15.337, 6.2357 15.337, 6.3189C15.337, 6.6932 15.3682, 7.098 15.4284, 7.5181C16.1624, 7.7985 16.7646, 8.1934 17.2417, 8.7073z" fill="#FFFFFF" fill-opacity="1" class="White" fill-rule="evenodd" />
              </g>
            </g>
          </g>
        </g>
      </g>
    </g>
  </g>
  <g id="Layer_1" transform="translate(-0.0038, 0.02)">
    <g transform="matrix(0.8744, 0, 0, 0.8744, 0, 0)">
      <g transform="matrix(1, 0, 0, 1, 0, 0)">
        <g id="main">
          <g id="icon" clip-path="url(#clip_mask)">
            <g id="transformed_icon" transform="translate(-1, -1)">
              <g>
                <path d="M8.153, 20.3125C8.153, 20.3125 9.9739, 26.8905 11.2039, 29.5847C11.6369, 29.5957 11.9065, 29.5969 11.9368, 29.597C11.9699, 29.5969 12.2936, 29.5955 12.8072, 29.5813C14.0754, 26.8954 15.9853, 20.3664 15.9853, 20.3664L16.2043, 20.4582C16.2125, 20.4393 16.2207, 20.4214 16.2288, 20.4023C15.9521, 20.2877 15.5201, 20.1861 14.9563, 20.0113C14.7137, 20.2852 14.4562, 20.5306 14.1862, 20.7423C13.4446, 20.5333 12.6773, 20.3756 12.0064, 20.3756C11.188, 20.3756 10.5022, 20.4901 9.8072, 20.6881C9.5467, 20.4741 9.2989, 20.2281 9.0659, 19.9549C8.5775, 20.1678 8.2743, 20.1978 7.9478, 20.3509C7.9536, 20.3637 7.9592, 20.3758 7.965, 20.3886L8.153, 20.3125z" fill="#FFFFFF" fill-opacity="1" class="White" fill-rule="evenodd" />
              </g>
            </g>
          </g>
        </g>
      </g>
    </g>
  </g>
  <g id="Layer_1" transform="translate(-0.0038, 0.02)">
    <g transform="matrix(0.8744, 0, 0, 0.8744, 0, 0)">
      <g transform="matrix(1, 0, 0, 1, 0, 0)">
        <g id="main">
          <g id="icon" clip-path="url(#clip_mask)">
            <g id="transformed_icon" transform="translate(-1, -1)">
              <g>
                <path d="M10.4945, 23.1687C10.5343, 22.2938 10.9269, 22.4632 12.0313, 22.4632C13.1357, 22.4632 13.5458, 22.2938 13.506, 23.167C13.5162, 23.563 13.1912, 23.7298 12.7896, 24.1188C12.7704, 25.4815 13.4635, 30.2886 13.4635, 30.2886L12.0102, 30.847L10.6697, 30.2568C10.6697, 30.2568 11.2218, 25.498 11.2652, 24.1172C10.9621, 23.7069 10.4945, 23.5734 10.4945, 23.1687z" fill="#D11C1C" fill-opacity="1" class="Red" fill-rule="evenodd" />
              </g>
            </g>
          </g>
        </g>
      </g>
    </g>
  </g>
  <g id="Layer_1" transform="translate(-0.0038, 0.02)">
    <g transform="matrix(0.8744, 0, 0, 0.8744, 0, 0)">
      <g transform="matrix(1, 0, 0, 1, 0, 0)">
        <g id="main">
          <g id="icon" clip-path="url(#clip_mask)">
            <g id="transformed_icon" transform="translate(-1, -1)">
              <g>
                <path d="M11.9357, 31C11.5736, 30.9995 3.0486, 30.9646 1.3332, 28.9493C1.0639, 28.6329 0.957, 28.2807 1.0157, 27.9024C1.0759, 27.4631 1.1272, 27.0588 1.174, 26.6891C1.6853, 22.6565 1.8003, 22.5411 7.3103, 20.6753C7.6825, 20.504 7.9145, 20.4091 7.9168, 20.4082L8.1531, 20.3125C8.1531, 20.3125 11.0326, 30.715 11.9955, 30.715C12.9584, 30.715 15.9854, 20.3663 15.9854, 20.3663L16.2275, 20.4678C16.3364, 20.5134 16.466, 20.5726 16.6269, 20.6468C22.1872, 22.5297 22.3036, 22.6478 22.8387, 26.7986C22.8825, 27.1384 22.9299, 27.5067 22.9849, 27.907C23.0423, 28.2777 22.9362, 28.6274 22.6686, 28.9418C20.9469, 30.9645 12.3036, 30.9994 11.9365, 31L11.9357, 31z" fill="#727272" fill-opacity="1" class="Black" fill-rule="evenodd" />
              </g>
            </g>
          </g>
        </g>
      </g>
    </g>
  </g>
  <g id="Layer_1" transform="translate(-0.0038, 0.02)">
    <g transform="matrix(0.8744, 0, 0, 0.8744, 0, 0)">
      <g transform="matrix(1, 0, 0, 1, 0, 0)">
        <g id="main">
          <g id="icon" clip-path="url(#clip_mask)">
            <g id="transformed_icon" transform="translate(-1, -1)">
              <g>
                <path d="M12.0477, 8.2C7.6495, 8.2 6.6517, 10.1594 6.6517, 13.2703C6.6517, 16.3812 8.8153, 21.5403 12.0236, 21.5403C15.2318, 21.5403 17.4805, 16.3812 17.4805, 13.2703C17.4805, 10.1594 16.3972, 8.2 12.0477, 8.2zM12.0816, 20.546C9.3658, 20.546 7.6926, 16.17 7.6926, 13.4401C7.6926, 13.3585 7.6944, 13.278 7.6976, 13.1983C9.8852, 13.0948 14.0451, 12.6032 15.4063, 11.6713C15.5089, 12.1019 16.0053, 12.8672 16.4651, 13.1943C16.4684, 13.2753 16.4702, 13.3572 16.4702, 13.4401C16.4702, 16.17 14.7975, 20.546 12.0816, 20.546z" fill="#727272" fill-opacity="1" class="Black" fill-rule="evenodd" />
              </g>
            </g>
          </g>
        </g>
      </g>
    </g>
  </g>
  <g id="Layer_1" transform="translate(-0.0038, 0.02)">
    <g transform="matrix(0.8744, 0, 0, 0.8744, 0, 0)">
      <g transform="matrix(1, 0, 0, 1, 0, 0)">
        <g id="main">
          <g id="icon" clip-path="url(#clip_mask)">
            <g id="transformed_icon" transform="translate(-1, -1)">
              <g>
                <path d="M15.4063, 11.6713C14.045, 12.6032 9.8852, 13.0948 7.6976, 13.1983C7.6944, 13.278 7.6926, 13.3586 7.6926, 13.4401C7.6926, 16.17 9.3658, 20.546 12.0816, 20.546C14.7974, 20.546 16.4702, 16.17 16.4702, 13.4401C16.4702, 13.3572 16.4684, 13.2753 16.4651, 13.1943C16.0053, 12.8672 15.509, 12.1019 15.4063, 11.6713z" fill="#FFFFFF" fill-opacity="1" class="White" fill-rule="evenodd" />
              </g>
            </g>
          </g>
        </g>
      </g>
    </g>
  </g>
  <g id="Layer_1" transform="translate(-0.0038, 0.02)">
    <g transform="matrix(0.8744, 0, 0, 0.8744, 0, 0)">
      <g transform="matrix(1, 0, 0, 1, 0, 0)">
        <g id="main">
          <g id="overlay">
            <path d="M25.0347, 18.8353C28.4364, 18.8353 31.194, 21.5929 31.194, 24.9946C31.194, 28.3963 28.4364, 31.1539 25.0347, 31.1539C21.633, 31.1539 18.8754, 28.3963 18.8754, 24.9946C18.8755, 21.5929 21.6331, 18.8353 25.0347, 18.8353z" fill="#FFFFFF" fill-opacity="1" class="White" fill-rule="evenodd" />
          </g>
        </g>
      </g>
    </g>
  </g>
  <g id="Layer_1" transform="translate(-0.0038, 0.02)">
    <g transform="matrix(0.8744, 0, 0, 0.8744, 0, 0)">
      <g transform="matrix(1, 0, 0, 1, 0, 0)">
        <g id="main">
          <g id="overlay">
            <path d="M25.0072, 18.0144C21.1452, 18.0144 18.0144, 21.1452 18.0144, 25.0072C18.0144, 28.8692 21.1452, 32 25.0072, 32C28.8692, 32 32, 28.8692 32, 25.0072C32, 21.1452 28.8692, 18.0144 25.0072, 18.0144zM25.0072, 30.9317C21.7352, 30.9317 19.0827, 28.2792 19.0827, 25.0072C19.0827, 21.7352 21.7352, 19.0827 25.0072, 19.0827C28.2792, 19.0827 30.9317, 21.7352 30.9317, 25.0072C30.9317, 28.2792 28.2792, 30.9317 25.0072, 30.9317z" fill="#727272" fill-opacity="1" class="Black" fill-rule="evenodd" />
          </g>
        </g>
      </g>
    </g>
  </g>
  <g id="Layer_1" transform="translate(-0.0038, 0.02)">
    <g transform="matrix(0.8744, 0, 0, 0.8744, 0, 0)">
      <g transform="matrix(1, 0, 0, 1, 0, 0)">
        <g id="main">
          <g id="overlay">
            <path d="M23.8619, 25.0174C23.8595, 25.7486 23.9265, 26.0829 24.5279, 26.0858C25.1293, 26.0887 25.1383, 25.6786 25.1407, 24.9475C25.1431, 24.2163 24.9396, 19.5998 24.5499, 19.5978C24.1603, 19.596 23.8643, 24.2862 23.8619, 25.0174z" fill="#039C23" fill-opacity="1" class="Green" fill-rule="evenodd" />
          </g>
        </g>
      </g>
    </g>
  </g>
  <g id="Layer_1" transform="translate(-0.0038, 0.02)">
    <g transform="matrix(0.8744, 0, 0, 0.8744, 0, 0)">
      <g transform="matrix(1, 0, 0, 1, 0, 0)">
        <g id="main">
          <g id="overlay">
            <path d="M25.3505, 25.6061C24.8334, 25.0845 24.5681, 24.9194 24.1413, 25.343C23.7145, 25.7666 23.8292, 25.9219 24.3463, 26.4435C24.8634, 26.9651 27.9061, 29.552 28.1826, 29.2775C28.4591, 29.003 25.8676, 26.1277 25.3505, 25.6061z" fill="#039C23" fill-opacity="1" class="Green" fill-rule="evenodd" />
          </g>
        </g>
      </g>
    </g>
  </g>
</svg>