<?xml version='1.0' encoding='UTF-8'?>
<svg viewBox="-2 -2.05 32 32" xmlns="http://www.w3.org/2000/svg" xmlns:xlink="http://www.w3.org/1999/xlink">
  <g id="Layer_1" transform="translate(-2.9903, -1.9952)">
    <g transform="matrix(0.9964, 0, 0, 0.9964, 0, 0)">
      <g transform="matrix(1, 0, 0, 1, 0, 0)">
        <g id="icon">
          <rect x="5" y="4" width="18" height="24" rx="0" ry="0" fill="#FFFFFF" fill-opacity="1" class="White" fill-rule="evenodd" />
        </g>
      </g>
    </g>
  </g>
  <g id="Layer_1" transform="translate(-2.9903, -1.9952)">
    <g transform="matrix(0.9964, 0, 0, 0.9964, 0, 0)">
      <g transform="matrix(1, 0, 0, 1, 0, 0)">
        <g id="icon">
          <path d="M25.135, 10.098C25.088, 10.054 25.003, 10 24.939, 10L21.31, 10.001C21.208, 10.001 21.157, 10.124 21.229, 10.197L24.936, 14L11.226, 14C11.187, 13.999 11.026, 14.172 11.026, 14.197L11.026, 16.802L11.026, 17.406L11.026, 17.805C11.026, 17.913 11.113, 18 11.221, 18L24.916, 18L21.226, 21.805C21.154, 21.877 21.205, 22 21.307, 22L24.96, 22C25.025, 22 25.087, 21.975 25.134, 21.93C25.134, 21.93 30.282, 16.873 31.04, 16.146C31.119, 16.07 31.119, 15.939 31.039, 15.864C30.278, 15.148 25.135, 10.098 25.135, 10.098z" fill="#D11C1C" fill-opacity="1" class="Red" fill-rule="evenodd" />
        </g>
      </g>
    </g>
  </g>
  <g id="Layer_1" transform="translate(-2.9903, -1.9952)">
    <g transform="matrix(0.9964, 0, 0, 0.9964, 0, 0)">
      <g transform="matrix(1, 0, 0, 1, 0, 0)">
        <g id="icon">
          <path d="M23, 7L23, 2.883C23, 2.395 22.605, 2 22.117, 2L15, 2L11.1, 2L3.883, 2C3.395, 2 3, 2.395 3, 2.883L3, 29.116C3, 29.604 3.395, 29.999 3.883, 29.999L11.1, 29.999L15, 29.999L22.117, 29.999C22.605, 29.999 23, 29.604 23, 29.116L23, 25L21, 25L21, 28L15, 28L11.1, 28L5, 28L5, 4L11.1, 4L15, 4L21, 4L21, 7L23, 7z" fill="#727272" fill-opacity="1" class="Black" fill-rule="evenodd" />
        </g>
      </g>
    </g>
  </g>
</svg>