<?xml version='1.0' encoding='UTF-8'?>
<svg viewBox="-2.025 -2 32 32" xmlns="http://www.w3.org/2000/svg" xmlns:xlink="http://www.w3.org/1999/xlink">
  <g id="Layer_1" transform="translate(-1.0143, -0.9325)">
    <g transform="matrix(0.9333, 0, 0, 0.9333, 0, 0)">
      <g id="icon">
        <path d="M24, 30.5L8, 30.5C7.724, 30.5 7.5, 30.276 7.5, 30L7.5, 16.5L24.5, 16.5L24.5, 30C24.5, 30.276 24.276, 30.5 24, 30.5z" fill="#FFFFFF" fill-opacity="1" class="White" stroke="#000000" stroke-width="1px" stroke-miterlimit="1" stroke-opacity="1" />
      </g>
    </g>
  </g>
  <g id="Layer_1" transform="translate(-1.0143, -0.9325)">
    <g transform="matrix(0.9333, 0, 0, 0.9333, 0, 0)">
      <g id="icon">
        <path d="M25, 17L7, 17L7, 14C7, 13.448 7.448, 13 8, 13L24, 13C24.552, 13 25, 13.448 25, 14L25, 17z" fill="#D11C1C" fill-opacity="1" class="Red" />
      </g>
    </g>
  </g>
  <g id="Layer_1" transform="translate(-1.0143, -0.9325)">
    <g transform="matrix(0.9333, 0, 0, 0.9333, 0, 0)">
      <g id="icon">
        <path d="M22.5, 22.5L9.5, 22.5L9.5, 18.5L22.5, 18.5L22.5, 22.5zM22.5, 24.5L9.5, 24.5L9.5, 28.5L22.5, 28.5L22.5, 24.5z" fill="none" stroke="#000000" stroke-width="1px" stroke-linecap="round" stroke-linejoin="round" stroke-miterlimit="1" stroke-opacity="1" />
      </g>
    </g>
  </g>
  <g id="Layer_1" transform="translate(-1.0143, -0.9325)">
    <g transform="matrix(0.9333, 0, 0, 0.9333, 0, 0)">
      <g id="icon">
        <path d="M14, 21L11, 21L11, 20L14, 20L14, 21zM16, 20L15, 20L15, 21L16, 21L16, 20zM20, 20L17, 20L17, 21L20, 21L20, 20zM13, 26L11, 26L11, 27L13, 27L13, 26zM16, 26L14, 26L14, 27L16, 27L16, 26zM19, 26L17, 26L17, 27L19, 27L19, 26z" fill="#727272" fill-opacity="1" class="Black" />
      </g>
    </g>
  </g>
  <g id="Layer_1" transform="translate(-1.0143, -0.9325)">
    <g transform="matrix(0.9333, 0, 0, 0.9333, 0, 0)">
      <g id="icon">
        <path d="M23.812, 5.455C22.759, 5.455 21.759, 5.685 20.856, 6.095C19.598, 3.093 16.75, 0.997 13.435, 0.997C9.336, 0.997 5.95, 4.201 5.404, 8.361C2.9, 9.13 1.085, 11.399 1.085, 14.079C1.085, 17.684 3.425, 19.095 5.998, 19.636L5.998, 14.013C6, 12.901 6.901, 12 8.013, 12L23.988, 12C25.099, 12 26.001, 12.901 26.001, 14.013L26.001, 19.839C29.194, 19.225 31.033, 16.331 31.033, 12.757C31.032, 8.724 27.8, 5.455 23.812, 5.455z" fill="#1177D7" fill-opacity="1" class="Blue" fill-rule="evenodd" />
      </g>
    </g>
  </g>
</svg>