<?xml version='1.0' encoding='UTF-8'?>
<svg viewBox="-2 -2.025 32 32" xmlns="http://www.w3.org/2000/svg" xmlns:xlink="http://www.w3.org/1999/xlink">
  <g id="Layer_1" transform="translate(-3.2075, -3.23)">
    <g transform="matrix(1.0761, 0, 0, 1.0761, 0, 0)">
      <g transform="matrix(1, 0, 0, 1, 0, 0)">
        <g id="icon">
          <path d="M17.581, 14.237C16.232, 12.879 14.645, 12.171 12.819, 12.112C10.993, 12.053 9.406, 12.691 8.057, 14.025C6.72, 15.395 6.051, 17.042 6.051, 18.967C6.051, 20.892 6.72, 22.539 8.057, 23.909C9.406, 25.255 11.022, 25.934 12.906, 25.946C14.801, 25.958 16.43, 25.279 17.79, 23.909C19.127, 22.539 19.761, 20.922 19.691, 19.056C19.634, 17.189 18.93, 15.583 17.581, 14.237M19.971, 26.068C18.017, 28.005 15.686, 28.973 12.976, 28.973L12.941, 28.973C10.185, 28.973 7.842, 28.005 5.911, 26.068C3.981, 24.12 3.015, 21.758 3.015, 18.983L2.98, 18.93C2.98, 16.167 3.957, 13.8 5.911, 11.828C7.841, 9.868 10.132, 8.941 12.784, 9.047C15.435, 9.141 17.412, 9.797 18.715, 11.013L24.4, 5.6L18.318, 5.613C18.141, 5.613 18.051, 5.4 18.175, 5.273L20.312, 3.09C20.368, 3.032 20.446, 3 20.526, 3L28.7, 3C28.866, 3 29, 3.134 29, 3.3L29, 11.626C29, 11.705 28.969, 11.78 28.914, 11.837L26.848, 13.934C26.722, 14.061 26.506, 13.973 26.506, 13.794L26.506, 7.675L20.826, 13.174C21.989, 14.449 22.617, 16.433 22.71, 19.125C22.803, 21.805 21.89, 24.12 19.971, 26.068" fill="#1177D7" fill-opacity="1" class="Blue" />
        </g>
      </g>
    </g>
  </g>
</svg>