<?xml version='1.0' encoding='UTF-8'?>
<svg viewBox="-2 -2 32 32" xmlns="http://www.w3.org/2000/svg" xmlns:xlink="http://www.w3.org/1999/xlink">
  <g id="Layer_1" transform="translate(-2.0159, -2.0021)">
    <g id="icon">
      <path d="M25.9015, 6.0984C20.4369, 0.6338 11.577, 0.6338 6.1124, 6.0984C0.6478, 11.563 0.6478, 20.4229 6.1124, 25.8875C11.577, 31.3521 20.4369, 31.3521 25.9015, 25.8875C31.3662, 20.4229 31.3662, 11.5631 25.9015, 6.0984zM23.0177, 23.2625C19.0745, 27.2057 12.8276, 26.6989 9.0648, 22.9361C5.302, 19.1733 4.7948, 12.926 8.738, 8.9828C12.6812, 5.0396 19.0745, 5.0396 23.0177, 8.9828C26.961, 12.926 26.961, 19.3193 23.0177, 23.2625z" fill="#727272" fill-opacity="1" class="Black" fill-rule="evenodd" />
    </g>
  </g>
  <g id="Layer_1" transform="translate(-2.0159, -2.0021)">
    <g id="icon">
      <path d="M6.1654, 22.8034L22.2436, 6.7252L25.2684, 9.75L9.1902, 25.8282L6.1654, 22.8034z" fill="#727272" fill-opacity="1" class="Black" fill-rule="evenodd" />
    </g>
  </g>
</svg>