<?xml version='1.0' encoding='UTF-8'?>
<svg viewBox="-6.54 -1.9975 32 32" xmlns="http://www.w3.org/2000/svg" xmlns:xlink="http://www.w3.org/1999/xlink">
  <g id="Layer_1" transform="translate(-5.0576, -1.0301)">
    <g transform="matrix(0.9365, 0, 0, 0.9365, 0, 0)">
      <g transform="matrix(1, 0, 0, 1, 0, 0)">
        <g id="icon">
          <path d="M22.626, 4.104L22.563, 4.091C20.582, 2.11 18.207, 1.113 15.438, 1.1C12.677, 1.096 10.313, 2.077 8.345, 4.045L8.32, 4.07C6.386, 6.004 5.412, 8.36 5.4, 11.138C5.421, 13.899 6.422, 16.203 8.402, 18.05C10.39, 19.906 12.26, 20.82 14, 20.9L14, 30.6C14, 30.821 14.179, 31 14.4, 31L16.6, 31C16.821, 31 17, 30.821 17, 30.6L17, 20.9C18.798, 20.838 20.722, 19.984 22.683, 18.159C24.652, 16.342 25.626, 14.045 25.604, 11.267C25.591, 8.464 24.598, 6.076 22.626, 4.104zM20.47, 15.996C19.124, 17.257 17.485, 17.885 15.553, 17.878C13.629, 17.88 11.98, 17.236 10.607, 15.945C9.225, 14.663 8.523, 13.056 8.5, 11.123C8.494, 9.174 9.171, 7.527 10.533, 6.182C11.886, 4.845 13.525, 4.176 15.449, 4.174C17.382, 4.197 19.035, 4.896 20.409, 6.27C21.783, 7.644 22.482, 9.297 22.505, 11.23C22.494, 13.146 21.816, 14.735 20.47, 15.996z" fill="#D11C1C" fill-opacity="1" class="Red" />
        </g>
      </g>
    </g>
  </g>
  <g id="Layer_1" transform="translate(-5.0576, -1.0301)">
    <g transform="matrix(0.9365, 0, 0, 0.9365, 0, 0)">
      <g transform="matrix(1, 0, 0, 1, 0, 0)">
        <g id="icon">
          <path d="M10.4, 24L20.6, 24C20.821, 24 21, 24.179 21, 24.4L21, 26.6C21, 26.821 20.821, 27 20.6, 27L10.4, 27C10.179, 27 10, 26.821 10, 26.6L10, 24.4C10, 24.179 10.179, 24 10.4, 24z" fill="#D11C1C" fill-opacity="1" class="Red" fill-rule="evenodd" />
        </g>
      </g>
    </g>
  </g>
</svg>