<?xml version='1.0' encoding='UTF-8'?>
<svg viewBox="-4 -4 32 32" xmlns="http://www.w3.org/2000/svg" xmlns:xlink="http://www.w3.org/1999/xlink">
  <g id="Layer_1" transform="translate(-4, -4)" style="enable-background:new 0 0 32 32">
    <g id="Ship">
      <path d="M12, 22C14.1, 22 15.4, 23.1 16, 23.8C16.6, 23.2 17.9, 22 20, 22C22.1, 22 23.4, 23.1 24, 23.8C24, 23.8 28, 14 28, 14L24, 12.7L24, 7C24, 6.5 23.6, 6 23, 6L20, 6L20, 5C20, 4.5 19.6, 4 19, 4L13, 4C12.4, 4 12, 4.5 12, 5L12, 6L9, 6C8.4, 6 8, 6.5 8, 7L8, 12.7L4, 14C4, 14 8, 23.7 8, 23.8C8.6, 23.1 9.9, 22 12, 22zM10, 8L13, 8L19, 8L22, 8L22, 12L16, 10L10, 12L10, 8z" fill="#1177D7" class="Blue" />
    </g>
  </g>
  <g id="Layer_1" transform="translate(-4, -4)" style="enable-background:new 0 0 32 32">
    <g id="Ship">
      <path d="M24, 26C23.4, 26 23.2, 25.8 22.7, 25.3C22.2, 24.7 21.4, 24 20, 24C18.6, 24 17.8, 24.7 17.3, 25.3C16.8, 25.8 16.6, 26 16, 26C15.4, 26 15.2, 25.8 14.7, 25.3C14.2, 24.7 13.4, 24 12, 24C10.6, 24 9.8, 24.7 9.3, 25.3C8.8, 25.8 8.6, 26 8, 26C7.4, 26 7.2, 25.8 6.7, 25.3C6.2, 24.7 5.4, 24 4, 24L4, 26C4.6, 26 4.8, 26.2 5.3, 26.7C5.8, 27.3 6.6, 28 8, 28C9.4, 28 10.2, 27.3 10.7, 26.7C11.2, 26.2 11.4, 26 12, 26C12.6, 26 12.8, 26.2 13.3, 26.7C13.8, 27.2 14.6, 28 16, 28C17.4, 28 18.2, 27.3 18.7, 26.7C19.2, 26.2 19.4, 26 20, 26C20.6, 26 20.8, 26.2 21.3, 26.7C21.8, 27.2 22.6, 28 24, 28C25.4, 28 26.2, 27.3 26.7, 26.7C27.2, 26.2 27.4, 26 28, 26L28, 24C26.6, 24 25.8, 24.7 25.3, 25.3C24.8, 25.8 24.6, 26 24, 26z" fill="#1177D7" class="Blue" />
    </g>
  </g>
</svg>