<?xml version='1.0' encoding='UTF-8'?>
<svg viewBox="-2 -2.4375 32 32" xmlns="http://www.w3.org/2000/svg" xmlns:xlink="http://www.w3.org/1999/xlink">
  <clipPath id="clip_mask" tag="staticElement_id6847548">
    <path d="M32, 0L32, 32L14.962, 32C14.986, 31.901 15, 31.798 15, 31.692L15, 30.309C15, 29.694 14.573, 29.176 14, 29.037L14, 17.308C14, 16.587 13.413, 16 12.692, 16L1.308, 16C0.587, 16 0, 16.587 0, 17.308L0, 0L32, 0z" fill="#727272" fill-opacity="1" class="Black" />
  </clipPath>
  <g id="Layer_1" transform="translate(0, -0.875)">
    <g transform="matrix(0.875, 0, 0, 0.875, 0, 0)">
      <g transform="matrix(1, 0, 0, 1, 0, 0)">
        <g id="main">
          <g id="icon" clip-path="url(#clip_mask)">
            <g id="transformed_icon" transform="translate(1, 0)">
              <path d="M6, 8.085C6, 6.935 6.935, 6 8.085, 6L14, 6L14, 1.783C14, 1.35 13.649, 1 13.217, 1L1.783, 1C1.351, 1 1, 1.351 1, 1.783L1, 13.216C1, 13.649 1.351, 13.999 1.783, 13.999L6, 13.999L6, 8.085z" fill="#039C23" fill-opacity="1" class="Green" />
            </g>
          </g>
        </g>
      </g>
    </g>
  </g>
  <g id="Layer_1" transform="translate(0, -0.875)">
    <g transform="matrix(0.875, 0, 0, 0.875, 0, 0)">
      <g transform="matrix(1, 0, 0, 1, 0, 0)">
        <g id="main">
          <g id="icon" clip-path="url(#clip_mask)">
            <g id="transformed_icon" transform="translate(1, 0)">
              <path d="M30.217, 18L26, 18L26, 23.915C26, 25.064 25.065, 26 23.915, 26L18, 26L18, 30.217C18, 30.65 18.351, 31 18.783, 31L30.216, 31C30.649, 31 30.999, 30.649 30.999, 30.217L30.999, 18.783C31, 18.351 30.649, 18 30.217, 18z" fill="#039C23" fill-opacity="1" class="Green" />
            </g>
          </g>
        </g>
      </g>
    </g>
  </g>
  <g id="Layer_1" transform="translate(0, -0.875)">
    <g transform="matrix(0.875, 0, 0, 0.875, 0, 0)">
      <g transform="matrix(1, 0, 0, 1, 0, 0)">
        <g id="main">
          <g id="icon" clip-path="url(#clip_mask)">
            <g id="transformed_icon" transform="translate(1, 0)">
              <path d="M23.915, 25L8.085, 25C7.486, 25 7, 24.514 7, 23.915L7, 8.085C7, 7.486 7.486, 7 8.085, 7L23.916, 7C24.515, 7 25.001, 7.486 25.001, 8.085L25.001, 23.916C25, 24.514 24.514, 25 23.915, 25z" fill="#039C23" fill-opacity="1" class="Green" />
            </g>
          </g>
        </g>
      </g>
    </g>
  </g>
  <g id="Layer_1" transform="translate(0, -0.875)">
    <g transform="matrix(0.875, 0, 0, 0.875, 0, 0)">
      <g transform="matrix(1, 0, 0, 1, 0, 0)">
        <g id="main">
          <g id="overlay">
            <path d="M13.692, 30L13, 30L13, 17.308C13, 17.138 12.862, 17 12.692, 17L1.308, 17C1.138, 17 1, 17.138 1, 17.308L1, 30L0.308, 30C0.138, 30 0, 30.138 0, 30.308L0, 31.691C0, 31.861 0.138, 31.999 0.308, 31.999L1.308, 31.999L12.691, 31.999L13.691, 31.999C13.861, 31.999 13.999, 31.861 13.999, 31.691L13.999, 30.308C14, 30.138 13.862, 30 13.692, 30zM6, 19L8, 19L8, 21L6, 21L6, 19zM6, 22L8, 22L8, 24L6, 24L6, 22zM6, 25L8, 25L8, 27L6, 27L6, 25zM3, 19L5, 19L5, 21L3, 21L3, 19zM3, 22L5, 22L5, 24L3, 24L3, 22zM3, 25L5, 25L5, 27L3, 27L3, 25zM9, 31L5, 31L5, 28L9, 28L9, 31zM11, 27L9, 27L9, 25L11, 25L11, 27zM11, 24L9, 24L9, 22L11, 22L11, 24zM11, 21L9, 21L9, 19L11, 19L11, 21z" fill="#1177D7" fill-opacity="1" class="Blue" />
          </g>
        </g>
      </g>
    </g>
  </g>
  <g id="Layer_1" transform="translate(0, -0.875)">
    <g transform="matrix(0.875, 0, 0, 0.875, 0, 0)">
      <g transform="matrix(1, 0, 0, 1, 0, 0)">
        <g id="main">
          <g id="overlay">
            <path d="M5, 21L3, 21L3, 19L5, 19L5, 21zM8, 19L6, 19L6, 21L8, 21L8, 19zM11, 19L9, 19L9, 21L11, 21L11, 19zM5, 24L3, 24L3, 22L5, 22L5, 24zM8, 22L6, 22L6, 24L8, 24L8, 22zM11, 22L9, 22L9, 24L11, 24L11, 22zM5, 27L3, 27L3, 25L5, 25L5, 27zM8, 25L6, 25L6, 27L8, 27L8, 25zM11, 25L9, 25L9, 27L11, 27L11, 25zM9, 28L5, 28L5, 31L9, 31L9, 28z" fill="#FFFFFF" fill-opacity="1" class="White" />
          </g>
        </g>
      </g>
    </g>
  </g>
</svg>