<?xml version='1.0' encoding='UTF-8'?>
<svg viewBox="-2 -6.6675 32 32" xmlns="http://www.w3.org/2000/svg" xmlns:xlink="http://www.w3.org/1999/xlink">
  <g transform="translate(0, -0.0008)">
    <g transform="matrix(1.1667, 0, 0, 1.1667, 0, 0)">
      <g id="Layer_1" transform="translate(-4, -8)" style="enable-background:new 0 0 32 32">
        <g id="EnvelopeClose">
          <path d="M16, 16L28, 9.1L28, 9C28, 8.5 27.5, 8 27, 8L5, 8C4.5, 8 4, 8.5 4, 9L4, 9.1L16, 16z" fill="#039C23" class="Green" />
        </g>
      </g>
    </g>
  </g>
  <g transform="translate(0, -0.0008)">
    <g transform="matrix(1.1667, 0, 0, 1.1667, 0, 0)">
      <g id="Layer_1" transform="translate(-4, -8)" style="enable-background:new 0 0 32 32">
        <g id="EnvelopeClose">
          <path d="M16, 18.3L4, 11.4L4, 23C4, 23.5 4.5, 24 5, 24L27, 24C27.5, 24 28, 23.5 28, 23L28, 11.4L16, 18.3z" fill="#039C23" class="Green" />
        </g>
      </g>
    </g>
  </g>
  <g id="Layer_1" transform="translate(14, 9.3325)">
    <g id="icon">
      <path d="M14.6917, 14L14, 14L14, 0.3083C14, 0.138 13.862, 0 13.6917, 0L2.3083, 0C2.138, 0 2, 0.138 2, 0.3083L2, 14L1.3083, 14C1.138, 14 1, 14.138 1, 14.3083L1, 15.6916C1, 15.8619 1.138, 15.9999 1.3083, 15.9999L2.3083, 15.9999L13.6916, 15.9999L14.6916, 15.9999C14.8619, 15.9999 14.9999, 15.8619 14.9999, 15.6916L14.9999, 14.3083C15, 14.138 14.862, 14 14.6917, 14zM7, 1L9, 1L9, 3L7, 3L7, 1zM7, 4L9, 4L9, 6L7, 6L7, 4zM7, 7L9, 7L9, 9L7, 9L7, 7zM7, 10L9, 10L9, 12L7, 12L7, 10zM4, 1L6, 1L6, 3L4, 3L4, 1zM4, 4L6, 4L6, 6L4, 6L4, 4zM4, 7L6, 7L6, 9L4, 9L4, 7zM4, 10L6, 10L6, 12L4, 12L4, 10zM10, 15L6, 15L6, 13L10, 13L10, 15zM12, 12L10, 12L10, 10L12, 10L12, 12zM12, 9L10, 9L10, 7L12, 7L12, 9zM12, 6L10, 6L10, 4L12, 4L12, 6zM12, 3L10, 3L10, 1L12, 1L12, 3z" fill="#1177D7" fill-opacity="1" class="Blue" />
    </g>
  </g>
  <g id="Layer_1" transform="translate(14, 9.3325)">
    <g id="icon">
      <path d="M6, 3L4, 3L4, 1L6, 1L6, 3zM9, 1L7, 1L7, 3L9, 3L9, 1zM12, 1L10, 1L10, 3L12, 3L12, 1zM6, 6L4, 6L4, 4L6, 4L6, 6zM9, 4L7, 4L7, 6L9, 6L9, 4zM12, 4L10, 4L10, 6L12, 6L12, 4zM6, 9L4, 9L4, 7L6, 7L6, 9zM9, 7L7, 7L7, 9L9, 9L9, 7zM12, 7L10, 7L10, 9L12, 9L12, 7zM6, 12L4, 12L4, 10L6, 10L6, 12zM9, 10L7, 10L7, 12L9, 12L9, 10zM10, 13L6, 13L6, 15L10, 15L10, 13zM12, 10L10, 10L10, 12L12, 12L12, 10z" fill="#FFFFFF" fill-opacity="1" class="White" />
    </g>
  </g>
</svg>