<?xml version='1.0' encoding='UTF-8'?>
<svg viewBox="-2 -6.6675 32 32" xmlns="http://www.w3.org/2000/svg" xmlns:xlink="http://www.w3.org/1999/xlink">
  <g transform="translate(0, -0.0008)">
    <g transform="matrix(1.1667, 0, 0, 1.1667, 0, 0)">
      <g id="Layer_1" transform="translate(-4, -8)" style="enable-background:new 0 0 32 32">
        <g id="EnvelopeClose">
          <path d="M16, 16L28, 9.1L28, 9C28, 8.5 27.5, 8 27, 8L5, 8C4.5, 8 4, 8.5 4, 9L4, 9.1L16, 16z" fill="#039C23" class="Green" />
        </g>
      </g>
    </g>
  </g>
  <g transform="translate(0, -0.0008)">
    <g transform="matrix(1.1667, 0, 0, 1.1667, 0, 0)">
      <g id="Layer_1" transform="translate(-4, -8)" style="enable-background:new 0 0 32 32">
        <g id="EnvelopeClose">
          <path d="M16, 18.3L4, 11.4L4, 23C4, 23.5 4.5, 24 5, 24L27, 24C27.5, 24 28, 23.5 28, 23L28, 11.4L16, 18.3z" fill="#039C23" class="Green" />
        </g>
      </g>
    </g>
  </g>
  <g id="Layer_1" transform="translate(14, 9.33)" style="enable-background:new 0 0 16 16">
    <g id="Clock_1_">
      <circle cx="8" cy="8" r="8" fill="#D11C1C" class="Red" />
    </g>
  </g>
  <g id="Layer_1" transform="translate(14, 9.33)" style="enable-background:new 0 0 16 16">
    <g id="Clock_1_">
      <circle cx="8" cy="8" r="6" fill="#FFFFFF" class="White" />
    </g>
  </g>
  <g id="Layer_1" transform="translate(14, 9.33)" style="enable-background:new 0 0 16 16">
    <g id="Clock_1_">
      <polygon points="8,8 8,4 6,4 6,8 6,10 8,10 12,10 12,8  " fill="#727272" class="Black" />
    </g>
  </g>
</svg>