<?xml version='1.0' encoding='UTF-8'?>
<svg viewBox="-2.005 -2.0325 32 32" xmlns="http://www.w3.org/2000/svg" xmlns:xlink="http://www.w3.org/1999/xlink">
  <g id="Layer_1" transform="translate(-0.9092, -0.9333)">
    <g transform="matrix(0.9322, 0, 0, 0.9322, 0, 0)">
      <g id="icon">
        <path d="M12.767, 30.301C12.496, 31.062 8.62, 30.962 6.944, 30.962C6.933, 30.962 6.951, 30.962 6.944, 30.962C5.267, 30.962 1.437, 31.062 1.166, 30.3C0.925, 29.624 0.94, 29.368 1.031, 28.758C1.332, 27.24 1.867, 27.214 4.793, 26.18C5.22, 26.02 5.342, 25.787 5.31, 25.458C4.485, 24.471 3.99, 22.879 3.99, 21.763C3.99, 20.035 4.531, 18.941 6.946, 18.941C6.949, 18.941 6.936, 18.941 6.946, 18.941C9.361, 18.941 9.95, 20.035 9.95, 21.763C9.95, 22.879 9.453, 24.475 8.628, 25.461C8.596, 25.791 8.717, 26.021 9.144, 26.182C12.069, 27.215 12.604, 27.241 12.905, 28.759C12.993, 29.37 13.008, 29.625 12.767, 30.301zM30.943, 28.759C30.642, 27.241 30.107, 27.215 27.182, 26.182C26.755, 26.022 26.634, 25.791 26.666, 25.461C27.491, 24.474 27.988, 22.878 27.988, 21.763C27.988, 20.035 27.398, 18.941 24.984, 18.941C24.974, 18.941 24.987, 18.941 24.984, 18.941C22.569, 18.941 22.028, 20.035 22.028, 21.763C22.028, 22.879 22.523, 24.472 23.348, 25.458C23.38, 25.788 23.258, 26.02 22.831, 26.18C19.906, 27.213 19.37, 27.239 19.069, 28.758C18.979, 29.368 18.964, 29.624 19.204, 30.3C19.475, 31.061 23.306, 30.962 24.982, 30.962C24.989, 30.962 24.971, 30.962 24.982, 30.962C26.659, 30.962 30.534, 31.062 30.805, 30.301C31.048, 29.625 31.034, 29.37 30.943, 28.759zM21.873, 10.818C21.572, 9.3 21.037, 9.274 18.112, 8.241C17.685, 8.081 17.564, 7.85 17.596, 7.52C18.421, 6.533 18.918, 4.937 18.918, 3.822C18.918, 2.094 18.328, 1 15.914, 1C15.904, 1 15.917, 1 15.914, 1C13.499, 1 12.958, 2.094 12.958, 3.822C12.958, 4.938 13.453, 6.531 14.278, 7.517C14.31, 7.847 14.188, 8.079 13.761, 8.239C10.836, 9.272 10.3, 9.298 9.999, 10.817C9.909, 11.427 9.894, 11.683 10.134, 12.359C10.405, 13.12 14.236, 13.021 15.912, 13.021C15.919, 13.021 15.901, 13.021 15.912, 13.021C17.589, 13.021 21.464, 13.121 21.735, 12.36C21.978, 11.684 21.963, 11.429 21.873, 10.818z" fill="#1177D7" class="Blue" fill-rule="evenodd" />
      </g>
    </g>
  </g>
  <g id="Layer_1" transform="translate(-0.9092, -0.9333)">
    <g transform="matrix(0.9322, 0, 0, 0.9322, 0, 0)">
      <g id="icon">
        <path d="M21, 21.5L16, 19L16, 14.5M11.1, 21.5L16, 19" fill="none" stroke="#000000" stroke-width="1.4px" stroke-linecap="round" stroke-linejoin="round" stroke-miterlimit="10" />
      </g>
    </g>
  </g>
</svg>