<?xml version='1.0' encoding='UTF-8'?>
<svg viewBox="-4.5725 -2 32 32" xmlns="http://www.w3.org/2000/svg" xmlns:xlink="http://www.w3.org/1999/xlink">
  <g id="Layer_1" transform="translate(-3.8112, -0.5725)">
    <g transform="matrix(0.9524, 0, 0, 0.9524, 0, 0)">
      <g transform="matrix(1, 0, 0, 1, 0, 0)">
        <g id="icon">
          <path d="M26.5, 3L20.6203, 3C21.7156, 3.5 22.8852, 3.9027 22.8852, 4.659C22.8852, 4.7571 22.8819, 4.9 22.8758, 5L25, 5L25, 27L7, 27L7, 5L9.1301, 5C9.1264, 4.9 9.1244, 4.8275 9.1244, 4.7519C9.1244, 3.9155 10.4952, 3.5 11.6248, 3L5.5, 3C4.6729, 3 4, 3.6934 4, 4.5211L4, 28.5012C4, 29.329 4.7103, 30 5.5374, 30L26.5025, 30C27.3296, 30 28, 29.329 28, 28.5012L28, 4.5211C28, 3.6934 27.3271, 3 26.5, 3z" fill="#FFB115" fill-opacity="1" class="Yellow" fill-rule="evenodd" />
        </g>
      </g>
    </g>
  </g>
  <g id="Layer_1" transform="translate(-3.8112, -0.5725)">
    <g transform="matrix(0.9524, 0, 0, 0.9524, 0, 0)">
      <g transform="matrix(1, 0, 0, 1, 0, 0)">
        <g id="icon">
          <path d="M7, 5.0183L25, 5.0183L25, 27L7, 27L7, 5.0183z" fill="#FFFFFF" fill-opacity="1" class="White" fill-rule="evenodd" />
        </g>
      </g>
    </g>
  </g>
  <g id="Layer_1" transform="translate(-3.8112, -0.5725)">
    <g transform="matrix(0.9524, 0, 0, 0.9524, 0, 0)">
      <g transform="matrix(1, 0, 0, 1, 0, 0)">
        <g id="icon">
          <g>
            <g>
              <path d="M18.4704, 2.472L18.4704, 1.9172C18.4704, 1.5478 18.0517, 0.6 17.322, 0.6C16.7268, 0.6 15.9567, 0.6 15.9567, 0.6C15.9567, 0.6 15.1866, 0.6 14.5914, 0.6C13.8617, 0.6 13.4431, 1.5478 13.4431, 1.9172L13.4431, 2.472C13.4431, 3.5381 9.8466, 3.7533 9.8466, 4.9307C9.8466, 5.4045 9.9392, 5.9342 10.0751, 5.9753C10.1347, 5.9933 15.412, 5.9828 15.9567, 5.9818C16.5013, 5.9828 21.7787, 5.9933 21.8383, 5.9753C21.9742, 5.9343 22.0668, 5.4046 22.0668, 4.9307C22.0668, 3.7532 18.4704, 3.538 18.4704, 2.472zM15.9571, 3.211C15.5316, 3.211 15.1867, 2.8504 15.1867, 2.4055C15.1867, 1.9606 15.5316, 1.5844 15.9571, 1.5844C16.3825, 1.5844 16.7275, 1.9607 16.7275, 2.4055C16.7275, 2.8503 16.3825, 3.211 15.9571, 3.211z" fill="#727272" fill-opacity="1" class="Black" fill-rule="evenodd" />
            </g>
          </g>
        </g>
      </g>
    </g>
  </g>
  <g id="Layer_1" transform="translate(-3.8112, -0.5725)">
    <g transform="matrix(0.9524, 0, 0, 0.9524, 0, 0)">
      <g transform="matrix(1, 0, 0, 1, 0, 0)">
        <g id="icon">
          <path d="M22.9211, 13.1862L21.6569, 11.922C21.5088, 11.7739 21.2703, 11.7722 21.1218, 11.9198L14.3783, 18.6203L10.8658, 15.0683C10.7947, 14.9963 10.7174, 14.9749 10.6163, 14.9746C10.5148, 14.9742 10.4376, 15.0336 10.3661, 15.1051L9.1597, 16.3115C9.0119, 16.4593 8.9918, 16.6792 9.1387, 16.8278L12.497, 20.2066C12.5138, 20.2365 12.5347, 20.2448 12.5594, 20.2695L14.1712, 21.8813C14.2454, 21.9555 14.3329, 22.0023 14.4301, 22.0023C14.5269, 22.0023 14.619, 21.9703 14.693, 21.8967L22.9253, 13.7192C22.9969, 13.648 23.0347, 13.5539 23.0348, 13.4529C23.0351, 13.3518 22.9924, 13.2575 22.9211, 13.1862z" fill="#D11C1C" fill-opacity="1" class="Red" />
        </g>
      </g>
    </g>
  </g>
  <g id="Layer_1" transform="translate(11.4275, 14)" style="enable-background:new 0 0 16 16">
    <g id="RemoveCircled">
      <circle cx="9" cy="9" r="7" fill="#D11C1C" class="Red" />
    </g>
  </g>
  <g id="Layer_1" transform="translate(11.4275, 14)" style="enable-background:new 0 0 16 16">
    <g id="RemoveCircled">
      <rect x="4" y="8" width="10" height="2" rx="0" ry="0" fill="#FFFFFF" class="White" />
    </g>
  </g>
</svg>