<?xml version='1.0' encoding='UTF-8'?>
<svg viewBox="-4.5725 -2 32 32" xmlns="http://www.w3.org/2000/svg" xmlns:xlink="http://www.w3.org/1999/xlink">
  <g id="Layer_1" transform="translate(-3.8112, -0.5725)">
    <g transform="matrix(0.9524, 0, 0, 0.9524, 0, 0)">
      <g id="icon">
        <path d="M26.5, 3L20.6203, 3C21.7156, 3.5 22.8852, 3.9027 22.8852, 4.659C22.8852, 4.7571 22.8819, 4.9 22.8758, 5L25, 5L25, 27L7, 27L7, 5L9.1301, 5C9.1264, 4.9 9.1244, 4.8275 9.1244, 4.7519C9.1244, 3.9155 10.4952, 3.5 11.6248, 3L5.5, 3C4.6729, 3 4, 3.6934 4, 4.5211L4, 28.5012C4, 29.329 4.7103, 30 5.5374, 30L26.5025, 30C27.3296, 30 28, 29.329 28, 28.5012L28, 4.5211C28, 3.6934 27.3271, 3 26.5, 3z" fill="#FFB115" fill-opacity="1" class="Yellow" fill-rule="evenodd" />
      </g>
    </g>
  </g>
  <g id="Layer_1" transform="translate(-3.8112, -0.5725)">
    <g transform="matrix(0.9524, 0, 0, 0.9524, 0, 0)">
      <g id="icon">
        <path d="M7, 5.0183L25, 5.0183L25, 27L7, 27L7, 5.0183z" fill="#FFFFFF" fill-opacity="1" class="White" fill-rule="evenodd" />
      </g>
    </g>
  </g>
  <g id="Layer_1" transform="translate(-3.8112, -0.5725)">
    <g transform="matrix(0.9524, 0, 0, 0.9524, 0, 0)">
      <g id="icon">
        <g>
          <g>
            <path d="M18.4704, 2.472L18.4704, 1.9172C18.4704, 1.5478 18.0517, 0.6 17.322, 0.6C16.7268, 0.6 15.9567, 0.6 15.9567, 0.6C15.9567, 0.6 15.1866, 0.6 14.5914, 0.6C13.8617, 0.6 13.4431, 1.5478 13.4431, 1.9172L13.4431, 2.472C13.4431, 3.5381 9.8466, 3.7533 9.8466, 4.9307C9.8466, 5.4045 9.9392, 5.9342 10.0751, 5.9753C10.1347, 5.9933 15.412, 5.9828 15.9567, 5.9818C16.5013, 5.9828 21.7787, 5.9933 21.8383, 5.9753C21.9742, 5.9343 22.0668, 5.4046 22.0668, 4.9307C22.0668, 3.7532 18.4704, 3.538 18.4704, 2.472zM15.9571, 3.211C15.5316, 3.211 15.1867, 2.8504 15.1867, 2.4055C15.1867, 1.9606 15.5316, 1.5844 15.9571, 1.5844C16.3825, 1.5844 16.7275, 1.9607 16.7275, 2.4055C16.7275, 2.8503 16.3825, 3.211 15.9571, 3.211z" fill="#727272" fill-opacity="1" class="Black" fill-rule="evenodd" />
          </g>
        </g>
      </g>
    </g>
  </g>
  <g id="Layer_1" transform="translate(-3.8112, -0.5725)">
    <g transform="matrix(0.9524, 0, 0, 0.9524, 0, 0)">
      <g id="icon">
        <path d="M22.9211, 13.1862L21.6569, 11.922C21.5088, 11.7739 21.2703, 11.7722 21.1218, 11.9198L14.3783, 18.6203L10.8658, 15.0683C10.7947, 14.9963 10.7174, 14.9749 10.6163, 14.9746C10.5148, 14.9742 10.4376, 15.0336 10.3661, 15.1051L9.1597, 16.3115C9.0119, 16.4593 8.9918, 16.6792 9.1387, 16.8278L12.497, 20.2066C12.5138, 20.2365 12.5347, 20.2448 12.5594, 20.2695L14.1712, 21.8813C14.2454, 21.9555 14.3329, 22.0023 14.4301, 22.0023C14.5269, 22.0023 14.619, 21.9703 14.693, 21.8967L22.9253, 13.7192C22.9969, 13.648 23.0347, 13.5539 23.0348, 13.4529C23.0351, 13.3518 22.9924, 13.2575 22.9211, 13.1862z" fill="#D11C1C" fill-opacity="1" class="Red" />
      </g>
    </g>
  </g>
  <g id="Layer_1" transform="translate(11.4275, 14)" style="enable-background:new 0 0 16 16">
    <g id="Remove_1_">
      <path d="M15, 10L1, 10C0.4, 10 0, 9.6 0, 9L0, 7C0, 6.4 0.4, 6 1, 6L15, 6C15.6, 6 16, 6.4 16, 7L16, 9C16, 9.6 15.6, 10 15, 10z" fill="#FFFFFF" class="White" />
    </g>
  </g>
  <g id="Layer_1" transform="translate(11.4275, 13.9856)">
    <g id="icon">
      <path d="M8, 0C3.5817, 0 0, 3.1154 0, 6.9584C0, 9.0157 1.0265, 10.8645 2.6583, 12.1384C3.1921, 12.5551 1.6411, 15.6337 1.8994, 15.8929C2.1575, 16.152 6.4, 13.8097 6.9126, 13.853C7.2682, 13.895 7.6312, 13.9167 8, 13.9167C12.4183, 13.9167 16, 10.8013 16, 6.9583C16, 3.1153 12.4183, 0 8, 0zM3.88, 8.2906C3.1731, 8.2906 2.6, 7.7208 2.6, 7.0179C2.6, 6.315 3.1731, 5.7452 3.88, 5.7452C4.5869, 5.7452 5.16, 6.315 5.16, 7.0179C5.16, 7.7208 4.5869, 8.2906 3.88, 8.2906zM8, 8.2906C7.2931, 8.2906 6.72, 7.7208 6.72, 7.0179C6.72, 6.315 7.2931, 5.7452 8, 5.7452C8.7069, 5.7452 9.28, 6.315 9.28, 7.0179C9.28, 7.7208 8.7069, 8.2906 8, 8.2906zM12.12, 8.2906C11.4131, 8.2906 10.84, 7.7208 10.84, 7.0179C10.84, 6.315 11.4131, 5.7452 12.12, 5.7452C12.8269, 5.7452 13.4, 6.315 13.4, 7.0179C13.4, 7.7208 12.8269, 8.2906 12.12, 8.2906z" fill="#039C23" fill-opacity="1" class="Green" />
    </g>
  </g>
</svg>