<?xml version='1.0' encoding='UTF-8'?>
<svg viewBox="-2 -2.9375 32 32" xmlns="http://www.w3.org/2000/svg" xmlns:xlink="http://www.w3.org/1999/xlink">
  <g id="Layer_1" transform="translate(-0.9226, -1.8333)">
    <g transform="matrix(0.9319, 0, 0, 0.9319, 0, 0)">
      <g id="icon">
        <path d="M9.151, 20.968C9.26, 20.786 9.404, 20.625 9.576, 20.496C9.693, 20.409 9.743, 20.359 9.853, 20.14C10.087, 19.676 10.171, 19.116 10.133, 18.269L10.115, 17.88C10.081, 17.158 10.046, 16.411 10.061, 15.656C10.078, 14.765 10.25, 13.897 10.57, 13.077C11.137, 11.625 12.203, 10.721 13.541, 10.527C14.151, 9.169 14.496, 7.623 14.496, 6.426C14.496, 3.695 13.609, 1.966 9.977, 1.966C6.344, 1.966 5.531, 3.696 5.531, 6.426C5.531, 8.189 6.276, 10.707 7.517, 12.266C7.565, 12.787 7.382, 13.154 6.74, 13.408C2.339, 15.041 1.534, 15.082 1.081, 17.481C0.945, 18.445 0.922, 18.85 1.285, 19.918C1.653, 21.004 6.378, 20.982 9.151, 20.968z" fill="#039C23" class="Green" fill-rule="evenodd" />
      </g>
    </g>
  </g>
  <g id="Layer_1" transform="translate(-0.9226, -1.8333)">
    <g transform="matrix(0.9319, 0, 0, 0.9319, 0, 0)">
      <g id="icon">
        <path d="M30.942, 17.483C30.49, 15.084 29.685, 15.044 25.284, 13.411C24.641, 13.157 24.46, 12.793 24.508, 12.272C25.749, 10.713 26.497, 8.191 26.497, 6.427C26.497, 3.696 25.61, 1.967 21.978, 1.967C18.345, 1.967 17.532, 3.697 17.532, 6.427C17.532, 7.5 17.809, 8.853 18.306, 10.099C19.545, 10.598 20.721, 11.601 21.271, 13.318C21.696, 14.643 21.749, 15.988 21.765, 17.145C21.778, 18.078 21.828, 18.771 21.926, 19.393C22.021, 19.992 22.154, 20.315 22.371, 20.472C22.556, 20.606 22.709, 20.776 22.823, 20.969C25.61, 20.984 30.371, 21.004 30.738, 19.921C31.1, 18.851 31.078, 18.447 30.942, 17.483z" fill="#039C23" class="Green" fill-rule="evenodd" />
      </g>
    </g>
  </g>
  <g id="Layer_1" transform="translate(-0.9226, -1.8333)">
    <g transform="matrix(0.9319, 0, 0, 0.9319, 0, 0)">
      <g id="icon">
        <path d="M18.505, 23.012C19.615, 22.968 20.685, 22.804 21.61, 22.112C21.803, 21.968 21.804, 21.665 21.609, 21.524C20.979, 21.069 20.76, 20.346 20.641, 19.595C20.515, 18.796 20.476, 17.975 20.464, 17.163C20.447, 15.993 20.392, 14.839 20.032, 13.715C19.367, 11.642 17.469, 10.896 15.974, 11.012C15.453, 11.052 14.979, 11.27 14.565, 11.622C14.462, 11.71 14.312, 11.792 14.187, 11.788C12.932, 11.746 12.182, 12.523 11.781, 13.55C11.515, 14.232 11.375, 14.952 11.361, 15.681C11.345, 16.523 11.394, 17.368 11.432, 18.211C11.471, 19.084 11.412, 19.936 11.013, 20.726C10.827, 21.095 10.656, 21.31 10.354, 21.536C10.16, 21.681 10.158, 21.979 10.351, 22.125C10.91, 22.548 11.937, 22.833 13.458, 22.987C12.59, 25.664 6.956, 23.521 6.956, 29.088C6.956, 29.968 9.747, 29.999 11.153, 29.999C11.612, 29.999 14.274, 29.999 15.723, 29.999C15.743, 29.999 15.764, 29.999 15.783, 29.999C15.927, 29.999 16.057, 29.999 16.171, 29.999C16.191, 29.999 16.212, 29.999 16.231, 29.999C17.68, 29.999 20.342, 29.999 20.801, 29.999C22.207, 29.999 24.998, 29.967 24.998, 29.088C25, 23.538 19.4, 25.652 18.505, 23.012z" fill="#039C23" class="Green" />
      </g>
    </g>
  </g>
</svg>