<?xml version='1.0' encoding='UTF-8'?>
<svg viewBox="-2 -3.0025 31.9975 32" xmlns="http://www.w3.org/2000/svg" xmlns:xlink="http://www.w3.org/1999/xlink">
  <g id="Layer_1" transform="translate(-2.055, -3.0562)">
    <g transform="matrix(1.0017, 0, 0, 1.0017, 0, 0)">
      <g id="icon">
        <path d="M2.05, 6.025C2.05, 4.382 3.382, 3.05 5.025, 3.05C6.668, 3.05 8, 4.382 8, 6.025C8, 7.668 6.668, 9 5.025, 9C3.382, 9 2.05, 7.668 2.05, 6.025zM5.025, 19C6.668, 19 8, 17.668 8, 16.025C8, 14.382 6.668, 13.05 5.025, 13.05C3.382, 13.05 2.05, 14.382 2.05, 16.025C2.05, 17.668 3.382, 19 5.025, 19zM5.025, 29C6.668, 29 8, 27.668 8, 26.025C8, 24.382 6.668, 23.05 5.025, 23.05C3.382, 23.05 2.05, 24.382 2.05, 26.025C2.05, 27.668 3.382, 29 5.025, 29z" fill="#039C23" fill-opacity="1" class="Green" />
      </g>
    </g>
  </g>
  <g id="Layer_1" transform="translate(-2.055, -3.0562)">
    <g transform="matrix(1.0017, 0, 0, 1.0017, 0, 0)">
      <g id="icon">
        <path d="M29.4833, 7L10.5167, 7C10.2314, 7 10, 6.7687 10, 6.4833L10, 5.5166C10, 5.2313 10.2313, 4.9999 10.5167, 4.9999L29.4834, 4.9999C29.7687, 4.9999 30.0001, 5.2312 30.0001, 5.5166L30.0001, 6.4833C30, 6.7687 29.7687, 7 29.4833, 7zM30, 16.4833L30, 15.5166C30, 15.2313 29.7687, 14.9999 29.4833, 14.9999L10.5167, 14.9999C10.2314, 14.9999 10, 15.2312 10, 15.5166L10, 16.4833C10, 16.7686 10.2313, 17 10.5167, 17L29.4834, 17C29.7687, 17 30, 16.7687 30, 16.4833zM30, 26.4833L30, 25.5166C30, 25.2313 29.7687, 24.9999 29.4833, 24.9999L10.5167, 24.9999C10.2314, 24.9999 10, 25.2312 10, 25.5166L10, 26.4833C10, 26.7686 10.2313, 27 10.5167, 27L29.4834, 27C29.7687, 27 30, 26.7687 30, 26.4833z" fill="#727272" fill-opacity="1" class="Black" />
      </g>
    </g>
  </g>
</svg>