<?xml version='1.0' encoding='UTF-8'?>
<svg viewBox="-2 -2 32 32" xmlns="http://www.w3.org/2000/svg" xmlns:xlink="http://www.w3.org/1999/xlink">
  <g id="Layer_1" transform="translate(-2, -2)">
    <g id="icon">
      <rect x="3" y="2.5" width="26" height="26.5" rx="0" ry="0" fill="#FFFFFF" fill-opacity="1" class="White" fill-rule="evenodd" />
    </g>
  </g>
  <g id="Layer_1" transform="translate(-2, -2)">
    <g id="icon">
      <path d="M2, 2.8L2, 29.2C2, 29.642 2.358, 30 2.8, 30L29.2, 30C29.642, 30 30, 29.642 30, 29.2L30, 2.8C30, 2.358 29.642, 2 29.2, 2L2.8, 2C2.358, 2 2, 2.358 2, 2.8zM3, 29L3, 3L29, 3L29, 29L3, 29z" fill="#727272" fill-opacity="1" class="Black" fill-rule="evenodd" />
    </g>
  </g>
  <g id="Layer_1" transform="translate(-2, -2)">
    <g id="icon">
      <path d="M26.314, 11.085L24.454, 9.225C24.236, 9.007 23.903, 8.987 23.684, 9.204L13.771, 19.054L8.607, 13.823C8.502, 13.717 8.368, 13.66 8.219, 13.66C8.07, 13.659 7.935, 13.721 7.83, 13.827L6.055, 15.602C5.838, 15.819 5.831, 16.166 6.047, 16.385L11.007, 21.361C11.032, 21.405 11.081, 21.422 11.117, 21.458L13.489, 23.83C13.598, 23.939 13.72, 24.015 13.863, 24.015C14.005, 24.015 14.138, 23.971 14.247, 23.863L26.358, 11.833C26.463, 11.728 26.5, 11.608 26.501, 11.46C26.5, 11.31 26.419, 11.19 26.314, 11.085z" fill="#1177D7" fill-opacity="1" class="Blue" />
    </g>
  </g>
</svg>