<?xml version='1.0' encoding='UTF-8'?>
<svg viewBox="-2 -2.4475 32 32" xmlns="http://www.w3.org/2000/svg" xmlns:xlink="http://www.w3.org/1999/xlink">
  <clipPath id="clip_mask" tag="staticElement_id46680953">
    <path d="M21.124, 31.544C21.412, 31.838 21.797, 32 22.208, 32L0, 32L0, 0L32, 0L32, 19.442L30.712, 18.127C30.424, 17.833 30.04, 17.671 29.629, 17.671C29.22, 17.671 28.837, 17.831 28.55, 18.122L22.208, 24.549L19.442, 21.718C19.154, 21.424 18.769, 21.261 18.357, 21.261C17.946, 21.261 17.561, 21.423 17.274, 21.717L15.432, 23.598C14.86, 24.182 14.86, 25.134 15.431, 25.718L21.124, 31.544zM23.287, 31.549C23, 31.84 22.616, 32 22.208, 32L32, 32L32, 22.718L23.287, 31.549z" fill="#727272" fill-opacity="1" class="Black" fill-rule="evenodd" />
  </clipPath>
  <g id="Layer_1" transform="translate(0.0175, -0.0012)">
    <g transform="matrix(0.8744, 0, 0, 0.8744, 0, 0)">
      <g transform="matrix(1, 0, 0, 1, 0, 0)">
        <g id="main">
          <g id="icon" clip-path="url(#clip_mask)">
            <g id="transformed_icon" transform="translate(-1, -1)">
              <path d="M8.533, 4.5L8.533, 8.961C9.358, 8.699 10.33, 8.567 11.463, 8.567C11.463, 8.567 11.467, 8.567 11.47, 8.567C13.875, 8.567 15.573, 9.144 16.663, 10.331C17.911, 11.691 18.055, 13.551 18.055, 14.832C18.055, 16.633 17.401, 19.338 15.98, 21.433C16.418, 21.587 16.825, 21.728 17.202, 21.859C17.835, 22.079 18.404, 22.276 18.916, 22.466L30.434, 22.466L30.434, 4.5L8.533, 4.5z" fill="#FFFFFF" fill-opacity="1" class="White" />
            </g>
          </g>
        </g>
      </g>
    </g>
  </g>
  <g id="Layer_1" transform="translate(0.0175, -0.0012)">
    <g transform="matrix(0.8744, 0, 0, 0.8744, 0, 0)">
      <g transform="matrix(1, 0, 0, 1, 0, 0)">
        <g id="main">
          <g id="icon" clip-path="url(#clip_mask)">
            <g id="transformed_icon" transform="translate(-1, -1)">
              <path d="M8, 4L8, 9.157C8.309, 9.026 8.642, 8.917 9, 8.829L9, 5L30, 5L30.001, 22L17.606, 22C18.655, 22.365 19.517, 22.673 20.227, 23L30, 23C30.551, 23 31, 22.551 31, 22L31, 4L8, 4z" fill="#727272" fill-opacity="1" class="Black" />
            </g>
          </g>
        </g>
      </g>
    </g>
  </g>
  <g id="Layer_1" transform="translate(0.0175, -0.0012)">
    <g transform="matrix(0.8744, 0, 0, 0.8744, 0, 0)">
      <g transform="matrix(1, 0, 0, 1, 0, 0)">
        <g id="main">
          <g id="icon" clip-path="url(#clip_mask)">
            <g id="transformed_icon" transform="translate(-1, -1)">
              <path d="M29.6, 1L9.4, 1C8.627, 1 8, 1.627 8, 2.4L8, 5L31, 5L31, 2.4C31, 1.627 30.373, 1 29.6, 1z" fill="#039C23" fill-opacity="1" class="Green" />
            </g>
          </g>
        </g>
      </g>
    </g>
  </g>
  <g id="Layer_1" transform="translate(0.0175, -0.0012)">
    <g transform="matrix(0.8744, 0, 0, 0.8744, 0, 0)">
      <g transform="matrix(1, 0, 0, 1, 0, 0)">
        <g id="main">
          <g id="icon" clip-path="url(#clip_mask)">
            <g id="transformed_icon" transform="translate(-1, -1)">
              <path d="M20.5, 19L17.221, 19C17.347, 18.666 17.459, 18.332 17.556, 18L20.5, 18C20.776, 18 21, 18.224 21, 18.5C21, 18.776 20.776, 19 20.5, 19zM21, 13.5C21, 13.224 20.776, 13 20.5, 13L17.908, 13C17.971, 13.343 18.008, 13.68 18.029, 14L20.5, 14C20.776, 14 21, 13.776 21, 13.5zM11.463, 8.567C11.463, 8.567 11.467, 8.567 11.47, 8.567C12.667, 8.567 13.689, 8.71 14.548, 9L20.5, 9C20.776, 9 21, 8.776 21, 8.5C21, 8.224 20.776, 8 20.5, 8L11.5, 8C11.224, 8 11, 8.224 11, 8.5C11, 8.525 11.004, 8.55 11.007, 8.574C11.156, 8.569 11.308, 8.567 11.463, 8.567z" fill="#727272" fill-opacity="1" class="Black" />
            </g>
          </g>
        </g>
      </g>
    </g>
  </g>
  <g id="Layer_1" transform="translate(0.0175, -0.0012)">
    <g transform="matrix(0.8744, 0, 0, 0.8744, 0, 0)">
      <g transform="matrix(1, 0, 0, 1, 0, 0)">
        <g id="main">
          <g id="icon" clip-path="url(#clip_mask)">
            <g id="transformed_icon" transform="translate(-1, -1)">
              <path d="M27.88, 11.457C28.029, 11.606 28.029, 11.847 27.88, 11.996L25.021, 14.855C24.872, 15.004 24.631, 15.004 24.482, 14.855L22.941, 13.314C22.792, 13.165 22.792, 12.924 22.941, 12.775L23.274, 12.442C23.423, 12.293 23.664, 12.293 23.813, 12.442L24.752, 13.381L27.009, 11.124C27.158, 10.975 27.399, 10.975 27.548, 11.124L27.88, 11.457zM24.482, 9.855C24.631, 10.004 24.872, 10.004 25.021, 9.855L27.88, 6.996C28.029, 6.847 28.029, 6.606 27.88, 6.457L27.547, 6.124C27.398, 5.975 27.157, 5.975 27.008, 6.124L24.751, 8.381L23.812, 7.442C23.663, 7.293 23.422, 7.293 23.273, 7.442L22.94, 7.775C22.791, 7.924 22.791, 8.165 22.94, 8.314L24.482, 9.855zM27.547, 16.124C27.398, 15.975 27.157, 15.975 27.008, 16.124L24.751, 18.381L23.812, 17.442C23.663, 17.293 23.422, 17.293 23.273, 17.442L22.94, 17.775C22.791, 17.924 22.791, 18.165 22.94, 18.314L24.481, 19.855C24.63, 20.004 24.871, 20.004 25.02, 19.855L27.879, 16.996C28.028, 16.847 28.028, 16.606 27.879, 16.457L27.547, 16.124z" fill="#D11C1C" fill-opacity="1" class="Red" />
            </g>
          </g>
        </g>
      </g>
    </g>
  </g>
  <g id="Layer_1" transform="translate(0.0175, -0.0012)">
    <g transform="matrix(0.8744, 0, 0, 0.8744, 0, 0)">
      <g transform="matrix(1, 0, 0, 1, 0, 0)">
        <g id="main">
          <g id="icon" clip-path="url(#clip_mask)">
            <g id="transformed_icon" transform="translate(-1, -1)">
              <path d="M21.934, 27.117C21.406, 24.451 20.466, 24.406 15.329, 22.592C14.579, 22.31 14.367, 21.905 14.423, 21.326C15.872, 19.594 16.745, 16.791 16.745, 14.832C16.745, 11.798 15.71, 9.876 11.469, 9.876C11.452, 9.876 11.475, 9.876 11.469, 9.876C7.229, 9.876 6.279, 11.798 6.279, 14.832C6.279, 16.791 7.149, 19.588 8.598, 21.321C8.654, 21.9 8.441, 22.308 7.691, 22.59C2.554, 24.405 1.613, 24.45 1.085, 27.116C0.926, 28.188 0.9, 28.637 1.323, 29.824C1.799, 31.161 8.526, 30.986 11.47, 30.986C11.482, 30.986 11.45, 30.986 11.47, 30.986C14.415, 30.986 21.22, 31.161 21.696, 29.825C22.118, 28.638 22.092, 28.189 21.934, 27.117z" fill="#1177D7" fill-opacity="1" class="Blue" fill-rule="evenodd" />
            </g>
          </g>
        </g>
      </g>
    </g>
  </g>
  <g id="Layer_1" transform="translate(0.0175, -0.0012)">
    <g transform="matrix(0.8744, 0, 0, 0.8744, 0, 0)">
      <g transform="matrix(1, 0, 0, 1, 0, 0)">
        <g id="main">
          <g id="overlay">
            <path d="M31.853, 20.721L29.998, 18.826C29.796, 18.62 29.464, 18.619 29.262, 18.825L22.205, 25.977L18.728, 22.417C18.526, 22.21 18.193, 22.21 17.99, 22.417L16.148, 24.298C15.952, 24.499 15.952, 24.819 16.148, 25.02L21.84, 30.844C22.042, 31.051 22.374, 31.051 22.577, 30.846L31.853, 21.445C32.049, 21.245 32.05, 20.923 31.853, 20.721z" fill="#039C23" fill-opacity="1" class="Green" fill-rule="evenodd" />
          </g>
        </g>
      </g>
    </g>
  </g>
</svg>