<?xml version='1.0' encoding='UTF-8'?>
<svg viewBox="-2.035 0 31.9975 32" xmlns="http://www.w3.org/2000/svg" xmlns:xlink="http://www.w3.org/1999/xlink">
  <g id="Layer_1" transform="translate(-0.9987, -0.935)">
    <g transform="matrix(0.9333, 0, 0, 0.9333, 0, 0)">
      <g id="icon">
        <path d="M30.8411, 25.4956C30.0907, 21.7078 28.756, 21.6446 21.4573, 19.0667C20.3916, 18.6663 20.0907, 18.0903 20.1705, 17.2682C22.2293, 14.8068 23.4697, 10.8249 23.4697, 8.0413C23.4697, 3.7306 21.999, 1 15.9746, 1C15.9498, 1 15.9827, 1 15.9746, 1C9.9502, 1 8.6006, 3.7306 8.6006, 8.0414C8.6006, 10.825 9.8362, 14.7991 11.8949, 17.2605C11.9747, 18.0826 11.6714, 18.6624 10.6057, 19.0628C3.307, 21.6407 1.9711, 21.7058 1.2207, 25.4936C0.9951, 27.0161 0.9575, 27.6544 1.5582, 29.3415C2.2343, 31.2405 11.7912, 30.992 15.9745, 30.992C15.9914, 30.992 15.9458, 30.992 15.9745, 30.992C20.1579, 30.992 29.8268, 31.2413 30.5029, 29.3424C31.1037, 27.6554 31.0667, 27.0181 30.8411, 25.4956z" fill="#727272" fill-opacity="1" class="Black" fill-rule="evenodd" />
      </g>
    </g>
  </g>
  <g id="Layer_1" transform="translate(13.9625, 16)" style="enable-background:new 0 0 16 16">
    <g id="Settings">
      <path d="M16, 9L16, 7L13.5, 6.4C13.4, 6 13.2, 5.6 13, 5.2L14.5, 3.1L12.9, 1.5L10.8, 3C10.4, 2.8 10, 2.6 9.6, 2.5L9, 0L7, 0L6.4, 2.5C6, 2.6 5.6, 2.8 5.2, 3L3.2, 1.5L1.5, 3.2L3, 5.2C2.8, 5.6 2.6, 6 2.5, 6.4L0, 7L0, 9L2.5, 9.6C2.6, 10 2.8, 10.4 3, 10.8L1.5, 12.9L3.1, 14.5L5.2, 13C5.6, 13.2 6, 13.4 6.4, 13.5L7, 16L9, 16L9.6, 13.5C10, 13.4 10.4, 13.2 10.8, 13L12.9, 14.5L14.5, 12.9L13, 10.8C13.2, 10.4 13.4, 10 13.5, 9.6L16, 9z" fill="#1177D7" class="Blue" />
    </g>
  </g>
  <g id="Layer_1" transform="translate(13.9625, 16)" style="enable-background:new 0 0 16 16">
    <g id="Settings">
      <circle cx="8" cy="8" r="2" fill="#FFFFFF" class="White" />
    </g>
  </g>
</svg>