<?xml version='1.0' encoding='UTF-8'?>
<svg viewBox="-2 -0.935 32 32" xmlns="http://www.w3.org/2000/svg" xmlns:xlink="http://www.w3.org/1999/xlink">
  <g id="Layer_1" transform="translate(-0.9333, -0.935)">
    <g transform="matrix(0.9333, 0, 0, 0.9333, 0, 0)">
      <g id="icon">
        <path d="M28.825, 6.5L3.175, 6.5C2.254, 6.5 1.5, 7.254 1.5, 8.175L1.5, 26.825C1.5, 27.746 2.254, 28.5 3.175, 28.5L28.825, 28.5C29.746, 28.5 30.5, 27.746 30.5, 26.825L30.5, 8.175C30.5, 7.254 29.746, 6.5 28.825, 6.5zM19, 11.5L13, 11.5C12.172, 11.5 11.5, 10.828 11.5, 10L11.5, 10C11.5, 9.172 12.172, 8.5 13, 8.5L19, 8.5C19.828, 8.5 20.5, 9.172 20.5, 10L20.5, 10C20.5, 10.828 19.828, 11.5 19, 11.5z" fill="#FFFFFF" stroke="#000000" stroke-width="1px" stroke-linecap="round" stroke-miterlimit="1" />
      </g>
    </g>
  </g>
  <g id="Layer_1" transform="translate(-0.9333, -0.935)">
    <g transform="matrix(0.9333, 0, 0, 0.9333, 0, 0)">
      <g id="icon">
        <path d="M15.939, 23.616C15.637, 21.976 15.101, 21.949 12.168, 20.833C11.74, 20.66 11.619, 20.41 11.651, 20.054C12.478, 18.988 12.977, 17.265 12.977, 16.06C12.977, 14.194 12.386, 13.012 9.965, 13.012C9.955, 13.012 9.968, 13.012 9.965, 13.012C7.544, 13.012 7.002, 14.194 7.002, 16.06C7.002, 17.265 7.499, 18.985 8.326, 20.051C8.358, 20.407 8.236, 20.658 7.808, 20.831C4.875, 21.947 4.338, 21.975 4.036, 23.615C3.945, 24.274 3.93, 24.55 4.172, 25.281C4.444, 26.103 8.284, 25.996 9.966, 25.996C9.973, 25.996 9.954, 25.996 9.966, 25.996C11.647, 25.996 15.533, 26.104 15.805, 25.282C16.045, 24.551 16.03, 24.275 15.939, 23.616z" fill="#727272" class="Black" fill-rule="evenodd" />
      </g>
    </g>
  </g>
  <g id="Layer_1" transform="translate(-0.9333, -0.935)">
    <g transform="matrix(0.9333, 0, 0, 0.9333, 0, 0)">
      <g id="icon">
        <path d="M18.493, 23.5L27.5, 23.5M18.493, 21.5L27.5, 21.5M18.493, 19.5L27.5, 19.5M18.493, 17.5L27.5, 17.5M18.493, 15.5L27.5, 15.5" fill="none" stroke="#000000" stroke-width="1px" stroke-linecap="round" stroke-miterlimit="1" />
      </g>
    </g>
  </g>
  <g id="Layer_1" transform="translate(-0.9333, -0.935)">
    <g transform="matrix(0.9333, 0, 0, 0.9333, 0, 0)">
      <g id="icon">
        <path d="M18.31, 1L13.69, 1C13.309, 1 13, 1.299 13, 1.668L13, 9.333C13, 9.702 13.309, 10.001 13.69, 10.001L18.31, 10.001C18.691, 10.001 19, 9.702 19, 9.333L19, 1.668C19, 1.299 18.691, 1 18.31, 1zM16, 5.355C15.172, 5.355 14.5, 4.705 14.5, 3.903C14.5, 3.101 15.172, 2.451 16, 2.451C16.828, 2.451 17.5, 3.101 17.5, 3.903C17.5, 4.705 16.828, 5.355 16, 5.355z" fill="#727272" class="Black" />
      </g>
    </g>
  </g>
  <g id="Layer_1" transform="translate(15, 16.065)">
    <g transform="matrix(0.5, 0, 0, 0.5, 0, 0)">
      <g transform="matrix(1.75, 0, 0, 1.75, 0, 0)">
        <g id="icon">
          <path d="M8, 0C3.5817, 0 0, 3.5817 0, 8C0, 12.4183 3.5817, 16 8, 16C12.4183, 16 16, 12.4183 16, 8C16, 3.5817 12.4183, 0 8, 0zM9, 12.5C9, 12.7761 8.7761, 13 8.5, 13L7.5, 13C7.2239, 13 7, 12.7761 7, 12.5L7, 11.5C7, 11.2239 7.2239, 11 7.5, 11L8.5, 11C8.7761, 11 9, 11.2239 9, 11.5L9, 12.5zM9, 9.5C9, 9.7761 8.7761, 10 8.5, 10L7.5, 10C7.2239, 10 7, 9.7761 7, 9.5L7, 3.5C7, 3.2239 7.2239, 3 7.5, 3L8.5, 3C8.7761, 3 9, 3.2239 9, 3.5L9, 9.5z" fill="#D11C1C" fill-opacity="1" class="Red" fill-rule="evenodd" />
        </g>
      </g>
    </g>
  </g>
  <g id="Layer_1" transform="translate(15, 16.065)">
    <g transform="matrix(0.5, 0, 0, 0.5, 0, 0)">
      <g transform="matrix(1.75, 0, 0, 1.75, 0, 0)">
        <g id="icon">
          <path d="M8.5, 10L7.5, 10C7.2239, 10 7, 9.7761 7, 9.5L7, 3.5C7, 3.2239 7.2239, 3 7.5, 3L8.5, 3C8.7761, 3 9, 3.2239 9, 3.5L9, 9.5C9, 9.7761 8.7761, 10 8.5, 10zM9, 12.5L9, 11.5C9, 11.2239 8.7761, 11 8.5, 11L7.5, 11C7.2239, 11 7, 11.2239 7, 11.5L7, 12.5C7, 12.7761 7.2239, 13 7.5, 13L8.5, 13C8.7761, 13 9, 12.7761 9, 12.5z" fill="#FFFFFF" fill-opacity="1" class="White" fill-rule="evenodd" />
        </g>
      </g>
    </g>
  </g>
</svg>