<?xml version='1.0' encoding='UTF-8'?>
<svg viewBox="-2.005 -2 32 32" xmlns="http://www.w3.org/2000/svg" xmlns:xlink="http://www.w3.org/1999/xlink">
  <g id="Layer_1" transform="translate(-0.9844, -0.9607)">
    <g transform="matrix(0.935, 0, 0, 0.935, 0, 0)">
      <g id="icon">
        <path d="M22, 8.1C22, 11.532 19.732, 17.167 16.108, 17.167C12.484, 17.167 10.007, 11.43 10.1, 8C10.248, 2.566 14.416, 2.967 16, 3C17.584, 3.033 22, 3.1 22, 8.1zM15.999, 18.4C14.459, 18.4 13.222, 17.4 11.885, 16C11.679, 16.6 10.478, 16.999 10.034, 17.2C12.248, 21.966 14.718, 24.5 15.999, 24.5C17.28, 24.5 19.958, 21.958 22.067, 17.2C21.553, 17.1 20.319, 16.7 20.113, 16C18.987, 17.227 17.509, 18.4 15.999, 18.4z" fill="#F2DAD1" fill-rule="evenodd" />
      </g>
    </g>
  </g>
  <g id="Layer_1" transform="translate(-0.9844, -0.9607)">
    <g transform="matrix(0.935, 0, 0, 0.935, 0, 0)">
      <g id="icon">
        <path d="M16.095, 1.027C10.276, 1.027 8.955, 3.601 8.955, 7.687C8.955, 11.773 11.818, 18.55 16.063, 18.55C20.308, 18.55 23.083, 11.774 23.083, 7.687C23.083, 3.601 21.85, 1.027 16.095, 1.027zM16.106, 17.167C12.582, 17.167 10.412, 11.666 10.412, 8.234C10.412, 7.838 10.444, 7.46 10.505, 7.099C10.821, 6.605 11.141, 6.041 11.349, 5.767C13.231, 6.88 18.987, 6.82 20.787, 5.767C20.89, 6.186 21.201, 6.84 21.537, 7.283C21.579, 7.588 21.601, 7.905 21.601, 8.234C21.6, 11.666 19.63, 17.167 16.106, 17.167z" fill="#BE8856" fill-rule="evenodd" />
      </g>
    </g>
  </g>
  <g id="Layer_1" transform="translate(-0.9844, -0.9607)">
    <g transform="matrix(0.935, 0, 0, 0.935, 0, 0)">
      <g id="icon">
        <path d="M30.983, 27.105C30.01, 20.047 30.122, 19.919 21.758, 17.1C20.113, 21 17.156, 24.299 15.999, 24.299C14.842, 24.299 11.886, 21 10.446, 17C10.398, 17.019 10.095, 17.14 9.62, 17.358C1.256, 20.177 2.041, 20.047 1.068, 27.105C0.469, 30.954 15.937, 30.975 15.937, 30.975C15.937, 30.975 31.583, 30.954 30.983, 27.105z" fill="#3E79B4" fill-rule="evenodd" />
      </g>
    </g>
  </g>
</svg>