<?xml version='1.0' encoding='UTF-8'?>
<svg viewBox="-2.075 -2 32 32" xmlns="http://www.w3.org/2000/svg" xmlns:xlink="http://www.w3.org/1999/xlink">
  <g id="Layer_1" transform="translate(-0.9887, -0.9325)">
    <g transform="matrix(0.9333, 0, 0, 0.9333, 0, 0)">
      <g id="icon">
        <path d="M20.158, 19.966C21.994, 19.897 23.763, 19.638 25.294, 18.545C25.613, 18.317 25.615, 17.839 25.293, 17.617C24.252, 16.899 23.889, 15.757 23.692, 14.57C23.483, 13.308 23.418, 12.012 23.399, 10.73C23.372, 8.882 23.28, 7.061 22.684, 5.285C21.584, 2.011 18.445, 0.834 15.972, 1.017C15.11, 1.081 14.326, 1.424 13.642, 1.98C13.472, 2.119 13.224, 2.249 13.017, 2.243C10.942, 2.177 9.701, 3.403 9.038, 5.025C8.597, 6.102 8.367, 7.238 8.343, 8.39C8.316, 9.72 8.398, 11.053 8.46, 12.384C8.524, 13.763 8.427, 15.108 7.768, 16.355C7.46, 16.937 7.178, 17.278 6.678, 17.635C6.358, 17.864 6.355, 18.335 6.674, 18.566C7.598, 19.234 9.297, 19.685 11.813, 19.927C10.377, 24.153 1.058, 20.77 1.058, 29.561C1.058, 30.95 5.675, 31 8, 31C8.759, 31 13.162, 31 15.558, 31C15.591, 31 15.626, 31 15.658, 31C15.896, 31 16.111, 31 16.3, 31C16.334, 31 16.368, 31 16.4, 31C18.796, 31 23.2, 31 23.958, 31C26.283, 31 30.9, 30.95 30.9, 29.561C30.9, 20.797 21.637, 24.134 20.158, 19.966z" fill="#D11C1C" fill-opacity="1" class="Red" />
      </g>
    </g>
  </g>
</svg>