<?xml version='1.0' encoding='UTF-8'?>
<svg viewBox="-2.0375 -2 32 32" xmlns="http://www.w3.org/2000/svg" xmlns:xlink="http://www.w3.org/1999/xlink">
  <g id="Layer_1" transform="translate(-0.9987, -0.9349)">
    <g transform="matrix(0.9333, 0, 0, 0.9333, 0, 0)">
      <g id="icon">
        <path d="M30.8411, 25.4956C30.0907, 21.7078 28.756, 21.6446 21.4573, 19.0667C20.3916, 18.6663 20.0907, 18.0903 20.1705, 17.2682C22.2293, 14.8068 23.4697, 10.8249 23.4697, 8.0413C23.4697, 3.7306 21.999, 1 15.9746, 1C15.9498, 1 15.9827, 1 15.9746, 1C9.9502, 1 8.6006, 3.7306 8.6006, 8.0414C8.6006, 10.825 9.8362, 14.7991 11.8949, 17.2605C11.9747, 18.0826 11.6714, 18.6624 10.6057, 19.0628C3.307, 21.6407 1.9711, 21.7058 1.2207, 25.4936C0.9951, 27.0161 0.9575, 27.6544 1.5582, 29.3415C2.2343, 31.2405 11.7912, 30.992 15.9745, 30.992C15.9914, 30.992 15.9458, 30.992 15.9745, 30.992C20.1579, 30.992 29.8268, 31.2413 30.5029, 29.3424C31.1037, 27.6554 31.0667, 27.0181 30.8411, 25.4956z" fill="#727272" fill-opacity="1" class="Black" fill-rule="evenodd" />
      </g>
    </g>
  </g>
</svg>