<?xml version='1.0' encoding='UTF-8'?>
<svg viewBox="-2.0375 -2 32 32" xmlns="http://www.w3.org/2000/svg" xmlns:xlink="http://www.w3.org/1999/xlink">
  <g id="Layer_1" transform="translate(-1, -0.935)">
    <g transform="matrix(0.9333, 0, 0, 0.9333, 0, 0)">
      <g id="icon">
        <path d="M30.841, 25.496C30.091, 21.708 28.756, 21.645 21.457, 19.067C20.391, 18.667 20.09, 18.091 20.17, 17.269C22.229, 14.808 23.469, 10.826 23.469, 8.042C23.469, 3.731 21.998, 1.001 15.974, 1.001C9.95, 1.001 8.601, 3.731 8.601, 8.041C8.601, 10.825 9.837, 14.799 11.895, 17.26C11.975, 18.082 11.671, 18.662 10.606, 19.062C3.307, 21.64 1.971, 21.705 1.221, 25.493C0.995, 27.016 0.958, 27.654 1.559, 29.341C2.235, 31.24 11.792, 30.992 15.975, 30.992C20.158, 30.992 29.827, 31.241 30.503, 29.342C31.104, 27.655 31.067, 27.018 30.841, 25.496zM17.73, 30L14.27, 30C14.127, 30 14.016, 29.874 14.033, 29.732L15.3, 22.467L14.416, 20.621C14.272, 20.337 14.478, 20 14.797, 20L17.204, 20C17.523, 20 17.729, 20.337 17.585, 20.621L16.7, 22.467L17.967, 29.732C17.984, 29.874 17.873, 30 17.73, 30z" fill="#1177D7" fill-opacity="1" class="Blue" fill-rule="evenodd" />
      </g>
    </g>
  </g>
  <g id="Layer_1" transform="translate(-1, -0.935)">
    <g transform="matrix(0.9333, 0, 0, 0.9333, 0, 0)">
      <g id="icon">
        <path d="M17.73, 30L14.27, 30C14.127, 30 14.016, 29.874 14.033, 29.732L15.3, 22.467L14.416, 20.621C14.272, 20.337 14.478, 20 14.797, 20L17.204, 20C17.523, 20 17.729, 20.337 17.585, 20.621L16.7, 22.467L17.967, 29.732C17.984, 29.874 17.873, 30 17.73, 30z" fill="#FFFFFF" fill-opacity="1" class="White" />
      </g>
    </g>
  </g>
</svg>