<?xml version='1.0' encoding='UTF-8'?>
<svg viewBox="-2.4425 -2 32 32" xmlns="http://www.w3.org/2000/svg" xmlns:xlink="http://www.w3.org/1999/xlink">
  <g id="Layer_1" transform="translate(-1.3174, -0.9319)">
    <g transform="matrix(0.9319, 0, 0, 0.9319, 0, 0)">
      <g id="icon">
        <path d="M22.246, 24.045C22.057, 22.23 21.638, 19.779 20.971, 18.08C19.951, 17.342 19.18, 17.558 18.105, 17.833C17.342, 18.029 16.678, 18.146 15.999, 18.148C15.32, 18.146 14.656, 18.028 13.893, 17.833C12.818, 17.557 12.047, 17.342 11.027, 18.08C10.36, 19.78 9.941, 22.231 9.752, 24.045C9.704, 24.511 9.54, 25.34 9.757, 25.793C9.939, 26.172 10.236, 26.126 10.647, 26.178C12.427, 26.404 14.211, 26.517 15.998, 26.524C17.785, 26.517 19.569, 26.404 21.349, 26.178C21.76, 26.126 22.057, 26.172 22.239, 25.793C22.459, 25.34 22.295, 24.511 22.246, 24.045z" fill="#A57B5E" fill-rule="evenodd" />
      </g>
    </g>
  </g>
  <g id="Layer_1" transform="translate(-1.3174, -0.9319)">
    <g transform="matrix(0.9319, 0, 0, 0.9319, 0, 0)">
      <g id="icon">
        <path d="M23.907, 9.94C23.5, 2.7 19.9, 1 16, 1C12.1, 1 8.549, 2.7 8.142, 9.94C7.827, 21.984 8.28, 19.236 12.165, 17.478C13.1, 18.6 14.757, 19.477 15.998, 19.477C17.24, 19.477 19.201, 18.6 19.934, 17.575C23.836, 19.333 24.223, 21.991 23.907, 9.94zM16.045, 17.997C12.685, 17.997 10.823, 12.208 10.823, 8.426C10.823, 6.575 11.276, 9.309 14.109, 9.309C15.826, 9.309 21.15, 6.355 21.15, 8.868C21.149, 14.691 18.725, 17.997 16.045, 17.997z" fill="#423D3A" fill-rule="evenodd" />
      </g>
    </g>
  </g>
  <g id="Layer_1" transform="translate(-1.3174, -0.9319)">
    <g transform="matrix(0.9319, 0, 0, 0.9319, 0, 0)">
      <g id="icon">
        <path d="M30.458, 27.289C30.192, 25.384 30.225, 22.611 28.662, 21.209C27.918, 20.542 26.92, 20.181 25.996, 19.845C25.276, 19.583 24.548, 19.346 23.82, 19.107C22.872, 18.796 21.929, 18.375 20.978, 18.1C21.64, 19.794 22.057, 22.237 22.245, 24.045C22.293, 24.511 22.457, 25.34 22.24, 25.793C22.058, 26.172 21.761, 26.126 21.35, 26.178C19.57, 26.404 17.786, 26.517 15.999, 26.524C14.212, 26.517 12.428, 26.404 10.648, 26.178C10.237, 26.126 9.94, 26.172 9.758, 25.793C9.541, 25.34 9.704, 24.511 9.753, 24.045C9.942, 22.231 10.36, 19.782 11.027, 18.083C10.749, 18.145 10.449, 18.324 10.137, 18.441C9.254, 18.773 8.337, 19.031 7.442, 19.328C6.266, 19.719 5.025, 20.084 3.952, 20.72C2.2, 21.759 1.978, 23.738 1.711, 25.592C1.568, 26.583 1.182, 27.825 1.6, 28.8C1.926, 29.56 2.686, 29.975 3.432, 30.231C4.665, 30.654 6.007, 30.765 7.298, 30.852C9.278, 30.986 11.266, 30.997 13.25, 31.007C17.272, 31.028 21.344, 31.152 25.356, 30.795C26.978, 30.651 29.932, 30.474 30.435, 28.487C30.535, 28.098 30.521, 27.685 30.458, 27.289z" fill="#8C53A1" fill-rule="evenodd" />
      </g>
    </g>
  </g>
  <g id="Layer_1" transform="translate(-1.3174, -0.9319)">
    <g transform="matrix(0.9319, 0, 0, 0.9319, 0, 0)">
      <g id="icon">
        <path d="M14.109, 9.309C15.826, 9.309 21.15, 6.355 21.15, 8.868C21.15, 14.692 18.726, 17.998 16.045, 17.998C12.685, 17.998 10.823, 12.209 10.823, 8.427C10.823, 6.575 11.276, 9.309 14.109, 9.309z" fill="#A57B5E" fill-rule="evenodd" />
      </g>
    </g>
  </g>
</svg>