<?xml version='1.0' encoding='UTF-8'?>
<svg viewBox="-2 -2 32 32" xmlns="http://www.w3.org/2000/svg" xmlns:xlink="http://www.w3.org/1999/xlink">
  <g id="Layer_1" transform="translate(-0.9655, -0.9655)">
    <g transform="matrix(0.9655, 0, 0, 0.9655, 0, 0)">
      <g id="icon">
        <path d="M15.5, 1C7.4919, 1 1, 7.4919 1, 15.5C1, 23.5081 7.4919, 30 15.5, 30C23.5081, 30 30, 23.5081 30, 15.5C30, 7.4919 23.5081, 1 15.5, 1zM25, 16.6C25, 16.8209 24.8209, 17 24.6, 17L6.4, 17C6.1791, 17 6, 16.8209 6, 16.6L6, 14.4C6, 14.1791 6.1791, 14 6.4, 14L24.6, 14C24.8209, 14 25, 14.1791 25, 14.4L25, 16.6z" fill="#D11C1C" class="Red" fill-rule="evenodd" />
      </g>
    </g>
  </g>
  <g id="Layer_1" transform="translate(-0.9655, -0.9655)">
    <g transform="matrix(0.9655, 0, 0, 0.9655, 0, 0)">
      <g id="icon">
        <path d="M24.6, 14L6.4, 14C6.1791, 14 6, 14.1791 6, 14.4L6, 16.6C6, 16.8209 6.1791, 17 6.4, 17L24.6, 17C24.8209, 17 25, 16.8209 25, 16.6L25, 14.4C25, 14.1791 24.8209, 14 24.6, 14z" fill="#FFFFFF" fill-rule="evenodd" />
      </g>
    </g>
  </g>
</svg>