<?xml version='1.0' encoding='UTF-8'?>
<svg viewBox="-2 -2 32 32" xmlns="http://www.w3.org/2000/svg" xmlns:xlink="http://www.w3.org/1999/xlink">
  <g id="Layer_1" transform="translate(-2, -2)" style="enable-background:new 0 0 32 32">
    <g id="Settings">
      <path d="M30, 18L30, 14L25.6, 13.3C25.4, 12.5 25.1, 11.8 24.7, 11.2L27.3, 7.6L24.5, 4.8L20.9, 7.4C20.2, 7 19.5, 6.7 18.8, 6.5L18, 2L14, 2L13.3, 6.4C12.5, 6.6 11.8, 6.9 11.2, 7.3L7.5, 4.7L4.7, 7.5L7.3, 11.1C6.9, 11.8 6.6, 12.5 6.4, 13.2L2, 14L2, 18L6.4, 18.7C6.6, 19.5 6.9, 20.2 7.3, 20.8L4.7, 24.4L7.5, 27.2L11.1, 24.6C11.8, 25 12.5, 25.3 13.2, 25.5L14, 30L18, 30L18.7, 25.6C19.5, 25.4 20.2, 25.1 20.8, 24.7L24.4, 27.3L27.2, 24.5L24.6, 20.9C25, 20.2 25.3, 19.5 25.5, 18.8L30, 18zM16, 20C13.8, 20 12, 18.2 12, 16C12, 13.8 13.8, 12 16, 12C18.2, 12 20, 13.8 20, 16C20, 18.2 18.2, 20 16, 20z" fill="#1177D7" class="Blue" />
    </g>
  </g>
  <g id="Layer_1" transform="translate(14, 14)" style="enable-background:new 0 0 16 16">
    <g id="List_1_">
      <path d="M13, 16L3, 16C2.5, 16 2, 15.6 2, 15L2, 1C2, 0.4 2.5, 0 3, 0L13, 0C13.6, 0 14, 0.4 14, 1L14, 15C14, 15.6 13.6, 16 13, 16z" fill="#727272" class="Black" />
    </g>
  </g>
  <g id="Layer_1" transform="translate(14, 14)" style="enable-background:new 0 0 16 16">
    <g id="List_1_">
      <rect x="4" y="2" width="8" height="12" rx="0" ry="0" fill="#FFFFFF" class="White" />
    </g>
  </g>
  <g id="Layer_1" transform="translate(14, 14)" style="enable-background:new 0 0 16 16">
    <g id="List_1_">
      <rect x="6" y="4" width="4" height="2" rx="0" ry="0" fill="#727272" class="Black" />
    </g>
  </g>
  <g id="Layer_1" transform="translate(14, 14)" style="enable-background:new 0 0 16 16">
    <g id="List_1_">
      <rect x="6" y="8" width="4" height="2" rx="0" ry="0" fill="#727272" class="Black" />
    </g>
  </g>
</svg>