<?xml version='1.0' encoding='UTF-8'?>
<svg viewBox="-2 -2.265 31.9975 32" xmlns="http://www.w3.org/2000/svg" xmlns:xlink="http://www.w3.org/1999/xlink">
  <g id="Layer_1" transform="translate(-1.1401, -1.9625)">
    <g transform="matrix(0.9811, 0, 0, 0.9811, 0, 0)">
      <g transform="matrix(1, 0, 0, 1, 0, 0)">
        <g id="icon">
          <path d="M28.8075, 2C25.0108, 2 5.7124, 2 1.9959, 2C0.7615, 2 1.2509, 3.5241 1.2509, 3.5241L13, 16L13, 30L18, 30L17.9765, 16.0082L29.5881, 3.5241C29.5881, 3.5241 30.1359, 2 28.8075, 2zM17, 15.2648L17, 29L16, 29L16, 15.2648L21.5, 3.6C21.5, 3.6 25.6212, 3.6 25.7044, 3.6C25.8912, 3.6 17, 15.2648 17, 15.2648z" fill="#727272" fill-opacity="1" class="Black" fill-rule="evenodd" />
        </g>
      </g>
    </g>
  </g>
  <g id="Layer_1" transform="translate(-1.1401, -1.9625)">
    <g transform="matrix(0.9811, 0, 0, 0.9811, 0, 0)">
      <g transform="matrix(1, 0, 0, 1, 0, 0)">
        <g id="icon">
          <path d="M16, 15.2648L21.5, 3.6C21.5, 3.6 25.6212, 3.6 25.7044, 3.6C25.8913, 3.6 17, 15.2648 17, 15.2648L17, 29.0349L16, 29.0349L16, 15.2648z" fill="#FFFFFF" fill-opacity="1" class="White" fill-rule="evenodd" />
        </g>
      </g>
    </g>
  </g>
  <g id="Layer_1" transform="translate(13.9975, 13.735)">
    <g id="icon">
      <polygon points="13.1,6.9 9.1,6.9 9.1,2.9 6.9,2.9 6.9,6.9 2.9,6.9 2.9,9.1 6.9,9.1 6.9,13.1 9.1,13.1 9.1,9.1 13.1,9.1" fill="#FFFFFF" fill-opacity="1" class="White" fill-rule="evenodd" />
    </g>
  </g>
  <g id="Layer_1" transform="translate(13.9975, 13.735)">
    <g id="icon">
      <path d="M8, 0C3.5817, 0 0, 3.5817 0, 8C0, 12.4183 3.5817, 16 8, 16C12.4183, 16 16, 12.4183 16, 8C16, 3.5817 12.4183, 0 8, 0zM13, 8.5917C13, 8.8172 12.8172, 9 12.5917, 9L9, 9L9, 12.5917C9, 12.8172 8.8172, 13 8.5917, 13L7.4083, 13C7.1828, 13 7, 12.8172 7, 12.5917L7, 9L3.4083, 9C3.1828, 9 3, 8.8172 3, 8.5917L3, 7.4083C3, 7.1828 3.1828, 7 3.4083, 7L7, 7L7, 3.4083C7, 3.1828 7.1828, 3 7.4083, 3L8.5916, 3C8.8172, 3 9, 3.1828 9, 3.4083L9, 7L12.5917, 7C12.8172, 7 13, 7.1828 13, 7.4083L13, 8.5917z" fill="#039C23" fill-opacity="1" class="Green" fill-rule="evenodd" />
    </g>
  </g>
</svg>