<?xml version='1.0' encoding='UTF-8'?>
<svg viewBox="-1 -6 32 32" xmlns="http://www.w3.org/2000/svg" xmlns:xlink="http://www.w3.org/1999/xlink">
  <g id="Layer_1" transform="translate(-1, -6)" style="enable-background:new 0 0 32 32">
    <g id="Coupon">
      <path d="M29, 6L3, 6C2.4, 6 2, 6.5 2, 7L2, 25C2, 25.5 2.4, 26 3, 26L29, 26C29.6, 26 30, 25.5 30, 25L30, 7C30, 6.5 29.6, 6 29, 6zM10, 24L8, 24L8, 20L10, 20L10, 24zM10, 18L8, 18L8, 14L10, 14L10, 18zM10, 12L8, 12L8, 8L10, 8L10, 12z" fill="Transparent" class="Transparent" />
    </g>
  </g>
  <g id="Layer_1" transform="translate(17, 2)" style="enable-background:new 0 0 16 16">
    <g id="Arrow3Right_3_">
      <polygon points="5,0 3,2 9,8 3,14 5,16 13,8  " fill="#727272" class="Black" />
    </g>
  </g>
  <g id="Layer_1" transform="translate(-3, 2)" style="enable-background:new 0 0 16 16">
    <g id="Arrow3Left_3_">
      <polygon points="11,16 3,8 11,0 13,2 7,8 13,14  " fill="#727272" class="Black" />
    </g>
  </g>
</svg>