<?xml version='1.0' encoding='UTF-8'?>
<svg viewBox="-4 -4 32 32" xmlns="http://www.w3.org/2000/svg" xmlns:xlink="http://www.w3.org/1999/xlink">
  <g id="Layer_1" transform="translate(-4, -4)" style="enable-background:new 0 0 32 32">
    <g id="Rollback_1_">
      <path d="M16, 4C12.7, 4 9.7, 5.3 7.5, 7.5L4, 4L4, 14L4.2, 14L8.3, 14L14, 14L10.4, 10.4C11.8, 8.9 13.8, 8 16, 8C20.4, 8 24, 11.6 24, 16C24, 20.4 20.4, 24 16, 24C12.3, 24 9.2, 21.4 8.3, 18L4.2, 18C5.2, 23.7 10.1, 28 16, 28C22.6, 28 28, 22.6 28, 16C28, 9.4 22.6, 4 16, 4z" fill="#1177D7" class="Blue" />
    </g>
  </g>
  <g id="Layer_1" transform="translate(12, 12)">
    <g id="icon">
      <path d="M8, 0C3.5817, 0 0, 3.5817 0, 8C0, 12.4183 3.5817, 16 8, 16C12.4183, 16 16, 12.4183 16, 8C16, 3.5817 12.4183, 0 8, 0zM7, 12.1776C7, 12.3557 6.8557, 12.5 6.6776, 12.5L4.3224, 12.5C4.1443, 12.5 4, 12.3556 4, 12.1776L4, 3.8224C4, 3.6443 4.1443, 3.5 4.3224, 3.5L6.6776, 3.5C6.8557, 3.5 7, 3.6443 7, 3.8224L7, 12.1776zM12, 12.1776C12, 12.3557 11.8557, 12.5 11.6776, 12.5L9.3224, 12.5C9.1443, 12.5 9, 12.3556 9, 12.1776L9, 3.8224C9, 3.6443 9.1443, 3.5 9.3224, 3.5L11.6776, 3.5C11.8557, 3.5 12, 3.6443 12, 3.8224L12, 12.1776z" fill="#727272" class="Black" />
    </g>
  </g>
  <g id="Layer_1" transform="translate(12, 12)">
    <g id="icon">
      <path d="M7, 3.8224L7, 12.1776C7, 12.3557 6.8557, 12.5 6.6776, 12.5L4.3224, 12.5C4.1443, 12.5 4, 12.3557 4, 12.1776L4, 3.8224C4, 3.6444 4.1444, 3.5 4.3224, 3.5L6.6776, 3.5C6.8557, 3.5 7, 3.6444 7, 3.8224zM11.6776, 3.5L9.3224, 3.5C9.1443, 3.5 9, 3.6444 9, 3.8224L9, 12.1776C9, 12.3557 9.1443, 12.5 9.3224, 12.5L11.6776, 12.5C11.8557, 12.5 12, 12.3557 12, 12.1776L12, 3.8224C12, 3.6444 11.8557, 3.5 11.6776, 3.5z" fill="#FFFFFF" class="White" />
    </g>
  </g>
</svg>