<?xml version='1.0' encoding='UTF-8'?>
<svg viewBox="-4 -4 32 32" xmlns="http://www.w3.org/2000/svg" xmlns:xlink="http://www.w3.org/1999/xlink">
  <g id="Layer_1" transform="translate(-4, -4)" style="enable-background:new 0 0 32 32">
    <g id="Rollback_1_">
      <path d="M16, 4C12.7, 4 9.7, 5.3 7.5, 7.5L4, 4L4, 14L4.2, 14L8.3, 14L14, 14L10.4, 10.4C11.8, 8.9 13.8, 8 16, 8C20.4, 8 24, 11.6 24, 16C24, 20.4 20.4, 24 16, 24C12.3, 24 9.2, 21.4 8.3, 18L4.2, 18C5.2, 23.7 10.1, 28 16, 28C22.6, 28 28, 22.6 28, 16C28, 9.4 22.6, 4 16, 4z" fill="#1177D7" class="Blue" />
    </g>
  </g>
</svg>