<?xml version='1.0' encoding='UTF-8'?>
<svg viewBox="-1 -4 32 32" xmlns="http://www.w3.org/2000/svg" xmlns:xlink="http://www.w3.org/1999/xlink">
  <g transform="translate(0, 0.0005)">
    <g transform="matrix(1.0714, 0, 0, 1.0714, 0, 0)">
      <g id="Layer_1" transform="translate(-0.9333, -3.735)">
        <g transform="matrix(0.9333, 0, 0, 0.9333, 0, 0)">
          <g id="icon">
            <path d="M28.8, 29L3.2, 29C2.5373, 29 2, 28.4627 2, 27.8L1, 14.2C1, 13.5373 1.5373, 13 2.2, 13L29.8, 13C30.4627, 13 31, 13.5373 31, 14.2L30, 27.8C30, 28.4627 29.4627, 29 28.8, 29z" fill="#FFB115" class="Yellow" fill-rule="evenodd" />
          </g>
        </g>
      </g>
    </g>
  </g>
  <g transform="translate(0, 0.0005)">
    <g transform="matrix(1.0714, 0, 0, 1.0714, 0, 0)">
      <g id="Layer_1" transform="translate(-0.9333, -3.735)">
        <g transform="matrix(0.9333, 0, 0, 0.9333, 0, 0)">
          <g id="icon">
            <path d="M29, 12L3, 12L3, 5.2C3, 4.5373 3.5373, 4 4.2, 4L13.1716, 4C13.702, 4 14.2107, 4.2107 14.5858, 4.5858L16.4142, 6.4142C16.7893, 6.7893 17.298, 7 17.8284, 7L27.8, 7C28.4627, 7 29, 7.5373 29, 8.2L29, 12z" fill="#FFB115" class="Yellow" fill-rule="evenodd" />
          </g>
        </g>
      </g>
    </g>
  </g>
  <g id="Layer_1" transform="translate(15, 12)">
    <g id="icon">
      <polygon points="13.1,6.9 9.1,6.9 9.1,2.9 6.9,2.9 6.9,6.9 2.9,6.9 2.9,9.1 6.9,9.1 6.9,13.1 9.1,13.1 9.1,9.1 13.1,9.1" fill="#FFFFFF" fill-opacity="1" class="White" fill-rule="evenodd" />
    </g>
  </g>
  <g id="Layer_1" transform="translate(15, 12)">
    <g id="icon">
      <path d="M8, 0C3.5817, 0 0, 3.5817 0, 8C0, 12.4183 3.5817, 16 8, 16C12.4183, 16 16, 12.4183 16, 8C16, 3.5817 12.4183, 0 8, 0zM13, 8.5917C13, 8.8172 12.8172, 9 12.5917, 9L9, 9L9, 12.5917C9, 12.8172 8.8172, 13 8.5917, 13L7.4083, 13C7.1828, 13 7, 12.8172 7, 12.5917L7, 9L3.4083, 9C3.1828, 9 3, 8.8172 3, 8.5917L3, 7.4083C3, 7.1828 3.1828, 7 3.4083, 7L7, 7L7, 3.4083C7, 3.1828 7.1828, 3 7.4083, 3L8.5916, 3C8.8172, 3 9, 3.1828 9, 3.4083L9, 7L12.5917, 7C12.8172, 7 13, 7.1828 13, 7.4083L13, 8.5917z" fill="#039C23" fill-opacity="1" class="Green" fill-rule="evenodd" />
    </g>
  </g>
</svg>