<?xml version='1.0' encoding='UTF-8'?>
<svg viewBox="-2 -2 32 32" xmlns="http://www.w3.org/2000/svg" xmlns:xlink="http://www.w3.org/1999/xlink">
  <g id="Layer_1" transform="translate(-2.075, -2.075)">
    <g transform="matrix(1.037, 0, 0, 1.037, 0, 0)">
      <g id="icon">
        <path d="M2, 5L2, 26C2, 27.657 3.343, 29 5, 29L26, 29C27.657, 29 29, 27.657 29, 26L29, 5C29, 3.343 27.657, 2 26, 2L5, 2C3.343, 2 2, 3.343 2, 5zM6.173, 15.256L13.31, 8.088C13.366, 8.031 13.443, 8 13.523, 8L16.847, 8C17.114, 8 17.248, 8.323 17.059, 8.512L11.57, 14L23.7, 14C23.866, 14 24, 14.134 24, 14.3L24, 16.7C24, 16.866 23.866, 17 23.7, 17L11.641, 17L17.129, 22.488C17.318, 22.677 17.184, 23 16.917, 23L13.59, 23C13.51, 23 13.434, 22.968 13.377, 22.912L6.173, 15.68C6.057, 15.563 6.057, 15.374 6.173, 15.256z" fill="#039C23" fill-opacity="1" class="Green" fill-rule="evenodd" />
      </g>
    </g>
  </g>
  <g id="Layer_1" transform="translate(-2.075, -2.075)">
    <g transform="matrix(1.037, 0, 0, 1.037, 0, 0)">
      <g id="icon">
        <path d="M11.57, 14L23.7, 14C23.866, 14 24, 14.134 24, 14.3L24, 16.7C24, 16.866 23.866, 17 23.7, 17L11.641, 17L17.129, 22.488C17.318, 22.677 17.184, 23 16.917, 23L13.59, 23C13.51, 23 13.434, 22.968 13.377, 22.912L6.173, 15.68C6.056, 15.563 6.056, 15.374 6.173, 15.257L13.31, 8.089C13.366, 8.032 13.443, 8.001 13.523, 8.001L16.847, 8.001C17.114, 8.001 17.248, 8.324 17.059, 8.513L11.57, 14z" fill="#FFFFFF" fill-opacity="1" class="White" fill-rule="evenodd" />
      </g>
    </g>
  </g>
</svg>