<?xml version='1.0' encoding='UTF-8'?>
<svg viewBox="-2 -2.4375 32 32" xmlns="http://www.w3.org/2000/svg" xmlns:xlink="http://www.w3.org/1999/xlink">
  <clipPath id="clip_mask" tag="staticElement_id10176696">
    <path d="M16.315, 32L0, 32L0, 0L32, 0L32, 18.679L29.102, 15.781C28.584, 15.263 27.916, 15 27.117, 15L22.1, 15C20.942, 15 20, 15.942 20, 17.1L20, 18L18.1, 18C16.942, 18 16, 18.942 16, 20.1L16, 30.9C16, 31.304 16.116, 31.68 16.315, 32zM30.9, 30L29, 30L29, 30.9C29, 31.304 28.884, 31.68 28.685, 32L32, 32L32, 29.685C31.68, 29.884 31.304, 30 30.9, 30z" />
  </clipPath>
  <g id="Layer_1" transform="translate(0, -0.875)">
    <g transform="matrix(0.875, 0, 0, 0.875, 0, 0)">
      <g id="main">
        <g id="icon" clip-path="url(#clip_mask)">
          <g id="transformed_icon" transform="translate(-1, -1)">
            <path d="M30, 29.5L2, 29.5C1.7239, 29.5 1.5, 29.2761 1.5, 29L1.5, 6.5L30.5, 6.5L30.5, 29C30.5, 29.2761 30.2761, 29.5 30, 29.5z" fill="#FFFFFF" stroke="#000000" stroke-width="1px" stroke-miterlimit="1" />
          </g>
        </g>
      </g>
    </g>
  </g>
  <g id="Layer_1" transform="translate(0, -0.875)">
    <g transform="matrix(0.875, 0, 0, 0.875, 0, 0)">
      <g id="main">
        <g id="icon" clip-path="url(#clip_mask)">
          <g id="transformed_icon" transform="translate(-1, -1)">
            <path d="M31, 7L1, 7L1, 3.4C1, 2.6268 1.6268, 2 2.4, 2L29.6, 2C30.3732, 2 31, 2.6268 31, 3.4L31, 7z" fill="#039C23" class="Green" />
          </g>
        </g>
      </g>
    </g>
  </g>
  <g id="Layer_1" transform="translate(0, -0.875)">
    <g transform="matrix(0.875, 0, 0, 0.875, 0, 0)">
      <g id="main">
        <g id="overlay">
          <path d="M30.9, 28.5L22.1, 28.5C21.769, 28.5 21.5, 28.231 21.5, 27.9L21.5, 17.1C21.5, 16.769 21.769, 16.5 22.1, 16.5C22.1, 16.5 26.65, 16.5 27.117, 16.5C27.584, 16.5 27.85, 16.649 28.042, 16.841C28.234, 17.033 30.759, 19.558 31.076, 19.875C31.393, 20.192 31.501, 20.45 31.501, 20.917C31.501, 21.384 31.501, 27.9 31.501, 27.9C31.5, 28.231 31.231, 28.5 30.9, 28.5zM22.1, 30C20.942, 30 20, 29.058 20, 27.9L20, 19.5C19.466, 19.5 18.1, 19.5 18.1, 19.5C17.769, 19.5 17.5, 19.769 17.5, 20.1L17.5, 30.9C17.5, 31.231 17.769, 31.5 18.1, 31.5L26.9, 31.5C27.231, 31.5 27.5, 31.231 27.5, 30.9C27.5, 30.9 27.5, 30.547 27.5, 30L22.1, 30z" fill="#FFFFFF" fill-rule="evenodd" />
        </g>
      </g>
    </g>
  </g>
  <g id="Layer_1" transform="translate(0, -0.875)">
    <g transform="matrix(0.875, 0, 0, 0.875, 0, 0)">
      <g id="main">
        <g id="overlay">
          <path d="M31.429, 19.521L28.395, 16.487C28.067, 16.159 27.649, 15.999 27.117, 15.999L22.1, 15.999C21.493, 15.999 21, 16.492 21, 17.099L21, 27.899C21, 28.506 21.493, 28.999 22.1, 28.999L30.9, 28.999C31.507, 28.999 32, 28.506 32, 27.899L32, 20.916C32, 20.324 31.84, 19.933 31.429, 19.521zM28, 17.507L30.493, 20L28.045, 20C28.029, 19.991 28.011, 19.977 28, 19.965L28, 17.507zM30.9, 28L22.1, 28C22.045, 28 22, 27.955 22, 27.9L22, 17.1C22, 17.045 22.045, 17 22.1, 17L27, 17L27, 20C27, 20.473 27.399, 20.867 27.798, 20.972C27.849, 20.99 27.904, 20.999 27.962, 20.999L31, 20.999L31, 27.899C31, 27.955 30.955, 28 30.9, 28zM28, 30L28, 30.9C28, 31.507 27.507, 32 26.9, 32L18.1, 32C17.493, 32 17, 31.507 17, 30.9L17, 20.1C17, 19.493 17.493, 19 18.1, 19L20, 19L20, 20L18.1, 20C18.045, 20 18, 20.045 18, 20.1L18, 30.9C18, 30.955 18.045, 31 18.1, 31L26.9, 31C26.955, 31 27, 30.955 27, 30.9L27, 30L28, 30z" fill="#727272" class="Black" />
        </g>
      </g>
    </g>
  </g>
</svg>