<?xml version='1.0' encoding='UTF-8'?>
<svg viewBox="-2 -2.935 32 32" xmlns="http://www.w3.org/2000/svg" xmlns:xlink="http://www.w3.org/1999/xlink">
  <g id="Layer_1" transform="translate(-0.9333, -1.8683)">
    <g transform="matrix(0.9333, 0, 0, 0.9333, 0, 0)">
      <g id="icon">
        <path d="M30, 29.5L2, 29.5C1.7239, 29.5 1.5, 29.2761 1.5, 29L1.5, 6.5L30.5, 6.5L30.5, 29C30.5, 29.2761 30.2761, 29.5 30, 29.5z" fill="#FFFFFF" stroke="#000000" stroke-width="1px" stroke-miterlimit="1" />
      </g>
    </g>
  </g>
  <g id="Layer_1" transform="translate(-0.9333, -1.8683)">
    <g transform="matrix(0.9333, 0, 0, 0.9333, 0, 0)">
      <g id="icon">
        <path d="M31, 7L1, 7L1, 3.4C1, 2.6268 1.6268, 2 2.4, 2L29.6, 2C30.3732, 2 31, 2.6268 31, 3.4L31, 7z" fill="#039C23" class="Green" />
      </g>
    </g>
  </g>
  <g id="Layer_1" transform="translate(-0.9333, -1.8683)">
    <g transform="matrix(0.9333, 0, 0, 0.9333, 0, 0)">
      <g id="icon">
        <rect x="5.5" y="9.5" width="5" height="5" rx="0" ry="0" fill="#FFFFFF" class="White" stroke="#000000" stroke-width="1px" stroke-linejoin="round" stroke-miterlimit="1" />
      </g>
    </g>
  </g>
  <g id="Layer_1" transform="translate(-0.9333, -1.8683)">
    <g transform="matrix(0.9333, 0, 0, 0.9333, 0, 0)">
      <g id="icon">
        <line x1="6" y1="16.5" x2="10" y2="16.5" fill="none" stroke="#000000" stroke-width="1px" stroke-linecap="round" stroke-linejoin="round" stroke-miterlimit="1" />
      </g>
    </g>
  </g>
  <g id="Layer_1" transform="translate(-0.9333, -1.8683)">
    <g transform="matrix(0.9333, 0, 0, 0.9333, 0, 0)">
      <g id="icon">
        <rect x="13.5" y="9.5" width="5" height="5" rx="0" ry="0" fill="#FFFFFF" class="White" stroke="#000000" stroke-width="1px" stroke-linejoin="round" stroke-miterlimit="1" />
      </g>
    </g>
  </g>
  <g id="Layer_1" transform="translate(-0.9333, -1.8683)">
    <g transform="matrix(0.9333, 0, 0, 0.9333, 0, 0)">
      <g id="icon">
        <line x1="14" y1="16.5" x2="18" y2="16.5" fill="none" stroke="#000000" stroke-width="1px" stroke-linecap="round" stroke-linejoin="round" stroke-miterlimit="1" />
      </g>
    </g>
  </g>
  <g id="Layer_1" transform="translate(-0.9333, -1.8683)">
    <g transform="matrix(0.9333, 0, 0, 0.9333, 0, 0)">
      <g id="icon">
        <rect x="21.5" y="9.5" width="5" height="5" rx="0" ry="0" fill="#FFFFFF" class="White" stroke="#000000" stroke-width="1px" stroke-linejoin="round" stroke-miterlimit="1" />
      </g>
    </g>
  </g>
  <g id="Layer_1" transform="translate(-0.9333, -1.8683)">
    <g transform="matrix(0.9333, 0, 0, 0.9333, 0, 0)">
      <g id="icon">
        <line x1="22" y1="16.5" x2="26" y2="16.5" fill="none" stroke="#000000" stroke-width="1px" stroke-linecap="round" stroke-linejoin="round" stroke-miterlimit="1" />
      </g>
    </g>
  </g>
  <g id="Layer_1" transform="translate(-0.9333, -1.8683)">
    <g transform="matrix(0.9333, 0, 0, 0.9333, 0, 0)">
      <g id="icon">
        <rect x="5.5" y="19.5" width="5" height="5" rx="0" ry="0" fill="#FFFFFF" class="White" stroke="#000000" stroke-width="1px" stroke-linejoin="round" stroke-miterlimit="1" />
      </g>
    </g>
  </g>
  <g id="Layer_1" transform="translate(-0.9333, -1.8683)">
    <g transform="matrix(0.9333, 0, 0, 0.9333, 0, 0)">
      <g id="icon">
        <line x1="6" y1="26.5" x2="10" y2="26.5" fill="none" stroke="#000000" stroke-width="1px" stroke-linecap="round" stroke-linejoin="round" stroke-miterlimit="1" />
      </g>
    </g>
  </g>
  <g id="Layer_1" transform="translate(-0.9333, -1.8683)">
    <g transform="matrix(0.9333, 0, 0, 0.9333, 0, 0)">
      <g id="icon">
        <rect x="13.5" y="19.5" width="5" height="5" rx="0" ry="0" fill="#FFFFFF" class="White" stroke="#000000" stroke-width="1px" stroke-linejoin="round" stroke-miterlimit="1" />
      </g>
    </g>
  </g>
  <g id="Layer_1" transform="translate(-0.9333, -1.8683)">
    <g transform="matrix(0.9333, 0, 0, 0.9333, 0, 0)">
      <g id="icon">
        <line x1="14" y1="26.5" x2="18" y2="26.5" fill="none" stroke="#000000" stroke-width="1px" stroke-linecap="round" stroke-linejoin="round" stroke-miterlimit="1" />
      </g>
    </g>
  </g>
</svg>