<?xml version='1.0' encoding='UTF-8'?>
<svg viewBox="-2 -2.935 32 32" xmlns="http://www.w3.org/2000/svg" xmlns:xlink="http://www.w3.org/1999/xlink">
  <g id="Layer_1" transform="translate(-0.9333, -1.8683)">
    <g transform="matrix(0.9333, 0, 0, 0.9333, 0, 0)">
      <g id="icon">
        <path d="M30, 29.5L2, 29.5C1.7239, 29.5 1.5, 29.2761 1.5, 29L1.5, 6.5L30.5, 6.5L30.5, 29C30.5, 29.2761 30.2761, 29.5 30, 29.5z" fill="#FFFFFF" stroke="#000000" stroke-width="1px" stroke-miterlimit="1" />
      </g>
    </g>
  </g>
  <g id="Layer_1" transform="translate(-0.9333, -1.8683)">
    <g transform="matrix(0.9333, 0, 0, 0.9333, 0, 0)">
      <g id="icon">
        <path d="M31, 7L1, 7L1, 3.4C1, 2.6268 1.6268, 2 2.4, 2L29.6, 2C30.3732, 2 31, 2.6268 31, 3.4L31, 7z" fill="#039C23" class="Green" />
      </g>
    </g>
  </g>
  <g id="Layer_1" transform="translate(-0.9333, -1.8683)">
    <g transform="matrix(0.9333, 0, 0, 0.9333, 0, 0)">
      <g id="icon">
        <path d="M5.5, 11.5L6.5, 11.5M8.5, 11.5L11.5, 11.5M13.5, 11.5L17.5, 11.5M5.5, 13.5L6.5, 13.5M8.5, 13.5L11.5, 13.5M13.5, 13.5L17.5, 13.5M5.5, 15.5L6.5, 15.5M8.5, 15.5L11.5, 15.5M13.5, 15.5L17.5, 15.5M5.5, 17.5L6.5, 17.5M8.5, 17.5L11.5, 17.5M13.5, 17.5L17.5, 17.5M5.5, 19.5L6.5, 19.5M8.5, 19.5L11.5, 19.5M13.5, 19.5L17.5, 19.5M19.5, 11.5L26.5, 11.5M19.5, 13.5L26.5, 13.5M19.5, 15.5L26.5, 15.5M19.5, 17.5L26.5, 17.5M19.5, 19.5L26.5, 19.5M5.5, 21.5L6.5, 21.5M8.5, 21.5L11.5, 21.5M13.5, 21.5L17.5, 21.5M19.5, 21.5L26.5, 21.5M5.5, 23.5L6.5, 23.5M8.5, 23.5L11.5, 23.5M13.5, 23.5L17.5, 23.5M19.5, 23.5L26.5, 23.5M5.5, 25.5L6.5, 25.5M8.5, 25.5L11.5, 25.5M13.5, 25.5L17.5, 25.5M19.5, 25.5L26.5, 25.5" fill="none" stroke="#000000" stroke-width="1px" stroke-linecap="round" stroke-linejoin="round" stroke-miterlimit="1" />
      </g>
    </g>
  </g>
</svg>