<?xml version='1.0' encoding='UTF-8'?>
<svg viewBox="-2 -2.4375 32 32" xmlns="http://www.w3.org/2000/svg" xmlns:xlink="http://www.w3.org/1999/xlink">
  <clipPath id="clip_mask" tag="staticElement_id11189975">
    <path d="M18, 30.9L18, 20.1C18, 18.942 18.942, 18 20.1, 18L30.9, 18C31.3036, 18 31.6796, 18.1164 32, 18.3146L32, 0L0, 0L0, 32L18.3146, 32C18.1164, 31.6796 18, 31.3036 18, 30.9z" />
  </clipPath>
  <g id="Layer_1" transform="translate(0, -0.875)">
    <g transform="matrix(0.875, 0, 0, 0.875, 0, 0)">
      <g id="main">
        <g id="icon" clip-path="url(#clip_mask)">
          <g id="transformed_icon" transform="translate(-1, -1)">
            <path d="M30, 29.5L2, 29.5C1.7239, 29.5 1.5, 29.2761 1.5, 29L1.5, 6.5L30.5, 6.5L30.5, 29C30.5, 29.2761 30.2761, 29.5 30, 29.5z" fill="#FFFFFF" stroke="#000000" stroke-width="1px" stroke-miterlimit="1" />
          </g>
        </g>
      </g>
    </g>
  </g>
  <g id="Layer_1" transform="translate(0, -0.875)">
    <g transform="matrix(0.875, 0, 0, 0.875, 0, 0)">
      <g id="main">
        <g id="icon" clip-path="url(#clip_mask)">
          <g id="transformed_icon" transform="translate(-1, -1)">
            <path d="M31, 7L1, 7L1, 3.4C1, 2.6268 1.6268, 2 2.4, 2L29.6, 2C30.3732, 2 31, 2.6268 31, 3.4L31, 7z" fill="#039C23" class="Green" />
          </g>
        </g>
      </g>
    </g>
  </g>
  <g id="Layer_1" transform="translate(0, -0.875)">
    <g transform="matrix(0.875, 0, 0, 0.875, 0, 0)">
      <g id="main">
        <g id="overlay">
          <path d="M30.9, 31.5L20.1, 31.5C19.77, 31.5 19.5, 31.23 19.5, 30.9L19.5, 20.1C19.5, 19.77 19.77, 19.5 20.1, 19.5L30.9, 19.5C31.23, 19.5 31.5, 19.77 31.5, 20.1L31.5, 30.9C31.5, 31.23 31.23, 31.5 30.9, 31.5z" fill="#FFFFFF" stroke="#000000" stroke-width="1px" stroke-miterlimit="1" />
        </g>
      </g>
    </g>
  </g>
  <g id="Layer_1" transform="translate(0, -0.875)">
    <g transform="matrix(0.875, 0, 0, 0.875, 0, 0)">
      <g id="main">
        <g id="overlay">
          <circle cx="28.2252" cy="22.4867" r="1.8667" fill="#FFB115" class="Yellow" />
        </g>
      </g>
    </g>
  </g>
  <g id="Layer_1" transform="translate(0, -0.875)">
    <g transform="matrix(0.875, 0, 0, 0.875, 0, 0)">
      <g id="main">
        <g id="overlay">
          <path d="M30, 29.2529L27.3472, 25.6704C27.2613, 25.5548 27.0924, 25.5551 27.0069, 25.671L25.8253, 27.2763L23.9647, 24.7827C23.879, 24.6679 23.7074, 24.6679 23.6216, 24.7827L21.0836, 28.1271C21.0559, 28.1641 21, 28.2091 21, 28.2554L21, 30L30, 30L30, 29.2529z" fill="#039C23" class="Green" />
        </g>
      </g>
    </g>
  </g>
</svg>