<?xml version='1.0' encoding='UTF-8'?>
<svg viewBox="-2 -2 32 32" xmlns="http://www.w3.org/2000/svg" xmlns:xlink="http://www.w3.org/1999/xlink">
  <g id="Layer_1" transform="translate(0, 0)">
    <g transform="matrix(0.875, 0, 0, 0.875, 0, 0)">
      <g id="icon">
        <path d="M16, 0C7.2, 0 0, 7.2 0, 16C0, 24.8 7.2, 32 16, 32C24.8, 32 32, 24.8 32, 16C32, 7.2 24.8, 0 16, 0zM12.7, 15.9C12.7, 16 12.7, 16 12.7, 16.1L18.8, 19.1C19.3, 18.7 20, 18.4 20.7, 18.4C22.4, 18.4 23.7, 19.7 23.7, 21.4C23.7, 23.1 22.4, 24.4 20.7, 24.4C19, 24.4 17.7, 23.1 17.7, 21.4C17.7, 21.3 17.7, 21.3 17.7, 21.2L11.6, 18.2C11.1, 18.6 10.4, 18.9 9.7, 18.9C8, 18.9 6.7, 17.6 6.7, 15.9C6.7, 14.2 8, 12.9 9.7, 12.9C10.4, 12.9 11.1, 13.2 11.6, 13.6L17.7, 10.6C17.7, 10.5 17.7, 10.5 17.7, 10.4C17.7, 8.7 19, 7.4 20.7, 7.4C22.4, 7.4 23.7, 8.7 23.7, 10.4C23.7, 12.1 22.4, 13.4 20.7, 13.4C20, 13.4 19.3, 13.1 18.8, 12.7L12.7, 15.7C12.7, 15.8 12.7, 15.8 12.7, 15.9z" fill="#1177D7" class="Blue" />
      </g>
    </g>
  </g>
  <g id="Layer_1" transform="translate(0, 0)">
    <g transform="matrix(0.875, 0, 0, 0.875, 0, 0)">
      <g id="icon">
        <path d="M9.7, 18.9C10.4, 18.9 11.1, 18.6 11.6, 18.2L17.7, 21.2C17.7, 21.3 17.7, 21.3 17.7, 21.4C17.7, 23.1 19, 24.4 20.7, 24.4C22.4, 24.4 23.7, 23.1 23.7, 21.4C23.7, 19.7 22.4, 18.4 20.7, 18.4C20, 18.4 19.3, 18.7 18.8, 19.1L12.7, 16.1C12.7, 16 12.7, 16 12.7, 15.9C12.7, 15.8 12.7, 15.8 12.7, 15.7L18.8, 12.7C19.3, 13.1 20, 13.4 20.7, 13.4C22.4, 13.4 23.7, 12.1 23.7, 10.4C23.7, 8.7 22.4, 7.4 20.7, 7.4C19, 7.4 17.7, 8.7 17.7, 10.4C17.7, 10.5 17.7, 10.5 17.7, 10.6L11.6, 13.6C11.1, 13.2 10.4, 12.9 9.7, 12.9C8, 12.9 6.7, 14.2 6.7, 15.9C6.7, 17.6 8.1, 18.9 9.7, 18.9z" fill="#1177D7" class="Blue" />
      </g>
    </g>
  </g>
  <g id="Layer_1" transform="translate(6, 6)">
    <g id="icon">
      <path d="M2, 15.781L2, 0.219C2, 0.098 2.098, 0 2.219, 0L7.708, 0C8.793, 0 9.804, 0.182 10.713, 0.54C11.64, 0.905 12.448, 1.446 13.116, 2.148C13.779, 2.844 14.299, 3.699 14.662, 4.691C15.019, 5.665 15.2, 6.778 15.2, 8C15.2, 9.222 15.019, 10.335 14.662, 11.309C14.299, 12.301 13.779, 13.156 13.116, 13.852C12.448, 14.554 11.639, 15.095 10.713, 15.46C9.804, 15.818 8.793, 16 7.708, 16L2.219, 16C2.098, 16 2, 15.902 2, 15.781zM7.708, 14.159C8.56, 14.159 9.343, 14.021 10.035, 13.748C10.71, 13.482 11.296, 13.091 11.778, 12.585C12.266, 12.073 12.653, 11.432 12.929, 10.678C13.211, 9.907 13.355, 9.006 13.355, 8C13.355, 6.994 13.212, 6.093 12.929, 5.322C12.653, 4.569 12.266, 3.927 11.778, 3.415C11.296, 2.909 10.71, 2.518 10.035, 2.251C9.343, 1.978 8.56, 1.84 7.708, 1.84L3.845, 1.84L3.845, 14.159L7.708, 14.159z" fill="#FFFFFF" class="White" />
    </g>
  </g>
</svg>