<?xml version='1.0' encoding='UTF-8'?>
<svg viewBox="-2 -2 32 32" xmlns="http://www.w3.org/2000/svg" xmlns:xlink="http://www.w3.org/1999/xlink">
  <g id="Layer_1" transform="translate(0, 0)">
    <g transform="matrix(0.875, 0, 0, 0.875, 0, 0)">
      <g id="icon">
        <path d="M16, 0C7.2, 0 0, 7.2 0, 16C0, 24.8 7.2, 32 16, 32C24.8, 32 32, 24.8 32, 16C32, 7.2 24.8, 0 16, 0zM12.7, 15.9C12.7, 16 12.7, 16 12.7, 16.1L18.8, 19.1C19.3, 18.7 20, 18.4 20.7, 18.4C22.4, 18.4 23.7, 19.7 23.7, 21.4C23.7, 23.1 22.4, 24.4 20.7, 24.4C19, 24.4 17.7, 23.1 17.7, 21.4C17.7, 21.3 17.7, 21.3 17.7, 21.2L11.6, 18.2C11.1, 18.6 10.4, 18.9 9.7, 18.9C8, 18.9 6.7, 17.6 6.7, 15.9C6.7, 14.2 8, 12.9 9.7, 12.9C10.4, 12.9 11.1, 13.2 11.6, 13.6L17.7, 10.6C17.7, 10.5 17.7, 10.5 17.7, 10.4C17.7, 8.7 19, 7.4 20.7, 7.4C22.4, 7.4 23.7, 8.7 23.7, 10.4C23.7, 12.1 22.4, 13.4 20.7, 13.4C20, 13.4 19.3, 13.1 18.8, 12.7L12.7, 15.7C12.7, 15.8 12.7, 15.8 12.7, 15.9z" fill="#D11C1C" class="Red" />
      </g>
    </g>
  </g>
  <g id="Layer_1" transform="translate(0, 0)">
    <g transform="matrix(0.875, 0, 0, 0.875, 0, 0)">
      <g id="icon">
        <path d="M9.7, 18.9C10.4, 18.9 11.1, 18.6 11.6, 18.2L17.7, 21.2C17.7, 21.3 17.7, 21.3 17.7, 21.4C17.7, 23.1 19, 24.4 20.7, 24.4C22.4, 24.4 23.7, 23.1 23.7, 21.4C23.7, 19.7 22.4, 18.4 20.7, 18.4C20, 18.4 19.3, 18.7 18.8, 19.1L12.7, 16.1C12.7, 16 12.7, 16 12.7, 15.9C12.7, 15.8 12.7, 15.8 12.7, 15.7L18.8, 12.7C19.3, 13.1 20, 13.4 20.7, 13.4C22.4, 13.4 23.7, 12.1 23.7, 10.4C23.7, 8.7 22.4, 7.4 20.7, 7.4C19, 7.4 17.7, 8.7 17.7, 10.4C17.7, 10.5 17.7, 10.5 17.7, 10.6L11.6, 13.6C11.1, 13.2 10.4, 12.9 9.7, 12.9C8, 12.9 6.7, 14.2 6.7, 15.9C6.7, 17.6 8.1, 18.9 9.7, 18.9z" fill="#D11C1C" class="Red" />
      </g>
    </g>
  </g>
  <g id="Layer_1" transform="translate(6, 6)">
    <g id="icon">
      <path d="M5.845, 14.141L5.845, 0.218C5.845, 0.098 5.748, 0 5.628, 0L4.217, 0C4.097, 0 4, 0.098 4, 0.218L4, 15.782C4, 15.902 4.097, 16 4.217, 16L13.183, 16C13.303, 16 13.4, 15.902 13.4, 15.782L13.4, 14.359C13.4, 14.239 13.303, 14.141 13.183, 14.141L5.845, 14.141z" fill="#FFFFFF" class="White" />
    </g>
  </g>
</svg>