<?xml version='1.0' encoding='UTF-8'?>
<svg viewBox="-2 -2 32 32" xmlns="http://www.w3.org/2000/svg" xmlns:xlink="http://www.w3.org/1999/xlink">
  <g id="Layer_1" transform="translate(0, 0)">
    <g transform="matrix(0.875, 0, 0, 0.875, 0, 0)">
      <g id="icon">
        <path d="M16, 0C7.2, 0 0, 7.2 0, 16C0, 24.8 7.2, 32 16, 32C24.8, 32 32, 24.8 32, 16C32, 7.2 24.8, 0 16, 0zM12.7, 15.9C12.7, 16 12.7, 16 12.7, 16.1L18.8, 19.1C19.3, 18.7 20, 18.4 20.7, 18.4C22.4, 18.4 23.7, 19.7 23.7, 21.4C23.7, 23.1 22.4, 24.4 20.7, 24.4C19, 24.4 17.7, 23.1 17.7, 21.4C17.7, 21.3 17.7, 21.3 17.7, 21.2L11.6, 18.2C11.1, 18.6 10.4, 18.9 9.7, 18.9C8, 18.9 6.7, 17.6 6.7, 15.9C6.7, 14.2 8, 12.9 9.7, 12.9C10.4, 12.9 11.1, 13.2 11.6, 13.6L17.7, 10.6C17.7, 10.5 17.7, 10.5 17.7, 10.4C17.7, 8.7 19, 7.4 20.7, 7.4C22.4, 7.4 23.7, 8.7 23.7, 10.4C23.7, 12.1 22.4, 13.4 20.7, 13.4C20, 13.4 19.3, 13.1 18.8, 12.7L12.7, 15.7C12.7, 15.8 12.7, 15.8 12.7, 15.9z" fill="#039C23" class="Green" />
      </g>
    </g>
  </g>
  <g id="Layer_1" transform="translate(0, 0)">
    <g transform="matrix(0.875, 0, 0, 0.875, 0, 0)">
      <g id="icon">
        <path d="M9.7, 18.9C10.4, 18.9 11.1, 18.6 11.6, 18.2L17.7, 21.2C17.7, 21.3 17.7, 21.3 17.7, 21.4C17.7, 23.1 19, 24.4 20.7, 24.4C22.4, 24.4 23.7, 23.1 23.7, 21.4C23.7, 19.7 22.4, 18.4 20.7, 18.4C20, 18.4 19.3, 18.7 18.8, 19.1L12.7, 16.1C12.7, 16 12.7, 16 12.7, 15.9C12.7, 15.8 12.7, 15.8 12.7, 15.7L18.8, 12.7C19.3, 13.1 20, 13.4 20.7, 13.4C22.4, 13.4 23.7, 12.1 23.7, 10.4C23.7, 8.7 22.4, 7.4 20.7, 7.4C19, 7.4 17.7, 8.7 17.7, 10.4C17.7, 10.5 17.7, 10.5 17.7, 10.6L11.6, 13.6C11.1, 13.2 10.4, 12.9 9.7, 12.9C8, 12.9 6.7, 14.2 6.7, 15.9C6.7, 17.6 8.1, 18.9 9.7, 18.9z" fill="#039C23" class="Green" />
      </g>
    </g>
  </g>
  <g id="Layer_1" transform="translate(6, 6)">
    <g id="icon">
      <path d="M12.238, 1.205C11.25, 0.405 9.861, 0 8.11, 0L4.215, 0C4.096, 0 4, 0.096 4, 0.215L4, 15.784C4, 15.903 4.096, 15.999 4.215, 15.999L5.62, 15.999C5.739, 15.999 5.835, 15.903 5.835, 15.784L5.835, 9.877L8.11, 9.877C8.916, 9.877 9.669, 9.758 10.349, 9.524C11.039, 9.286 11.647, 8.948 12.156, 8.519C12.681, 8.077 13.093, 7.542 13.381, 6.928C13.67, 6.312 13.816, 5.635 13.816, 4.915C13.817, 3.278 13.3, 2.064 12.238, 1.205zM10.975, 7.114C10.639, 7.397 10.228, 7.623 9.751, 7.788C9.264, 7.956 8.712, 8.041 8.11, 8.041L5.835, 8.041L5.835, 1.836L8.11, 1.836C9.43, 1.836 10.431, 2.104 11.085, 2.633C11.697, 3.128 11.982, 3.853 11.982, 4.915C11.982, 5.369 11.896, 5.772 11.72, 6.148C11.543, 6.525 11.3, 6.841 10.975, 7.114z" fill="#FFFFFF" class="White" />
    </g>
  </g>
</svg>