<?xml version='1.0' encoding='UTF-8'?>
<svg viewBox="-2 -2 32 32" xmlns="http://www.w3.org/2000/svg" xmlns:xlink="http://www.w3.org/1999/xlink">
  <g id="Layer_1" transform="translate(-3.2325, -3.2325)">
    <g transform="matrix(1.0769, 0, 0, 1.0769, 0, 0)">
      <g id="icon">
        <circle cx="16" cy="16" r="13" fill="#039C23" fill-opacity="1" style="fill:#B576CC" />
      </g>
    </g>
  </g>
  <g id="Layer_1" transform="translate(6.6566, 7)">
    <g transform="matrix(0.5, 0, 0, 0.5, 0, 0)">
      <g transform="matrix(1.75, 0, 0, 1.75, 0, 0)">
        <g id="icon">
          <path d="M13.743, 15.656L8.911, 8.785C9.003, 8.763 9.091, 8.739 9.176, 8.714C9.87, 8.512 10.479, 8.214 10.984, 7.829C11.514, 7.425 11.928, 6.924 12.215, 6.339C12.501, 5.756 12.646, 5.097 12.646, 4.378C12.646, 2.872 12.115, 1.735 11.067, 1C10.122, 0.337 8.797, 0 7.129, 0L3.218, 0C3.098, 0 3, 0.098 3, 0.218L3, 15.78C3, 15.9 3.098, 15.998 3.218, 15.998L4.636, 15.998C4.757, 15.998 4.854, 15.9 4.854, 15.78L4.854, 9.007L6.756, 9.007L11.646, 15.908C11.687, 15.966 11.753, 16 11.824, 16L13.563, 16C13.741, 16 13.845, 15.801 13.743, 15.656zM6.937, 7.154L4.855, 7.154L4.855, 1.854L7.129, 1.854C8.407, 1.854 9.374, 2.077 10, 2.517C10.532, 2.89 10.79, 3.499 10.79, 4.378C10.79, 4.811 10.709, 5.197 10.549, 5.523C10.388, 5.852 10.162, 6.124 9.859, 6.355C9.536, 6.601 9.132, 6.796 8.657, 6.934C8.158, 7.08 7.579, 7.154 6.937, 7.154z" fill="#FFFFFF" fill-opacity="1" class="White" />
        </g>
      </g>
    </g>
  </g>
</svg>