<?xml version='1.0' encoding='UTF-8'?>
<svg viewBox="-2 -2 32 32" xmlns="http://www.w3.org/2000/svg" xmlns:xlink="http://www.w3.org/1999/xlink">
  <g id="Layer_1" transform="translate(-3.2325, -3.2325)">
    <g transform="matrix(1.0769, 0, 0, 1.0769, 0, 0)">
      <g id="icon">
        <circle cx="16" cy="16" r="13" fill="#FFB115" fill-opacity="1" class="Yellow" />
      </g>
    </g>
  </g>
  <g id="Layer_1" transform="translate(7, 7)">
    <g transform="matrix(0.5, 0, 0, 0.5, 0, 0)">
      <g transform="matrix(1.75, 0, 0, 1.75, 0, 0)">
        <g id="icon">
          <path d="M1.8, 0.218L1.8, 1.64C1.8, 1.761 1.898, 1.858 2.018, 1.858L7.07, 1.858L7.07, 15.78C7.07, 15.901 7.168, 15.998 7.288, 15.998L8.712, 15.998C8.833, 15.998 8.93, 15.9 8.93, 15.78L8.93, 1.859L13.981, 1.859C14.102, 1.859 14.199, 1.761 14.199, 1.641L14.199, 0.218C14.199, 0.097 14.101, 0 13.981, 0L2.018, 0C1.898, 0 1.8, 0.098 1.8, 0.218z" fill="#FFFFFF" fill-opacity="1" class="White" />
        </g>
      </g>
    </g>
  </g>
</svg>