<?xml version='1.0' encoding='UTF-8'?>
<svg viewBox="-8 -6 32 32" xmlns="http://www.w3.org/2000/svg" xmlns:xlink="http://www.w3.org/1999/xlink">
  <g transform="translate(0, 0)">
    <g transform="translate(0, 0)">
      <g id="Layer_1" transform="translate(-2, -6)" style="enable-background:new 0 0 32 32">
        <g id="Camping">
          <polygon points="2,26 6,26 10,15 14,26 18,26 10,6  " fill="#727272" class="Black" />
        </g>
      </g>
    </g>
  </g>
  <g transform="translate(0, 0)">
    <g transform="translate(0, 0)">
      <g id="Layer_1" transform="translate(-2, -6)" style="enable-background:new 0 0 32 32">
        <g id="Camping">
          <polygon points="22,6 12,6 20,26 30,26  " fill="Transparent" class="Transparent" />
        </g>
      </g>
    </g>
  </g>
  <g id="Layer_1" transform="translate(0, 12)" style="enable-background:new 0 0 16 16">
    <g id="Remove_1_">
      <path d="M15, 10L1, 10C0.4, 10 0, 9.6 0, 9L0, 7C0, 6.4 0.4, 6 1, 6L15, 6C15.6, 6 16, 6.4 16, 7L16, 9C16, 9.6 15.6, 10 15, 10z" fill="#727272" class="Black" />
    </g>
  </g>
</svg>