<?xml version='1.0' encoding='UTF-8'?>
<svg viewBox="0 -0.005 32 32" xmlns="http://www.w3.org/2000/svg" xmlns:xlink="http://www.w3.org/1999/xlink">
  <g id="Layer_1" transform="translate(0, 1.995)">
    <g transform="matrix(1.75, 0, 0, 1.75, 0, 0)">
      <g id="icon">
        <path d="M9, 16L13.683, 16C14.41, 16 15, 15.411 15, 14.683L15, 14L9, 14L9, 16z" fill="Transparent" fill-opacity="1" class="Transparent" />
      </g>
    </g>
  </g>
  <g id="Layer_1" transform="translate(0, 1.995)">
    <g transform="matrix(1.75, 0, 0, 1.75, 0, 0)">
      <g id="icon">
        <path d="M9, 15L11, 15L11, 16L9, 16L9, 15zM14, 15L15, 15L15, 14L14, 14L14, 15z" fill="Transparent" opacity="0.5" fill-opacity="1" class="Transparent" />
      </g>
    </g>
  </g>
  <g id="Layer_1" transform="translate(0, 1.995)">
    <g transform="matrix(1.75, 0, 0, 1.75, 0, 0)">
      <g id="icon">
        <path d="M3, 15.275C3, 15.675 3.325, 16 3.725, 16L9.275, 16C9.675, 16 10, 15.675 10, 15.275L10, 13.5L3, 13.5L3, 15.275z" fill="Transparent" fill-opacity="1" class="Transparent" />
      </g>
    </g>
  </g>
  <g id="Layer_1" transform="translate(0, 1.995)">
    <g transform="matrix(1.75, 0, 0, 1.75, 0, 0)">
      <g id="icon">
        <path d="M14.496, 8.185C14.242, 8.438 13.911, 8.575 13.56, 8.575C13.206, 8.575 12.871, 8.436 12.618, 8.184L10.615, 6.187C10.361, 5.934 10.216, 5.584 10.216, 5.225L10.216, 4.5L10, 4.5L10, 8.083C10, 9.14 9.14, 10 8.083, 10L3.5, 10L3.5, 13.5L15.5, 13.5L15.5, 7.172L14.496, 8.185z" fill="Transparent" fill-opacity="1" class="Transparent" />
      </g>
    </g>
  </g>
  <g id="Layer_1" transform="translate(0, 1.995)">
    <g transform="matrix(1.75, 0, 0, 1.75, 0, 0)">
      <g id="icon">
        <path d="M15, 7.677L15, 13L4, 13L4, 10L3, 10L3, 13.5C3, 13.776 3.224, 14 3.5, 14L15.5, 14C15.776, 14 16, 13.776 16, 13.5L16, 6.668L15, 7.677z" fill="Transparent" fill-opacity="1" class="Transparent" />
      </g>
    </g>
  </g>
  <g id="Layer_1" transform="translate(0, 1.995)">
    <g transform="matrix(1.75, 0, 0, 1.75, 0, 0)">
      <g id="icon">
        <path d="M4, 10L5, 10L5, 11L4, 11L4, 10zM11, 13L12, 13L12, 12L11, 12L11, 13zM7, 13L8, 13L8, 12L7, 12L7, 13zM14.68, 8L15, 8L15, 7.677L14.68, 8zM14, 11L15, 11L15, 10L14, 10L14, 11z" fill="Transparent" opacity="0.5" fill-opacity="1" class="Transparent" />
      </g>
    </g>
  </g>
  <g id="Layer_1" transform="translate(0, 1.995)">
    <g transform="matrix(1.75, 0, 0, 1.75, 0, 0)">
      <g id="icon">
        <polygon points="11,15 11,16 15,16 15,15 14,15" fill="Transparent" fill-opacity="1" class="Transparent" />
      </g>
    </g>
  </g>
  <g id="Layer_1" transform="translate(0, 1.995)">
    <g transform="matrix(1.75, 0, 0, 1.75, 0, 0)">
      <g id="icon">
        <polygon points="12,8 12.434,8 11,6.57 11,7 10,7 10,8 11,8 11,10 8.083,10 8,10 7,10 5,10 5,11 7,11 7,12 8,12 8,11 11,11 11,12 12,12 12,11 14,11 14,10 12,10" fill="Transparent" fill-opacity="1" class="Transparent" />
      </g>
    </g>
  </g>
  <g id="Layer_1" transform="translate(0, 1.995)">
    <g transform="matrix(1.75, 0, 0, 1.75, 0, 0)">
      <g id="icon">
        <path d="M15.875, 5.226C15.875, 5.32 15.838, 5.411 15.771, 5.478L13.786, 7.481C13.658, 7.609 13.455, 7.606 13.324, 7.475L11.321, 5.478C11.254, 5.411 11.216, 5.32 11.216, 5.225L11.216, 4.116C11.216, 3.995 11.362, 3.935 11.447, 4.02L12.953, 5.522L12.953, 3.613C12.953, 2.853 12.354, 2.257 11.588, 2.257L10.318, 2.257C10.098, 2.257 10.03, 2.187 10.03, 1.966L10.03, 1.374C10.03, 1.167 10.083, 1.071 10.318, 1.071L11.588, 1.071C12.97, 1.071 14.092, 2.149 14.144, 3.526L14.144, 3.53L14.144, 3.543C14.144, 3.561 14.142, 3.579 14.137, 3.596L14.137, 5.52L15.636, 4.027C15.724, 3.939 15.874, 4.002 15.874, 4.126L15.874, 5.226z" fill="#1177D7" fill-opacity="1" class="Blue" />
      </g>
    </g>
  </g>
  <g id="Layer_1" transform="translate(0, 1.995)">
    <g transform="matrix(1.75, 0, 0, 1.75, 0, 0)">
      <g id="icon">
        <path d="M8.083, 0L0.917, 0C0.41, 0 0, 0.41 0, 0.917L0, 8.084C0, 8.59 0.41, 9 0.917, 9L8.084, 9C8.59, 9 9, 8.59 9, 8.083L9, 0.917C9, 0.41 8.59, 0 8.083, 0zM7.941, 7.385C8.042, 7.51 7.957, 7.7 7.799, 7.7L6.06, 7.7C6.005, 7.7 5.953, 7.675 5.918, 7.631L4.605, 6.011L3.375, 7.627C3.34, 7.673 3.286, 7.7 3.23, 7.7L1.479, 7.7C1.324, 7.7 1.238, 7.515 1.334, 7.389L3.461, 4.598L1.044, 1.615C0.943, 1.491 1.028, 1.3 1.186, 1.3L2.925, 1.3C2.98, 1.3 3.032, 1.325 3.067, 1.369L4.539, 3.185L5.92, 1.373C5.955, 1.327 6.009, 1.3 6.065, 1.3L7.816, 1.3C7.971, 1.3 8.057, 1.485 7.961, 1.611L5.683, 4.598L7.941, 7.385z" fill="Transparent" fill-opacity="1" class="Transparent" />
      </g>
    </g>
  </g>
  <g id="Layer_1" transform="translate(0, 1.995)">
    <g transform="matrix(1.75, 0, 0, 1.75, 0, 0)">
      <g id="icon">
        <path d="M5.683, 4.598L7.96, 1.611C8.056, 1.485 7.969, 1.3 7.815, 1.3L6.064, 1.3C6.007, 1.3 5.954, 1.327 5.919, 1.373L4.538, 3.185L3.066, 1.369C3.031, 1.325 2.979, 1.3 2.924, 1.3L1.186, 1.3C1.029, 1.3 0.943, 1.491 1.044, 1.615L3.461, 4.598L1.334, 7.389C1.238, 7.515 1.324, 7.7 1.479, 7.7L3.23, 7.7C3.287, 7.7 3.34, 7.673 3.375, 7.627L4.606, 6.012L5.919, 7.632C5.954, 7.675 6.006, 7.7 6.06, 7.7L7.799, 7.7C7.956, 7.7 8.042, 7.509 7.941, 7.385L5.683, 4.598z" fill="#FFFFFF" fill-opacity="1" class="White" />
      </g>
    </g>
  </g>
  <g id="Layer_1" transform="translate(16, 15.995)">
    <g transform="matrix(0.5, 0, 0, 0.5, 0, 0)">
      <g id="icon">
        <path d="M1.54, 28C1.338, 28 1.161, 27.875 1.09, 27.682C1.019, 27.488 1.07, 27.275 1.222, 27.138L5.583, 23.157C5.671, 23.078 5.784, 23.034 5.901, 23.034L22.899, 23.067L27.278, 19.119C27.365, 19.042 27.476, 19 27.591, 19L30.341, 19C30.539, 19 30.714, 19.122 30.787, 19.31C30.86, 19.498 30.814, 19.709 30.67, 19.848L22.251, 27.866C22.161, 27.952 22.045, 28 21.922, 28L1.54, 28z" fill="#1177D7" class="Blue" fill-rule="evenodd" />
      </g>
    </g>
  </g>
  <g id="Layer_1" transform="translate(16, 15.995)">
    <g transform="matrix(0.5, 0, 0, 0.5, 0, 0)">
      <g id="icon">
        <path d="M1.564, 21C1.363, 21 1.188, 20.876 1.118, 20.684C1.048, 20.492 1.1, 20.28 1.251, 20.146L5.429, 16.221C5.515, 16.144 5.626, 16.101 5.741, 16.101L22.899, 16.068L27.277, 12.121C27.364, 12.044 27.475, 12.002 27.59, 12.002L30.315, 12.002C30.512, 12.002 30.686, 12.123 30.758, 12.311C30.83, 12.499 30.784, 12.709 30.641, 12.846L22.274, 20.87C22.185, 20.955 22.069, 21.002 21.948, 21.002L1.564, 21.002z" fill="#1177D7" class="Blue" fill-rule="evenodd" />
      </g>
    </g>
  </g>
  <g id="Layer_1" transform="translate(16, 15.995)">
    <g transform="matrix(0.5, 0, 0, 0.5, 0, 0)">
      <g id="icon">
        <path d="M1.565, 14C1.363, 14 1.187, 13.875 1.117, 13.68C1.047, 13.486 1.101, 13.274 1.255, 13.139L9.864, 5.117C9.95, 5.041 10.061, 5 10.174, 5L30.47, 5C30.673, 5 30.849, 5.126 30.919, 5.321C30.989, 5.516 30.934, 5.728 30.779, 5.862L22.087, 13.884C22.001, 13.959 21.891, 14 21.778, 14L1.565, 14z" fill="#1177D7" class="Blue" fill-rule="evenodd" />
      </g>
    </g>
  </g>
  <g id="Layer_1" transform="translate(0, -0.005)">
    <g id="icon">
      <path d="M14.5935, 3.8004C13.5217, 0.8889 10.3605, -0.237 7.5028, 0.0409C5.916, 0.1952 4.4038, 0.7063 3.2998, 1.9206C2.2433, 3.0826 1.7483, 4.4873 1.4373, 6.0086C1.3927, 6.227 1.3441, 6.4582 1.4067, 6.6789C1.4495, 6.8299 1.6357, 6.9457 1.593, 7.1061C1.5055, 7.4348 1.202, 7.7651 1.0248, 8.0498C0.8124, 8.3911 -0.1148, 9.464 0.1202, 9.8903C0.3338, 10.2777 1.2155, 10.1468 1.1119, 10.7069C0.9984, 11.3207 0.9806, 11.4923 1.6426, 11.5924C1.4839, 11.6596 0.9618, 11.81 1.1346, 12.0822C1.2987, 12.3406 1.6393, 12.3642 1.5665, 12.7551C1.467, 13.2894 1.1288, 13.8177 1.5216, 14.333C1.8944, 14.822 2.6186, 14.7313 3.1463, 14.6752C3.5782, 14.6293 4.5684, 14.2913 4.787, 14.8725C4.9345, 15.2646 4.7474, 15.7843 5.2203, 15.9148C5.5695, 16.0112 5.9305, 15.9779 6.38, 15.9779C6.7679, 15.9779 13.2404, 15.9344 12.5233, 12.7816C12.3846, 12.1716 12.4502, 12.2989 12.4502, 11.8633C12.4502, 11.0327 13.2462, 10.5549 13.7293, 9.9128C14.1507, 9.3526 14.4932, 8.73 14.7156, 8.0611C15.1727, 6.6866 15.0912, 5.1525 14.5935, 3.8004zM13.4912, 7.1718C12.7869, 9.2064 10.8569, 10.0499 8.2322, 9.1125C5.6075, 8.1751 3.2823, 5.8117 3.9865, 3.777C4.6908, 1.7424 7.8165, 0.8121 10.4412, 1.7495C13.0659, 2.6869 14.1955, 5.1371 13.4912, 7.1718z" fill="#1177D7" fill-opacity="1" class="Blue" />
    </g>
  </g>
  <g id="Layer_1" transform="translate(0, -0.005)">
    <g id="icon">
      <path d="M13.4912, 7.1718C12.7869, 9.2064 10.8569, 10.0499 8.2322, 9.1125C5.6075, 8.1751 3.2823, 5.8117 3.9865, 3.777C4.6907, 1.7423 7.8165, 0.8121 10.4412, 1.7495C13.0659, 2.6869 14.1955, 5.1371 13.4912, 7.1718z" fill="#FFFFFF" fill-opacity="1" class="White" />
    </g>
  </g>
  <g id="Layer_1" transform="translate(0, -0.005)">
    <g id="icon">
      <path d="M11.7301, 4.6643L11.1077, 4.4478L10.9566, 4.0691L11.2553, 3.4746C11.3065, 3.3727 11.2877, 3.249 11.2088, 3.1674L10.9107, 2.8594C10.8318, 2.7778 10.7103, 2.7567 10.6091, 2.807L10.0188, 3.1004L9.6486, 2.9409L9.4461, 2.3043C9.4114, 2.1955 9.3121, 2.1199 9.1995, 2.1189L8.7743, 2.1152C8.6617, 2.1142 8.5611, 2.188 8.5246, 2.2962L8.3115, 2.9284L7.9387, 3.0819L7.3535, 2.7785C7.2532, 2.7265 7.1314, 2.7456 7.0511, 2.8257L6.7479, 3.1285C6.6676, 3.2087 6.6468, 3.3321 6.6963, 3.4348L6.9851, 4.0344L6.828, 4.4104L6.2013, 4.6161C6.0942, 4.6513 6.0198, 4.7522 6.0188, 4.8666L6.0152, 5.2985C6.0142, 5.4129 6.0869, 5.5151 6.1934, 5.5521L6.8158, 5.7686L6.9669, 6.1473L6.6682, 6.7418C6.617, 6.8437 6.6358, 6.9674 6.7147, 7.049L7.0128, 7.357C7.0917, 7.4386 7.2132, 7.4597 7.3144, 7.4094L7.9047, 7.116L8.2749, 7.2755L8.4774, 7.9121C8.5121, 8.0209 8.6114, 8.0965 8.724, 8.0975L9.1492, 8.1012C9.2618, 8.1022 9.3624, 8.0284 9.3989, 7.9202L9.612, 7.288L9.9848, 7.1345L10.57, 7.4379C10.6703, 7.4899 10.7921, 7.4708 10.8724, 7.3907L11.1756, 7.0879C11.2559, 7.0077 11.2767, 6.8843 11.2272, 6.7816L10.9384, 6.182L11.0955, 5.806L11.7222, 5.6003C11.8293, 5.5651 11.9037, 5.4642 11.9047, 5.3498L11.9083, 4.9179C11.9093, 4.8036 11.8366, 4.7014 11.7301, 4.6643zM8.9547, 5.9582C8.4927, 5.9542 8.1213, 5.5705 8.1253, 5.1011C8.1293, 4.6318 8.507, 4.2545 8.969, 4.2586C9.431, 4.2627 9.8024, 4.6463 9.7984, 5.1157C9.7945, 5.585 9.4168, 5.9622 8.9547, 5.9582z" fill="#727272" fill-opacity="1" class="Black" />
    </g>
  </g>
</svg>