<?xml version='1.0' encoding='UTF-8'?>
<svg viewBox="-2 -2 32 31.9975" xmlns="http://www.w3.org/2000/svg" xmlns:xlink="http://www.w3.org/1999/xlink">
  <g id="Layer_1" transform="translate(-0.5612, -0.935)">
    <g transform="matrix(0.9333, 0, 0, 0.9333, 0, 0)">
      <g id="icon">
        <path d="M25.31, 15.106C22.463, 15.106 20.669, 12.42 20.628, 8.096C20.628, 3.719 22.51, 1 25.539, 1C26.993, 1 28.188, 1.644 28.995, 2.862C29.783, 4.051 30.2, 5.797 30.2, 7.91C30.2, 12.483 28.418, 15.106 25.31, 15.106zM25.414, 2.782C23.848, 2.782 22.875, 4.825 22.875, 8.114C22.875, 11.327 23.848, 13.323 25.414, 13.323C27.051, 13.323 27.953, 11.429 27.953, 7.991C27.953, 5.615 27.513, 2.782 25.414, 2.782zM14.665, 15.106C11.818, 15.106 10.024, 12.42 9.983, 8.096C9.983, 3.719 11.865, 1 14.894, 1C16.348, 1 17.543, 1.644 18.35, 2.862C19.138, 4.051 19.555, 5.797 19.555, 7.91C19.555, 12.483 17.773, 15.106 14.665, 15.106zM14.769, 2.782C13.203, 2.782 12.23, 4.825 12.23, 8.114C12.23, 11.327 13.203, 13.323 14.769, 13.323C16.406, 13.323 17.308, 11.429 17.308, 7.991C17.308, 5.615 16.868, 2.782 14.769, 2.782zM7.423, 15.106C6.61, 15.106 6.019, 14.482 6.019, 13.623C6.019, 12.764 6.627, 12.14 7.464, 12.14C8.303, 12.14 8.888, 12.75 8.888, 13.623C8.888, 14.496 8.286, 15.106 7.423, 15.106z" fill="#727272" fill-opacity="1" class="Black" />
      </g>
    </g>
  </g>
  <g id="Layer_1" transform="translate(-0.5612, -0.935)">
    <g transform="matrix(0.9333, 0, 0, 0.9333, 0, 0)">
      <g id="icon">
        <path d="M25.265, 31C22.418, 31 20.624, 28.314 20.583, 23.99C20.583, 19.613 22.465, 16.894 25.494, 16.894C26.948, 16.894 28.143, 17.538 28.95, 18.756C29.738, 19.945 30.155, 21.691 30.155, 23.804C30.155, 28.377 28.373, 31 25.265, 31zM25.369, 18.676C23.803, 18.676 22.83, 20.719 22.83, 24.008C22.83, 27.221 23.803, 29.217 25.369, 29.217C27.006, 29.217 27.908, 27.323 27.908, 23.885C27.908, 21.509 27.467, 18.676 25.369, 18.676zM18.023, 31C17.21, 31 16.619, 30.376 16.619, 29.517C16.619, 28.658 17.227, 28.034 18.064, 28.034C18.903, 28.034 19.488, 28.644 19.488, 29.517C19.489, 30.39 18.886, 31 18.023, 31z" fill="#727272" fill-opacity="1" class="Black" />
      </g>
    </g>
  </g>
  <g id="Layer_1" transform="translate(-0.5612, -0.935)">
    <g transform="matrix(0.9333, 0, 0, 0.9333, 0, 0)">
      <g id="icon">
        <path d="M11.471, 25L1.302, 25C1.131, 24.995 1, 24.872 1, 24.706L1, 22.303C1, 22.136 1.137, 21.999 1.304, 21.999L11.459, 21.999L7.535, 18.204C7.459, 18.128 7.513, 17.999 7.62, 17.999L11.272, 17.999C11.398, 17.999 11.52, 18.049 11.609, 18.139L16.832, 23.352C16.99, 23.53 16.99, 23.591 16.823, 23.765L11.703, 28.859C11.614, 28.949 11.492, 28.999 11.366, 28.999L7.72, 28.999C7.613, 28.999 7.56, 28.87 7.635, 28.794L11.471, 25z" fill="Transparent" fill-opacity="1" class="Transparent" />
      </g>
    </g>
  </g>
  <g id="Layer_1" transform="translate(0, 13.9975)" style="enable-background:new 0 0 16 16">
    <g id="Check_2_">
      <path d="M0, 8L2, 6L6, 10L14, 2L16, 4L6, 14C6, 14 0, 7.9 0, 8z" fill="#039C23" class="Green" />
    </g>
  </g>
</svg>