<?xml version='1.0' encoding='UTF-8'?>
<svg viewBox="-2 -2.0125 32 32" xmlns="http://www.w3.org/2000/svg" xmlns:xlink="http://www.w3.org/1999/xlink">
  <g id="Layer_1" transform="translate(-0.9125, -0.9387)">
    <g transform="matrix(0.9326, 0, 0, 0.9326, 0, 0)">
      <g id="icon">
        <path d="M1.601, 25.519L15.283, 12.187C14.104, 8.49 14.376, 5.902 16.382, 3.833C17.975, 2.189 21.706, 0.146 26.245, 1.379C26.307, 1.406 26.383, 1.452 26.457, 1.493L20.377, 7.551C19.528, 8.397 19.742, 9.983 20.876, 11.113C22.01, 12.243 22.943, 12.692 24.27, 11.37L30.415, 5.247C30.457, 5.312 30.503, 5.381 30.529, 5.431C31.904, 9.771 30.022, 13.625 28.117, 15.524C26.664, 16.972 23.512, 17.997 19.898, 16.809L6.478, 30.376C5.644, 31.207 4.291, 31.207 3.457, 30.376L1.601, 28.53C0.767, 27.698 0.767, 26.35 1.601, 25.519zM4.111, 27.915C4.705, 28.507 5.668, 28.507 6.261, 27.915C6.855, 27.323 6.855, 26.364 6.261, 25.772C5.667, 25.18 4.704, 25.18 4.111, 25.772C3.517, 26.364 3.517, 27.324 4.111, 27.915z" fill="#727272" fill-opacity="1" class="Black" fill-rule="evenodd" />
      </g>
    </g>
  </g>
</svg>