<?xml version='1.0' encoding='UTF-8'?>
<svg viewBox="0 -1 32 32" xmlns="http://www.w3.org/2000/svg" xmlns:xlink="http://www.w3.org/1999/xlink">
  <g id="Layer_1" transform="translate(0, 1)">
    <g transform="matrix(1.75, 0, 0, 1.75, 0, 0)">
      <g id="icon">
        <path d="M9, 16L13.683, 16C14.41, 16 15, 15.411 15, 14.683L15, 14L9, 14L9, 16z" fill="Transparent" fill-opacity="1" class="Transparent" />
      </g>
    </g>
  </g>
  <g id="Layer_1" transform="translate(0, 1)">
    <g transform="matrix(1.75, 0, 0, 1.75, 0, 0)">
      <g id="icon">
        <path d="M9, 15L11, 15L11, 16L9, 16L9, 15zM14, 15L15, 15L15, 14L14, 14L14, 15z" fill="Transparent" opacity="0.5" fill-opacity="1" class="Transparent" />
      </g>
    </g>
  </g>
  <g id="Layer_1" transform="translate(0, 1)">
    <g transform="matrix(1.75, 0, 0, 1.75, 0, 0)">
      <g id="icon">
        <path d="M3, 15.275C3, 15.675 3.325, 16 3.725, 16L9.275, 16C9.675, 16 10, 15.675 10, 15.275L10, 13.5L3, 13.5L3, 15.275z" fill="Transparent" fill-opacity="1" class="Transparent" />
      </g>
    </g>
  </g>
  <g id="Layer_1" transform="translate(0, 1)">
    <g transform="matrix(1.75, 0, 0, 1.75, 0, 0)">
      <g id="icon">
        <path d="M14.496, 8.185C14.242, 8.438 13.911, 8.575 13.56, 8.575C13.206, 8.575 12.871, 8.436 12.618, 8.184L10.615, 6.187C10.361, 5.934 10.216, 5.584 10.216, 5.225L10.216, 4.5L10, 4.5L10, 8.083C10, 9.14 9.14, 10 8.083, 10L3.5, 10L3.5, 13.5L15.5, 13.5L15.5, 7.172L14.496, 8.185z" fill="Transparent" fill-opacity="1" class="Transparent" />
      </g>
    </g>
  </g>
  <g id="Layer_1" transform="translate(0, 1)">
    <g transform="matrix(1.75, 0, 0, 1.75, 0, 0)">
      <g id="icon">
        <path d="M15, 7.677L15, 13L4, 13L4, 10L3, 10L3, 13.5C3, 13.776 3.224, 14 3.5, 14L15.5, 14C15.776, 14 16, 13.776 16, 13.5L16, 6.668L15, 7.677z" fill="Transparent" fill-opacity="1" class="Transparent" />
      </g>
    </g>
  </g>
  <g id="Layer_1" transform="translate(0, 1)">
    <g transform="matrix(1.75, 0, 0, 1.75, 0, 0)">
      <g id="icon">
        <path d="M4, 10L5, 10L5, 11L4, 11L4, 10zM11, 13L12, 13L12, 12L11, 12L11, 13zM7, 13L8, 13L8, 12L7, 12L7, 13zM14.68, 8L15, 8L15, 7.677L14.68, 8zM14, 11L15, 11L15, 10L14, 10L14, 11z" fill="Transparent" opacity="0.5" fill-opacity="1" class="Transparent" />
      </g>
    </g>
  </g>
  <g id="Layer_1" transform="translate(0, 1)">
    <g transform="matrix(1.75, 0, 0, 1.75, 0, 0)">
      <g id="icon">
        <polygon points="11,15 11,16 15,16 15,15 14,15" fill="Transparent" fill-opacity="1" class="Transparent" />
      </g>
    </g>
  </g>
  <g id="Layer_1" transform="translate(0, 1)">
    <g transform="matrix(1.75, 0, 0, 1.75, 0, 0)">
      <g id="icon">
        <polygon points="12,8 12.434,8 11,6.57 11,7 10,7 10,8 11,8 11,10 8.083,10 8,10 7,10 5,10 5,11 7,11 7,12 8,12 8,11 11,11 11,12 12,12 12,11 14,11 14,10 12,10" fill="Transparent" fill-opacity="1" class="Transparent" />
      </g>
    </g>
  </g>
  <g id="Layer_1" transform="translate(0, 1)">
    <g transform="matrix(1.75, 0, 0, 1.75, 0, 0)">
      <g id="icon">
        <path d="M15.875, 5.226C15.875, 5.32 15.838, 5.411 15.771, 5.478L13.786, 7.481C13.658, 7.609 13.455, 7.606 13.324, 7.475L11.321, 5.478C11.254, 5.411 11.216, 5.32 11.216, 5.225L11.216, 4.116C11.216, 3.995 11.362, 3.935 11.447, 4.02L12.953, 5.522L12.953, 3.613C12.953, 2.853 12.354, 2.257 11.588, 2.257L10.318, 2.257C10.098, 2.257 10.03, 2.187 10.03, 1.966L10.03, 1.374C10.03, 1.167 10.083, 1.071 10.318, 1.071L11.588, 1.071C12.97, 1.071 14.092, 2.149 14.144, 3.526L14.144, 3.53L14.144, 3.543C14.144, 3.561 14.142, 3.579 14.137, 3.596L14.137, 5.52L15.636, 4.027C15.724, 3.939 15.874, 4.002 15.874, 4.126L15.874, 5.226z" fill="#1177D7" fill-opacity="1" class="Blue" />
      </g>
    </g>
  </g>
  <g id="Layer_1" transform="translate(0, 1)">
    <g transform="matrix(1.75, 0, 0, 1.75, 0, 0)">
      <g id="icon">
        <path d="M8.083, 0L0.917, 0C0.41, 0 0, 0.41 0, 0.917L0, 8.084C0, 8.59 0.41, 9 0.917, 9L8.084, 9C8.59, 9 9, 8.59 9, 8.083L9, 0.917C9, 0.41 8.59, 0 8.083, 0zM7.941, 7.385C8.042, 7.51 7.957, 7.7 7.799, 7.7L6.06, 7.7C6.005, 7.7 5.953, 7.675 5.918, 7.631L4.605, 6.011L3.375, 7.627C3.34, 7.673 3.286, 7.7 3.23, 7.7L1.479, 7.7C1.324, 7.7 1.238, 7.515 1.334, 7.389L3.461, 4.598L1.044, 1.615C0.943, 1.491 1.028, 1.3 1.186, 1.3L2.925, 1.3C2.98, 1.3 3.032, 1.325 3.067, 1.369L4.539, 3.185L5.92, 1.373C5.955, 1.327 6.009, 1.3 6.065, 1.3L7.816, 1.3C7.971, 1.3 8.057, 1.485 7.961, 1.611L5.683, 4.598L7.941, 7.385z" fill="Transparent" fill-opacity="1" class="Transparent" />
      </g>
    </g>
  </g>
  <g id="Layer_1" transform="translate(0, 1)">
    <g transform="matrix(1.75, 0, 0, 1.75, 0, 0)">
      <g id="icon">
        <path d="M5.683, 4.598L7.96, 1.611C8.056, 1.485 7.969, 1.3 7.815, 1.3L6.064, 1.3C6.007, 1.3 5.954, 1.327 5.919, 1.373L4.538, 3.185L3.066, 1.369C3.031, 1.325 2.979, 1.3 2.924, 1.3L1.186, 1.3C1.029, 1.3 0.943, 1.491 1.044, 1.615L3.461, 4.598L1.334, 7.389C1.238, 7.515 1.324, 7.7 1.479, 7.7L3.23, 7.7C3.287, 7.7 3.34, 7.673 3.375, 7.627L4.606, 6.012L5.919, 7.632C5.954, 7.675 6.006, 7.7 6.06, 7.7L7.799, 7.7C7.956, 7.7 8.042, 7.509 7.941, 7.385L5.683, 4.598z" fill="#FFFFFF" fill-opacity="1" class="White" />
      </g>
    </g>
  </g>
  <g id="Layer_1" transform="translate(1, 0)">
    <g transform="matrix(0.5, 0, 0, 0.5, 0, 0)">
      <g transform="matrix(1.75, 0, 0, 1.75, 0, 0)">
        <g id="icon">
          <path d="M15.7, 1.747L14.1864, 0.3446C13.947, 0.123 13.6228, 0 13.7166, 0L1.3, 0C0.2667, 0 0, 0.4722 0, 1.4L0, 14.6C0, 15.5278 0.3522, 16 1.3, 16L14.8, 16C15.704, 16 16, 15.724 16, 14.8L16, 2.4C16, 2.0715 15.9411, 1.9701 15.7, 1.747zM3, 1L13, 1L13, 5C13, 5.5523 12.5523, 6 12, 6L3.9365, 6C3.4193, 6 3, 5.5807 3, 5.0635L3, 1zM14, 14.2C14, 14.6271 13.6538, 15 13.2267, 15L2.7933, 15C2.3662, 15 2, 14.6271 2, 14.2L2, 8.7733C2, 8.3462 2.3662, 8 2.7933, 8L13.166, 8C13.6266, 8 14, 8.3734 14, 8.834L14, 14.2z" fill="#727272" fill-opacity="1" class="Black" />
        </g>
      </g>
    </g>
  </g>
  <g id="Layer_1" transform="translate(1, 0)">
    <g transform="matrix(0.5, 0, 0, 0.5, 0, 0)">
      <g transform="matrix(1.75, 0, 0, 1.75, 0, 0)">
        <g id="icon">
          <path d="M12.2198, 6L3.7167, 6C3.3209, 6 3, 5.6791 3, 5.2833L3, 1L13, 1L13, 5.2198C13, 5.6507 12.6507, 6 12.2198, 6z" fill="#FFFFFF" fill-opacity="1" class="White" />
        </g>
      </g>
    </g>
  </g>
  <g id="Layer_1" transform="translate(1, 0)">
    <g transform="matrix(0.5, 0, 0, 0.5, 0, 0)">
      <g transform="matrix(1.75, 0, 0, 1.75, 0, 0)">
        <g id="icon">
          <path d="M13.51, 14.9733L2.51, 14.9733C2.2394, 14.9733 2.02, 14.7539 2.02, 14.4833L2.02, 8.49C2.02, 8.2194 2.2394, 8 2.51, 8L13.4493, 8C13.7534, 8 14, 8.2466 14, 8.5507L14, 14.4833C14, 14.754 13.7806, 14.9733 13.51, 14.9733z" fill="#FFFFFF" fill-opacity="1" class="White" />
        </g>
      </g>
    </g>
  </g>
  <g id="Layer_1" transform="translate(1, 0)">
    <g transform="matrix(0.5, 0, 0, 0.5, 0, 0)">
      <g transform="matrix(1.75, 0, 0, 1.75, 0, 0)">
        <g id="icon">
          <path d="M10.6932, 5L9.3068, 5C9.1373, 5 9, 4.8627 9, 4.6932L9, 2.3068C9, 2.1373 9.1373, 2 9.3068, 2L10.6933, 2C10.8627, 2 11.0001, 2.1373 11.0001, 2.3068L11.0001, 4.6933C11, 4.8627 10.8627, 5 10.6932, 5z" fill="#727272" fill-opacity="1" class="Black" />
        </g>
      </g>
    </g>
  </g>
  <g id="Layer_1" transform="translate(1, 0)">
    <g transform="matrix(0.5, 0, 0, 0.5, 0, 0)">
      <g transform="matrix(1.75, 0, 0, 1.75, 0, 0)">
        <g id="icon">
          <path d="M5, 10.5L11, 10.5M5, 12.5L11, 12.5" fill="none" stroke="#000000" stroke-width="1px" stroke-linecap="round" stroke-miterlimit="1" stroke-opacity="1" />
        </g>
      </g>
    </g>
  </g>
  <g id="Layer_1" transform="translate(16, 15)">
    <g transform="matrix(0.5, 0, 0, 0.5, 0, 0)">
      <g transform="matrix(2, 0, 0, 2, 0, 0)">
        <g id="icon">
          <path d="M12.9917, 1L3.0083, 1C1.8992, 1 1, 1.8992 1, 3.0083L1, 12.9916C1, 14.1008 1.8992, 15 3.0083, 15L12.9916, 15C14.1008, 15 14.9999, 14.1008 14.9999, 12.9917L14.9999, 3.0083C15, 1.8992 14.1008, 1 12.9917, 1zM11.8323, 10.4724C11.969, 10.6091 11.969, 10.8307 11.8323, 10.9674L10.9673, 11.8324C10.8306, 11.9691 10.609, 11.9691 10.4723, 11.8324L8, 9.3599L5.5276, 11.8323C5.3909, 11.969 5.1693, 11.969 5.0326, 11.8323L4.1676, 10.9673C4.0309, 10.8306 4.0309, 10.609 4.1676, 10.4723L6.6401, 8L4.1677, 5.5276C4.031, 5.3909 4.031, 5.1693 4.1677, 5.0326L5.0327, 4.1676C5.1694, 4.0309 5.391, 4.0309 5.5277, 4.1676L8, 6.6401L10.4724, 4.1677C10.6091, 4.031 10.8307, 4.031 10.9674, 4.1677L11.8324, 5.0327C11.9691, 5.1694 11.9691, 5.391 11.8324, 5.5277L9.3599, 8L11.8323, 10.4724z" fill="#039C23" fill-opacity="1" class="Green" fill-rule="evenodd" />
        </g>
      </g>
    </g>
  </g>
  <g id="Layer_1" transform="translate(16, 15)">
    <g transform="matrix(0.5, 0, 0, 0.5, 0, 0)">
      <g transform="matrix(2, 0, 0, 2, 0, 0)">
        <g id="icon">
          <path d="M10.4724, 4.1677L8, 6.6401L5.5276, 4.1677C5.3909, 4.031 5.1693, 4.031 5.0326, 4.1677L4.1676, 5.0327C4.0309, 5.1694 4.0309, 5.391 4.1676, 5.5277L6.6401, 8L4.1677, 10.4724C4.031, 10.6091 4.031, 10.8307 4.1677, 10.9674L5.0327, 11.8324C5.1694, 11.9691 5.391, 11.9691 5.5277, 11.8324L8, 9.3599L10.4724, 11.8323C10.6091, 11.969 10.8307, 11.969 10.9674, 11.8323L11.8324, 10.9673C11.9691, 10.8306 11.9691, 10.609 11.8324, 10.4723L9.3599, 8L11.8323, 5.5276C11.969, 5.3909 11.969, 5.1693 11.8323, 5.0326L10.9673, 4.1676C10.8307, 4.031 10.6091, 4.031 10.4724, 4.1677z" fill="#FFFFFF" fill-opacity="1" class="White" fill-rule="evenodd" />
        </g>
      </g>
    </g>
  </g>
</svg>