<?xml version='1.0' encoding='UTF-8'?>
<svg viewBox="-4.8475 -2 32 32" xmlns="http://www.w3.org/2000/svg" xmlns:xlink="http://www.w3.org/1999/xlink">
  <g id="Layer_1" transform="translate(-3.8275, -0.935)">
    <g transform="matrix(0.9333, 0, 0, 0.9333, 0, 0)">
      <g transform="matrix(1, 0, 0, 1, 0, 0)">
        <g id="icon">
          <path d="M26.8, 1L5.3, 1C4.64, 1 4.1, 1.54 4.1, 2.2L4.1, 29.8C4.1, 30.46 4.64, 31 5.3, 31L26.8, 31C27.46, 31 28, 30.46 28, 29.8L28, 2.2C28, 1.54 27.46, 1 26.8, 1zM7, 3C7.552, 3 8, 3.448 8, 4C8, 4.552 7.552, 5 7, 5C6.448, 5 6, 4.552 6, 4C6, 3.448 6.448, 3 7, 3zM7, 29C6.448, 29 6, 28.552 6, 28C6, 27.448 6.448, 27 7, 27C7.552, 27 8, 27.448 8, 28C8, 28.552 7.552, 29 7, 29zM25, 29C24.448, 29 24, 28.552 24, 28C24, 27.448 24.448, 27 25, 27C25.552, 27 26, 27.448 26, 28C26, 28.552 25.552, 29 25, 29zM16, 24C10.477, 24 6, 19.523 6, 14C6, 8.477 10.477, 4 16, 4C21.523, 4 26, 8.477 26, 14C26, 19.523 21.523, 24 16, 24zM25, 5C24.448, 5 24, 4.552 24, 4C24, 3.448 24.448, 3 25, 3C25.552, 3 26, 3.448 26, 4C26, 4.552 25.552, 5 25, 5z" fill="#1177D7" fill-opacity="1" class="Blue" />
        </g>
      </g>
    </g>
  </g>
  <g id="Layer_1" transform="translate(-3.8275, -0.935)">
    <g transform="matrix(0.9333, 0, 0, 0.9333, 0, 0)">
      <g transform="matrix(1, 0, 0, 1, 0, 0)">
        <g id="icon">
          <path d="M8, 4C8, 4.552 7.552, 5 7, 5C6.448, 5 6, 4.552 6, 4C6, 3.448 6.448, 3 7, 3C7.552, 3 8, 3.448 8, 4zM25, 3C24.448, 3 24, 3.448 24, 4C24, 4.552 24.448, 5 25, 5C25.552, 5 26, 4.552 26, 4C26, 3.448 25.552, 3 25, 3zM25, 27C24.448, 27 24, 27.448 24, 28C24, 28.552 24.448, 29 25, 29C25.552, 29 26, 28.552 26, 28C26, 27.448 25.552, 27 25, 27zM7, 27C6.448, 27 6, 27.448 6, 28C6, 28.552 6.448, 29 7, 29C7.552, 29 8, 28.552 8, 28C8, 27.448 7.552, 27 7, 27zM16, 4C10.477, 4 6, 8.477 6, 14C6, 19.523 10.477, 24 16, 24C21.523, 24 26, 19.523 26, 14C26, 8.477 21.523, 4 16, 4z" fill="#FFFFFF" fill-opacity="1" class="White" />
        </g>
      </g>
    </g>
  </g>
  <g id="Layer_1" transform="translate(-3.8275, -0.935)">
    <g transform="matrix(0.9333, 0, 0, 0.9333, 0, 0)">
      <g transform="matrix(1, 0, 0, 1, 0, 0)">
        <g id="icon">
          <circle cx="15.967" cy="14" r="1.3" fill="#727272" fill-opacity="1" class="Black" />
        </g>
      </g>
    </g>
  </g>
  <g id="Layer_1" transform="translate(-3.8275, -0.935)">
    <g transform="matrix(0.9333, 0, 0, 0.9333, 0, 0)">
      <g transform="matrix(1, 0, 0, 1, 0, 0)">
        <g id="icon">
          <path d="M16, 9.9C13.736, 9.9 11.9, 11.736 11.9, 14C11.9, 16.264 13.736, 18.1 16, 18.1C18.264, 18.1 20.1, 16.264 20.1, 14C20.1, 11.736 18.264, 9.9 16, 9.9zM16, 17C14.343, 17 13, 15.657 13, 14C13, 12.343 14.343, 11 16, 11C17.657, 11 19, 12.343 19, 14C19, 15.657 17.657, 17 16, 17z" fill="#727272" fill-opacity="1" class="Black" />
        </g>
      </g>
    </g>
  </g>
</svg>