<?xml version='1.0' encoding='UTF-8'?>
<svg viewBox="-2 -2.0025 32 32" xmlns="http://www.w3.org/2000/svg" xmlns:xlink="http://www.w3.org/1999/xlink">
  <g id="Layer_1" transform="translate(-0.9333, -0.9381)">
    <g transform="matrix(0.9333, 0, 0, 0.9333, 0, 0)">
      <g id="icon">
        <path d="M21.7414, 1.0038C21.0175, 1.0247 20.3148, 1.134 19.6424, 1.3188C15.3287, 2.1684 12.0747, 5.9698 12.0747, 10.5326C12.0747, 11.6697 12.2769, 12.7596 12.6471, 13.7684C9.862, 16.5595 1.1906, 25.1176 1.1906, 25.1176C1.0685, 25.2414 1, 25.4084 1, 25.5823L1, 30.3382C1, 30.7037 1.2963, 31.0001 1.6618, 31.0001L7.3957, 31.0001C7.7612, 31.0001 8, 30.7037 8, 30.3382L8, 28L10.2967, 28C10.6622, 28 11, 27.7026 11, 27.3371L11, 25L13.2977, 25C13.6632, 25 14, 24.8016 14, 24.4362L14, 21.2L15.0242, 20.1567L15.5246, 20.6726C15.7782, 20.9288 16.1851, 20.935 16.4462, 20.6864C16.4462, 20.6864 17.2312, 19.8782 17.9253, 19.231C19.0193, 19.6773 20.2141, 19.9252 21.4685, 19.9252C26.0325, 19.9252 29.8341, 16.6694 30.6823, 12.354C30.862, 11.699 30.9701, 11.0155 30.9946, 10.3116C31.1755, 5.1107 26.9356, 0.8538 21.7414, 1.0038zM24.1308, 5.486C25.5244, 5.486 26.6542, 6.6157 26.6542, 8.0094C26.6542, 9.403 25.5245, 10.5328 24.1308, 10.5328C22.7371, 10.5328 21.6074, 9.4031 21.6074, 8.0094C21.6074, 6.6157 22.7371, 5.486 24.1308, 5.486z" fill="#FFB115" class="Yellow" />
      </g>
    </g>
  </g>
  <g id="Layer_1" transform="translate(14, 13.9975)" style="enable-background:new 0 0 16 16">
    <g id="Window_1_">
      <path d="M16, 4L16, 1C16, 0.4 15.5, 0 15, 0L1, 0C0.5, 0 0, 0.4 0, 1L0, 4L16, 4z" fill="#1177D7" class="Blue" />
    </g>
  </g>
  <g id="Layer_1" transform="translate(14, 13.9975)" style="enable-background:new 0 0 16 16">
    <g id="Window_1_">
      <path d="M0, 4L0, 15C0, 15.6 0.5, 16 1, 16L15, 16C15.5, 16 16, 15.6 16, 15L16, 4L0, 4z" fill="#727272" class="Black" />
    </g>
  </g>
  <g id="Layer_1" transform="translate(14, 13.9975)" style="enable-background:new 0 0 16 16">
    <g id="Window_1_">
      <rect x="2" y="4" width="12" height="10" rx="0" ry="0" fill="#FFFFFF" class="White" />
    </g>
  </g>
</svg>