<?xml version='1.0' encoding='UTF-8'?>
<svg viewBox="-2 -2.935 32 32" xmlns="http://www.w3.org/2000/svg" xmlns:xlink="http://www.w3.org/1999/xlink">
  <g id="Layer_1" transform="translate(-0.935, -1.8687)">
    <g transform="matrix(0.9333, 0, 0, 0.9333, 0, 0)">
      <g transform="matrix(1, 0, 0, 1, 0, 0)">
        <g id="icon">
          <path d="M29.617, 7L2.383, 7C1.619, 7 1, 7.619 1, 8.383L1, 23.616C1, 24.38 1.619, 24.999 2.383, 24.999L29.616, 24.999C30.38, 24.999 30.999, 24.38 30.999, 23.616L30.999, 8.383C31, 7.619 30.381, 7 29.617, 7zM27.5, 12C26.672, 12 26, 11.328 26, 10.5C26, 9.672 26.672, 9 27.5, 9C28.328, 9 29, 9.672 29, 10.5C29, 11.328 28.328, 12 27.5, 12z" fill="#727272" fill-opacity="1" class="Black" />
        </g>
      </g>
    </g>
  </g>
  <g id="Layer_1" transform="translate(-0.935, -1.8687)">
    <g transform="matrix(0.9333, 0, 0, 0.9333, 0, 0)">
      <g transform="matrix(1, 0, 0, 1, 0, 0)">
        <g id="icon">
          <circle cx="27.5" cy="10.5" r="1.5" fill="#FFFFFF" fill-opacity="1" class="White" />
        </g>
      </g>
    </g>
  </g>
  <g id="Layer_1" transform="translate(-0.935, -1.8687)">
    <g transform="matrix(0.9333, 0, 0, 0.9333, 0, 0)">
      <g transform="matrix(1, 0, 0, 1, 0, 0)">
        <g id="icon">
          <path d="M9, 5.433L9, 6.5L5, 6.5L5, 5.433C5, 5.194 5.194, 5 5.433, 5L6, 5L6, 2.3C6, 2.134 6.134, 2 6.3, 2L7.7, 2C7.866, 2 8, 2.134 8, 2.3L8, 5L8.567, 5C8.806, 5 9, 5.194 9, 5.433zM15, 5.433L15, 6.5L11, 6.5L11, 5.433C11, 5.194 11.194, 5 11.433, 5L12, 5L12, 2.3C12, 2.134 12.134, 2 12.3, 2L13.7, 2C13.866, 2 14, 2.134 14, 2.3L14, 5L14.567, 5C14.806, 5 15, 5.194 15, 5.433zM21, 5.433L21, 6.5L17, 6.5L17, 5.433C17, 5.194 17.194, 5 17.433, 5L18, 5L18, 2.3C18, 2.134 18.134, 2 18.3, 2L19.7, 2C19.866, 2 20, 2.134 20, 2.3L20, 5L20.567, 5C20.806, 5 21, 5.194 21, 5.433zM27, 5.433L27, 6.5L23, 6.5L23, 5.433C23, 5.194 23.194, 5 23.433, 5L24, 5L24, 2.3C24, 2.134 24.134, 2 24.3, 2L25.7, 2C25.866, 2 26, 2.134 26, 2.3L26, 5L26.567, 5C26.806, 5 27, 5.194 27, 5.433zM8.567, 27L8, 27L8, 29.7C8, 29.866 7.866, 30 7.7, 30L6.3, 30C6.134, 30 6, 29.866 6, 29.7L6, 27L5.433, 27C5.194, 27 5, 26.806 5, 26.567L5, 25.5L9, 25.5L9, 26.567C9, 26.806 8.806, 27 8.567, 27zM14.567, 27L14, 27L14, 29.7C14, 29.866 13.866, 30 13.7, 30L12.3, 30C12.134, 30 12, 29.866 12, 29.7L12, 27L11.433, 27C11.194, 27 11, 26.806 11, 26.567L11, 25.5L15, 25.5L15, 26.567C15, 26.806 14.806, 27 14.567, 27zM20.567, 27L20, 27L20, 29.7C20, 29.866 19.866, 30 19.7, 30L18.3, 30C18.134, 30 18, 29.866 18, 29.7L18, 27L17.433, 27C17.194, 27 17, 26.806 17, 26.567L17, 25.5L21, 25.5L21, 26.567C21, 26.806 20.806, 27 20.567, 27zM26.567, 27L26, 27L26, 29.7C26, 29.866 25.866, 30 25.7, 30L24.3, 30C24.134, 30 24, 29.866 24, 29.7L24, 27L23.433, 27C23.194, 27 23, 26.806 23, 26.567L23, 25.5L27, 25.5L27, 26.567C27, 26.806 26.806, 27 26.567, 27z" fill="#727272" fill-opacity="1" class="Black" />
        </g>
      </g>
    </g>
  </g>
</svg>