<?xml version='1.0' encoding='UTF-8'?>
<svg viewBox="-4.535 -2 32 32" xmlns="http://www.w3.org/2000/svg" xmlns:xlink="http://www.w3.org/1999/xlink">
  <g id="Layer_1" transform="translate(-7.4683, -0.9333)">
    <g transform="matrix(0.9333, 0, 0, 0.9333, 0, 0)">
      <g id="icon">
        <path d="M23.088, 1L8.913, 1C8.409, 1 8, 1.409 8, 1.913L8, 4L24, 4L24, 1.913C24, 1.409 23.591, 1 23.088, 1zM22, 3L19, 3L19, 2L22, 2L22, 3zM8, 8L24, 8L24, 5L8, 5L8, 8zM19, 6L22, 6L22, 7L19, 7L19, 6zM8, 30.088C8, 30.592 8.409, 31.001 8.913, 31.001L23.088, 31.001C23.592, 31.001 24.001, 30.592 24.001, 30.088L24.001, 9L8, 9L8, 30.088zM16, 23C17.105, 23 18, 23.895 18, 25C18, 26.105 17.105, 27 16, 27C14.895, 27 14, 26.105 14, 25C14, 23.895 14.895, 23 16, 23z" fill="#727272" class="Black" />
      </g>
    </g>
  </g>
  <g id="Layer_1" transform="translate(11.465, 14)">
    <g id="icon">
      <path d="M8, 0C3.5817, 0 0, 3.5817 0, 8C0, 12.4183 3.5817, 16 8, 16C12.4183, 16 16, 12.4183 16, 8C16, 3.5817 12.4183, 0 8, 0zM12.5, 12.6583C12.5, 12.847 12.347, 13 12.1583, 13L3.8417, 13C3.653, 13 3.5, 12.847 3.5, 12.6583L3.5, 11.3416C3.5, 11.1529 3.653, 10.9999 3.8417, 10.9999L7.4172, 10.9999C6.3325, 9.9027 4.0663, 7.6885 4.0663, 7.6885C4.0236, 7.6432 3.9998, 7.5833 4, 7.521L4.0067, 5.1502C4.007, 5.0517 4.1195, 5.0025 4.1892, 5.0721L7, 7.6312L7, 2.3C7, 2.1658 7.122, 2 7.2563, 2L7.8191, 2L8.2951, 2L8.7462, 2C8.8804, 2 9, 2.1658 9, 2.3L9, 7.6312L11.8166, 5.0832C11.8865, 5.0138 12, 5.0633 12, 5.1618L12, 7.5201C12, 7.5829 11.9757, 7.6432 11.9322, 7.6885C11.9322, 7.6885 9.6491, 9.9028 8.5516, 11L12.1583, 11C12.347, 11 12.5, 11.153 12.5, 11.3417L12.5, 12.6583z" fill="#039C23" class="Green" fill-rule="evenodd" />
    </g>
  </g>
  <g id="Layer_1" transform="translate(11.465, 14)">
    <g id="icon">
      <path d="M12.1583, 11L8.5516, 11C9.6491, 9.9028 11.9322, 7.6885 11.9322, 7.6885C11.9757, 7.6432 12, 7.5829 12, 7.5201L12, 5.1618C12, 5.0633 11.8865, 5.0138 11.8166, 5.0832L9, 7.6312L9, 2.3C9, 2.1658 8.8804, 2 8.7462, 2L8.2951, 2L7.8191, 2L7.2563, 2C7.122, 2 7, 2.1658 7, 2.3L7, 7.6312L4.1891, 5.0722C4.1194, 5.0026 4.0036, 5.0518 4.0033, 5.1503L3.9983, 7.5211C3.9981, 7.5834 4.0227, 7.6433 4.0654, 7.6886C4.0654, 7.6886 6.3324, 9.9028 7.4171, 11.0001L3.8417, 11.0001C3.653, 11 3.5, 11.153 3.5, 11.3417L3.5, 12.6584C3.5, 12.8471 3.653, 13.0001 3.8417, 13.0001L12.1584, 13.0001C12.3471, 13.0001 12.5001, 12.8471 12.5001, 12.6584L12.5001, 11.3417C12.5, 11.153 12.347, 11 12.1583, 11z" fill="#FFFFFF" fill-rule="evenodd" />
    </g>
  </g>
</svg>