<?xml version='1.0' encoding='UTF-8'?>
<svg viewBox="-4.535 -2 32 32" xmlns="http://www.w3.org/2000/svg" xmlns:xlink="http://www.w3.org/1999/xlink">
  <g id="Layer_1" transform="translate(-7.4688, -0.9351)">
    <g transform="matrix(0.9333, 0, 0, 0.9333, 0, 0)">
      <g id="icon">
        <path d="M23.088, 1L8.913, 1C8.409, 1 8, 1.409 8, 1.913L8, 4L24, 4L24, 1.913C24, 1.409 23.591, 1 23.088, 1zM22, 3L19, 3L19, 2L22, 2L22, 3zM8, 8L24, 8L24, 5L8, 5L8, 8zM19, 6L22, 6L22, 7L19, 7L19, 6zM8, 30.088C8, 30.592 8.409, 31.001 8.913, 31.001L23.088, 31.001C23.592, 31.001 24.001, 30.592 24.001, 30.088L24.001, 9L8, 9L8, 30.088zM16, 23C17.105, 23 18, 23.895 18, 25C18, 26.105 17.105, 27 16, 27C14.895, 27 14, 26.105 14, 25C14, 23.895 14.895, 23 16, 23z" fill="#727272" fill-opacity="1" class="Black" />
      </g>
    </g>
  </g>
  <g id="Layer_1" transform="translate(11.465, 14)" style="enable-background:new 0 0 16 16">
    <g id="Window_1_">
      <path d="M16, 4L16, 1C16, 0.4 15.5, 0 15, 0L1, 0C0.5, 0 0, 0.4 0, 1L0, 4L16, 4z" fill="#1177D7" class="Blue" />
    </g>
  </g>
  <g id="Layer_1" transform="translate(11.465, 14)" style="enable-background:new 0 0 16 16">
    <g id="Window_1_">
      <path d="M0, 4L0, 15C0, 15.6 0.5, 16 1, 16L15, 16C15.5, 16 16, 15.6 16, 15L16, 4L0, 4z" fill="#727272" class="Black" />
    </g>
  </g>
  <g id="Layer_1" transform="translate(11.465, 14)" style="enable-background:new 0 0 16 16">
    <g id="Window_1_">
      <rect x="2" y="4" width="12" height="10" rx="0" ry="0" fill="#FFFFFF" class="White" />
    </g>
  </g>
</svg>