<?xml version='1.0' encoding='UTF-8'?>
<svg viewBox="0 -2 32 32" xmlns="http://www.w3.org/2000/svg" xmlns:xlink="http://www.w3.org/1999/xlink">
  <g id="Layer_1" transform="translate(-0.9301, -0.9301)">
    <g transform="matrix(0.9331, 0, 0, 0.9331, 0, 0)">
      <g id="icon">
        <path d="M30.512, 14.812L17.188, 1.488C16.532, 0.832 15.469, 0.832 14.813, 1.488L1.488, 14.812C0.832, 15.468 0.832, 16.531 1.488, 17.187L14.813, 30.512C15.469, 31.168 16.532, 31.168 17.188, 30.512L30.513, 17.187C31.168, 16.532 31.168, 15.468 30.512, 14.812z" fill="#727272" fill-opacity="1" class="Black" />
      </g>
    </g>
  </g>
  <g id="Layer_1" transform="translate(16, 14)">
    <g id="icon">
      <path d="M3.799, 12.37C3.799, 12.439 3.483, 14 2.08, 15.017C1.918, 15.18 1.846, 15.171 1.646, 15.05C0.315, 14.18 0.028, 12.534 0.008, 12.442C-0.028, 12.275 0.054, 12.097 0.228, 12.024C0.27, 12.006 0.317, 12 0.363, 12L3.439, 12C3.837, 12 3.799, 12.073 3.799, 12.37zM4.389, 0.599C5.437, 1.536 5.847, 2.694 5.85, 2.711C5.884, 2.88 6.025, 3 6.188, 3L15.608, 3C15.65, 3 15.693, 2.994 15.733, 2.978C15.897, 2.91 15.979, 2.739 15.953, 2.575C15.932, 2.443 15.304, 0 13.156, 0L4.644, 0C3.815, 0 3.85, 0.116 4.389, 0.599zM16, 12.34C16, 15.641 13.339, 16 13.225, 16C13.175, 16 6.334, 16 4.108, 16C3.796, 16 2.91, 15.955 2.739, 15.781C2.675, 15.716 2.927, 15.546 3.183, 15.318C3.184, 15.317 3.185, 15.317 3.185, 15.317C3.467, 15.064 4.486, 14.052 4.756, 12.42C4.9, 11.156 3.725, 9.391 2.729, 7.684C1.76, 6.025 0.844, 4.456 0.844, 3.163C0.844, 1.189 1.851, 0.613 2.453, 0.379C2.567, 0.335 2.698, 0.347 2.794, 0.422C4.111, 1.444 4.622, 2.202 5.053, 3.429C5.131, 3.651 5.312, 4 5.545, 4L12.355, 4C12.524, 4 12.669, 4.133 12.711, 4.298C13.004, 5.445 13.684, 7.105 14.342, 8.396C15.116, 9.914 15.993, 11.347 16, 12.34zM4.9, 7L10.7, 7C10.976, 7 11.2, 6.776 11.2, 6.5C11.2, 6.224 10.976, 6 10.7, 6L4.9, 6C4.624, 6 4.4, 6.224 4.4, 6.5C4.4, 6.776 4.624, 7 4.9, 7zM6.1, 9L11.9, 9C12.176, 9 12.4, 8.776 12.4, 8.5C12.4, 8.224 12.176, 8 11.9, 8L6.1, 8C5.824, 8 5.6, 8.224 5.6, 8.5C5.6, 8.776 5.824, 9 6.1, 9zM6.9, 11L12.7, 11C12.976, 11 13.2, 10.776 13.2, 10.5C13.2, 10.224 12.976, 10 12.7, 10L6.9, 10C6.624, 10 6.4, 10.224 6.4, 10.5C6.4, 10.776 6.624, 11 6.9, 11zM13.6, 12.5C13.6, 12.224 13.376, 12 13.1, 12L7.3, 12C7.024, 12 6.8, 12.224 6.8, 12.5C6.8, 12.776 7.024, 13 7.3, 13L13.1, 13C13.376, 13 13.6, 12.776 13.6, 12.5z" fill="#FFB115" class="Yellow" />
    </g>
  </g>
  <g id="Layer_1" transform="translate(16, 14)">
    <g id="icon">
      <path d="M4.9, 6.5L10.7, 6.5M6.1, 8.5L11.9, 8.5M6.9, 10.5L12.7, 10.5M7.3, 12.5L13.1, 12.5" fill="none" stroke="#EEB764" stroke-width="1px" stroke-linecap="round" stroke-miterlimit="1" />
    </g>
  </g>
</svg>