<?xml version='1.0' encoding='UTF-8'?>
<svg viewBox="0 -0.08 32 32" xmlns="http://www.w3.org/2000/svg" xmlns:xlink="http://www.w3.org/1999/xlink">
  <g id="Layer_1" transform="translate(-0.9325, -0.9325)">
    <g transform="matrix(0.9312, 0, 0, 0.9312, 0, 0)">
      <g id="icon">
        <path d="M27.7182, 19.0025L30.736, 20.1003C30.9652, 20.1837 31.1024, 20.4209 31.0618, 20.6635L30.8687, 21.8178C30.8295, 22.0523 30.6346, 22.228 30.3995, 22.2409L27.214, 22.4154L26.4299, 23.9493L28.2158, 26.4783C28.3611, 26.6841 28.3348, 26.9664 28.1539, 27.1411L27.2194, 28.044C27.0503, 28.2074 26.792, 28.2315 26.5961, 28.1023L23.935, 26.3464L22.4319, 27.1474L22.3368, 30.2219C22.3291, 30.4698 22.1455, 30.676 21.9022, 30.7098L20.5686, 30.8951C20.3379, 30.9271 20.1156, 30.7952 20.031, 30.5761L18.9324, 27.7313L17.3602, 27.4434L15.4468, 29.8906C15.2964, 30.083 15.0315, 30.1396 14.8169, 30.0252L13.6595, 29.4087C13.4502, 29.2972 13.346, 29.0535 13.4092, 28.8231L14.2172, 25.877L13.1321, 24.7375L10.1012, 25.623C9.8702, 25.6905 9.6243, 25.5836 9.514, 25.3678L8.9326, 24.2303C8.8225, 24.015 8.8782, 23.7511 9.0656, 23.5998L11.5552, 21.5893L11.2744, 20.2056L8.3282, 19.1006C8.1032, 19.0162 7.9685, 18.7832 8.0063, 18.5438L8.1986, 17.325C8.2357, 17.0898 8.4294, 16.9121 8.6647, 16.8974L11.8449, 16.699L12.5803, 15.2007L10.8073, 12.7552C10.66, 12.5521 10.6821, 12.2707 10.8591, 12.0935L11.8408, 11.1107C12.0108, 10.9405 12.2759, 10.9148 12.4748, 11.049L15.0751, 12.8036L16.5339, 12.065L16.665, 8.9127C16.675, 8.6721 16.8507, 8.4715 17.086, 8.4323L18.416, 8.2104C18.6518, 8.1711 18.8824, 8.3045 18.9681, 8.5299L20.0866, 11.4723L21.6588, 11.7602L23.5842, 9.2986C23.7275, 9.1154 23.9759, 9.0543 24.1865, 9.1504L25.3558, 9.6839C25.5839, 9.788 25.7016, 10.0454 25.6323, 10.2883L24.771, 13.3041L25.8517, 14.4168L28.9085, 13.5264C29.1378, 13.4596 29.3819, 13.5646 29.4933, 13.7777L30.0632, 14.8688C30.174, 15.0809 30.123, 15.3423 29.9409, 15.4962L27.5083, 17.5517L27.7182, 19.0025zM18.9021, 15.6546C16.7888, 16.0072 15.3586, 18.0236 15.7077, 20.1584C16.0568, 22.2932 18.053, 23.7378 20.1663, 23.3852C22.2796, 23.0326 23.7098, 21.0161 23.3607, 18.8814C23.0116, 16.7467 21.0154, 15.302 18.9021, 15.6546z" fill="#727272" fill-opacity="1" class="Black" fill-rule="evenodd" />
      </g>
    </g>
  </g>
  <g id="Layer_1" transform="translate(-0.9325, -0.9325)">
    <g transform="matrix(0.9312, 0, 0, 0.9312, 0, 0)">
      <g id="icon">
        <path d="M13.1305, 10.443L13.5278, 9.4812C13.6232, 9.2502 13.5403, 8.9834 13.3314, 8.8489L12.0456, 8.0209C12.092, 7.6555 12.0964, 7.2792 12.057, 6.8977L13.3797, 6.0556C13.5893, 5.9222 13.6735, 5.6558 13.5793, 5.4243L13.1869, 4.4603C13.0927, 4.2288 12.8473, 4.0994 12.6054, 4.1535L11.1225, 4.4851C10.8831, 4.1631 10.6059, 3.8737 10.2982, 3.6223L10.6442, 2.0813C10.699, 1.8372 10.5721, 1.5887 10.3434, 1.4923L9.3911, 1.0909C9.1625, 0.9945 8.8983, 1.0782 8.7651, 1.2893L7.9459, 2.5873C7.5813, 2.5354 7.2056, 2.5256 6.8243, 2.5619L5.9998, 1.2405C5.8677, 1.0288 5.604, 0.9437 5.3749, 1.0389L4.4206, 1.4353C4.1915, 1.5305 4.0633, 1.7783 4.1168, 2.0227L4.4349, 3.4743C4.0979, 3.7234 3.8159, 4.0237 3.5551, 4.3489L2.104, 4.0194C1.8626, 3.9646 1.6172, 4.0928 1.5219, 4.3234L1.1239, 5.2869C1.0286, 5.5175 1.1111, 5.7839 1.3194, 5.9187L2.5317, 6.7028C2.4752, 7.0929 2.4556, 7.4916 2.4974, 7.9006L1.2388, 8.6978C1.0287, 8.8309 0.9439, 9.0974 1.038, 9.3292L1.4283, 10.2907C1.5224, 10.5225 1.768, 10.6522 2.0102, 10.598L3.4021, 10.2861C3.6586, 10.6365 3.9672, 10.9291 4.3035, 11.1968L3.984, 12.6303C3.9297, 12.8742 4.0566, 13.1222 4.2849, 13.2185L5.2386, 13.6205C5.4669, 13.7167 5.7306, 13.6334 5.864, 13.423L6.6407, 12.1976C7.0241, 12.2493 7.4156, 12.2642 7.8168, 12.2183L8.6152, 13.5044C8.747, 13.7166 9.0108, 13.8022 9.2403, 13.7072L10.1922, 13.3129C10.4217, 13.2179 10.5501, 12.9697 10.4964, 12.7251L10.1775, 11.2728C10.506, 11.021 10.8002, 10.7293 11.0534, 10.4042L12.547, 10.7469C12.7889, 10.8022 13.035, 10.674 13.1305, 10.443zM7.5561, 9.6189C6.3427, 9.777 5.2322, 8.9116 5.0757, 7.686C4.9191, 6.4603 5.7759, 5.3386 6.9892, 5.1804C8.2026, 5.0223 9.3131, 5.8877 9.4696, 7.1133C9.6261, 8.339 8.7694, 9.4608 7.5561, 9.6189z" fill="#1177D7" fill-opacity="1" class="Blue" fill-rule="evenodd" />
      </g>
    </g>
  </g>
  <g id="Layer_1" transform="translate(16, 15.92)">
    <g id="icon">
      <path d="M3.799, 12.37C3.799, 12.439 3.483, 14 2.08, 15.017C1.918, 15.18 1.846, 15.171 1.646, 15.05C0.315, 14.18 0.028, 12.534 0.008, 12.442C-0.028, 12.275 0.054, 12.097 0.228, 12.024C0.27, 12.006 0.317, 12 0.363, 12L3.439, 12C3.837, 12 3.799, 12.073 3.799, 12.37zM4.389, 0.599C5.437, 1.536 5.847, 2.694 5.85, 2.711C5.884, 2.88 6.025, 3 6.188, 3L15.608, 3C15.65, 3 15.693, 2.994 15.733, 2.978C15.897, 2.91 15.979, 2.739 15.953, 2.575C15.932, 2.443 15.304, 0 13.156, 0L4.644, 0C3.815, 0 3.85, 0.116 4.389, 0.599zM16, 12.34C16, 15.641 13.339, 16 13.225, 16C13.175, 16 6.334, 16 4.108, 16C3.796, 16 2.91, 15.955 2.739, 15.781C2.675, 15.716 2.927, 15.546 3.183, 15.318C3.184, 15.317 3.185, 15.317 3.185, 15.317C3.467, 15.064 4.486, 14.052 4.756, 12.42C4.9, 11.156 3.725, 9.391 2.729, 7.684C1.76, 6.025 0.844, 4.456 0.844, 3.163C0.844, 1.189 1.851, 0.613 2.453, 0.379C2.567, 0.335 2.698, 0.347 2.794, 0.422C4.111, 1.444 4.622, 2.202 5.053, 3.429C5.131, 3.651 5.312, 4 5.545, 4L12.355, 4C12.524, 4 12.669, 4.133 12.711, 4.298C13.004, 5.445 13.684, 7.105 14.342, 8.396C15.116, 9.914 15.993, 11.347 16, 12.34zM4.9, 7L10.7, 7C10.976, 7 11.2, 6.776 11.2, 6.5C11.2, 6.224 10.976, 6 10.7, 6L4.9, 6C4.624, 6 4.4, 6.224 4.4, 6.5C4.4, 6.776 4.624, 7 4.9, 7zM6.1, 9L11.9, 9C12.176, 9 12.4, 8.776 12.4, 8.5C12.4, 8.224 12.176, 8 11.9, 8L6.1, 8C5.824, 8 5.6, 8.224 5.6, 8.5C5.6, 8.776 5.824, 9 6.1, 9zM6.9, 11L12.7, 11C12.976, 11 13.2, 10.776 13.2, 10.5C13.2, 10.224 12.976, 10 12.7, 10L6.9, 10C6.624, 10 6.4, 10.224 6.4, 10.5C6.4, 10.776 6.624, 11 6.9, 11zM13.6, 12.5C13.6, 12.224 13.376, 12 13.1, 12L7.3, 12C7.024, 12 6.8, 12.224 6.8, 12.5C6.8, 12.776 7.024, 13 7.3, 13L13.1, 13C13.376, 13 13.6, 12.776 13.6, 12.5z" fill="#FFB115" class="Yellow" />
    </g>
  </g>
  <g id="Layer_1" transform="translate(16, 15.92)">
    <g id="icon">
      <path d="M4.9, 6.5L10.7, 6.5M6.1, 8.5L11.9, 8.5M6.9, 10.5L12.7, 10.5M7.3, 12.5L13.1, 12.5" fill="none" stroke="#EEB764" stroke-width="1px" stroke-linecap="round" stroke-miterlimit="1" />
    </g>
  </g>
</svg>