<?xml version='1.0' encoding='UTF-8'?>
<svg viewBox="0 -2 32 31.9975" xmlns="http://www.w3.org/2000/svg" xmlns:xlink="http://www.w3.org/1999/xlink">
  <g id="Layer_1" transform="translate(4.3713, -1.0401)">
    <g transform="matrix(0.9768, 0, 0, 0.9768, 0, 0)">
      <g id="icon">
        <path d="M26.6, 10.3L17.764, 10.3L17.764, 1.464C17.764, 1.243 17.582, 1.064 17.357, 1.064L14.643, 1.064C14.418, 1.064 14.236, 1.243 14.236, 1.464L14.236, 10.3L5.4, 10.3C5.179, 10.3 5, 10.482 5, 10.707L5, 13.421C5, 13.646 5.179, 13.828 5.4, 13.828L14.236, 13.828L14.236, 22.664C14.236, 22.885 14.418, 23.064 14.643, 23.064L17.357, 23.064C17.582, 23.064 17.764, 22.885 17.764, 22.664L17.764, 13.828L26.6, 13.828C26.821, 13.828 27, 13.646 27, 13.421L27, 10.707C27, 10.482 26.821, 10.3 26.6, 10.3z" fill="#039C23" fill-opacity="1" class="Green" />
      </g>
    </g>
  </g>
  <g id="Layer_1" transform="translate(4.3713, -1.0401)">
    <g transform="matrix(0.9768, 0, 0, 0.9768, 0, 0)">
      <g id="icon">
        <g>
          <path d="M5, 26.607L5, 29.321C5, 29.546 5.179, 29.728 5.4, 29.728L26.6, 29.728C26.821, 29.728 27, 29.546 27, 29.321L27, 26.607C27, 26.382 26.821, 26.2 26.6, 26.2L5.4, 26.2C5.179, 26.2 5, 26.382 5, 26.607z" fill="#D11C1C" fill-opacity="1" class="Red" />
        </g>
      </g>
    </g>
  </g>
  <g id="Layer_1" transform="translate(0, 13.9975)">
    <g id="icon">
      <path d="M8, 0C3.5817, 0 0, 3.5817 0, 8C0, 12.4183 3.5817, 16 8, 16C12.4183, 16 16, 12.4183 16, 8C16, 3.5817 12.4183, 0 8, 0zM13, 6.6904C13, 6.8452 12.8745, 7 12.7197, 7L9.3906, 7C9.3171, 7 9.2465, 6.9711 9.194, 6.9195L8.2838, 5.9947C8.1048, 5.8186 8.2299, 5.514 8.4811, 5.5147L10.1528, 5.5191L9.6858, 5.197C9.159, 4.8852 8.5548, 4.7204 7.9384, 4.7204C7.0001, 4.7204 6.1216, 5.0996 5.4647, 5.7881C4.1975, 7.1164 4.1975, 9.1975 5.4647, 10.5258C6.1397, 11.2333 7.0186, 11.623 7.9394, 11.623C8.829, 11.623 9.6876, 11.2543 10.3571, 10.5849C10.8175, 10.1245 11.1394, 9.5216 11.28, 8.8646C11.3105, 8.7221 11.4465, 8.6279 11.5909, 8.6475C11.8979, 8.6891 12.4005, 8.7569 12.7158, 8.8006C12.8765, 8.8229 12.9833, 8.9762 12.9518, 9.1354C12.7554, 10.1263 12.2767, 11.0226 11.5551, 11.7442C10.59, 12.7093 9.3075, 13.2408 7.9438, 13.2408C6.5545, 13.2408 5.2545, 12.6909 4.2834, 11.6923C2.3757, 9.7308 2.3794, 6.5353 4.2917, 4.5691C5.2629, 3.5705 6.5701, 3.0206 7.9726, 3.0206C9.1448, 3.0206 10.3579, 3.5384 11.329, 4.3059L11.5, 4.4494L11.5, 2.4808C11.5, 2.2311 11.8127, 2.1061 11.9892, 2.2826L12.9125, 3.1794C12.9651, 3.232 13, 3.3032 13, 3.3776L13, 6.6904z" fill="#039C23" class="Green" fill-rule="evenodd" />
    </g>
  </g>
  <g id="Layer_1" transform="translate(0, 13.9975)">
    <g id="icon">
      <path d="M7.9439, 13.2408C6.5546, 13.2408 5.2546, 12.6909 4.2835, 11.6923C2.3758, 9.7308 2.3795, 6.5353 4.2918, 4.5691C5.263, 3.5705 6.5702, 3.0206 7.9727, 3.0206C9.1449, 3.0206 10.3688, 3.5384 11.3399, 4.3059L11.5215, 4.4494L11.5215, 2.4808C11.5215, 2.2311 11.8234, 2.1061 11.9999, 2.2826L12.9178, 3.1794C12.9704, 3.232 12.9999, 3.3032 12.9999, 3.3776L12.9999, 6.6904C12.9999, 6.8452 12.8744, 7 12.7196, 7L9.3906, 7C9.3171, 7 9.2465, 6.9711 9.194, 6.9195L8.2838, 5.9947C8.1048, 5.8186 8.23, 5.514 8.4811, 5.5147L10.1528, 5.5191L9.6858, 5.197C9.159, 4.8852 8.5548, 4.7204 7.9384, 4.7204C7.0001, 4.7204 6.1216, 5.0996 5.4647, 5.7881C4.1975, 7.1164 4.1975, 9.1975 5.4647, 10.5258C6.1397, 11.2333 7.0186, 11.623 7.9394, 11.623C8.829, 11.623 9.6876, 11.2543 10.3571, 10.5849C10.8175, 10.1245 11.1394, 9.5216 11.2801, 8.8646C11.3106, 8.7221 11.4466, 8.6279 11.591, 8.6475C11.898, 8.6891 12.4006, 8.7569 12.7159, 8.8006C12.8766, 8.8229 12.9834, 8.9762 12.9519, 9.1354C12.7555, 10.1263 12.2768, 11.0227 11.5552, 11.7442C10.5901, 12.7093 9.3076, 13.2408 7.9439, 13.2408z" fill="#FFFFFF" />
    </g>
  </g>
</svg>