<?xml version='1.0' encoding='UTF-8'?>
<svg viewBox="-0.8 -2.17 32 31.9975" xmlns="http://www.w3.org/2000/svg" xmlns:xlink="http://www.w3.org/1999/xlink">
  <g id="Layer_1" transform="translate(0.265, -0.9337)">
    <g transform="matrix(0.9333, 0, 0, 0.9333, 0, 0)">
      <g id="icon">
        <line x1="10.9" y1="12.5" x2="23.6" y2="12.5" fill="none" stroke="#000000" stroke-width="1px" stroke-linecap="round" stroke-linejoin="round" stroke-miterlimit="1" stroke-opacity="1" />
      </g>
    </g>
  </g>
  <g id="Layer_1" transform="translate(0.265, -0.9337)">
    <g transform="matrix(0.9333, 0, 0, 0.9333, 0, 0)">
      <g id="icon">
        <polyline points="23.6,23.5 15.5,23.5 15.5,12.6" fill="none" stroke="#000000" stroke-width="1px" stroke-linecap="round" stroke-linejoin="round" stroke-miterlimit="1" stroke-opacity="1" />
      </g>
    </g>
  </g>
  <g id="Layer_1" transform="translate(0.265, -0.9337)">
    <g transform="matrix(0.9333, 0, 0, 0.9333, 0, 0)">
      <g id="icon">
        <path d="M18.48, 7.692L7.708, 18.438C7.512, 18.633 7.195, 18.633 6.999, 18.438L1.147, 12.6C0.951, 12.405 0.951, 12.088 1.147, 11.893L11.919, 1.147C12.115, 0.952 12.432, 0.952 12.628, 1.147L18.48, 6.985C18.676, 7.18 18.676, 7.497 18.48, 7.692z" fill="#FFB115" fill-opacity="1" class="Yellow" fill-rule="evenodd" />
      </g>
    </g>
  </g>
  <g id="Layer_1" transform="translate(0.265, -0.9337)">
    <g transform="matrix(0.9333, 0, 0, 0.9333, 0, 0)">
      <g id="icon">
        <path d="M30.854, 12.638L23.891, 19.616C23.696, 19.811 23.38, 19.811 23.185, 19.616L19.508, 15.932C19.313, 15.737 19.313, 15.42 19.508, 15.225L26.471, 8.247C26.666, 8.052 26.982, 8.052 27.177, 8.247L30.854, 11.931C31.049, 12.126 31.049, 12.443 30.854, 12.638z" fill="#039C23" fill-opacity="1" class="Green" fill-rule="evenodd" />
      </g>
    </g>
  </g>
  <g id="Layer_1" transform="translate(0.265, -0.9337)">
    <g transform="matrix(0.9333, 0, 0, 0.9333, 0, 0)">
      <g id="icon">
        <path d="M30.854, 23.508L23.891, 30.486C23.696, 30.681 23.38, 30.681 23.185, 30.486L19.508, 26.802C19.313, 26.607 19.313, 26.29 19.508, 26.095L26.471, 19.117C26.666, 18.922 26.982, 18.922 27.177, 19.117L30.854, 22.801C31.049, 22.996 31.049, 23.313 30.854, 23.508z" fill="#D11C1C" fill-opacity="1" class="Red" fill-rule="evenodd" />
      </g>
    </g>
  </g>
  <g id="Layer_1" transform="translate(-0.8, 13.8275)">
    <g id="icon">
      <path d="M1.2007, 6.4C1.055, 6.4 0.9472, 6.2616 0.986, 6.1211C1.2702, 5.0911 1.8054, 4.1191 2.593, 3.3093C3.8429, 2.0241 5.5252, 1.3164 7.3302, 1.3164C8.8387, 1.3164 10.4409, 1.9828 11.6907, 2.9705L11.9244, 3.1552L11.9244, 0.2871C11.9244, 0.0893 12.1636, -0.0098 12.3035, 0.1301L13.7349, 1.5615C13.7765, 1.6031 13.7999, 1.6596 13.7999, 1.7185L13.7999, 6.1779C13.7999, 6.3005 13.7005, 6.4 13.5778, 6.4L9.0982, 6.4C9.0399, 6.4 8.984, 6.3771 8.9425, 6.3362L7.4884, 4.9057C7.3465, 4.7661 7.4457, 4.5248 7.6447, 4.5253L10.136, 4.5319L9.5427, 4.1227C9.5376, 4.1192 9.5323, 4.1158 9.5269, 4.1126C8.8509, 3.7145 8.0763, 3.5041 7.2861, 3.5041C6.0785, 3.5041 4.9479, 3.9921 4.1026, 4.8781C3.7076, 5.2921 3.4093, 5.7633 3.2058, 6.2635C3.172, 6.3465 3.0906, 6.4 3.0011, 6.4L1.2007, 6.4zM13.3993, 9.6C13.545, 9.6 13.6528, 9.7384 13.614, 9.8789C13.3298, 10.9089 12.7946, 11.8809 12.007, 12.6907C10.7571, 13.9759 9.0748, 14.6836 7.2698, 14.6836C5.7613, 14.6836 4.1591, 14.0172 2.9093, 13.0295L2.6756, 12.8448L2.6756, 15.7129C2.6756, 15.9107 2.4364, 16.0098 2.2965, 15.8699L0.865, 14.4385C0.8234, 14.3969 0.8, 14.3404 0.8, 14.2815L0.8, 9.8221C0.8, 9.6994 0.8994, 9.6 1.0221, 9.6L5.5019, 9.6C5.5602, 9.6 5.6161, 9.6229 5.6576, 9.6638L7.1117, 11.0944C7.2536, 11.234 7.1544, 11.4753 6.9554, 11.4748L4.4641, 11.4682L5.0574, 11.8774C5.0625, 11.8809 5.0678, 11.8843 5.0732, 11.8875C5.7492, 12.2856 6.5238, 12.496 7.314, 12.496C8.5216, 12.496 9.6522, 12.008 10.4975, 11.122C10.8925, 10.708 11.1908, 10.2368 11.3943, 9.7366C11.428, 9.6537 11.5094, 9.6001 11.5989, 9.6001L13.3993, 9.6001z" fill="#039C23" fill-opacity="1" class="Green" />
    </g>
  </g>
</svg>