<?xml version='1.0' encoding='UTF-8'?>
<svg viewBox="-2.0001 -2.0001 32 32" xmlns="http://www.w3.org/2000/svg" xmlns:xlink="http://www.w3.org/1999/xlink">
  <g id="Layer_1" transform="translate(8.34465708976495E-07, 8.34465708976495E-07)">
    <g transform="matrix(1.75000143051147, 0, 0, 1.75000143051147, 0, 0)">
      <g id="icon">
        <path d="M14.9, 15.5L1.1, 15.5C0.77, 15.5 0.5, 15.23 0.5, 14.9L0.5, 1.1C0.5, 0.77 0.77, 0.5 1.1, 0.5L14.9, 0.5C15.23, 0.5 15.5, 0.77 15.5, 1.1L15.5, 14.9C15.5, 15.23 15.23, 15.5 14.9, 15.5z" fill="#FFFFFF" stroke="#000000" stroke-width="1px" stroke-miterlimit="10" />
      </g>
    </g>
  </g>
  <g id="Layer_1" transform="translate(-5.55419921610678E-07, 6.36672973453045E-07)">
    <g transform="matrix(1.75000143051147, 0, 0, 1.75000143051147, 0, 0)">
      <g id="icon">
        <circle cx="10.5" cy="4.5" r="2.5" fill="#FFB115" class="Yellow" />
      </g>
    </g>
  </g>
  <g id="Layer_1" transform="translate(6.36672973453045E-07, -9.76562493093525E-08)">
    <g transform="matrix(1.75000143051147, 0, 0, 1.75000143051147, 0, 0)">
      <g id="icon">
        <path d="M9.147, 9.357C9.94, 9.995 10.814, 10.598 11.854, 10.935L11.554, 11.523C7.079, 10.194 6.224, 3.88 2, 9.148L2, 14L13.99, 14L13.99, 12.453L14, 12.453L14, 11.011L14, 10.133L14, 10.014C12.464, 8.721 10.981, 7.724 9.147, 9.357z" fill="#039C23" class="Green" />
      </g>
    </g>
  </g>
</svg>